<svg width="654" height="115" viewBox="0 0 654 115" fill="none" xmlns="http://www.w3.org/2000/svg">
<g clip-path="url(#clip0_1_140)">
<g clip-path="url(#clip1_1_140)">
<path d="M24.9484 72.0365V114.922H15.1264V100.939H9.84586V114.922H0.0119019V91.0448H15.1383V74.0872C15.1383 72.7201 14.4827 72.0365 13.1715 72.0365H11.8127C10.5015 72.0365 9.84586 72.7201 9.84586 74.0872V90.1333H0.0119019V72.0365C0.0119019 66.0961 3.28989 63.13 9.84586 63.138H15.1383C21.6784 63.138 24.9484 66.1041 24.9484 72.0365Z" fill="#A57F2D"/>
<path d="M45.2839 104.74V114.922H27.4039V63.066H37.226V104.74H45.2839Z" fill="#A57F2D"/>
<path d="M47.6202 63.1379H67.8841V72.0365H57.4541V82.458H47.6321L47.6202 63.1379ZM47.6202 83.4414H67.0616V93.3234H57.4541V105.04H67.0616V114.922H47.6321L47.6202 83.4414Z" fill="#A57F2D"/>
<path d="M95.4669 63.066L87.2301 88.994L95.4669 114.922H85.5614L82.2357 104.656L78.9816 114.922H69.088L77.3247 88.994L69.088 63.066H78.9816L82.2237 73.4036L85.5495 63.066H95.4669Z" fill="#A57F2D"/>
<path d="M121.893 72.0365V114.922H112.071V100.939H106.779V114.922H96.8615V91.0448H111.988V74.0872C111.988 72.7201 111.332 72.0365 110.021 72.0365H108.662C107.351 72.0365 106.695 72.7201 106.695 74.0872V90.1333H96.8615V72.0365C96.8615 66.0961 100.139 63.13 106.695 63.138H111.988C118.592 63.138 121.893 66.1041 121.893 72.0365Z" fill="#A57F2D"/>
<path d="M150.561 63.066V114.922H139.38L134.159 92.7957V114.922H124.337V63.066H135.291L140.739 86.1758V63.066H150.561Z" fill="#A57F2D"/>
<path d="M177.774 72.0365V106.024C177.774 111.956 174.5 114.922 167.952 114.922H152.885V63.1379H168C174.516 63.1379 177.774 66.1041 177.774 72.0365ZM167.952 104.285V74.0872C167.952 72.72 167.296 72.0365 165.985 72.0365H162.66V106.335H165.997C167.3 106.335 167.952 105.652 167.952 104.285Z" fill="#A57F2D"/>
<path d="M204.606 87.6988C204.606 91.9562 202.889 94.7025 199.468 95.9138L204.606 114.922H194.331L189.944 96.9331V114.922H180.122V63.1379H194.784C201.332 63.1379 204.606 66.1041 204.606 72.0365V87.6988ZM194.784 84.4368V74.0152C194.822 73.7465 194.797 73.4726 194.711 73.2152C194.626 72.9578 194.482 72.724 194.291 72.5321C194.101 72.3402 193.868 72.1955 193.612 72.1095C193.356 72.0235 193.084 71.9985 192.817 72.0365H189.944V86.4276H192.817C193.086 86.4687 193.36 86.4454 193.618 86.3597C193.877 86.274 194.111 86.1282 194.303 85.9343C194.494 85.7403 194.638 85.5037 194.721 85.2435C194.805 84.9833 194.826 84.7069 194.784 84.4368Z" fill="#A57F2D"/>
<path d="M216.466 114.922H206.644V63.1379H216.466V114.922Z" fill="#A57F2D"/>
<path d="M243.608 72.0365V114.922H233.774V100.939H228.494V114.922H218.66V91.0448H233.774V74.0872C233.774 72.7201 233.118 72.0365 231.819 72.0365H230.448C229.137 72.0365 228.494 72.7201 228.494 74.0872V90.1333H218.66V72.0365C218.66 66.0961 221.938 63.13 228.494 63.138H233.774C240.33 63.138 243.608 66.1041 243.608 72.0365Z" fill="#A57F2D"/>
<path d="M284.267 89.9774C284.267 95.9497 281.001 98.9359 274.469 98.9359H270.38V114.982H260.558V63.1379H274.469C281.017 63.1379 284.291 66.1041 284.291 72.0365L284.267 89.9774ZM274.469 86.7154V74.0152C274.507 73.7465 274.482 73.4726 274.396 73.2152C274.311 72.9578 274.167 72.724 273.976 72.5321C273.785 72.3402 273.553 72.1955 273.297 72.1095C273.041 72.0235 272.769 71.9985 272.502 72.0365H270.38V88.6942H272.502C272.769 88.7322 273.041 88.7072 273.297 88.6212C273.553 88.5352 273.785 88.3905 273.976 88.1986C274.167 88.0067 274.311 87.7728 274.396 87.5154C274.482 87.258 274.507 86.9841 274.469 86.7154Z" fill="#A57F2D"/>
<path d="M310.646 87.6988C310.646 91.9562 308.929 94.7025 305.508 95.9138L310.646 114.922H300.371L295.984 96.9331V114.922H286.162V63.1379H300.824C307.372 63.1379 310.646 66.1041 310.646 72.0365V87.6988ZM300.824 84.4368V74.0152C300.862 73.7465 300.837 73.4726 300.751 73.2152C300.666 72.9578 300.522 72.724 300.331 72.5321C300.14 72.3402 299.908 72.1955 299.652 72.1095C299.396 72.0235 299.124 71.9985 298.857 72.0365H295.984V86.4276H298.857C299.126 86.4687 299.4 86.4454 299.658 86.3597C299.916 86.274 300.151 86.1282 300.342 85.9343C300.534 85.7403 300.677 85.5037 300.761 85.2435C300.845 84.9833 300.866 84.7069 300.824 84.4368Z" fill="#A57F2D"/>
<path d="M337.776 72.0365V106.024C337.776 111.956 334.502 114.922 327.954 114.922H322.661C316.121 114.922 312.847 111.956 312.839 106.024V72.0365C312.839 66.0961 316.113 63.13 322.661 63.138H327.954C334.502 63.138 337.776 66.1041 337.776 72.0365ZM327.954 104.285V74.0153C327.991 73.7465 327.967 73.4727 327.881 73.2153C327.796 72.9579 327.652 72.724 327.461 72.5321C327.27 72.3402 327.038 72.1955 326.782 72.1095C326.526 72.0235 326.254 71.9985 325.987 72.0365H324.628C324.361 71.9985 324.089 72.0235 323.833 72.1095C323.577 72.1955 323.344 72.3402 323.154 72.5321C322.963 72.724 322.819 72.9579 322.734 73.2153C322.648 73.4727 322.623 73.7465 322.661 74.0153V104.285C322.623 104.553 322.647 104.826 322.733 105.084C322.818 105.341 322.963 105.574 323.154 105.765C323.345 105.956 323.578 106.1 323.833 106.184C324.089 106.268 324.362 106.292 324.628 106.251H325.987C326.253 106.292 326.525 106.268 326.781 106.184C327.037 106.1 327.27 105.956 327.461 105.765C327.652 105.574 327.796 105.341 327.882 105.084C327.967 104.826 327.992 104.553 327.954 104.285Z" fill="#A57F2D"/>
<path d="M364.762 72.0365V80.863H354.94V74.0153C354.94 72.6961 354.309 72.0365 353.045 72.0365H351.615C351.348 71.9985 351.075 72.0235 350.82 72.1095C350.564 72.1955 350.331 72.3402 350.141 72.5321C349.95 72.724 349.806 72.9579 349.72 73.2153C349.635 73.4727 349.61 73.7465 349.648 74.0153V104.285C349.61 104.553 349.634 104.826 349.72 105.084C349.805 105.341 349.949 105.574 350.14 105.765C350.331 105.956 350.564 106.1 350.82 106.184C351.076 106.268 351.348 106.292 351.615 106.251H353.999V114.922H349.696C343.14 114.922 339.862 111.956 339.862 106.024V72.0365C339.862 66.0961 343.14 63.13 349.696 63.138H354.988C361.496 63.138 364.754 66.1041 364.762 72.0365ZM354.94 97.4368H351.364V87.471H364.822V114.922H355L354.94 97.4368Z" fill="#A57F2D"/>
<path d="M391.523 87.6988C391.523 91.9562 389.806 94.7025 386.373 95.9138L391.523 114.922H381.236L376.849 96.9331V114.922H367.027V63.1379H381.748C388.304 63.1379 391.582 66.1041 391.582 72.0365L391.523 87.6988ZM381.748 84.4368V74.0152C381.786 73.7465 381.761 73.4726 381.676 73.2152C381.59 72.9578 381.447 72.724 381.256 72.5321C381.065 72.3402 380.833 72.1955 380.577 72.1095C380.321 72.0235 380.049 71.9985 379.782 72.0365H376.909V86.4276H379.782C380.05 86.4687 380.325 86.4454 380.583 86.3597C380.841 86.274 381.075 86.1282 381.267 85.9343C381.459 85.7403 381.602 85.5037 381.686 85.2435C381.769 84.9833 381.791 84.7069 381.748 84.4368Z" fill="#A57F2D"/>
<path d="M393.668 63.1379H413.932V72.0365H403.502V82.458H393.668V63.1379ZM393.668 83.4414H413.098V93.3234H403.562V105.04H413.098V114.922H393.668V83.4414Z" fill="#A57F2D"/>
<path d="M440.418 95.1582V107.331C439.965 112.408 436.691 114.942 430.596 114.934H425.304C418.748 114.934 415.474 111.968 415.482 106.036V94.8584H425.304V104.297C425.266 104.565 425.29 104.838 425.376 105.095C425.461 105.353 425.605 105.586 425.796 105.777C425.987 105.968 426.22 106.112 426.476 106.196C426.732 106.28 427.004 106.304 427.271 106.263H428.63C428.896 106.304 429.168 106.28 429.424 106.196C429.68 106.112 429.913 105.968 430.104 105.777C430.295 105.586 430.439 105.353 430.525 105.095C430.61 104.838 430.635 104.565 430.596 104.297V97.8326C430.6 97.4437 430.521 97.0586 430.365 96.7029C430.208 96.3472 429.979 96.0291 429.69 95.7698L418.343 86.7994C417.445 86.1021 416.722 85.2025 416.233 84.173C415.734 83.1463 415.477 82.0178 415.482 80.875V72.0484C415.482 66.1081 418.756 63.1419 425.304 63.1499H430.62C437.168 63.1499 440.442 66.1161 440.442 72.0484V80.875H430.62V74.0272C430.658 73.7585 430.633 73.4846 430.548 73.2272C430.462 72.9698 430.318 72.7359 430.128 72.544C429.937 72.3521 429.704 72.2075 429.449 72.1215C429.193 72.0354 428.92 72.0105 428.653 72.0484H427.294C427.027 72.0105 426.755 72.0354 426.499 72.1215C426.244 72.2075 426.011 72.3521 425.82 72.544C425.63 72.7359 425.486 72.9698 425.4 73.2272C425.315 73.4846 425.29 73.7585 425.328 74.0272V78.2126C425.321 78.5972 425.406 78.9776 425.576 79.322C425.747 79.6664 425.997 79.9646 426.305 80.1914L437.569 89.1619C438.483 89.8621 439.218 90.7712 439.714 91.8139C440.209 92.8566 440.451 94.003 440.418 95.1582Z" fill="#A57F2D"/>
<path d="M467.179 95.1582V107.331C466.726 112.408 463.448 114.942 457.345 114.934H452.076C445.528 114.934 442.254 111.968 442.254 106.036V94.8584H452.076V104.297C452.038 104.565 452.062 104.838 452.148 105.095C452.233 105.353 452.377 105.586 452.568 105.777C452.759 105.968 452.992 106.112 453.248 106.196C453.504 106.28 453.776 106.304 454.043 106.263H455.402C455.668 106.304 455.94 106.28 456.196 106.196C456.452 106.112 456.685 105.968 456.876 105.777C457.067 105.586 457.211 105.353 457.297 105.095C457.382 104.838 457.407 104.565 457.368 104.297V97.8326C457.375 97.4432 457.298 97.0571 457.141 96.7009C456.985 96.3448 456.753 96.0271 456.463 95.7698L445.127 86.7994C444.229 86.1021 443.506 85.2025 443.017 84.173C442.508 83.1493 442.247 82.0194 442.254 80.875V72.0484C442.254 66.1081 445.528 63.1419 452.076 63.1499H457.368C463.924 63.1499 467.202 66.1161 467.202 72.0484V80.875H457.368V74.0272C457.406 73.7585 457.381 73.4846 457.296 73.2272C457.21 72.9698 457.067 72.7359 456.876 72.544C456.685 72.3521 456.453 72.2075 456.197 72.1215C455.941 72.0354 455.669 72.0105 455.402 72.0484H454.043C453.776 72.0105 453.503 72.0354 453.248 72.1215C452.992 72.2075 452.759 72.3521 452.569 72.544C452.378 72.7359 452.234 72.9698 452.149 73.2272C452.063 73.4846 452.038 73.7585 452.076 74.0272V78.2126C452.071 78.5982 452.158 78.9794 452.33 79.3238C452.502 79.6683 452.754 79.9659 453.065 80.1914L464.33 89.1619C465.241 89.8641 465.975 90.7735 466.47 91.8158C466.965 92.858 467.208 94.0034 467.179 95.1582Z" fill="#A57F2D"/>
<path d="M483.426 73.2477V63.1379H505.644V73.2477H483.426ZM489.624 74.0872H499.446V114.922H489.624V74.0872Z" fill="#A57F2D"/>
<path d="M531.94 87.6988C531.94 91.9562 530.223 94.7025 526.79 95.9138L531.94 114.922H521.653L517.278 96.9331V114.922H507.444V63.1379H522.106C528.662 63.1379 531.94 66.1041 531.94 72.0365V87.6988ZM522.106 84.4368V74.0152C522.143 73.7465 522.119 73.4726 522.033 73.2152C521.948 72.9578 521.804 72.724 521.613 72.5321C521.422 72.3402 521.19 72.1955 520.934 72.1095C520.678 72.0235 520.406 71.9985 520.139 72.0365H517.278V86.4276H520.139C520.409 86.4708 520.684 86.4491 520.944 86.3644C521.204 86.2796 521.44 86.1341 521.633 85.9399C521.826 85.7457 521.971 85.5082 522.055 85.247C522.139 84.9857 522.161 84.7081 522.118 84.4368H522.106Z" fill="#A57F2D"/>
<path d="M558.7 72.0365V114.922H548.878V100.939H543.585V114.922H533.763V91.0448H548.878V74.0872C548.878 72.7201 548.222 72.0365 546.911 72.0365H545.552C544.241 72.0365 543.585 72.7201 543.585 74.0872V90.1333H533.763V72.0365C533.763 66.0961 537.037 63.13 543.585 63.138H548.878C555.426 63.138 558.7 66.1041 558.7 72.0365Z" fill="#A57F2D"/>
<path d="M585.913 72.0365V106.024C585.913 111.956 582.639 114.922 576.091 114.922H560.965V63.1379H576.043C582.623 63.1379 585.913 66.1041 585.913 72.0365ZM576.043 104.285V74.0872C576.043 72.72 575.388 72.0365 574.077 72.0365H570.751V106.335H574.077C575.388 106.335 576.043 105.652 576.043 104.285Z" fill="#A57F2D"/>
<path d="M598 114.922H588.178V63.1379H598V114.922Z" fill="#A57F2D"/>
<path d="M626.799 63.066V114.922H615.618L610.397 92.7957V114.922H600.575V63.066H611.529L616.977 86.1758V63.066H626.799Z" fill="#A57F2D"/>
<path d="M654.012 72.0365V80.863H644.19V74.0153C644.19 72.6961 643.558 72.0365 642.295 72.0365H640.864C640.597 71.9985 640.325 72.0235 640.069 72.1095C639.813 72.1955 639.581 72.3402 639.39 72.5321C639.199 72.724 639.055 72.9579 638.97 73.2153C638.884 73.4727 638.86 73.7465 638.897 74.0153V104.285C638.859 104.553 638.884 104.826 638.969 105.084C639.055 105.341 639.199 105.574 639.39 105.765C639.581 105.956 639.814 106.1 640.07 106.184C640.326 106.268 640.598 106.292 640.864 106.251H643.248V114.922H638.945C632.389 114.922 629.111 111.956 629.111 106.024V72.0365C629.111 66.0961 632.389 63.13 638.945 63.138H644.237C650.754 63.138 654.012 66.1041 654.012 72.0365ZM644.19 97.4368H640.554V87.471H654.012V114.922H644.19V97.4368Z" fill="#A57F2D"/>
</g>
<path d="M139.294 28.8688V16.7104C139.294 11.9564 142.752 8.6286 147.724 8.6286H153.686V13.9412H147.581C145.613 13.9412 144.672 15.0109 144.672 17.2096V23.5563H153.543V29.7246C153.543 34.8233 150.633 37.64 145.387 37.64H138.662C133.404 37.64 130.494 34.8233 130.494 29.7246V15.8191H135.836V30.3902C136.051 31.9115 136.504 32.2323 138.161 32.2323H145.923C147.45 32.2323 148.213 31.6025 148.213 30.3902V28.8688H139.294ZM135.717 40.9916H141.059V46.3518H135.717V40.9916ZM143.3 40.9916H148.642V46.3518H143.3V40.9916Z" fill="#A57F2D"/>
<path d="M156.786 32.4106H157.454C160.101 32.4106 161.4 31.1508 161.4 28.7381V8.6286H166.742V27.716C166.742 28.4291 166.742 29.0471 166.742 29.5463C166.668 31.2972 166.124 32.9963 165.168 34.4667C164.577 35.2993 163.818 35.9992 162.939 36.5212C162.06 37.0432 161.081 37.3758 160.065 37.4974C159.433 37.4974 158.586 37.64 157.549 37.64H156.834L156.786 32.4106Z" fill="#A57F2D"/>
<path d="M170.772 28.8688V0H176.114V23.5562H176.472V28.8688H170.772Z" fill="#A57F2D"/>
<path d="M193.463 23.5563V17.2215C193.463 15.0228 192.521 13.9531 190.649 13.9531H182.708V8.6405H190.458C195.442 8.6405 198.9 11.9445 198.9 16.7223V23.5682H199.162V28.8807H176.114V23.5682L193.463 23.5563ZM186.38 32.2323H191.769V37.64H186.38V32.2323Z" fill="#A57F2D"/>
<path d="M198.9 23.5562H210.155V8.62858H215.485V23.5562H215.76V28.8688H198.9V23.5562ZM202.572 0H207.914V5.33639H202.572V0ZM210.155 0H215.485V5.33639H210.155V0Z" fill="#A57F2D"/>
<path d="M215.485 23.5562H222.079V0H227.421V28.8688H215.497L215.485 23.5562Z" fill="#A57F2D"/>
<path d="M236.793 28.8688H231.451V0H236.793V28.8688Z" fill="#A57F2D"/>
<path d="M266.792 8.6286V24.6735C266.792 29.7722 263.477 33.0762 258.362 33.0762H257.17V36.4277C257.17 42.6436 254.523 46.2686 248.74 46.3518V40.9916C251.208 40.5875 251.84 39.8031 251.84 37.0933V16.7104C251.84 11.9564 255.25 8.6286 260.27 8.6286H266.792ZM257.146 27.716H258.541C260.509 27.716 261.45 26.6345 261.45 24.4476V13.9412H260.067C258.088 13.9412 257.146 15.0109 257.146 17.2096V27.716Z" fill="#A57F2D"/>
<path d="M282.674 23.5562V20.3353C282.771 19.4689 282.671 18.5919 282.382 17.7691C282.093 16.9463 281.622 16.1987 281.005 15.5813C280.313 14.9832 279.5 14.5414 278.62 14.2859C277.287 13.9568 275.916 13.805 274.542 13.8342V8.52156H276.283C278.886 8.44278 281.446 9.19207 283.592 10.6609C286.514 12.6813 287.992 15.8547 287.992 20.2284V23.4968H288.255V28.8094H270.87V23.4968L282.674 23.5562Z" fill="#A57F2D"/>
<path d="M310.611 8.62858V23.5562H310.873V28.8688H288.052V23.5562H297.328C297.104 23.2239 296.836 22.9239 296.529 22.6649C295.31 21.1135 294.662 19.192 294.693 17.2215C294.62 15.6693 294.988 14.128 295.756 12.7757C296.524 11.4235 297.66 10.3154 299.033 9.57937C300.669 8.85126 302.454 8.51738 304.244 8.60478L310.611 8.62858ZM296.172 0H301.609V5.33639H296.231L296.172 0ZM305.269 22.8788V13.9412H303.922C301.37 13.9412 300.071 15.0109 300.071 17.1621C300.071 19.8005 301.823 21.6784 305.269 22.8788ZM303.743 0H309.133V5.33639H303.743V0Z" fill="#A57F2D"/>
<path d="M310.611 23.5562H321.879V8.62858H327.209V23.5562H327.483V28.8688H310.611V23.5562ZM314.284 0H319.625V5.33639H314.284V0ZM321.867 0H327.197V5.33639H321.879L321.867 0Z" fill="#A57F2D"/>
<path d="M327.197 23.5562H333.802V0H339.144V23.5562H339.418V28.8688H327.197V23.5562Z" fill="#A57F2D"/>
<path d="M339.132 23.5562H345.726V0H351.056V28.8688H339.132V23.5562Z" fill="#A57F2D"/>
<path d="M382.403 8.62858V23.5562H382.689V28.8688H377.037V15.1535C373.174 16.4489 370.264 21.5476 368.869 28.8688H363.397C364.553 16.4489 371.958 9.29414 382.403 8.62858ZM369.442 0H374.879V5.33639H369.442V0ZM377.073 0H382.403V5.33639H377.073V0Z" fill="#A57F2D"/>
<path d="M382.403 23.5563H393.67V8.6286H399V28.8332H382.403V23.5563ZM386.087 32.2323H391.417V37.64H386.087V32.2323ZM393.67 32.2323H399V37.64H393.67V32.2323Z" fill="#A57F2D"/>
<path d="M402.136 32.4106H402.816C405.463 32.4106 406.762 31.1508 406.762 28.7381V8.6286H412.092V27.716C412.092 28.4291 412.092 29.0471 412.092 29.5463C412.012 31.2962 411.469 32.9938 410.518 34.4667C409.926 35.3007 409.165 36.0014 408.284 36.5235C407.402 37.0456 406.421 37.3774 405.403 37.4974C404.783 37.4974 403.925 37.64 402.899 37.64H402.172L402.136 32.4106Z" fill="#A57F2D"/>
<path d="M427.927 23.5562V20.3354C427.927 18.1485 427.39 16.5797 426.269 15.5813C425.578 14.982 424.764 14.54 423.885 14.2859C422.551 13.9559 421.18 13.804 419.807 13.8343V8.5216H421.559C424.162 8.44529 426.721 9.19436 428.869 10.6609C431.778 12.6814 433.256 15.8547 433.256 20.2284V23.4968H433.531V28.8094H416.134V23.4968L427.927 23.5562Z" fill="#A57F2D"/>
<path d="M433.304 23.5562H439.922V8.62858H445.263V23.5562H445.526V28.8688H433.304V23.5562ZM439.922 0H445.263V5.33639H439.922V0Z" fill="#A57F2D"/>
<path d="M451.702 18.0534V8.90191L463.351 0.190125H472.187L457.127 11.4928V12.7527H465.605C470.529 12.7527 474.035 16.1042 474.035 20.8464V23.6156H474.297V28.9282H445.24V23.6156H468.645V21.3812C468.645 19.1825 467.668 18.1128 465.688 18.1128L451.702 18.0534Z" fill="#A57F2D"/>
<path d="M487.974 23.5563V15.8191H493.315V23.5563H499.42V12.2416H504.75V23.5563H510.712V8.6286H516.053V28.8332H473.582V23.5206L487.974 23.5563Z" fill="#A57F2D"/>
<path d="M525.425 33.1237V35.2155H523.637C522.778 35.2155 522.325 35.7146 522.325 36.6535C522.325 37.5925 522.826 37.842 523.815 37.842H526.319V39.8982H519.368V37.842H520.56C520.387 37.4691 520.294 37.0644 520.286 36.6535C520.275 36.1822 520.359 35.7134 520.535 35.2757C520.711 34.838 520.974 34.4404 521.308 34.107C521.643 33.7736 522.042 33.5114 522.481 33.3362C522.92 33.1611 523.39 33.0766 523.863 33.088L525.425 33.1237ZM525.425 28.8688H520.083V0H525.425V28.8688Z" fill="#A57F2D"/>
</g>
<defs>
<clipPath id="clip0_1_140">
<rect width="654" height="115" fill="white"/>
</clipPath>
<clipPath id="clip1_1_140">
<rect width="654" height="52" fill="white" transform="translate(0 63)"/>
</clipPath>
</defs>
</svg>
