<svg width="492" height="87" viewBox="0 0 492 87" fill="none" xmlns="http://www.w3.org/2000/svg">
<g clip-path="url(#clip0_4_80)">
<path d="M18.7589 51.7345V83.8875H11.3701V73.3946H7.38879V83.8875H0V65.9857H11.3701V53.272C11.3701 52.247 10.8769 51.7345 9.89057 51.7345H8.86834C7.88197 51.7345 7.38879 52.247 7.38879 53.272V65.3024H0V51.7345C0 47.2838 2.46592 45.0629 7.38879 45.0629H11.3701C16.302 45.0629 18.7589 47.2838 18.7589 51.7345Z" fill="#A57F2D"/>
<path d="M34.0566 76.2448V83.8875H20.5792V45H27.968V76.2448H34.0476H34.0566Z" fill="#A57F2D"/>
<path d="M35.8231 45.0629H51.0579V51.7345H43.2118V59.548H35.8231V45.0629ZM35.8231 60.2852H50.4392V67.6941H43.2208V76.4786H50.4392V83.8875H35.8231V60.2852Z" fill="#A57F2D"/>
<path d="M71.8165 45L65.6203 64.4392L71.8165 83.8785H64.3649L61.8632 76.1819L59.4152 83.8785H51.9636L58.1598 64.4392L51.9636 45H59.4152L61.8632 52.7505L64.3649 45H71.8165Z" fill="#A57F2D"/>
<path d="M91.6604 51.7345V83.8875H84.2716V73.3946H80.2903V83.8875H72.9015V65.9857H84.2716V53.272C84.2716 52.247 83.7784 51.7345 82.7921 51.7345H81.7698C80.7835 51.7345 80.2903 52.247 80.2903 53.272V65.3024H72.9015V51.7345C72.9015 47.2838 75.3674 45.0629 80.2903 45.0629H84.2716C89.1945 45.0629 91.6604 47.2838 91.6604 51.7345Z" fill="#A57F2D"/>
<path d="M113.262 45V83.8875H104.851L100.923 67.2985V83.8875H93.5345V45H101.775L105.873 62.3353V45H113.262Z" fill="#A57F2D"/>
<path d="M133.733 51.7345V77.2159C133.733 81.6666 131.268 83.8875 126.345 83.8875H114.975V45.0629H126.345C131.268 45.0629 133.733 47.2838 133.733 51.7345ZM126.345 75.9032V53.272C126.345 52.247 125.851 51.7345 124.865 51.7345H122.363V77.4497H124.865C125.851 77.4497 126.345 76.9372 126.345 75.9122V75.9032Z" fill="#A57F2D"/>
<path d="M153.918 63.4772C153.918 66.6691 152.627 68.7191 150.053 69.6362L153.918 83.8875H146.189L142.889 70.4364V83.8875H135.5V45.0629H146.529C151.452 45.0629 153.918 47.2838 153.918 51.7345V63.4772ZM146.529 61.0225V53.2091C146.529 52.22 146.036 51.7255 145.05 51.7255H142.889V62.4971H145.05C146.036 62.4971 146.529 62.0026 146.529 61.0135V61.0225Z" fill="#A57F2D"/>
<path d="M162.84 83.8875H155.451V45.0629H162.84V83.8875Z" fill="#A57F2D"/>
<path d="M183.258 51.7345V83.8875H175.869V73.3946H171.888V83.8875H164.499V65.9857H175.869V53.272C175.869 52.247 175.376 51.7345 174.39 51.7345H173.367C172.381 51.7345 171.888 52.247 171.888 53.272V65.3024H164.499V51.7345C164.499 47.2838 166.965 45.0629 171.888 45.0629H175.869C180.792 45.0629 183.258 47.2838 183.258 51.7345Z" fill="#A57F2D"/>
<path d="M213.844 65.1855C213.844 69.6362 211.379 71.8571 206.456 71.8571H203.389V83.8875H196V45.0629H206.465C211.396 45.0629 213.853 47.2838 213.853 51.7345V65.1855H213.844ZM206.456 62.7309V53.2091C206.456 52.22 205.962 51.7255 204.976 51.7255H203.38V64.2144H204.976C205.962 64.2144 206.456 63.7199 206.456 62.7309Z" fill="#A57F2D"/>
<path d="M233.688 63.4772C233.688 66.6691 232.397 68.7191 229.824 69.6362L233.688 83.8875H225.959L222.659 70.4364V83.8875H215.27V45.0629H226.3C231.222 45.0629 233.688 47.2838 233.688 51.7345V63.4772ZM226.3 61.0225V53.2091C226.3 52.22 225.806 51.7255 224.82 51.7255H222.659V62.4971H224.82C225.806 62.4971 226.3 62.0026 226.3 61.0135V61.0225Z" fill="#A57F2D"/>
<path d="M254.106 51.7345V77.2159C254.106 81.6666 251.64 83.8875 246.717 83.8875H242.736C237.804 83.8875 235.347 81.6666 235.347 77.2159V51.7345C235.347 47.2838 237.813 45.0629 242.736 45.0629H246.717C251.649 45.0629 254.106 47.2838 254.106 51.7345ZM246.717 75.9032V53.2091C246.717 52.22 246.224 51.7255 245.238 51.7255H244.216C243.229 51.7255 242.736 52.22 242.736 53.2091V75.9032C242.736 76.8922 243.229 77.3867 244.216 77.3867H245.238C246.224 77.3867 246.717 76.8922 246.717 75.9032Z" fill="#A57F2D"/>
<path d="M274.398 51.7345V58.3521H267.01V53.2181C267.01 52.229 266.534 51.7345 265.593 51.7345H264.508C263.521 51.7345 263.028 52.229 263.028 53.2181V75.9122C263.028 76.9012 263.521 77.3957 264.508 77.3957H266.274V83.8964H263.037C258.105 83.8964 255.648 81.6756 255.648 77.2249V51.7435C255.648 47.2928 258.114 45.0719 263.037 45.0719H267.019C271.941 45.0719 274.407 47.2928 274.407 51.7435L274.398 51.7345ZM267.01 70.7781H264.284V63.3063H274.407V83.8875H267.019V70.7781H267.01Z" fill="#A57F2D"/>
<path d="M294.529 63.4772C294.529 66.6691 293.238 68.7191 290.664 69.6362L294.529 83.8875H286.8L283.5 70.4364V83.8875H276.111V45.0629H287.14C292.072 45.0629 294.529 47.2838 294.529 51.7345V63.4772ZM287.14 61.0225V53.2091C287.14 52.22 286.647 51.7255 285.661 51.7255H283.5V62.4971H285.661C286.647 62.4971 287.14 62.0026 287.14 61.0135V61.0225Z" fill="#A57F2D"/>
<path d="M296.179 45.0629H311.414V51.7345H303.568V59.548H296.179V45.0629ZM296.179 60.2852H310.795V67.6941H303.577V76.4786H310.795V83.8875H296.179V60.2852Z" fill="#A57F2D"/>
<path d="M331.312 69.0608V78.187C330.971 81.9903 328.505 83.8875 323.923 83.8875H319.942C315.01 83.8875 312.553 81.6666 312.553 77.2159V68.836H319.942V75.9032C319.942 76.8922 320.435 77.3867 321.421 77.3867H322.443C323.43 77.3867 323.923 76.8922 323.923 75.9032V71.0568C323.923 70.4454 323.699 69.9329 323.242 69.5193L314.714 62.7938C314.032 62.2633 313.503 61.607 313.118 60.8247C312.741 60.0425 312.553 59.2153 312.553 58.3431V51.7255C312.553 47.2748 315.019 45.054 319.942 45.054H323.923C328.846 45.054 331.312 47.2748 331.312 51.7255V58.3431H323.923V53.2091C323.923 52.22 323.43 51.7255 322.443 51.7255H321.421C320.435 51.7255 319.942 52.22 319.942 53.2091V56.347C319.942 56.9585 320.184 57.453 320.677 57.8306L329.151 64.5561C330.594 65.698 331.312 67.1996 331.312 69.0608Z" fill="#A57F2D"/>
<path d="M351.443 69.0608V78.187C351.102 81.9903 348.636 83.8875 344.054 83.8875H340.073C335.141 83.8875 332.684 81.6666 332.684 77.2159V68.836H340.073V75.9032C340.073 76.8922 340.566 77.3867 341.552 77.3867H342.574C343.561 77.3867 344.054 76.8922 344.054 75.9032V71.0568C344.054 70.4454 343.83 69.9329 343.372 69.5193L334.845 62.7938C334.163 62.2633 333.634 61.607 333.249 60.8247C332.872 60.0425 332.684 59.2153 332.684 58.3431V51.7255C332.684 47.2748 335.15 45.054 340.073 45.054H344.054C348.977 45.054 351.443 47.2748 351.443 51.7255V58.3431H344.054V53.2091C344.054 52.22 343.561 51.7255 342.574 51.7255H341.552C340.566 51.7255 340.073 52.22 340.073 53.2091V56.347C340.073 56.9585 340.315 57.453 340.808 57.8306L349.282 64.5561C350.725 65.698 351.443 67.1996 351.443 69.0608Z" fill="#A57F2D"/>
<path d="M363.665 52.6426V45.0629H380.379V52.6426H363.665ZM368.327 53.272H375.716V83.8875H368.327V53.272Z" fill="#A57F2D"/>
<path d="M400.169 63.4772C400.169 66.6691 398.878 68.7191 396.304 69.6362L400.169 83.8875H392.44L389.14 70.4364V83.8875H381.751V45.0629H392.78C397.703 45.0629 400.169 47.2838 400.169 51.7345V63.4772ZM392.78 61.0225V53.2091C392.78 52.22 392.287 51.7255 391.301 51.7255H389.14V62.4971H391.301C392.287 62.4971 392.78 62.0026 392.78 61.0135V61.0225Z" fill="#A57F2D"/>
<path d="M420.3 51.7345V83.8875H412.911V73.3946H408.93V83.8875H401.541V65.9857H412.911V53.272C412.911 52.247 412.418 51.7345 411.432 51.7345H410.409C409.423 51.7345 408.93 52.247 408.93 53.272V65.3024H401.541V51.7345C401.541 47.2838 404.007 45.0629 408.93 45.0629H412.911C417.834 45.0629 420.3 47.2838 420.3 51.7345Z" fill="#A57F2D"/>
<path d="M440.772 51.7345V77.2159C440.772 81.6666 438.306 83.8875 433.383 83.8875H422.013V45.0629H433.383C438.306 45.0629 440.772 47.2838 440.772 51.7345ZM433.383 75.9032V53.272C433.383 52.247 432.89 51.7345 431.903 51.7345H429.402V77.4497H431.903C432.89 77.4497 433.383 76.9372 433.383 75.9122V75.9032Z" fill="#A57F2D"/>
<path d="M449.864 83.8875H442.475V45.0629H449.864V83.8875Z" fill="#A57F2D"/>
<path d="M471.528 45V83.8875H463.117L459.19 67.2985V83.8875H451.801V45H460.042L464.14 62.3353V45H471.528Z" fill="#A57F2D"/>
<path d="M492 51.7345V58.3521H484.611V53.2181C484.611 52.229 484.136 51.7345 483.194 51.7345H482.109C481.123 51.7345 480.63 52.229 480.63 53.2181V75.9122C480.63 76.9012 481.123 77.3957 482.109 77.3957H483.876V83.8964H480.639C475.707 83.8964 473.25 81.6756 473.25 77.2249V51.7435C473.25 47.2928 475.716 45.0719 480.639 45.0719H484.62C489.552 45.0719 492.009 47.2928 492.009 51.7435L492 51.7345ZM484.611 70.7781H481.885V63.3063H492.009V83.8875H484.62V70.7781H484.611Z" fill="#A57F2D"/>
<path d="M7.47845 21.8489V12.6508C7.47845 9.03627 10.0789 6.52769 13.8181 6.52769H18.2657V10.5558H13.6746C12.1951 10.5558 11.4867 11.365 11.4867 13.0284V17.8298H18.1671V22.4963C18.1671 26.3536 15.9791 28.4845 12.0247 28.4845H6.96733C3.02186 28.4845 0.824951 26.3536 0.824951 22.4963V11.9764H4.84216V22.9998C5.01253 24.1507 5.34431 24.3845 6.59968 24.3845H12.4372C13.585 24.3845 14.1588 23.9079 14.1588 22.9998V21.8489H7.47845ZM4.74352 31.0111H8.76072V35.0661H4.74352V31.0111ZM10.4465 31.0111H14.4637V35.0661H10.4465V31.0111Z" fill="#A57F2D"/>
<path d="M20.633 24.5193H21.1351C23.1258 24.5193 24.1032 23.5752 24.1032 21.75V6.52769H28.1204V20.9678C28.1204 21.5072 28.1204 21.9838 28.0845 22.3524C27.95 23.8719 27.5824 25.1217 26.9009 26.0748C25.9235 27.3965 24.6412 28.1698 23.0541 28.3766C22.5788 28.4126 21.9422 28.4755 21.162 28.4755H20.624V24.5193H20.633Z" fill="#A57F2D"/>
<path d="M31.1602 21.8489V0H35.1774V17.8208H35.4464V21.8489H31.1602Z" fill="#A57F2D"/>
<path d="M48.2244 17.8208V13.0194C48.2244 11.365 47.516 10.5468 46.0992 10.5468H40.1272V6.51871H45.9647C49.7129 6.51871 52.3044 9.01829 52.3044 12.6418V17.8118H52.5106V21.8399H35.1774V17.8118H48.2333L48.2244 17.8208ZM42.898 24.3845H46.9421V28.4755H42.898V24.3845Z" fill="#A57F2D"/>
<path d="M52.3044 17.8208H60.7692V6.5277H64.7864V17.8208H64.9927V21.8489H52.3133V17.8208H52.3044ZM55.0662 0H59.0834V4.02811H55.0662V0ZM60.7692 0H64.7864V4.02811H60.7692V0Z" fill="#A57F2D"/>
<path d="M64.7864 17.8208H69.7451V0H73.7623V21.8489H64.7864V17.8208Z" fill="#A57F2D"/>
<path d="M80.8014 21.8489H76.7842V0H80.8014V21.8489Z" fill="#A57F2D"/>
<path d="M103.371 6.52769V18.666C103.371 22.5233 100.878 25.0228 97.0316 25.0228H96.117V27.5584C96.117 32.2608 94.1263 35.0032 89.7773 35.0661V31.0111C91.6335 30.7054 92.1088 30.1299 92.1088 28.0709V12.6508C92.1088 9.03627 94.6733 6.52769 98.4484 6.52769H103.371ZM96.117 20.9678H97.1661C98.6546 20.9678 99.363 20.1585 99.363 18.4951V10.5468H98.3139C96.8254 10.5468 96.117 11.356 96.117 13.0194V20.9678Z" fill="#A57F2D"/>
<path d="M115.306 17.8208V15.3841C115.306 13.7297 114.903 12.5429 114.06 11.8326C113.522 11.356 112.948 11.0503 112.302 10.8525C111.693 10.6457 110.679 10.5468 109.236 10.5109V6.48274H110.554C112.715 6.48274 114.535 7.02222 116.051 8.11017C118.239 9.6297 119.359 12.0304 119.359 15.3482V17.8208H119.566V21.8489H106.447V17.8208H115.315H115.306Z" fill="#A57F2D"/>
<path d="M136.316 6.5277V17.8208H136.522V21.8489H119.35V17.8208H126.336C126.201 17.614 125.995 17.3802 125.726 17.1464C124.811 15.9596 124.345 14.6109 124.345 13.0554C124.345 10.4479 125.457 8.48781 127.618 7.27398C128.497 6.79744 129.806 6.5277 131.528 6.5277H136.316ZM125.457 0H129.501V4.02811H125.457V0ZM132.308 17.3173V10.5558H131.294C129.376 10.5558 128.398 11.365 128.398 12.9925C128.398 14.9885 129.716 16.4092 132.308 17.3173ZM131.16 0H135.204V4.02811H131.16V0Z" fill="#A57F2D"/>
<path d="M136.316 17.8208H144.781V6.5277H148.798V17.8208H149.004V21.8489H136.325V17.8208H136.316ZM139.078 0H143.095V4.02811H139.078V0ZM144.781 0H148.798V4.02811H144.781V0Z" fill="#A57F2D"/>
<path d="M148.798 17.8208H153.757V0H157.774V17.8208H157.98V21.8489H148.807V17.8208H148.798Z" fill="#A57F2D"/>
<path d="M157.774 17.8208H162.733V0H166.75V21.8489H157.783V17.8208H157.774Z" fill="#A57F2D"/>
<path d="M190.315 6.5277V17.8208H190.548V21.8489H186.298V11.4639C183.402 12.444 181.205 16.3013 180.156 21.8489H176.04C176.883 12.444 182.415 7.0402 190.306 6.5277H190.315ZM180.568 0H184.648V4.02811H180.568V0ZM186.298 0H190.315V4.02811H186.298V0Z" fill="#A57F2D"/>
<path d="M190.315 17.8208H198.78V6.52769H202.797V21.8489H190.315V17.8208ZM193.077 24.3845H197.094V28.4755H193.077V24.3845ZM198.78 24.3845H202.797V28.4755H198.78V24.3845Z" fill="#A57F2D"/>
<path d="M205.155 24.5193H205.658C207.648 24.5193 208.626 23.5752 208.626 21.75V6.52769H212.643V20.9678C212.643 21.5072 212.643 21.9838 212.607 22.3524C212.472 23.8719 212.105 25.1217 211.423 26.0748C210.446 27.3965 209.164 28.1698 207.577 28.3766C207.101 28.4126 206.465 28.4755 205.684 28.4755H205.146V24.5193H205.155Z" fill="#A57F2D"/>
<path d="M224.551 17.8208V15.3841C224.551 13.7297 224.147 12.5429 223.305 11.8326C222.767 11.356 222.193 11.0503 221.547 10.8525C220.937 10.6457 219.924 10.5468 218.48 10.5109V6.48274H219.798C221.96 6.48274 223.78 7.02222 225.295 8.11017C227.483 9.6297 228.604 12.0304 228.604 15.3482V17.8208H228.81V21.8489H215.692V17.8208H224.56H224.551Z" fill="#A57F2D"/>
<path d="M228.595 17.8208H233.554V6.5277H237.571V17.8208H237.777V21.8489H228.604V17.8208H228.595ZM233.554 0H237.571V4.02811H233.554V0Z" fill="#A57F2D"/>
<path d="M242.422 13.6668V6.69853L251.192 0.0989075H257.836L246.502 8.65864V9.60273H252.878C256.59 9.60273 259.217 12.1383 259.217 15.7258V17.8208H259.424V21.8489H237.571V17.8208H255.173V16.1304C255.173 14.476 254.429 13.6578 252.949 13.6578H242.422V13.6668Z" fill="#A57F2D"/>
<path d="M269.709 17.8208V11.9674H273.726V17.8208H278.317V9.26106H282.334V17.8208H286.818V6.52769H290.835V21.8489H258.895V17.8208H269.718H269.709Z" fill="#A57F2D"/>
<path d="M297.874 25.0588V26.6503H296.529C295.892 26.6503 295.551 27.0189 295.551 27.7292C295.551 28.3676 295.919 28.6733 296.663 28.6733H298.555V30.2288H293.328V28.6733H294.206C294.072 28.3676 294 28.0619 294 27.7922C294 26.2007 295.148 25.0498 296.699 25.0498H297.883L297.874 25.0588ZM297.91 21.8489H293.893V0H297.91V21.8489Z" fill="#A57F2D"/>
</g>
<defs>
<clipPath id="clip0_4_80">
<rect width="492" height="87" fill="white"/>
</clipPath>
</defs>
</svg>
