<svg width="100" height="30" viewBox="0 0 100 30" fill="none" xmlns="http://www.w3.org/2000/svg">
<g clip-path="url(#clip0_150_4)">
<mask id="mask0_150_4" style="mask-type:luminance" maskUnits="userSpaceOnUse" x="19" y="1" width="61" height="29">
<path d="M80 1.02271H19V29.9773H80V1.02271Z" fill="white"/>
</mask>
<g mask="url(#mask0_150_4)">
<path d="M80 1.02271H19V29.9773H80V1.02271Z" fill="url(#paint0_linear_150_4)"/>
</g>
<path d="M75.7143 16.239H64.7429V22.9848H67.0475V18.2475C67.0475 18.1571 67.0837 18.0702 67.148 18.0063C67.2123 17.9423 67.2995 17.9066 67.3904 17.9066H73.7523C73.8416 17.909 73.9264 17.946 73.9887 18.0097C74.051 18.0734 74.0857 18.1587 74.0857 18.2475V22.9848H76.4V16.9306C76.4 16.7488 76.328 16.5743 76.1997 16.4449C76.0714 16.3154 75.897 16.2415 75.7143 16.239Z" fill="white"/>
<path d="M33.8857 16.2296H22.6V17.9349H31.9048C31.9957 17.9349 32.0829 17.9708 32.1472 18.0348C32.2115 18.0988 32.2476 18.1856 32.2476 18.2761V18.7972H23.2857C23.1944 18.7984 23.1042 18.8175 23.0204 18.8534C22.9365 18.8893 22.8605 18.9412 22.7968 19.0063C22.7331 19.0714 22.6829 19.1484 22.6492 19.2328C22.6154 19.3172 22.5987 19.4075 22.6 19.4983V22.3123C22.6 22.4941 22.6718 22.6686 22.8002 22.798C22.9285 22.9275 23.1029 23.0014 23.2857 23.0039H34.5618V16.9497C34.5656 16.8581 34.5512 16.7664 34.5192 16.6804C34.4871 16.5945 34.4382 16.5157 34.3752 16.4487C34.3123 16.3817 34.2366 16.3279 34.1526 16.2902C34.0685 16.2526 33.9778 16.232 33.8857 16.2296ZM32.2476 21.2889H25.3713C25.2533 21.289 25.1398 21.2439 25.0546 21.1626C24.9694 21.0814 24.9191 20.9704 24.9142 20.8531C24.9166 20.7333 24.9656 20.6192 25.0508 20.5344C25.136 20.4496 25.2508 20.4008 25.3713 20.3984H32.2476V21.2889Z" fill="white"/>
<path d="M50.0667 16.239H38.9334V25.2871H41.2476V22.9943H50.0476C50.1377 22.9931 50.2266 22.9742 50.3093 22.9388C50.392 22.9034 50.4669 22.852 50.5297 22.7878C50.5925 22.7235 50.642 22.6478 50.6753 22.5646C50.7086 22.4813 50.725 22.3923 50.7238 22.3027V16.9401C50.7289 16.7608 50.663 16.5865 50.54 16.4553C50.417 16.3241 50.2469 16.2464 50.0667 16.239ZM48.6953 20.9763C48.6966 21.0219 48.6886 21.0673 48.6719 21.1098C48.6553 21.1523 48.6302 21.1909 48.5982 21.2236C48.5663 21.2563 48.528 21.2822 48.4858 21.3C48.4436 21.3177 48.3982 21.3268 48.3524 21.3268H41.2476V18.1434H48.3524C48.4442 18.1459 48.5314 18.1839 48.5954 18.2494C48.6595 18.3148 48.6953 18.4025 48.6953 18.4939V20.9763Z" fill="white"/>
<path d="M63.7048 20.4173V16.9306C63.7073 16.8423 63.6924 16.7542 63.6607 16.6716C63.629 16.589 63.5813 16.5135 63.5203 16.4493C63.4592 16.385 63.3862 16.3334 63.3051 16.2973C63.224 16.2612 63.1365 16.2415 63.0477 16.239H52.4477C52.3576 16.2402 52.2687 16.2591 52.186 16.2945C52.1032 16.33 52.0283 16.3811 51.9655 16.4453C51.9028 16.5096 51.8533 16.5856 51.82 16.6688C51.7867 16.752 51.7703 16.8411 51.7715 16.9306V22.3122C51.769 22.4021 51.7845 22.4916 51.8173 22.5754C51.8502 22.6592 51.8996 22.7358 51.9626 22.8003C52.0257 22.8647 52.1012 22.9159 52.1845 22.9508C52.2678 22.9858 52.3572 23.0039 52.4477 23.0038H63.7143V21.3078H54.419C54.3745 21.3078 54.3304 21.2989 54.2893 21.2817C54.2482 21.2644 54.2111 21.2392 54.18 21.2074C54.1489 21.1756 54.1246 21.138 54.1084 21.0966C54.0922 21.0553 54.0845 21.0112 54.0857 20.9669V20.4173H63.7048ZM54.0667 19.0245V18.4465C54.0667 18.356 54.1028 18.2694 54.1671 18.2054C54.2314 18.1415 54.3187 18.1055 54.4096 18.1055H61.0763C61.1681 18.108 61.2552 18.146 61.3193 18.2114C61.3833 18.2769 61.4192 18.3646 61.4191 18.4559V19.0245H54.0667Z" fill="white"/>
<path d="M37.9047 11.028L35.5905 14.562V11.6628L37.9047 8.13818V11.028Z" fill="white"/>
<path d="M36.7524 5.73157L37.9047 6.46112L35.5905 9.99516V6.47059L36.7524 5.73157Z" fill="white"/>
<path d="M37.9047 12.6859L35.5905 16.2294V18.617V22.9849H37.9047V12.6859Z" fill="white"/>
<path d="M53.7905 9.04767L53.6095 10.0615C53.4534 10.0251 53.2936 10.0059 53.1333 10.0046C52.2857 10.0046 52.0571 10.3552 51.9428 10.9521L51.781 11.8995C51.7767 11.969 51.7767 12.0385 51.781 12.108C51.781 12.4585 51.981 12.6481 52.3619 12.6481C52.6784 12.6485 52.9874 12.5525 53.2476 12.3733V12.6007H53.7238L54.381 8.90564L53.7905 9.04767ZM53.2952 11.8901C53.0627 12.1135 52.7601 12.2506 52.4381 12.2784C52.3143 12.2784 52.2952 12.2785 52.2952 12.1459C52.2908 12.0955 52.2908 12.0448 52.2952 11.9944L52.4667 11.0469C52.5429 10.5827 52.6572 10.4783 53.0762 10.4783C53.2234 10.4811 53.3699 10.497 53.5143 10.5258L53.2952 11.8901Z" fill="#FFD109"/>
<path d="M56.0476 10.0426C55.8253 10.135 55.6143 10.2525 55.419 10.3931V10.0426L54.9333 10.1183L54.4762 12.6861H55.0095L55.3143 11.009C55.5547 10.825 55.8095 10.6602 56.0762 10.5163V10.0142L56.0476 10.0426Z" fill="#FFD109"/>
<path d="M56.2476 12.6859H56.7905L57.2571 10.0425L56.7048 10.1183L56.2476 12.6859Z" fill="#FFD109"/>
<path d="M56.7619 9.81514L57.3143 9.74882L57.4476 8.99084L56.8952 9.06664L56.7619 9.81514Z" fill="#FFD109"/>
<path d="M57.6095 12.686H58.1524L58.8095 8.99084L58.2571 9.06664L57.6095 12.686Z" fill="#FFD109"/>
<path d="M58.981 12.686H59.5143L60.1714 8.99084L59.6191 9.06664L58.981 12.686Z" fill="#FFD109"/>
<path d="M63.9905 9.99519C63.687 9.99303 63.3905 10.0859 63.1429 10.2605L63.381 8.95288L62.8286 9.03824L62.2 12.5248C62.5086 12.6204 62.8293 12.6716 63.1524 12.6766C64.0095 12.6766 64.2476 12.3166 64.3619 11.7291L64.5333 10.7817C64.538 10.7123 64.538 10.6426 64.5333 10.5732C64.5433 10.4982 64.5366 10.4218 64.5134 10.3498C64.4902 10.2777 64.4513 10.2117 64.3994 10.1564C64.3475 10.1011 64.2838 10.058 64.2131 10.0301C64.1424 10.0022 64.0664 9.99032 63.9905 9.99519ZM63.9905 10.7342L63.819 11.6817C63.7428 12.1365 63.6096 12.2595 63.2096 12.2595C63.0592 12.2573 62.9093 12.2417 62.7619 12.2123L63 10.8763C63.2367 10.6663 63.5326 10.534 63.8476 10.4974C63.9809 10.4974 64 10.5446 64 10.6299C64 10.7152 64.0286 10.7248 64.0286 10.7722L63.9905 10.7342Z" fill="#FFD109"/>
<path d="M65.5714 11.7575H65.6953L66.1619 11.6058C66.8762 11.3689 67.1143 11.151 67.1143 10.6583C67.1143 10.1657 66.819 10.0426 66.3428 10.0426C66.1986 10.0224 66.0518 10.0328 65.9121 10.0733C65.7723 10.1139 65.6428 10.1835 65.532 10.2776C65.4213 10.3716 65.3319 10.488 65.2697 10.619C65.2076 10.75 65.174 10.8926 65.1714 11.0375L65.0285 11.8806C65.0211 11.9594 65.0211 12.0387 65.0285 12.1175C65.0285 12.5249 65.2857 12.7427 65.7809 12.7427C66.1702 12.7448 66.5526 12.64 66.8857 12.4397L66.7619 12.0226H66.6952C66.42 12.1739 66.114 12.2614 65.8 12.2785C65.5333 12.2785 65.5142 12.1838 65.5142 12.0795C65.511 12.0449 65.511 12.0101 65.5142 11.9754L65.5714 11.7575ZM65.7048 10.99C65.7051 10.9158 65.7216 10.8426 65.7533 10.7754C65.7849 10.7082 65.8308 10.6485 65.8879 10.6007C65.945 10.553 66.0119 10.5182 66.0839 10.4987C66.1559 10.4792 66.2312 10.4755 66.3048 10.4879C66.4191 10.4879 66.5904 10.4878 66.5904 10.6963C66.5904 10.9047 66.5905 10.9899 66.0476 11.1321L65.7809 11.2174H65.6571L65.7048 10.99Z" fill="#FFD109"/>
<path d="M68.6381 9.40759L68.0953 9.47398L67.981 10.0805H67.5428L67.4572 10.5447H67.9047L67.6096 12.1649C67.6061 12.2059 67.6061 12.2469 67.6096 12.2879C67.6091 12.3527 67.6224 12.417 67.6489 12.4762C67.6753 12.5355 67.7142 12.5884 67.7629 12.6314C67.8116 12.6745 67.869 12.7068 67.9313 12.726C67.9935 12.7452 68.0591 12.7508 68.1238 12.7427C68.37 12.7413 68.6121 12.6796 68.8285 12.5627L68.6953 12.1744H68.6381C68.4973 12.2382 68.3452 12.2735 68.1905 12.2784C68.1048 12.2784 68.1047 12.2786 68.1047 12.2218L68.4 10.5919H69.0857L69.1809 10.1277H68.4857L68.6381 9.40759Z" fill="#FFD109"/>
<path d="M70.6571 9.40759L70.1143 9.47398L70.0001 10.0805H69.5523L69.4762 10.5447H69.9238L69.6286 12.1649C69.6252 12.2059 69.6252 12.2469 69.6286 12.2879C69.6281 12.3527 69.6414 12.417 69.6679 12.4762C69.6944 12.5355 69.7333 12.5884 69.782 12.6314C69.8307 12.6745 69.8881 12.7068 69.9503 12.726C70.0125 12.7452 70.0782 12.7508 70.1428 12.7427C70.3891 12.7413 70.6311 12.6796 70.8476 12.5627L70.7143 12.1744H70.6571C70.5163 12.2382 70.3642 12.2735 70.2095 12.2784C70.1238 12.2784 70.1239 12.2786 70.1239 12.2218L70.419 10.5919H71.1047L71.1999 10.1277H70.4952L70.6571 9.40759Z" fill="#FFD109"/>
<path d="M71.9905 11.7577H72.1143L72.581 11.6059C73.3048 11.3691 73.5333 11.1511 73.5333 10.6585C73.5333 10.1658 73.2285 10.0427 72.7523 10.0427C72.6084 10.0241 72.4622 10.0356 72.3231 10.0767C72.184 10.1178 72.0551 10.1877 71.9447 10.2814C71.8343 10.3752 71.7448 10.4907 71.6822 10.621C71.6195 10.7512 71.585 10.8932 71.5809 11.0376L71.438 11.8807C71.4319 11.9596 71.4319 12.0388 71.438 12.1176C71.438 12.525 71.7143 12.7428 72.2095 12.7428C72.5953 12.7408 72.9734 12.6363 73.3048 12.4398L73.181 12.0228H73.1238C72.8476 12.1717 72.5421 12.259 72.2286 12.2786C71.9619 12.2786 71.9333 12.1839 71.9333 12.0797C71.93 12.045 71.93 12.0102 71.9333 11.9756L71.9905 11.7577ZM72.1334 10.9902C72.2 10.6206 72.3524 10.488 72.7143 10.488C72.8286 10.488 73.019 10.4879 73.019 10.6964C73.019 10.9048 72.9619 10.9901 72.4572 11.1322L72.2095 11.2175H72.0857L72.1334 10.9902Z" fill="#FFD109"/>
<path d="M75.4476 10.5068V10.0046H75.3809C75.1585 10.0971 74.9477 10.2146 74.7524 10.3551V10.0046L74.2667 10.0805L73.8 12.6481H74.3429L74.6381 10.9711C74.8816 10.7913 75.136 10.6268 75.4 10.4784L75.4476 10.5068Z" fill="#FFD109"/>
<path d="M75.4286 12.0133L75.3143 12.686H75.8666L75.9809 12.0133H75.4286Z" fill="#FFD109"/>
</g>
<defs>
<linearGradient id="paint0_linear_150_4" x1="63.3922" y1="39.371" x2="63.3922" y2="13.9549" gradientUnits="userSpaceOnUse">
<stop stop-color="#12172D"/>
<stop offset="0.02" stop-color="#12172D"/>
<stop offset="1" stop-color="#2F3C4E"/>
</linearGradient>
<clipPath id="clip0_150_4">
<rect width="61" height="29" fill="white" transform="translate(19 1)"/>
</clipPath>
</defs>
</svg>
