<svg width="100" height="30" viewBox="0 0 100 30" fill="none" xmlns="http://www.w3.org/2000/svg">
<g clip-path="url(#clip0_150_3)">
<path fill-rule="evenodd" clip-rule="evenodd" d="M13.5355 3.03857C9.97923 3.04621 6.57083 4.41838 4.05616 6.8547C1.54149 9.29102 0.125192 12.5931 0.11731 16.0386C0.125192 19.484 1.54149 22.7861 4.05616 25.2224C6.57083 27.6588 9.97923 29.0309 13.5355 29.0386C17.0918 29.0309 20.5001 27.6588 23.0147 25.2224C25.5294 22.7861 26.9457 19.484 26.9536 16.0386C26.9457 12.5931 25.5294 9.29102 23.0147 6.8547C20.5001 4.41838 17.0918 3.04621 13.5355 3.03857ZM15.0175 28.0942C14.5263 28.157 14.031 28.186 13.5355 28.181C13.04 28.186 12.5446 28.157 12.0533 28.0942C9.01835 27.7411 6.22179 26.3237 4.19142 24.1098C2.16105 21.8959 1.03737 19.0387 1.03245 16.0772C1.02983 15.3919 1.09317 14.7079 1.2215 14.034C1.27665 13.6735 1.35301 13.3165 1.45025 12.9645C2.16504 10.3875 3.73609 8.11027 5.92056 6.48508C8.10502 4.85989 10.7813 3.97719 13.5355 3.97331C16.2902 3.97662 18.9667 4.86051 21.15 6.48791C23.3333 8.1153 24.9012 10.3953 25.6107 12.9741C25.7125 13.3219 25.789 13.6759 25.8395 14.034C25.9679 14.7079 26.0311 15.3919 26.0285 16.0772C26.0066 19.0245 24.8764 21.863 22.8495 24.0609C20.8225 26.2588 18.038 27.6654 15.0175 28.017V28.0942Z" fill="#D4202A"/>
<path fill-rule="evenodd" clip-rule="evenodd" d="M15.6442 24.4322L21.642 14.8436L16.8676 16.2891L15.6442 24.4322Z" fill="#D4202A"/>
<path fill-rule="evenodd" clip-rule="evenodd" d="M25.6107 12.897L18.648 7.22107L21.9603 13.1379H20.6971L20.1102 12.8006L17.7031 12.7526V11.5673L16.6289 10.4203H13.7045H13.2868H10.3624L9.28823 11.5673V12.7526L6.88109 12.8006L6.27436 13.1379H5.02106L8.34322 7.22107L1.38054 12.8874L1.08221 13.1379V13.9572H7.85585L8.41292 14.8147L10.3326 15.1811L10.5812 16.2892L11.5759 17.6382L11.6555 22.7265L12.2523 23.0832L12.0435 23.777L12.6203 24.0854V24.4611L11.7849 25.7333L11.9937 28.0074V28.2194H14.918V28.0074L15.117 25.7333L14.3013 24.4611V24.0854L14.8683 23.777L14.6693 23.0832L15.2562 22.7265L15.3358 17.6382L16.3304 16.2892L16.5791 15.1811L18.4889 14.8147L19.0558 13.9572H25.8196V13.1379L25.6107 12.897ZM12.6104 26.1476H13.1276V27.2654H12.6104V26.1476ZM14.4605 26.1476V27.2654H13.9432V26.1669L14.4605 26.1476Z" fill="#D4202A"/>
<path fill-rule="evenodd" clip-rule="evenodd" d="M11.4168 24.4322L5.42889 14.8436L10.1934 16.2891L11.4168 24.4322Z" fill="#D4202A"/>
<path d="M81.4117 11.914C81.64 12.6189 81.7573 13.3531 81.7598 14.0919C81.7572 16.0003 80.9735 17.83 79.5807 19.1794C78.1878 20.5289 76.2994 21.288 74.3296 21.2905H65.4472V25.261H59.4792V16.2601H73.9517C74.5461 16.2602 75.1164 16.032 75.5376 15.6256C75.9589 15.2193 76.197 14.6678 76.1996 14.0919C76.1996 13.5143 75.9627 12.9602 75.5412 12.5518C75.1196 12.1433 74.5479 11.914 73.9517 11.914H59.4792V6.73914H99.8727V11.914H91.4379V25.261H85.639V11.914H81.4117Z" fill="#D4202A"/>
<path d="M57.1716 6.73914H50.3979C49.624 6.78172 48.8908 7.08898 48.329 7.60635L31.0913 25.261H37.4273L42.4007 20.1631H51.8998V25.261H58.395V7.91479C58.3899 7.60288 58.2589 7.30514 58.0303 7.08546C57.8017 6.86578 57.4936 6.74161 57.1716 6.73914ZM51.8998 15.8073H46.6778L51.9197 10.4395L51.8998 15.8073Z" fill="#D4202A"/>
</g>
<defs>
<clipPath id="clip0_150_3">
<rect width="100" height="26" fill="white" transform="translate(0 3)"/>
</clipPath>
</defs>
</svg>
