<svg width="100" height="30" viewBox="0 0 100 30" fill="none" xmlns="http://www.w3.org/2000/svg">
<path fill-rule="evenodd" clip-rule="evenodd" d="M71.4654 25.4299C71.4812 25.6643 71.4471 25.8994 71.3654 26.1198C71.2838 26.3402 71.1564 26.541 70.9916 26.709C70.8267 26.8769 70.6281 27.0084 70.4088 27.0947C70.1895 27.181 69.9544 27.2203 69.7188 27.2099C69.4841 27.2189 69.25 27.1785 69.0319 27.0915C68.8138 27.0045 68.6166 26.8729 68.4528 26.705C68.2891 26.5372 68.1625 26.3371 68.0814 26.1174C68.0004 25.8977 67.9667 25.6634 67.9823 25.4299C67.97 25.1957 68.0058 24.9615 68.0877 24.7417C68.1695 24.5218 68.2957 24.3211 68.4583 24.1516C68.621 23.9821 68.8166 23.8475 69.0334 23.7561C69.2502 23.6647 69.4835 23.6182 69.7188 23.6198C69.9551 23.6168 70.1894 23.6621 70.4073 23.7529C70.6253 23.8437 70.8222 23.9783 70.9859 24.1479C71.1497 24.3176 71.2767 24.5187 71.3592 24.7392C71.4417 24.9598 71.4778 25.1949 71.4654 25.4299ZM74.6674 25.3798C74.666 24.7474 74.5346 24.1221 74.2812 23.5422C74.0278 22.9623 73.6579 22.4405 73.1942 22.0085C72.7305 21.5766 72.183 21.2437 71.5853 21.0307C70.9875 20.8177 70.3523 20.729 69.7188 20.77C69.0862 20.7304 68.452 20.8203 67.8555 21.0339C67.2589 21.2475 66.7125 21.5804 66.2499 22.0122C65.7873 22.444 65.4184 22.9655 65.1656 23.5446C64.9129 24.1238 64.7816 24.7483 64.7802 25.3798C64.7802 28.2399 66.9986 29.9499 69.7188 29.9499C72.4391 29.9499 74.6674 28.2399 74.6674 25.3798Z" fill="#040406"/>
<path fill-rule="evenodd" clip-rule="evenodd" d="M32.0768 26.99C32.0768 27.76 31.2738 27.77 30.7217 27.77H29.3365V25.99H30.6614C31.2135 25.99 32.0366 25.8499 32.0768 26.9299V26.99ZM31.7355 23.5801C31.7957 24.5801 31.1532 24.47 30.6313 24.47H29.2862V22.9199H30.551C31.073 22.9199 31.6853 22.8701 31.7355 23.5801ZM34.4156 23.4199C34.4156 21.3599 32.8697 20.95 31.1432 20.95H26.8069V29.8601H31.5648C33.1307 29.8601 34.8372 29.2299 34.8372 27.3999C34.8458 26.9188 34.6937 26.4486 34.4048 26.063C34.1159 25.6774 33.7066 25.3985 33.2412 25.27V25.2C33.6122 25.0668 33.9286 24.8151 34.1411 24.4841C34.3535 24.1531 34.45 23.7613 34.4156 23.3699V23.4199Z" fill="#040406"/>
<path fill-rule="evenodd" clip-rule="evenodd" d="M63.9068 21.1299C63.0208 20.886 62.1059 20.7616 61.1866 20.76C59.9187 20.7464 58.6961 21.229 57.7819 22.1043C56.8677 22.9795 56.3349 24.1774 56.2982 25.44C56.3349 26.6645 56.8553 27.8252 57.7462 28.6697C58.6372 29.5142 59.8266 29.9742 61.0561 29.95C62.0175 29.955 62.9755 29.8375 63.9068 29.6001L63.5756 26.26C63.3131 26.5242 63.0003 26.7338 62.6556 26.8763C62.311 27.0188 61.9412 27.0915 61.568 27.0901C61.0794 27.0946 60.6058 26.9213 60.2362 26.6028C59.8666 26.2843 59.6264 25.8425 59.5605 25.3601C59.6242 24.876 59.8635 24.4316 60.2333 24.1111C60.6031 23.7906 61.0779 23.6158 61.568 23.6199C62.3225 23.6758 63.0332 23.9946 63.5756 24.5201L63.9068 21.1299Z" fill="#040406"/>
<path fill-rule="evenodd" clip-rule="evenodd" d="M46.5313 29.81H49.6732V26.72H51.8815V29.81H55.0033V20.9H51.8815V24.23H49.6732V20.9H46.5313V29.81Z" fill="#040406"/>
<path fill-rule="evenodd" clip-rule="evenodd" d="M41.3919 26.6599H39.3844L40.3178 23.46H40.4885L41.3718 26.6599H41.3919ZM45.2364 29.8101L42.1548 20.8999H38.5913L35.58 29.8101H38.9125L39.1735 28.7H41.6228L41.9238 29.8101H45.2364Z" fill="#040406"/>
<path fill-rule="evenodd" clip-rule="evenodd" d="M68.9258 9.17993C67.3679 10.0815 65.6726 10.7234 63.9068 11.0801C63.3023 11.2154 62.6726 11.1887 62.0818 11.0024C61.4911 10.8162 60.9605 10.4772 60.5442 10.02C60.1464 9.52721 59.8859 8.93868 59.789 8.31372C59.6921 7.68877 59.7621 7.04938 59.992 6.45996C60.1905 5.72816 60.5703 5.05774 61.0963 4.51001C61.8604 4.5683 62.6097 4.75074 63.3146 5.05005L63.3949 5.1499C62.9231 5.2499 62.4915 5.36008 62.2807 5.83008C62.1637 6.0478 62.1085 6.29315 62.1209 6.5398C62.1333 6.78644 62.2128 7.02497 62.351 7.22998C62.5118 7.41054 62.7123 7.55137 62.937 7.6416C63.1617 7.73183 63.4043 7.76902 63.6458 7.75C63.903 7.70512 64.1414 7.58675 64.3321 7.40918C64.5229 7.23162 64.6576 7.00253 64.72 6.75C64.7781 6.36354 64.6847 5.96952 64.459 5.6499C64.459 5.4899 64.6397 5.58008 64.7501 5.58008C66.2917 6.12297 67.6889 7.00857 68.8355 8.16992C69.4377 8.76992 68.9258 9.16992 68.9258 9.16992V9.17993ZM64.1477 6.43994C64.1518 6.34636 64.137 6.25304 64.1041 6.16528C64.0712 6.07753 64.021 5.99727 63.9565 5.9292C63.8919 5.86113 63.8142 5.80643 63.7281 5.7688C63.642 5.73116 63.5492 5.71121 63.4552 5.70996C63.2608 5.70996 63.0744 5.78693 62.937 5.92383C62.7996 6.06073 62.7224 6.24633 62.7224 6.43994C62.7184 6.53352 62.7332 6.62709 62.7661 6.71484C62.7989 6.8026 62.8491 6.88286 62.9137 6.95093C62.9783 7.019 63.056 7.07345 63.1421 7.11108C63.2282 7.14872 63.321 7.16867 63.415 7.16992C63.6093 7.16992 63.7958 7.0932 63.9332 6.9563C64.0706 6.8194 64.1477 6.63355 64.1477 6.43994ZM60.0222 4.34009L59.962 4.21997C58.9582 3.86997 57.9544 3.69995 57.2417 4.44995C56.9907 4.71995 56.4588 5.45009 56.5692 5.84009C56.6349 6.12968 56.7644 6.40102 56.9484 6.63452C57.1325 6.86803 57.3663 7.0577 57.6332 7.18994C58.0246 7.44994 58.2856 7.61991 58.7473 7.40991C59.0026 6.32454 59.4331 5.28787 60.0222 4.34009ZM56.5992 2.70996H54.1701C54.0016 2.56683 53.864 2.39103 53.7657 2.19336C53.6673 1.99569 53.6102 1.78034 53.5979 1.56006C54.3283 1.47672 55.0526 1.34632 55.7661 1.16992H55.9167C56.2371 1.66623 56.4681 2.21458 56.5992 2.79004V2.70996ZM53.8088 4.36011C54.0296 4.84011 54.411 5.04011 54.7322 5.36011L54.8226 5.56006C54.4215 5.67472 54.0515 5.87822 53.7404 6.15527C53.4293 6.43233 53.185 6.77563 53.0258 7.15991C52.7849 7.25991 52.574 7.05992 52.3331 6.91992C51.6606 6.54992 51.6606 5.7901 51.761 5.1001C51.8116 4.90446 51.912 4.72504 52.0528 4.57959C52.1935 4.43414 52.3697 4.32753 52.5641 4.27002C52.9738 4.13515 53.4199 4.1639 53.8088 4.3501V4.36011ZM52.8953 2.61011C52.8953 2.92011 52.6443 2.79006 52.4938 2.81006C51.8815 2.71006 50.7773 3.25008 50.707 2.33008C50.707 2.21008 50.707 2.08008 50.8274 2.08008C51.3945 2.03313 51.9539 1.91891 52.4938 1.73999L52.8953 2.61011ZM50.0947 4.18994C50.5722 4.06037 51.0654 3.99651 51.5603 4C51.2151 4.33382 50.9328 4.72664 50.7271 5.15991C50.5263 5.22991 50.4059 4.97987 50.2754 4.86987C50.1449 4.75987 49.9041 4.4199 50.0446 4.1499L50.0947 4.18994ZM49.6129 3.05005L47.776 3.23999C47.627 2.94688 47.571 2.6156 47.6154 2.29004C48.2893 2.30762 48.963 2.24728 49.6229 2.11011C49.9241 2.03011 49.8037 2.56 49.904 2.75C50.0044 2.94 49.7333 3.02005 49.5727 3.05005H49.6129ZM48.9103 4.34009C49.1813 4.54009 49.1009 4.97998 49.3318 5.22998C49.4687 5.42509 49.6426 5.59156 49.8438 5.71997V5.83008C49.1868 6.13892 48.6581 6.66564 48.3481 7.32007C48.1527 7.33908 47.9559 7.30435 47.779 7.21973C47.602 7.1351 47.4516 7.00384 47.3443 6.84009C47.1723 6.56334 47.0729 6.2479 47.0554 5.92285C47.0379 5.59781 47.1027 5.27351 47.244 4.97998C47.4849 4.19998 48.318 4.26009 48.9504 4.34009H48.9103ZM47.5552 8.07007C47.3846 7.84007 47.0231 7.76003 46.8625 7.53003C46.5413 7.33003 46.5112 6.40007 45.8587 6.82007C45.5886 6.9361 45.3589 7.12881 45.1982 7.37427C45.0375 7.61973 44.953 7.90692 44.9553 8.19995C44.9775 8.64717 45.1759 9.06752 45.5074 9.36987C45.7484 9.46987 46.0194 9.69011 46.2804 9.61011C46.5281 8.98243 46.9624 8.44508 47.5251 8.07007H47.5552ZM46.8726 3.26001C46.6517 3.50001 46.5714 3.39007 45.8688 3.57007C45.5941 3.67471 45.2903 3.67471 45.0156 3.57007C45.0156 3.43007 44.6944 2.63 44.7948 2.5C45.4057 2.56377 46.0232 2.50606 46.6116 2.33008C46.8023 2.33008 46.7922 3.05001 46.8324 3.26001H46.8726ZM45.2364 4.86987C45.1762 4.71987 45.3669 4.69991 45.4673 4.65991C45.8345 4.56691 46.2126 4.52331 46.5915 4.53003C46.4935 4.84943 46.3623 5.15769 46.2 5.44995C45.7483 5.53995 45.4472 5.21987 45.1962 4.86987H45.2364ZM44.8248 5.5C45.0474 5.70182 45.2858 5.88578 45.5376 6.05005C45.0189 6.29984 44.6062 6.7251 44.3732 7.25C44.1032 7.26217 43.835 7.20163 43.5965 7.07495C43.3581 6.94827 43.1583 6.76014 43.0181 6.53003C42.9213 6.28916 42.888 6.02758 42.9214 5.77026C42.9548 5.51295 43.0536 5.2685 43.2087 5.06006C43.5334 4.9571 43.8718 4.90302 44.2125 4.8999C44.594 4.8999 44.5638 5.35 44.8047 5.5H44.8248ZM43.1786 7.96997C42.8995 7.88288 42.6489 7.72292 42.4529 7.50659C42.257 7.29027 42.1228 7.02551 42.0644 6.73999C41.8668 6.7524 41.6744 6.80825 41.5009 6.90332C41.3274 6.9984 41.177 7.1304 41.0606 7.29004C40.9124 7.47894 40.8056 7.69647 40.7468 7.92896C40.688 8.16144 40.6787 8.4036 40.7194 8.63989C40.7876 8.91746 40.9315 9.17089 41.1352 9.37207C41.3389 9.57325 41.5945 9.71449 41.8737 9.78003C42.1718 9.10708 42.6259 8.5142 43.1987 8.05005L43.1385 7.96997H43.1786ZM42.3053 5.20996C42.2909 5.39706 42.2538 5.58178 42.1949 5.76001H42.0845C41.7633 5.83001 41.7432 5.64995 41.6127 5.44995C41.4822 5.24995 41.683 5.35006 41.7332 5.31006C41.9165 5.23904 42.1092 5.19511 42.3053 5.17993V5.20996ZM41.1309 5.95996C40.9043 6.14626 40.6897 6.34676 40.4885 6.56006C40.1498 6.83468 39.9218 7.22147 39.8461 7.6499C39.7858 8.0199 39.3943 7.37987 39.1735 7.11987C39.0703 6.95817 39.0004 6.77792 38.9676 6.58911C38.9349 6.40031 38.9401 6.20683 38.9828 6.02002C39.3447 5.80093 39.7478 5.65808 40.1672 5.6001C41.0004 5.4101 40.9703 5.71996 41.171 5.95996H41.1309ZM38.8925 8.31006C38.5425 7.92913 38.2697 7.48422 38.0894 7V6.90991C38.0192 6.03991 37.3566 6.11995 36.915 6.69995C36.7598 6.9176 36.6559 7.16731 36.6107 7.43042C36.5655 7.69353 36.5803 7.96333 36.654 8.21997C36.6107 8.52918 36.648 8.8443 36.7623 9.13501C36.8765 9.42572 37.0639 9.68217 37.3065 9.87988C37.4671 9.87988 37.708 10.0499 37.8485 9.87988C37.9047 9.56355 38.03 9.26342 38.2156 9.00073C38.4013 8.73805 38.6426 8.51948 38.9225 8.36011L38.8925 8.31006ZM40.348 10.6799C39.7945 10.6021 39.2562 10.4402 38.752 10.2C38.7094 9.99739 38.7309 9.78678 38.8136 9.59692C38.8963 9.40707 39.0361 9.24726 39.2137 9.13989C39.4245 8.95989 39.5851 8.85994 39.836 8.93994L40.2074 9.65991C40.4203 9.90206 40.6797 10.0993 40.9703 10.24C40.9703 10.52 40.5588 10.5599 40.348 10.6799ZM37.186 11.3401C37.186 11.4801 36.9551 11.7 37.0756 11.75C37.9589 12.11 39.0229 12.2 39.9464 12.47L41.0606 12.6599C41.2719 12.6688 41.4787 12.5974 41.639 12.46C41.7993 12.3225 41.9011 12.1294 41.9239 11.9199L39.6955 11.51C38.8724 11.42 37.2462 10.6201 37.186 11.3401ZM41.3417 10.78C41.422 10.53 41.7332 10.5099 41.964 10.4199C42.1949 10.3299 42.4358 10.6799 42.5864 10.8699V11.01C42.1657 10.9945 41.7497 10.917 41.3517 10.78H41.3417ZM43.4196 9.06006C43.6304 8.88006 43.8411 8.6299 44.1824 8.6499C44.3831 8.8799 44.3731 9.21995 44.5739 9.44995C44.8296 9.76179 45.1389 10.0259 45.4873 10.23C45.3669 10.46 45.0558 10.4499 44.9152 10.6599C44.7747 10.8699 44.604 11.25 44.2326 11.25C43.8612 11.25 43.3392 11.19 43.2288 10.78C43.0985 10.5007 43.0519 10.1896 43.0947 9.88452C43.1374 9.57941 43.2676 9.29322 43.4697 9.06006H43.4196ZM45.2665 11.29C45.7548 11.4726 46.2709 11.5707 46.7923 11.5801V11.3999C46.6116 11.1699 46.451 10.7601 46.0194 10.8601C45.5878 10.9601 45.3569 10.98 45.2565 11.29H45.2665ZM47.7157 9.18994C47.9366 8.99994 48.4586 8.50008 48.559 9.08008C48.6805 9.43344 48.8769 9.75642 49.135 10.0273C49.3931 10.2983 49.7068 10.5106 50.0546 10.6499C49.5596 11.0137 49.1317 11.4604 48.7898 11.97C48.47 11.9607 48.1591 11.8621 47.8929 11.6853C47.6267 11.5085 47.4158 11.2605 47.2842 10.97C47.1738 10.6653 47.1558 10.335 47.2326 10.0203C47.3093 9.70551 47.4773 9.42021 47.7157 9.19995V9.18994ZM50.4661 11.02C50.2754 11.25 49.6731 11.68 49.8237 12.02L51.761 12.1899L51.5803 11.95C51.3193 11.62 51.1889 11.2101 50.938 10.8201C50.7472 10.8201 50.5966 10.93 50.4661 11.03V11.02ZM52.1626 8.18994V8.1001C51.7963 7.86377 51.4594 7.5851 51.1588 7.27002C50.7372 6.70002 50.9982 6.27002 50.6971 6.27002C50.3693 6.34637 50.0659 6.50362 49.8151 6.7273C49.5642 6.95097 49.3739 7.23391 49.2616 7.55005C49.1588 7.90006 49.1541 8.27127 49.2479 8.62378C49.3416 8.97629 49.5304 9.29668 49.7936 9.55005C50.0747 9.76005 50.5264 10.1599 50.9179 9.93994C51.0836 9.24187 51.5203 8.6378 52.1324 8.26001L52.1626 8.18994ZM51.8012 10.99C51.7038 10.691 51.6936 10.3706 51.7718 10.0662C51.85 9.76168 52.0133 9.48566 52.2428 9.27002C52.3487 9.16214 52.4752 9.07646 52.6148 9.01807C52.7545 8.95967 52.9045 8.92966 53.0559 8.92993L53.3972 9.57007C53.6555 9.84673 53.9573 10.0797 54.2906 10.26C53.7787 10.6566 53.409 11.2073 53.2366 11.8301C53.1663 12.0001 52.9454 11.8901 52.835 11.8301C52.4034 11.6401 51.9517 11.44 51.8312 10.97L51.8012 10.99ZM54.3207 11.4099C54.2304 11.7199 53.9091 12.1399 54.2504 12.4099C54.8727 12.4099 55.7762 12.8101 56.007 12.0901C56.2078 11.8401 55.8866 11.7299 55.7762 11.6199C55.4851 11.4099 55.6156 10.86 55.1639 10.79C54.9841 10.8231 54.8144 10.897 54.6681 11.0063C54.5218 11.1156 54.4029 11.2572 54.3207 11.4199V11.4099ZM55.8665 5.13989C55.3345 5.06989 55.2441 4.85997 54.8627 4.46997C54.7121 4.29997 54.4914 4.15008 54.672 3.83008L56.3384 3.92993L56.5592 4.06006C56.2364 4.35078 56.0002 4.72427 55.8765 5.13989H55.8665ZM55.3646 9.45996C55.1097 9.4344 54.8646 9.3484 54.6499 9.20923C54.4351 9.07006 54.2568 8.8817 54.1299 8.65991C54.0089 8.3931 53.9574 8.10027 53.9802 7.80835C54.003 7.51643 54.0994 7.23493 54.2604 6.98999C54.4674 6.77944 54.7227 6.62207 55.0042 6.5315C55.2857 6.44092 55.585 6.41982 55.8765 6.46997C56.0974 6.68997 56.2078 6.99999 56.4086 7.23999L57.0309 7.84009C56.6591 7.98642 56.3203 8.20502 56.0342 8.48316C55.7481 8.76129 55.5205 9.09327 55.3646 9.45996ZM56.3684 9.51001C56.6907 9.06819 57.128 8.72243 57.6332 8.51001C58.069 8.44793 58.5135 8.49243 58.9281 8.63989L59.1288 10.1299V10.22C58.3759 10.59 57.5328 10.77 56.8202 11.22H56.6193C56.4377 10.9823 56.3195 10.7027 56.2756 10.4072C56.2317 10.1117 56.2637 9.80994 56.3684 9.53003V9.51001ZM56.8703 12.8001C56.9021 12.8993 56.9677 12.9845 57.0555 13.041C57.1434 13.0976 57.2481 13.122 57.3521 13.1101C57.9489 12.8673 58.4839 12.4948 58.918 12.02C59.169 11.75 59.4902 11.5001 59.5303 11.1101H59.3397C58.4363 11.4701 56.9405 11.55 56.8703 12.8001ZM36.1421 9.86987H34.6665C34.546 9.72987 34.6666 9.49009 34.7569 9.34009C34.8733 9.18045 35.0235 9.0482 35.1971 8.95313C35.3706 8.85805 35.5631 8.80245 35.7607 8.79004C35.8711 8.98004 35.9212 9.18989 36.0316 9.38989C36.142 9.58989 36.4733 9.7199 36.1521 9.8999L36.1421 9.86987ZM36.1421 6.59009C36.0127 6.94854 35.8299 7.28563 35.6001 7.59009C35.4219 7.57603 35.2508 7.5148 35.1043 7.41284C34.9578 7.31088 34.8413 7.17181 34.7668 7.01001V6.8501C35.2386 6.7501 35.6804 6.66005 36.122 6.55005L36.1421 6.59009ZM34.7769 8.33008C34.5565 8.1912 34.3483 8.034 34.1545 7.86011C33.8534 7.62011 33.7932 7.01992 33.2612 7.16992C33.0714 7.21154 32.8935 7.29535 32.7406 7.4148C32.5877 7.53424 32.4638 7.68644 32.3779 7.86011C32.2699 8.11346 32.2323 8.39102 32.2694 8.66382C32.3065 8.93661 32.4168 9.19434 32.5887 9.40991C32.8296 9.58991 33.0705 10.0201 33.472 9.86011C33.6211 9.5006 33.8204 9.16392 34.0642 8.86011C34.2449 8.63011 34.6062 8.5801 34.7769 8.3501V8.33008ZM31.7655 10.0801C30.5713 10.8218 29.2404 11.3181 27.8508 11.54H27.911C28.3227 10.5765 28.8163 9.64974 29.3865 8.77002C29.0553 8.20002 28.5735 7.59004 28.172 7.04004L27.0377 5.81006C27.029 5.7895 27.0259 5.76703 27.0284 5.74487C27.0309 5.72272 27.0391 5.70167 27.0522 5.68359C27.0653 5.66552 27.0828 5.65097 27.1032 5.6416C27.1235 5.63224 27.1459 5.62814 27.1682 5.62988C28.6958 5.94173 30.1746 6.45635 31.5648 7.15991C31.7053 7.50991 31.344 7.80991 31.2938 8.15991C31.2189 8.48415 31.2236 8.82176 31.3075 9.1438C31.3914 9.46584 31.5519 9.76292 31.7756 10.01V10.1001L31.7655 10.0801ZM70.0099 8.56006C70.0099 8.13006 69.769 7.92989 69.5984 7.63989C67.0688 4.74989 62.5718 3.63997 58.4262 2.96997C57.5529 2.57997 57.1614 1.80009 56.6294 1.09009C56.4186 0.840088 56.3986 0.38998 56.0774 0.22998C55.5731 0.558768 55.0031 0.774743 54.407 0.862793C53.8108 0.950843 53.2026 0.908881 52.6243 0.73999C52.2622 0.986532 51.8622 1.17237 51.4399 1.29004C50.87 1.3555 50.2931 1.32498 49.7334 1.19995C49.244 1.43249 48.7125 1.56384 48.1708 1.58618C47.6291 1.60852 47.0884 1.52153 46.5814 1.33008L46.0695 1.75C45.3304 1.98256 44.5541 2.07418 43.781 2.02002C43.6705 2.51002 44.5638 3.49989 44.0519 3.88989C42.6365 4.21989 41.1711 4.50989 39.7658 4.88989C37.3868 5.26989 35.3391 6.40997 32.8195 6.46997C30.2197 5.70997 27.8006 4.32995 25 4.19995C25.3671 5.16005 25.8819 6.05759 26.5258 6.86011C27.0713 7.40984 27.5841 7.99082 28.0616 8.6001C27.3282 9.80804 26.6581 11.053 26.054 12.3301C25.9838 12.6201 25.6525 12.97 25.9034 13.25C27.2783 12.9724 28.6358 12.6151 29.9688 12.1799C31.9764 11.3199 33.984 10.0499 36.383 10.6599C36.383 10.9899 35.9815 11.5099 36.0718 11.8699C36.1622 12.2299 36.4633 12.35 36.6741 12.5L40.7996 13.4299C42.5362 13.5799 42.5664 12.5699 43.4096 12.1399C47.3424 12.7741 51.3204 13.0886 55.3044 13.0801C55.8665 13.1601 55.8465 13.9001 56.3082 14.0801C57.6332 14.5101 58.637 13.29 59.5906 12.74C62.8781 12.4588 66.0777 11.5345 69.0062 10.02C69.3137 9.92181 69.5803 9.72589 69.7652 9.46216C69.9502 9.19843 70.0431 8.8815 70.0299 8.56006H70.0099Z" fill="#EE5B26"/>
<path fill-rule="evenodd" clip-rule="evenodd" d="M56.2079 16.8501H55.8866C55.7165 16.8301 55.5447 16.8301 55.3746 16.8501C52.4335 16.7701 49.4222 16.52 46.5012 16.29C41.7454 15.771 36.9566 15.6172 32.1771 15.8301C30.5216 15.9184 28.8726 16.1018 27.2384 16.3799L26.1343 16.54C25.9673 16.5555 25.7994 16.5232 25.65 16.447C25.5007 16.3709 25.3762 16.2541 25.2911 16.1101C25.2591 16.0376 25.2425 15.9591 25.2425 15.8799C25.2425 15.8007 25.2591 15.7224 25.2911 15.6499C25.4118 15.4339 25.6085 15.27 25.8433 15.1899C28.9484 14.699 32.085 14.4316 35.2287 14.3899H35.7105C39.304 14.3899 42.9277 14.64 46.7521 14.96C52.4235 15.42 58.2857 15.8999 63.9872 15.1699C65.9145 14.9499 72.2885 13.8501 73.4027 8.61011C73.529 7.6214 73.3956 6.6168 73.0155 5.69482C72.6355 4.77285 72.0219 3.96505 71.2345 3.3501C70.4948 2.77822 69.6267 2.39376 68.705 2.22998C69.403 2.93357 69.9886 3.73949 70.4415 4.61987C70.4791 4.72326 70.4791 4.83656 70.4415 4.93994L70.3612 5.21997L70.1103 5.09009C69.6547 4.84155 69.2154 4.56425 68.7953 4.26001C68.4339 4.01001 68.0625 3.75001 67.6509 3.51001C65.4326 2.25882 63.0742 1.27209 60.6244 0.570068H60.4939L60.4137 0L61.1866 0.0500488C63.9041 0.185732 66.6119 0.472711 69.2972 0.909912C71.7866 1.60991 74.5972 3.83003 74.8984 7.03003C75.2698 10.54 72.6599 13.7099 70.0099 14.9099C66.2658 16.9099 61.6383 16.9099 57.1614 16.9099H56.2881C56.264 16.8866 56.2371 16.8666 56.2079 16.8501Z" fill="#EE5B26"/>
<path fill-rule="evenodd" clip-rule="evenodd" d="M73.7239 15.0901H73.3425V15.5301H73.7038C73.8845 15.5301 74.0251 15.4501 74.0251 15.3001C74.0251 15.1501 73.9046 15.0901 73.7239 15.0901ZM73.8444 15.6399L74.2359 16.1299H74.0551L73.6737 15.66H73.3425V16.1299H73.2019V14.99H73.7239C73.9749 14.99 74.1556 15.1201 74.1556 15.3201C74.1559 15.4053 74.1241 15.4874 74.0665 15.5503C74.0089 15.6133 73.9296 15.6524 73.8444 15.66V15.6399ZM73.6537 14.5201C73.7957 14.5113 73.938 14.5326 74.0711 14.5828C74.2041 14.633 74.3249 14.7108 74.4255 14.8111C74.5262 14.9113 74.6043 15.0318 74.6547 15.1644C74.705 15.2969 74.7265 15.4386 74.7177 15.5801C74.719 15.721 74.6921 15.8606 74.6386 15.991C74.5851 16.1214 74.5061 16.24 74.4061 16.3396C74.3061 16.4393 74.1871 16.518 74.0562 16.5713C73.9253 16.6246 73.7851 16.6513 73.6437 16.6499C73.5066 16.6502 73.3709 16.6226 73.2451 16.5686C73.1192 16.5147 73.0057 16.4355 72.9117 16.3362C72.8176 16.2369 72.7449 16.1196 72.6982 15.9913C72.6514 15.8629 72.6317 15.7264 72.6399 15.5901C72.6372 15.4497 72.6627 15.3101 72.7151 15.1797C72.7675 15.0494 72.8456 14.9309 72.9449 14.8311C73.0441 14.7313 73.1624 14.6523 73.2927 14.5989C73.4231 14.5455 73.5629 14.5187 73.7038 14.5201H73.6537ZM73.6537 16.73C73.3476 16.73 73.0539 16.6088 72.8374 16.3931C72.6209 16.1774 72.4993 15.8851 72.4993 15.5801C72.4993 15.2725 72.622 14.9774 72.8403 14.7598C73.0587 14.5423 73.3548 14.42 73.6636 14.42C73.8156 14.4186 73.9664 14.4476 74.1071 14.5049C74.2477 14.5622 74.3754 14.6469 74.4829 14.754C74.5903 14.861 74.6753 14.9883 74.7329 15.1285C74.7904 15.2686 74.8194 15.4187 74.818 15.5701C74.8194 15.7228 74.7902 15.8741 74.7321 16.0154C74.6741 16.1568 74.5883 16.2854 74.4799 16.3934C74.3716 16.5013 74.2427 16.5865 74.1008 16.6443C73.959 16.7022 73.807 16.7314 73.6537 16.73Z" fill="#040406"/>
</svg>
