<svg width="100" height="30" viewBox="0 0 100 30" fill="none" xmlns="http://www.w3.org/2000/svg">
<g clip-path="url(#clip0_150_6)">
<path d="M47.8406 2.83423V6.9122H47.4181H46.8463C46.8463 6.72282 46.8463 6.52087 46.8463 6.33149V2.88478L47.8406 2.83423Z" fill="white"/>
<path d="M38.4565 2.36694V2.49332L35.6848 12.0508L38.4316 21.9237H88.0249V2.36694H38.4565ZM46.8339 2.83423H47.8406V6.91221H47.4181H46.8463C46.8463 6.72283 46.8463 6.52087 46.8463 6.33149L46.8339 2.83423Z" fill="#EB2228"/>
<path d="M61.6125 6.89954V7.00064C61.6125 7.11427 61.5254 7.18997 61.5254 7.26572C61.3856 7.89029 61.2818 8.52264 61.2147 9.15953C61.2259 9.22215 61.2259 9.28617 61.2147 9.34879C61.0592 9.69394 60.9745 10.0678 60.9661 10.4473C60.9661 10.561 60.9661 10.6746 60.9661 10.7756C60.9661 11.167 60.73 11.5078 60.7176 11.8991C60.7176 11.8991 60.6306 11.8992 60.6306 11.975C60.6432 12.0925 60.6432 12.211 60.6306 12.3285C60.5311 12.6189 60.4938 12.9218 60.4068 13.1996C60.3868 13.4036 60.3536 13.606 60.3074 13.8056C60.1746 14.1022 60.1148 14.4272 60.1334 14.7525C60.1334 14.8156 60.0339 14.8913 60.0339 14.9544C59.9724 15.5274 59.8602 16.0938 59.6984 16.6463C59.5239 17.3262 59.3992 18.0184 59.3254 18.717C59.3076 18.8266 59.2742 18.933 59.226 19.0327C59.226 19.1337 59.226 19.247 59.226 19.3606C59.1854 19.4795 59.1562 19.6022 59.139 19.7268C59.0666 20.2795 58.9629 20.8276 58.8283 21.3682C58.5921 21.4439 58.8283 21.6587 58.6791 21.7976C58.53 21.9364 58.617 21.9868 58.791 21.9868H54.1548C54.3288 21.9868 54.478 21.9869 54.5277 21.7849C54.5774 21.5829 54.5277 21.5827 54.4282 21.5701C54.4282 21.3049 54.304 21.0652 54.304 20.8001C54.304 20.8001 54.1921 20.699 54.1175 20.6611V20.0045C53.8938 19.8404 54.1175 19.5248 53.9187 19.3733C53.8203 18.7424 53.6832 18.1183 53.5085 17.5047C53.4454 17.1472 53.3498 16.7966 53.2226 16.457C53.0932 16.1356 52.9974 15.8013 52.9368 15.4596C52.9368 15.0682 52.7255 14.7145 52.7131 14.3231C52.6749 14.1207 52.6079 13.9251 52.5141 13.7424C52.512 13.7046 52.512 13.6668 52.5141 13.629C52.5141 13.629 52.5141 13.7424 52.5141 13.7677C52.5141 13.7929 52.5141 14.1464 52.4147 14.3358V14.4495L52.3153 14.5506C52.3276 14.7103 52.3276 14.8705 52.3153 15.0302C52.3153 15.1943 52.191 15.3586 52.1537 15.5228C52.1413 15.7077 52.1413 15.8933 52.1537 16.0782L52.0543 16.1793C52.0101 16.2762 51.9767 16.3779 51.9548 16.4823C51.9548 16.6212 51.9548 16.7472 51.9548 16.8861L51.8554 16.9872V17.7069H51.756L51.6565 17.8077C51.6565 17.9214 51.6565 18.0855 51.6565 18.1486C51.6565 18.2118 51.5819 18.4644 51.5571 18.6159C51.5322 18.7674 51.5571 18.9567 51.4577 19.1335H51.3831C51.3831 19.4112 51.3209 19.6892 51.2588 19.9543C51.1966 20.2194 51.2588 20.4465 51.1345 20.6611C51.0102 20.8757 51.1345 21.0527 51.0475 21.1789C50.9605 21.3052 51.0475 21.5703 50.9605 21.7596L50.861 21.8355L50.9605 21.9615H46.6972C46.6972 21.9615 46.7967 21.9615 46.7967 21.8857C46.7967 21.5827 46.9831 21.3429 47.0079 21.0525C47.1051 20.6629 47.1716 20.2662 47.2068 19.8658C47.2068 19.8658 47.2068 19.8658 47.2068 19.79C47.2938 19.4112 47.3559 19.0452 47.4429 18.6665C47.5299 18.2877 47.5548 18.1993 47.5921 17.972C47.695 17.621 47.7699 17.262 47.8159 16.8987C47.8721 16.4709 47.9636 16.0486 48.0893 15.6362C48.1425 15.2597 48.2256 14.8882 48.3379 14.5253C48.3962 14.3069 48.4295 14.0823 48.4373 13.8561C48.4373 13.6036 48.4373 13.3511 48.6486 13.1743C48.6735 12.8399 48.736 12.5094 48.835 12.1895C48.922 11.6845 49.0215 11.1795 49.1334 10.6872C49.2328 10.4261 49.2711 10.1453 49.2452 9.86663C49.2331 9.82115 49.2331 9.77308 49.2452 9.72761C49.35 9.47754 49.4211 9.21409 49.4565 8.94469C49.5116 8.65354 49.5367 8.3574 49.5311 8.06097C49.5311 8.06097 49.6181 8.06121 49.6305 7.98546C49.7586 7.65123 49.826 7.29609 49.8294 6.93745H53.9684C53.9327 6.97784 53.8907 7.01207 53.8441 7.03855C53.8685 7.29506 53.9314 7.54607 54.0306 7.78325L54.4407 9.33615C54.5898 9.92954 54.7514 10.5231 54.913 11.1165C55.0067 11.582 55.1272 12.0413 55.2735 12.4925C55.3605 12.745 55.2735 13.0734 55.5594 13.2501C55.5594 13.4395 55.5594 13.6162 55.6588 13.7677C55.7582 13.9192 55.6588 13.9573 55.7582 13.9699C55.8576 13.9825 55.7582 14.2348 55.7582 14.3737C55.7801 14.4781 55.8134 14.5798 55.8576 14.6767C55.8576 14.7777 55.8577 14.8913 55.9571 14.9923C55.9571 14.8408 56.0441 14.7021 56.0441 14.5759C56.122 14.1598 56.1595 13.7369 56.1559 13.3133C56.2305 13.3133 56.3424 13.3132 56.3549 13.2249C56.3673 13.1365 56.3549 12.9471 56.3549 12.884C56.3549 12.8208 56.3548 12.4547 56.504 12.278C56.6532 12.1012 56.504 11.836 56.6283 11.6088C56.7526 11.3815 56.6283 11.1795 56.6283 10.9649C56.6283 10.7502 56.7899 10.8767 56.8023 10.8135C56.8023 10.5484 56.8893 10.2831 56.9266 10.0053C56.9638 9.72757 56.9266 9.75285 56.9266 9.71497C56.9266 9.6771 56.9887 9.34891 57.1006 9.15953C57.2125 8.97015 57.1006 8.74288 57.1006 8.51562L57.2 8.41452L57.2995 8.31342V8.01042C57.417 7.69379 57.4923 7.36285 57.5232 7.02591H57.5978C57.6092 6.99324 57.6092 6.95749 57.5978 6.92481L61.6125 6.89954Z" fill="white"/>
<path d="M61.0904 2.82155V6.89952H60.0836C60.0836 6.67227 60.0091 6.62178 59.7853 6.59653C59.7853 6.49552 59.8723 6.3314 59.6859 6.29353L59.5864 6.079L59.487 5.97789L59.3876 5.87679C59.3948 5.84267 59.3948 5.8074 59.3879 5.77322C59.381 5.73905 59.3672 5.70676 59.3473 5.67829C59.3275 5.64982 59.302 5.62599 59.2726 5.60801C59.2432 5.59003 59.2103 5.57826 59.1762 5.5738L58.9774 5.2708L58.878 5.1697C58.9525 4.95506 58.6542 4.90472 58.6667 4.70272C58.6791 4.50071 58.5797 4.6142 58.53 4.5637C58.5228 4.6224 58.5228 4.68194 58.53 4.74063V6.89952H57.8587C57.8217 6.89317 57.7839 6.89317 57.7469 6.89952H57.5232V2.93529L57.6226 2.82155H58.53C58.7537 3.28869 59.139 3.65482 59.3627 4.08409C59.3627 4.08409 59.4746 4.15995 59.5367 4.19783L59.6361 4.29862C59.6361 4.37437 59.6361 4.45004 59.6361 4.52579L59.7729 4.71536L59.9717 5.03099V5.10682C59.9717 5.10682 59.9717 5.03095 59.9717 4.99308V2.771L61.0904 2.82155Z" fill="white"/>
<path d="M55.5718 5.27067V4.45014V4.27321C55.5453 4.1992 55.5246 4.12331 55.5097 4.04604L55.2983 3.64194L54.8012 3.12441C54.5153 3.12441 54.304 2.872 53.9808 2.90988C53.683 2.93547 53.3837 2.93547 53.0859 2.90988H52.4893V6.87411H54.1175C54.1636 6.8249 54.2251 6.79354 54.2915 6.78565C54.4904 6.78565 54.6272 6.62162 54.8012 6.57112L55 6.47002L55.0995 6.36922L55.1989 6.26812L55.2983 6.05359C55.3977 5.81371 55.6091 5.59893 55.5718 5.27067ZM54.652 5.03086C54.5775 5.20761 54.652 5.49791 54.3661 5.57366C54.3661 5.75042 54.3661 5.81374 54.1673 5.77587C54.1258 5.84146 54.0688 5.89527 54.0015 5.93276C53.9342 5.97025 53.8587 5.99013 53.782 5.9904C53.4588 5.9904 53.4588 5.9904 53.4588 5.67476V3.90703C53.4588 3.76815 53.5582 3.67993 53.6701 3.75568C53.7962 3.81148 53.9306 3.84571 54.0678 3.85678C54.1548 3.85678 54.2046 3.98291 54.2667 4.04604L54.3661 4.14714C54.5525 4.14714 54.4283 4.34914 54.4656 4.45014C54.5518 4.50655 54.617 4.59066 54.6507 4.68902C54.6845 4.78739 54.685 4.89429 54.652 4.99294V5.03086Z" fill="white"/>
<path d="M51.9548 2.82155V6.89952H50.948V6.79842L50.6497 6.69763V6.59653C50.6497 6.52077 50.6497 6.39463 50.5503 6.39463L50.4757 6.26825C50.4395 6.16922 50.398 6.07231 50.3514 5.97789C50.2893 5.90214 50.2147 5.85175 50.1401 5.776C50.1494 5.7427 50.1513 5.70752 50.146 5.67336C50.1407 5.63919 50.1282 5.60658 50.1093 5.5778C50.0904 5.54902 50.0656 5.52474 50.0366 5.5066C50.0076 5.48846 49.975 5.47687 49.9412 5.47269L49.8419 5.3719V5.2708L49.7424 5.1697L49.6429 4.9678C49.5674 4.82862 49.4844 4.69367 49.3943 4.5637H49.3073C49.4938 4.76571 49.3819 5.01825 49.3819 5.23289C49.3819 5.77578 49.3819 6.31871 49.3819 6.84897H48.3751V2.771H49.3819C49.3819 3.01088 49.5684 3.13703 49.6678 3.30116C49.7673 3.46529 50.1028 3.8569 50.2769 4.15991C50.4509 4.46292 50.5628 4.51335 50.687 4.71536C50.8113 4.91736 50.7989 4.93 50.861 5.04363C50.8799 5.07099 50.9057 5.09283 50.9356 5.10682C50.9356 5.10682 50.9356 5.03095 50.9356 4.99308V2.771L51.9548 2.82155Z" fill="white"/>
<path d="M76.2418 2.82171C76.2418 2.94797 76.1672 3.06164 76.1548 3.1879C76.1486 3.30565 76.1486 3.42369 76.1548 3.54145C76.1548 3.65507 76.0802 3.78107 76.0678 3.90732C76.0554 4.03358 76.0678 4.14724 76.0678 4.26087C76.0587 4.31661 76.0294 4.36703 75.9857 4.40204C75.942 4.43706 75.8871 4.45434 75.8316 4.45044H74.8C74.7503 4.1877 74.7503 3.91761 74.8 3.65488C74.8617 3.38608 74.8868 3.11008 74.8745 2.83435H73.9797C74.0418 3.14999 73.8802 3.45297 73.8802 3.75598C73.8802 3.75598 73.8802 3.90737 73.8802 3.95787C73.8802 4.00838 73.8803 4.37473 73.7684 4.50099C73.6565 4.62724 73.7684 4.93025 73.6814 5.13226C73.5944 5.33426 73.6814 5.37213 73.6814 5.43525C73.6814 5.49838 73.6813 5.90242 73.5695 6.0918C73.498 6.32439 73.4685 6.56797 73.4825 6.81122V6.91233H74.3899V6.81122C74.3899 6.6976 74.5265 6.59654 74.4892 6.44504C74.4768 6.32754 74.4768 6.2093 74.4892 6.0918V5.9907C74.5354 5.87705 74.5688 5.75842 74.5887 5.63715C74.5887 5.28364 74.5887 5.2836 74.974 5.2836H75.7695C75.8689 5.2836 75.9062 5.28375 75.8938 5.43525C75.8813 5.58676 75.8938 5.59926 75.8938 5.62451C75.8938 5.64976 75.8192 5.97792 75.7943 6.15468C75.7694 6.33143 75.7944 6.52105 75.6949 6.71043C75.5955 6.89981 75.6949 6.91233 75.7819 6.91233H76.6022V6.81122C76.6022 6.81122 76.6893 6.72303 76.6893 6.68515L76.8011 5.49813C77.0124 5.2835 76.8633 5.00594 76.9503 4.75343C76.9882 4.4897 76.9882 4.22161 76.9503 3.95787L77.0497 3.85708V3.55408L77.1491 3.03625V2.83435L76.2418 2.82171ZM73.5322 3.54145C73.5322 3.35207 73.6192 3.21301 73.6689 3.04888L73.7435 2.82171H73.1842C73.035 2.82171 72.9107 2.98595 72.7367 2.93545C72.6622 3.11221 72.6125 3.31414 72.5255 3.4909C72.4162 3.87292 72.2484 4.23489 72.0282 4.56387C72.0282 4.80375 71.9039 4.96786 71.8293 5.16986L71.7672 5.24569V5.06907C71.6549 4.65855 71.6212 4.22996 71.6678 3.80653C71.5187 3.80653 71.5808 3.68008 71.5684 3.60433V2.99833L71.4689 2.8849H70.661C70.5177 3.37495 70.3348 3.85198 70.1141 4.31142C70.0712 4.38365 70.0212 4.45152 69.9649 4.51363C69.9649 4.602 69.965 4.71553 69.8655 4.72816C69.8742 4.79967 69.8688 4.87209 69.8496 4.94146C69.8304 5.01082 69.7978 5.07583 69.7536 5.13226C69.7536 5.13226 69.7536 5.20779 69.7536 5.22041C69.7068 5.29322 69.6526 5.36112 69.5921 5.42262C69.5921 5.32161 69.5051 5.18248 69.6791 5.15722V4.75343C69.5959 4.52132 69.5416 4.27948 69.5175 4.0337V3.11207C69.3683 3.11207 69.4305 2.98593 69.4181 2.91018H68.4113V3.02361C68.4575 3.25719 68.4907 3.49331 68.5107 3.7307C68.5107 3.97059 68.5107 4.21054 68.5107 4.4378V4.53859C68.5837 4.62036 68.64 4.71629 68.6762 4.82032C68.7125 4.92435 68.728 5.0347 68.722 5.14489C68.722 5.32165 68.6474 5.54882 68.722 5.6877C68.7947 5.87178 68.8205 6.07154 68.7966 6.26842C68.7966 6.48305 68.9706 6.65979 68.9085 6.88705V6.98815H69.9152V6.88705C70.0022 6.63454 70.139 6.38191 70.2384 6.1294C70.3378 5.8769 70.3751 5.61203 70.6113 5.46053C70.6266 5.25654 70.6953 5.06016 70.8102 4.89214C70.8422 4.85489 70.8675 4.81232 70.8848 4.76607C70.8848 4.8292 70.8848 4.8922 70.8848 4.95533V5.05643L70.9718 5.11962H70.8848C70.8848 5.28375 70.9469 5.46038 70.9841 5.62451C71.0291 5.7945 71.0623 5.96736 71.0836 6.14204C71.0836 6.3188 71.0836 6.50841 71.0836 6.69779C71.0836 6.88717 71.0836 6.79864 71.1706 6.84914V6.95024H72.1774V6.84914C72.2674 6.53651 72.3839 6.23241 72.5255 5.94015C72.5753 5.86561 72.6292 5.79405 72.687 5.72561C72.7145 5.6228 72.7477 5.52165 72.7864 5.42262L72.8859 5.11962L72.9853 4.91742L73.0847 4.71552C73.1966 4.42514 73.209 4.09669 73.4825 3.89469C73.47 3.73056 73.3458 3.59195 73.5322 3.54145ZM65.2045 4.66497H63.4023V5.47286H63.9988L64.0983 5.59924L63.9988 5.67506C63.9988 5.76344 63.9989 5.87696 63.8995 5.87696C63.8 5.87696 63.7876 6.06654 63.713 6.07916C63.5024 6.10435 63.2897 6.10435 63.0791 6.07916C63.0045 6.07916 62.9548 5.95271 62.8927 5.87696L62.7932 5.77616C62.4949 5.66254 62.5694 5.37215 62.5073 5.14489C62.4824 4.98597 62.4824 4.82389 62.5073 4.66497L62.6068 4.56387C62.6005 4.46718 62.6005 4.3702 62.6068 4.27351C62.6068 4.27351 62.6689 4.18532 62.7062 4.14744L62.8057 4.04634C62.8057 3.89483 62.9299 3.95786 63.0045 3.94524V3.84444C63.4147 3.54143 63.5638 3.55385 63.9118 3.94524C64.061 3.94524 63.9989 4.07169 64.0113 4.14744L64.3096 4.24823C64.3564 4.18298 64.4183 4.13057 64.4898 4.09535C64.5614 4.06012 64.6403 4.04327 64.7198 4.04634L65.0181 3.94524L64.9435 3.7307C64.9435 3.66758 64.9435 3.60457 64.9435 3.54145C64.8701 3.44106 64.8036 3.33559 64.7446 3.22581L64.6328 3.12471C64.4712 3.12471 64.4091 3.12483 64.4339 2.93545C64.2075 2.89835 63.9833 2.84761 63.7627 2.7838C63.551 2.72591 63.3281 2.72591 63.1164 2.7838C62.843 2.7838 62.6068 2.99837 62.3333 3.03625L62.2339 3.13735L61.9232 3.45298L61.7243 3.75598C61.7243 4.02111 61.6 4.29875 61.5254 4.57651V5.2836C61.5185 5.38027 61.5185 5.47729 61.5254 5.57396C61.6323 5.9603 61.8283 6.31529 62.0972 6.60933C62.1593 6.67246 62.2214 6.7481 62.296 6.81122C62.3597 6.80066 62.4249 6.80427 62.4871 6.8217C62.5493 6.83914 62.6072 6.87008 62.6565 6.91233H64.1978L64.2971 6.81122L64.8068 6.40743L65.0056 6.0918V5.9907C65.1353 5.73715 65.2036 5.4556 65.2045 5.16986C65.1921 4.99311 65.2045 4.8291 65.2045 4.66497ZM79.7593 2.82171H77.7706L77.6836 2.93545C77.6836 3.40259 77.6836 3.86957 77.5718 4.34934C77.5482 4.4574 77.5149 4.56305 77.4723 4.66497C77.4723 4.86698 77.3977 5.06896 77.3729 5.27096C77.3954 5.48133 77.3654 5.69404 77.2858 5.8896C77.2858 5.96535 77.2858 6.07896 77.2858 6.19259C77.2858 6.30622 77.2859 6.38217 77.1865 6.3948V6.89969H79.4113C79.4113 6.89969 79.3367 6.83646 79.2994 6.79859V5.97806H78.4542C78.3051 5.97806 78.2802 5.91476 78.2926 5.80113C78.2864 5.73395 78.2864 5.66642 78.2926 5.59924C78.2942 5.56606 78.3022 5.5337 78.3162 5.50368C78.3302 5.47366 78.3499 5.44675 78.3742 5.42447C78.3984 5.40218 78.4267 5.38475 78.4576 5.37361C78.4884 5.36246 78.521 5.35773 78.5537 5.35943H79.3989C79.3869 5.25035 79.3869 5.14024 79.3989 5.03116C79.4302 4.8516 79.4302 4.66791 79.3989 4.48835H78.9639H78.8644C78.3548 4.48835 78.3673 4.48819 78.504 4.00843C78.504 3.8948 78.504 3.88236 78.6531 3.88236H79.3616C79.5108 3.88236 79.5977 3.80641 79.5977 3.68015C79.5977 3.5539 79.8339 3.1121 79.7593 2.82171ZM81.7728 2.82171C81.4994 2.82171 81.2384 2.82171 80.965 2.82171C80.7273 2.84298 80.4908 2.87679 80.2565 2.92281C80.2565 3.06169 80.2565 3.26351 80.2565 3.36452C80.2565 3.46552 80.2565 3.74322 80.1819 3.9326C80.1073 4.12198 80.0079 4.32397 80.07 4.55123V4.65233C80.0352 4.76861 80.0062 4.88663 79.9831 5.00588C79.9706 5.14025 79.9706 5.2756 79.9831 5.40998C79.9831 5.40998 79.9831 5.574 79.9831 5.61187C79.9831 5.64975 79.983 6.00319 79.8712 6.16732C79.7916 6.36287 79.7617 6.57559 79.7842 6.78595V6.88705H81.7853V6.78595C81.7853 6.62182 81.8599 6.44519 81.8847 6.28106V5.96542H81.0147C80.8407 5.96542 80.9028 5.83927 80.8904 5.75089V5.54869C80.8904 5.42243 80.8904 5.33416 81.0644 5.34679H81.8599C81.8599 5.34679 81.9842 5.28356 81.9842 5.24569C81.9842 4.98056 82.0587 4.70292 82.096 4.42516H81.2508C81.1017 4.42516 81.0768 4.42499 81.0892 4.24823C81.0892 3.78109 81.0892 3.7686 81.5491 3.75598H82.27C82.27 3.52872 82.27 3.28878 82.27 3.06152C82.27 3.06152 82.2701 3.06145 82.3695 2.98569V2.87226L81.7728 2.82171ZM83.6746 5.97806C83.513 5.97806 83.5503 5.81403 83.5876 5.76353C83.665 5.60762 83.6953 5.4317 83.6746 5.25833C83.6746 5.05632 83.6746 4.85435 83.774 4.66497C83.7571 4.43716 83.791 4.20837 83.8734 3.99579C83.948 3.80641 83.8734 3.57916 83.9604 3.37716C84.0474 3.17515 83.9604 3.01109 83.9604 2.82171H83.0655C83.1277 3.04897 82.9785 3.22571 82.9536 3.44034C82.9288 3.65498 83.0531 3.84428 82.8543 3.99579C82.8325 4.50997 82.7659 5.02114 82.6554 5.52341C82.6554 5.70017 82.5559 5.82657 82.5559 5.9907V6.74804L82.4565 6.84914H84.5694V6.74804L84.6689 6.02861V5.92751L83.6746 5.97806ZM86.6825 4.04634L86.7819 3.84444C86.7752 3.78572 86.7752 3.72624 86.7819 3.66752C86.9684 3.66752 87.1672 3.5666 87.3164 3.75598C87.4655 3.94536 87.478 3.84436 87.5899 3.75598C87.7017 3.6676 87.7265 3.37712 87.9503 3.33924V2.93545C87.8757 2.93545 87.7639 2.93534 87.7514 2.82171C87.5153 2.82171 87.2667 2.82163 87.043 2.73325C86.8192 2.64487 86.8441 2.73325 86.8068 2.73325C86.7695 2.73325 86.4339 2.73334 86.2475 2.82171C86.2573 2.87093 86.2532 2.9218 86.2355 2.96874C86.2179 3.01568 86.1876 3.05671 86.148 3.0868C85.8756 3.31495 85.6659 3.61058 85.539 3.94524V4.86687L85.8497 5.06907C86.0486 5.06907 86.1729 5.22046 86.3469 5.27096L86.4463 5.37207C86.7819 5.37207 86.844 5.44779 86.844 5.66242C86.8479 5.71925 86.8396 5.77629 86.8195 5.82949C86.7995 5.88269 86.7683 5.93068 86.7281 5.97035C86.6878 6.01003 86.6395 6.04037 86.5866 6.05913C86.5336 6.07788 86.4773 6.08481 86.4215 6.07916H86.0734C85.9491 6.07916 85.887 6.00321 85.8497 5.87696L85.7378 5.77616C85.5762 5.77616 85.4395 5.77605 85.3898 5.97806C85.387 6.05072 85.3613 6.12039 85.3165 6.17718C85.2718 6.23397 85.2104 6.2749 85.1412 6.29369V6.59669L85.539 6.8365C85.5236 6.85513 85.5047 6.87033 85.4833 6.88119C85.4619 6.89205 85.4386 6.8984 85.4147 6.89969H86.8814C87.0068 6.84161 87.1354 6.79088 87.2667 6.74804L87.4655 6.54614L87.565 6.44504C87.565 6.16728 87.7763 5.92755 87.8136 5.64979C87.8509 5.37203 87.9006 5.35927 87.8136 5.19514C87.8007 5.10302 87.8007 5.00954 87.8136 4.91742C87.7806 4.91141 87.7492 4.89876 87.7212 4.88012C87.6932 4.86148 87.6691 4.83721 87.6505 4.80892C87.632 4.78062 87.6192 4.74895 87.6131 4.71552C87.6069 4.68209 87.6074 4.64763 87.6147 4.61442C87.2648 4.57533 86.9287 4.45428 86.6328 4.26087C86.5458 4.18512 86.5582 4.05896 86.6825 4.04634Z" fill="white"/>
<path d="M74.7379 6.89954V7.00064C74.7379 7.20264 74.7379 7.41726 74.6385 7.61927C74.6348 7.83854 74.5971 8.05586 74.5266 8.26318C74.4632 8.4102 74.4335 8.56976 74.4396 8.73016L74.3402 8.83126V9.34879L74.2407 9.44989C74.2407 9.7529 74.1662 10.0559 74.1413 10.3589C73.9922 10.3589 74.0543 10.4977 74.0419 10.5734V10.7756H67.4046L67.3052 10.8764C67.3052 10.9522 67.2306 11.0155 67.2182 11.0786C67.2244 11.1964 67.2244 11.3144 67.2182 11.4322C67.2182 11.5584 67.2182 11.6718 67.1312 11.798C67.0441 11.9243 67.0566 12.1391 67.0317 12.3032V12.5051H66.9447L67.0317 12.5683H73.0475C73.0485 12.9066 72.9982 13.2431 72.8984 13.5658C72.8055 13.8728 72.7553 14.1915 72.7493 14.5127H72.6622C72.64 14.7556 72.5984 14.9963 72.5379 15.2324C72.426 15.5481 72.4633 15.9265 72.2396 16.2169H66.2238C65.9877 16.2169 66.1492 16.4821 66.087 16.621C65.9578 16.8735 65.9017 17.1583 65.9255 17.4419C65.7887 17.5934 65.8261 17.77 65.8136 17.9468L65.9255 18.0479H72.5503C72.4926 18.4744 72.4054 18.8963 72.2894 19.3104C72.2894 19.4871 72.2894 19.6638 72.2148 19.8279C72.1069 20.1276 72.0481 20.4432 72.0408 20.7622C71.904 20.9137 72.0407 21.1282 71.9289 21.2797C71.8645 21.4442 71.8348 21.6207 71.8419 21.7976C71.8308 21.8212 71.8251 21.8472 71.8251 21.8734C71.8251 21.8996 71.8308 21.9252 71.8419 21.9489H60.7424C60.9289 21.9489 60.9289 21.8606 60.991 21.7091C61.0532 21.5576 60.9911 21.3052 61.0905 21.1916C61.1899 21.0779 61.0904 20.7623 61.2644 20.5477C61.4385 20.333 61.2645 20.0552 61.3888 19.8406C61.5131 19.6259 61.3887 19.4239 61.5006 19.2219C61.7141 18.6284 61.8071 17.9971 61.7741 17.366C61.7741 17.366 61.8735 17.2775 61.8735 17.2397C61.8735 17.2018 61.8735 16.9744 61.8735 16.8482C61.8735 16.7219 62.0848 16.7473 62.0848 16.6084C62.0848 16.4695 62.2464 16.1412 62.1843 15.8887C62.3707 15.7119 62.1842 15.4468 62.2961 15.2827C62.408 15.1185 62.2961 14.8284 62.3831 14.6138L62.4826 14.5127V14.197L62.582 14.0959C62.6305 13.785 62.6969 13.4773 62.7809 13.1743V12.7702L62.8803 12.6694C62.8803 12.4674 62.9548 12.2654 62.9797 12.0634C63.0046 11.8614 63.0667 12.0634 63.0667 12.0634C63.0788 11.8409 63.1163 11.6206 63.1786 11.4069C63.292 11.0204 63.3629 10.6222 63.3899 10.2199C63.5763 10.081 63.4769 9.82853 63.5639 9.63915C63.6509 9.44977 63.5639 9.17195 63.5639 8.94469L63.6634 8.83126V8.42716L63.7628 8.32606C63.8033 8.2234 63.8366 8.11792 63.8622 8.01042C63.8622 7.78317 63.8622 7.54353 63.8622 7.31627C64.0611 7.25315 63.8622 7.10164 63.9617 7.00064H62.9549C62.843 7.00064 62.7063 7.00054 62.6317 6.89954H74.7379Z" fill="white"/>
<path d="M86.9808 7.34152C86.8813 7.69504 86.8316 8.04835 86.7446 8.40186C86.6576 8.75537 86.7446 8.76816 86.67 8.88179C86.5954 8.99541 86.6701 9.18463 86.5831 9.34876C86.4961 9.51289 86.4712 9.56338 86.4961 9.65176C86.5096 9.87912 86.4623 10.106 86.3593 10.3083C86.3174 10.4607 86.2923 10.6175 86.2847 10.7756H82.7424C82.6114 11.0801 82.5115 11.3974 82.4441 11.7225C82.4011 12.0043 82.3387 12.2826 82.2576 12.5557C82.1953 12.7693 82.1578 12.9897 82.1458 13.2122C82.0634 13.4248 82.0294 13.6536 82.0463 13.8814C81.835 14.0203 82.0463 14.2601 81.9096 14.4242C81.7729 14.5883 81.9096 14.8408 81.8351 15.0555C81.6859 15.0555 81.7605 15.1816 81.7356 15.2574C81.7107 15.3331 81.7356 15.447 81.7356 15.5101C81.5872 15.8747 81.4829 16.2562 81.4249 16.6463C81.4249 16.8483 81.4248 17.1008 81.313 17.2523C81.2011 17.4038 81.313 17.6942 81.1514 17.8962C80.9898 18.0982 81.1514 18.3381 81.0271 18.5527C80.9028 18.7674 81.0271 18.9946 80.9028 19.2093C80.7931 19.508 80.7383 19.8247 80.7413 20.1435L80.6418 20.2446C80.5718 20.6149 80.5385 20.9912 80.5423 21.3682L80.443 21.4693V21.5701V21.6585C80.44 21.7005 80.44 21.7429 80.443 21.7849H80.5672H76.4282C76.4786 21.7396 76.5097 21.6761 76.5152 21.608C76.5085 21.4944 76.5085 21.3806 76.5152 21.2671C76.6475 20.9303 76.7069 20.5688 76.6893 20.2067C76.8291 20.0428 76.9004 19.8299 76.8881 19.6134C76.8775 19.5042 76.8775 19.3942 76.8881 19.2851C77 18.7927 77.1118 18.3001 77.2113 17.8077C77.2495 17.5043 77.3119 17.2046 77.3978 16.9114C77.4653 16.664 77.5069 16.4103 77.522 16.154C77.522 16.0783 77.522 16.0023 77.522 15.9265C77.6677 15.4693 77.7473 14.9931 77.7582 14.5127C77.957 14.5127 77.8203 14.298 77.8576 14.197C77.8949 14.096 77.9571 14.0579 77.9571 13.9948C77.9715 13.815 78.0048 13.6373 78.0565 13.4647C78.1438 13.2006 78.1818 12.9224 78.1684 12.6441C78.1684 12.581 78.243 12.505 78.2554 12.4293C78.3639 12.0417 78.4347 11.6442 78.4667 11.2426C78.5109 11.1457 78.5442 11.044 78.5661 10.9396C78.5661 10.6366 78.5661 10.6366 78.2926 10.6366H75.0486C75.0486 10.5482 75.0486 10.4346 75.0486 10.3968C75.0486 10.3589 75.1356 10.1189 75.148 9.98003C75.1605 9.84115 75.2971 9.68981 75.2474 9.51305V9.41195L75.3469 9.31085C75.3007 9.05273 75.3401 8.78652 75.4588 8.55351C75.4588 8.38938 75.4587 8.22512 75.5582 8.09886C75.6289 7.9363 75.6588 7.75854 75.6452 7.58133C75.6452 7.4677 75.7819 7.36666 75.7446 7.22779C75.7073 7.08891 75.7446 6.97523 75.8441 6.8616V6.7605H85.2282C85.3101 6.77944 85.395 6.77944 85.4769 6.7605H86.9435C86.9435 6.7605 86.9435 6.89956 86.9435 6.95006C86.98 7.00757 87.0023 7.07309 87.0088 7.14117C87.0153 7.20925 87.0057 7.27799 86.9808 7.34152Z" fill="white"/>
<path d="M43.217 4.45027V4.75327C43.2507 5.26375 43.1245 5.77186 42.8565 6.20506C42.8494 6.26798 42.8494 6.33171 42.8565 6.39463L42.5582 6.69763C42.3966 6.69763 42.2972 6.69751 42.2599 6.89952H42.1604L41.8497 7.00062H41.1537L40.4452 6.79842L39.8486 6.19243C39.8486 5.91467 39.6497 5.7002 39.6124 5.40981C39.5656 4.99031 39.5656 4.56678 39.6124 4.14727C39.6124 3.86951 39.8362 3.64212 39.8486 3.37699C39.9146 3.35909 39.9716 3.31672 40.0084 3.25832C40.0452 3.19991 40.0591 3.12969 40.0475 3.06135L40.1469 2.97289C40.1469 2.97289 40.2215 2.97289 40.2463 2.97289C40.5455 2.71266 40.9218 2.56175 41.3153 2.54382C41.5656 2.55528 41.8149 2.58459 42.0611 2.63198L42.4464 2.77099C42.4867 2.80563 42.5241 2.84375 42.5582 2.88473C42.6183 2.95421 42.685 3.0175 42.7571 3.07399L42.8565 3.17509C42.8417 3.24373 42.8544 3.31534 42.8917 3.37452C42.929 3.4337 42.9878 3.47562 43.0554 3.49073V3.79372C42.8673 3.83658 42.687 3.9089 42.5209 4.00826C42.3345 4.15976 42.2102 4.08401 42.0611 4.00826C41.9119 3.93251 42.061 3.81899 41.9492 3.80636C41.8921 3.68254 41.7921 3.58438 41.6682 3.5308C41.5444 3.47722 41.4055 3.47202 41.278 3.516C41.0916 3.516 40.8181 3.59152 40.8429 3.90716C40.729 4.0313 40.6434 4.17943 40.5918 4.34085C40.5403 4.50226 40.5242 4.67301 40.5446 4.84142C40.5446 4.94243 40.5446 5.05605 40.5446 5.15706C40.5446 5.25806 40.6068 5.15713 40.6317 5.23288C40.6565 5.30864 40.5571 5.66233 40.8306 5.73808C40.8306 6.07897 41.1164 6.09137 41.3401 6.14187H41.539C41.6136 6.14187 41.7379 6.14208 41.7379 6.04108L41.9367 5.83888C41.9972 5.81769 42.0524 5.78342 42.0983 5.73808C42.2102 5.53608 42.1605 5.43509 41.9367 5.43509H41.3401C41.4103 5.13316 41.4437 4.82365 41.4396 4.51346L43.217 4.45027Z" fill="white"/>
<path d="M46.4735 6.58397C46.2831 6.37179 46.1163 6.13885 45.9763 5.88951C45.8768 5.71276 45.7526 5.54874 45.6283 5.37198C45.7774 5.20785 45.939 5.0309 46.0757 4.85414L45.33 4.22287C45.3066 4.34538 45.2414 4.45568 45.1459 4.53419C45.0505 4.61271 44.9307 4.65453 44.8079 4.65225C44.696 4.65225 44.6091 4.65241 44.6215 4.5009C44.6339 4.3494 44.6215 4.17247 44.6215 4.00834V3.71798L43.5898 2.92273V6.71035C43.5898 6.8366 43.5899 6.93749 43.7639 6.91224H44C44.1989 6.91224 44.4351 6.91224 44.5345 6.91224C44.6339 6.91224 44.5345 6.55883 44.5345 6.38207C44.5407 6.26432 44.5407 6.14628 44.5345 6.02853C44.5561 5.88353 44.5251 5.7354 44.4475 5.61179C44.4475 5.61179 44.4475 5.53595 44.4475 5.52333H44.5842C44.5842 5.68746 44.7582 5.83914 44.7085 6.02853C44.6588 6.21791 44.7085 6.2178 44.8079 6.23042C44.9073 6.24305 45.0689 6.36937 45.1186 6.62188C45.1684 6.87439 45.3424 6.93752 45.7774 6.93752H46.2249C46.2994 6.93752 46.4113 6.93743 46.4113 6.84905C46.4562 6.76837 46.4777 6.67653 46.4735 6.58397Z" fill="white"/>
<path d="M56.9763 2.83411H55.9695V6.91211H56.9763V2.83411Z" fill="white"/>
<path d="M43.6272 2.82153V3.02343C43.4532 3.02343 43.391 3.02354 43.4158 2.82153H43.6272Z" fill="white"/>
<path d="M42.9684 3.44015C42.9008 3.42504 42.8419 3.38343 42.8047 3.32425C42.7674 3.26507 42.7547 3.19315 42.7695 3.12451C42.9684 3.14976 42.9684 3.14976 42.9684 3.44015Z" fill="white"/>
<path d="M43.217 3.73044C43.217 3.85669 43.0926 3.79364 43.0181 3.80626V3.60406C43.1051 3.54093 43.2418 3.49055 43.217 3.73044Z" fill="white"/>
<path d="M21.5401 12.3032C21.5401 12.1011 21.3164 12.0885 21.1921 12.0128C21.0678 11.937 20.9062 11.7855 21.1921 11.6213C21.478 11.4572 21.4283 11.533 21.4656 11.3815C21.6893 11.3815 21.739 11.3058 21.7639 11.0785L21.8633 10.9774C21.9628 10.8764 22.0995 10.8007 22.1616 10.6744C22.6085 9.90967 22.8486 9.03861 22.8577 8.14935C22.8948 7.60711 22.8948 7.06286 22.8577 6.52062C22.738 5.91888 22.559 5.33106 22.3232 4.76583C22.3232 4.69008 22.1989 4.63938 22.1243 4.56363C21.8612 4.11196 21.5126 3.71793 21.0988 3.40373C20.6849 3.08953 20.2139 2.86145 19.713 2.73301C19.713 2.73301 19.713 2.65718 19.713 2.65718C19.4336 2.55897 19.1383 2.5163 18.843 2.53111L18.3333 2.43001H18.1469H18.0475C18.0475 2.24063 17.9356 2.26603 17.8238 2.26603H11.348C11.1119 2.26603 11.1119 2.26597 11.1119 2.51847V21.4566C11.1181 21.5743 11.1181 21.6924 11.1119 21.8101C11.1119 21.949 11.1119 21.9867 11.2735 21.9867C11.6215 21.9867 11.9819 21.9867 12.3299 21.9867C13.4983 21.9867 14.6667 21.9867 15.8475 21.9867C17.0204 22.0308 18.1949 22.0054 19.365 21.9109C19.9796 21.796 20.5771 21.6008 21.1424 21.3302C21.1424 21.3302 21.217 21.2293 21.2543 21.1788C21.4852 21.0477 21.7093 20.9043 21.9255 20.7495C22.4778 20.2896 22.9055 19.6944 23.1684 19.0199C23.4609 18.3538 23.5971 17.6274 23.5661 16.8987V16.2927C23.5997 15.7544 23.5322 15.2145 23.3672 14.7019C23.081 13.6951 22.4276 12.8374 21.5401 12.3032ZM18.0226 8.03561C18.0725 8.3153 18.0725 8.60203 18.0226 8.88172C17.9232 9.26048 17.7989 9.66443 17.3266 9.76544C17.2147 9.76544 17.1277 9.89157 17.0283 9.95469H15.9345V7.10134H16.9786C17.2316 7.11215 17.4733 7.21087 17.6633 7.38091C17.8533 7.55096 17.9802 7.78201 18.0226 8.03561ZM17.426 17.2901H15.922V13.9319H17.3266C17.3266 14.1339 17.5254 13.9948 17.6249 14.0327C17.7243 14.0705 17.9853 14.3105 18.1842 14.4368C18.421 14.631 18.5729 14.9124 18.6068 15.2197C18.706 15.6406 18.6712 16.0827 18.5074 16.4822C18.4633 16.6032 18.3954 16.7138 18.3078 16.8071C18.2201 16.9005 18.1146 16.9746 17.9977 17.025C17.7989 17.0755 17.6125 17.1891 17.426 17.2901Z" fill="#010101"/>
<path d="M53.1356 24.4614H52.3899C52.3899 24.4614 52.1662 24.55 52.0916 24.7141C51.9614 25.1467 51.7994 25.5688 51.6068 25.9767C51.6027 26.0144 51.6027 26.0523 51.6068 26.0901C51.6138 26.0441 51.6138 25.9974 51.6068 25.9514C51.4104 25.5437 51.2442 25.1217 51.1096 24.6889C51.035 24.5121 50.9356 24.3603 50.6871 24.4108C50.4718 24.4234 50.256 24.4234 50.0407 24.4108V25.0547V26.6835C50.0407 26.936 50.0407 26.9359 50.3141 26.9359C50.687 26.9359 50.6871 26.9362 50.6871 26.5827C50.6871 26.2292 50.6871 26.1787 50.6871 25.964C50.6871 25.7494 50.6871 25.5977 50.6871 25.4083C50.7492 25.5724 51.2712 26.9359 51.2836 26.9359C51.4484 26.9616 51.6161 26.9616 51.7809 26.9359C52.0672 26.508 52.3246 26.0611 52.5515 25.5979V26.4689C52.5515 26.9613 52.5515 26.9612 53.0114 26.9485H53.1107C53.2226 26.9485 53.26 26.9487 53.26 26.8098V25.1938C53.1605 24.9286 53.148 24.6886 53.1356 24.4614Z" fill="#010101"/>
<path d="M83.3514 24.4362H83.1526C82.904 24.4362 82.7051 24.4362 82.6181 24.7392C82.5729 24.8566 82.5053 24.9639 82.4192 25.0548C82.3173 25.1541 82.2093 25.2471 82.096 25.3328L81.9221 25.0548C81.8213 24.9105 81.7134 24.7717 81.5989 24.6384C81.4995 24.5247 81.4125 24.3983 81.226 24.4362C81.1101 24.4425 80.9939 24.4425 80.878 24.4362C80.7786 24.4362 80.7288 24.5247 80.7785 24.5878C81.052 24.9666 81.3006 25.3578 81.5989 25.724C81.6591 25.7794 81.7059 25.8481 81.7361 25.9246C81.7662 26.0012 81.7788 26.0838 81.7729 26.166C81.7666 26.25 81.7666 26.3344 81.7729 26.4184C81.7729 27.0371 81.7729 27.0244 82.3446 26.9739C82.4689 26.9739 82.469 26.974 82.469 26.8099C82.469 26.6458 82.469 26.5447 82.469 26.4058C82.4563 26.26 82.4753 26.1133 82.5247 25.9758C82.5741 25.8384 82.6527 25.7137 82.7548 25.6106C82.9968 25.2955 83.2209 24.9667 83.426 24.6257C83.513 24.4869 83.4881 24.4362 83.3514 24.4362Z" fill="#010101"/>
<path d="M80.4057 26.4562H79.2622V24.9033C79.2777 24.8093 79.2659 24.7127 79.2284 24.6253C79.1909 24.5379 79.1293 24.4632 79.0509 24.4108C78.935 24.4171 78.8188 24.4171 78.7029 24.4108C78.6034 24.4108 78.5537 24.4109 78.5537 24.5498V26.8351C78.5537 26.9487 78.5537 26.9611 78.7029 26.9611H80.5051H80.6418C80.6606 26.8144 80.6606 26.6661 80.6418 26.5194C80.6418 26.5194 80.4927 26.4562 80.4057 26.4562Z" fill="#010101"/>
<path d="M71.9538 24.436C71.7551 24.4234 71.5559 24.4234 71.3572 24.436C71.3572 24.5748 71.3572 24.7265 71.3572 24.878C71.3572 25.2946 71.3572 25.7239 71.3572 26.1405C71.3572 26.3678 71.3572 26.5824 71.3572 26.8097C71.3572 27.037 71.3572 26.961 71.3572 26.961H71.9538C71.9538 26.8095 71.9538 26.6708 71.9538 26.5193V24.5876C71.9538 24.5876 71.9786 24.436 71.9538 24.436Z" fill="#010101"/>
<path d="M62.9921 26.4562H61.6124V26.3046C61.6124 25.8501 61.6124 25.8376 62.0474 25.8376H62.9921C63.104 25.8376 63.1164 25.7743 63.1288 25.6733C63.1412 25.5723 63.1289 25.4209 62.8927 25.4209H61.6498V24.8275H63.1537L63.2531 24.7264C63.2531 24.436 63.2531 24.436 63.0542 24.4108C62.4203 24.4108 61.8113 24.4108 61.1526 24.4108C61.0283 24.4108 60.9413 24.4109 60.9413 24.5877C60.9413 25.3326 60.9413 26.0775 60.9413 26.8224C60.9413 26.936 60.9413 26.9611 61.078 26.9611H63.0294C63.2531 26.9611 63.365 26.8602 63.3526 26.696C63.3402 26.5319 63.1785 26.4562 62.9921 26.4562Z" fill="#010101"/>
<path d="M65.5029 24.4235H65.3413L65.2418 24.5372C65.2418 25.0801 65.2418 25.623 65.2418 26.1659C65.2418 26.3553 65.1548 26.5699 65.3413 26.7214C65.0678 27.0118 65.3413 26.9738 65.4904 26.9738H65.7887C65.9379 26.9738 65.9503 26.974 65.9503 26.7972C65.9503 26.1407 65.9503 25.4714 65.9503 24.8149C65.9006 24.4362 65.9006 24.4361 65.5029 24.4235Z" fill="#010101"/>
<path d="M77.5469 26.1028C77.3854 26.0018 77.4475 25.7368 77.2486 25.6484C77.1349 25.2744 76.9893 24.9109 76.8136 24.5625C76.8136 24.4994 76.6644 24.4487 76.5774 24.4361C76.4615 24.4298 76.3453 24.4298 76.2294 24.4361C76.1724 24.4291 76.1147 24.4416 76.0653 24.4713C76.0158 24.5009 75.9774 24.5463 75.9559 24.6004C75.7097 25.0732 75.5059 25.5675 75.3469 26.0775C75.1853 26.0775 75.2102 26.2921 75.1356 26.4058C75.0611 26.5194 74.9119 26.7213 74.9367 26.9359H75.5085C75.6204 26.9359 75.6079 26.8477 75.6576 26.7972C75.7074 26.7467 75.7447 26.5573 75.7447 26.431H76.739C76.8098 26.4201 76.882 26.4379 76.9401 26.4804C76.9982 26.5228 77.0375 26.5865 77.0497 26.6582C77.1367 26.936 77.1492 26.9359 77.4102 26.9359H77.7085C77.8577 26.9359 77.8825 26.9361 77.8203 26.7593C77.675 26.5681 77.5809 26.3419 77.5469 26.1028ZM76.1424 25.6105C76.1424 25.5348 76.2419 25.4588 76.2419 25.3957C76.2419 25.3325 76.3289 25.2316 76.391 25.1559C76.4532 25.0801 76.478 25.2946 76.5277 25.383C76.5658 25.4477 76.5991 25.5155 76.6272 25.5852C76.8136 25.964 76.8136 25.9641 76.391 25.9641C75.9684 25.9641 76.043 25.9514 76.1424 25.6105Z" fill="#010101"/>
<path d="M56.3673 26.1028C56.2057 26.0018 56.2678 25.7368 56.0689 25.6484C55.9552 25.2744 55.8097 24.9109 55.6339 24.5625C55.6339 24.4994 55.4848 24.4487 55.3978 24.4361C55.2819 24.4298 55.1656 24.4298 55.0497 24.4361C54.9925 24.4268 54.9338 24.4382 54.8839 24.4682C54.8339 24.4982 54.7959 24.5449 54.7763 24.6004C54.5301 25.0732 54.3263 25.5675 54.1673 26.0775C54.0057 26.0775 54.0306 26.2921 53.956 26.4058C53.8814 26.5194 53.7322 26.7213 53.7571 26.9359H54.3289C54.4407 26.9359 54.4283 26.8477 54.478 26.7972C54.5277 26.7467 54.5526 26.5573 54.565 26.431H55.5594C55.6301 26.4201 55.7023 26.4379 55.7604 26.4804C55.8185 26.5228 55.8579 26.5865 55.8701 26.6582C55.9571 26.936 55.9695 26.9359 56.2305 26.9359H56.5288C56.678 26.9359 56.7029 26.9361 56.6407 26.7593C56.4954 26.5681 56.4012 26.3419 56.3673 26.1028ZM55.1244 25.383C55.1244 25.3073 55.0622 25.1432 55.2238 25.1432C55.3853 25.1432 55.3978 25.2441 55.4351 25.383C55.4724 25.5219 55.5594 25.762 55.6339 25.9641H54.9255C54.9012 25.7601 54.9496 25.5538 55.0622 25.383H55.1244Z" fill="#010101"/>
<path d="M69.0701 24.4235H68.7718C68.6724 24.4235 68.5605 24.4236 68.5605 24.5625C68.5605 24.9665 68.5605 25.3873 68.5605 25.825C68.5605 25.9008 68.5605 26.0016 68.4611 26.0143H68.3865C68.1493 25.5731 67.8792 25.151 67.5786 24.7517C67.5786 24.7517 67.4294 24.752 67.33 24.6762C67.2305 24.6005 67.33 24.676 67.33 24.777C67.33 24.878 67.33 24.7141 67.33 24.6762C67.33 24.6131 67.417 24.4993 67.33 24.4867H66.8825C66.7582 24.4867 66.7085 24.4868 66.7085 24.6509V26.8983C66.7085 26.9993 66.7086 27.0496 66.8453 27.037H67.0938C67.3424 27.037 67.4045 26.9612 67.4045 26.7087C67.4045 26.4562 67.4045 26.2039 67.4045 25.9514C67.4045 25.6989 67.4045 25.6484 67.4045 25.6231C67.4045 25.5979 67.5413 25.7872 67.6407 25.8756C67.8107 26.0262 67.9537 26.2055 68.0633 26.4057C68.1647 26.5716 68.2954 26.7173 68.4486 26.8351C68.5481 27.1381 68.7967 27.0244 68.9831 27.037C69.1695 27.0496 69.2566 27.0371 69.2566 26.7846V24.6257C69.2317 24.3858 69.0701 24.4361 69.0701 24.4235Z" fill="#010101"/>
<path d="M29.6938 2.46805H25.5672C25.4802 2.46805 25.3311 2.36714 25.2938 2.56915V21.8355C25.2938 21.8355 25.3808 21.9237 25.4181 21.9237H30.2283C30.3277 21.9237 30.4768 22.0249 30.5141 21.8355V2.46805C30.5141 2.46805 30.4271 2.37957 30.3774 2.36694L29.6938 2.46805Z" fill="#010101"/>
<path d="M59.9842 25.3453C59.9842 25.2443 59.9221 25.143 59.8848 25.042C59.8475 24.941 59.8848 24.9159 59.8848 24.8907C59.779 24.7605 59.6486 24.6531 59.5013 24.5751C59.354 24.497 59.1927 24.4497 59.0271 24.436H57.5729C57.4238 24.436 57.3741 24.4362 57.3741 24.6256C57.3741 25.3579 57.3741 26.0775 57.3741 26.8098C57.3741 26.9865 57.4486 26.999 57.5729 26.9864C58.0328 26.9864 58.4803 26.9864 58.9278 26.9864C59.0795 27.0045 59.2331 26.9756 59.3684 26.9035C59.5037 26.8314 59.6143 26.7197 59.6859 26.5826L59.8848 26.3804C59.9866 26.2336 60.0531 26.0648 60.079 25.8872C60.1049 25.7096 60.0894 25.5281 60.0339 25.3577L59.9842 25.3453ZM58.878 26.4689H57.9831V24.9412L58.0825 24.8401H58.878L59.052 24.9539C59.1635 25.045 59.2535 25.1603 59.3153 25.2914C59.3772 25.4225 59.4093 25.5658 59.4093 25.7112C59.4093 25.8566 59.3772 26.0002 59.3153 26.1313C59.2535 26.2624 59.1635 26.3778 59.052 26.4689C59.052 26.4689 58.9277 26.4562 58.878 26.4562V26.4689Z" fill="#010101"/>
<path d="M74.9367 24.6383C74.9367 24.5373 74.9367 24.4235 74.8124 24.4235C74.0667 24.4235 73.3209 24.4235 72.5752 24.4235C72.426 24.4235 72.426 24.512 72.426 24.613C72.426 24.714 72.426 24.8528 72.5876 24.8402H73.3333V26.8225C73.3333 26.8225 73.3333 26.9738 73.4079 26.9738C73.5942 26.9864 73.781 26.9864 73.9673 26.9738C73.9673 26.9738 73.9673 26.873 73.9673 26.8225C73.9673 26.1533 73.9673 25.4967 73.9673 24.8402H74.7628C74.9865 24.8276 74.9243 24.7141 74.9367 24.6383Z" fill="#010101"/>
<path d="M40.4079 6.7985L39.8114 6.1925C39.8078 6.27304 39.8208 6.35347 39.8495 6.42861C39.8783 6.50376 39.9221 6.57196 39.9783 6.62897C40.0344 6.68597 40.1015 6.73047 40.1755 6.75966C40.2495 6.78885 40.3287 6.80208 40.4079 6.7985Z" fill="#010101"/>
<path d="M48.2385 10.4728H40.1097V14.9672C40.1097 15.0934 40.2215 15.0683 40.2837 15.0683H42.4215C42.4215 15.1945 42.4215 15.3082 42.3221 15.4345C42.2226 15.5607 42.2475 15.6618 42.2227 15.7754L42.1108 15.8765L41.9243 16.1668H41.8125L41.713 16.2676L41.6136 16.3687C41.6136 16.3687 41.5017 16.3687 41.4644 16.3687C41.0697 16.6247 40.599 16.7319 40.1345 16.6717C39.8346 16.6611 39.5429 16.5697 39.2893 16.4067C38.9828 16.2128 38.7168 15.9596 38.5062 15.6616L38.4068 15.5608C38.4068 15.5608 38.4068 15.4471 38.4068 15.4092C38.0326 14.8299 37.8219 14.1573 37.7978 13.4648C37.7978 13.4648 37.7357 13.4648 37.7108 13.4648V13.528V13.4522V12.1897C37.7108 12.0129 37.7108 11.7984 37.7108 11.6848C37.7108 11.5711 37.7108 11.1796 37.8599 10.9271C38.0144 10.4675 38.1928 10.0165 38.3944 9.57612C38.6924 8.99305 39.1929 8.54314 39.7989 8.31358C40.1524 8.16434 40.5404 8.12073 40.9175 8.18751C41.2687 8.26528 41.5964 8.4272 41.8732 8.66004C42.15 8.89288 42.3679 9.18994 42.5085 9.52588C42.5831 9.69001 42.5831 9.68978 42.7322 9.61403L46.5481 7.66998C46.7803 7.54667 47.0213 7.44116 47.269 7.35435C47.4927 7.35435 47.4306 7.16495 47.4306 7.02607H46.8588C46.8588 6.83669 46.8588 6.63443 46.8588 6.44505V5.73826L46.6599 5.53606V5.43526L46.1503 5.01853L45.6904 5.53606C45.8147 5.71281 45.939 5.87714 46.0384 6.05389C46.1785 6.30324 46.3453 6.53586 46.5356 6.74804C46.5514 6.78378 46.5595 6.82262 46.5595 6.86178C46.5595 6.90095 46.5514 6.93978 46.5356 6.97552C46.5356 7.1144 46.4237 7.05104 46.3492 7.05104H45.9017C45.4667 7.05104 45.4667 7.05105 45.243 6.74804C45.2116 6.74501 45.1812 6.73579 45.1534 6.72061C45.1257 6.70543 45.1012 6.68483 45.0814 6.65989C45.1261 6.70403 45.1821 6.73441 45.243 6.74804C45.243 6.48291 45.1187 6.3695 44.9447 6.34425C44.7831 6.34425 44.8452 6.2178 44.8328 6.14205C44.8328 5.96529 44.7458 5.81394 44.6837 5.66243C44.6215 5.51093 44.5967 5.66243 44.5594 5.66243C44.5221 5.66243 44.5594 5.66251 44.5594 5.73826C44.6362 5.85752 44.6671 6.0011 44.6463 6.14205C44.6525 6.2598 44.6525 6.37785 44.6463 6.4956C44.6463 6.68498 44.6463 6.9377 44.6463 7.02607C44.6463 7.11445 44.2983 7.02607 44.1243 7.02607C44.0416 7.01974 43.9585 7.01974 43.8757 7.02607C43.7017 7.02607 43.6893 6.95011 43.6893 6.81123C43.6893 6.67235 43.6893 6.20525 43.6893 5.90224H43.4532C43.3537 5.90224 43.3164 5.90235 43.2916 6.01598C43.2515 6.14997 43.1929 6.27757 43.1176 6.3948C43.1855 6.27792 43.2438 6.1554 43.2916 6.02862C43.2916 5.91499 43.3662 5.90224 43.4532 5.90224C43.5359 5.90858 43.619 5.90858 43.7018 5.90224V3.14999C43.5278 3.14999 43.4656 3.1498 43.4904 2.94779C43.5153 2.74578 43.1549 2.75842 42.9933 2.64479L42.7696 2.58191C42.7118 2.57478 42.6533 2.57478 42.5955 2.58191C42.521 2.58191 42.4091 2.58191 42.3469 2.58191C42.2848 2.58191 42.521 2.58191 42.5955 2.58191C42.5955 2.37991 42.3843 2.51869 42.2972 2.48081H42.1853V2.37971H42.0859C41.8746 2.37971 41.6633 2.37994 41.4272 2.30419C41.3073 2.24884 41.1752 2.22646 41.0442 2.23977C40.9132 2.25307 40.788 2.30135 40.6814 2.37971C40.4825 2.37971 40.2961 2.20315 40.0848 2.26628C40.0848 2.34203 40.0848 2.45555 40.0102 2.46817C40.1221 2.46817 40.0724 2.34204 40.0848 2.27892C40.0972 2.21579 39.9605 2.15256 39.9108 2.17781C39.7382 2.26673 39.5437 2.30196 39.3515 2.27892L38.7922 2.37971L38.1582 2.544C37.4827 2.76094 36.8451 3.08478 36.269 3.50354C36.1606 3.59039 36.0607 3.6876 35.9707 3.7939C35.7096 3.7939 35.6102 4.02124 35.4735 4.198L34.9763 4.70289C34.9824 4.73203 34.9824 4.76222 34.9763 4.79136C34.9763 4.79136 34.9763 4.79127 34.9763 4.70289C34.9763 4.61451 34.5786 4.94266 34.5786 5.22042C34.5448 5.22459 34.5122 5.23619 34.4832 5.25433C34.4542 5.27246 34.4294 5.29675 34.4105 5.32553C34.3916 5.35431 34.3791 5.38692 34.3738 5.42108C34.3685 5.45525 34.3705 5.49012 34.3797 5.52342C34.3457 5.52789 34.3128 5.53965 34.2834 5.55763C34.254 5.57561 34.2285 5.59944 34.2087 5.62791C34.1888 5.65638 34.175 5.68868 34.1681 5.72285C34.1611 5.75702 34.1612 5.79229 34.1684 5.82642C33.9447 5.92742 33.9074 6.12961 33.8701 6.33162C33.8371 6.33762 33.8057 6.35027 33.7777 6.36891C33.7497 6.38755 33.7257 6.41182 33.7071 6.44012C33.6886 6.46841 33.6758 6.50008 33.6697 6.53351C33.6635 6.56694 33.664 6.6014 33.6713 6.63461C33.6308 6.69796 33.5974 6.76561 33.5718 6.83651C33.3978 6.96276 33.3978 7.18992 33.3232 7.36668C33.1356 7.66276 33.0483 8.01303 33.0746 8.36413C32.9254 8.36413 33.0001 8.49058 32.9752 8.56633C32.9752 8.56633 32.8882 8.65453 32.8882 8.6924C32.8882 8.73028 32.8882 9.0082 32.8882 9.17233V9.27312C32.8882 9.27312 32.8012 9.34899 32.8012 9.38686C32.7888 9.48325 32.7888 9.58083 32.8012 9.67722C32.6147 9.67722 32.739 9.87921 32.7017 9.98022V10.4728C32.5029 10.4728 32.7017 10.6874 32.6023 10.7758C32.6023 10.9652 32.5153 11.1545 32.5029 11.3439C32.5029 12.0761 32.5029 12.821 32.5029 13.5659C32.5019 13.695 32.5363 13.8218 32.6023 13.9321C32.6023 13.9321 32.7017 13.9321 32.7017 13.8563V10.8513V13.8437C32.7017 13.8437 32.7017 13.9069 32.6023 13.9321C32.596 14.0288 32.596 14.1258 32.6023 14.2225C32.6023 14.2225 32.6644 14.298 32.7017 14.3359V14.7274C32.7113 15.0813 32.7785 15.4312 32.9006 15.7627C33.0341 16.3946 33.2385 17.0088 33.5097 17.5934C33.7186 18.0538 33.9552 18.5008 34.2182 18.9317C34.518 19.3807 34.8548 19.8031 35.2249 20.1943C35.5241 20.4933 35.8532 20.7598 36.2068 20.9895L36.3435 21.078C36.7581 21.3974 37.2195 21.6489 37.7108 21.823L38.5187 22.0881C38.9193 22.2239 39.3392 22.2921 39.7616 22.29H41.0045C41.198 22.3222 41.3953 22.3222 41.5888 22.29C41.7503 22.2142 41.9492 22.29 42.0486 22.29C42.1307 22.2271 42.2319 22.1958 42.3345 22.2015H42.521C42.578 22.1415 42.6485 22.0966 42.7264 22.0702C42.8043 22.0438 42.8873 22.0369 42.9684 22.0502C42.9684 22.0502 42.9684 21.9617 43.043 21.9617C43.6292 21.703 44.1909 21.3903 44.7209 21.0274C45.0689 20.5729 45.6283 20.3583 45.9639 19.8281C46.1503 19.5124 46.4362 19.2347 46.6475 18.9065C46.9882 18.433 47.2642 17.9149 47.4678 17.3662C47.4678 17.2652 47.3809 17.1011 47.5673 17.0632C47.5494 16.9166 47.5847 16.7684 47.6667 16.6465C47.6667 16.5707 47.6667 16.4572 47.7786 16.4446V16.3435C47.7786 16.2425 47.6792 16.091 47.878 16.0405C47.8718 15.9438 47.8718 15.8468 47.878 15.7501C47.878 15.7501 47.9402 15.6742 47.9775 15.6364V15.5356C47.9775 15.3967 47.9775 15.2704 47.9775 15.1441C47.9775 15.0179 47.9774 15.0556 48.0769 15.0177C48.1763 14.9799 47.9774 14.7652 48.1763 14.7147C48.1763 14.6264 48.1763 14.5002 48.1763 14.4749C48.1763 14.4497 48.1763 14.2224 48.1763 14.1087V13.4016H48.2758V12.2781C48.2758 12.2781 48.2012 12.354 48.1888 12.3919C48.1763 12.4297 48.2509 12.316 48.2758 12.2655V11.7606L48.2385 10.4728ZM32.6768 10.2327C32.6953 10.1888 32.7048 10.1417 32.7048 10.094C32.7048 10.0462 32.6953 9.99884 32.6768 9.95494C32.6931 10.0009 32.6983 10.0502 32.6918 10.0986C32.6853 10.1469 32.6674 10.1928 32.6396 10.2327H32.6768ZM32.8136 9.43741V9.34895C32.8136 9.34895 32.8136 9.34903 32.8136 9.43741ZM32.9379 8.88197C33.0081 8.75549 33.0302 8.60716 33 8.46523C33.0204 8.61191 32.9849 8.76105 32.9006 8.88197H32.9379ZM33.6215 6.7986C33.6215 6.7986 33.5842 6.78597 33.5842 6.7986H33.6215ZM33.9074 6.16733C33.9074 6.16733 34.0068 6.16733 34.0192 6.16733C34.0317 6.16733 34.0814 6.02855 34.1063 5.95279C34.1311 5.87704 34.0441 6.1042 34.0192 6.16733C33.9944 6.23045 33.9198 6.1547 33.8701 6.16733H33.9074ZM34.8644 4.90479C34.8703 4.88417 34.8703 4.86222 34.8644 4.8416V4.90479ZM39.4136 4.22297C39.5006 3.97046 39.5628 3.7055 39.6373 3.45299C39.5628 3.71812 39.5006 3.98308 39.4261 4.22297C39.359 4.54769 39.359 4.88306 39.4261 5.20778C39.4331 5.32061 39.4583 5.43151 39.5006 5.53606C39.46 5.42581 39.4309 5.31154 39.4136 5.19515C39.3288 4.86527 39.316 4.52077 39.3763 4.18536L39.4136 4.22297ZM39.6373 6.14205C39.6448 6.16222 39.6565 6.18075 39.6715 6.19599C39.6865 6.21123 39.7045 6.22292 39.7244 6.23051C39.7244 6.23051 39.6249 6.16726 39.6 6.10414L39.6373 6.14205ZM41.3153 7.24061C41.452 7.24061 41.5887 7.24061 41.7255 7.24061H41.3153ZM42.0238 7.13951C42.0465 7.14187 42.0695 7.13723 42.0895 7.12594C42.1095 7.11465 42.1256 7.0972 42.1357 7.07632C42.1184 7.09872 42.0935 7.11387 42.0659 7.11855C42.0383 7.12322 42.01 7.1171 41.9865 7.10159L42.0238 7.13951ZM40.4452 2.56927L40.5944 2.49345C40.5532 2.53562 40.5017 2.56617 40.4452 2.58191C40.3333 2.58191 40.1966 2.65755 40.1594 2.78381C40.1594 2.65755 40.2837 2.60715 40.408 2.56927H40.4452ZM40.1469 2.93546C40.1469 2.93546 40.2215 2.93546 40.2464 2.93546C40.5455 2.67523 40.9218 2.52401 41.3153 2.50609C41.5656 2.51754 41.8149 2.54716 42.0611 2.59455L42.4464 2.73326C42.4867 2.76789 42.5241 2.80601 42.5582 2.847C42.6184 2.91647 42.685 2.97977 42.7571 3.03625L42.8565 3.13736C43.0554 3.13736 43.0554 3.13736 43.0554 3.45299V3.55409C43.1424 3.55409 43.2791 3.55391 43.2543 3.68016C43.2294 3.80641 43.13 3.74336 43.0554 3.75599C42.8674 3.79885 42.687 3.87116 42.521 3.97052C42.3345 4.12202 42.2102 4.04627 42.0611 3.97052C41.9119 3.89477 42.0611 3.78125 41.9492 3.76863C41.8921 3.64481 41.7921 3.54664 41.6683 3.49306C41.5444 3.43948 41.4055 3.43429 41.278 3.47827C41.0916 3.47827 40.8181 3.55409 40.8554 3.86973C40.7347 3.98949 40.6436 4.13641 40.5896 4.29879C40.5356 4.46118 40.5202 4.6344 40.5447 4.80399C40.5447 4.905 40.5447 5.01862 40.5447 5.11963C40.5447 5.22063 40.6068 5.11939 40.6317 5.19515C40.6565 5.2709 40.5571 5.62459 40.843 5.70035C40.843 6.04123 41.1164 6.05364 41.3402 6.10414H41.539C41.6136 6.10414 41.7379 6.10435 41.7379 6.00334L41.9367 5.80114C41.9973 5.77996 42.0524 5.74568 42.0983 5.70035C42.2102 5.49834 42.1605 5.39735 41.9367 5.39735H41.3402C41.4103 5.09543 41.4438 4.78592 41.4396 4.47572H43.2418V4.77872C43.2755 5.2892 43.1494 5.79731 42.8814 6.23051C42.8743 6.29344 42.8743 6.35685 42.8814 6.41977L42.5707 6.72308C42.5387 6.71578 42.5056 6.71515 42.4735 6.72154C42.4413 6.72792 42.4108 6.74107 42.384 6.76007C42.3571 6.77906 42.3344 6.8035 42.3174 6.83188C42.3003 6.86027 42.2892 6.892 42.2848 6.92497C42.434 6.92497 42.4961 6.92497 42.5334 6.92497C42.5707 6.92497 42.434 6.92497 42.2848 6.92497H42.1853L41.8746 7.02607H41.1786L40.4701 6.82387C40.3902 6.82734 40.3106 6.81409 40.236 6.78503C40.1614 6.75597 40.0934 6.71176 40.0363 6.65496C39.9792 6.59815 39.9342 6.53009 39.9041 6.45491C39.8739 6.37973 39.8593 6.29903 39.8611 6.21788C39.8611 5.94012 39.6622 5.72565 39.6249 5.43526C39.5781 5.01576 39.5781 4.59223 39.6249 4.17272C39.6249 3.89497 39.8486 3.66757 39.8611 3.40244C39.8672 3.35636 39.8672 3.30951 39.8611 3.26342V3.41508C39.927 3.39718 39.984 3.35481 40.0208 3.29641C40.0576 3.238 40.0715 3.16777 40.0599 3.09944L40.1469 2.93546ZM39.774 2.31652C39.5306 2.28468 39.2842 2.28468 39.0408 2.31652L38.6057 2.41762C38.9754 2.3255 39.3569 2.29134 39.7368 2.31652H39.774ZM35.7345 3.98316C35.7345 3.98316 35.66 3.98316 35.6227 3.98316H35.7345C35.793 3.94249 35.8436 3.89127 35.8836 3.83181C35.8327 3.89508 35.7692 3.94655 35.6972 3.98316H35.7345ZM37.6735 13.4901C37.6735 13.4901 37.6735 13.4902 37.6735 13.5533C37.6605 13.6327 37.6605 13.7137 37.6735 13.7931C37.6454 13.7153 37.6246 13.6351 37.6113 13.5533C37.6131 13.5302 37.6218 13.5081 37.6362 13.4901H37.6735ZM37.947 14.7527C38.0588 14.9925 38.1707 15.2325 38.2577 15.4724C38.1334 15.283 37.9966 15.0936 37.9096 14.8032L37.947 14.7527ZM39.1899 16.4572C39.4409 16.6173 39.7128 16.7406 39.9978 16.8234C39.701 16.7657 39.4155 16.6591 39.1526 16.5078L39.1899 16.4572ZM42.0113 16.1289C42.0472 16.1437 42.0873 16.1437 42.1232 16.1289C42.1055 16.1506 42.0821 16.1669 42.0557 16.1758C42.0293 16.1847 42.0011 16.186 41.9741 16.1795L42.0113 16.1289ZM42.2848 15.7248C42.2848 15.7248 42.3842 15.7248 42.3966 15.7248C42.3966 15.7248 42.2848 15.7754 42.2475 15.7754L42.2848 15.7248ZM48.1763 11.3059C48.1763 11.3059 48.1763 11.3818 48.2633 11.4197C48.3503 11.4576 48.139 11.3943 48.139 11.3059H48.1763Z" fill="#010101"/>
<path d="M46.2249 4.04621C46.2373 4.19745 46.2373 4.34962 46.2249 4.50086C46.205 4.62213 46.1716 4.74045 46.1254 4.8541L45.3797 4.22283C45.3766 4.11462 45.34 4.01021 45.2754 3.92415C45.2107 3.83809 45.1212 3.77485 45.0193 3.74321L44.7085 3.65475L43.6769 2.8595H45.5785C45.7529 2.93473 45.9096 3.04661 46.0384 3.18777C46.1196 3.26255 46.1839 3.35411 46.2269 3.45655C46.2698 3.55899 46.2903 3.66984 46.287 3.78113C46.2561 3.86672 46.2353 3.95566 46.2249 4.04621Z" fill="white"/>
<path d="M45.33 4.1979C45.3069 4.32162 45.2422 4.43323 45.147 4.51384C45.0518 4.59445 44.9318 4.63887 44.8079 4.6396C44.696 4.6396 44.6091 4.63976 44.6215 4.48826C44.6339 4.33675 44.6215 4.1472 44.6215 3.9957C44.6215 3.84419 44.6215 3.75579 44.6215 3.65479" stroke="white" stroke-width="0.013361" stroke-miterlimit="10"/>
</g>
<defs>
<clipPath id="clip0_150_6">
<rect width="77" height="25" fill="white" transform="translate(11 2)"/>
</clipPath>
</defs>
</svg>
