<svg width="100" height="30" viewBox="0 0 100 30" fill="none" xmlns="http://www.w3.org/2000/svg">
<g clip-path="url(#clip0_150_7)">
<path d="M73.2138 13.5977V12.3202H74.003L73.2138 9.93044V8.15551H74.4177L76.7447 14.9828H74.873L74.4177 13.5879L73.2138 13.5977ZM83.7154 8.15551V14.9828H82.2282L79.3043 10.3793V10.6036C79.3043 10.7109 79.3043 10.8085 79.3043 10.8865V14.9828H77.9284V8.15551H79.8203L82.3698 12.1933C82.3698 11.9982 82.3698 11.8324 82.3698 11.7349V8.15551H83.7154ZM91.4449 11.3351V14.9926H90.6456C90.5748 14.739 90.4939 14.4854 90.3927 14.2025C90.1473 14.4887 89.8377 14.7174 89.4871 14.8711C89.1366 15.0249 88.7543 15.0996 88.3693 15.09C87.9379 15.1047 87.5088 15.0244 87.1144 14.8554C86.72 14.6864 86.3707 14.4331 86.0929 14.1146C85.5433 13.4036 85.2615 12.5332 85.2937 11.647C85.2407 10.6963 85.5501 9.75973 86.1637 9.01369C86.4534 8.6885 86.8165 8.43148 87.2251 8.26243C87.6337 8.09337 88.077 8.01676 88.5211 8.03836C89.2528 8.00739 89.9715 8.2327 90.5445 8.67247C91.054 9.1177 91.3836 9.72229 91.4753 10.3793L89.806 10.5938C89.6744 9.75505 89.2495 9.34539 88.5312 9.34539C88.3122 9.33678 88.0951 9.38684 87.904 9.49016C87.7129 9.59348 87.5552 9.74586 87.4486 9.93044C87.1851 10.4517 87.0633 11.0291 87.0946 11.6082C87.0538 12.1696 87.1876 12.7298 87.479 13.2174C87.6012 13.3943 87.7689 13.5377 87.9657 13.6334C88.1626 13.7291 88.3818 13.774 88.602 13.7637C88.9032 13.7692 89.1969 13.6725 89.4316 13.4905C89.5645 13.3812 89.6679 13.2425 89.7331 13.0862C89.7983 12.93 89.8233 12.7609 89.806 12.5933H88.3997V11.3156L91.4449 11.3351ZM98.5775 9.4623H95.0061V10.867H97.8187V12.1542H95.0061V13.6465H98.5775V14.9926H93.2356V8.16528H98.5775V9.4623ZM73.2138 8.15551V9.93044L72.4146 12.3202H73.2138V13.5977H71.9896L71.5242 14.9926H69.9864L72.374 8.16528L73.2138 8.15551ZM65.9395 12.2909V11.1303C66.1483 11.1269 66.3558 11.0973 66.5567 11.0425C66.7253 10.9984 66.8723 10.8982 66.9715 10.7596C67.0947 10.6064 67.159 10.4168 67.1536 10.2231C67.1613 10.035 67.0965 9.85079 66.9715 9.70614C66.8763 9.56995 66.7321 9.47261 66.5668 9.43301C66.3603 9.39419 66.1499 9.37802 65.9395 9.38444V8.15551H66.2329C66.7265 8.14016 67.2192 8.20608 67.6898 8.35053C68.0672 8.48774 68.3897 8.73706 68.6105 9.0625C68.8437 9.40041 68.967 9.79768 68.9646 10.2036C68.9783 10.5936 68.8606 10.9774 68.6289 11.2975C68.3972 11.6175 68.0642 11.8566 67.6797 11.9787L69.0455 14.9926H67.1232L65.9699 12.2909H65.9395ZM58.21 8.05789C58.6676 8.03164 59.1248 8.11602 59.5401 8.30338C59.9553 8.49075 60.3154 8.77525 60.5876 9.13084C61.1111 9.84658 61.3872 10.7032 61.3767 11.5789C61.4072 12.4786 61.1141 13.3605 60.5471 14.0756C60.2632 14.41 59.8996 14.6735 59.4874 14.8433C59.0752 15.0131 58.6266 15.0842 58.1797 15.0509V13.7441C59.07 13.7441 59.5152 13.0224 59.5152 11.5399C59.5152 10.0574 59.07 9.32586 58.1797 9.32586V8.08717L58.21 8.05789ZM65.9395 8.15551V9.38444H64.7153V11.1303H65.9395V12.2909H64.7153V14.9926H62.955V8.16528L65.9395 8.15551ZM58.1898 15.09C57.7477 15.1201 57.3045 15.0473 56.8977 14.8776C56.4909 14.7078 56.1325 14.4461 55.8528 14.1146C55.2952 13.3916 55.0065 12.5088 55.0333 11.6082C54.9932 10.7073 55.2873 9.82212 55.8628 9.11132C56.1484 8.78399 56.5094 8.52532 56.9168 8.35601C57.3243 8.1867 57.7671 8.11141 58.21 8.13599V9.44278C57.2995 9.44278 56.8543 10.184 56.8543 11.6568C56.8543 13.1295 57.2995 13.8611 58.21 13.8611V15.1681L58.1898 15.09Z" fill="#010101"/>
<path d="M72.2224 22.9999V21.7417C73.1026 21.7417 73.5579 21.0004 73.5579 19.5277C73.5579 18.0549 73.1026 17.3234 72.2224 17.3234V16.0164C72.6766 15.986 73.1314 16.0678 73.5438 16.2538C73.9562 16.4398 74.3127 16.724 74.5796 17.0796C75.115 17.7864 75.3958 18.6428 75.3789 19.5179C75.4147 20.4197 75.1251 21.3056 74.5594 22.0246C74.2787 22.368 73.9157 22.6406 73.5015 22.8189C73.0874 22.9973 72.6346 23.0762 72.1819 23.0487L72.2224 22.9999ZM78.748 21.5467H81.692V22.8827H76.9572V16.0554H78.7277V21.5369L78.748 21.5467ZM88.1974 17.5575L86.7102 18.0159C86.6231 17.7644 86.4513 17.5482 86.2222 17.4015C85.993 17.2549 85.7197 17.1863 85.4455 17.2065C84.7373 17.2065 84.3832 17.421 84.3832 17.8208C84.3843 17.9005 84.403 17.9791 84.4379 18.0513C84.4728 18.1236 84.5231 18.188 84.5855 18.2402C84.8509 18.3957 85.1474 18.4954 85.4556 18.5328C86.0292 18.6198 86.5921 18.7635 87.1351 18.9619C87.4956 19.1084 87.8072 19.3482 88.0355 19.6546C88.2721 19.9621 88.3997 20.3347 88.3997 20.7175C88.3984 21.0228 88.3281 21.324 88.1935 21.6002C88.059 21.8765 87.8635 22.1213 87.6207 22.3172C86.962 22.8122 86.137 23.0553 85.3039 22.9999C84.6182 23.0194 83.9409 22.8503 83.3513 22.5122C83.0847 22.3562 82.8527 22.1508 82.6687 21.9081C82.4846 21.6654 82.3522 21.3903 82.2788 21.0981L83.8976 20.7664C83.9855 21.0803 84.1892 21.3526 84.4704 21.5321C84.7517 21.7117 85.0911 21.7862 85.4253 21.7417C85.74 21.7629 86.054 21.6915 86.3257 21.5369C86.4125 21.479 86.4835 21.4016 86.5328 21.3116C86.5821 21.2217 86.6082 21.1217 86.609 21.02C86.6133 20.9263 86.5911 20.8331 86.5448 20.7506C86.4985 20.6682 86.4297 20.5995 86.3459 20.5518C86.0264 20.4005 85.6855 20.2953 85.3342 20.2396C84.6091 20.1475 83.9163 19.8937 83.3108 19.4984C83.1084 19.333 82.9491 19.1242 82.8454 18.8888C82.7418 18.6534 82.6967 18.398 82.7139 18.1428C82.7061 17.8504 82.7666 17.5602 82.891 17.2934C83.0153 17.0267 83.2003 16.7902 83.4322 16.6017C83.9813 16.1703 84.6774 15.9514 85.3848 15.9873C85.9741 15.914 86.572 16.03 87.0859 16.3174C87.5999 16.6048 88.0012 17.0475 88.2277 17.577L88.1974 17.5575ZM90.9593 16.075V16.3676H90.5749V17.4989H90.2107V16.3676H89.7858V16.075H90.9593ZM91.9003 17.4989L91.5158 16.3383V17.4989H91.1921V16.075H91.7688L92.052 16.9334L92.3353 16.075H92.9019V17.4989H92.5376V16.3383L92.1532 17.4989H91.9003ZM72.2224 15.9678V17.2746C71.322 17.2746 70.8667 18.0159 70.8667 19.4789C70.8667 20.9418 71.322 21.6734 72.2224 21.6929V22.9999C71.7737 23.0223 71.3261 22.9401 70.9175 22.7601C70.5089 22.5801 70.1513 22.3076 69.8752 21.966C69.3176 21.2393 69.029 20.3531 69.0557 19.4496C69.021 18.5508 69.3186 17.6695 69.8954 16.9627C70.1785 16.6349 70.5374 16.3758 70.9434 16.2064C71.3493 16.037 71.7909 15.962 72.2325 15.9873L72.2224 15.9678ZM64.6446 22.9999V21.7417C65.5248 21.7417 65.9801 21.0004 65.9801 19.5277C65.9801 18.0549 65.5248 17.3234 64.6446 17.3234V16.0164C65.0988 15.987 65.5532 16.0691 65.9654 16.255C66.3777 16.4409 66.7343 16.7247 67.0019 17.0796C67.5373 17.7864 67.818 18.6428 67.8012 19.5179C67.837 20.4197 67.5474 21.3056 66.9817 22.0246C66.6997 22.3535 66.3409 22.6134 65.9347 22.783C65.5285 22.9525 65.0864 23.0268 64.6446 22.9999ZM60.6483 16.0652V17.421H58.807V22.8827H57.0365V17.421H55.1749V16.0652H60.6483ZM64.6446 15.9678V17.2746C63.7442 17.2746 63.2889 18.0159 63.2889 19.4789C63.2889 20.9418 63.7442 21.6734 64.6446 21.6929V22.9999C64.196 23.0223 63.7484 22.9401 63.3397 22.7601C62.9311 22.5801 62.5736 22.3076 62.2974 21.966C61.7398 21.2393 61.4513 20.3531 61.478 19.4496C61.4432 18.5508 61.7408 17.6695 62.3176 16.9627C62.5976 16.6327 62.954 16.3706 63.3582 16.1978C63.7624 16.025 64.2031 15.9464 64.6446 15.9678Z" fill="#010101"/>
<path fill-rule="evenodd" clip-rule="evenodd" d="M41.5774 22.766V12.6419C40.5657 12.72 39.4528 12.8078 38.4006 12.9053V7.88245H51.1988V12.9639L47.9006 12.7103V22.7855L41.5774 22.766Z" fill="#F36F21"/>
<path fill-rule="evenodd" clip-rule="evenodd" d="M15.4043 22.7757L18.4496 7.78491H24.0949L27.3527 16.6799L30.6306 7.84343H36.1546L39.1493 22.8245H32.8766L32.0167 14.9146L29.1738 22.8245H25.3292L22.3649 14.7098L21.5151 22.7757H15.4043Z" fill="#F36F21"/>
<path fill-rule="evenodd" clip-rule="evenodd" d="M14.6152 22.3466C12.9294 22.7784 11.1894 22.9818 9.44538 22.9512C7.32461 22.8948 5.29272 22.1175 3.70891 20.7567C0.238719 17.6551 1.00763 12.4371 4.22489 9.72566C5.6393 8.60288 7.38424 7.93756 9.21265 7.82381C11.0211 7.71931 12.8343 7.93091 14.5647 8.44815C14.6658 10.2428 14.767 12.0274 14.8783 13.822C12.4198 12.6223 9.81972 11.4032 8.12004 13.822C7.84266 14.2488 7.6955 14.7425 7.6955 15.2462C7.6955 15.7498 7.84266 16.2433 8.12004 16.6701C9.8096 19.284 12.3692 18.1721 14.8277 16.6701C14.7467 18.5623 14.6759 20.4642 14.6152 22.3466Z" fill="#F36F21"/>
<path fill-rule="evenodd" clip-rule="evenodd" d="M30.5801 6L27.3426 14.5927L24.095 6H30.5801Z" fill="#010101"/>
</g>
<defs>
<clipPath id="clip0_150_7">
<rect width="98" height="17" fill="white" transform="translate(1 6)"/>
</clipPath>
</defs>
</svg>
