<svg width="130" height="130" viewBox="0 0 130 130" fill="none" xmlns="http://www.w3.org/2000/svg">
<g clip-path="url(#clip0_63_165)">
<path fill-rule="evenodd" clip-rule="evenodd" d="M20.4628 59.9866L22.2031 81.2337C22.439 83.4158 22.9405 84.8343 23.5968 85.598C23.8603 85.8909 24.2015 86.1053 24.582 86.2171C24.9624 86.3289 25.3669 86.3336 25.75 86.2308C25.8186 86.2238 25.8877 86.2238 25.9564 86.2308H34.4881C34.9547 86.2801 35.4265 86.2172 35.8631 86.0475C36.2997 85.8777 36.6882 85.6063 36.9952 85.2562C37.6588 84.2104 37.983 82.9897 37.9244 81.7574V58.3354C37.8942 58.2289 37.8793 58.1187 37.8801 58.0081V57.9208C37.8453 57.6078 37.7422 57.306 37.578 57.036C37.4138 56.7661 37.1923 56.5345 36.9288 56.3569C36.0212 55.8913 34.999 55.6871 33.9792 55.7677H23.3165C22.8755 55.7428 22.4339 55.8074 22.0192 55.9575C21.6044 56.1077 21.2253 56.3401 20.9052 56.6405C20.3964 57.237 20.2195 58.2698 20.4628 59.8701V59.9793V59.9866ZM88.4579 59.0846C88.4566 58.7272 88.4788 58.37 88.5243 58.0154L84.5718 55.404C84.004 55.033 83.3846 54.6039 82.7579 54.1748C81.6886 53.4474 80.612 52.7198 79.5059 52.0361C79.8952 51.3701 80.2352 50.6774 80.5235 49.9631C81.755 50.6905 82.9275 51.4833 84.0926 52.2908C84.6677 52.6908 85.2428 53.0835 85.8696 53.4982L89.3796 55.8041C89.5578 55.5593 89.7631 55.3347 89.9917 55.1348C91.2026 54.1762 92.7342 53.7012 94.2833 53.8038H104.282C106.377 53.8038 108.08 54.1747 109.26 55.0694C110.572 56.066 111.192 57.5789 110.926 59.7611L108.714 82.3102C108.68 84.0038 108.099 85.6424 107.055 86.9873C106.519 87.5787 105.849 88.0371 105.099 88.3252C104.35 88.6134 103.542 88.7232 102.741 88.6457H93.745C92.5848 88.7331 91.4338 88.3849 90.5226 87.671C89.8272 87.099 89.2705 86.3808 88.893 85.5689H85.7811C86.179 86.6565 86.1998 87.8435 85.8402 88.9439C85.4948 89.9777 84.8453 90.8868 83.9746 91.5553C83.1164 92.2189 82.1015 92.6569 81.025 92.8282C79.9643 93.0084 78.8737 92.8925 77.8763 92.4937C76.8816 93.5839 75.6082 94.3903 74.1893 94.8286C72.8844 95.1715 71.5039 95.1079 70.2369 94.6467C69.1477 95.9275 67.6727 96.8321 66.0264 97.229C64.3196 97.5472 62.5538 97.291 61.0121 96.5016C60.4869 96.9155 59.9063 97.2556 59.2866 97.5126C58.4347 97.861 57.5168 98.0248 56.5951 97.9928C54.7758 98.0294 53.0084 97.3938 51.6399 96.2107C50.5096 95.0986 49.5684 93.8139 48.8525 92.4063L43.8972 83.874H40.048C39.8746 84.8794 39.4655 85.8309 38.8534 86.6527C38.3296 87.3003 37.6515 87.8099 36.8795 88.1361C36.1075 88.4623 35.2656 88.5949 34.429 88.5221H26.0375C25.2731 88.6906 24.4764 88.648 23.7349 88.3991C22.9934 88.1501 22.3359 87.7045 21.8344 87.1111C20.8463 85.9836 20.1752 84.1578 19.8803 81.4665V81.3646L18.1474 60.1757C17.8008 57.8917 18.1474 56.2695 19.1134 55.1639C19.6368 54.6099 20.2737 54.1722 20.9819 53.88C21.6901 53.5877 22.4533 53.4478 23.2207 53.4692H33.9866C35.4546 53.3708 36.9195 53.7022 38.1972 54.422C39.0917 54.9811 39.7455 55.8462 40.0333 56.8515H47.2597C48.9139 55.6787 50.7355 54.7545 52.6649 54.1092C52.9451 54.0292 53.2252 53.9492 53.5128 53.8837C53.8951 54.359 54.3038 54.8132 54.7369 55.244C54.9581 55.4622 55.1867 55.6731 55.4227 55.884C54.722 55.9609 54.0305 56.1047 53.358 56.3132C51.5639 56.9257 49.8735 57.8012 48.3436 58.9101C48.1328 59.0715 47.8732 59.1584 47.6063 59.1573H40.2323V81.5682H44.5314C44.7461 81.5686 44.9567 81.6272 45.14 81.7375C45.3234 81.8478 45.4725 82.0057 45.5711 82.1939L50.8434 91.2644C51.4406 92.4534 52.219 93.545 53.1515 94.5013C54.1195 95.3044 55.3529 95.7288 56.6173 95.6941C57.2132 95.7117 57.8062 95.6052 58.3575 95.3814C58.7104 95.2368 59.0446 95.0512 59.353 94.8286L55.9167 88.4857C55.7727 88.2163 55.7423 87.9017 55.832 87.6102C55.9217 87.3188 56.1244 87.0741 56.396 86.9292C56.5311 86.8579 56.6791 86.8135 56.8315 86.7987C56.9839 86.7839 57.1379 86.7988 57.2845 86.8427C57.431 86.8866 57.5674 86.9586 57.6857 87.0546C57.8041 87.1505 57.902 87.2686 57.9741 87.4019L61.7053 94.2976C62.7679 94.9671 64.0462 95.2197 65.2882 95.0056C66.5303 94.7916 67.646 94.1262 68.4156 93.141L63.0399 84.8124C62.874 84.5557 62.8181 84.2446 62.8845 83.9474C62.9508 83.6501 63.134 83.3909 63.3939 83.2267C63.6541 83.063 63.9695 83.0078 64.2709 83.0733C64.5723 83.1387 64.835 83.3195 65.0014 83.5759L70.672 92.3628C71.5721 92.7543 72.5788 92.8387 73.533 92.6027C74.5367 92.2845 75.4355 91.7069 76.1361 90.9299L70.9743 81.3864C70.8296 81.1163 70.7996 80.8005 70.8909 80.5086C70.9821 80.2167 71.1872 79.9726 71.461 79.8299C71.7348 79.6871 72.0549 79.6574 72.3508 79.7475C72.6467 79.8375 72.8943 80.0398 73.039 80.3099L78.3556 90.1733C79.0396 90.5564 79.8382 90.6903 80.612 90.5516C81.2879 90.4402 81.9245 90.1624 82.4629 89.7441C82.9714 89.3568 83.3534 88.8306 83.5616 88.2311C83.7886 87.4863 83.7255 86.6848 83.3846 85.9836C83.3112 85.8165 83.2808 85.6341 83.2961 85.4526C83.133 85.3837 82.9879 85.2791 82.8716 85.1468C82.7554 85.0145 82.6711 84.8579 82.6252 84.6888L70.9669 63.9363C69.6691 61.7978 68.504 61.754 67.3684 62.4087C66.4798 62.9963 65.6479 63.6635 64.8834 64.4017C64.3746 64.86 63.8585 65.3255 63.4086 65.6674L61.3366 67.355C60.0178 68.4065 58.4156 69.0539 56.7279 69.2172C55.7285 69.3066 54.7213 69.1775 53.7783 68.8389C52.8563 68.5104 52.0428 67.9394 51.426 67.1877C50.7179 66.309 50.2986 65.2382 50.224 64.1181C50.2091 63.9519 50.2311 63.7845 50.2884 63.6275C50.3457 63.4705 50.4369 63.3276 50.5558 63.2089L56.1821 56.6041C56.8032 57.0735 57.4588 57.4966 58.1436 57.8698L52.6132 64.3655C52.703 64.868 52.9184 65.3405 53.24 65.7402C53.5934 66.1714 54.0603 66.4986 54.5894 66.6859C55.2007 66.9021 55.853 66.9817 56.4993 66.9187C57.7273 66.7979 58.892 66.3221 59.8471 65.5511L61.8823 63.8926C62.3911 63.478 62.8187 63.0926 63.2464 62.707C64.1205 61.8578 65.0791 61.0974 66.1075 60.4375C68.3861 59.0918 70.6572 59.0481 72.9063 62.7651L84.417 83.2413H88.3252V59.0774L88.4579 59.0846ZM29.9531 76.382C30.3515 76.3806 30.7415 76.4957 31.0735 76.7131C31.4055 76.9304 31.6647 77.24 31.8182 77.6028C31.9717 77.9655 32.0126 78.365 31.9357 78.7507C31.8589 79.1364 31.6678 79.4909 31.3866 79.7693C31.1053 80.0477 30.7466 80.2376 30.3559 80.3148C29.9652 80.3921 29.5601 80.353 29.1918 80.203C28.8236 80.0529 28.5087 79.7984 28.2872 79.4717C28.0657 79.145 27.9474 78.7609 27.9474 78.3678C27.9474 77.8424 28.1584 77.3383 28.5344 76.9661C28.9103 76.5939 29.4205 76.384 29.9531 76.382ZM98.7372 76.382C99.1357 76.3806 99.5256 76.4957 99.8576 76.7131C100.19 76.9304 100.449 77.24 100.602 77.6028C100.756 77.9655 100.797 78.365 100.72 78.7507C100.643 79.1364 100.452 79.4909 100.171 79.7693C99.8894 80.0477 99.5307 80.2376 99.14 80.3148C98.7493 80.3921 98.3441 80.353 97.9759 80.203C97.6076 80.0529 97.2928 79.7984 97.0712 79.4717C96.8497 79.145 96.7315 78.7609 96.7315 78.3678C96.7315 77.8436 96.9415 77.3408 97.3159 76.9688C97.6902 76.5968 98.1985 76.3859 98.7298 76.382H98.7372Z" fill="white"/>
<path fill-rule="evenodd" clip-rule="evenodd" d="M62.7524 51.2725C62.4436 51.2705 62.1476 51.1504 61.9265 50.9378L57.893 46.9517C57.6759 46.7366 57.5543 46.4452 57.555 46.1417C57.5557 45.8382 57.6786 45.5475 57.8967 45.3333C58.1147 45.1192 58.4101 44.9993 58.7178 45C59.0255 45.0007 59.3203 45.1218 59.5373 45.3369L62.7524 48.5084L73.0759 38.2812C73.2982 38.088 73.5867 37.9857 73.8829 37.995C74.179 38.0042 74.4604 38.1243 74.6699 38.331C74.8794 38.5376 75.0012 38.8153 75.0106 39.1074C75.0199 39.3995 74.9161 39.684 74.7203 39.9033L63.534 50.9378C63.3261 51.1433 63.0466 51.2631 62.7524 51.2725Z" fill="#A57F2D"/>
<path fill-rule="evenodd" clip-rule="evenodd" d="M66.3213 32.1493C68.8196 32.1493 71.2618 32.8801 73.3391 34.2493C75.4163 35.6184 77.0353 37.5643 77.9914 39.8411C78.9474 42.1179 79.1976 44.6234 78.7102 47.0404C78.2228 49.4575 77.0198 51.6776 75.2532 53.4202C73.4867 55.1628 71.2359 56.3496 68.7857 56.8304C66.3354 57.3112 63.7956 57.0644 61.4875 56.1213C59.1794 55.1782 57.2066 53.5812 55.8186 51.5321C54.4306 49.483 53.6898 47.0739 53.6898 44.6095C53.6917 41.3054 55.0232 38.1372 57.3917 35.8009C59.7601 33.4645 62.9718 32.1513 66.3213 32.1493ZM66.3213 31C63.5926 31 60.9252 31.7983 58.6564 33.2937C56.3875 34.7891 54.6192 36.9146 53.5749 39.4014C52.5307 41.8882 52.2575 44.6246 52.7898 47.2645C53.3222 49.9045 54.6362 52.3295 56.5657 54.2328C58.4952 56.1362 60.9535 57.4324 63.6297 57.9575C66.306 58.4826 69.0801 58.2131 71.6011 57.1831C74.1221 56.153 76.2769 54.4086 77.7929 52.1705C79.3089 49.9325 80.118 47.3012 80.118 44.6095C80.118 42.8222 79.7612 41.0526 79.0679 39.4014C78.3745 37.7502 77.3582 36.2498 76.0771 34.9861C74.7959 33.7223 73.275 32.72 71.6011 32.036C69.9272 31.3521 68.1331 31 66.3213 31Z" fill="#A57F2D"/>
</g>
<defs>
<clipPath id="clip0_63_165">
<rect width="93" height="67" fill="white" transform="translate(18 31)"/>
</clipPath>
</defs>
</svg>
