<svg width="173" height="173" viewBox="0 0 173 173" fill="none" xmlns="http://www.w3.org/2000/svg">
<g clip-path="url(#clip0_4_389)">
<path fill-rule="evenodd" clip-rule="evenodd" d="M19.4692 80.1004L21.9205 110.227C22.2528 113.321 22.9592 115.332 23.8836 116.415C24.2548 116.83 24.7355 117.134 25.2714 117.293C25.8072 117.451 26.3771 117.458 26.9166 117.312C27.0133 117.302 27.1107 117.302 27.2074 117.312H39.2251C39.8824 117.382 40.547 117.293 41.162 117.052C41.7771 116.812 42.3243 116.427 42.7567 115.93C43.6914 114.448 44.1481 112.717 44.0655 110.969V77.7592C44.023 77.6081 44.002 77.452 44.0031 77.2951V77.1712C43.9541 76.7275 43.8089 76.2995 43.5776 75.9168C43.3463 75.534 43.0344 75.2057 42.6632 74.9539C41.3847 74.2937 39.9448 74.0041 38.5084 74.1184H23.4889C22.8676 74.0831 22.2456 74.1747 21.6614 74.3876C21.0772 74.6005 20.5431 74.93 20.0923 75.356C19.3756 76.2017 19.1264 77.6662 19.4692 79.9353V80.0901V80.1004ZM115.247 78.8216C115.245 78.3147 115.277 77.8083 115.341 77.3055L109.773 73.6027C108.973 73.0767 108.101 72.4683 107.218 71.8598C105.712 70.8284 104.195 69.7968 102.637 68.8273C103.186 67.883 103.665 66.9008 104.071 65.8881C105.805 66.9194 107.457 68.0436 109.098 69.1884C109.908 69.7557 110.718 70.3125 111.601 70.9004L116.546 74.17C116.796 73.8229 117.086 73.5045 117.408 73.221C119.113 71.8618 121.271 71.1884 123.453 71.3338H137.538C140.488 71.3338 142.887 71.8597 144.549 73.1283C146.398 74.5413 147.27 76.6865 146.896 79.7807L143.78 111.753C143.733 114.155 142.914 116.478 141.443 118.385C140.688 119.224 139.744 119.873 138.688 120.282C137.632 120.691 136.494 120.846 135.367 120.737H122.695C121.06 120.86 119.439 120.367 118.156 119.354C117.176 118.543 116.392 117.525 115.86 116.374H111.477C112.037 117.916 112.066 119.599 111.56 121.159C111.073 122.625 110.159 123.914 108.932 124.862C107.723 125.803 106.294 126.424 104.777 126.667C103.283 126.922 101.747 126.758 100.342 126.193C98.9408 127.738 97.1471 128.882 95.1484 129.503C93.3102 129.989 91.3657 129.899 89.581 129.245C88.0468 131.061 85.9691 132.344 83.6501 132.907C81.2459 133.358 78.7586 132.995 76.587 131.875C75.8472 132.462 75.0293 132.945 74.1564 133.309C72.9564 133.803 71.6634 134.035 70.3652 133.99C67.8025 134.042 65.3129 133.14 63.3852 131.463C61.7931 129.886 60.4673 128.064 59.4589 126.069L52.4789 113.971H47.0568C46.8126 115.396 46.2364 116.745 45.3741 117.911C44.6363 118.829 43.6811 119.551 42.5937 120.014C41.5062 120.476 40.3204 120.665 39.142 120.561H27.3216C26.2449 120.8 25.1227 120.74 24.0782 120.387C23.0338 120.034 22.1075 119.402 21.4011 118.56C20.0093 116.962 19.064 114.373 18.6485 110.557V110.412L16.2076 80.3686C15.7194 77.1301 16.2077 74.83 17.5684 73.2623C18.3056 72.4768 19.2028 71.8561 20.2004 71.4418C21.198 71.0274 22.2729 70.829 23.3539 70.8594H38.5188C40.5866 70.7199 42.65 71.1897 44.4498 72.2103C45.7098 73.0031 46.6307 74.2298 47.0361 75.6552H57.2153C59.5454 73.9922 62.1114 72.6818 64.829 71.7669C65.2237 71.6534 65.6183 71.5399 66.0234 71.4471C66.5619 72.121 67.1376 72.765 67.7477 73.3759C68.0593 73.6853 68.3813 73.9842 68.7137 74.2833C67.7267 74.3924 66.7527 74.5962 65.8053 74.8919C63.2782 75.7604 60.8971 77.0017 58.7421 78.574C58.4451 78.8029 58.0794 78.9262 57.7034 78.9245H47.3165V110.701H53.3722C53.6747 110.702 53.9713 110.785 54.2295 110.941C54.4878 111.098 54.6979 111.322 54.8368 111.588L62.2633 124.45C63.1045 126.135 64.2009 127.683 65.5144 129.039C66.878 130.178 68.6153 130.78 70.3964 130.731C71.2358 130.755 72.0711 130.604 72.8477 130.287C73.3448 130.082 73.8155 129.819 74.2499 129.503L69.4095 120.51C69.2067 120.128 69.1638 119.682 69.2902 119.268C69.4166 118.855 69.7022 118.508 70.0847 118.303C70.275 118.202 70.4834 118.139 70.6981 118.118C70.9129 118.097 71.1297 118.118 71.3362 118.18C71.5426 118.242 71.7347 118.344 71.9014 118.48C72.0681 118.616 72.2061 118.784 72.3075 118.973L77.5634 128.75C79.0602 129.7 80.8607 130.058 82.6103 129.754C84.3598 129.451 85.9315 128.507 87.0155 127.11L79.4434 115.301C79.2096 114.937 79.1309 114.496 79.2244 114.075C79.3179 113.653 79.5759 113.286 79.9419 113.053C80.3084 112.821 80.7528 112.742 81.1773 112.835C81.6018 112.928 81.9719 113.184 82.2063 113.548L90.1938 126.007C91.4617 126.562 92.8798 126.682 94.224 126.347C95.6377 125.896 96.9038 125.077 97.8906 123.975L90.6197 110.443C90.4159 110.06 90.3736 109.613 90.5022 109.199C90.6308 108.785 90.9196 108.439 91.3053 108.236C91.691 108.034 92.1418 107.992 92.5587 108.12C92.9755 108.247 93.3243 108.534 93.5281 108.917L101.017 122.903C101.98 123.446 103.105 123.636 104.195 123.439C105.148 123.281 106.044 122.887 106.803 122.294C107.519 121.745 108.057 120.999 108.35 120.149C108.67 119.093 108.581 117.956 108.101 116.962C107.998 116.725 107.955 116.466 107.976 116.209C107.746 116.111 107.542 115.963 107.378 115.775C107.215 115.588 107.096 115.366 107.031 115.126L90.6093 85.7007C88.7812 82.6685 87.1401 82.6065 85.5405 83.5348C84.2887 84.368 83.117 85.3139 82.0401 86.3607C81.3234 87.0105 80.5963 87.6706 79.9627 88.1553L77.044 90.5482C75.1863 92.0391 72.9295 92.9571 70.5522 93.1885C69.1444 93.3154 67.7258 93.1323 66.3974 92.6522C65.0986 92.1864 63.9527 91.3768 63.0839 90.311C62.0866 89.0651 61.4959 87.5467 61.3909 85.9586C61.3698 85.7229 61.4008 85.4855 61.4815 85.2629C61.5622 85.0402 61.6907 84.8377 61.8582 84.6694L69.7835 75.3044C70.6582 75.97 71.5818 76.5698 72.5464 77.099L64.7562 86.3093C64.8828 87.0219 65.1862 87.6917 65.6391 88.2585C66.137 88.87 66.7946 89.3338 67.54 89.5994C68.401 89.906 69.3199 90.0189 70.2302 89.9295C71.96 89.7582 73.6005 89.0836 74.9459 87.9904L77.8127 85.6388C78.5294 85.0509 79.1318 84.5044 79.7342 83.9578C80.9655 82.7536 82.3157 81.6754 83.7644 80.7398C86.9739 78.8317 90.1731 78.7698 93.3411 84.0401L109.555 113.073H115.06V78.8112L115.247 78.8216ZM32.8371 103.348C33.3984 103.346 33.9477 103.509 34.4153 103.817C34.883 104.125 35.2481 104.564 35.4643 105.079C35.6805 105.593 35.7381 106.159 35.6299 106.706C35.5217 107.253 35.2525 107.756 34.8563 108.151C34.4602 108.545 33.9549 108.815 33.4045 108.924C32.8542 109.034 32.2836 108.978 31.7649 108.765C31.2461 108.553 30.8026 108.192 30.4906 107.729C30.1785 107.265 30.0119 106.721 30.0119 106.163C30.0119 105.418 30.3092 104.704 30.8387 104.176C31.3683 103.648 32.0869 103.35 32.8371 103.348ZM129.727 103.348C130.288 103.346 130.837 103.509 131.305 103.817C131.772 104.125 132.138 104.564 132.354 105.079C132.57 105.593 132.628 106.159 132.519 106.706C132.411 107.253 132.142 107.756 131.746 108.151C131.35 108.545 130.844 108.815 130.294 108.924C129.744 109.034 129.173 108.978 128.654 108.765C128.135 108.553 127.692 108.192 127.38 107.729C127.068 107.265 126.901 106.721 126.901 106.163C126.901 105.42 127.197 104.707 127.725 104.18C128.252 103.652 128.968 103.353 129.716 103.348H129.727Z" fill="#02517D"/>
<path fill-rule="evenodd" clip-rule="evenodd" d="M79.0383 67.7447C78.6033 67.7418 78.1864 67.5715 77.8749 67.27L72.1933 61.6181C71.8875 61.3131 71.7162 60.9 71.7172 60.4697C71.7182 60.0393 71.8913 59.6271 72.1985 59.3235C72.5057 59.0198 72.9217 58.8499 73.3551 58.8508C73.7885 58.8518 74.2038 59.0235 74.5096 59.3285L79.0383 63.8254L93.58 49.3242C93.8931 49.0503 94.2996 48.9052 94.7167 48.9183C95.1338 48.9314 95.5303 49.1017 95.8254 49.3947C96.1205 49.6877 96.292 50.0814 96.3052 50.4956C96.3184 50.9097 96.1721 51.3132 95.8963 51.6241L80.1393 67.27C79.8464 67.5614 79.4527 67.7313 79.0383 67.7447Z" fill="#A57F2D"/>
<path fill-rule="evenodd" clip-rule="evenodd" d="M84.0655 40.6297C87.5846 40.6297 91.0248 41.6659 93.9508 43.6072C96.8768 45.5485 99.1573 48.3076 100.504 51.5359C101.851 54.7642 102.203 58.3167 101.517 61.7439C100.83 65.171 99.1354 68.319 96.647 70.7898C94.1587 73.2607 90.9883 74.9435 87.5368 75.6252C84.0853 76.3069 80.5078 75.9569 77.2566 74.6197C74.0054 73.2825 71.2265 71.0181 69.2714 68.1127C67.3163 65.2073 66.2727 61.7913 66.2727 58.297C66.2755 53.6121 68.151 49.1199 71.4872 45.8072C74.8234 42.4945 79.3474 40.6324 84.0655 40.6297ZM84.0655 39C80.2219 39 76.4646 40.1319 73.2687 42.2523C70.0728 44.3726 67.5818 47.3864 66.1109 50.9124C64.64 54.4385 64.2552 58.3184 65.005 62.0617C65.7549 65.8049 67.6059 69.2433 70.3238 71.9421C73.0417 74.6408 76.5043 76.4788 80.2742 77.2233C84.044 77.9679 87.9515 77.5858 91.5026 76.1252C95.0537 74.6647 98.089 72.1913 100.224 69.0179C102.36 65.8445 103.5 62.1136 103.5 58.297C103.5 55.7629 102.997 53.2537 102.02 50.9124C101.044 48.5712 99.6121 46.4438 97.8075 44.6519C96.0028 42.86 93.8605 41.4388 91.5026 40.469C89.1448 39.4992 86.6177 39 84.0655 39Z" fill="#A57F2D"/>
</g>
<defs>
<clipPath id="clip0_4_389">
<rect width="131" height="95" fill="white" transform="translate(16 39)"/>
</clipPath>
</defs>
</svg>
