<svg width="100" height="30" viewBox="0 0 100 30" fill="none" xmlns="http://www.w3.org/2000/svg">
<g clip-path="url(#clip0_150_8)">
<path d="M15.0001 26.2414V3.66908V3.51945C15.0263 3.29314 15.0729 3.06974 15.1392 2.85182C15.2508 2.45699 15.4326 2.08553 15.6758 1.75549C15.8206 1.55738 15.9767 1.3679 16.1431 1.18762C16.3615 0.971407 16.6091 0.786863 16.8785 0.639458C16.9989 0.560069 17.1252 0.490141 17.2562 0.430216L17.614 0.300535C17.8399 0.210284 18.0775 0.153301 18.3196 0.131195L18.7768 0.0513916H18.9756C19.0816 0.0567774 19.1877 0.0567774 19.2936 0.0513916H75.0214C75.0577 0.0558745 75.0944 0.0558745 75.1307 0.0513916H81.1835L81.6109 0.131195L82.0979 0.23095C82.2271 0.23095 82.3364 0.310549 82.4557 0.350412C82.7142 0.436001 82.9612 0.553245 83.1912 0.69931C83.4207 0.849265 83.6339 1.02297 83.8273 1.21755C84.1175 1.50695 84.3561 1.84401 84.5329 2.21412C84.6418 2.43302 84.7348 2.65943 84.8112 2.89172C84.905 3.19872 84.9552 3.51738 84.9603 3.83842C84.9603 11.2662 84.9603 18.6941 84.9603 26.1219C84.9585 26.5507 84.881 26.9758 84.7316 27.3776C84.5855 27.7366 84.388 28.0724 84.1453 28.3742C83.8295 28.7901 83.4256 29.1305 82.9626 29.3708C82.6702 29.5302 82.3599 29.6538 82.0382 29.7394C81.8494 29.7394 81.6506 29.7992 81.4518 29.8291C81.2083 29.8672 80.9627 29.8903 80.7164 29.8987H20.2577C19.5942 29.9457 18.9275 29.9191 18.2699 29.8192C18.0512 29.8192 17.8227 29.7493 17.6041 29.6895C17.18 29.5542 16.7829 29.3452 16.4312 29.0717C16.1201 28.8446 15.8511 28.5646 15.6362 28.2445C15.2314 27.6794 14.9874 27.0146 14.9304 26.3212C14.9304 26.3212 15.0001 26.2812 15.0001 26.2414ZM49.9951 27.4073H81.0145C81.3779 27.4219 81.7333 27.2973 82.0084 27.0586C82.1715 26.9231 82.3019 26.7522 82.3897 26.5589C82.4775 26.3656 82.5204 26.1547 82.5153 25.9424C82.5153 18.6341 82.5153 11.3259 82.5153 4.01774C82.5139 3.71749 82.4125 3.42649 82.2271 3.19074C82.0914 3.00796 81.9142 2.86012 81.7103 2.75961C81.5063 2.6591 81.2815 2.60872 81.0543 2.61265H19.0651C18.8496 2.60209 18.6345 2.63943 18.4351 2.72214C18.2358 2.80485 18.0571 2.93085 17.9121 3.09099C17.795 3.20265 17.702 3.33724 17.6388 3.48636C17.5755 3.63548 17.5433 3.79608 17.5444 3.95813C17.5494 4.0045 17.5494 4.05117 17.5444 4.09754V26.0222C17.5433 26.2021 17.5736 26.3809 17.6339 26.5504C17.7549 26.846 17.9721 27.0918 18.2501 27.2479C18.4807 27.3956 18.7523 27.4654 19.0253 27.4472C19.2638 27.4472 19.5023 27.4472 19.7508 27.4472L49.9951 27.4073Z" fill="#2F368F"/>
<path d="M42.5309 14.96V6.72829C42.5309 6.30973 42.5309 6.32976 42.9285 6.32976H49.8857C51.4325 6.20167 52.9867 6.46199 54.408 7.08717C56.7337 8.37275 57.2803 11.9405 55.7696 14.0632L55.6504 14.2126C54.7719 15.2009 53.5625 15.832 52.2512 15.9865C52.1618 15.9865 52.1419 16.0464 52.2512 16.1262C52.2744 16.1569 52.3052 16.1808 52.3406 16.1957C52.551 16.3192 52.7534 16.4558 52.9469 16.6045C53.1556 16.7938 53.3942 16.9433 53.6029 17.1227C54.2715 17.7641 54.844 18.4992 55.3024 19.3052L56.674 21.4577L57.3598 22.564C57.5089 22.8032 57.658 23.0423 57.817 23.2715C57.976 23.5007 58.0953 23.7099 57.817 23.7C57.4294 23.7 56.6541 23.7 56.6541 23.7H54.1595C54.1595 23.7 53.8315 23.6502 53.7221 23.4608C52.7283 21.8862 51.6648 20.3915 50.6411 18.8568C50.1262 17.8872 49.3288 17.098 48.3551 16.5945H48.2259C47.5703 16.4766 46.9031 16.4363 46.2381 16.4748H46.1188C46.1019 16.4748 46.0851 16.4783 46.0694 16.4848C46.0538 16.4913 46.0395 16.5007 46.0275 16.5128C46.0155 16.5248 46.0059 16.5391 45.9994 16.5549C45.993 16.5706 45.9896 16.5875 45.9896 16.6045V23.4708C45.9896 23.6701 45.92 23.7399 45.7212 23.7399H44.7274C44.2602 23.7399 43.7932 23.7399 43.326 23.7399C43.1968 23.7399 43.0676 23.7399 42.9285 23.7399H42.7297C42.6717 23.7399 42.6161 23.7168 42.575 23.6756C42.534 23.6345 42.511 23.5788 42.511 23.5207V15.0199L42.5309 14.96ZM48.5639 9.25963H46.2381C45.9797 9.25963 45.9797 9.25965 45.9797 9.52872V13.515C45.9797 13.7044 45.9798 13.7442 46.2084 13.7342H46.6257H48.7527C49.4626 13.7624 50.1737 13.7359 50.8796 13.6547C51.1033 13.6395 51.3258 13.6094 51.5456 13.5649C51.7786 13.5145 51.9985 13.416 52.1915 13.2758C52.2435 13.2272 52.3001 13.1839 52.3605 13.1464C52.5678 13.009 52.7275 12.8105 52.8177 12.5783C52.948 12.2953 53.0287 11.992 53.0562 11.6815C53.0916 11.2533 53.0127 10.8233 52.8276 10.4358C52.6964 10.1824 52.5106 9.96143 52.2837 9.78906C52.0568 9.61669 51.7945 9.49727 51.5157 9.43919C51.2394 9.37052 50.9556 9.33694 50.6709 9.33943C49.9653 9.26967 49.2696 9.25963 48.5639 9.25963Z" fill="#EB2228"/>
<path d="M59.9738 14.9601V6.62888C59.9738 6.32991 59.9737 6.32986 60.2719 6.32986H63.2536C63.2706 6.33112 63.2872 6.33578 63.3024 6.34348C63.3176 6.35119 63.3311 6.3619 63.3422 6.37487C63.3532 6.38784 63.3618 6.40267 63.367 6.41891C63.3723 6.43515 63.3742 6.45225 63.3729 6.46927V13.7543C63.3729 13.824 63.3729 13.9336 63.4326 13.9635C63.4922 13.9934 63.5419 13.8939 63.5916 13.8441L64.7147 12.6083C64.8638 12.4389 64.9929 12.2595 65.152 12.11C65.311 11.9605 65.6986 11.5119 65.9868 11.213C66.275 10.914 66.5435 10.6151 66.8118 10.3062L67.5174 9.51884L68.3921 8.60207L68.9388 7.98408C69.1113 7.7761 69.2971 7.57984 69.4953 7.39626C69.4953 7.39626 69.5748 7.27651 69.6245 7.22668L70.3699 6.42961C70.4094 6.3892 70.4581 6.3589 70.5117 6.34154C70.5654 6.32418 70.6225 6.32018 70.6781 6.32986H74.9021C74.9486 6.3357 74.993 6.35285 75.0313 6.37974C75.0104 6.41769 74.9871 6.45416 74.9617 6.48922L74.3156 7.16707L73.3218 8.21327C73.113 8.42256 72.9143 8.65192 72.7055 8.87117L71.7116 9.86774L70.7178 10.8643L69.8134 11.7611C69.7239 11.8508 69.6544 11.9505 69.5649 12.0502L68.73 12.9173L68.6405 13.0268C68.5809 13.0866 68.5809 13.1364 68.6405 13.2161C68.7002 13.2958 68.9586 13.6548 69.1077 13.884C69.2567 14.1132 69.5251 14.5616 69.7438 14.8805C69.7935 14.9603 69.8432 15.05 69.9028 15.1297L70.2606 15.6778C70.3997 15.8971 70.5488 16.1163 70.6879 16.3455C70.8271 16.5747 71.0358 16.8537 71.1948 17.1129C71.3538 17.372 71.6421 17.8005 71.8707 18.1094C72.0993 18.4184 72.2583 18.7073 72.4471 19.0062C72.636 19.3052 72.8546 19.6441 73.0633 20.0028L74.1665 21.7069L74.7331 22.594L75.2599 23.411C75.2659 23.4473 75.2659 23.4845 75.2599 23.5208C75.2471 23.5748 75.2234 23.6256 75.1903 23.6701H75.1307C74.7332 23.6701 74.3355 23.6701 73.938 23.6701C73.2224 23.6203 72.5167 23.6701 71.811 23.6701C71.5924 23.6701 71.3738 23.6701 71.1551 23.6701C71.0796 23.6793 71.0031 23.6627 70.9382 23.6229C70.8733 23.5832 70.8237 23.5225 70.7973 23.4509C70.7178 23.3014 70.6085 23.162 70.519 23.0125L70.0121 22.1556L69.1673 20.7203C69.1077 20.6107 69.058 20.5013 68.9983 20.4016C68.8393 20.1226 68.6704 19.8534 68.5014 19.5843C68.4987 19.5478 68.4987 19.5111 68.5014 19.4746C68.4849 19.4019 68.4468 19.3359 68.3921 19.2853C68.3126 19.1757 68.253 19.046 68.1734 18.9364L67.8752 18.4184L67.438 17.6907L67.0304 16.9632L66.613 16.2357C66.5036 16.0663 66.4043 15.8869 66.295 15.7075C66.2743 15.6671 66.2474 15.6302 66.2154 15.598C66.1359 15.5283 66.0663 15.5482 66.0067 15.598C65.907 15.7443 65.7903 15.8781 65.6589 15.9966C65.4864 16.1595 65.3238 16.3325 65.1719 16.5148L64.7544 16.9433L63.8897 17.8204C63.7307 17.9798 63.5617 18.1293 63.4127 18.2887C63.3713 18.3383 63.3408 18.3959 63.3232 18.4581C63.3183 18.5178 63.3183 18.5779 63.3232 18.6376V23.4013C63.3246 23.4301 63.3201 23.4588 63.3104 23.486C63.3006 23.5131 63.2856 23.5379 63.2662 23.5592C63.2468 23.5805 63.2235 23.5978 63.1974 23.61C63.1714 23.6223 63.1432 23.6292 63.1144 23.6305H62.8561C62.6275 23.6305 62.3989 23.6305 62.1703 23.6305C61.6833 23.6305 61.1764 23.6305 60.6894 23.6305C60.5602 23.6305 60.431 23.6305 60.2918 23.6305H60.0931C60.0359 23.628 59.9817 23.6042 59.9412 23.5636C59.9007 23.523 59.8769 23.4684 59.8745 23.411V14.9105L59.9738 14.9601Z" fill="#EB2228"/>
<path d="M28.0101 14.9206C28.0115 15.357 28.038 15.7927 28.0895 16.2259C28.1562 17.5384 28.6523 18.7923 29.5009 19.7937C30.1896 20.4686 31.0993 20.8698 32.0608 20.9229C33.0223 20.9761 33.9703 20.6776 34.7288 20.0828C35.024 19.8237 35.2698 19.5132 35.4543 19.166C35.6231 18.8958 35.763 18.6084 35.8718 18.3089C35.9513 18.0199 36.0607 17.7507 36.1402 17.4617C36.1402 17.3521 36.2296 17.3223 36.329 17.3322C36.3752 17.3266 36.4219 17.3266 36.4681 17.3322L37.5216 17.6809L38.3267 17.9203C38.6547 18.02 38.9727 18.1394 39.3206 18.249C39.6685 18.3586 39.5393 18.3387 39.4797 18.5381C39.42 18.7374 39.3206 19.0463 39.2411 19.2955C39.0609 19.7809 38.8415 20.2508 38.5851 20.7005C38.4872 20.8588 38.381 21.0121 38.267 21.1592C38.1875 21.2788 38.108 21.3882 38.0185 21.4979C36.9799 22.7409 35.5163 23.5511 33.9138 23.7701C32.4854 24.0336 31.0124 23.9 29.6545 23.3835C28.2966 22.8669 27.1057 21.9874 26.2111 20.8402C25.3515 19.6379 24.8143 18.2343 24.6507 16.7641C24.4463 15.1401 24.5373 13.4925 24.9191 11.901C25.2645 10.399 26.0503 9.03477 27.1752 7.98425C27.4174 7.74951 27.6764 7.53309 27.9504 7.33658C28.2446 7.13129 28.5536 6.94804 28.8748 6.78842C30.1463 6.15318 31.5606 5.86066 32.9791 5.93928C34.3975 6.01791 35.7712 6.46493 36.9651 7.23682C38.0652 8.00092 38.8828 9.10815 39.2908 10.3862L39.4498 10.8346C39.4498 10.984 39.4498 11.0538 39.3007 11.0937L38.3068 11.3428L37.5713 11.5022L36.9352 11.6718L36.2892 11.8012C36.1997 11.8012 36.1402 11.8013 36.1004 11.6817C35.8862 10.9989 35.4895 10.3877 34.9533 9.91512C34.4171 9.44249 33.7619 9.12627 33.059 9.00078C32.0877 8.83221 31.0884 9.0262 30.2497 9.54578C29.4111 10.0654 28.7912 10.8747 28.507 11.8212C28.1647 12.8179 27.9966 13.8665 28.0101 14.9206Z" fill="#EB2228"/>
</g>
<defs>
<clipPath id="clip0_150_8">
<rect width="70" height="30" fill="white" transform="translate(15)"/>
</clipPath>
</defs>
</svg>
