<svg width="100" height="30" viewBox="0 0 100 30" fill="none" xmlns="http://www.w3.org/2000/svg">
<g clip-path="url(#clip0_150_10)">
<path fill-rule="evenodd" clip-rule="evenodd" d="M90.4136 4.70191H87.5842C87.2624 4.70191 87.207 4.81627 87.207 5.11327V14.0577H87.0074C86.3638 12.527 84.4887 8.0717 83.5456 5.80992C83.0241 4.61049 82.8466 4.66761 80.7273 4.66761H77.3321C77.0103 4.66761 76.9549 4.78196 76.9549 5.07896V17.4389C76.9549 17.793 77.0103 17.8499 77.3321 17.8499H80.1615C80.4943 17.8499 80.5498 17.8501 80.5498 17.4389V8.48304H80.7273C81.4818 10.2879 83.2349 14.4573 84.178 16.6848C84.7217 17.8271 84.655 17.8271 86.6189 17.8271H90.4136C90.7353 17.8271 90.8019 17.8272 90.8019 17.416V5.0561C90.8019 4.75909 90.7353 4.64502 90.4136 4.64502" fill="#ED1C24"/>
<path fill-rule="evenodd" clip-rule="evenodd" d="M52.4452 13.4524C52.4438 13.5739 52.419 13.6938 52.3725 13.8055C52.326 13.9172 52.2586 14.0185 52.1741 14.1034C52.0896 14.1882 51.9898 14.2551 51.8802 14.3002C51.7706 14.3454 51.6534 14.3679 51.5353 14.3663H45.2444C45.1269 14.3679 45.0103 14.3452 44.9013 14.3C44.7923 14.2547 44.6932 14.1875 44.6095 14.1025C44.5259 14.0175 44.4595 13.9163 44.4142 13.8047C44.3689 13.693 44.3456 13.5734 44.3456 13.4524V8.80314C44.3456 8.68217 44.3689 8.56226 44.4142 8.45063C44.4595 8.33901 44.5259 8.23779 44.6095 8.15278C44.6932 8.06777 44.7923 8.00086 44.9013 7.95561C45.0103 7.91036 45.1269 7.88772 45.2444 7.88924H51.5353C51.6534 7.88773 51.7706 7.91022 51.8802 7.95533C51.9898 8.00044 52.0896 8.06736 52.1741 8.15222C52.2586 8.23708 52.326 8.3381 52.3725 8.44979C52.419 8.56148 52.4438 8.68163 52.4452 8.80314V13.4524ZM56.3729 8.30059C56.3671 7.77607 56.2608 7.25781 56.0602 6.77565C55.8595 6.29349 55.5684 5.85693 55.2035 5.49082C54.8386 5.12471 54.4072 4.83629 53.9339 4.64218C53.4605 4.44806 52.9547 4.35212 52.4452 4.35967H44.3345C43.8245 4.35363 43.3184 4.45099 42.845 4.64636C42.3716 4.84173 41.9403 5.13105 41.5755 5.49808C41.2108 5.8651 40.9198 6.30262 40.7193 6.78541C40.5187 7.2682 40.4126 7.78698 40.4068 8.31203V13.9092C40.4097 14.4362 40.5137 14.9574 40.7129 15.4428C40.9121 15.9283 41.2026 16.3683 41.5677 16.7377C41.9327 17.1071 42.365 17.3988 42.8399 17.5956C43.3147 17.7923 43.8226 17.8905 44.3345 17.8845H52.4452C53.4733 17.8967 54.4641 17.4887 55.2004 16.75C55.9367 16.0112 56.3583 15.0019 56.3729 13.9436V8.30059Z" fill="#ED1C24"/>
<path fill-rule="evenodd" clip-rule="evenodd" d="M76.0783 4.70191H72.8275C72.778 4.71284 72.7314 4.73502 72.6911 4.76661C72.6508 4.79821 72.6177 4.83861 72.5944 4.88486L70.8191 12.6981H70.6749L69.0661 4.90773C69.0443 4.85589 69.0108 4.81019 68.9683 4.77442C68.9259 4.73865 68.8757 4.71365 68.8221 4.70191H63.7847C63.7352 4.71284 63.6886 4.73502 63.6483 4.76661C63.608 4.79821 63.5751 4.83861 63.5518 4.88486L61.9428 12.6981H61.8097L60.0345 4.89629C60.0137 4.84484 59.9803 4.79983 59.9375 4.76577C59.8947 4.73171 59.844 4.70959 59.7904 4.70191H56.5394C56.373 4.70191 56.3065 4.80476 56.3509 5.03323C56.3953 5.26169 58.7474 15.7595 59.1468 17.5987C59.2245 17.8728 59.3021 17.8842 59.4353 17.8842H63.696C63.9275 17.8785 64.1515 17.7984 64.3365 17.655C64.5216 17.5116 64.6584 17.3122 64.7278 17.0847L66.2479 9.71682H66.3699C66.7249 11.4303 67.9122 17.3016 67.9677 17.5758C68.0232 17.85 68.1451 17.8842 68.3005 17.8842H72.5723C72.8072 17.8826 73.0347 17.7994 73.2179 17.648C73.4012 17.4967 73.5294 17.2861 73.5819 17.0504C73.5819 17.0504 76.2448 5.03341 76.2781 4.94203C76.2816 4.90964 76.278 4.87685 76.2675 4.84609C76.2571 4.81534 76.2401 4.78714 76.2177 4.7641C76.1953 4.74106 76.1682 4.72356 76.1383 4.71279C76.1085 4.70202 76.0766 4.69828 76.0451 4.70191" fill="#ED1C24"/>
<path fill-rule="evenodd" clip-rule="evenodd" d="M16.6738 8.3004H23.6638C23.8635 8.3004 23.9301 8.22044 23.9412 8.01482V4.98752C23.9412 4.78191 23.9412 4.72479 23.686 4.70194H16.4407C15.5987 4.69893 14.7644 4.86749 13.9857 5.19752C13.2071 5.52755 12.4994 6.01264 11.9034 6.62514C11.3075 7.23763 10.8349 7.96531 10.513 8.76642C10.1911 9.56752 10.0263 10.4262 10.0277 11.2931C10.0263 12.1586 10.1908 13.0159 10.5122 13.8156C10.8335 14.6153 11.3053 15.3418 11.9002 15.9533C12.4951 16.5647 13.2015 17.0489 13.9788 17.3784C14.7561 17.7078 15.589 17.8759 16.4296 17.8728H23.6638C23.8635 17.8728 23.9301 17.8043 23.9412 17.5873V14.5717C23.9412 14.3546 23.8746 14.2861 23.6749 14.2861H16.6738C15.9029 14.2861 15.1634 13.9708 14.6182 13.4096C14.0731 12.8483 13.7669 12.0869 13.7669 11.2931C13.7669 10.4994 14.0731 9.7382 14.6182 9.17693C15.1634 8.61566 15.9029 8.3004 16.6738 8.3004Z" fill="#ED1C24"/>
<path fill-rule="evenodd" clip-rule="evenodd" d="M39.7632 17.4046L36.834 14.4802C37.7031 14.0729 38.4402 13.4173 38.9576 12.591C39.4749 11.7647 39.7507 10.8025 39.7521 9.81946C39.7535 9.14699 39.6261 8.48103 39.3768 7.85945C39.1275 7.23788 38.7613 6.67309 38.2995 6.19758C37.8376 5.72207 37.289 5.3451 36.6853 5.08845C36.0815 4.8318 35.4346 4.70041 34.7814 4.70192H24.9065C24.7068 4.70192 24.6513 4.77044 24.6402 4.97606V8.02623C24.6402 8.22042 24.7179 8.28894 24.9065 8.28894H34.5706C34.9601 8.28893 35.3337 8.4474 35.6101 8.72985C35.8866 9.01231 36.0433 9.39591 36.0463 9.79687C36.0477 9.99681 36.0106 10.195 35.937 10.38C35.8633 10.565 35.7546 10.7331 35.6173 10.8745C35.48 11.0159 35.3168 11.1278 35.137 11.2036C34.9573 11.2794 34.7648 11.3175 34.5706 11.316H24.9509C24.7623 11.316 24.6957 11.3845 24.6846 11.5901V17.5987C24.6846 17.8043 24.7512 17.8614 24.9398 17.8728H28.3682C28.5568 17.8728 28.6235 17.7929 28.6235 17.5872V14.9258H32.3071C32.5845 15.2457 34.4152 17.2104 34.6593 17.4389C34.8006 17.5919 34.9741 17.7095 35.1664 17.7827C35.3588 17.856 35.5649 17.8829 35.7689 17.8614H39.7743L39.7632 17.4046Z" fill="#ED1C24"/>
<path d="M94.2636 2.99988C93.8104 2.99988 93.3759 3.18535 93.0554 3.51526C92.735 3.84516 92.555 4.29253 92.555 4.75908C92.555 5.22564 92.735 5.67301 93.0554 6.00291C93.3759 6.33282 93.8104 6.51829 94.2636 6.51829C94.7168 6.51829 95.1514 6.33282 95.4719 6.00291C95.7923 5.67301 95.9723 5.22564 95.9723 4.75908C95.9723 4.29253 95.7923 3.84516 95.4719 3.51526C95.1514 3.18535 94.7168 2.99988 94.2636 2.99988ZM94.2636 6.27845C93.8722 6.27845 93.4969 6.11827 93.2201 5.83335C92.9434 5.54843 92.788 5.16202 92.788 4.75908C92.788 4.35615 92.9434 3.96974 93.2201 3.68482C93.4969 3.3999 93.8722 3.23972 94.2636 3.23972C94.653 3.24273 95.0256 3.40413 95.3 3.68872C95.5743 3.97332 95.7283 4.35812 95.7283 4.75908C95.7283 5.16005 95.5743 5.54485 95.3 5.82945C95.0256 6.11404 94.653 6.27544 94.2636 6.27845Z" fill="#ED1C24"/>
<path d="M93.7422 3.90231H94.4412C94.561 3.88988 94.6807 3.92695 94.7741 4.00522C94.807 4.03747 94.8329 4.07652 94.8501 4.11984C94.8673 4.16316 94.8755 4.20972 94.8739 4.25649C94.8904 4.32399 94.8904 4.39454 94.8739 4.46203C94.834 4.52222 94.7752 4.56668 94.7075 4.58781C94.6161 4.60894 94.5214 4.60894 94.4301 4.58781H93.7866L93.7422 3.90231ZM93.7422 5.85562V4.88482H94.2858C94.3857 5.03332 94.8628 5.85562 94.8628 5.85562H95.1957C95.1957 5.85562 94.7186 5.02188 94.6076 4.86195C94.7632 4.84353 94.908 4.77107 95.0182 4.65642C95.1127 4.54612 95.1641 4.40355 95.1624 4.25649C95.1606 4.1401 95.13 4.02605 95.0736 3.92518C95.0264 3.83107 94.9476 3.75802 94.8517 3.71964C94.7161 3.67279 94.5729 3.65334 94.4301 3.66247H93.4648V5.85562H93.7422Z" fill="#ED1C24"/>
<path d="M18.2937 22.9219C18.3035 23.4318 18.1472 23.9304 17.8498 24.3383C17.7084 24.5441 17.5203 24.7109 17.3017 24.8244C17.0831 24.9379 16.8408 24.9945 16.5961 24.9893H12.1579V26.9997H10.7599V20.8314H16.5627C16.8088 20.8254 17.0525 20.8827 17.2715 20.9984C17.4905 21.1141 17.6778 21.2847 17.8165 21.494C18.1282 21.9005 18.2964 22.404 18.2937 22.9219ZM16.8957 22.9219C16.8957 22.4878 16.7958 22.2707 16.5961 22.2707H12.1579V23.5614H16.5961C16.7847 23.5614 16.8845 23.3445 16.8845 22.9219H16.8957Z" fill="#353537"/>
<path d="M25.9051 27H23.9967L21.0009 23.5731H24.5959C24.8511 23.5731 24.9842 23.3674 24.9842 22.9448C24.9842 22.5221 24.8511 22.3053 24.5959 22.3053H20.2687V27.0343H18.8707V20.8659H24.6735C24.922 20.8569 25.1687 20.9118 25.3915 21.0255C25.6142 21.1391 25.806 21.3078 25.9495 21.5169C26.2453 21.9294 26.3977 22.4323 26.3822 22.9448C26.3977 23.4572 26.2453 23.9602 25.9495 24.3726C25.8055 24.5803 25.6133 24.7479 25.3904 24.8596C25.1676 24.9713 24.9211 25.0237 24.6735 25.0124H24.141L25.9051 27Z" fill="#353537"/>
<path d="M34.3931 25.0467C34.4 25.307 34.353 25.5658 34.2555 25.8061C34.1579 26.0463 34.012 26.2624 33.8272 26.4402C33.6436 26.6235 33.4264 26.7672 33.1883 26.8633C32.9502 26.9594 32.6959 27.0059 32.4403 27H28.923C28.6673 27.0065 28.4129 26.9606 28.1747 26.8644C27.9365 26.7683 27.7194 26.624 27.5361 26.4402C27.3476 26.2649 27.1984 26.0495 27.0987 25.8088C26.9991 25.5682 26.9516 25.3081 26.9592 25.0467V22.762C26.9516 22.5006 26.9991 22.2405 27.0987 21.9998C27.1984 21.7592 27.3476 21.5438 27.5361 21.3684C27.7194 21.1847 27.9365 21.0407 28.1747 20.9445C28.4129 20.8484 28.6673 20.8022 28.923 20.8087H32.4403C32.6959 20.8028 32.9502 20.8493 33.1883 20.9454C33.4264 21.0415 33.6436 21.1852 33.8272 21.3684C34.012 21.5463 34.1579 21.7624 34.2555 22.0026C34.353 22.2429 34.4 22.5017 34.3931 22.762V25.0467ZM32.995 25.0467V22.762C32.995 22.4193 32.8064 22.248 32.4403 22.248H28.923C28.5458 22.248 28.3571 22.4193 28.3571 22.762V25.0467C28.3571 25.3893 28.5458 25.5606 28.923 25.5606H32.4403C32.8064 25.5606 32.995 25.3893 32.995 25.0467Z" fill="#353537"/>
<path d="M41.3721 22.2709H36.3792V23.1962H41.0614V24.6355H36.3792V26.9999H34.9367V20.8315H41.3276L41.3721 22.2709Z" fill="#353537"/>
<path d="M48.2512 22.2709H43.2583V23.1962H47.9294V24.6355H43.2583V25.5606H48.2401V26.9999H41.8602V20.8315H48.2512V22.2709Z" fill="#353537"/>
<path d="M55.9403 25.0924C55.9511 25.58 55.7894 26.0549 55.4853 26.4288C55.3313 26.6117 55.1402 26.7577 54.9255 26.8564C54.7108 26.955 54.4777 27.0041 54.2426 27H49.0722V25.5607H54.2426C54.4423 25.5607 54.5422 25.4008 54.5422 25.0924C54.5422 24.784 54.4423 24.6356 54.2426 24.6356H50.4702C50.2366 24.6404 50.0049 24.5916 49.7919 24.4928C49.5789 24.394 49.3899 24.2477 49.2386 24.0644C48.9266 23.699 48.7602 23.2255 48.7726 22.7392C48.7604 22.2474 48.9311 21.7694 49.2497 21.4028C49.3988 21.2198 49.5858 21.0735 49.797 20.9747C50.0082 20.8758 50.2382 20.8269 50.4702 20.8316H55.6407V22.2709H50.4702C50.2816 22.2709 50.1817 22.4308 50.1817 22.7392C50.1817 23.0476 50.2816 23.1963 50.4702 23.1963H54.2426C54.4762 23.1915 54.7079 23.2403 54.9209 23.3391C55.1339 23.4378 55.3229 23.5842 55.4742 23.7674C55.7843 24.134 55.9505 24.6064 55.9403 25.0924Z" fill="#353537"/>
<path d="M63.6737 25.0924C63.6846 25.58 63.5228 26.0549 63.2188 26.4288C63.0648 26.6117 62.8737 26.7577 62.659 26.8564C62.4443 26.955 62.2112 27.0041 61.9761 27H56.8056V25.5607H61.9761C62.1758 25.5607 62.2757 25.4008 62.2757 25.0924C62.2757 24.784 62.1758 24.6356 61.9761 24.6356H58.237C58.0034 24.6404 57.7717 24.5916 57.5587 24.4928C57.3457 24.394 57.1567 24.2477 57.0054 24.0644C56.6934 23.699 56.5269 23.2255 56.5393 22.7392C56.5272 22.2474 56.6979 21.7694 57.0165 21.4028C57.1656 21.2198 57.3526 21.0735 57.5638 20.9747C57.775 20.8758 58.005 20.8269 58.237 20.8316H63.4074V22.2709H58.237C58.0483 22.2709 57.9485 22.4308 57.9485 22.7392C57.9485 23.0476 58.0483 23.1963 58.237 23.1963H62.0094C62.2445 23.1922 62.4776 23.2412 62.6923 23.3399C62.907 23.4386 63.0981 23.5845 63.2521 23.7674C63.5426 24.1427 63.6922 24.6129 63.6737 25.0924Z" fill="#353537"/>
<path d="M65.6488 26.9999H64.2507V20.8315H65.6488V26.9999Z" fill="#353537"/>
<path d="M73.6707 25.0467C73.6754 25.3077 73.6264 25.567 73.527 25.8072C73.4275 26.0474 73.2799 26.263 73.0937 26.4402C72.9104 26.624 72.6933 26.7683 72.4551 26.8644C72.2169 26.9606 71.9625 27.0065 71.7068 27H68.2228C67.9671 27.0065 67.7127 26.9606 67.4745 26.8644C67.2363 26.7683 67.0192 26.624 66.8359 26.4402C66.6511 26.2624 66.5052 26.0463 66.4076 25.8061C66.3101 25.5658 66.2631 25.307 66.27 25.0467V22.762C66.2631 22.5017 66.3101 22.2429 66.4076 22.0026C66.5052 21.7624 66.6511 21.5463 66.8359 21.3684C67.0192 21.1847 67.2363 21.0407 67.4745 20.9445C67.7127 20.8484 67.9671 20.8022 68.2228 20.8087H71.7401C71.9958 20.8022 72.2502 20.8484 72.4884 20.9445C72.7266 21.0407 72.9437 21.1847 73.127 21.3684C73.3132 21.5457 73.4608 21.7616 73.5603 22.0018C73.6597 22.242 73.7086 22.501 73.7038 22.762L73.6707 25.0467ZM72.2726 25.0467V22.762C72.2726 22.4193 72.084 22.248 71.7068 22.248H68.2228C67.8456 22.248 67.668 22.4193 67.668 22.762V25.0467C67.668 25.3893 67.8456 25.5606 68.2228 25.5606H71.7401C72.0951 25.5606 72.2726 25.3893 72.2726 25.0467Z" fill="#353537"/>
<path d="M80.6385 26.9999H79.2406L75.6456 22.8535V26.9999H74.2477V20.8315H75.6456L79.2406 24.9551V20.8315H80.6385V26.9999Z" fill="#353537"/>
<path d="M88.5717 27H87.1737V25.0467H83.5012V23.6531H87.1737V22.785C87.1737 22.4765 87.074 22.3167 86.8742 22.3167H82.9131C82.7245 22.3167 82.6246 22.4765 82.6246 22.785V27.0458H81.2266V22.785C81.2161 22.292 81.382 21.8124 81.6927 21.4371C81.8438 21.2574 82.0315 21.1141 82.2424 21.0174C82.4533 20.9207 82.6823 20.8729 82.9131 20.8774H86.8742C87.107 20.8704 87.3384 20.9169 87.5514 21.0138C87.7645 21.1106 87.9539 21.2553 88.1058 21.4371C88.4164 21.8124 88.5822 22.292 88.5717 22.785V27Z" fill="#353537"/>
<path d="M95.1624 26.9999H89.1597V20.8315H90.5578V25.5606H95.1624V26.9999Z" fill="#353537"/>
</g>
<defs>
<clipPath id="clip0_150_10">
<rect width="86" height="24" fill="white" transform="translate(10 3)"/>
</clipPath>
</defs>
</svg>
