<svg width="100" height="30" viewBox="0 0 100 30" fill="none" xmlns="http://www.w3.org/2000/svg">
<g clip-path="url(#clip0_233_6669)">
<path d="M89.97 27.27V3.01001H10.97V27.28H89.97" fill="#FBBA1B"/>
<path d="M14.4 6.40002H86.58V7.77002H14.4V6.40002Z" fill="black"/>
<path d="M14.4 22.52H86.57V23.89H14.4V22.52Z" fill="black"/>
<path d="M75.63 8.45996H86.58V12.23H83.58V21.78H78.58V12.23H75.63V8.45996Z" fill="black"/>
<path d="M68.1 8.45996V21.78H77.22V17.78H73.11V8.42993H68.11" fill="black"/>
<path d="M57.82 8.45996H63.29L67.52 21.78H62.61L62.11 19.78H59.03L58.57 21.78H53.45L57.82 8.45996ZM59.75 16.79H61.46L60.63 12.91L59.75 16.79Z" fill="black"/>
<path d="M55.18 8.45996H50.29L48.92 14.96L47.44 8.45996H43.1L41.71 14.96L40.37 8.45996H35.47L39.13 21.78H43.68L45.21 15.28L46.78 21.78H51.43L55.2 8.45996" fill="black"/>
<path d="M28.23 11.3101H35.53V14.0501H32V15.1901H35.08V17.9301H32V19.0601H35.53V21.7801H28.23V11.3101Z" fill="black"/>
<path d="M14.41 21.78V8.45996H20.64C24.33 8.45996 27.2599 10.46 27.2599 15.14C27.2599 19.82 24.42 21.78 20.62 21.78H14.41ZM19.56 17.78C21.14 17.78 22.18 17.11 22.18 15.09C22.18 12.87 21.18 12.28 19.57 12.28H19.16V17.78H19.56Z" fill="black"/>
<path d="M84.29 20.67C84.29 20.5252 84.3188 20.3818 84.3748 20.2482C84.4308 20.1147 84.5129 19.9936 84.6163 19.8921C84.7196 19.7906 84.8421 19.7108 84.9767 19.6572C85.1112 19.6036 85.2551 19.5774 85.4 19.58C85.5439 19.5787 85.6868 19.6059 85.8202 19.6601C85.9536 19.7143 86.0749 19.7943 86.1772 19.8957C86.2795 19.997 86.3607 20.1176 86.4161 20.2505C86.4715 20.3835 86.5 20.5261 86.5 20.67C86.5 20.814 86.4715 20.9566 86.4161 21.0895C86.3607 21.2224 86.2795 21.343 86.1772 21.4443C86.0749 21.5457 85.9536 21.6257 85.8202 21.6799C85.6868 21.7341 85.5439 21.7613 85.4 21.76C85.2551 21.7627 85.1112 21.7364 84.9767 21.6829C84.8421 21.6293 84.7196 21.5494 84.6163 21.4479C84.5129 21.3465 84.4308 21.2254 84.3748 21.0918C84.3188 20.9582 84.29 20.8149 84.29 20.67ZM85.4 21.58C85.5181 21.5801 85.6351 21.5563 85.7438 21.5103C85.8526 21.4642 85.951 21.3967 86.0331 21.3118C86.1152 21.2268 86.1794 21.1262 86.2218 21.016C86.2642 20.9057 86.284 20.7881 86.28 20.67C86.284 20.552 86.2642 20.4343 86.2218 20.324C86.1794 20.2138 86.1152 20.1132 86.0331 20.0283C85.951 19.9433 85.8526 19.8759 85.7438 19.8298C85.6351 19.7837 85.5181 19.7599 85.4 19.76C85.281 19.7586 85.163 19.7813 85.053 19.8268C84.9431 19.8723 84.8435 19.9396 84.7603 20.0247C84.6771 20.1097 84.6121 20.2108 84.569 20.3217C84.526 20.4326 84.5059 20.5511 84.5099 20.67C84.5059 20.789 84.526 20.9074 84.569 21.0184C84.6121 21.1293 84.6771 21.2303 84.7603 21.3154C84.8435 21.4004 84.9431 21.4678 85.053 21.5132C85.163 21.5587 85.281 21.5814 85.4 21.58ZM85.18 20.81H85.36L85.6 21.21H85.87L85.59 20.79C85.6355 20.7875 85.6801 20.7759 85.7211 20.7557C85.7621 20.7356 85.7986 20.7074 85.8285 20.6729C85.8584 20.6384 85.881 20.5982 85.895 20.5547C85.909 20.5113 85.9141 20.4655 85.91 20.42C85.91 20.23 85.76 20.09 85.46 20.09H84.97V21.21H85.18V20.81ZM85.18 20.62V20.26H85.43C85.56 20.26 85.71 20.26 85.71 20.43C85.71 20.6 85.59 20.62 85.43 20.62H85.18Z" fill="black"/>
</g>
<defs>
<clipPath id="clip0_233_6669">
<rect width="78.97" height="24.27" fill="white" transform="translate(11 3)"/>
</clipPath>
</defs>
</svg>
