<svg width="100" height="30" viewBox="0 0 100 30" fill="none" xmlns="http://www.w3.org/2000/svg">
<g clip-path="url(#clip0_150_11)">
<path d="M51.4619 7.96148H46.941V5.47388H50.571L51.4619 7.96148Z" fill="#1D1D1B"/>
<path d="M53.1585 12.551H46.941V10.0634H52.2676L53.1585 12.551Z" fill="#1D1D1B"/>
<path d="M55.073 17.6226H46.941V15.1447H54.1821L55.073 17.6226Z" fill="#1D1D1B"/>
<path d="M69.9912 7.96148H74.5122V5.47388H70.8821L69.9912 7.96148Z" fill="#1D1D1B"/>
<path d="M68.2947 12.551H74.5122V10.0634H69.1951L68.2947 12.551Z" fill="#1D1D1B"/>
<path d="M66.3801 17.6226H74.5122V15.1447H67.2711L66.3801 17.6226Z" fill="#1D1D1B"/>
<path d="M43.9365 5.47388H41.8798V17.6226H43.9365V5.47388Z" fill="#1D1D1B"/>
<path d="M64.0865 14.7204L63.0818 17.6226L58.6841 5.47388H60.7408L64.0865 14.7204Z" fill="#1D1D1B"/>
<path d="M59.2812 14.7204L58.2765 17.6226L53.8788 5.47388H55.926L59.2812 14.7204Z" fill="#1D1D1B"/>
<path d="M64.4656 8.7039L65.4702 11.6158L67.7165 5.47388H65.6693L64.4656 8.7039Z" fill="#1D1D1B"/>
<path d="M38.4867 4.4807V17.6225H24.0803V0.999878H26.6393C26.3739 1.96407 26.1275 2.92825 25.9095 3.89244C24.9513 8.21691 24.6066 12.6588 24.8859 17.0827H37.9749V5.03035C37.9749 4.10632 37.6147 3.22003 36.9733 2.56574C36.3319 1.91145 35.4616 1.54243 34.5533 1.53988H33.4255V1.01918H35.0652C35.9693 1.01917 36.8367 1.38326 37.4779 2.03186C38.119 2.68046 38.4817 3.5609 38.4867 4.4807Z" fill="#1D1D1B"/>
<path d="M36.2688 14.8554V5.71493C36.2663 5.10032 36.0246 4.51167 35.5965 4.07797C35.1684 3.64428 34.5889 3.40073 33.9847 3.40073H31.7574V3.96004H33.3497C33.9555 3.96004 34.5365 4.2048 34.9648 4.64057C35.3932 5.07635 35.6338 5.6676 35.6338 6.28388V14.8554H27.2554C27.4932 11.8459 28.2672 8.90544 29.5396 6.17772C30.4301 4.30451 31.5477 2.55222 32.8663 0.961548H30.5821C29.7185 2.37963 28.9887 3.87747 28.4022 5.43527C27.2747 8.43106 26.6872 11.609 26.6678 14.8168V15.3954H36.2688V14.8554Z" fill="#1D1D1B"/>
<path d="M74.5121 19.9559H38.2118V23.2052H74.5121V19.9559Z" fill="#E21F26"/>
<path d="M37.3873 15.9161V4.60593C37.3873 3.99221 37.1476 3.40365 36.721 2.96968C36.2944 2.53571 35.7158 2.29197 35.1125 2.29197H32.2692V2.85128H34.5154C35.1196 2.85383 35.6982 3.09961 36.1245 3.53511C36.5508 3.97061 36.7901 4.56027 36.7901 5.17488V15.9161H26.1654L26.5919 10.5648V10.449C26.9101 8.32465 27.4764 6.24666 28.2789 4.25895C28.7272 3.13625 29.253 2.0471 29.8523 0.999878H27.6629C27.2025 2.13426 26.8224 3.3008 26.5256 4.49035C26.1204 6.20076 25.8541 7.94207 25.7294 9.69687C25.5777 11.4517 25.4356 13.7465 25.464 16.4462H37.3967V15.8871L37.3873 15.9161Z" fill="#1D1D1B"/>
<path d="M24.0897 24.3912H25.701C25.9632 24.3835 26.2242 24.4296 26.4687 24.5263C26.6552 24.6092 26.8181 24.7385 26.9426 24.9023C27.0778 25.068 27.1749 25.2624 27.2269 25.4712C27.285 25.6946 27.3137 25.9247 27.3122 26.1557C27.3236 26.4573 27.2786 26.7583 27.1795 27.0427C27.1021 27.2434 26.9824 27.4245 26.8288 27.5731C26.6904 27.702 26.5252 27.7976 26.3455 27.8527C26.1359 27.9144 25.9191 27.9469 25.701 27.9492H24.0897V24.3912ZM25.1702 25.2012V27.1296H25.4356C25.6005 27.1444 25.7664 27.1178 25.9189 27.0524C26.0219 26.9947 26.1022 26.9028 26.1464 26.792C26.2043 26.5919 26.23 26.3836 26.2222 26.175C26.2501 25.9015 26.1867 25.6264 26.0422 25.394C25.9617 25.3202 25.8671 25.2643 25.7644 25.2295C25.6616 25.1946 25.5529 25.1817 25.4451 25.1916L25.1702 25.2012Z" fill="#1D1D1B"/>
<path d="M27.8525 24.3911H28.8003V25.0662H27.8525V24.3911ZM27.8525 25.3553H28.8003V27.9298H27.8525V25.3553Z" fill="#1D1D1B"/>
<path d="M30.3262 26.1749L29.3784 26.0784C29.4027 25.9407 29.4543 25.8096 29.53 25.6928C29.6043 25.5878 29.7017 25.5019 29.8144 25.4421C29.9308 25.3838 30.0555 25.3449 30.184 25.3265C30.3511 25.3111 30.5193 25.3111 30.6864 25.3265C30.9198 25.308 31.1543 25.308 31.3877 25.3265C31.551 25.3533 31.7046 25.4231 31.8332 25.529C31.9187 25.6194 31.9835 25.728 32.0227 25.847C32.0697 25.9668 32.0954 26.0942 32.0986 26.2231V27.3608C32.0918 27.4571 32.0918 27.5538 32.0986 27.6501C32.1234 27.7407 32.1583 27.828 32.2028 27.9105H31.255C31.2301 27.8603 31.208 27.8087 31.1887 27.756C31.1887 27.756 31.1887 27.6693 31.1887 27.5922C31.0834 27.7095 30.9539 27.8017 30.8096 27.8622C30.6188 27.935 30.4163 27.9711 30.2125 27.9684C29.9665 27.9908 29.7217 27.9145 29.53 27.756C29.4541 27.6913 29.3934 27.6101 29.3524 27.5183C29.3114 27.4265 29.2912 27.3267 29.2931 27.2259C29.2865 27.0488 29.3476 26.876 29.4637 26.7438C29.6413 26.5911 29.8586 26.494 30.0893 26.4642L30.7906 26.3098L31.1413 26.1942C31.1497 26.1007 31.1226 26.0075 31.0655 25.9338C30.988 25.8794 30.8937 25.8553 30.8001 25.8663C30.6782 25.8554 30.556 25.8824 30.4494 25.9435C30.3836 26.004 30.3401 26.0857 30.3262 26.1749ZM31.1698 26.6956L30.7527 26.8305C30.6173 26.8549 30.4882 26.9076 30.3736 26.9849C30.3471 27.0073 30.3258 27.0352 30.3111 27.0668C30.2964 27.0984 30.2885 27.133 30.2883 27.168C30.2884 27.2044 30.2961 27.2405 30.3108 27.2737C30.3255 27.3069 30.3469 27.3365 30.3736 27.3608C30.442 27.4117 30.5261 27.4357 30.6105 27.4284C30.7161 27.4269 30.82 27.4004 30.9138 27.3512C30.9925 27.3048 31.0578 27.2384 31.1034 27.1584C31.152 27.0668 31.1749 26.9633 31.1698 26.8594V26.6956Z" fill="#1D1D1B"/>
<path d="M32.7051 25.3746H33.6529V25.7507C33.7634 25.6136 33.8985 25.499 34.051 25.4132C34.2026 25.3433 34.3681 25.3104 34.5344 25.3169C34.6987 25.3098 34.862 25.3463 35.0083 25.4228C35.134 25.5026 35.2356 25.6161 35.3021 25.7507C35.4199 25.6109 35.5611 25.4933 35.7191 25.4035C35.8659 25.3407 36.0244 25.3113 36.1835 25.3169C36.3001 25.309 36.417 25.3264 36.5265 25.368C36.636 25.4096 36.7355 25.4743 36.8185 25.558C36.9875 25.7765 37.0688 26.052 37.046 26.3291V27.9491H36.0982V26.4835C36.1019 26.392 36.0788 26.3014 36.0318 26.2232C36.0039 26.1828 35.9671 26.1494 35.9243 26.126C35.8815 26.1025 35.834 26.0896 35.7855 26.0881C35.7332 26.0854 35.681 26.0955 35.6332 26.1173C35.5854 26.139 35.5434 26.1721 35.5106 26.2135C35.429 26.3313 35.392 26.4751 35.4063 26.6184V27.9491H34.4585V26.5318C34.4668 26.4549 34.4668 26.3771 34.4585 26.3002C34.4409 26.2387 34.4044 26.1847 34.3543 26.146C34.3016 26.1083 34.2387 26.088 34.1742 26.0881C34.1219 26.0854 34.0697 26.0955 34.0219 26.1173C33.9742 26.139 33.9321 26.1721 33.8993 26.2135C33.8156 26.3376 33.7786 26.4882 33.7951 26.6377V27.9491H32.8473L32.7051 25.3746Z" fill="#1D1D1B"/>
<path d="M38.4867 26.1749L37.5389 26.0784C37.5632 25.9407 37.6148 25.8096 37.6905 25.6928C37.7648 25.5878 37.8622 25.5019 37.9749 25.4421C38.0913 25.3838 38.216 25.3449 38.3445 25.3265C38.5116 25.3111 38.6797 25.3111 38.8468 25.3265C39.0803 25.308 39.3148 25.308 39.5482 25.3265C39.7115 25.3533 39.8651 25.4231 39.9937 25.529C40.0792 25.6194 40.1439 25.728 40.1832 25.847C40.2301 25.9668 40.2558 26.0942 40.259 26.2231V27.3608C40.2475 27.4569 40.2475 27.5541 40.259 27.6501C40.2838 27.7407 40.3188 27.828 40.3633 27.9105H39.4155C39.3906 27.8603 39.3684 27.8087 39.3491 27.756C39.3491 27.756 39.3491 27.6693 39.3491 27.5922C39.2438 27.7095 39.1144 27.8017 38.97 27.8622C38.7792 27.935 38.5767 27.9711 38.3729 27.9684C38.127 27.9908 37.8821 27.9145 37.6905 27.756C37.6146 27.6913 37.5539 27.6101 37.5129 27.5183C37.4719 27.4265 37.4516 27.3267 37.4536 27.2259C37.4469 27.0488 37.5081 26.876 37.6242 26.7438C37.8018 26.5911 38.019 26.494 38.2497 26.4642L38.9511 26.3098L39.3018 26.1942C39.3102 26.1007 39.2831 26.0075 39.226 25.9338C39.1485 25.8794 39.0541 25.8553 38.9606 25.8663C38.8387 25.8554 38.7165 25.8824 38.6099 25.9435C38.544 26.004 38.5006 26.0857 38.4867 26.1749ZM39.3302 26.6956L38.9132 26.8305C38.7778 26.8549 38.6487 26.9076 38.534 26.9849C38.5076 27.0073 38.4863 27.0352 38.4716 27.0668C38.4568 27.0984 38.4491 27.133 38.4488 27.168C38.4489 27.2044 38.4566 27.2405 38.4713 27.2737C38.486 27.3069 38.5074 27.3365 38.534 27.3608C38.6024 27.4117 38.6866 27.4357 38.771 27.4284C38.8766 27.4269 38.9804 27.4004 39.0743 27.3512C39.1529 27.3048 39.2183 27.2384 39.2639 27.1584C39.3124 27.0668 39.3354 26.9633 39.3302 26.8594V26.6956Z" fill="#1D1D1B"/>
<path d="M40.8372 25.3746H41.7376V25.7894C41.8543 25.6432 41.9955 25.5191 42.1546 25.4228C42.3118 25.3487 42.4837 25.3125 42.657 25.3169C42.7735 25.3096 42.8902 25.3272 42.9996 25.3687C43.109 25.4102 43.2086 25.4748 43.292 25.558C43.4598 25.7697 43.5412 26.0387 43.5194 26.3098V27.9491H42.5716V26.5318C42.5792 26.4719 42.5747 26.4109 42.5584 26.3529C42.5421 26.2949 42.5144 26.241 42.4769 26.1942C42.4465 26.1586 42.4085 26.1305 42.3657 26.1121C42.323 26.0937 42.2768 26.0854 42.2304 26.0881C42.1762 26.088 42.1226 26.1001 42.0735 26.1234C42.0244 26.1467 41.9809 26.1808 41.9461 26.2232C41.8597 26.3712 41.823 26.5438 41.8418 26.7149V27.9491H40.894L40.8372 25.3746Z" fill="#1D1D1B"/>
<path d="M45.2634 24.3911V25.3553H45.8036V26.0784H45.2634V26.9946C45.2434 27.0638 45.2434 27.1375 45.2634 27.2067C45.2794 27.2352 45.3031 27.2584 45.3316 27.2738C45.3601 27.2891 45.3923 27.2958 45.4245 27.2933C45.5285 27.2879 45.631 27.2653 45.7278 27.226L45.7941 27.9105C45.576 27.9584 45.3538 27.9841 45.1307 27.9875C44.9455 28.0011 44.76 27.9681 44.5904 27.8912C44.476 27.8308 44.3856 27.732 44.3345 27.6116C44.2756 27.4083 44.25 27.1967 44.2587 26.985V26.0784H43.8986V25.3553H44.2587V24.8829L45.2634 24.3911Z" fill="#1D1D1B"/>
<path d="M45.9836 25.3746H46.9314L47.3295 26.9946L47.8508 25.3746H48.7228L49.263 27.0043L49.6706 25.3746H50.6183L49.6706 27.9492H48.8081L48.2963 26.3967L47.794 27.9492H46.9314L45.9836 25.3746Z" fill="#1D1D1B"/>
<path d="M53.6512 26.9078H51.6988C51.7084 27.0372 51.7545 27.1609 51.8315 27.2644C51.8764 27.3164 51.9319 27.358 51.994 27.3863C52.0562 27.4146 52.1236 27.4291 52.1917 27.4285C52.2884 27.4283 52.3833 27.4015 52.4665 27.3513C52.5345 27.3141 52.5929 27.2614 52.6371 27.1971L53.5849 27.2837C53.4644 27.518 53.2801 27.7122 53.0541 27.843C52.7732 27.9655 52.4686 28.0215 52.1632 28.0068C51.8936 28.0195 51.6247 27.9702 51.3765 27.8623C51.1772 27.7598 51.0099 27.6029 50.8932 27.4092C50.7655 27.1836 50.7 26.927 50.7036 26.6667C50.6984 26.4881 50.7293 26.3102 50.7946 26.1444C50.8598 25.9785 50.9579 25.8282 51.0827 25.7025C51.225 25.5723 51.3913 25.4721 51.5718 25.4076C51.7524 25.343 51.9437 25.3156 52.1348 25.3266C52.4308 25.3146 52.7255 25.3706 52.9973 25.4904C53.1992 25.5991 53.3644 25.7671 53.4712 25.9725C53.5945 26.2303 53.6531 26.5151 53.6418 26.8016L53.6512 26.9078ZM52.7035 26.4353C52.6967 26.2844 52.6437 26.1395 52.5518 26.0208C52.4613 25.937 52.3424 25.892 52.2201 25.8953C52.1477 25.8945 52.0762 25.9116 52.0118 25.9452C51.9474 25.9788 51.892 26.0278 51.8504 26.0881C51.7838 26.1913 51.7476 26.3119 51.7462 26.4353H52.7035Z" fill="#1D1D1B"/>
<path d="M54.0873 25.3746H55.0351V25.799C55.0943 25.652 55.1849 25.5201 55.3004 25.4132C55.4044 25.3442 55.5271 25.3106 55.6511 25.3169C55.8141 25.3247 55.9731 25.3708 56.1155 25.4518L55.8123 26.1556C55.7291 26.1138 55.6392 26.0876 55.5469 26.0784C55.4878 26.0757 55.4292 26.0898 55.3774 26.1187C55.3255 26.1476 55.2825 26.1904 55.253 26.2425C55.1271 26.5059 55.0747 26.7993 55.1014 27.0909V27.9491H54.1536L54.0873 25.3746Z" fill="#1D1D1B"/>
<path d="M56.4093 24.3911H57.3571V26.2329L58.0869 25.3746H59.338L58.3902 26.2715L59.338 27.9491H58.248L57.7362 26.9174L57.3666 27.2837V27.9491H56.4188L56.4093 24.3911Z" fill="#1D1D1B"/>
<path d="M59.5559 25.3746H61.9065V25.9532L60.6269 27.2741H61.9823V27.9492H59.4612V27.3127L60.6743 26.0498H59.5559V25.3746Z" fill="#1D1D1B"/>
<path d="M65.1385 26.9078H63.2429C63.2483 27.0381 63.2949 27.1631 63.3756 27.2644C63.4192 27.318 63.4744 27.3607 63.5369 27.3891C63.5994 27.4176 63.6674 27.4311 63.7358 27.4285C63.8323 27.4269 63.9269 27.4003 64.0106 27.3513C64.0749 27.309 64.1324 27.2571 64.1812 27.1971L65.129 27.2837C65.006 27.5162 64.8223 27.7097 64.5982 27.843C64.3173 27.9655 64.0127 28.0215 63.7073 28.0068C63.4348 28.0174 63.1633 27.9682 62.9112 27.8623C62.7148 27.7592 62.5506 27.6022 62.4373 27.4092C62.3096 27.1836 62.2441 26.927 62.2477 26.6667C62.2401 26.4878 62.27 26.3094 62.3354 26.1432C62.4007 25.977 62.5001 25.8267 62.6268 25.7025C62.7691 25.5723 62.9354 25.4721 63.1159 25.4076C63.2965 25.343 63.4878 25.3156 63.6789 25.3266C63.9748 25.3156 64.2693 25.3715 64.5414 25.4904C64.7433 25.5991 64.9085 25.7671 65.0153 25.9725C65.135 26.2313 65.1903 26.5159 65.1764 26.8016L65.1385 26.9078ZM64.1907 26.4353C64.1889 26.2834 64.1353 26.1369 64.0391 26.0208C63.952 25.9376 63.8362 25.8924 63.7168 25.8953C63.6444 25.8945 63.573 25.9116 63.5085 25.9452C63.4441 25.9788 63.3887 26.0278 63.3471 26.0881C63.281 26.1922 63.2419 26.3117 63.2334 26.4353H64.1907Z" fill="#1D1D1B"/>
<path d="M68.2567 27.9492H67.3089V27.5344C67.2005 27.6848 67.0615 27.8099 66.9014 27.9009C66.7442 27.9751 66.5723 28.0112 66.3991 28.0068C66.284 28.014 66.1688 27.9961 66.0609 27.9546C65.9531 27.913 65.8551 27.8487 65.7735 27.7658C65.6057 27.5541 65.5243 27.285 65.5461 27.0139V25.3746H66.4939V26.792C66.4845 26.9124 66.5181 27.0323 66.5887 27.1295C66.618 27.1664 66.6558 27.1953 66.6988 27.2138C66.7418 27.2323 66.7886 27.2399 66.835 27.2357C66.8893 27.2358 66.9429 27.2237 66.992 27.2004C67.0412 27.177 67.0847 27.1429 67.1194 27.1006C67.2112 26.9546 67.2513 26.7811 67.2332 26.6088V25.3746H68.181L68.2567 27.9492Z" fill="#1D1D1B"/>
<path d="M70.6072 25.3746H71.555V27.9202C71.5574 28.0797 71.525 28.2377 71.4602 28.383C71.3928 28.5193 71.2993 28.6405 71.1853 28.7396C71.0584 28.8342 70.9129 28.9002 70.7588 28.9326C70.5655 28.9733 70.3685 28.9926 70.1712 28.9903C69.8054 29.0266 69.4375 28.9457 69.1191 28.7589C69.0268 28.6866 68.9527 28.593 68.9033 28.4856C68.8538 28.3783 68.8303 28.2604 68.8348 28.1419V28.0068L69.7826 28.113C69.7929 28.1881 69.83 28.2567 69.8868 28.3058C69.97 28.3551 70.0656 28.3786 70.1617 28.3733C70.2189 28.3782 70.2766 28.3702 70.3305 28.3503C70.3845 28.3303 70.4336 28.2986 70.4745 28.2575C70.5562 28.1435 70.5934 28.0027 70.5787 27.8623V27.4767C70.4988 27.5763 70.4026 27.6611 70.2944 27.7274C70.1444 27.804 69.9788 27.8435 69.811 27.843C69.6467 27.8466 69.4844 27.8069 69.3398 27.7274C69.1953 27.648 69.0735 27.5316 68.9864 27.3899C68.8276 27.1411 68.7512 26.847 68.7685 26.5509C68.744 26.2197 68.8458 25.8918 69.0528 25.635C69.1467 25.5289 69.2625 25.4454 69.392 25.3904C69.5215 25.3354 69.6613 25.3103 69.8015 25.3169C69.968 25.3086 70.1339 25.3415 70.2849 25.4132C70.429 25.4959 70.5522 25.6115 70.6451 25.7508L70.6072 25.3746ZM69.6594 26.6185C69.6463 26.7661 69.6867 26.9135 69.7731 27.033C69.8108 27.0793 69.8589 27.1159 69.9133 27.1394C69.9678 27.1629 70.027 27.1727 70.0859 27.1681C70.1431 27.1697 70.1999 27.1585 70.2523 27.1352C70.3048 27.1118 70.3515 27.0768 70.3891 27.033C70.4773 26.9104 70.5208 26.7605 70.5124 26.6088C70.5196 26.4528 70.4726 26.2993 70.3797 26.175C70.3411 26.1292 70.2931 26.0924 70.239 26.0674C70.185 26.0424 70.1263 26.0299 70.0669 26.0304C70.011 26.0282 69.9553 26.039 69.9043 26.0624C69.8533 26.0859 69.8084 26.1211 69.7731 26.1653C69.6994 26.3037 69.6727 26.463 69.6973 26.6185H69.6594Z" fill="#1D1D1B"/>
<path d="M74.9197 26.9078H72.9673C72.9769 27.0372 73.0229 27.1609 73.1 27.2644C73.1436 27.318 73.1987 27.3607 73.2612 27.3891C73.3237 27.4176 73.3918 27.4311 73.4601 27.4285C73.5567 27.4269 73.6513 27.4003 73.735 27.3513C73.8029 27.3141 73.8614 27.2614 73.9056 27.1971L74.8534 27.2837C74.7303 27.5162 74.5467 27.7097 74.3226 27.843C74.0417 27.9655 73.737 28.0215 73.4317 28.0068C73.1621 28.0195 72.8932 27.9702 72.645 27.8623C72.4439 27.7625 72.2759 27.605 72.1617 27.4092C72.034 27.1836 71.9685 26.927 71.9721 26.6667C71.9645 26.4878 71.9944 26.3094 72.0597 26.1432C72.1251 25.977 72.2244 25.8267 72.3512 25.7025C72.4935 25.5723 72.6597 25.4721 72.8403 25.4076C73.0209 25.343 73.2122 25.3156 73.4033 25.3266C73.6992 25.3146 73.994 25.3706 74.2657 25.4904C74.4677 25.5991 74.6328 25.7671 74.7396 25.9725C74.863 26.2303 74.9216 26.5151 74.9102 26.8016L74.9197 26.9078ZM73.9245 26.4353C73.9227 26.2834 73.8691 26.1369 73.7729 26.0208C73.6858 25.9376 73.5701 25.8924 73.4507 25.8953C73.3783 25.8945 73.3068 25.9116 73.2424 25.9452C73.178 25.9788 73.1226 26.0278 73.081 26.0881C73.0144 26.1913 72.9782 26.3119 72.9768 26.4353H73.9245Z" fill="#1D1D1B"/>
<path d="M25.7768 21.8746V21.3539H26.9141V22.3953C26.7392 22.5295 26.5439 22.6336 26.336 22.7037C26.1428 22.7648 25.9412 22.7942 25.7389 22.7905C25.4959 22.8018 25.2542 22.7488 25.0375 22.6364C24.8606 22.5352 24.7159 22.3845 24.6205 22.2023C24.5226 21.9914 24.474 21.7605 24.4783 21.5274C24.4754 21.2861 24.5307 21.0477 24.6395 20.8332C24.7459 20.6369 24.9122 20.4813 25.1134 20.3897C25.3198 20.3001 25.543 20.2574 25.7673 20.2645C25.9691 20.2577 26.1707 20.2836 26.3644 20.3415C26.4909 20.3866 26.6025 20.4667 26.6867 20.5729C26.779 20.6857 26.8468 20.8173 26.8857 20.9587L26.1654 21.0936C26.1432 21.0084 26.093 20.9336 26.0232 20.8815C25.941 20.8288 25.8454 20.8019 25.7484 20.8043C25.675 20.8019 25.602 20.8164 25.5348 20.8464C25.4675 20.8764 25.4078 20.9214 25.3598 20.978C25.2531 21.1361 25.2029 21.3265 25.2176 21.5177C25.197 21.7199 25.2511 21.9228 25.3692 22.0867C25.4192 22.1459 25.4821 22.1924 25.5528 22.2225C25.6236 22.2527 25.7003 22.2655 25.7768 22.2602C25.8555 22.2694 25.935 22.2694 26.0138 22.2602C26.1019 22.2246 26.1873 22.1828 26.2696 22.135V21.9036L25.7768 21.8746Z" fill="#E21F26"/>
<path d="M27.8146 20.9878H28.4401V21.2479C28.5137 21.1547 28.6037 21.0763 28.7055 21.0166C28.8112 20.974 28.9236 20.9513 29.0373 20.9492C29.1525 20.9452 29.2669 20.9716 29.369 21.0262C29.4515 21.0832 29.5197 21.1591 29.568 21.2479C29.6472 21.1528 29.7438 21.0743 29.8523 21.0166C29.9492 20.9673 30.0569 20.9442 30.1651 20.9492C30.2458 20.9444 30.3265 20.9574 30.4018 20.9874C30.4771 21.0173 30.5451 21.0635 30.6011 21.1227C30.7202 21.2716 30.7779 21.4618 30.7622 21.6531V22.7521H30.0988V21.7879C30.1162 21.7315 30.1162 21.6709 30.0988 21.6145C30.0809 21.5848 30.0558 21.5605 30.0259 21.5436C29.996 21.5267 29.9623 21.5178 29.9281 21.5179C29.8921 21.5168 29.8564 21.5241 29.8235 21.5391C29.7907 21.5542 29.7617 21.5766 29.7386 21.6048C29.6866 21.6879 29.6632 21.7863 29.6723 21.8845V22.7907H28.9993V21.8266C29.0057 21.7721 29.0057 21.7172 28.9993 21.6627C28.983 21.6216 28.9569 21.585 28.9235 21.5566C28.8838 21.5409 28.84 21.5409 28.8003 21.5566C28.7645 21.5567 28.7291 21.5647 28.6965 21.5796C28.6638 21.5946 28.6346 21.6163 28.6107 21.6434C28.5573 21.7295 28.5339 21.8315 28.5444 21.9327V22.8293H27.8714L27.8146 20.9878Z" fill="#E21F26"/>
<path d="M31.6626 20.3223H32.3355V21.1612C32.3986 21.0926 32.4765 21.0396 32.563 21.0068C32.6497 20.9684 32.7433 20.9488 32.8378 20.9491C32.9375 20.9465 33.0365 20.9657 33.1281 21.0056C33.2197 21.0456 33.3017 21.1053 33.3686 21.1805C33.5174 21.368 33.5918 21.6053 33.5772 21.8458C33.5777 22.0207 33.5455 22.1941 33.4823 22.3568C33.4286 22.4909 33.3361 22.6051 33.217 22.6845C33.1081 22.7601 32.9792 22.8005 32.8473 22.8003C32.7354 22.8011 32.6249 22.7746 32.5251 22.7231C32.4301 22.665 32.3491 22.5859 32.2882 22.4917V22.752H31.6626V20.3223ZM32.3261 21.8651C32.3156 21.9842 32.3457 22.1032 32.4114 22.2024C32.4383 22.234 32.4718 22.2591 32.5096 22.2758C32.5473 22.2925 32.5882 22.3004 32.6294 22.2989C32.6676 22.2996 32.7055 22.2914 32.7401 22.2747C32.7746 22.2579 32.8049 22.2331 32.8284 22.2024C32.8901 22.1017 32.9167 21.983 32.9042 21.8651C32.9164 21.7563 32.8895 21.6466 32.8284 21.5565C32.8075 21.5253 32.7791 21.5001 32.7459 21.4832C32.7128 21.4664 32.6759 21.4585 32.6388 21.4602C32.5976 21.4579 32.5565 21.4653 32.5186 21.4821C32.4808 21.4988 32.4473 21.5242 32.4208 21.5565C32.3504 21.6425 32.3164 21.7535 32.3261 21.8651Z" fill="#E21F26"/>
<path d="M34.4396 20.3223H35.1789V21.1709H35.994V20.3223H36.7333V22.752H35.994V21.7878H35.1789V22.752H34.4396V20.3223Z" fill="#E21F26"/>
<path d="M40.9225 21.8361V21.354H42.5906V22.3182C42.3177 22.4464 42.0316 22.5435 41.7376 22.6075C41.45 22.6615 41.158 22.6871 40.8656 22.6845C40.5228 22.693 40.1807 22.6475 39.8515 22.5496C39.6169 22.4732 39.4072 22.3333 39.2449 22.1447C39.1015 21.9687 39.0243 21.7465 39.0269 21.5179C39.0273 21.2835 39.1115 21.0574 39.2639 20.8816C39.4531 20.6819 39.6923 20.5386 39.9557 20.4671C40.2658 20.3899 40.5844 20.3542 40.9035 20.3609C41.1926 20.3507 41.4819 20.3734 41.766 20.4285C41.9408 20.4614 42.1059 20.5339 42.2494 20.6406C42.3736 20.7317 42.4718 20.8547 42.5338 20.9972L41.4912 21.113C41.4421 21.0254 41.3653 20.9574 41.2732 20.9202C41.1468 20.8689 41.011 20.8458 40.8751 20.8526C40.6756 20.8389 40.4777 20.8969 40.3159 21.0165C40.241 21.0746 40.1817 21.151 40.1436 21.2387C40.1055 21.3264 40.0898 21.4224 40.0979 21.5179C40.09 21.6161 40.1057 21.7151 40.1437 21.8058C40.1817 21.8965 40.2408 21.9763 40.3159 22.0386C40.4925 22.1562 40.7026 22.2107 40.913 22.193C41.0263 22.2077 41.1409 22.2077 41.2542 22.193C41.383 22.1675 41.5098 22.1319 41.6333 22.0868V21.8747L40.9225 21.8361Z" fill="white"/>
<path d="M44.3819 20.3898H47.2253V20.8719H45.415V21.2287H47.0926V21.6819H45.415V22.1254H47.3106V22.6364H44.363L44.3819 20.3898Z" fill="white"/>
<path d="M49.0735 22.6462V20.3899H50.8743C51.1315 20.3833 51.3886 20.4028 51.642 20.4478C51.8019 20.4669 51.9515 20.5379 52.0685 20.6503C52.1212 20.6947 52.1632 20.7508 52.1911 20.8144C52.2191 20.8779 52.2323 20.947 52.2296 21.0166C52.2308 21.0753 52.2205 21.1338 52.1994 21.1884C52.1782 21.243 52.1466 21.2927 52.1064 21.3348C52.0087 21.4315 51.8926 21.507 51.7652 21.5566C51.6431 21.602 51.5156 21.6313 51.3861 21.6434C51.4838 21.6613 51.5792 21.6902 51.6704 21.73L51.8411 21.8459L51.9927 21.9807L52.514 22.6366H51.2913L50.7132 21.952C50.6657 21.8786 50.6004 21.8186 50.5236 21.7783C50.4406 21.7389 50.3498 21.719 50.2582 21.7204H50.1635V22.6846L49.0735 22.6462ZM50.1635 21.3059H50.6184H50.9027C50.9679 21.3014 51.0304 21.2779 51.0828 21.2383C51.1212 21.2037 51.145 21.1554 51.1491 21.1034C51.1479 21.0678 51.1365 21.0334 51.1163 21.0043C51.0961 20.9752 51.068 20.9527 51.0354 20.9396C50.9083 20.8916 50.7726 20.8718 50.6374 20.8817H50.1635V21.3059Z" fill="white"/>
<path d="M54.002 20.3898H55.4237L55.9734 21.7588L56.5137 20.3898H57.9354V22.6364H57.0539V20.9201L56.3715 22.6364H55.5469L54.8645 20.9201V22.6364H53.983L54.002 20.3898Z" fill="white"/>
<path d="M61.9255 22.3182H60.7028L60.5322 22.6845H59.4233L60.7407 20.4381H61.916L63.2334 22.6845H62.0961L61.9255 22.3182ZM61.698 21.8265L61.3189 21.0165L60.9303 21.8265H61.698Z" fill="white"/>
<path d="M64.731 20.3898H65.7451L67.0625 21.6336V20.3898H68.0766V22.6364H67.0625L65.7546 21.4022V22.6364H64.731V20.3898Z" fill="white"/>
<path d="M69.5931 20.3898H70.7969L71.4982 21.1419L72.209 20.3898H73.4033L72.0385 21.6915V22.6557H70.958V21.6915L69.5931 20.3898Z" fill="white"/>
</g>
<defs>
<clipPath id="clip0_150_11">
<rect width="51" height="28" fill="white" transform="translate(24 1)"/>
</clipPath>
</defs>
</svg>
