<svg width="100" height="30" viewBox="0 0 100 30" fill="none" xmlns="http://www.w3.org/2000/svg">
<g clip-path="url(#clip0_150_12)">
<path fill-rule="evenodd" clip-rule="evenodd" d="M10.7635 14.4953C10.7635 10.6472 8.4828 9.23267 5.38697 9.23267H2V19.7488H5.28023C8.06551 19.7488 10.812 18.1925 10.812 14.4953H10.7635ZM8.54103 14.4953C8.59215 14.9297 8.54172 15.3697 8.39348 15.7825C8.24525 16.1953 8.00305 16.5703 7.68493 16.8795C7.36681 17.1886 6.98095 17.4241 6.55618 17.5682C6.13141 17.7122 5.6787 17.7613 5.23172 17.7116H4.16415V11.2792H5.28023C7.57057 11.2792 8.51195 12.3449 8.51195 14.4953H8.54103Z" fill="#DA222F"/>
<path fill-rule="evenodd" clip-rule="evenodd" d="M26.1747 19.7488L24.1076 15.6648C24.7585 15.4481 25.3158 15.0257 25.6906 14.4649C26.0653 13.9041 26.2357 13.2373 26.1747 12.5712C26.1747 10.3265 24.4958 9.23267 22.4481 9.23267H17.4113V19.7488H19.5754V15.9761H21.7784L23.7194 19.7488H26.1747ZM23.9523 12.6184C23.9523 13.5616 23.4088 13.986 22.3995 13.986H19.5754V11.2792H22.3995C23.37 11.2792 23.9523 11.6659 23.9523 12.6184Z" fill="#DA222F"/>
<path fill-rule="evenodd" clip-rule="evenodd" d="M41.7607 14.4953C41.7607 11.2886 40.0138 9.07214 37.0538 9.07214C34.0938 9.07214 32.3567 11.2886 32.3567 14.4953C32.3567 17.702 34.1035 19.9184 37.0538 19.9184C40.004 19.9184 41.7607 17.6926 41.7607 14.4953ZM39.5285 14.4953C39.5285 16.3816 38.8007 17.8247 37.0538 17.8247C35.3069 17.8247 34.5888 16.3722 34.5888 14.4953C34.5888 12.6184 35.3069 11.1565 37.0538 11.1565C38.8007 11.1565 39.5285 12.6184 39.5285 14.4953Z" fill="#DA222F"/>
<path d="M57.2204 19.7488V9.23267H55.0853V13.6843C55.0853 14.2691 55.0853 15.5706 55.0853 15.9761C54.9495 15.7121 54.5904 15.1839 54.3283 14.7972L50.4464 9.23267H48.3696V19.7488H50.5046V15.1274C50.5046 14.5332 50.5046 13.2409 50.5046 12.8259C50.6405 13.0994 50.9996 13.6182 51.2616 14.0143L55.2309 19.7488H57.2204Z" fill="#DA222F"/>
<path d="M72.6704 11.4017C72.3313 10.669 71.771 10.054 71.0639 9.63793C70.3567 9.22187 69.536 9.02445 68.7108 9.07218C65.8867 9.07218 63.8584 11.2886 63.8584 14.4953C63.8584 17.7021 65.7994 19.9185 68.5846 19.9185C69.4222 19.9655 70.2545 19.7631 70.9707 19.3384C71.6868 18.9138 72.2526 18.287 72.5927 17.5417L70.7682 16.4949C70.5901 16.8948 70.2941 17.2344 69.9176 17.471C69.5411 17.7077 69.1009 17.8308 68.6526 17.8247C67.0222 17.8247 66.0808 16.3816 66.0808 14.4953C66.0808 12.609 67.0513 11.1565 68.6332 11.1565C69.0362 11.1409 69.4351 11.2408 69.7801 11.4437C70.1252 11.6466 70.4014 11.9438 70.5742 12.2979L72.583 11.3548L72.6704 11.4017Z" fill="#DA222F"/>
<path fill-rule="evenodd" clip-rule="evenodd" d="M87.7032 14.4953C87.7032 11.2886 85.9564 9.07214 83.0061 9.07214C80.0559 9.07214 78.309 11.2886 78.309 14.4953C78.309 17.702 80.0559 19.9184 83.0061 19.9184C85.9564 19.9184 87.7032 17.6926 87.7032 14.4953ZM85.4808 14.4953C85.4808 16.3816 84.753 17.8247 83.0061 17.8247C81.2592 17.8247 80.5313 16.3722 80.5313 14.4953C80.5313 12.6184 81.2592 11.1565 83.0061 11.1565C84.753 11.1565 85.4808 12.6184 85.4808 14.4953Z" fill="#DA222F"/>
<path d="M82.9187 3.59235C81.3894 3.59033 79.8762 3.89555 78.4739 4.48854V1.7438C79.9051 1.27104 81.4071 1.03201 82.9187 1.03644C86.5916 1.03644 90.1141 2.45451 92.7112 4.97854C95.3084 7.50256 96.7675 10.9258 96.7675 14.4953C96.7688 16.2635 96.4115 18.0148 95.7161 19.6488C95.0207 21.2828 94.0008 22.7675 92.7147 24.0183C91.4286 25.269 89.9015 26.2613 88.2206 26.9382C86.5398 27.6152 84.7382 27.9636 82.9187 27.9636C81.4071 27.968 79.9051 27.729 78.4739 27.2562V24.5117C79.8726 25.1209 81.386 25.4421 82.9187 25.4549C85.895 25.4524 88.7485 24.3016 90.8521 22.2554C92.9558 20.2092 94.1375 17.435 94.1375 14.5425C94.1426 13.1071 93.8563 11.6849 93.2949 10.3572C92.7335 9.02956 91.908 7.82239 90.8659 6.80521C89.8237 5.78803 88.5854 4.98067 87.2217 4.42936C85.8579 3.87805 84.3957 3.59359 82.9187 3.59235Z" fill="#1B4688"/>
<path fill-rule="evenodd" clip-rule="evenodd" d="M98 3.12072C98.0155 2.86906 97.976 2.61706 97.884 2.38135C97.792 2.14563 97.6495 1.93169 97.466 1.75342C97.2826 1.57515 97.0623 1.43668 96.8198 1.34724C96.5773 1.25779 96.318 1.21928 96.059 1.23441C95.8001 1.21928 95.5408 1.25779 95.2982 1.34724C95.0557 1.43668 94.8354 1.57515 94.652 1.75342C94.4685 1.93169 94.3261 2.14563 94.2341 2.38135C94.1421 2.61706 94.1025 2.86906 94.118 3.12072C94.1025 3.37238 94.1421 3.62461 94.2341 3.86033C94.3261 4.09604 94.4685 4.30998 94.652 4.48825C94.8354 4.66652 95.0557 4.80499 95.2982 4.89444C95.5408 4.98388 95.8001 5.02216 96.059 5.00703C96.318 5.02216 96.5773 4.98388 96.8198 4.89444C97.0623 4.80499 97.2826 4.66652 97.466 4.48825C97.6495 4.30998 97.792 4.09604 97.884 3.86033C97.976 3.62461 98.0155 3.37238 98 3.12072ZM97.7477 3.12072C97.7558 3.33383 97.7187 3.54636 97.6388 3.74496C97.5588 3.94357 97.4378 4.12403 97.2831 4.27526C97.1284 4.42649 96.9433 4.54527 96.7394 4.62411C96.5355 4.70294 96.3172 4.74032 96.0979 4.73371C95.879 4.7404 95.661 4.70304 95.4576 4.62411C95.2542 4.54517 95.0698 4.42618 94.9158 4.2748C94.7619 4.12341 94.6417 3.94285 94.5629 3.74427C94.4841 3.54569 94.4483 3.33336 94.4578 3.12072C94.4483 2.90808 94.4841 2.69598 94.5629 2.4974C94.6417 2.29882 94.7619 2.11826 94.9158 1.96687C95.0698 1.81549 95.2542 1.6965 95.4576 1.61757C95.661 1.53863 95.879 1.50127 96.0979 1.50796C96.3172 1.50135 96.5355 1.53873 96.7394 1.61757C96.9433 1.6964 97.1284 1.81518 97.2831 1.96641C97.4378 2.11765 97.5588 2.29811 97.6388 2.49671C97.7187 2.69531 97.7558 2.90762 97.7477 3.12072ZM96.9422 2.65858C96.9458 2.57467 96.9304 2.49111 96.8972 2.41358C96.8639 2.33606 96.8137 2.26666 96.7499 2.21003C96.686 2.1534 96.6102 2.11104 96.5278 2.08592C96.4453 2.0608 96.3582 2.05342 96.2725 2.06451H95.4185V4.11108H95.6999V3.25289H96.1464L96.6025 4.11108H96.9325L96.4569 3.23401C96.5957 3.21128 96.7213 3.1406 96.8105 3.03483C96.8997 2.92907 96.9465 2.79528 96.9422 2.65858ZM96.6704 2.65858C96.6704 2.89437 96.5249 2.99822 96.224 2.99822H95.6999V2.30974H96.2531C96.5151 2.30974 96.6704 2.42279 96.6704 2.65858Z" fill="#07509D"/>
</g>
<defs>
<clipPath id="clip0_150_12">
<rect width="96" height="27" fill="white" transform="translate(2 1)"/>
</clipPath>
</defs>
</svg>
