<svg width="100" height="30" viewBox="0 0 100 30" fill="none" xmlns="http://www.w3.org/2000/svg">
<g clip-path="url(#clip0_150_13)">
<path d="M91.8088 4.99988H80.8568L75.3874 14.4786L80.8568 23.9569H91.8088L97.2782 14.4786L91.8088 4.99988ZM91.7025 23.7712H80.9629L75.6528 14.4786L80.9629 5.18591H91.7025L97.0126 14.4786L91.7025 23.7712Z" fill="#231F20"/>
<path d="M85.0517 16.6954L83.7773 14.4784L85.0517 12.2615H87.6138L88.8882 14.4784L87.6138 16.6954H85.0517Z" fill="#EB2127"/>
<path d="M90.9061 6.55334H81.7594L77.1796 14.5185L81.7594 22.4836H90.9061L95.486 14.5185L90.9061 6.55334ZM89.9104 20.6647H82.7817L79.2107 14.4786L82.7817 8.29215H89.937L93.508 14.4786L89.9104 20.6647Z" fill="#231F20"/>
<path d="M88.9148 10.0844H83.764L81.1887 14.545L83.764 19.0052H88.9148L91.4769 14.545L88.9148 10.0844ZM88.3439 18.0495H84.3613L82.3569 14.5712L84.3613 11.0933H88.3439L90.3617 14.5712L88.3439 18.0495Z" fill="#231F20"/>
<path d="M3.21014 23.8509V23.3596H3.83404C4.25639 23.3864 4.67808 23.2993 5.05525 23.1074C5.3379 22.9538 5.56203 22.7111 5.6926 22.4171C5.80639 21.8538 5.8465 21.2781 5.81203 20.7045V8.54455C5.85383 7.95201 5.8046 7.35647 5.66602 6.77885C5.53864 6.50797 5.32333 6.28813 5.05525 6.15495C4.67848 5.96086 4.25739 5.86936 3.83404 5.88951H3.21014V5.38489H11.4939C13.3075 5.31246 15.1162 5.61985 16.8039 6.28751C18.3825 6.95905 19.6975 8.12949 20.5475 9.6196C21.4303 11.1581 21.8885 12.9037 21.875 14.6775C21.8855 15.9045 21.6741 17.1233 21.2511 18.2751C20.8754 19.2503 20.3268 20.1498 19.6316 20.9301C18.9782 21.6377 18.1994 22.2184 17.3348 22.6426C16.3235 23.122 15.2518 23.4614 14.1489 23.6516C13.2701 23.781 12.3818 23.8345 11.4939 23.811L3.21014 23.8509ZM10.2592 6.42039V20.8374C10.2329 21.3091 10.2686 21.7819 10.3653 22.2443C10.4413 22.4148 10.5722 22.5551 10.7371 22.6426C11.0701 22.793 11.4343 22.8615 11.7992 22.842C12.4612 22.8825 13.1231 22.7624 13.7287 22.4919C14.3343 22.2215 14.8656 21.8086 15.2773 21.2885C16.5127 19.3498 17.0856 17.0627 16.9101 14.7705C16.9951 12.8149 16.6128 10.8672 15.795 9.08872C15.3202 8.09788 14.5184 7.30095 13.5248 6.832C12.4716 6.49161 11.3639 6.35194 10.2592 6.42039Z" fill="#EB2127"/>
<path d="M50.6821 5.37165V5.87628C50.3709 5.89203 50.0691 5.98802 49.806 6.15501C49.5419 6.35511 49.3281 6.61433 49.182 6.91178C49.182 7.01798 48.837 7.72136 48.3192 9.02233L42.5313 24.2755H42.0002L37.4202 12.3278L32.3757 24.2755H31.8712L25.7911 9.18179C25.4375 8.22543 24.993 7.30513 24.4636 6.43373C24.3091 6.25853 24.1191 6.11826 23.9063 6.02212C23.6934 5.92599 23.4626 5.87631 23.2291 5.87628V5.37165H31.1942V5.87628C30.7324 5.83828 30.2699 5.94 29.8667 6.16829C29.7657 6.2466 29.6842 6.34737 29.6289 6.46258C29.5736 6.57779 29.546 6.70428 29.5481 6.83205C29.6669 7.59102 29.895 8.32867 30.2251 9.02233L33.8492 17.9964L36.7431 10.987L35.9865 9.02233C35.7184 8.28196 35.3945 7.5632 35.0174 6.87192C34.8269 6.55217 34.5572 6.28687 34.2343 6.10185C33.8144 5.92746 33.3606 5.85041 32.9067 5.87628V5.37165H41.8675V5.87628C41.4205 5.86559 40.974 5.91452 40.54 6.02212C40.3611 6.08086 40.2038 6.19181 40.0885 6.34072C39.9829 6.49253 39.9272 6.67369 39.9292 6.85863C40.0608 7.52092 40.2657 8.16646 40.54 8.78347L43.9118 17.5319L46.912 9.56682C47.2306 8.76146 47.4298 8.20389 47.5095 7.89413C47.5743 7.6199 47.6099 7.33938 47.6156 7.05763C47.6224 6.89191 47.5912 6.72689 47.5245 6.57504C47.4578 6.42319 47.3572 6.28864 47.2306 6.18158C46.7917 5.91701 46.2812 5.79631 45.7703 5.83641V5.33179L50.6821 5.37165Z" fill="#EB2127"/>
<path d="M68.5374 5.3717V10.3765H68.0462C67.8678 9.49541 67.5401 8.65149 67.0771 7.8809C66.7012 7.36045 66.1984 6.94442 65.6167 6.67265C65.0314 6.47728 64.414 6.39625 63.798 6.43378H62.4705V20.7046C62.4302 21.2979 62.484 21.8939 62.6298 22.4703C62.7572 22.7412 62.9725 22.961 63.2406 23.0942C63.6248 23.2942 64.056 23.3859 64.4884 23.3597H65.0991V23.864H55.4215V23.3597H56.0321C56.4913 23.3833 56.9487 23.2872 57.3596 23.0809C57.6107 22.9239 57.8058 22.6916 57.9172 22.4172C58.0501 21.8567 58.0993 21.2795 58.0632 20.7046V6.44707H56.7357C55.7826 6.37498 54.8367 6.6589 54.0807 7.24371C53.232 8.08756 52.7019 9.19917 52.5806 10.3898H52.0628V5.38499L68.5374 5.3717Z" fill="#EB2127"/>
<path d="M73.0244 8.27878C72.8603 8.44156 72.6655 8.57006 72.4512 8.65668C72.237 8.7433 72.0075 8.78645 71.7764 8.7834C71.5439 8.78862 71.3128 8.74518 71.0979 8.65603C70.8831 8.56689 70.6892 8.43382 70.5286 8.26549C70.3603 8.10493 70.2272 7.91123 70.1381 7.69637C70.049 7.4815 70.0057 7.25026 70.0109 7.0177C70.0019 6.76921 70.047 6.52193 70.1433 6.29268C70.2396 6.06343 70.3848 5.85771 70.5685 5.69018C70.8928 5.37839 71.3266 5.2069 71.7764 5.21245C72.0218 5.19926 72.2672 5.23855 72.4961 5.32783C72.725 5.41712 72.9323 5.55421 73.104 5.73004C73.2798 5.9017 73.417 6.10912 73.5063 6.33806C73.5956 6.567 73.6349 6.81218 73.6217 7.05756C73.6093 7.29082 73.55 7.51927 73.4473 7.7291C73.3447 7.93894 73.2009 8.12576 73.0244 8.27878ZM70.7411 5.98219C70.6075 6.11903 70.5022 6.28121 70.4316 6.45895C70.3609 6.63668 70.3262 6.82647 70.3295 7.0177C70.3206 7.21081 70.354 7.40375 70.4274 7.58261C70.5007 7.76146 70.6123 7.92195 70.7542 8.0532C70.8842 8.19754 71.0444 8.31166 71.2234 8.38735C71.4023 8.46305 71.5956 8.49858 71.7897 8.49139C71.9817 8.49663 72.1725 8.46007 72.349 8.38443C72.5254 8.3088 72.6834 8.1958 72.8119 8.0532C72.9498 7.91885 73.0586 7.7578 73.1317 7.57969C73.2047 7.40158 73.2406 7.21017 73.2368 7.0177C73.2406 6.82522 73.2047 6.63414 73.1317 6.45603C73.0586 6.27792 72.9498 6.11655 72.8119 5.98219C72.6834 5.8396 72.5254 5.72659 72.349 5.65096C72.1725 5.57533 71.9817 5.53909 71.7897 5.54433C71.5942 5.54122 71.4001 5.5785 71.2196 5.65388C71.0392 5.72926 70.8763 5.84091 70.7411 5.98219ZM71.0065 7.98676V6.10179H71.949C72.0873 6.1115 72.2226 6.14765 72.3473 6.20809C72.4293 6.25343 72.4966 6.3212 72.5413 6.40353C72.586 6.48585 72.6061 6.57909 72.5995 6.67253C72.6059 6.73842 72.5974 6.80491 72.5744 6.86699C72.5514 6.92907 72.5145 6.98516 72.4668 7.03099C72.364 7.09995 72.245 7.14122 72.1216 7.15058C72.2224 7.16881 72.3178 7.20945 72.4005 7.26985C72.4618 7.32403 72.5094 7.39205 72.5394 7.4682C72.5694 7.54435 72.581 7.62657 72.5731 7.70803V7.9469H72.0817C72.0716 7.85868 72.0716 7.76967 72.0817 7.68146C72.0885 7.60195 72.0885 7.5221 72.0817 7.4426C72.0731 7.40723 72.055 7.375 72.0292 7.34925C72.0035 7.32351 71.9711 7.30509 71.9357 7.29643H71.7631H71.5509V7.98676H71.0065ZM71.9357 6.42038C71.84 6.39505 71.7394 6.39505 71.6437 6.42038H71.5243V6.99112H71.7234C71.8212 7.00088 71.9193 6.97776 72.0022 6.92501C72.0357 6.89552 72.0615 6.85834 72.0777 6.81676C72.0939 6.77518 72.0998 6.73018 72.095 6.68582C72.1029 6.65791 72.1052 6.62869 72.1013 6.59993C72.0975 6.57117 72.0878 6.54346 72.0728 6.51858C72.0579 6.4937 72.0381 6.47229 72.0145 6.45538C71.9909 6.43848 71.9641 6.42653 71.9357 6.42038Z" fill="#EB2127"/>
</g>
<defs>
<clipPath id="clip0_150_13">
<rect width="94.4882" height="19.2756" fill="white" transform="translate(3 5)"/>
</clipPath>
</defs>
</svg>
