<svg width="100" height="30" viewBox="0 0 100 30" fill="none" xmlns="http://www.w3.org/2000/svg">
<g clip-path="url(#clip0_150_12)">
<path d="M41.2766 19.2966L41.3401 18.8692L41.6487 18.7601L42.2568 18.5146C42.6138 17.0172 43.0737 14.5437 43.6364 11.0942C43.9268 9.27542 44.072 8.26602 44.072 7.97503C44.0823 7.89119 44.068 7.80618 44.0309 7.73032C43.9939 7.65446 43.9356 7.59099 43.8633 7.54762C43.4085 7.41835 42.9383 7.35106 42.4655 7.34756L42.5473 6.84741C43.5729 6.89288 44.4624 6.91107 45.2702 6.91107L49.182 6.84741C49.8173 6.84741 50.3709 6.84741 50.852 6.92016C50.6923 7.7883 50.5923 8.66638 50.5525 9.54823H50.0532C50.087 8.96144 50.0163 8.37332 49.8445 7.81134C49.0151 7.58127 48.1504 7.50727 47.2941 7.59309C46.804 7.59309 46.2776 7.59309 45.7149 7.59309C45.4154 9.13901 45.1249 10.7486 44.8617 12.4036C45.6241 12.4036 46.3139 12.4491 46.922 12.4491C47.5301 12.4491 48.4378 12.3945 49.3454 12.3036L49.4361 12.4036C49.3181 12.6674 49.2001 12.9584 49.0912 13.313C48.2653 13.2403 47.2759 13.2039 45.978 13.2039H44.7255C44.3262 15.4955 44.0569 17.2051 43.9177 18.3327C44.919 18.4331 45.9248 18.4816 46.9311 18.4782C47.5555 18.4831 48.1797 18.4527 48.8007 18.3873C48.9395 18.3788 49.0739 18.335 49.191 18.26C49.2897 18.1837 49.3625 18.079 49.3998 17.9599C49.3998 17.8507 49.5995 17.3051 49.8627 16.3139H50.3801L50.2167 17.3051C50.1168 17.878 50.026 18.5055 49.9625 19.1966C49.5049 19.2544 49.0442 19.2847 48.5829 19.2875H47.2124C45.9054 19.2421 44.898 19.2239 44.1719 19.2239C43.2279 19.2148 42.275 19.2421 41.2766 19.2966Z" fill="#2C3C7A"/>
<path d="M53.7293 12.6949L53.5478 12.3584C55.0454 11.2854 56.0347 10.7488 56.4976 10.7488C56.5522 10.746 56.6069 10.7542 56.6583 10.7729C56.7098 10.7917 56.757 10.8206 56.797 10.858C56.8346 10.8998 56.8635 10.9486 56.8822 11.0017C56.9009 11.0547 56.909 11.111 56.9059 11.1671C56.7567 12.0412 56.5597 12.9064 56.316 13.7588C55.9299 15.0852 55.6567 16.442 55.4991 17.8146C55.4866 17.9271 55.5158 18.0403 55.5809 18.1329C55.608 18.1635 55.6416 18.1875 55.6794 18.2032C55.7171 18.219 55.7579 18.226 55.7987 18.2238C56.2364 18.1191 56.6339 17.8884 56.9423 17.56C57.8701 16.8062 58.6436 15.8799 59.2204 14.8319C59.7961 13.6365 60.1761 12.3561 60.3459 11.0398C60.7531 10.9604 61.1559 10.8603 61.553 10.7397L61.671 10.8671C61.1627 12.5767 60.7633 14.2135 60.4275 15.7776C60.2794 16.4421 60.1823 17.1171 60.1371 17.7964C60.1231 17.9165 60.1486 18.0378 60.2097 18.142C60.2294 18.1744 60.2576 18.2009 60.2911 18.2185C60.3247 18.2361 60.3624 18.2443 60.4003 18.242C60.7665 18.1411 61.0989 17.9432 61.3624 17.6691L61.8253 17.2963L62.034 17.6055C60.5909 18.8331 59.647 19.4242 59.2023 19.4242C59.139 19.4248 59.0766 19.4093 59.021 19.379C58.9654 19.3488 58.9185 19.3049 58.8846 19.2514C58.7856 19.1011 58.7408 18.9215 58.7575 18.7422C58.7701 18.3841 58.8156 18.0279 58.8936 17.6782L59.4745 15.1865C58.6838 16.4558 57.6939 17.5889 56.5429 18.5421C56.0912 18.9895 55.5157 19.2905 54.8911 19.406C54.7941 19.4104 54.6972 19.3931 54.6078 19.3554C54.5183 19.3176 54.4383 19.2604 54.3736 19.1878C54.2335 18.9927 54.1661 18.7546 54.1831 18.5148C54.2346 17.814 54.3531 17.1196 54.5371 16.4415C54.9283 15.0741 55.2315 13.6829 55.4447 12.2766C55.453 12.1828 55.4272 12.0891 55.3721 12.0129C55.3506 11.9828 55.3218 11.9586 55.2885 11.9427C55.2551 11.9268 55.2183 11.9197 55.1814 11.9219C54.6532 12.0859 54.1606 12.3481 53.7293 12.6949Z" fill="#2C3C7A"/>
<path d="M65.0926 12.8221L64.8929 12.513C65.6209 11.951 66.3849 11.4376 67.1801 10.9761C67.4027 10.8482 67.6505 10.7706 67.9062 10.7488C67.9519 10.7462 67.9975 10.7538 68.0399 10.7711C68.0823 10.7884 68.1204 10.815 68.1513 10.8488C68.2161 10.9418 68.248 11.0538 68.242 11.1671C68.2321 11.4267 68.2018 11.6852 68.1513 11.94L67.5704 14.5772C68.2118 13.3892 68.995 12.2838 69.9029 11.2853C70.1524 10.9867 70.5063 10.7948 70.8923 10.7488C71.0569 10.7566 71.2192 10.7904 71.3733 10.8488C71.2313 11.4719 71.1313 12.1038 71.0738 12.7403L70.8105 12.8039C70.7515 12.7066 70.6691 12.6257 70.5708 12.5685C70.4725 12.5113 70.3614 12.4797 70.2478 12.4766C69.9774 12.4875 69.7173 12.5829 69.5036 12.7494C68.9778 13.1552 68.5419 13.6661 68.2238 14.2498C67.819 14.9464 67.5135 15.6964 67.3162 16.4778C67.2618 16.6778 67.0802 17.5599 66.7535 19.1331C66.3905 19.2059 65.982 19.315 65.5282 19.4514L65.383 19.3241C65.8071 17.8854 66.1555 16.4254 66.4268 14.9501C66.6142 14.074 66.7476 13.1872 66.8262 12.2947C66.8262 12.0674 66.7445 11.9491 66.5993 11.9491C66.0482 12.1457 65.5375 12.4416 65.0926 12.8221Z" fill="#2C3C7A"/>
<path d="M73.3792 12.6949L73.1976 12.3584C74.6952 11.2854 75.6754 10.7488 76.1474 10.7488C76.2007 10.7456 76.2543 10.7537 76.3043 10.7725C76.3543 10.7913 76.3998 10.8204 76.4379 10.858C76.4755 10.8998 76.5044 10.9486 76.5231 11.0017C76.5418 11.0547 76.5499 11.111 76.5468 11.1671C76.4033 12.0416 76.2094 12.9069 75.9659 13.7588C75.5799 15.0852 75.3066 16.442 75.149 17.8146C75.1366 17.9271 75.1656 18.0403 75.2307 18.1329C75.2579 18.1635 75.2916 18.1875 75.3293 18.2032C75.367 18.219 75.4078 18.226 75.4486 18.2238C75.8863 18.1191 76.2838 17.8884 76.5921 17.56C77.5199 16.8062 78.2935 15.8799 78.8703 14.8319C79.4419 13.635 79.8217 12.3552 79.9957 11.0398C80.4029 10.9604 80.8059 10.8603 81.2029 10.7397L81.3209 10.8671C80.8126 12.5767 80.4133 14.2135 80.0775 15.7776C79.9246 16.4413 79.8274 17.1166 79.787 17.7964C79.773 17.9165 79.7985 18.0378 79.8597 18.142C79.8794 18.1744 79.9075 18.2009 79.9411 18.2185C79.9747 18.2361 80.0124 18.2443 80.0502 18.242C80.4164 18.1411 80.7488 17.9432 81.0124 17.6691L81.4751 17.2963L81.684 17.6055C80.2409 18.8331 79.2969 19.4242 78.8522 19.4242C78.789 19.4248 78.7265 19.4093 78.671 19.379C78.6154 19.3488 78.5684 19.3049 78.5345 19.2514C78.4355 19.1011 78.3907 18.9215 78.4074 18.7422C78.4199 18.3841 78.4655 18.0279 78.5435 17.6782L79.1244 15.1865C78.3338 16.4558 77.3439 17.5889 76.1928 18.5421C75.7401 18.9881 75.1651 19.2889 74.541 19.406C74.444 19.4104 74.3472 19.3931 74.2577 19.3554C74.1682 19.3176 74.0882 19.2604 74.0236 19.1878C73.8835 18.9927 73.8161 18.7546 73.833 18.5148C73.8845 17.814 74.0031 17.1196 74.187 16.4415C74.5782 15.0741 74.8814 13.6829 75.0946 12.2766C75.1029 12.1828 75.0771 12.0891 75.022 12.0129C74.9999 11.9834 74.9711 11.9597 74.9379 11.9438C74.9047 11.928 74.8681 11.9205 74.8314 11.9219C74.3032 12.0859 73.8105 12.3481 73.3792 12.6949Z" fill="#2C3C7A"/>
<path d="M84.8061 12.4765L84.8968 12.0673C85.4331 11.875 85.955 11.644 86.458 11.3762L86.5759 10.776C86.7937 9.68478 86.9299 9.06641 86.9844 8.91182C87.1161 8.59488 87.3179 8.31196 87.5744 8.08429C88.163 7.49276 88.8248 6.97932 89.5438 6.55656C89.8587 6.36236 90.2182 6.25274 90.5876 6.23828C90.9909 6.25928 91.3873 6.35164 91.7585 6.51109C91.577 6.9294 91.3955 7.42046 91.223 7.94789L91.0323 8.02973C90.8915 7.81299 90.7019 7.63235 90.4787 7.5023C90.2609 7.39807 90.0211 7.34816 89.7798 7.3568C89.5696 7.33804 89.3582 7.37526 89.1669 7.46468C88.9756 7.55411 88.8114 7.69257 88.6907 7.86605C88.2429 9.03742 87.9381 10.2588 87.7831 11.5035H88.2369C88.7309 11.4997 89.2233 11.4479 89.7072 11.3489L89.8071 11.4399C89.6619 11.84 89.553 12.1492 89.4803 12.3492C89.0084 12.3128 88.5818 12.2947 88.2006 12.2947H87.6106L87.184 14.3225C86.769 16.5708 86.2143 18.791 85.5231 20.97C85.1524 21.9488 84.5253 22.8095 83.7079 23.4617C83.263 23.8688 82.6934 24.1124 82.0923 24.1528C81.8635 24.143 81.6372 24.1001 81.4207 24.0255C81.5906 23.5751 81.739 23.1169 81.8654 22.6523L82.065 22.6069C82.1724 22.7647 82.3156 22.8947 82.4828 22.9864C82.6501 23.0781 82.8366 23.1287 83.0272 23.1343C83.1825 23.1371 83.3368 23.1078 83.4804 23.0484C83.6241 22.989 83.754 22.9006 83.8621 22.7887C84.3919 22.0096 84.7281 21.1147 84.8424 20.1789C85.2327 18.4147 85.75 15.8412 86.3127 12.4402C85.8408 12.4038 85.3506 12.4311 84.8061 12.4765Z" fill="#2C3C7A"/>
<path d="M97.522 10.7487L97.7216 10.8851C97.1468 12.8675 96.7051 14.6256 96.3965 16.1594C96.262 16.7302 96.1739 17.3111 96.1333 17.8963C96.1273 17.9857 96.1496 18.0748 96.1969 18.1509C96.2203 18.1782 96.2497 18.1997 96.2827 18.2139C96.3158 18.2281 96.3515 18.2345 96.3874 18.2327C96.8793 18.0592 97.3239 17.7727 97.6854 17.3961L97.7943 17.7872C97.2372 18.292 96.6288 18.737 95.9791 19.1148C95.7588 19.2567 95.5053 19.3382 95.2438 19.3513C95.1797 19.3567 95.1153 19.3472 95.0555 19.3235C94.9957 19.2999 94.942 19.2627 94.8989 19.2149C94.8068 19.0891 94.7647 18.9335 94.7809 18.7784C94.8802 17.7672 95.0778 16.7683 95.3709 15.7956H95.2983C94.5687 16.8902 93.6818 17.8707 92.6662 18.7056C92.2864 19.0822 91.8082 19.3438 91.2866 19.4604C91.2008 19.4587 91.1172 19.4331 91.0451 19.3865C90.973 19.34 90.9152 19.2742 90.8782 19.1967C90.7126 18.8321 90.6378 18.4326 90.6603 18.0327C90.6911 16.9862 90.8653 15.949 91.1777 14.9499C91.3969 14.0509 91.7552 13.1917 92.2397 12.4037C92.6814 11.888 93.2253 11.4699 93.837 11.1761C94.3073 10.9071 94.8385 10.7631 95.38 10.7578C95.6332 10.7594 95.8856 10.7868 96.1333 10.8396C96.4199 10.8944 96.7021 10.9703 96.9774 11.0669L97.522 10.7487ZM96.1787 11.9036C95.9461 11.8111 95.7063 11.7381 95.4616 11.6853C95.2495 11.6429 95.0336 11.6216 94.8173 11.6216C94.3948 11.6147 93.9753 11.692 93.5829 11.849C93.4038 12.0069 93.2666 12.2069 93.1835 12.431C92.798 13.2414 92.494 14.0883 92.2759 14.959C92.0326 15.8485 91.9015 16.765 91.8857 17.6871C91.8717 17.8414 91.9033 17.9963 91.9764 18.1327C92 18.1718 92.0332 18.2041 92.073 18.2264C92.1128 18.2487 92.1577 18.2603 92.2033 18.26C92.4393 18.26 92.8749 17.9599 93.5102 17.3507C94.0996 16.7917 94.6069 16.1518 95.0169 15.4501C95.5997 14.3414 95.9925 13.1426 96.1787 11.9036Z" fill="#2C3C7A"/>
<path d="M11.071 19.2879L11.1981 18.8968L11.4885 18.7968L12.0876 18.5786C12.6321 17.2085 13.4278 14.9441 14.4746 11.7856C15.0101 10.1487 15.3006 9.203 15.3822 8.93019C15.4639 8.65738 15.3822 8.60281 15.2552 8.53916C14.8505 8.4238 14.4324 8.36265 14.0117 8.35729L14.157 7.9026C15.0646 7.9026 15.8996 7.95717 16.5984 7.95717L20.2289 7.9026C20.7379 7.89795 21.2469 7.9192 21.7538 7.96626C21.4738 8.75352 21.2464 9.55857 21.0731 10.3761H20.6192C20.7393 9.85437 20.7638 9.31519 20.6918 8.78469C19.9438 8.56782 19.1606 8.49986 18.3865 8.58463H16.9433C16.426 10.0032 15.9178 11.4764 15.4277 12.986C16.1265 12.986 16.7528 13.0314 17.3064 13.0314C17.8601 13.0314 18.7041 12.986 19.5482 12.9041L19.6118 12.986C19.4666 13.2315 19.3214 13.5043 19.1671 13.7862C18.4228 13.7225 17.4789 13.6953 16.3353 13.6953H15.1917C14.4777 15.7989 13.9694 17.363 13.6668 18.3876C14.5715 18.4801 15.4803 18.5256 16.3897 18.524C16.9628 18.5289 17.5357 18.4985 18.1051 18.4331C18.2393 18.4294 18.3705 18.3918 18.4864 18.3239C18.587 18.2509 18.6681 18.1541 18.7223 18.042C18.7859 17.9511 19.0037 17.451 19.394 16.5416H19.8749L19.5755 17.451C19.3939 17.9784 19.2125 18.5604 19.0582 19.1878C18.6307 19.2426 18.2002 19.2699 17.7693 19.2697H16.5259C15.3369 19.2697 14.4202 19.2151 13.803 19.2151C12.8863 19.2151 11.9787 19.2424 11.071 19.2879Z" fill="#2C3C7A"/>
<path d="M20.4286 0.291016L20.9277 1.81875H22.5342L21.2363 2.76449L21.7264 4.29223L20.4286 3.34649L19.1306 4.29223L19.6299 2.76449L18.3319 1.81875H19.9384L20.4286 0.291016Z" fill="#2C3C7A"/>
<path d="M26.2009 4.01953L26.7 5.54727H28.3065L27.0087 6.49301L27.4987 8.02074L26.2009 7.075L24.903 8.02074L25.4022 6.49301L24.1042 5.54727H25.7108L26.2009 4.01953Z" fill="#2C3C7A"/>
<path d="M29.1053 9.66675L29.6046 11.1945H31.211L29.9131 12.1402L30.4033 13.668L29.1053 12.7222L27.8074 13.668L28.3066 12.1402L27.0088 11.1945H28.6152L29.1053 9.66675Z" fill="#2C3C7A"/>
<path d="M28.7788 15.9139L29.2689 17.4417H30.8753L29.5775 18.3874L30.0766 19.9152L28.7788 18.9694L27.4808 19.9152L27.971 18.3874L26.673 17.4417H28.2795L28.7788 15.9139Z" fill="#2C3C7A"/>
<path d="M25.5929 20.6973L26.0921 22.225H27.6895L26.3916 23.1707L26.8908 24.6985L25.5929 23.7527L24.2949 24.6985L24.7942 23.1707L23.4872 22.225H25.0936L25.5929 20.6973Z" fill="#2C3C7A"/>
<path d="M19.9567 24.0892L20.4467 25.617H22.0532L20.7554 26.5627L21.2545 28.0904L19.9567 27.1447L18.6587 28.0904L19.1489 26.5627L17.851 25.617H19.4575L19.9567 24.0892Z" fill="#2C3C7A"/>
<path d="M12.8136 0.291016L12.3144 1.81875H10.717L12.0149 2.76449L11.5157 4.29223L12.8136 3.34649L14.1115 4.29223L13.6124 2.76449L14.9102 1.81875H13.3128L12.8136 0.291016Z" fill="#2C3C7A"/>
<path d="M7.04136 4.01953L6.54213 5.54727H4.9447L6.24265 6.49301L5.74341 8.02074L7.04136 7.075L8.3392 8.02074L7.83996 6.49301L9.13791 5.54727H7.54049L7.04136 4.01953Z" fill="#2C3C7A"/>
<path d="M4.13671 9.66675L3.63758 11.1945H2.04016L3.338 12.1402L2.83887 13.668L4.13671 12.7222L5.43466 13.668L4.93542 12.1402L6.23337 11.1945H4.63595L4.13671 9.66675Z" fill="#2C3C7A"/>
<path d="M4.46337 15.9139L3.97333 17.4417H2.36682L3.66466 18.3874L3.17462 19.9152L4.46337 18.9694L5.7704 19.9152L5.27117 18.3874L6.56912 17.4417H4.96261L4.46337 15.9139Z" fill="#2C3C7A"/>
<path d="M7.64928 20.6973L7.15913 22.225H5.55273L6.85057 23.1707L6.35145 24.6985L7.64928 23.7527L8.94723 24.6985L8.45708 23.1707L9.75503 22.225H8.14852L7.64928 20.6973Z" fill="#2C3C7A"/>
<path d="M13.2946 24.0892L12.7955 25.617H11.189L12.4869 26.5627L11.9968 28.0904L13.2946 27.1447L14.5925 28.0904L14.0933 26.5627L15.3913 25.617H13.7848L13.2946 24.0892Z" fill="#2C3C7A"/>
</g>
<defs>
<clipPath id="clip0_150_12">
<rect width="96" height="27" fill="white" transform="translate(2 1)"/>
</clipPath>
</defs>
</svg>
