<svg width="62" height="62" viewBox="0 0 62 62" fill="none" xmlns="http://www.w3.org/2000/svg">
<g clip-path="url(#clip0_4_200)">
<path d="M30.7966 1.49726C36.5941 1.49726 42.2614 3.21633 47.0818 6.43726C51.9023 9.65819 55.6594 14.2361 57.878 19.5923C60.0966 24.9485 60.6771 30.8424 59.5461 36.5286C58.415 42.2147 55.6233 47.4377 51.5239 51.5372C47.4244 55.6367 42.2014 58.4283 36.5152 59.5594C30.8291 60.6904 24.9352 60.1101 19.579 57.8915C14.2228 55.6729 9.64485 51.9156 6.42392 47.0952C3.20299 42.2747 1.48376 36.6075 1.48376 30.8099C1.49438 23.0402 4.58647 15.5918 10.0818 10.099C15.5771 4.60623 23.0269 1.51771 30.7966 1.51063M30.7966 0.0134277C24.7162 0.0134277 18.7723 1.8165 13.7166 5.19459C8.66095 8.57267 4.7206 13.374 2.39373 18.9915C0.0668693 24.6091 -0.541952 30.7905 0.644273 36.7541C1.8305 42.7176 4.75842 48.1955 9.0579 52.495C13.3574 56.7945 18.8353 59.7225 24.7988 60.9088C30.7624 62.095 36.9438 61.4862 42.5613 59.1593C48.1789 56.8324 52.9804 52.8919 56.3585 47.8363C59.7365 42.7806 61.5396 36.8368 61.5396 30.7564C61.5396 22.6029 58.3006 14.7833 52.5352 9.01788C46.7697 3.25245 38.9502 0.0134277 30.7966 0.0134277Z" fill="#00517E"/>
<path d="M34.2049 50.4185V33.2561H39.9258L41.0218 26.145H34.2049V21.547C34.1556 21.0157 34.227 20.4802 34.4138 19.9803C34.6005 19.4805 34.8977 19.0292 35.2833 18.6603C35.6688 18.2915 36.1329 18.0145 36.6405 17.85C37.1481 17.6856 37.6863 17.6379 38.2149 17.7107H41.316V11.6556C39.4983 11.369 37.6622 11.2128 35.8222 11.188C30.2083 11.188 26.5459 14.583 26.5459 20.7449V26.0915H20.3037V33.2026H26.5459V50.365L34.2049 50.4185Z" fill="#00517E"/>
</g>
<defs>
<clipPath id="clip0_4_200">
<rect width="61.6063" height="61.6063" fill="white"/>
</clipPath>
</defs>
</svg>
