<svg width="100" height="30" viewBox="0 0 100 30" fill="none" xmlns="http://www.w3.org/2000/svg">
<g clip-path="url(#clip0_150_15)">
<path d="M66.6179 23.3589L64.6817 14.3942H57.9316L61.2337 29.7245H64.9337H67.9971H68.1695L72.2275 14.3942H68.9917L66.6179 23.3589Z" fill="#EC2227"/>
<path d="M18.6643 14.3942H17.2321V29.7245H23.4384V23.5313H27.019V20.574H23.4384V17.3382H27.019V14.3942H23.4384H18.6643Z" fill="#EC2227"/>
<path d="M29.6315 14.3942V29.7245H35.8512H39.392V26.7671H35.8512V23.5313H39.392V20.574H35.8512V17.3382H39.392V14.3942H35.8512H29.6315Z" fill="#EC2227"/>
<path d="M83.2876 17.3382V14.3942H79.5213H73.5271H73.3017V29.7245H73.5271H79.5213H83.2876V26.7671H79.5213V23.5313H83.2876V20.574H79.5213V17.3382H83.2876Z" fill="#EC2227"/>
<path d="M57.3879 18.8632C57.3793 18.005 57.1811 17.1594 56.8074 16.3867C56.4337 15.6141 55.8937 14.9338 55.2263 14.3943H41.8455V29.7243H48.0518V23.2263H48.6884L51.102 29.7243H57.3084L54.8947 23.2263H55.2263C55.8802 22.6982 56.4121 22.0349 56.7852 21.2818C57.1583 20.5286 57.3639 19.7034 57.3879 18.8632ZM48.2507 17.1259H51.7385C52.1061 17.6208 52.306 18.2202 52.3088 18.8367C52.2984 19.4356 52.0987 20.0158 51.7385 20.4944H48.2507V17.1259Z" fill="#EC2227"/>
<path d="M67.5595 10.8133C66.899 10.5475 66.2009 10.3866 65.4907 10.336C62.9312 10.1371 58.5151 10.5748 57.5338 10.336C57.3873 10.295 57.2517 10.2227 57.136 10.124C57.0212 9.9751 56.9394 9.80343 56.8959 9.62052C56.8525 9.43761 56.8484 9.24759 56.884 9.06299C56.7644 7.97204 56.4242 6.91689 55.8839 5.96163C55.3435 5.00637 54.6144 4.17073 53.741 3.50618C52.7882 2.93344 51.7259 2.56703 50.6226 2.42998C49.5194 2.29293 48.3998 2.38849 47.3358 2.71068C46.1745 3.02149 45.0876 3.56262 44.1397 4.302C43.7569 4.58398 43.2883 4.72464 42.8135 4.69991C42.382 4.63733 41.9821 4.43746 41.6731 4.12976C39.9623 2.69751 39.843 2.41885 39.1666 1.96796C38.4693 1.48307 37.663 1.17797 36.8193 1.07955C36.0405 0.987868 35.2516 1.11175 34.5384 1.43763C33.862 1.75591 34.1803 1.84874 32.8541 2.76378C32.7253 2.83246 32.6119 2.9266 32.5207 3.0406C32.4295 3.15461 32.3624 3.28609 32.3236 3.42686C32.3078 3.51901 32.3078 3.61314 32.3236 3.7053C32.4762 3.83133 32.6405 3.94236 32.8143 4.03683C34.1405 4.79274 35.1218 4.12967 36.2755 4.36837C38.1985 4.79274 37.6017 7.12676 40.254 8.34682C40.9722 8.58829 41.5703 9.09631 41.925 9.76589C41.9968 9.92419 42.0339 10.0959 42.0339 10.2697C42.0339 10.4435 41.9968 10.6155 41.925 10.7738C41.7393 11.0788 41.368 11.1715 40.8243 11.3041C40.2806 11.4367 40.0684 11.3836 39.7899 11.5958C39.5114 11.808 39.286 12.06 39.3656 12.2456C39.4451 12.4313 39.8032 12.3784 40.9967 12.3784C42.1903 12.3784 42.3228 12.3783 42.588 12.2722C42.8533 12.1661 42.8135 12.0866 43.4235 11.3705C43.8551 10.7996 44.3588 10.2867 44.9221 9.84522C45.1528 9.66474 45.4131 9.52589 45.6913 9.43436C46.1793 9.28238 46.7019 9.28238 47.1899 9.43436C48.9139 9.93829 50.5052 11.1981 50.3858 11.4236C50.2664 11.649 50.3859 11.4236 50.1206 11.4236C48.9536 11.4236 48.7944 11.4236 48.5292 11.4236C48.2639 11.4236 47.9987 11.8745 48.065 12.0867C48.1313 12.2988 48.3967 12.4048 51.1551 12.2854C52.2082 12.3093 53.26 12.1979 54.2848 11.9539C54.8717 11.6396 55.4894 11.3862 56.1281 11.1979C56.7038 11.079 57.2945 11.0524 57.8786 11.1186C60.1065 11.3043 62.2681 11.8346 64.5093 11.9672C65.9544 12.0578 67.4043 12.0356 68.8459 11.9008C69.0846 11.9008 69.2569 11.901 69.2834 11.7684C69.31 11.6358 68.3685 11.1448 67.5595 10.8133ZM35.2942 2.93603C35.2211 2.93603 35.1487 2.9216 35.0812 2.89361C35.0136 2.86562 34.9521 2.82457 34.9003 2.77285C34.8486 2.72113 34.8077 2.65976 34.7797 2.59219C34.7518 2.52461 34.7373 2.45229 34.7373 2.37915C34.7373 2.306 34.7518 2.23368 34.7797 2.16611C34.8077 2.09853 34.8486 2.03684 34.9003 1.98512C34.9521 1.9334 35.0136 1.89267 35.0812 1.86468C35.1487 1.83669 35.2211 1.82227 35.2942 1.82227C35.4419 1.82227 35.5836 1.88067 35.6881 1.98512C35.7925 2.08958 35.8512 2.23143 35.8512 2.37915C35.8512 2.52687 35.7925 2.66839 35.6881 2.77285C35.5836 2.8773 35.4419 2.93603 35.2942 2.93603Z" fill="#84837F"/>
</g>
<defs>
<clipPath id="clip0_150_15">
<rect width="66.5197" height="28.7244" fill="white" transform="translate(17 1)"/>
</clipPath>
</defs>
</svg>
