<svg width="100" height="30" viewBox="0 0 100 30" fill="none" xmlns="http://www.w3.org/2000/svg">
<g clip-path="url(#clip0_150_16)">
<path d="M57.5485 10.0293C57.5485 10.0293 55.2859 13.5959 55.1476 13.8956C55.0093 14.0721 54.8289 14.2128 54.6223 14.3055C54.4156 14.3981 54.1889 14.44 53.9619 14.4272C53.5937 14.4572 53.2236 14.4572 52.8553 14.4272L54.9993 10.9282C54.9993 10.9282 55.2957 10.4352 55.4341 10.2226C56.1289 10.0809 56.8407 10.0354 57.5485 10.0874M83 5.75723H70.1557C69.8925 5.7379 69.6283 5.7379 69.3652 5.75723H60.473L60.147 6.24051C59.5494 5.89701 58.8634 5.72923 58.1709 5.75723H52.4898C52.2366 5.7381 51.9822 5.7381 51.729 5.75723L54.6338 1.06934H46.5912H40.0703C35.6835 1.06934 33.7173 3.14733 32.67 4.82914L32.0871 5.73788H29.5281L26.1095 11.3246H28.4215L23.9062 18.5738H32.8479L37.3335 11.3246H39.3886L34.8239 18.5835H43.7754L44.388 17.6169C45.1477 18.2378 46.1052 18.5797 47.0951 18.5835H51.9464C52.2162 18.598 52.4867 18.598 52.7566 18.5835H61.4215L62.0341 17.6169C62.7938 18.2378 63.7513 18.5797 64.7412 18.5835H74.9475L78.5539 12.7841H70.0173L70.5805 11.9141H70.6694C70.7484 11.9141 70.8572 11.9141 70.9757 11.9141H79.1071L83 5.75723Z" fill="white"/>
<path d="M70.0173 11.6143C70.2446 11.2277 70.4521 11.2278 71.0054 11.2278H78.376L81.4191 6.39502H70.1557C69.3646 6.40838 68.5847 6.57942 67.8634 6.89765L68.1697 6.39502H60.8583L60.3149 7.18766C60.0416 6.91171 59.7097 6.69761 59.3427 6.56067C58.9757 6.42374 58.5825 6.36723 58.1907 6.39502H52.5096C51.7185 6.40838 50.9386 6.57942 50.2174 6.89765L50.5236 6.39502H39.7739C39.8862 6.19484 40.0503 6.02693 40.2497 5.9082C40.4491 5.78947 40.6768 5.72413 40.9101 5.71848H50.9781L53.458 1.7168H46.3245H40.0901C35.9799 1.7168 34.2212 3.64998 33.2529 5.16747L32.4724 6.38534H29.9332L27.315 10.6575H29.6467L25.1314 17.9066H32.4922L36.9778 10.6575H40.6038L36.0491 17.9163H43.4099L44.2991 16.4858C44.6211 16.9234 45.0436 17.2808 45.5327 17.5293C46.0219 17.7778 46.5638 17.9104 47.1149 17.9163H51.9661C52.6363 17.9127 53.3023 17.8119 53.9422 17.6169L53.8137 17.9163H61.0658L61.9551 16.4858C62.2771 16.9234 62.6996 17.2808 63.1887 17.5293C63.6778 17.7778 64.2198 17.9104 64.7709 17.9163H74.1967L76.9928 13.4606H69.8C68.8811 13.4606 68.9404 13.3156 69.0293 13.1512C69.0194 13.1609 70.0075 11.6433 70.0173 11.6143ZM50.2569 4.91616H45.3167L46.8679 2.45139H51.7488L50.2569 4.91616ZM36.2566 9.86505L31.7709 17.1142H26.7221L31.2374 9.86505H28.8958L30.5754 7.11994H33.1048L34.1719 5.45749C35.071 4.02698 36.5628 2.45139 40.0505 2.45139H45.7416L44.1805 4.91616H40.8706C39.1811 4.91616 38.6179 6.19204 38.0646 7.11994H42.7479L41.009 9.86505H36.2566ZM42.6886 17.1239H37.6398L43.9335 7.11994H48.8736L42.6886 17.1239ZM60.3347 17.1239H55.1871L55.8095 15.6741C54.7438 16.6116 53.3599 17.1283 51.9266 17.1239H47.0754C45.8207 17.1239 44.6054 15.8963 45.0994 15.065L48.8736 8.94663C49.2873 8.3949 49.8249 7.94351 50.4449 7.62681C51.065 7.31012 51.751 7.13667 52.4503 7.11994H58.1314C58.6286 7.15143 59.1035 7.33273 59.491 7.63908C59.8785 7.94544 60.1594 8.36183 60.2951 8.83076L61.4512 7.11994H66.4901L60.3347 17.1239ZM68.0314 12.7937C67.3398 13.8666 68.1994 14.1759 69.4739 14.1952H75.323L73.4853 17.0949H64.7215C63.4766 17.0949 62.2515 15.8672 62.7455 15.036L66.5099 8.91784C66.9236 8.36611 67.4611 7.91448 68.0811 7.59779C68.7012 7.2811 69.3872 7.10764 70.0865 7.09091H79.8383L77.7437 10.4448H71.0745C70.6734 10.3806 70.2618 10.4389 69.8958 10.6119C69.5298 10.7849 69.2272 11.0641 69.0293 11.4114C69.0293 11.4114 68.0808 12.7647 68.071 12.7937H68.0314Z" fill="#1C4891"/>
<path d="M57.6769 8.6859H56.2937C55.7846 8.6191 55.2665 8.68283 54.7902 8.87091C54.3138 9.05899 53.8956 9.36484 53.5766 9.75865L51.1164 13.7023C50.5137 14.6688 51.6302 15.7029 52.9245 15.7029H53.9916C54.53 15.7315 55.0672 15.6292 55.5552 15.4048C56.0431 15.1805 56.4666 14.8413 56.7877 14.4175L59.3368 10.3868C59.9296 9.20762 59.0898 8.6859 57.6769 8.6859ZM58.2203 10.4062L55.8293 14.0791C55.619 14.3581 55.3406 14.5812 55.0197 14.7281C54.6987 14.8749 54.3453 14.9411 53.9916 14.9202H52.9245C52.3119 14.9202 51.8179 14.4079 52.0748 13.9536L54.535 10.0003C54.8314 9.52668 55.4143 9.3818 56.2937 9.3818H57.3509C58.3092 9.43013 58.6056 9.74891 58.2203 10.4062Z" fill="#1C4891"/>
<path d="M42.7874 7.12009H38.1042C38.6575 6.15353 39.2206 4.91631 40.9102 4.91631H44.2695L45.8306 2.45154H40.1395C36.6518 2.45154 35.1994 4.02713 34.2608 5.45764L33.1937 7.12009H30.6644L28.9848 9.86519H31.3264L26.8111 17.1144H31.8599L36.3455 9.86519H41.0979L42.7874 7.12009Z" fill="white"/>
<path d="M43.9632 7.12L37.6793 17.1239H42.7281L48.8934 7.12H43.9632Z" fill="white"/>
<path d="M50.2865 4.91628L51.8278 2.44189L46.947 2.45156L45.3859 4.91628H50.2865Z" fill="white"/>
<path d="M61.5105 7.12L60.3545 8.83082C60.2187 8.36189 59.9378 7.9455 59.5503 7.63914C59.1628 7.33278 58.6879 7.15149 58.1907 7.12H52.5096C51.8103 7.13673 51.1243 7.31018 50.5042 7.62687C49.8842 7.94356 49.3466 8.39495 48.9329 8.94668L45.1587 15.0651C44.6449 15.8963 45.8602 17.124 47.1347 17.124H51.9859C53.4192 17.1284 54.8031 16.6117 55.8688 15.6741L55.2464 17.124H60.394L66.5692 7.12H61.5105ZM59.3368 10.3677L56.7877 14.3982C56.4666 14.8219 56.0432 15.1612 55.5552 15.3855C55.0672 15.6099 54.53 15.7124 53.9916 15.6838H52.9245C51.6302 15.6838 50.5137 14.6495 51.1164 13.683L53.5766 9.73933C53.8957 9.34551 54.3139 9.03967 54.7902 8.85159C55.2665 8.6635 55.7846 8.59977 56.2937 8.66658H57.6769C59.0898 8.68591 59.9296 9.20786 59.3368 10.3677Z" fill="white"/>
<path d="M70.1557 7.12C69.4565 7.13673 68.7704 7.31018 68.1504 7.62687C67.5303 7.94356 66.9928 8.39495 66.5791 8.94668L62.8147 15.0651C62.2911 15.8963 63.5162 17.124 64.7908 17.124H73.5545L75.3922 14.2243H69.5431C68.2686 14.2243 67.409 13.8955 68.1006 12.8226L69.0096 11.4695C69.2075 11.1222 69.5101 10.843 69.8761 10.67C70.2421 10.497 70.6537 10.4387 71.0548 10.5029H77.724L79.8186 7.14902L70.1557 7.12Z" fill="white"/>
<path d="M32.8479 21.338H39.4676L37.5805 24.402H32.2254H32.2649H20.8434L22.7404 21.338H32.8479Z" fill="#A1CCDE"/>
<path d="M49.338 21.338H55.9577L54.0706 24.402H48.7155H48.755H37.5706L39.4676 21.338H49.338Z" fill="#1EBAED"/>
<path d="M65.8281 21.338H72.7739L70.8769 24.402H65.2056H65.2452H54.0607L55.9577 21.338H65.8281Z" fill="#1C4891"/>
<path d="M65.6009 21.338H72.7739L70.8769 24.4019H20.8533L22.7404 21.338H65.6009ZM65.6009 20.7582H22.4045L22.2266 21.0383L20.3395 24.1121L19.7961 24.9819H71.1733L71.3413 24.7016L73.2383 21.6377L73.7718 20.7582H65.5515H65.6009Z" fill="white"/>
<path d="M18.3338 29.4283L17.7212 29.9597H17L20.2704 27.1471H21.2584L20.3988 29.9597H19.6973L19.8553 29.4283H18.3338ZM20.4976 27.5626L18.808 29.0222H20.0431L20.4976 27.5626Z" fill="#1C4891"/>
<path d="M21.6832 29.9597H20.9916L23.0664 27.1471H23.758L21.6832 29.9597Z" fill="#1C4891"/>
<path d="M23.926 29.0318L23.2344 29.9984H22.5527L24.6176 27.1858H26.4553C27.2359 27.1858 27.394 27.3983 26.9197 28.0362C26.8001 28.2557 26.6262 28.4425 26.414 28.5792C26.2017 28.716 25.9578 28.7984 25.7045 28.8192C26.1688 28.8192 26.1293 29.061 25.8427 29.4573L25.4476 29.979H24.7658L25.1512 29.4573C25.3191 29.2253 25.3191 29.0512 24.9931 29.0512L23.926 29.0318ZM25.1709 28.5679C25.3661 28.5928 25.5644 28.5601 25.7404 28.474C25.9164 28.3879 26.0622 28.2523 26.1589 28.0846C26.4553 27.6787 26.4158 27.611 25.9218 27.611H24.9338L24.2224 28.5776L25.1709 28.5679Z" fill="#1C4891"/>
<path d="M31.7512 28.0943L31.8598 27.9397C32.097 27.6111 31.9586 27.5917 31.3559 27.5917C31.0988 27.5479 30.834 27.5865 30.6009 27.7014C30.3678 27.8163 30.1787 28.0015 30.0616 28.2297L29.6071 28.8482C29.1921 29.4185 29.202 29.5248 29.9233 29.5248C30.4766 29.5248 30.7434 29.5248 31.0398 29.1092L31.1484 28.9547H31.8401L31.7018 29.1383C31.0892 29.9888 30.4964 29.95 29.5874 29.9887C28.2931 29.9887 28.3029 29.6988 28.8958 28.8773L29.37 28.2297C29.6114 27.8505 29.9575 27.5457 30.3683 27.3507C30.7792 27.1558 31.238 27.0785 31.6919 27.1277C32.591 27.1277 33.0949 27.1278 32.5515 27.9397L32.4329 28.0943H31.7512Z" fill="#1C4891"/>
<path d="M36.0886 28.1522L35.5254 28.9158C35.2855 29.2947 34.9385 29.5976 34.5266 29.788C34.1146 29.9784 33.6551 30.0479 33.2036 29.9886C32.0871 29.9886 31.7907 29.8341 32.4724 28.9158L33.0356 28.1522C33.2675 27.7799 33.6075 27.4835 34.0122 27.301C34.417 27.1186 34.8681 27.0582 35.308 27.1276C36.3652 27.1276 36.7505 27.2533 36.0886 28.1522ZM33.7272 28.1522L33.1641 28.9158C32.7491 29.4668 32.8479 29.5246 33.5395 29.5246C33.793 29.5649 34.053 29.5283 34.2845 29.4194C34.516 29.3105 34.7077 29.1347 34.8338 28.9158L35.397 28.1522C35.8021 27.6303 35.5847 27.5915 34.9722 27.5915C34.3596 27.5915 34.0632 27.7076 33.7272 28.1522Z" fill="#1C4891"/>
<path d="M37.9165 29.9597H37.3039L37.8967 27.6013L36.217 29.9597H35.5255L37.6003 27.1471H38.7069L38.1437 29.2348L40.6434 27.1471H41.7697L39.6949 29.9597H39.0033L40.8114 27.5917L37.9165 29.9597Z" fill="#1C4891"/>
<path d="M42.6194 27.1471H44.2101C45.1982 27.1471 45.3563 27.3307 44.7832 28.1137C44.5897 28.449 44.2982 28.7202 43.9461 28.8924C43.5941 29.0646 43.1975 29.13 42.8072 29.0802H41.908L41.2362 29.9887H40.5446L42.6194 27.1471ZM43.153 28.5873C43.3477 28.6216 43.5487 28.5941 43.7264 28.5089C43.9041 28.4237 44.0494 28.2853 44.141 28.1137C44.4275 27.7174 44.4473 27.611 43.9236 27.611H43.0245L42.3033 28.5776L43.153 28.5873Z" fill="#1C4891"/>
<path d="M45.4946 29.0318L44.8128 29.9984H44.1212L46.1961 27.1858H48.0239C48.8045 27.1858 49.012 27.3983 48.4982 28.0362C48.3756 28.2553 48.1996 28.4415 47.9859 28.578C47.7722 28.7146 47.5273 28.7974 47.273 28.8192C47.7374 28.8192 47.7078 29.061 47.4114 29.4573L47.026 29.979H46.3344L46.7197 29.4573C46.8976 29.2253 46.8877 29.0512 46.5617 29.0512L45.4946 29.0318ZM46.7494 28.5679C46.9446 28.5928 47.1429 28.5601 47.3189 28.474C47.4949 28.3879 47.6407 28.2523 47.7374 28.0846C48.0338 27.6787 47.9943 27.611 47.5003 27.611H46.5123L45.8009 28.5776L46.7494 28.5679Z" fill="#1C4891"/>
<path d="M49.7233 28.3166H51.4029L51.0769 28.7515H49.3973L48.844 29.5054H50.6323L50.2865 29.9597H47.8165L49.8913 27.1471H52.3515L52.0057 27.611H50.1976L49.7233 28.3166Z" fill="#1C4891"/>
<path d="M52.2823 29.0704L52.1835 29.1962C51.9464 29.5151 52.1045 29.544 52.7368 29.544C53.3691 29.544 53.5173 29.4474 53.7248 29.1284C53.9323 28.8095 53.7248 28.7803 53.1913 28.7513C52.4404 28.7513 51.808 28.7515 52.4107 27.9202C52.6469 27.6123 52.9663 27.375 53.3328 27.235C53.6994 27.0949 54.0986 27.0577 54.4856 27.1276C55.2168 27.1276 55.7997 27.1276 55.2562 27.8815L55.1871 27.9783H54.4954L54.5646 27.8815C54.7919 27.5819 54.6437 27.5722 54.1595 27.5722C53.4679 27.5722 53.3197 27.6206 53.1024 27.9202C52.885 28.2199 52.9344 28.2778 53.6063 28.3164C54.6733 28.3648 54.9401 28.4132 54.4164 29.1284C54.1969 29.4497 53.8869 29.7019 53.5239 29.8545C53.161 30.0072 52.7606 30.0537 52.3712 29.9886C51.5808 29.9886 50.8596 29.9887 51.4524 29.1962L51.5512 29.0704H52.2823Z" fill="#1C4891"/>
<path d="M55.7602 29.0705L55.6614 29.1963C55.4243 29.5152 55.5922 29.5441 56.2245 29.5441C56.8569 29.5441 57.0051 29.4475 57.2125 29.1285C57.42 28.8096 57.2126 28.7804 56.679 28.7514C55.9281 28.7514 55.3057 28.7516 55.9084 27.9203C56.143 27.6132 56.4606 27.3763 56.8254 27.2362C57.1903 27.0962 57.5878 27.0586 57.9733 27.1277C58.7144 27.1277 59.2973 27.1277 58.7539 27.8816L58.6847 27.9784H57.9931L58.0623 27.8816C58.2797 27.582 58.1314 27.5723 57.6473 27.5723C56.9655 27.5723 56.8173 27.6207 56.5901 27.9203C56.3628 28.22 56.4221 28.2779 57.094 28.3165C58.1611 28.3649 58.4377 28.4133 57.9042 29.1285C57.6918 29.4546 57.3843 29.711 57.0214 29.8643C56.6586 30.0177 56.2571 30.0609 55.8688 29.9887C55.0685 29.9887 54.3473 29.9888 54.95 29.1963L55.0389 29.0705H55.7602Z" fill="#1C4891"/>
<path d="M62.3108 28.1522L61.7476 28.9158C61.5076 29.2947 61.1608 29.5976 60.7488 29.788C60.3368 29.9784 59.8773 30.0479 59.4258 29.9886C58.3093 29.9886 58.0128 29.8341 58.6946 28.9158L59.2578 28.1522C59.4896 27.7799 59.8296 27.4835 60.2344 27.301C60.6391 27.1186 61.0902 27.0582 61.5302 27.1276C62.5676 27.1276 62.9728 27.2533 62.3108 28.1522ZM59.9494 28.1522L59.3862 28.9158C58.9712 29.4668 59.0799 29.5246 59.7617 29.5246C60.0152 29.5649 60.2752 29.5283 60.5067 29.4194C60.7381 29.3105 60.9299 29.1347 61.056 28.9158L61.6191 28.1522C62.0242 27.6303 61.8069 27.5915 61.1943 27.5915C60.5817 27.5915 60.2853 27.7076 59.9494 28.1522Z" fill="#1C4891"/>
<path d="M63.0913 29.0318L62.3997 29.9984H61.7081L63.783 27.1858H65.6207C66.4012 27.1858 66.5593 27.3983 66.0851 28.0362C65.9655 28.2557 65.7916 28.4425 65.5793 28.5792C65.367 28.716 65.123 28.7984 64.8698 28.8192C65.3242 28.8192 65.2946 29.061 65.0081 29.4573L64.6129 29.979H63.9312L64.3165 29.4573C64.4844 29.2253 64.4845 29.0512 64.1584 29.0512L63.0913 29.0318ZM64.3362 28.5679C64.5314 28.5928 64.7297 28.5601 64.9058 28.474C65.0818 28.3879 65.2275 28.2523 65.3243 28.0846C65.6207 27.6787 65.5812 27.611 65.0872 27.611H64.0991L63.3877 28.5776L64.3362 28.5679Z" fill="#1C4891"/>
<path d="M66.6482 29.0704L66.5494 29.1962C66.3122 29.5152 66.4703 29.544 67.1125 29.544C67.7548 29.544 67.8931 29.4474 68.1006 29.1285C68.308 28.8095 68.1006 28.7804 67.5671 28.7514C66.8162 28.7514 66.1838 28.7515 66.7865 27.9203C67.0234 27.6132 67.3429 27.3766 67.7092 27.2367C68.0755 27.0967 68.4744 27.0589 68.8614 27.1276C69.5925 27.1276 70.1853 27.1277 69.632 27.8816L69.5727 27.9783H68.8811L68.9502 27.8816C69.1676 27.5819 69.0194 27.5722 68.5353 27.5722C67.8536 27.5722 67.7053 27.6206 67.4781 27.9203C67.2509 28.2199 67.3101 28.2778 67.982 28.3165C69.0491 28.3648 69.3158 28.4132 68.7922 29.1285C68.5742 29.449 68.266 29.7007 67.9048 29.8534C67.5435 30.0061 67.1448 30.053 66.7569 29.9886C65.9566 29.9886 65.2353 29.9888 65.8281 29.1962L65.9269 29.0704H66.6482Z" fill="#1C4891"/>
<path d="M22.4045 20.7582L19.7961 24.9819H71.1733L73.7718 20.7582H22.4045ZM20.8533 24.4019L22.7404 21.338H39.023L37.047 24.4019H20.8533ZM37.7287 24.4019L39.7048 21.338H55.8985L53.9225 24.4019H37.7287ZM70.8769 24.4019H54.6239L56.6 21.338H72.7641L70.8769 24.4019Z" fill="white"/>
</g>
<defs>
<clipPath id="clip0_150_16">
<rect width="66" height="29" fill="white" transform="translate(17 1)"/>
</clipPath>
</defs>
</svg>
