<svg width="228" height="184" viewBox="0 0 228 184" fill="none" xmlns="http://www.w3.org/2000/svg">
<g clip-path="url(#clip0_4_42)">
<path d="M26.4469 95.9225L23.4288 102.156H0.971497L17.9009 66.864L26.4469 95.9225Z" fill="#00517E"/>
<path d="M80.1412 62.8604L71.7578 92.2939L49.9813 47.3734L28.2048 92.2939L19.8214 62.8604L49.9813 0L80.1412 62.8604Z" fill="#F8F8F8"/>
<path d="M98.9912 102.156H76.5338L73.5158 95.9225L82.0618 66.864L98.9912 102.156Z" fill="#00517E"/>
<path d="M108.594 85.3913V16.845H92.3353V83.0601L101.481 102.155H122.038V85.3913H108.594Z" fill="#00517E"/>
<path d="M142.209 85.8983V66.6409H158.254V50.4241H125.899V102.217H164.951V85.9998L142.209 85.8983ZM125.798 16.8554V47.6774H142.056V31.4606H164.859V16.825L125.798 16.8554Z" fill="#00517E"/>
<path d="M211.603 16.8452H195.172L189.654 33.8526L184.258 16.8452H167.837L181.504 59.4953L167.837 102.156H184.258L189.654 85.27L195.172 102.156H211.603L197.936 59.4953L211.603 16.8452Z" fill="#00517E"/>
<path d="M227.963 102.156H222.385L220.535 98.3447L218.686 102.156H213.107L219.001 89.8714L220.535 86.6584L222.07 89.8714L227.963 102.156Z" fill="#F8F8F8"/>
<path d="M81.7772 183.493C81.2102 183.503 80.6501 183.367 80.1514 183.098C79.6786 182.833 79.2909 182.439 79.0336 181.963L79.6941 181.101C79.921 181.505 80.2373 181.851 80.6188 182.115C80.961 182.344 81.365 182.464 81.7772 182.459C82.0261 182.463 82.2726 182.411 82.4987 182.307C82.7157 182.21 82.8994 182.051 83.0271 181.851C83.1561 181.637 83.223 181.391 83.2202 181.142C83.2309 180.918 83.1586 180.698 83.017 180.524C82.8553 180.351 82.6575 180.216 82.4377 180.128L81.4825 179.733C81.175 179.612 80.8763 179.47 80.5883 179.307C80.3133 179.162 80.0739 178.958 79.8872 178.709C79.6879 178.448 79.5872 178.125 79.6026 177.797C79.5979 177.414 79.7114 177.039 79.9278 176.723C80.1625 176.407 80.4737 176.156 80.8322 175.993C81.2455 175.814 81.6923 175.724 82.1431 175.73C82.5408 175.731 82.9343 175.81 83.3015 175.963C83.672 176.138 84.0145 176.366 84.3177 176.642L83.7588 177.493C83.5561 177.253 83.3045 177.058 83.0208 176.921C82.737 176.785 82.4274 176.711 82.1126 176.702C81.7948 176.687 81.4817 176.784 81.2285 176.976C81.1176 177.06 81.0285 177.169 80.9684 177.294C80.9083 177.419 80.879 177.557 80.883 177.696C80.8811 177.801 80.9019 177.905 80.9439 178.001C80.986 178.097 81.0484 178.183 81.1269 178.253C81.3133 178.419 81.5262 178.553 81.7569 178.648C82.011 178.76 82.2752 178.861 82.5495 178.963C82.9167 179.102 83.2763 179.261 83.6267 179.439C83.9139 179.588 84.1613 179.804 84.3481 180.068C84.5312 180.373 84.6196 180.726 84.6022 181.081C84.6204 181.532 84.501 181.978 84.2596 182.36C84.0183 182.742 83.6665 183.041 83.2507 183.22C82.7835 183.41 82.282 183.504 81.7772 183.493Z" fill="#F8F8F8"/>
<path d="M87.7015 174.463C87.5473 174.464 87.3957 174.422 87.2646 174.341C87.1357 174.263 87.0276 174.155 86.9496 174.027C86.8694 173.892 86.8273 173.738 86.8276 173.581C86.826 173.427 86.8683 173.276 86.9496 173.145C87.028 173.019 87.1362 172.915 87.2646 172.841C87.3963 172.761 87.5475 172.719 87.7015 172.719C87.8556 172.719 88.0067 172.761 88.1385 172.841C88.2716 172.912 88.382 173.019 88.4574 173.15C88.5328 173.281 88.5701 173.43 88.5653 173.581C88.5627 173.736 88.5245 173.888 88.4535 174.027C88.3754 174.155 88.2673 174.263 88.1385 174.341C88.0073 174.422 87.8558 174.464 87.7015 174.463ZM87.0004 183.28V175.942H88.3925V183.28H87.0004Z" fill="#F8F8F8"/>
<path d="M91.3495 183.28V175.942H92.7112V176.885C92.9592 176.532 93.2909 176.247 93.6766 176.054C94.14 175.812 94.6579 175.693 95.1805 175.709C95.6972 175.7 96.2077 175.822 96.6641 176.064C97.0957 176.294 97.4493 176.647 97.6803 177.077C97.9155 177.574 98.0304 178.119 98.0156 178.669V183.27H96.6235V178.942C96.6612 178.372 96.4836 177.808 96.1255 177.361C95.9477 177.174 95.7309 177.028 95.4904 176.933C95.2498 176.839 94.9914 176.798 94.7334 176.814C94.3798 176.811 94.0309 176.894 93.7172 177.057C93.4355 177.208 93.2011 177.434 93.0397 177.709C92.8784 177.985 92.7963 178.299 92.8027 178.618V183.27L91.3495 183.28Z" fill="#F8F8F8"/>
<path d="M104.235 183.493C103.699 183.499 103.167 183.399 102.67 183.199C102.192 183.013 101.757 182.734 101.389 182.378C101.023 182.026 100.73 181.606 100.526 181.142C100.311 180.656 100.204 180.131 100.211 179.601C100.205 179.079 100.309 178.561 100.515 178.081C100.706 177.611 100.993 177.186 101.359 176.834C102.127 176.095 103.157 175.687 104.224 175.699C104.693 175.696 105.16 175.768 105.606 175.912C106.005 176.037 106.38 176.229 106.714 176.479L106.186 177.422C105.719 177.09 105.169 176.897 104.598 176.862C104.026 176.828 103.457 176.956 102.954 177.229C102.526 177.465 102.174 177.816 101.938 178.243C101.709 178.666 101.59 179.14 101.593 179.621C101.586 180.107 101.709 180.587 101.948 181.01C102.184 181.437 102.537 181.788 102.964 182.024C103.408 182.272 103.909 182.398 104.417 182.388C104.745 182.39 105.071 182.338 105.383 182.236C105.666 182.149 105.931 182.012 106.165 181.831L106.704 182.763C106.367 183.01 105.993 183.202 105.596 183.331C105.154 183.456 104.694 183.51 104.235 183.493Z" fill="#F8F8F8"/>
<path d="M112.313 183.493C111.603 183.501 110.903 183.327 110.281 182.986C109.679 182.664 109.176 182.184 108.828 181.598C108.469 181.001 108.286 180.316 108.299 179.621C108.292 179.096 108.392 178.576 108.594 178.091C108.797 177.627 109.083 177.205 109.437 176.844C109.796 176.486 110.22 176.2 110.687 176.003C111.169 175.799 111.688 175.695 112.211 175.699C112.919 175.682 113.618 175.846 114.244 176.175C114.811 176.478 115.279 176.935 115.595 177.493C115.93 178.094 116.098 178.772 116.083 179.459C116.083 179.52 116.083 179.571 116.083 179.611C116.08 179.658 116.08 179.706 116.083 179.753H109.763C109.756 180.228 109.875 180.697 110.108 181.111C110.339 181.501 110.673 181.82 111.073 182.034C111.508 182.262 111.994 182.377 112.486 182.368C112.955 182.376 113.418 182.269 113.835 182.055C114.251 181.841 114.608 181.527 114.874 181.142L115.89 181.669C115.543 182.243 115.044 182.709 114.447 183.017C113.788 183.353 113.053 183.517 112.313 183.493ZM109.732 178.729H114.62C114.561 178.359 114.407 178.009 114.173 177.716C113.947 177.429 113.654 177.203 113.319 177.057C112.966 176.893 112.581 176.81 112.191 176.814C111.79 176.809 111.391 176.888 111.023 177.047C110.688 177.192 110.394 177.419 110.169 177.706C109.938 178.008 109.788 178.364 109.732 178.74V178.729Z" fill="#F8F8F8"/>
<path d="M121.235 184V175.385H120.148V174.189H122.454V183.99L121.235 184Z" fill="#F8F8F8"/>
<path d="M126.021 184L129.07 180.392C128.72 180.631 128.305 180.755 127.881 180.747C127.454 180.747 127.032 180.662 126.64 180.497C126.247 180.331 125.891 180.089 125.594 179.784C125.295 179.477 125.057 179.116 124.893 178.719C124.715 178.289 124.625 177.827 124.629 177.361C124.619 176.765 124.77 176.177 125.066 175.659C125.35 175.156 125.769 174.742 126.275 174.463C126.843 174.157 127.48 174.003 128.125 174.016C128.776 174.005 129.419 174.159 129.994 174.463C130.52 174.751 130.959 175.174 131.265 175.689C131.573 176.211 131.731 176.807 131.722 177.412C131.722 177.698 131.695 177.983 131.641 178.263C131.59 178.521 131.512 178.773 131.407 179.013C131.3 179.253 131.174 179.483 131.031 179.703C130.879 179.926 130.706 180.148 130.523 180.371L127.474 184H126.021ZM128.176 179.682C128.48 179.684 128.781 179.622 129.06 179.5C129.334 179.38 129.583 179.208 129.791 178.993C130.001 178.777 130.166 178.522 130.279 178.243C130.403 177.959 130.465 177.651 130.462 177.341C130.467 176.93 130.365 176.525 130.167 176.165C129.978 175.824 129.696 175.543 129.354 175.354C128.996 175.151 128.588 175.049 128.176 175.06C127.757 175.05 127.343 175.152 126.976 175.354C126.636 175.549 126.352 175.828 126.153 176.165C125.947 176.523 125.842 176.929 125.848 177.341C125.842 177.76 125.947 178.172 126.153 178.537C126.352 178.883 126.64 179.17 126.987 179.368C127.347 179.578 127.758 179.687 128.176 179.682Z" fill="#F8F8F8"/>
<path d="M133.053 184L137.89 175.263H133.185V174.199H139.668V174.584L134.476 184H133.053Z" fill="#F8F8F8"/>
<path d="M144.993 184V182.145H140.075V181.679L144.932 174.199H146.131V181.081H147.279V182.145H146.131V184H144.993ZM141.68 181.081H144.993V175.851L141.68 181.081Z" fill="#F8F8F8"/>
<path d="M11.1433 170.499V168.402H13.1757V170.499H11.1433ZM7.07866 170.499V168.402H9.111V170.499H7.07866ZM8.27775 165.766C5.65603 165.766 4.21307 164.428 4.21307 161.884V154.789H6.33686V162.35C6.50961 163.475 7.02786 163.688 8.00338 163.688H12.2103C13.6939 163.688 13.8565 162.675 13.8565 162.29V161.053H9.03988V154.871C9.02112 154.328 9.11743 153.787 9.32253 153.283C9.52762 152.78 9.83688 152.326 10.2301 151.95C10.6233 151.574 11.0916 151.285 11.6045 151.102C12.1173 150.919 12.6631 150.846 13.2062 150.887H16.0006V152.965H13.1046C12.2002 152.965 11.0722 153.34 11.0722 155.134V158.986H15.8787V161.925C15.8787 164.469 14.4967 165.807 11.814 165.807L8.27775 165.766Z" fill="#00517E"/>
<path d="M18.5309 163.739C18.8608 163.783 19.1964 163.752 19.5127 163.649C19.8291 163.546 20.1181 163.373 20.3583 163.143C20.5984 162.914 20.7836 162.633 20.9 162.322C21.0164 162.011 21.0611 161.678 21.0307 161.347V150.847H23.1138V160.79C23.1138 161.175 23.1138 161.499 23.1138 161.803C23.0749 162.679 22.805 163.528 22.3314 164.266C22.0442 164.674 21.674 165.016 21.245 165.271C20.816 165.526 20.3378 165.688 19.8417 165.746H19.6385C19.3438 165.746 18.9678 165.797 18.5512 165.797L18.5309 163.739Z" fill="#00517E"/>
<path d="M38.0312 163.648H35.9277V165.766H38.0312V163.648Z" fill="#00517E"/>
<path d="M48.8127 148.242V146.215H50.8451V148.242H48.8127ZM44.748 148.242V146.215H46.7804V148.242H44.748Z" fill="#00517E"/>
<path d="M26.0607 161.023V146.174H28.0931V158.945H39.7384V155.114C39.7384 153.218 38.519 152.945 37.7975 152.945H33.8954V150.867H37.6959C38.2389 150.825 38.7847 150.898 39.2976 151.081C39.8104 151.265 40.2787 151.554 40.6719 151.929C41.0651 152.305 41.3744 152.76 41.5795 153.263C41.7846 153.766 41.8809 154.307 41.8622 154.85V158.965H48.7721V150.857H50.8044V158.965H55.1841V146.194H57.2673V161.043L26.0607 161.023Z" fill="#00517E"/>
<path d="M62.4395 146.164H60.3564V161.013H62.4395V146.164Z" fill="#00517E"/>
<path d="M69.7153 168.29C70.9855 168.006 71.392 167.388 71.392 165.837V154.789C71.3718 154.247 71.4667 153.706 71.6707 153.203C71.8746 152.7 72.1829 152.245 72.5753 151.869C72.9678 151.493 73.4355 151.204 73.9478 151.021C74.4602 150.837 75.0055 150.764 75.5481 150.806H78.6983V159.168C78.736 159.723 78.6539 160.279 78.4577 160.8C78.2615 161.321 77.9557 161.793 77.5609 162.186C77.1661 162.579 76.6915 162.883 76.169 163.077C75.6465 163.272 75.0883 163.352 74.532 163.313H73.465V165.543C73.465 168.675 72.2354 170.307 69.7153 170.499V168.29ZM75.4567 152.884C74.5523 152.884 73.4244 153.259 73.4244 155.053V161.134H74.5929C75.4973 161.134 76.5745 160.759 76.5745 158.965V152.884H75.4567Z" fill="#00517E"/>
<path d="M99.5298 148.242V146.215H101.633V148.242H99.5298ZM95.4651 148.242V146.215H97.5685V148.242H95.4651Z" fill="#00517E"/>
<path d="M109.346 148.242V146.215H111.378V148.242H109.346ZM105.281 148.242V146.215H107.314V148.242H105.281Z" fill="#00517E"/>
<path d="M81.7163 161.023V158.996H88.108V156.837C88.1638 156.316 88.1014 155.79 87.9255 155.297C87.7496 154.804 87.4647 154.357 87.0919 153.989C86.687 153.63 86.2084 153.364 85.6895 153.208C85.0626 153.044 84.4173 152.958 83.769 152.955V150.877H84.3075C85.6347 150.834 86.9411 151.213 88.0369 151.962C88.7902 152.515 89.3886 153.252 89.7746 154.102C90.1607 154.952 90.3216 155.887 90.242 156.817V158.996H96.4406L96.0138 158.367C95.8777 158.169 95.7173 157.989 95.5362 157.83C94.9528 157.068 94.6416 156.133 94.6522 155.175C94.6102 154.402 94.7908 153.634 95.1725 152.96C95.5542 152.287 96.1212 151.736 96.8064 151.374C97.6293 151.019 98.5225 150.856 99.418 150.898H102.466V159.006H109.376V150.898H111.409V159.006H115.799V146.235H117.831V159.006H122.221V146.235H124.253V161.084L81.7163 161.023ZM99.2249 152.914C97.0503 152.914 96.7251 154.262 96.7251 155.063C96.7251 156.654 97.7413 157.83 99.7736 158.55L100.322 158.732V152.914H99.2249Z" fill="#00517E"/>
<path d="M139.262 148.242V146.215H141.345V148.242H139.262ZM135.126 148.242V146.215H137.26V148.242H135.126Z" fill="#00517E"/>
<path d="M148.255 165.766V163.648H150.287V165.766H148.255ZM144.19 165.766V163.648H146.223V165.766H144.19Z" fill="#00517E"/>
<path d="M139.262 161.023V153.411L138.723 153.593C136.6 154.313 134.923 157.009 134.1 161.023H131.925C132.596 155.144 136.081 151.394 141.345 150.887V158.996H148.255V150.887H150.287V161.023H139.262Z" fill="#00517E"/>
<path d="M152.848 163.739C153.178 163.783 153.514 163.752 153.83 163.649C154.146 163.546 154.435 163.373 154.676 163.143C154.916 162.914 155.101 162.633 155.217 162.322C155.334 162.011 155.378 161.678 155.348 161.347V150.847H157.431V160.79C157.431 161.175 157.431 161.499 157.431 161.803C157.392 162.679 157.122 163.528 156.649 164.266C156.362 164.674 155.991 165.016 155.562 165.271C155.133 165.526 154.655 165.688 154.159 165.746H153.956C153.661 165.746 153.285 165.797 152.868 165.797L152.848 163.739Z" fill="#00517E"/>
<path d="M175.397 146.174H173.314V148.252H175.397V146.174Z" fill="#00517E"/>
<path d="M160.429 161.023V158.996H166.82V156.837C166.872 156.317 166.807 155.792 166.632 155.299C166.456 154.807 166.174 154.359 165.804 153.988C165.397 153.633 164.919 153.368 164.402 153.208C163.775 153.043 163.13 152.958 162.481 152.955V150.877H163.02C164.344 150.832 165.648 151.212 166.739 151.961C167.495 152.513 168.096 153.25 168.484 154.1C168.872 154.95 169.034 155.885 168.954 156.816V158.996H173.344V150.887H175.377V158.996H188.882V157.374C188.882 155.975 188.16 155.205 186.849 155.205H179.695V150.816L185.792 146.286H189.227L181.87 151.82V153.087H186.869C187.411 153.05 187.955 153.126 188.466 153.311C188.977 153.496 189.443 153.785 189.835 154.16C190.227 154.535 190.537 154.987 190.743 155.488C190.95 155.989 191.05 156.528 191.036 157.07V158.975H200.821V151.059H202.854V158.904H206.979V151.151H209.012V158.904H213.076V150.796H215.109V160.931L160.429 161.023Z" fill="#00517E"/>
<path d="M220.84 146.164H218.757V161.013H220.84V146.164Z" fill="#00517E"/>
<path d="M221.236 163.729V164.864H220.22C219.783 164.864 219.539 165.127 219.539 165.644C219.539 166.161 219.804 166.323 220.312 166.323H221.653V167.438H217.913V166.323H218.543C218.463 166.119 218.411 165.904 218.391 165.685C218.383 165.427 218.427 165.169 218.522 164.929C218.617 164.688 218.76 164.47 218.943 164.287C219.126 164.104 219.344 163.96 219.585 163.864C219.825 163.768 220.083 163.722 220.342 163.729H221.236Z" fill="#00517E"/>
<path d="M218.34 167.033V166.729H219.123L218.95 166.192C218.884 166.029 218.84 165.859 218.818 165.685C218.808 165.479 218.841 165.274 218.915 165.082C218.989 164.89 219.102 164.716 219.247 164.57C219.393 164.424 219.567 164.31 219.759 164.235C219.951 164.16 220.156 164.125 220.362 164.134H220.83V164.459H220.241C220.085 164.445 219.929 164.468 219.784 164.524C219.639 164.581 219.509 164.67 219.404 164.784C219.299 164.899 219.222 165.036 219.178 165.185C219.135 165.334 219.126 165.491 219.153 165.644C219.14 165.798 219.163 165.953 219.219 166.097C219.275 166.24 219.363 166.369 219.477 166.474C219.591 166.579 219.727 166.656 219.875 166.7C220.023 166.744 220.179 166.754 220.332 166.729H221.267V167.033H218.34Z" fill="#00517E"/>
<path d="M6.57057 140.133V131.234H1.98766V140.133H0.392263V129.643H6.57057V121.535C6.58687 121.264 6.54547 120.993 6.4491 120.74C6.35273 120.487 6.20359 120.257 6.01152 120.065C5.81945 119.874 5.58882 119.725 5.33486 119.629C5.0809 119.533 4.80938 119.492 4.53824 119.508H3.97934C3.70859 119.493 3.43781 119.536 3.18459 119.632C2.93137 119.729 2.70141 119.878 2.50968 120.069C2.31795 120.26 2.16875 120.49 2.0718 120.742C1.97486 120.995 1.93233 121.265 1.947 121.535V128.832H0.351624V120.724C0.351624 119.275 0.829217 118.322 3.15624 118.322H5.32069C7.65788 118.322 8.13548 119.275 8.13548 120.724V140.133H6.57057Z" fill="#00517E"/>
<path d="M8.53179 140.488H6.22509V131.589H2.34333V140.488H0.0366211V129.289H6.22509V121.555C6.24128 121.331 6.20952 121.107 6.13191 120.896C6.05431 120.685 5.93265 120.494 5.77501 120.333C5.61737 120.173 5.42737 120.049 5.21763 119.967C5.00789 119.886 4.78323 119.85 4.55857 119.862H3.99967C3.77543 119.85 3.55116 119.886 3.34188 119.967C3.13261 120.048 2.94319 120.174 2.78632 120.334C2.62945 120.494 2.50877 120.686 2.43236 120.897C2.35596 121.107 2.32561 121.332 2.34333 121.555V129.207H0.0366211V120.724C0.0366211 118.788 0.981659 117.967 3.19691 117.967H5.3207C7.53594 117.967 8.49114 118.788 8.49114 120.724L8.53179 140.488ZM6.92625 139.789H7.82048V120.724C7.82048 119.396 7.42416 118.697 5.36134 118.697H3.19691C1.16457 118.697 0.747936 119.417 0.747936 120.724V128.498H1.632V121.555C1.61472 121.239 1.66391 120.923 1.77637 120.627C1.88883 120.331 2.0621 120.062 2.28506 119.837C2.50801 119.611 2.77572 119.435 3.071 119.319C3.36628 119.203 3.68261 119.15 3.99967 119.163H4.55857C4.87564 119.15 5.19196 119.203 5.48724 119.319C5.78252 119.435 6.05025 119.611 6.2732 119.837C6.49615 120.062 6.66942 120.331 6.78189 120.627C6.89435 120.923 6.94352 121.239 6.92625 121.555V129.988H0.747936V139.789H1.632V130.88H6.92625V139.789Z" fill="#00517E"/>
<path d="M10.0154 140.134V118.292H11.6108V138.421H14.9235V140.134H10.0154Z" fill="#00517E"/>
<path d="M15.2791 140.488H9.65973V117.937H11.9664V138.066H15.2791V140.488ZM10.371 139.789H14.5678V138.775H11.2551V118.626H10.4015L10.371 139.789Z" fill="#00517E"/>
<path d="M16.3665 140.134V126.552H21.8843V128.143H17.9618V138.542H21.8843V140.134H16.3665ZM16.3665 125.944V118.312H22.2298V119.498H17.9618V125.944H16.3665Z" fill="#00517E"/>
<path d="M22.2399 140.488H16.0108V117.967H22.5956V119.862H18.3277V126.197H22.2501V128.498H18.3277V138.188H22.2501L22.2399 140.488ZM16.712 139.789H21.5794V138.897H17.657V127.799H21.5794V126.907H16.7628L16.712 139.789ZM16.712 125.599H17.6062V119.153H21.8741V118.667H16.712V125.599Z" fill="#00517E"/>
<path d="M29.4141 140.134L27.1582 130.008L24.9531 140.134H23.4492L26.4367 127.596L23.4492 118.292H24.9531L27.1582 125.244L29.4141 118.292H30.918L27.9406 127.596L30.918 140.134H29.4141Z" fill="#00517E"/>
<path d="M31.3752 140.488H29.1295L27.1582 131.66L25.2477 140.488H23.002L26.0505 127.616L22.941 117.937H25.1969L27.1378 124.079L29.1702 117.937H31.4159L28.3674 127.616L31.3752 140.488ZM29.6986 139.789H30.4709L27.5748 127.626L30.4404 118.687H29.7087L27.1988 126.44L24.7397 118.687H23.9775L26.8431 127.626L23.9369 139.789H24.6279L27.1175 128.366L29.6986 139.789Z" fill="#00517E"/>
<path d="M38.3868 140.133V131.234H33.7734V140.133H32.178V129.643H38.3563V121.535C38.3726 121.264 38.3312 120.993 38.2349 120.74C38.1385 120.487 37.9894 120.257 37.7973 120.065C37.6052 119.874 37.3746 119.725 37.1206 119.629C36.8667 119.533 36.5952 119.492 36.324 119.508H35.8058C35.535 119.493 35.2642 119.536 35.011 119.632C34.7578 119.729 34.5278 119.878 34.3361 120.069C34.1444 120.26 33.9952 120.49 33.8982 120.742C33.8013 120.995 33.7588 121.265 33.7734 121.535V128.832H32.178V120.724C32.178 119.275 32.6556 118.322 34.9827 118.322H37.1471C39.4843 118.322 39.9619 119.275 39.9619 120.724V140.133H38.3868Z" fill="#00517E"/>
<path d="M40.3379 140.488H38.0413V131.589H34.1596V140.488H31.8529V129.289H38.0413V121.555C38.0575 121.331 38.0258 121.107 37.9482 120.896C37.8706 120.685 37.7489 120.494 37.5913 120.333C37.4336 120.173 37.2436 120.049 37.0339 119.967C36.8241 119.886 36.5995 119.85 36.3748 119.862H35.8058C35.5815 119.85 35.3572 119.886 35.148 119.967C34.9387 120.048 34.7493 120.174 34.5924 120.334C34.4355 120.494 34.3149 120.686 34.2385 120.897C34.162 121.107 34.1317 121.332 34.1494 121.555V129.207H31.8427V120.724C31.8427 118.788 32.7878 117.967 35.003 117.967H37.1674C39.3827 117.967 40.3277 118.788 40.3277 120.724L40.3379 140.488ZM38.7425 139.789H39.6367V120.724C39.6367 119.396 39.2404 118.697 37.1776 118.697H35.0132C32.9808 118.697 32.5642 119.417 32.5642 120.724V128.498H33.4482V121.555C33.431 121.239 33.4802 120.923 33.5926 120.627C33.7051 120.331 33.8784 120.062 34.1013 119.837C34.3243 119.611 34.592 119.435 34.8872 119.319C35.1825 119.203 35.4989 119.15 35.8159 119.163H36.3748C36.6919 119.15 37.0082 119.203 37.3035 119.319C37.5988 119.435 37.8665 119.611 38.0894 119.837C38.3124 120.062 38.4857 120.331 38.5981 120.627C38.7106 120.923 38.7598 121.239 38.7425 121.555V129.988H32.5642V139.789H33.4482V130.88H38.7425V139.789Z" fill="#00517E"/>
<path d="M47.4917 140.134L43.1933 118.808V140.134H41.5878V118.292H43.9046L48.3046 140.032V118.292H49.9V140.134H47.4917Z" fill="#00517E"/>
<path d="M50.2557 140.488H47.2072L43.549 122.356V140.488H41.2524V117.937H44.2095L47.9592 136.495V117.937H50.2659L50.2557 140.488ZM48.6603 139.789H49.5444V118.626H48.6603V139.789ZM47.7762 139.789H47.888L43.6201 118.646H41.9028V139.789H42.797V118.808L43.4982 118.738L47.7762 139.789Z" fill="#00517E"/>
<path d="M51.6885 140.133V118.322H56.6575C58.9947 118.322 59.4723 119.275 59.4723 120.724V137.742C59.4723 139.181 58.9947 140.133 56.6575 140.133H51.6885ZM53.2839 139.12H55.8548C56.1259 139.136 56.3974 139.095 56.6514 138.999C56.9053 138.902 57.136 138.754 57.328 138.562C57.5201 138.371 57.6693 138.141 57.7656 137.887C57.862 137.634 57.9034 137.363 57.8871 137.093V121.616C57.9034 121.345 57.862 121.075 57.7656 120.821C57.6693 120.568 57.5201 120.338 57.328 120.146C57.136 119.955 56.9053 119.806 56.6514 119.71C56.3974 119.614 56.1259 119.572 55.8548 119.589H53.2839V139.12Z" fill="#00517E"/>
<path d="M56.6576 140.488H51.3328V117.967H56.6576C58.8728 117.967 59.8178 118.788 59.8178 120.724V137.742C59.8178 139.667 58.8728 140.488 56.6576 140.488ZM52.0441 139.789H56.6576C58.6899 139.789 59.1167 139.069 59.1167 137.762V120.744C59.1167 119.417 58.7204 118.717 56.6576 118.717H52.0645L52.0441 139.789ZM55.8548 139.424H52.9282V119.153H55.8548C56.1718 119.14 56.4882 119.193 56.7835 119.309C57.0787 119.425 57.3464 119.601 57.5694 119.826C57.7924 120.052 57.9656 120.321 58.0781 120.617C58.1906 120.913 58.2397 121.229 58.2224 121.545V137.022C58.2412 137.339 58.1931 137.656 58.0813 137.953C57.9695 138.25 57.7965 138.521 57.5734 138.747C57.3502 138.974 57.082 139.151 56.786 139.267C56.49 139.384 56.1727 139.437 55.8548 139.424ZM53.6395 138.715H55.8548C56.0789 138.728 56.3034 138.694 56.5132 138.614C56.7229 138.534 56.9131 138.41 57.0709 138.251C57.2287 138.091 57.3505 137.9 57.4282 137.69C57.5059 137.48 57.5376 137.255 57.5213 137.032V121.555C57.5375 121.331 57.5057 121.107 57.4281 120.896C57.3505 120.685 57.2289 120.494 57.0712 120.333C56.9136 120.173 56.7236 120.049 56.5138 119.967C56.3041 119.886 56.0794 119.85 55.8548 119.862H53.6395V138.715Z" fill="#00517E"/>
<path d="M66.9513 140.133L64.6954 127.748H65.3763C65.6478 127.766 65.92 127.726 66.1748 127.63C66.4295 127.535 66.6608 127.386 66.8532 127.194C67.0457 127.002 67.1948 126.771 67.2905 126.517C67.3863 126.263 67.4266 125.992 67.4086 125.721V121.494C67.4266 121.223 67.3863 120.952 67.2905 120.698C67.1948 120.444 67.0457 120.213 66.8532 120.021C66.6608 119.829 66.4295 119.681 66.1748 119.585C65.92 119.489 65.6478 119.449 65.3763 119.467H62.9984V140.093H61.3929V118.322H66.179C68.5162 118.322 68.9938 119.275 68.9938 120.724V127.069C68.9938 128.599 68.3333 129.035 67.6931 129.268L66.677 129.643L68.6585 140.133H66.9513Z" fill="#00517E"/>
<path d="M69.0447 140.488H66.6567L64.2585 127.403H65.3661C65.5883 127.42 65.8115 127.388 66.0205 127.311C66.2295 127.234 66.4195 127.114 66.5775 126.957C66.7356 126.8 66.858 126.611 66.9365 126.403C67.015 126.195 67.0478 125.973 67.0326 125.751V121.525C67.0494 121.302 67.0177 121.079 66.9399 120.869C66.862 120.66 66.7398 120.47 66.5816 120.312C66.4234 120.155 66.2329 120.033 66.0231 119.955C65.8134 119.877 65.5893 119.846 65.3661 119.862H63.3338V140.488H61.0271V117.967H66.1689C68.3943 117.967 69.3394 118.788 69.3394 120.724V127.069C69.3394 128.833 68.5163 129.349 67.8049 129.603L67.0326 129.866L69.0447 140.488ZM67.246 139.789H68.1911L66.2299 129.41L67.5814 128.934C68.0895 128.751 68.5976 128.447 68.5976 127.069V120.724C68.5976 119.396 68.2114 118.697 66.1384 118.697H61.7079V139.809H62.6021V119.183H65.3356C65.6508 119.167 65.9658 119.217 66.2604 119.33C66.5549 119.443 66.8224 119.617 67.0455 119.839C67.2686 120.062 67.4425 120.329 67.5558 120.623C67.6691 120.916 67.7194 121.231 67.7033 121.545V125.721C67.7178 126.035 67.6664 126.348 67.5526 126.641C67.4387 126.934 67.2648 127.201 67.042 127.423C66.8192 127.645 66.5524 127.818 66.2586 127.932C65.9647 128.046 65.6504 128.097 65.3356 128.083H65.0816L67.246 139.789Z" fill="#00517E"/>
<path d="M72.3879 118.302H70.7925V140.124H72.3879V118.302Z" fill="#00517E"/>
<path d="M72.7435 140.478H70.4368V117.947H72.7435V140.478ZM71.1481 139.769H72.0322V118.626H71.1481V139.769Z" fill="#00517E"/>
<path d="M80.5172 140.133V131.234H75.9241V140.133H74.3287V129.643H80.5172V121.535C80.5318 121.265 80.4893 120.995 80.3924 120.742C80.2954 120.49 80.1462 120.26 79.9545 120.069C79.7628 119.878 79.5328 119.729 79.2796 119.632C79.0264 119.536 78.7556 119.493 78.4848 119.508H77.9259C77.6552 119.493 77.3844 119.536 77.1312 119.632C76.8779 119.729 76.648 119.878 76.4563 120.069C76.2645 120.26 76.1153 120.49 76.0184 120.742C75.9215 120.995 75.8789 121.265 75.8936 121.535V128.832H74.2982V120.724C74.2982 119.275 74.7758 118.322 77.113 118.322H79.2774C81.6045 118.322 82.0821 119.275 82.0821 120.724V140.133H80.5172Z" fill="#00517E"/>
<path d="M82.4377 140.488H80.131V131.589H76.2493V140.488H73.9426V129.289H80.131V121.555C80.1488 121.332 80.1184 121.107 80.042 120.897C79.9656 120.686 79.8449 120.494 79.688 120.334C79.5312 120.174 79.3417 120.048 79.1325 119.967C78.9232 119.886 78.6989 119.85 78.4747 119.862H77.9158C77.6911 119.85 77.4665 119.886 77.2567 119.967C77.047 120.049 76.857 120.173 76.6994 120.333C76.5417 120.494 76.42 120.685 76.3424 120.896C76.2648 121.107 76.2331 121.331 76.2493 121.555V129.207H73.9426V120.724C73.9426 118.788 74.8876 117.967 77.113 117.967H79.2775C81.4927 117.967 82.4377 118.788 82.4377 120.724V140.488ZM80.8424 139.789H81.7264V120.724C81.7264 119.396 81.3403 118.697 79.2775 118.697H77.113C75.0807 118.697 74.6539 119.417 74.6539 120.724V128.498H75.5481V121.555C75.5308 121.239 75.58 120.923 75.6925 120.627C75.8049 120.331 75.9782 120.062 76.2012 119.837C76.4241 119.611 76.6918 119.435 76.9871 119.319C77.2824 119.203 77.5987 119.15 77.9158 119.163H78.4848C78.8019 119.15 79.1182 119.203 79.4135 119.319C79.7088 119.435 79.9765 119.611 80.1995 119.837C80.4224 120.062 80.5957 120.331 80.7082 120.627C80.8206 120.923 80.8698 121.239 80.8525 121.555V129.988H74.6641V139.789H75.5583V130.88H80.8525L80.8424 139.789Z" fill="#00517E"/>
<path d="M87.9454 140.174V118.261H92.4673C94.835 118.261 95.3228 119.274 95.3228 120.693V127.981C95.3228 129.45 94.835 130.423 92.4673 130.423H89.6627V140.174H87.9454ZM89.6221 128.63H91.6544C91.9185 128.644 92.1827 128.603 92.4298 128.509C92.6768 128.415 92.9012 128.27 93.0882 128.083C93.2752 127.897 93.4207 127.673 93.5151 127.426C93.6094 127.18 93.6506 126.916 93.6359 126.653V121.504C93.6582 121.237 93.6226 120.968 93.5316 120.715C93.4406 120.462 93.2963 120.232 93.1085 120.04C92.9206 119.848 92.6936 119.698 92.4427 119.601C92.1919 119.504 91.923 119.462 91.6544 119.477H89.6221V128.63Z" fill="#00517E"/>
<path d="M89.9777 140.519H87.6304V117.906H92.508C94.7537 117.906 95.7089 118.737 95.7089 120.694V127.981C95.7089 129.937 94.7537 130.778 92.508 130.778H90.0184L89.9777 140.519ZM88.301 139.819H89.3172V130.069H92.5181C94.6216 130.069 95.0179 129.339 95.0179 127.981V120.653C95.0179 119.305 94.6216 118.565 92.5181 118.565H88.3519L88.301 139.819ZM91.6646 128.984H89.2664V119.173H91.695C92.0058 119.159 92.3162 119.209 92.6063 119.321C92.8964 119.433 93.1599 119.604 93.3799 119.824C93.5999 120.043 93.7715 120.306 93.8838 120.596C93.9962 120.885 94.0467 121.194 94.0322 121.504V126.653C94.0452 126.963 93.9935 127.272 93.8807 127.56C93.7678 127.849 93.5961 128.111 93.3764 128.33C93.1568 128.549 92.8939 128.721 92.6045 128.833C92.3151 128.946 92.0054 128.997 91.695 128.984H91.6646ZM89.9777 128.275H91.695C91.9124 128.29 92.1305 128.258 92.3346 128.182C92.5387 128.106 92.724 127.987 92.8781 127.833C93.0322 127.679 93.1515 127.495 93.2278 127.291C93.3042 127.087 93.336 126.87 93.3209 126.653V121.504C93.336 121.288 93.3042 121.07 93.2278 120.866C93.1515 120.663 93.0322 120.478 92.8781 120.324C92.724 120.171 92.5387 120.052 92.3346 119.975C92.1305 119.899 91.9124 119.868 91.695 119.883H90.0082L89.9777 128.275Z" fill="#00517E"/>
<path d="M102.741 140.174L100.465 127.707H101.196C101.464 127.729 101.734 127.694 101.987 127.603C102.241 127.513 102.471 127.369 102.664 127.181C102.857 126.994 103.007 126.768 103.104 126.517C103.202 126.267 103.244 125.999 103.229 125.731V121.504C103.254 121.232 103.218 120.957 103.125 120.7C103.032 120.443 102.883 120.209 102.689 120.016C102.495 119.822 102.26 119.674 102.003 119.581C101.745 119.488 101.469 119.452 101.196 119.477H98.8082V140.123H97.1315V118.21H101.958C104.326 118.21 104.814 119.224 104.814 120.643V127.008C104.814 128.559 104.143 129.035 103.493 129.238L102.477 129.603L104.509 140.123L102.741 140.174Z" fill="#00517E"/>
<path d="M104.905 140.519H102.436L100.028 127.343H101.186C101.403 127.358 101.622 127.326 101.826 127.25C102.03 127.173 102.215 127.055 102.369 126.901C102.523 126.747 102.642 126.562 102.719 126.359C102.795 126.155 102.827 125.938 102.812 125.721V121.494C102.827 121.278 102.795 121.06 102.719 120.856C102.642 120.653 102.523 120.468 102.369 120.314C102.215 120.161 102.03 120.042 101.826 119.965C101.622 119.889 101.403 119.858 101.186 119.873H99.1537V140.509H96.7759V117.896H101.958C104.204 117.896 105.159 118.727 105.159 120.684V127.049C105.159 128.832 104.336 129.36 103.605 129.613L102.863 129.876L104.905 140.519ZM103.025 139.819H104.041L102.08 129.42L103.391 128.954C103.92 128.772 104.478 128.457 104.478 127.059V120.653C104.478 119.305 104.082 118.565 101.979 118.565H97.5075V139.779H98.4729V119.133H101.176C101.487 119.118 101.797 119.169 102.087 119.281C102.377 119.393 102.641 119.564 102.861 119.784C103.081 120.003 103.252 120.266 103.365 120.555C103.477 120.844 103.528 121.154 103.513 121.464V125.721C103.526 126.03 103.474 126.338 103.362 126.626C103.249 126.915 103.077 127.176 102.857 127.395C102.637 127.613 102.374 127.783 102.085 127.895C101.795 128.006 101.486 128.056 101.176 128.042H100.841L103.025 139.819Z" fill="#00517E"/>
<path d="M109.305 140.174C106.938 140.174 106.45 139.16 106.45 137.731V120.653C106.45 119.193 106.938 118.22 109.305 118.22H111.47C113.837 118.22 114.315 119.234 114.315 120.653V137.691C114.315 139.15 113.837 140.133 111.47 140.133L109.305 140.174ZM110.108 119.528C109.835 119.505 109.561 119.541 109.304 119.635C109.047 119.729 108.813 119.877 108.62 120.07C108.426 120.263 108.277 120.496 108.183 120.753C108.089 121.009 108.053 121.283 108.076 121.555V137.072C108.06 137.34 108.102 137.608 108.2 137.858C108.297 138.107 108.448 138.333 108.64 138.52C108.833 138.706 109.064 138.849 109.317 138.939C109.571 139.028 109.84 139.062 110.108 139.039H110.667C110.935 139.062 111.204 139.028 111.457 138.939C111.711 138.849 111.942 138.706 112.135 138.52C112.327 138.333 112.478 138.107 112.575 137.858C112.673 137.608 112.715 137.34 112.699 137.072V121.555C112.722 121.283 112.686 121.009 112.592 120.753C112.498 120.496 112.349 120.263 112.155 120.07C111.962 119.877 111.728 119.729 111.471 119.635C111.214 119.541 110.94 119.505 110.667 119.528H110.108Z" fill="#00517E"/>
<path d="M111.47 140.519H109.305C107.06 140.519 106.104 139.688 106.104 137.731V120.653C106.104 118.697 107.06 117.866 109.305 117.866H111.47C113.715 117.866 114.671 118.697 114.671 120.653V137.691C114.671 139.688 113.715 140.519 111.47 140.519ZM109.305 118.626C107.202 118.626 106.805 119.366 106.805 120.714V137.752C106.805 139.1 107.202 139.839 109.305 139.839H111.47C113.563 139.839 113.969 139.1 113.969 137.752V120.653C113.969 119.305 113.563 118.565 111.47 118.565L109.305 118.626ZM110.667 139.363H110.108C109.798 139.377 109.489 139.327 109.199 139.216C108.91 139.104 108.647 138.934 108.427 138.716C108.207 138.497 108.035 138.236 107.922 137.948C107.809 137.66 107.758 137.351 107.771 137.042V121.525C107.756 121.215 107.807 120.905 107.919 120.616C108.032 120.326 108.203 120.063 108.423 119.844C108.643 119.625 108.907 119.454 109.197 119.342C109.487 119.229 109.797 119.179 110.108 119.194H110.667C110.977 119.179 111.287 119.229 111.577 119.342C111.866 119.454 112.129 119.625 112.348 119.845C112.568 120.064 112.738 120.327 112.85 120.616C112.961 120.906 113.01 121.215 112.994 121.525V137.042C113.006 137.349 112.953 137.655 112.84 137.941C112.727 138.226 112.556 138.486 112.337 138.702C112.118 138.918 111.857 139.087 111.569 139.197C111.282 139.308 110.975 139.357 110.667 139.343V139.363ZM110.108 119.903C109.891 119.888 109.673 119.92 109.468 119.996C109.264 120.072 109.079 120.191 108.925 120.345C108.771 120.498 108.652 120.683 108.575 120.887C108.499 121.09 108.467 121.308 108.482 121.525V137.042C108.467 137.259 108.499 137.476 108.575 137.68C108.652 137.884 108.771 138.068 108.925 138.222C109.079 138.376 109.264 138.495 109.468 138.571C109.673 138.647 109.891 138.679 110.108 138.664H110.667C110.884 138.679 111.102 138.647 111.306 138.571C111.511 138.495 111.696 138.376 111.85 138.222C112.004 138.068 112.123 137.884 112.2 137.68C112.276 137.476 112.308 137.259 112.293 137.042V121.525C112.308 121.308 112.276 121.09 112.2 120.887C112.123 120.683 112.004 120.498 111.85 120.345C111.696 120.191 111.511 120.072 111.306 119.996C111.102 119.92 110.884 119.888 110.667 119.903H110.108Z" fill="#00517E"/>
<path d="M131.112 140.174L128.836 127.707H129.568C129.836 127.729 130.106 127.694 130.359 127.603C130.612 127.513 130.843 127.369 131.036 127.181C131.228 126.994 131.378 126.768 131.476 126.517C131.573 126.267 131.615 125.999 131.6 125.731V121.504C131.625 121.232 131.59 120.957 131.496 120.7C131.403 120.443 131.254 120.209 131.06 120.016C130.866 119.822 130.632 119.674 130.374 119.581C130.116 119.488 129.841 119.452 129.568 119.477H127.261V140.123H125.584V118.21H130.411C132.779 118.21 133.267 119.224 133.267 120.643V127.008C133.267 128.559 132.596 129.035 131.945 129.238L130.929 129.603L132.911 140.123L131.112 140.174Z" fill="#00517E"/>
<path d="M133.287 140.519H130.818L128.409 127.343H129.568C129.785 127.358 130.003 127.326 130.207 127.25C130.411 127.173 130.597 127.055 130.751 126.901C130.905 126.747 131.024 126.562 131.1 126.359C131.177 126.155 131.209 125.938 131.194 125.721V121.494C131.209 121.278 131.177 121.06 131.1 120.856C131.024 120.653 130.905 120.468 130.751 120.314C130.597 120.161 130.411 120.042 130.207 119.965C130.003 119.889 129.785 119.858 129.568 119.873H127.535V140.509H125.229V117.896H130.411C132.657 117.896 133.622 118.727 133.622 120.684V127.049C133.622 128.832 132.789 129.36 132.057 129.613L131.315 129.876L133.287 140.519ZM131.407 139.819H132.423L130.462 129.42L131.773 128.954C132.301 128.772 132.86 128.457 132.86 127.059V120.653C132.86 119.305 132.464 118.565 130.36 118.565H125.889V139.779H126.905V119.133H129.608C129.919 119.118 130.229 119.169 130.52 119.281C130.81 119.393 131.073 119.564 131.293 119.784C131.513 120.003 131.685 120.266 131.797 120.555C131.909 120.844 131.96 121.154 131.946 121.464V125.721C131.959 126.03 131.907 126.338 131.794 126.626C131.681 126.915 131.509 127.176 131.289 127.395C131.069 127.613 130.806 127.783 130.517 127.895C130.228 128.006 129.918 128.056 129.608 128.042H129.293L131.407 139.819Z" fill="#00517E"/>
<path d="M134.994 140.174V126.501H140.603V128.173H136.671V138.502H140.603V140.174H134.994ZM134.994 125.984V118.231H140.939V119.498H136.671V125.984H134.994Z" fill="#00517E"/>
<path d="M140.959 140.519H134.638V117.906H141.294V119.883H137.026V126.146H140.959V128.528H137.026V138.147H140.959V140.519ZM135.35 139.819H140.248V138.897H136.315V127.859H140.248V126.846H135.39L135.35 139.819ZM135.35 125.629H136.366V119.143H140.634V118.626H135.39L135.35 125.629Z" fill="#00517E"/>
<path d="M145.318 140.174C142.951 140.174 142.473 139.16 142.473 137.731V131.133H144.14V137.022C144.125 137.285 144.166 137.548 144.26 137.794C144.355 138.04 144.5 138.263 144.688 138.449C144.875 138.634 145.099 138.779 145.346 138.872C145.593 138.965 145.857 139.004 146.121 138.988H146.68C146.944 139.004 147.208 138.965 147.455 138.872C147.702 138.779 147.926 138.634 148.113 138.449C148.301 138.263 148.446 138.04 148.541 137.794C148.635 137.548 148.676 137.285 148.661 137.022V131.164C148.664 130.844 148.598 130.528 148.468 130.236C148.338 129.944 148.148 129.684 147.91 129.471L143.225 125.802C143.002 125.622 142.818 125.397 142.686 125.143C142.565 124.883 142.502 124.599 142.504 124.312V120.653C142.504 119.193 142.981 118.22 145.349 118.22H147.513C149.881 118.22 150.369 119.234 150.369 120.653V123.065H148.692V121.464C148.714 121.196 148.679 120.927 148.588 120.674C148.497 120.422 148.352 120.192 148.165 120C147.977 119.807 147.75 119.658 147.499 119.561C147.248 119.464 146.979 119.421 146.71 119.437H146.152C145.883 119.421 145.614 119.464 145.363 119.561C145.112 119.658 144.885 119.807 144.697 120C144.51 120.192 144.365 120.422 144.274 120.674C144.183 120.927 144.148 121.196 144.17 121.464V123.156C144.17 123.492 144.247 123.824 144.397 124.124C144.547 124.425 144.765 124.687 145.034 124.889L149.637 128.518C149.873 128.693 150.063 128.923 150.191 129.188C150.318 129.453 150.379 129.745 150.369 130.038V138.147C150.257 139.16 149.83 140.174 147.513 140.174H145.318Z" fill="#00517E"/>
<path d="M147.483 140.519H145.318C143.073 140.519 142.117 139.688 142.117 137.731V130.788H144.536V137.032C144.521 137.249 144.553 137.466 144.629 137.67C144.705 137.873 144.825 138.058 144.979 138.212C145.133 138.366 145.318 138.485 145.522 138.561C145.726 138.637 145.944 138.669 146.162 138.654H146.721C146.938 138.669 147.156 138.637 147.36 138.561C147.564 138.485 147.75 138.366 147.904 138.212C148.058 138.058 148.177 137.873 148.253 137.67C148.33 137.466 148.362 137.249 148.346 137.032V131.174C148.347 130.902 148.291 130.634 148.181 130.386C148.07 130.138 147.909 129.916 147.706 129.734L143.022 126.055C142.75 125.849 142.531 125.582 142.382 125.275C142.228 124.959 142.151 124.612 142.158 124.261V120.653C142.158 118.697 143.113 117.866 145.359 117.866H147.523C149.769 117.866 150.724 118.697 150.724 120.653V123.42H148.346V121.464C148.362 121.247 148.33 121.03 148.253 120.826C148.177 120.622 148.058 120.437 147.904 120.284C147.75 120.13 147.564 120.011 147.36 119.935C147.156 119.859 146.938 119.827 146.721 119.842H146.162C145.944 119.827 145.726 119.859 145.522 119.935C145.318 120.011 145.133 120.13 144.979 120.284C144.825 120.437 144.705 120.622 144.629 120.826C144.553 121.03 144.521 121.247 144.536 121.464V123.156C144.535 123.437 144.6 123.714 144.726 123.966C144.851 124.217 145.033 124.436 145.257 124.606L149.861 128.244C150.14 128.451 150.365 128.722 150.516 129.035C150.666 129.347 150.738 129.692 150.724 130.038V138.147C150.633 139.302 150.115 140.519 147.483 140.519ZM142.819 131.488V137.731C142.819 139.079 143.225 139.819 145.318 139.819H147.483C149.637 139.819 149.901 138.998 149.983 138.167V130.059C149.994 129.819 149.945 129.58 149.84 129.364C149.735 129.148 149.578 128.962 149.383 128.822L144.79 125.184C144.471 124.95 144.213 124.645 144.036 124.292C143.86 123.94 143.77 123.55 143.774 123.156V121.464C143.758 121.154 143.807 120.845 143.918 120.556C144.029 120.266 144.2 120.003 144.419 119.784C144.638 119.564 144.901 119.393 145.191 119.281C145.48 119.168 145.79 119.118 146.101 119.133H146.66C146.97 119.118 147.281 119.169 147.571 119.281C147.861 119.393 148.124 119.564 148.344 119.783C148.564 120.003 148.736 120.266 148.848 120.555C148.961 120.844 149.011 121.154 148.997 121.464V122.711H149.962V120.683C149.962 119.335 149.566 118.595 147.462 118.595H145.298C143.205 118.595 142.798 119.335 142.798 120.683V124.271C142.802 124.504 142.858 124.733 142.962 124.942C143.066 125.15 143.214 125.333 143.398 125.477L148.123 129.197C148.4 129.442 148.621 129.744 148.772 130.081C148.922 130.419 148.999 130.784 148.997 131.153V137.012C149.01 137.321 148.958 137.629 148.845 137.917C148.732 138.206 148.56 138.467 148.341 138.686C148.121 138.904 147.858 139.074 147.568 139.185C147.279 139.297 146.97 139.347 146.66 139.333H146.101C145.791 139.347 145.482 139.297 145.193 139.185C144.904 139.074 144.642 138.904 144.423 138.685C144.204 138.467 144.033 138.205 143.921 137.917C143.81 137.629 143.759 137.32 143.774 137.012V131.478L142.819 131.488Z" fill="#00517E"/>
<path d="M155.124 140.174C152.757 140.174 152.269 139.16 152.269 137.731V131.133H153.946V137.022C153.931 137.285 153.972 137.548 154.066 137.794C154.161 138.04 154.306 138.263 154.494 138.449C154.681 138.634 154.905 138.779 155.152 138.872C155.4 138.965 155.664 139.004 155.927 138.988H156.486C156.749 139.003 157.012 138.962 157.257 138.868C157.503 138.775 157.727 138.63 157.913 138.445C158.099 138.259 158.243 138.036 158.337 137.791C158.431 137.546 158.472 137.284 158.457 137.022V131.164C158.461 130.845 158.397 130.529 158.27 130.237C158.142 129.945 157.953 129.684 157.716 129.471L153.041 125.802C152.818 125.622 152.635 125.397 152.503 125.143C152.373 124.885 152.307 124.6 152.31 124.312V120.653C152.31 119.193 152.797 118.22 155.165 118.22H157.329C159.697 118.22 160.175 119.234 160.175 120.653V123.065H158.457V121.464C158.481 121.197 158.447 120.928 158.357 120.675C158.267 120.423 158.124 120.192 157.937 120C157.75 119.807 157.524 119.658 157.273 119.56C157.023 119.463 156.754 119.421 156.486 119.437H155.927C155.658 119.42 155.388 119.461 155.137 119.557C154.885 119.654 154.657 119.803 154.469 119.996C154.281 120.188 154.137 120.419 154.046 120.673C153.956 120.926 153.922 121.196 153.946 121.464V123.156C153.943 123.493 154.02 123.825 154.17 124.126C154.32 124.427 154.539 124.689 154.809 124.889L159.402 128.518C159.64 128.692 159.831 128.922 159.958 129.187C160.086 129.452 160.146 129.745 160.134 130.038V138.147C160.032 139.16 159.595 140.174 157.289 140.174H155.124Z" fill="#00517E"/>
<path d="M157.289 140.519H155.124C152.879 140.519 151.913 139.688 151.913 137.731V130.788H154.301V137.032C154.286 137.249 154.318 137.466 154.394 137.67C154.471 137.873 154.59 138.058 154.744 138.212C154.898 138.366 155.083 138.485 155.288 138.561C155.492 138.637 155.71 138.669 155.927 138.654H156.486C156.703 138.669 156.921 138.637 157.126 138.561C157.33 138.485 157.515 138.366 157.669 138.212C157.823 138.058 157.942 137.873 158.019 137.67C158.095 137.466 158.127 137.249 158.112 137.032V131.174C158.113 130.902 158.056 130.634 157.946 130.386C157.836 130.138 157.674 129.916 157.472 129.734L152.777 126.055C152.508 125.848 152.292 125.581 152.147 125.275C151.99 124.96 151.91 124.613 151.913 124.261V120.653C151.913 118.697 152.879 117.866 155.124 117.866H157.289C159.534 117.866 160.49 118.697 160.49 120.653V123.42H158.112V121.464C158.127 121.247 158.095 121.03 158.019 120.826C157.942 120.622 157.823 120.437 157.669 120.284C157.515 120.13 157.33 120.011 157.126 119.935C156.921 119.859 156.703 119.827 156.486 119.842H155.927C155.71 119.827 155.492 119.859 155.288 119.935C155.083 120.011 154.898 120.13 154.744 120.284C154.59 120.437 154.471 120.622 154.394 120.826C154.318 121.03 154.286 121.247 154.301 121.464V123.156C154.298 123.438 154.362 123.715 154.488 123.967C154.613 124.219 154.796 124.438 155.023 124.606L159.626 128.244C159.906 128.451 160.13 128.722 160.281 129.035C160.432 129.347 160.503 129.692 160.49 130.038V138.147C160.378 139.302 159.921 140.519 157.289 140.519ZM152.625 131.488V137.731C152.625 139.079 153.021 139.819 155.124 139.819H157.289C159.443 139.819 159.697 138.998 159.789 138.167V130.059C159.802 129.82 159.755 129.581 159.652 129.365C159.549 129.149 159.393 128.963 159.199 128.822L154.596 125.184C154.277 124.951 154.018 124.646 153.841 124.293C153.665 123.94 153.575 123.551 153.58 123.156V121.464C153.565 121.154 153.616 120.844 153.728 120.555C153.84 120.266 154.012 120.003 154.232 119.783C154.452 119.564 154.716 119.393 155.006 119.281C155.296 119.169 155.606 119.118 155.917 119.133H156.476C156.786 119.118 157.096 119.168 157.386 119.281C157.675 119.393 157.938 119.564 158.157 119.784C158.377 120.003 158.547 120.266 158.658 120.556C158.77 120.845 158.819 121.154 158.803 121.464V122.711H159.778V120.683C159.778 119.335 159.382 118.595 157.289 118.595H155.124C153.021 118.595 152.625 119.335 152.625 120.683V124.271C152.624 124.504 152.676 124.734 152.779 124.943C152.881 125.152 153.03 125.335 153.214 125.477L157.949 129.197C158.225 129.443 158.444 129.745 158.593 130.082C158.742 130.419 158.817 130.785 158.813 131.153V137.012C158.827 137.32 158.777 137.629 158.665 137.917C158.554 138.205 158.383 138.467 158.164 138.685C157.945 138.904 157.682 139.074 157.393 139.185C157.104 139.297 156.795 139.347 156.486 139.333H155.927C155.617 139.347 155.308 139.297 155.018 139.185C154.729 139.074 154.466 138.904 154.246 138.686C154.026 138.467 153.854 138.206 153.741 137.917C153.629 137.629 153.577 137.321 153.59 137.012V131.478L152.625 131.488Z" fill="#00517E"/>
<path d="M121.997 140.174V129.836H120.503V128.133H123.664V140.174H121.997ZM118.654 140.174C116.286 140.174 115.799 139.16 115.799 137.731V120.653C115.799 119.193 116.286 118.22 118.654 118.22H120.818C123.186 118.22 123.664 119.234 123.664 120.653V123.065H121.997V121.464C122.022 121.198 121.99 120.93 121.902 120.679C121.814 120.427 121.673 120.197 121.487 120.004C121.302 119.812 121.078 119.662 120.829 119.564C120.58 119.466 120.313 119.422 120.046 119.437H119.457C119.188 119.42 118.918 119.461 118.666 119.557C118.415 119.654 118.187 119.803 117.999 119.996C117.811 120.188 117.666 120.419 117.576 120.673C117.486 120.926 117.451 121.196 117.475 121.464V136.981C117.46 137.227 117.494 137.472 117.575 137.704C117.656 137.936 117.783 138.15 117.947 138.333C118.112 138.516 118.311 138.665 118.533 138.77C118.756 138.876 118.997 138.936 119.243 138.948V140.133L118.654 140.174Z" fill="#00517E"/>
<path d="M124.019 140.519H121.642V130.19H120.148V127.748H124.009L124.019 140.519ZM122.343 139.819H123.359V128.488H120.859V129.501H122.343V139.819ZM119.599 140.519H118.654C116.408 140.519 115.453 139.688 115.453 137.731V120.653C115.453 118.697 116.408 117.866 118.654 117.866H120.818C123.064 117.866 124.019 118.697 124.019 120.653V123.42H121.642V121.464C121.66 121.249 121.631 121.033 121.557 120.83C121.484 120.627 121.368 120.442 121.216 120.288C121.065 120.135 120.882 120.015 120.68 119.938C120.478 119.861 120.262 119.828 120.046 119.842H119.457C119.239 119.827 119.021 119.859 118.817 119.935C118.613 120.011 118.428 120.13 118.274 120.284C118.12 120.437 118 120.622 117.924 120.826C117.848 121.03 117.816 121.247 117.831 121.464V136.981C117.817 137.182 117.844 137.384 117.909 137.574C117.975 137.764 118.078 137.94 118.212 138.09C118.347 138.24 118.51 138.362 118.692 138.449C118.874 138.535 119.072 138.584 119.274 138.593H119.599V140.519ZM118.654 118.606C116.551 118.606 116.154 119.346 116.154 120.694V137.731C116.154 139.079 116.551 139.819 118.654 139.819H118.888V139.292C118.37 139.186 117.907 138.9 117.583 138.483C117.259 138.067 117.094 137.548 117.12 137.022V121.504C117.105 121.194 117.156 120.885 117.268 120.596C117.38 120.306 117.552 120.043 117.772 119.824C117.992 119.604 118.255 119.433 118.546 119.321C118.836 119.209 119.146 119.159 119.457 119.173H120.046C120.354 119.161 120.662 119.214 120.948 119.328C121.235 119.441 121.495 119.613 121.711 119.832C121.927 120.052 122.095 120.314 122.204 120.602C122.313 120.89 122.36 121.197 122.343 121.504V122.751H123.359V120.724C123.359 119.376 122.952 118.636 120.859 118.636L118.654 118.606Z" fill="#00517E"/>
<path d="M123.674 138.978H119.243V140.164H123.674V138.978Z" fill="#00517E"/>
<path d="M124.019 140.519H118.888V138.633H124.019V140.519ZM119.599 139.819H123.318V139.333H119.599V139.819Z" fill="#00517E"/>
<path d="M167.908 140.144V120.653H169.574V140.133L167.908 140.144ZM165.377 120.075V118.322H172.094V120.075H165.377Z" fill="#00517E"/>
<path d="M169.94 140.488H167.572V120.43H165.042V117.967H172.47V120.43H169.94V140.488ZM168.274 139.789H169.239V121.018H168.274V139.789ZM165.753 119.721H171.759V118.707H165.753V119.721Z" fill="#00517E"/>
<path d="M179.614 140.205L177.358 127.748H178.069C178.332 127.763 178.594 127.722 178.84 127.628C179.085 127.535 179.308 127.39 179.493 127.204C179.678 127.019 179.822 126.796 179.915 126.551C180.007 126.305 180.047 126.043 180.031 125.782V121.575C180.042 121.316 180 121.058 179.905 120.816C179.81 120.575 179.666 120.356 179.481 120.173C179.296 119.991 179.075 119.849 178.832 119.757C178.589 119.665 178.329 119.625 178.069 119.64H175.722V140.205H174.056V118.383H178.862C181.22 118.383 181.697 119.396 181.697 120.805V127.14C181.697 128.68 181.037 129.167 180.386 129.36L179.37 129.714L181.352 140.205H179.614Z" fill="#00517E"/>
<path d="M181.789 140.559H179.319L176.931 127.383H178.069C178.285 127.398 178.502 127.367 178.705 127.291C178.908 127.215 179.092 127.097 179.245 126.944C179.398 126.792 179.517 126.608 179.593 126.406C179.669 126.203 179.7 125.987 179.685 125.772V121.565C179.699 121.35 179.666 121.135 179.589 120.933C179.513 120.732 179.394 120.549 179.242 120.396C179.089 120.244 178.905 120.126 178.703 120.049C178.501 119.973 178.285 119.94 178.069 119.954H176.037V140.519H173.669V117.988H178.821C181.057 117.988 182.012 118.819 182.012 120.765V127.099C182.012 128.873 181.189 129.39 180.468 129.653L179.726 129.907L181.789 140.559ZM179.909 139.85H180.925L178.974 129.481L180.285 129.025C180.803 128.843 181.362 128.528 181.362 127.14V120.805C181.362 119.467 180.966 118.778 178.872 118.778H174.421V139.89H175.387V119.335H178.069C178.378 119.321 178.685 119.371 178.973 119.482C179.261 119.593 179.522 119.763 179.74 119.98C179.958 120.198 180.128 120.458 180.239 120.745C180.351 121.032 180.401 121.339 180.386 121.646V125.852C180.401 126.16 180.351 126.468 180.239 126.755C180.128 127.043 179.958 127.304 179.74 127.522C179.522 127.74 179.261 127.911 178.974 128.023C178.686 128.135 178.378 128.187 178.069 128.174H177.754L179.909 139.85Z" fill="#00517E"/>
<path d="M189.898 140.123V131.245H185.406V140.123H183.74V129.572H189.898V121.565C189.92 121.299 189.884 121.03 189.794 120.779C189.704 120.527 189.56 120.297 189.373 120.105C189.187 119.913 188.961 119.763 188.711 119.666C188.462 119.568 188.194 119.524 187.926 119.538H187.367C187.1 119.526 186.834 119.57 186.585 119.669C186.337 119.767 186.113 119.917 185.927 120.109C185.741 120.301 185.599 120.53 185.509 120.781C185.419 121.032 185.384 121.3 185.406 121.565V128.762H183.74V120.724C183.74 119.265 184.217 118.292 186.575 118.292H188.729C191.076 118.292 191.564 119.305 191.564 120.724V140.113L189.898 140.123Z" fill="#00517E"/>
<path d="M191.92 140.478H189.542V131.589H185.762V140.478H183.384V129.228H189.542V121.565C189.56 121.348 189.531 121.129 189.456 120.924C189.382 120.718 189.264 120.532 189.111 120.376C188.957 120.22 188.772 120.099 188.568 120.021C188.363 119.943 188.145 119.91 187.926 119.923H187.367C187.15 119.911 186.932 119.945 186.729 120.024C186.526 120.103 186.342 120.224 186.19 120.38C186.038 120.535 185.921 120.722 185.847 120.926C185.773 121.131 185.744 121.349 185.762 121.565V129.127H183.384V120.734C183.384 118.778 184.339 117.947 186.575 117.947H188.729C190.965 117.947 191.92 118.778 191.92 120.734V140.478ZM190.253 139.769H191.208V120.734C191.208 119.386 190.812 118.707 188.729 118.707H186.575C184.481 118.707 184.085 119.437 184.085 120.734V128.417H185.05V121.565C185.033 121.255 185.081 120.945 185.191 120.655C185.301 120.365 185.47 120.1 185.688 119.879C185.906 119.658 186.168 119.484 186.457 119.37C186.747 119.255 187.056 119.202 187.367 119.214H187.926C188.238 119.201 188.549 119.253 188.839 119.367C189.13 119.481 189.393 119.654 189.612 119.875C189.831 120.097 190.002 120.362 190.112 120.653C190.222 120.944 190.271 121.254 190.253 121.565V129.927H184.085V139.769H185.05V130.89H190.263L190.253 139.769Z" fill="#00517E"/>
<path d="M193.525 140.144V118.322H198.515C200.872 118.322 201.35 119.335 201.35 120.744V137.711C201.35 139.171 200.872 140.144 198.515 140.144H193.525ZM195.192 138.998H197.722C197.989 139.011 198.256 138.966 198.504 138.868C198.752 138.769 198.977 138.619 199.163 138.427C199.348 138.235 199.491 138.006 199.58 137.755C199.67 137.504 199.705 137.237 199.683 136.971V121.545C199.705 121.279 199.67 121.012 199.58 120.761C199.491 120.51 199.348 120.281 199.163 120.089C198.977 119.897 198.752 119.747 198.504 119.648C198.256 119.55 197.989 119.505 197.722 119.518H195.192V138.998Z" fill="#00517E"/>
<path d="M198.515 140.488H193.17V117.967H198.515C200.75 117.967 201.706 118.798 201.706 120.744V137.711C201.706 139.657 200.75 140.488 198.515 140.488ZM193.881 139.789H198.515C200.608 139.789 200.994 139.059 200.994 137.711V120.744C200.994 119.407 200.608 118.717 198.515 118.717H193.881V139.789ZM197.722 139.353H194.836V119.234H197.722C198.032 119.223 198.341 119.275 198.63 119.389C198.918 119.503 199.179 119.676 199.397 119.896C199.615 120.116 199.785 120.379 199.895 120.668C200.006 120.958 200.055 121.266 200.039 121.575V137.002C200.056 137.311 200.008 137.622 199.899 137.912C199.789 138.202 199.619 138.467 199.401 138.688C199.183 138.909 198.921 139.083 198.632 139.197C198.343 139.312 198.033 139.365 197.722 139.353ZM195.548 138.644H197.722C197.94 138.656 198.157 138.622 198.361 138.543C198.564 138.464 198.748 138.343 198.9 138.187C199.052 138.032 199.169 137.845 199.243 137.641C199.316 137.436 199.345 137.218 199.328 137.002V121.575C199.345 121.359 199.316 121.141 199.243 120.936C199.169 120.732 199.052 120.545 198.9 120.39C198.748 120.234 198.564 120.113 198.361 120.034C198.157 119.955 197.94 119.921 197.722 119.934H195.548V138.644Z" fill="#00517E"/>
<path d="M205.089 118.322H203.423V140.144H205.089V118.322Z" fill="#00517E"/>
<path d="M205.445 140.488H203.077V117.967H205.445V140.488ZM203.778 139.789H204.744V118.677H203.778V139.789Z" fill="#00517E"/>
<path d="M213.28 140.144L209.063 119.173V140.144H207.396V118.292H209.764L214.072 139.667V118.292H215.749V140.144H213.28Z" fill="#00517E"/>
<path d="M216.094 140.488H212.985L209.418 122.731V140.488H207.04V117.937H210.089L213.757 136.12V117.937H216.125L216.094 140.488ZM213.564 139.789H215.393V118.626H214.377V139.647L213.676 139.718L209.479 118.626H207.752V139.769H208.707V119.153L209.408 119.082L213.564 139.789Z" fill="#00517E"/>
<path d="M223.919 140.123V129.826H222.435V128.133H225.586V140.123H223.919ZM220.596 140.123C218.239 140.123 217.761 139.11 217.761 137.691V120.734C217.761 119.275 218.239 118.302 220.596 118.302H222.781C225.138 118.302 225.616 119.315 225.616 120.734V123.126H223.949V121.535C223.967 121.275 223.929 121.014 223.838 120.769C223.747 120.525 223.606 120.302 223.422 120.117C223.239 119.931 223.018 119.786 222.774 119.691C222.531 119.597 222.27 119.555 222.009 119.568H221.429C221.167 119.554 220.904 119.595 220.658 119.688C220.412 119.782 220.189 119.926 220.003 120.112C219.817 120.297 219.672 120.52 219.578 120.765C219.484 121.011 219.443 121.273 219.458 121.535V136.992C219.443 137.236 219.477 137.48 219.557 137.711C219.638 137.942 219.763 138.154 219.927 138.336C220.09 138.518 220.289 138.666 220.51 138.771C220.731 138.876 220.971 138.936 221.216 138.948V140.123H220.596Z" fill="#00517E"/>
<path d="M225.941 140.478H223.563V130.18H222.09V127.748H225.941V140.478ZM224.275 139.769H225.23V128.488H222.781V129.501H224.264L224.275 139.769ZM221.531 140.478H220.596C218.361 140.478 217.405 139.647 217.405 137.691V120.734C217.405 118.778 218.361 117.947 220.596 117.947H222.781C225.016 117.947 225.972 118.778 225.972 120.734V123.481H223.594V121.535C223.612 121.321 223.583 121.106 223.511 120.905C223.438 120.703 223.322 120.52 223.172 120.367C223.021 120.214 222.839 120.095 222.639 120.018C222.438 119.942 222.223 119.91 222.009 119.923H221.429C221.213 119.908 220.997 119.94 220.794 120.015C220.591 120.091 220.407 120.209 220.253 120.362C220.1 120.515 219.982 120.698 219.906 120.901C219.83 121.103 219.799 121.32 219.814 121.535V136.992C219.798 137.191 219.824 137.392 219.888 137.582C219.953 137.772 220.055 137.947 220.189 138.096C220.322 138.246 220.485 138.367 220.667 138.452C220.849 138.537 221.046 138.585 221.246 138.593H221.561L221.531 140.478ZM220.596 118.656C218.513 118.656 218.117 119.386 218.117 120.684V137.64C218.117 138.988 218.513 139.718 220.596 139.718H220.83V139.201C220.315 139.095 219.854 138.809 219.532 138.395C219.21 137.981 219.047 137.465 219.072 136.941V121.484C219.057 121.176 219.108 120.867 219.219 120.579C219.331 120.291 219.502 120.029 219.721 119.811C219.94 119.592 220.203 119.422 220.492 119.31C220.78 119.199 221.089 119.149 221.399 119.163H221.978C222.285 119.152 222.592 119.204 222.878 119.317C223.164 119.43 223.423 119.601 223.639 119.819C223.855 120.038 224.023 120.298 224.133 120.585C224.242 120.872 224.29 121.178 224.275 121.484V122.721H225.23V120.694C225.23 119.346 224.834 118.667 222.75 118.667L220.596 118.656Z" fill="#00517E"/>
<path d="M224.478 138.948H221.175V140.123H224.478V138.948Z" fill="#00517E"/>
<path d="M224.813 140.478H220.81V138.593H224.813V140.478ZM221.511 139.769H224.112V139.292H221.511V139.769Z" fill="#00517E"/>
<path d="M224.742 178.993H154.078V181.334H224.742V178.993Z" fill="#00517E"/>
<path d="M72.1135 178.993H1.4491V181.334H72.1135V178.993Z" fill="#00517E"/>
</g>
<defs>
<clipPath id="clip0_4_42">
<rect width="228" height="184" fill="white"/>
</clipPath>
</defs>
</svg>
