<svg xmlns="http://www.w3.org/2000/svg" width="448.31" height="368.27" viewBox="0 0 448.31 368.27"><g id="Layer_2" data-name="Layer 2"><g id="Layer_1-2" data-name="Layer 1"><path d="M448.27,64.65c-.47,3.11-.94,6.24-1.42,9.36A3,3,0,0,1,443,76.48a463.42,463.42,0,0,0-115-19,3.08,3.08,0,0,0-3.1,2.54l-2.28,13a3.1,3.1,0,0,1-1.16,1.92L313.43,81,273.44,49,312,23l16.57,3.18A3,3,0,0,1,331,29.74l-1.49,7.59A3.06,3.06,0,0,0,332.34,41,433.33,433.33,0,0,1,446.19,61.29,3,3,0,0,1,448.27,64.65Z" fill="#00517e"/><path d="M32.93,274.2l-28,45a32.17,32.17,0,0,0-1.47,31.56,31.18,31.18,0,0,0,25.23,17.36c.48.05,1,.08,1.46.1s1.18,0,1.77,0a35.68,35.68,0,0,0,8-.9,31.11,31.11,0,0,0,21.9-18.3,32,32,0,0,0-1.85-29.28Zm-.17,15,20.47,34.58A24.34,24.34,0,0,1,54.64,346a23.47,23.47,0,0,1-16.49,13.8,28.4,28.4,0,0,1-7.64.67l-1.14-.08a23.52,23.52,0,0,1-19-13.09,24.48,24.48,0,0,1,1.11-24Z" fill="#a57f2d"/><path d="M30,266.57q.45,0,.9.06l1.09,0a21.91,21.91,0,0,0,4.9-.55A19.25,19.25,0,0,0,50.47,254.8a19.77,19.77,0,0,0-1.15-18.07L32.66,208.58l-17.3,27.78a19.89,19.89,0,0,0-.91,19.49A19.29,19.29,0,0,0,30,266.57Zm2.45-43,10.15,17.14a12.09,12.09,0,0,1,.69,11,11.55,11.55,0,0,1-8.11,6.81,15,15,0,0,1-3.19.35l-1.29-.06a11.39,11.39,0,0,1-9.34-6.45A12.13,12.13,0,0,1,22,240.47Z" fill="#a57f2d"/><path d="M263.65,49.14l41.81-28.25L197,.08a4.53,4.53,0,0,0-3.65.89L68.62,98.34a4.51,4.51,0,0,0-1.74,3.06,4.45,4.45,0,0,0,1,3.37l38.38,48.1a4.55,4.55,0,0,0,6.43.72l60.55-49a1.82,1.82,0,0,1,1.27-.31l83,16.17a4.54,4.54,0,0,0,3.6-.83l46.73-35.23ZM295.1,84.2l-37.58,28.34L175.9,96.64a9.44,9.44,0,0,0-7.58,1.9l-58,47-34.35-43L197,8l88.52,17-35,23.63Z" fill="#a57f2d"/><path d="M65.54,107.79a5.41,5.41,0,0,0-7.39-.83l-9.62,7.66a5.26,5.26,0,0,0-.84,7.39l9.24,11.61-17.08,13.6a5.26,5.26,0,0,0-.84,7.39l11.64,14.62a5.22,5.22,0,0,0,4.11,2A5.27,5.27,0,0,0,58,170.07l17.08-13.61,9.58,12a5.27,5.27,0,0,0,7.39.84l9.62-7.67a5.25,5.25,0,0,0,.84-7.38Zm2.9,44.07L55.16,162.43l-8.51-10.7,13.27-10.56Zm26.47,5.3-5.69,4.54L55.33,119.13,61,114.6Z" fill="#a57f2d"/><path d="M218.17,76.42,203.31,86.94a7.55,7.55,0,0,0-1.62,7.66,8,8,0,0,0,5.7,4.92l41.05,7.34a4.26,4.26,0,0,0,.8.08,4.57,4.57,0,0,0,2.8-1l15.61-12.16a4.48,4.48,0,0,0,1.63-2.5,6.75,6.75,0,0,0-.14-3.57,7.11,7.11,0,0,0-4.62-4.44L221.6,75.65A4.53,4.53,0,0,0,218.17,76.42Zm-9,15.83,12.35-8.72,38,6.77L248.39,99Z" fill="#a57f2d"/></g></g></svg>