<svg width="100" height="30" viewBox="0 0 100 30" fill="none" xmlns="http://www.w3.org/2000/svg">
<g clip-path="url(#clip0_150_17)">
<path d="M94.9384 3H4.06152V27H94.9384V3Z" fill="#F47C20"/>
<path d="M23.1084 13.8265H25.9329C26.1501 13.8265 26.1622 13.8265 26.1019 14.0563C25.8484 15.0603 25.5828 16.0765 25.3293 17.0926C25.0759 18.1087 24.8586 18.8226 24.6413 19.6936C24.6321 19.748 24.6062 19.7981 24.5673 19.8371C24.5284 19.8761 24.4783 19.902 24.4241 19.9112C23.9171 19.9717 23.4222 20.0805 22.9153 20.1047C21.7083 20.1047 20.5013 20.1894 19.2942 20.1773C18.0978 20.1873 16.909 19.9866 15.7818 19.5846C14.5933 19.1947 13.5857 18.387 12.9453 17.3106C12.455 16.3879 12.265 15.3347 12.4021 14.2985C12.4584 13.5806 12.6467 12.879 12.9573 12.2297C13.5177 11.1176 14.4187 10.2147 15.5283 9.6532C16.4952 9.14797 17.5396 8.80851 18.6183 8.64908C19.4149 8.5402 20.2116 8.47979 21.0323 8.41931C22.0918 8.3445 23.1561 8.38518 24.2068 8.54039C24.9672 8.62507 25.7277 8.7942 26.4881 8.91517C26.6088 8.91517 26.645 9.00005 26.5967 9.12102C26.3553 9.82263 26.1139 10.5363 25.8604 11.238C25.8604 11.3831 25.7277 11.3345 25.6311 11.3103C25.0879 11.1772 24.5568 11.0081 24.0137 10.9234C23.4578 10.8371 22.8978 10.7804 22.336 10.7539C21.3981 10.6724 20.4533 10.7626 19.5477 11.02C18.9635 11.1609 18.4168 11.4278 17.9458 11.8017C17.4747 12.1757 17.0905 12.6477 16.8198 13.1854C16.5613 13.6576 16.411 14.1816 16.3797 14.7193C16.3483 15.257 16.4368 15.7951 16.6388 16.2943C16.7814 16.6293 16.9926 16.9306 17.2587 17.1785C17.5248 17.4265 17.84 17.6156 18.1838 17.7338C18.8752 18.0001 19.6204 18.0955 20.3564 18.012L21.2013 17.8791C21.2529 17.8765 21.3019 17.8555 21.3395 17.82C21.3771 17.7845 21.4008 17.7368 21.4065 17.6853C21.5514 17.1531 21.7083 16.6089 21.8652 16.0767C21.8652 15.9073 21.8652 15.8587 21.6962 15.8587H19.8977C19.6684 15.8587 19.6563 15.8588 19.7167 15.6168C19.8374 15.0725 19.9822 14.5404 20.1029 13.9961C20.1042 13.9667 20.1117 13.9378 20.1249 13.9116C20.1382 13.8854 20.1569 13.8626 20.1798 13.8443C20.2026 13.8259 20.2292 13.8128 20.2575 13.8056C20.2859 13.7984 20.3155 13.7971 20.3443 13.8023L23.1084 13.8265Z" fill="white"/>
<path d="M39.2705 24.8951C39.3912 24.4113 39.4999 23.9756 39.6206 23.5281C39.8258 22.6692 40.0309 21.8226 40.2482 20.9637C40.6103 19.5121 40.9845 18.0482 41.3587 16.5966C41.4553 16.2216 41.5639 15.8346 41.6484 15.4596C41.6484 15.3144 41.7449 15.278 41.8777 15.278C42.8796 15.278 43.8814 15.278 44.8953 15.278C45.0401 15.278 45.0884 15.2782 45.0522 15.4838C44.8591 16.258 44.678 17.0321 44.4969 17.8184C44.4969 18.012 44.497 18.0361 44.6659 18.0361H46.4523C46.8026 18.0537 47.1525 17.9949 47.4777 17.8633C47.8029 17.7317 48.0955 17.5306 48.3353 17.2741C48.6159 16.9642 48.8199 16.5925 48.9311 16.1891C49.0422 15.7857 49.0572 15.3616 48.975 14.9513C48.9262 14.6673 48.7777 14.4104 48.5564 14.2263C48.3351 14.0422 48.0556 13.9433 47.768 13.9475C47.5549 13.9355 47.3413 13.9355 47.1283 13.9475H41.9984L42.5295 11.5281H49.156C50.0053 11.5039 50.834 11.7921 51.4856 12.3385C51.9742 12.7438 52.3035 13.3097 52.415 13.9354C52.6977 15.3513 52.4438 16.8219 51.7028 18.0603C51.4075 18.5529 51.0139 18.9791 50.5466 19.3122C50.0793 19.6452 49.5483 19.8781 48.987 19.9959C48.4884 20.1141 47.9786 20.1789 47.4663 20.1893C46.3316 20.1893 45.2091 20.1893 44.0745 20.1893C43.9055 20.1893 43.8451 20.2618 43.8089 20.4191C43.5917 21.3747 43.3623 22.3305 43.133 23.2862C43.1213 23.3259 43.1012 23.3627 43.0741 23.394C43.0471 23.4253 43.0136 23.4502 42.9761 23.4675L39.4153 24.8709L39.2705 24.8951Z" fill="white"/>
<path d="M76.6279 12.4839L76.7727 12.3991C77.4537 11.8423 78.308 11.5427 79.1868 11.5524C79.7782 11.5524 80.3939 11.5524 80.9612 11.5524C81.7299 11.5523 82.4769 11.8073 83.0855 12.278C83.3594 12.5039 83.5819 12.786 83.738 13.1052C83.8942 13.4245 83.9803 13.7735 83.9907 14.1289C84.0132 14.8489 83.9195 15.5678 83.7131 16.2579C83.3993 17.4676 83.0975 18.75 82.7958 20.008C82.7958 20.1653 82.6993 20.2257 82.5303 20.2257H78.9092C78.9026 20.1573 78.9026 20.0885 78.9092 20.0201C79.2713 18.5443 79.6575 17.0683 80.0196 15.5925C80.0763 15.3586 80.1086 15.1196 80.1162 14.879C80.1328 14.6972 80.0868 14.5152 79.9858 14.3633C79.8847 14.2115 79.7348 14.0986 79.561 14.0441C79.0144 13.8266 78.4056 13.8266 77.8591 14.0441C77.4183 14.1922 77.0238 14.4533 76.7147 14.8013C76.4056 15.1493 76.1926 15.5722 76.0968 16.0281C75.7468 17.3467 75.4088 18.6531 75.0709 19.9717C74.9864 20.2862 75.0708 20.2378 74.7087 20.2378H71.4981C71.2687 20.2378 71.2687 20.2379 71.317 20.008L72.4396 15.3627C72.7293 14.1531 73.0189 12.9434 73.3207 11.7337C73.3219 11.7028 73.3298 11.6724 73.3437 11.6448C73.3575 11.6172 73.3771 11.5931 73.401 11.5736C73.425 11.5542 73.4528 11.5398 73.4827 11.532C73.5125 11.5242 73.5437 11.523 73.5741 11.5282H76.6158C76.8331 11.5282 76.8452 11.5281 76.7969 11.7458C76.7486 11.9636 76.6279 12.2056 76.6279 12.4839Z" fill="white"/>
<path d="M64.6421 20.2135C63.6657 20.2355 62.6931 20.0842 61.7694 19.7661C61.299 19.6182 60.8636 19.3756 60.49 19.0532C60.1165 18.7307 59.8125 18.3353 59.5968 17.891C59.3403 17.3101 59.2404 16.6719 59.3071 16.0402C59.354 15.4121 59.5351 14.8016 59.8382 14.2499C60.2335 13.539 60.8186 12.9523 61.528 12.5562C62.4538 12.0203 63.4821 11.6866 64.5456 11.5765C65.5782 11.4533 66.6232 11.4816 67.6476 11.661C68.5295 11.7816 69.363 12.1368 70.0617 12.6894C70.4291 12.9778 70.7281 13.3445 70.9368 13.7629C71.1456 14.1813 71.2589 14.641 71.2687 15.1087C71.3165 16.0368 71.0898 16.9584 70.6169 17.7578C70.2689 18.3205 69.7933 18.7931 69.2288 19.137C68.305 19.6851 67.2691 20.0157 66.1992 20.1045C65.6439 20.165 65.137 20.1772 64.6421 20.2135ZM67.5028 15.29V15.0482C67.4999 14.7438 67.4016 14.4482 67.2218 14.2029C67.042 13.9576 66.7898 13.7752 66.5009 13.6814C66.0146 13.5225 65.4905 13.5225 65.0042 13.6814C64.405 13.8568 63.8818 14.2286 63.5185 14.7375C63.1552 15.2463 62.9729 15.8625 63.0006 16.4876C62.993 16.8121 63.0849 17.1312 63.2641 17.4017C63.4432 17.6721 63.701 17.8808 64.0024 17.9997C64.3859 18.1502 64.8024 18.1963 65.2094 18.1329C65.5419 18.1053 65.8646 18.0068 66.1561 17.8441C66.4475 17.6813 66.7009 17.4582 66.8993 17.1893C67.3014 16.639 67.5133 15.9721 67.5028 15.29Z" fill="white"/>
<path d="M26.0415 20.1774C26.126 19.8508 26.1984 19.5363 26.2708 19.2338C26.7054 17.4798 27.1398 15.726 27.5623 13.9719C27.7554 13.1977 27.9365 12.4233 28.1296 11.6491C28.1406 11.6144 28.1612 11.5835 28.1889 11.56C28.2167 11.5364 28.2505 11.5214 28.2865 11.5162C29.3367 11.5162 30.3868 11.5162 31.4489 11.5162H31.6059L31.4007 12.4356L31.9076 12.1332C32.6299 11.6804 33.4702 11.453 34.3217 11.4799C34.8407 11.4799 35.3597 11.4799 35.8666 11.4799H36.108C36.108 11.6856 36.0236 11.8549 35.9753 12.0242C35.8304 12.5807 35.6735 13.1252 35.5287 13.6816C35.5274 13.7109 35.5199 13.7396 35.5067 13.7658C35.4934 13.792 35.4747 13.8148 35.4519 13.8331C35.429 13.8515 35.4024 13.8649 35.3741 13.8721C35.3457 13.8793 35.3161 13.8803 35.2873 13.8751H33.525C32.9011 13.8411 32.2862 14.0361 31.7953 14.4235C31.3043 14.8109 30.971 15.3641 30.8575 15.9799C30.4954 17.3105 30.1574 18.6533 29.8074 19.984C29.8074 20.1171 29.7229 20.1774 29.566 20.1774H26.0294H26.0415Z" fill="white"/>
<path d="M37.0737 20.1894H35.396C35.1787 20.1894 35.1666 20.1895 35.2149 19.9717C35.5167 18.7621 35.8305 17.5525 36.1322 16.4033C36.3012 15.7258 36.4702 15.0361 36.6513 14.3466C36.8806 13.4393 37.11 12.5442 37.3514 11.6369C37.3514 11.5159 37.472 11.5161 37.5686 11.5161H40.912C41.1414 11.5161 41.1535 11.516 41.0931 11.7338L39.9706 16.149C39.6568 17.3587 39.3309 18.6774 39.005 19.9475C39.005 20.129 38.8963 20.2015 38.7032 20.1894H37.0737Z" fill="white"/>
<path d="M55.698 17.3949H53.6944C53.4651 17.3949 53.4651 17.395 53.5013 17.1652C53.5979 16.5845 53.6944 15.9556 53.8031 15.4354C53.8164 15.4008 53.8374 15.3696 53.8646 15.3445C53.8918 15.3193 53.9244 15.3006 53.9599 15.2901C54.0561 15.2785 54.1535 15.2785 54.2497 15.2901H58.1001C58.3415 15.2901 58.3656 15.2901 58.3294 15.5683C58.2449 16.1127 58.1483 16.6693 58.0638 17.2136C58.0638 17.3588 57.9914 17.407 57.8345 17.407L55.698 17.3949Z" fill="white"/>
<path d="M37.6047 10.5241L37.8703 9.47186C37.9548 9.14525 38.0513 8.80645 38.1358 8.46774C38.1358 8.35887 38.1359 8.29822 38.329 8.29822H41.9501C41.9557 8.35857 41.9557 8.4195 41.9501 8.47985C41.7932 9.09678 41.6362 9.68956 41.4672 10.3307C41.4672 10.4275 41.4673 10.5241 41.2741 10.512H37.6531L37.6047 10.5241Z" fill="white"/>
<path d="M86.6824 9.84674C86.6828 10.013 86.649 10.1776 86.5831 10.3302C86.5172 10.4828 86.4207 10.6201 86.2996 10.7336C86.1784 10.8471 86.0351 10.9344 85.8787 10.99C85.7224 11.0455 85.5564 11.0681 85.3909 11.0564C85.225 11.0568 85.0608 11.0232 84.9086 10.9572C84.7563 10.8912 84.6193 10.7942 84.506 10.6728C84.3928 10.5513 84.3058 10.4077 84.2503 10.2511C84.1949 10.0944 84.1723 9.92811 84.1839 9.76228C84.1836 9.59712 84.217 9.43348 84.2821 9.28177C84.3473 9.13007 84.4427 8.99345 84.5626 8.88012C84.6825 8.76679 84.8242 8.67923 84.9791 8.62289C85.1341 8.56655 85.2988 8.54269 85.4633 8.5526C85.6302 8.55052 85.7957 8.58301 85.9494 8.64829C86.1031 8.71356 86.2415 8.81017 86.3561 8.93181C86.4706 9.05344 86.5588 9.1975 86.6149 9.35502C86.6711 9.51253 86.6941 9.67989 86.6824 9.84674ZM85.4754 8.85502C85.3486 8.8518 85.2223 8.87342 85.1039 8.91911C84.9856 8.96479 84.8773 9.03349 84.7854 9.12111C84.6935 9.20874 84.6197 9.31382 84.5683 9.43003C84.5168 9.54624 84.4888 9.67121 84.4856 9.79831C84.484 9.92688 84.5082 10.0547 84.5569 10.1737C84.6056 10.2926 84.6778 10.4005 84.769 10.4909C84.8603 10.5812 84.9689 10.652 85.0882 10.6994C85.2075 10.7467 85.3351 10.7694 85.4633 10.7661C85.7121 10.7662 85.951 10.669 86.1292 10.495C86.3073 10.321 86.4105 10.0839 86.4168 9.83463C86.4202 9.70505 86.3972 9.5764 86.3492 9.45602C86.3012 9.33564 86.2293 9.22606 86.1378 9.1344C86.0464 9.04275 85.9373 8.97072 85.8172 8.92265C85.6971 8.87459 85.5684 8.8517 85.4391 8.85502H85.4754Z" fill="white"/>
<path d="M86.0306 10.4515C85.5237 10.6692 85.4754 10.246 85.2944 10.004C85.2823 10.0883 85.2823 10.1738 85.2944 10.258C85.2944 10.4274 85.2944 10.4999 85.0771 10.4757H84.884C84.884 10.0523 84.884 9.6289 84.884 9.26599C84.884 9.26599 84.9564 9.16942 84.9926 9.16942H85.6082C85.6886 9.16221 85.769 9.182 85.8368 9.22583C85.9046 9.26966 85.9558 9.33496 85.9824 9.41129C86.0153 9.48866 86.0212 9.57466 85.9993 9.65583C85.9774 9.737 85.929 9.80848 85.8617 9.85872C85.7652 9.9313 85.7772 9.992 85.8617 10.0767L86.0306 10.4515ZM85.3306 9.35075C85.3306 9.44753 85.222 9.50792 85.234 9.5563C85.2463 9.58478 85.2645 9.61045 85.2874 9.63132C85.3103 9.65218 85.3373 9.66786 85.3668 9.67739C85.4288 9.64077 85.4856 9.59589 85.5358 9.54419L85.3306 9.35075Z" fill="white"/>
</g>
<defs>
<clipPath id="clip0_150_17">
<rect width="91" height="24" fill="white" transform="translate(4 3)"/>
</clipPath>
</defs>
</svg>
