<svg width="130" height="130" viewBox="0 0 130 130" fill="none" xmlns="http://www.w3.org/2000/svg">
<g clip-path="url(#clip0_63_155)">
<path fill-rule="evenodd" clip-rule="evenodd" d="M83.1558 77.4066C82.9865 77.4073 82.8188 77.3739 82.6622 77.3085C82.5057 77.2431 82.3636 77.1469 82.244 77.0255L77.7574 72.4813C77.6227 72.3636 77.5134 72.2191 77.4364 72.0567C77.3593 71.8943 77.316 71.7177 77.3093 71.5376C77.3026 71.3576 77.3326 71.1781 77.3974 71.0103C77.4622 70.8425 77.5605 70.6901 77.686 70.5624C77.8115 70.4348 77.9617 70.3347 78.1271 70.2684C78.2925 70.2021 78.4696 70.1709 78.6474 70.177C78.8252 70.183 78.9998 70.2262 79.1604 70.3037C79.3211 70.3811 79.4642 70.4911 79.581 70.627L83.1558 74.2476L94.6837 62.5795C94.9316 62.3627 95.2515 62.2492 95.5788 62.2617C95.9062 62.2742 96.2167 62.4117 96.4479 62.6467C96.679 62.8818 96.8137 63.1968 96.8247 63.5284C96.8357 63.8599 96.7223 64.1835 96.5073 64.4338L84.0749 77.0255C83.9542 77.1474 83.8108 77.244 83.6531 77.3094C83.4953 77.3748 83.3263 77.4078 83.1558 77.4066Z" fill="#A57F2D"/>
<path fill-rule="evenodd" clip-rule="evenodd" d="M87.1287 55.5726C89.9086 55.5712 92.6264 56.4048 94.9384 57.9679C97.2504 59.531 99.0528 61.7535 100.118 64.3542C101.182 66.9549 101.462 69.817 100.92 72.5785C100.379 75.34 99.041 77.8769 97.0758 79.8682C95.1107 81.8596 92.6066 83.2159 89.8804 83.7657C87.1541 84.3155 84.328 84.034 81.7597 82.9569C79.1913 81.8798 76.996 80.0554 75.4515 77.7146C73.907 75.3737 73.0826 72.6217 73.0826 69.8062C73.0864 66.0337 74.5673 62.4168 77.2004 59.7485C79.8335 57.0803 83.404 55.5785 87.1287 55.5726ZM87.1287 54.2682C84.0945 54.2682 81.1284 55.1794 78.6055 56.8868C76.0826 58.5941 74.1162 61.0207 72.955 63.86C71.7939 66.6992 71.4901 69.8233 72.082 72.8374C72.674 75.8515 74.1351 78.6201 76.2806 80.7932C78.4262 82.9662 81.1598 84.4461 84.1358 85.0456C87.1118 85.6452 90.1964 85.3375 92.9997 84.1615C95.803 82.9855 98.199 80.9939 99.8848 78.4387C101.571 75.8835 102.47 72.8794 102.47 69.8062C102.47 65.6853 100.854 61.7331 97.9769 58.8191C95.0998 55.9052 91.1976 54.2682 87.1287 54.2682Z" fill="#A57F2D"/>
<path d="M64.5 108.197C80.2947 108.197 93.0989 107.298 93.0989 106.189C93.0989 105.08 80.2947 104.181 64.5 104.181C48.7052 104.181 35.9011 105.08 35.9011 106.189C35.9011 107.298 48.7052 108.197 64.5 108.197Z" fill="white"/>
<path d="M64.5 109.634C91.6373 109.634 113.636 108.091 113.636 106.189C113.636 104.286 91.6373 102.744 64.5 102.744C37.3628 102.744 15.3637 104.286 15.3637 106.189C15.3637 108.091 37.3628 109.634 64.5 109.634Z" stroke="white" stroke-width="1.33439" stroke-miterlimit="10"/>
<path d="M64.2973 85.7471L34.6274 28.5787C34.4931 28.3202 34.2628 28.1262 33.9873 28.0396C33.7118 27.953 33.4137 27.9808 33.1584 28.1169C32.9032 28.253 32.7117 28.4862 32.6262 28.7652C32.5407 29.0442 32.5682 29.3462 32.7025 29.6048L62.3724 86.7732L64.8691 88.9719L64.2973 85.7471Z" fill="white"/>
<path d="M59.9844 89.0162L59.4634 86.7662L66.3019 91.6035L65.8026 83.1675L67.4236 84.8019L68.0532 94.7697L59.9844 89.0162Z" fill="#A57F2D"/>
<path d="M49.8966 85.7471L20.2267 28.5787C20.0923 28.3202 19.8621 28.1262 19.5866 28.0396C19.3111 27.953 19.0129 27.9808 18.7576 28.1169C18.5024 28.253 18.311 28.4862 18.2255 28.7652C18.14 29.0442 18.1674 29.3462 18.3017 29.6048L47.9717 86.7732L50.461 88.9719L49.8966 85.7471Z" fill="white"/>
<path d="M45.5908 89.0162L45.0626 86.7662L51.9011 91.6035L51.4018 83.1675L53.0228 84.8019L53.6524 94.7697L45.5908 89.0162Z" fill="#A57F2D"/>
</g>
<defs>
<clipPath id="clip0_63_155">
<rect width="99" height="82" fill="white" transform="translate(15 28)"/>
</clipPath>
</defs>
</svg>
