<svg width="131" height="131" viewBox="0 0 131 131" fill="none" xmlns="http://www.w3.org/2000/svg">
<g clip-path="url(#clip0_182_57)">
<path fill-rule="evenodd" clip-rule="evenodd" d="M83.2255 78.1463C83.0562 78.147 82.8885 78.1137 82.7319 78.0483C82.5754 77.9829 82.4333 77.8866 82.3137 77.7652L77.8271 73.2211C77.6924 73.1034 77.5831 72.9588 77.5061 72.7965C77.429 72.6341 77.3857 72.4574 77.379 72.2774C77.3723 72.0973 77.4023 71.9178 77.4671 71.75C77.532 71.5823 77.6302 71.4298 77.7557 71.3022C77.8812 71.1745 78.0314 71.0745 78.1968 71.0082C78.3622 70.9419 78.5393 70.9107 78.7171 70.9167C78.8949 70.9228 79.0695 70.966 79.2301 71.0434C79.3908 71.1208 79.5339 71.2308 79.6507 71.3667L83.2255 74.9874L94.7534 63.3192C95.0013 63.1024 95.3212 62.9889 95.6485 63.0014C95.9759 63.0139 96.2864 63.1514 96.5176 63.3865C96.7487 63.6215 96.8834 63.9365 96.8944 64.2681C96.9054 64.5997 96.792 64.9233 96.577 65.1735L84.1446 77.7652C84.0239 77.8872 83.8805 77.9837 83.7228 78.0492C83.565 78.1146 83.396 78.1476 83.2255 78.1463Z" fill="#A57F2D"/>
<path fill-rule="evenodd" clip-rule="evenodd" d="M87.1984 56.3124C89.9783 56.3109 92.6961 57.1445 95.0081 58.7076C97.3201 60.2708 99.1225 62.4932 100.187 65.0939C101.252 67.6946 101.531 70.5568 100.99 73.3183C100.449 76.0798 99.1107 78.6167 97.1455 80.608C95.1804 82.5993 92.6763 83.9556 89.9501 84.5054C87.2238 85.0552 84.3977 84.7737 81.8294 83.6966C79.261 82.6196 77.0657 80.7951 75.5212 78.4543C73.9767 76.1135 73.1523 73.3614 73.1523 70.546C73.1561 66.7735 74.637 63.1565 77.2701 60.4883C79.9032 57.82 83.4737 56.3182 87.1984 56.3124ZM87.1984 55.0079C84.1642 55.0079 81.1981 55.9192 78.6752 57.6265C76.1523 59.3339 74.1859 61.7605 73.0247 64.5997C71.8636 67.4389 71.5598 70.5631 72.1517 73.5772C72.7437 76.5913 74.2048 79.3599 76.3503 81.5329C78.4959 83.706 81.2295 85.1858 84.2055 85.7854C87.1815 86.3849 90.2661 86.0773 93.0694 84.9012C95.8727 83.7252 98.2687 81.7337 99.9545 79.1785C101.64 76.6232 102.54 73.6191 102.54 70.546C102.54 66.425 100.924 62.4728 98.0466 59.5589C95.1695 56.6449 91.2673 55.0079 87.1984 55.0079Z" fill="#A57F2D"/>
<path d="M64.5697 108.937C80.3644 108.937 93.1686 108.038 93.1686 106.929C93.1686 105.819 80.3644 104.92 64.5697 104.92C48.7749 104.92 35.9708 105.819 35.9708 106.929C35.9708 108.038 48.7749 108.937 64.5697 108.937Z" fill="#02517D"/>
<path d="M64.5697 110.373C91.707 110.373 113.706 108.831 113.706 106.929C113.706 105.026 91.707 103.484 64.5697 103.484C37.4325 103.484 15.4334 105.026 15.4334 106.929C15.4334 108.831 37.4325 110.373 64.5697 110.373Z" stroke="#02517D" stroke-width="1.33439" stroke-miterlimit="10"/>
<path d="M64.3671 86.4869L34.6971 29.3185C34.5628 29.06 34.3325 28.8659 34.057 28.7793C33.7816 28.6928 33.4834 28.7206 33.2281 28.8567C32.9729 28.9927 32.7814 29.2259 32.6959 29.5049C32.6104 29.784 32.6379 30.086 32.7722 30.3445L62.4421 87.5129L64.9388 89.7117L64.3671 86.4869Z" fill="#02517D"/>
<path d="M60.0541 89.756L59.5331 87.5059L66.3716 92.3432L65.8723 83.9072L67.4933 85.5417L68.1229 95.5095L60.0541 89.756Z" fill="#A57F2D"/>
<path d="M49.9663 86.4869L20.2964 29.3185C20.162 29.06 19.9318 28.8659 19.6563 28.7793C19.3808 28.6928 19.0826 28.7206 18.8273 28.8567C18.5721 28.9927 18.3807 29.2259 18.2952 29.5049C18.2097 29.784 18.2371 30.086 18.3714 30.3445L48.0414 87.5129L50.5308 89.7117L49.9663 86.4869Z" fill="#02517D"/>
<path d="M45.6605 89.756L45.1323 87.5059L51.9708 92.3432L51.4715 83.9072L53.0925 85.5417L53.7221 95.5095L45.6605 89.756Z" fill="#A57F2D"/>
</g>
<defs>
<clipPath id="clip0_182_57">
<rect width="99" height="82" fill="white" transform="translate(15.0697 28.7397)"/>
</clipPath>
</defs>
</svg>
