<svg width="100" height="30" viewBox="0 0 100 30" fill="none" xmlns="http://www.w3.org/2000/svg">
<path d="M20.0697 10.1556H27.7013V11.1765C27.7013 17.3017 25.3986 19.8743 20.0697 19.8743C14.3944 19.8743 11.9796 17.2608 11.9796 11.1765C11.9796 5.09216 14.3944 2.47876 20.0697 2.47876C24.4612 2.47876 26.662 4.17339 27.467 8.11392H24.6446C24.1046 5.81698 22.7494 4.84716 20.0697 4.84716C16.5239 4.84716 15.0465 6.70513 15.0465 11.1765C15.0465 15.6479 16.5239 17.4956 20.0697 17.4956C23.6155 17.4956 24.879 15.9439 24.879 12.1872H20.0697V10.1556Z" fill="black"/>
<path d="M30.7477 2.98938H33.6822V13.4226C33.6822 16.3218 34.7928 17.506 37.4419 17.506C40.0911 17.506 41.1712 16.2912 41.1712 13.4226V2.98938H44.126V13.4226C44.126 17.9654 42.0882 19.9153 37.4419 19.9153C32.7957 19.9153 30.7477 17.9654 30.7477 13.4226V2.98938Z" fill="black"/>
<path d="M61.7836 2.98938V19.4151H58.3092L50.9119 6.78698V19.4151H48.1201V2.98938H51.5742L58.9612 15.6174V2.98938H61.7836Z" fill="black"/>
<path d="M68.9363 13.2899V19.4151H66.012V2.98938H73.2564C77.5052 2.98938 79.2374 5.1536 79.2374 8.20598C79.2374 10.6969 78.2185 12.3915 75.7935 13.0245L79.431 19.4151H76.3131L72.9508 13.2899H68.9363ZM73.1138 11.2482C75.3248 11.2482 76.3131 10.2273 76.3131 8.18557C76.3131 6.14384 75.2942 5.20465 73.1138 5.20465H68.9363V11.2482H73.1138Z" fill="#FF8500"/>
<path d="M64.1067 21.334V27.7348H62.9655V21.334H64.1067Z" fill="black"/>
<path d="M71.0455 21.334V27.7348H69.7005L66.8272 22.8244V27.7348H65.7369V21.334H67.0717L69.945 26.2443V21.334H71.0455Z" fill="black"/>
<path d="M75.0191 27.7348H72.6859V21.334H75.0191C77.1588 21.334 78.0758 22.2936 78.0758 24.5395C78.0758 26.7854 77.1588 27.7348 75.0191 27.7348ZM73.827 22.2017V26.8671H74.9682C76.3131 26.8671 76.8735 26.1831 76.8735 24.5395C76.8735 22.8959 76.3131 22.2017 74.9682 22.2017H73.827Z" fill="black"/>
<path d="M80.4907 21.334V27.7348H79.3495V21.334H80.4907Z" fill="black"/>
<path d="M85.7787 26.2954H83.2111L82.7322 27.7348H81.5911L83.7715 21.334H85.361L87.3988 27.7348H86.1965L85.7787 26.2954ZM83.476 25.4991H85.5138L84.4949 22.3446L83.476 25.4991Z" fill="black"/>
</svg>
