<svg width="100" height="30" viewBox="0 0 100 30" fill="none" xmlns="http://www.w3.org/2000/svg">
<g clip-path="url(#clip0_150_18)">
<path fill-rule="evenodd" clip-rule="evenodd" d="M27.5776 12.8446C27.5776 18.0549 36.2974 22.3558 47.5086 22.8798V25.8458H24.0099V0.140381H47.5086V2.86912C36.2974 3.33379 27.5776 7.62447 27.5776 12.8446Z" fill="#010101"/>
<path fill-rule="evenodd" clip-rule="evenodd" d="M76.0099 0.0710709V25.7765H52.0927V22.86C63.3637 22.3557 72.1633 18.0551 72.1633 12.8152C72.1633 7.57521 63.3637 3.26445 52.0927 2.77012V0.0413818L76.0099 0.0710709Z" fill="#010101"/>
<path d="M65.1974 6.39859C65.9171 6.75025 66.5468 7.25951 67.0388 7.88811C67.5309 8.51671 67.8724 9.24811 68.0376 10.0269C68.6754 14.5155 61.0617 19.2908 51.0962 20.6848C47.0848 21.3059 42.9935 21.2054 39.018 20.3882C42.5921 21.3405 46.2795 21.8093 49.9801 21.7821C61.3806 21.7821 70.6186 17.6595 70.6186 12.5778C70.5488 10.205 68.5259 8.0299 65.1974 6.39859ZM49.9104 3.3831C38.5098 3.3831 29.2717 7.49602 29.2717 12.5778C29.2717 15.0198 31.3944 17.2343 34.8624 18.8755C34.088 18.5287 33.4057 18.0077 32.8695 17.3539C32.3333 16.7 31.9578 15.9313 31.7731 15.1086C31.1453 10.62 38.749 5.84472 48.7643 4.4408C52.6045 3.85716 56.5166 3.92421 60.3343 4.63873C56.9276 3.78197 53.4247 3.36001 49.9104 3.3831Z" fill="#EB2E3B"/>
<path fill-rule="evenodd" clip-rule="evenodd" d="M41.3898 13.5664L41.4994 13.339V14.7034H40.8118L40.8716 14.5946L41.3898 13.5664Z" fill="#010101"/>
<path fill-rule="evenodd" clip-rule="evenodd" d="M41.4994 9.72046V13.0918L41.3898 13.3192L40.742 14.5946L40.6823 14.7034H39.7654V13.0325H37.8122V14.7824H36.1479V9.72046H37.8122V11.5594H39.8153V9.72046H41.4994Z" fill="#010101"/>
<path d="M39.8153 9.72046V11.5595H37.8222V9.72046H36.1479V14.7826H37.8222V13.0326H39.8153V14.7133H40.7321L40.7919 14.5945H39.9349V12.9138H37.7524V14.6638H36.3174V9.82932H37.7524V11.678H39.9747V9.82932H41.4397V13.3194L41.5593 13.0917V9.72046H39.8153ZM41.5094 13.3389L41.3898 13.5665V14.5552H40.8716L40.8119 14.6737H41.629V13.0623L41.5094 13.3389Z" fill="#010101"/>
<path fill-rule="evenodd" clip-rule="evenodd" d="M47.11 14.6242L46.7911 14.0312L46.6814 13.8236L46.5618 13.6158L44.4491 9.72046H43.3928L41.6688 13.1214L41.5592 13.3389L41.4396 13.5665L40.9214 14.5552L40.8616 14.6737H42.4063L42.9743 13.9322H45.1169L45.5852 14.6737H47.1797L47.11 14.6242ZM43.4128 12.9138L43.9509 12.0736L44.489 12.9138H43.4128Z" fill="#010101"/>
<path d="M47.11 14.6242L46.7911 14.0312L46.6814 13.8236L46.5618 13.6158L44.4491 9.72046H43.3928L41.6688 13.1214L41.5592 13.3389L41.4396 13.5665L40.9214 14.5552L40.8616 14.6737H42.4063L42.9743 13.9322H45.1169L45.5852 14.6737H47.1797L47.11 14.6242ZM45.6351 14.6242L45.1667 13.8728H42.9045L42.3464 14.6242H41.031L41.4197 13.8431L41.6489 13.3983L43.4328 9.85901H44.3595L46.542 13.8827L46.6616 14.0903L46.7712 14.308L46.9605 14.6539L45.6351 14.6242Z" fill="#010101"/>
<path fill-rule="evenodd" clip-rule="evenodd" d="M47.11 14.6242L46.7911 14.0311L46.6814 13.8236V14.7331H47.1698L47.11 14.6242ZM50.6975 12.4492C50.8762 12.2439 51.0034 11.9995 51.0688 11.7362C51.1342 11.4728 51.1359 11.1977 51.0737 10.9336C51.0115 10.6695 50.8871 10.4236 50.7109 10.2162C50.5347 10.0088 50.3116 9.84578 50.0597 9.74023H46.6814V13.5861L46.7911 13.8038L47.2395 14.6242L47.2993 14.7331H48.2261V12.9138H49.2226C49.7608 13.4082 49.7209 14.7331 49.7209 14.7331H51.2954C51.4648 12.8941 50.6478 12.469 50.6478 12.469L50.6975 12.4492ZM49.5415 11.6285H48.266V11.075H49.5814L49.5415 11.6285Z" fill="#010101"/>
<path d="M47.11 14.6242H46.7911V14.0311L46.6814 13.8236L46.5618 13.6157V14.7331H47.1698L47.11 14.6242ZM50.6975 12.4492C50.8762 12.2439 51.0035 11.9995 51.0688 11.7362C51.1342 11.4728 51.1359 11.1977 51.0737 10.9336C51.0115 10.6695 50.8871 10.4236 50.7109 10.2162C50.5347 10.0088 50.3116 9.84578 50.0597 9.74023H46.6814V13.5861L46.7911 13.8038V9.84909H50.0299C50.5042 10.0971 50.8619 10.5193 51.0265 11.0256C51.0666 11.2657 51.0505 11.5117 50.9796 11.7448C50.9088 11.978 50.7851 12.1918 50.6179 12.37L50.5381 12.469L50.6478 12.5382C50.6478 12.5382 51.3752 12.9632 51.1858 14.6143H49.8305C49.8692 13.9751 49.6824 13.3426 49.3023 12.825H48.1065V14.644H47.2296L47.2894 14.7529H48.2161V12.9336H49.2127C49.7508 13.428 49.711 14.7529 49.711 14.7529H51.2855C51.4648 12.8942 50.6478 12.469 50.6478 12.469L50.6975 12.4492Z" fill="#010101"/>
<path fill-rule="evenodd" clip-rule="evenodd" d="M55.5607 12.4691C55.7394 12.2647 55.8668 12.0212 55.9322 11.7585C55.9976 11.4958 55.9992 11.2213 55.9369 10.9578C55.8747 10.6944 55.7503 10.4494 55.5741 10.2429C55.3978 10.0364 55.1746 9.87432 54.9229 9.77002H51.5446V14.7134H53.0893V12.8941H54.0858C54.6239 13.3885 54.5841 14.7134 54.5841 14.7134H56.1586C56.3778 12.8942 55.5607 12.4691 55.5607 12.4691ZM54.4047 11.6484H53.0893V11.1048H54.4047V11.6484Z" fill="#010101"/>
<path d="M55.5009 12.5483L55.3814 12.4889L55.471 12.38C55.6389 12.2023 55.763 11.9886 55.8339 11.7554C55.9048 11.5221 55.9205 11.2758 55.8796 11.0356C55.7123 10.5309 55.3554 10.1096 54.8831 9.85913H51.6443V14.6243H52.9697V12.8053H54.1157C54.4958 13.3229 54.6826 13.9554 54.6439 14.5947H56.0092C56.2284 12.9634 55.5109 12.5582 55.5009 12.5483ZM54.4046 11.6286H53.0892V11.0851H54.4046V11.6286Z" fill="#010101"/>
<path fill-rule="evenodd" clip-rule="evenodd" d="M56.3779 9.72046V14.6638H58.092V9.72046H56.3779ZM57.9824 14.5747H56.4875V9.82932H57.9824V14.5747Z" fill="#010101"/>
<path d="M57.9723 9.82922H56.4875V14.565H57.9723V9.82922Z" fill="#010101"/>
<path fill-rule="evenodd" clip-rule="evenodd" d="M62.2277 14.6836H58.3312V13.1907H61.4504C61.4504 13.1907 61.6596 12.8644 61.1913 12.8941C60.7229 12.9237 59.2679 12.8941 59.2679 12.8941C58.9947 12.7427 58.7581 12.5345 58.574 12.2836C58.3899 12.0327 58.2628 11.7451 58.2016 11.4408V11.2629C58.2605 10.9434 58.3857 10.6394 58.5692 10.3705C58.7528 10.1016 58.9907 9.87353 59.2679 9.70068H62.8156V11.2134H59.9954C59.9954 11.2134 59.6167 11.3519 59.9954 11.5694H62.2277C62.2277 11.5694 64.3404 12.9337 62.2277 14.6836Z" fill="#010101"/>
<path d="M62.2277 11.5892H59.9954C59.6167 11.3717 59.9954 11.2332 59.9954 11.2332H62.8156V9.72046H59.2679C58.9907 9.8933 58.7528 10.1214 58.5692 10.3903C58.3857 10.6592 58.2605 10.9632 58.2016 11.2826V11.4605C58.2628 11.7649 58.3899 12.0525 58.574 12.3034C58.7581 12.5543 58.9947 12.7625 59.2679 12.9138C59.2679 12.9138 60.7229 12.9138 61.1913 12.9138C61.6596 12.9138 61.4504 13.2105 61.4504 13.2105H58.3312V14.7034H62.2277C64.3404 12.9337 62.2277 11.5892 62.2277 11.5892ZM62.2277 14.5552H58.4807V13.2897H61.55C61.5756 13.2373 61.5889 13.1796 61.5889 13.1214C61.5889 13.0632 61.5756 13.0058 61.55 12.9534C61.4902 12.848 61.3606 12.7986 61.1613 12.8052C60.7328 12.8052 59.4771 12.8052 59.2679 12.8052C59.0141 12.6678 58.7936 12.4772 58.6215 12.2467C58.4494 12.0162 58.3299 11.7513 58.2713 11.4704C58.2897 11.1383 58.3903 10.8157 58.5641 10.5312C58.7379 10.2467 58.9796 10.0091 59.2679 9.83922H62.6562V11.1342H59.9156C59.9156 11.1342 59.6864 11.2232 59.6765 11.3913C59.6665 11.5593 59.7462 11.5989 59.8957 11.6879H62.1479C62.3775 11.8389 62.5732 12.0355 62.7224 12.2653C62.8717 12.495 62.9712 12.7529 63.0149 13.0227C63.0068 13.3272 62.928 13.6255 62.7845 13.8948C62.641 14.164 62.4369 14.3967 62.1878 14.5747L62.2277 14.5552Z" fill="#010101"/>
<path fill-rule="evenodd" clip-rule="evenodd" d="M26.0828 29.7707C26.0119 29.677 25.9549 29.5738 25.9133 29.4642L25.1559 27.734L24.4085 29.4147C24.3627 29.5305 24.3025 29.6402 24.2292 29.741C24.1785 29.7917 24.1114 29.8232 24.0398 29.8301V29.8895H24.7375V29.8301C24.6718 29.8446 24.6037 29.8446 24.5381 29.8301C24.5155 29.8173 24.4971 29.7983 24.4848 29.7756C24.4725 29.7528 24.4668 29.7272 24.4684 29.7015C24.4563 29.6427 24.4563 29.5823 24.4684 29.5236L24.558 29.3259H25.2855L25.4051 29.5829C25.4028 29.6225 25.4028 29.6619 25.4051 29.7015C25.4051 29.7015 25.4051 29.7015 25.4051 29.7608C25.4104 29.7716 25.4131 29.7834 25.4131 29.7953C25.4131 29.8073 25.4104 29.8193 25.4051 29.8301C25.3503 29.8497 25.2905 29.8497 25.2357 29.8301V29.8895H26.2323V29.8301C26.1772 29.8273 26.1246 29.8064 26.0828 29.7707ZM24.6179 29.1675L24.9367 28.4557L25.2556 29.1675H24.6179Z" fill="#010101"/>
<path fill-rule="evenodd" clip-rule="evenodd" d="M28.903 29.148L28.8233 29.8895H26.9697V29.8301H27.0394C27.0886 29.8415 27.1398 29.8415 27.1889 29.8301C27.2135 29.8075 27.2337 29.7807 27.2487 29.751C27.2568 29.6853 27.2568 29.6189 27.2487 29.5533V28.169C27.256 28.1 27.256 28.0304 27.2487 27.9614C27.2334 27.9316 27.209 27.9076 27.179 27.8924C27.1332 27.8811 27.0852 27.8811 27.0394 27.8924H26.9697V27.833H28.0859V27.8924H27.9961C27.9469 27.881 27.8959 27.881 27.8467 27.8924C27.8316 27.9005 27.8183 27.9118 27.808 27.9255C27.7977 27.9391 27.7905 27.9546 27.7868 27.9713C27.7868 27.9713 27.7868 28.0602 27.7868 28.169V29.5137C27.772 29.5821 27.772 29.6529 27.7868 29.7213C27.792 29.7365 27.8012 29.7502 27.8135 29.7606C27.8258 29.7711 27.8407 29.7779 27.8567 29.7807C27.9195 29.7897 27.9832 29.7897 28.046 29.7807H28.2154C28.3119 29.7831 28.4074 29.7627 28.4944 29.7213C28.5717 29.6745 28.6366 29.6102 28.6838 29.5335C28.7473 29.4141 28.7975 29.288 28.8333 29.1577L28.903 29.148Z" fill="#010101"/>
<path fill-rule="evenodd" clip-rule="evenodd" d="M30.1686 29.8301V29.8895H29.0724V29.8301H29.1422C29.1913 29.8415 29.2425 29.8415 29.2917 29.8301C29.3068 29.822 29.3199 29.8107 29.3302 29.7971C29.3405 29.7834 29.3479 29.7676 29.3515 29.751C29.362 29.6855 29.362 29.6188 29.3515 29.5533V28.169C29.3609 28.1001 29.3609 28.0303 29.3515 27.9614C29.3455 27.9456 29.3362 27.9314 29.3241 27.9194C29.3121 27.9075 29.2976 27.8983 29.2817 27.8924C29.2361 27.8797 29.1878 27.8797 29.1422 27.8924H29.0724V27.833H30.1686V27.8924H30.0989C30.0498 27.881 29.9986 27.881 29.9494 27.8924C29.9343 27.9005 29.9211 27.9118 29.9107 27.9255C29.9004 27.9391 29.8932 27.9546 29.8896 27.9713C29.8791 28.0368 29.8791 28.1035 29.8896 28.169V29.5533C29.8801 29.6222 29.8801 29.692 29.8896 29.7609C29.9043 29.7911 29.9289 29.8156 29.9594 29.8301C30.005 29.8428 30.0533 29.8428 30.0989 29.8301H30.1686Z" fill="#010101"/>
<path fill-rule="evenodd" clip-rule="evenodd" d="M31.0256 27.7736L32.0222 29.0787V28.1788C32.0333 28.0888 32.0122 27.9978 31.9624 27.9218C31.9306 27.889 31.8915 27.8641 31.8483 27.8486C31.8051 27.8332 31.7589 27.8278 31.7133 27.8329V27.7736H32.4108V27.8329H32.2314C32.1979 27.8531 32.1731 27.8846 32.1617 27.9218C32.1484 27.9937 32.1484 28.0676 32.1617 28.1395V29.8895L30.7465 28.1395V29.4839C30.7427 29.5283 30.7477 29.5731 30.7614 29.6155C30.7751 29.6579 30.7972 29.6972 30.8263 29.7311C30.8818 29.7698 30.9479 29.7905 31.0156 29.7905V29.8499H30.2782V29.7905C30.364 29.7994 30.4499 29.7745 30.5174 29.7212C30.5669 29.6522 30.5916 29.5686 30.5872 29.4839V27.991V27.9317C30.5553 27.8877 30.5146 27.8508 30.4676 27.823C30.422 27.8104 30.3737 27.8104 30.3281 27.823V27.7637L31.0256 27.7736Z" fill="#010101"/>
<path fill-rule="evenodd" clip-rule="evenodd" d="M34.6331 27.734V28.4557H34.5734C34.5421 28.287 34.4544 28.1338 34.3243 28.0208C34.2065 27.9232 34.0591 27.8676 33.9057 27.8627C33.7763 27.8627 33.6504 27.9042 33.5469 27.9812C33.4409 28.056 33.3581 28.1588 33.3078 28.2778C33.2377 28.4436 33.2038 28.6222 33.2082 28.8018C33.2048 28.9757 33.2282 29.1492 33.2779 29.316C33.3156 29.4528 33.3916 29.576 33.4971 29.6718C33.6132 29.7537 33.7533 29.7955 33.8957 29.7905C34.021 29.7916 34.1444 29.7609 34.2545 29.7015C34.3879 29.6204 34.506 29.5168 34.6032 29.3951V29.5829C34.4974 29.693 34.3725 29.7835 34.2345 29.8499C34.0926 29.9083 33.9396 29.9351 33.7861 29.9288C33.5825 29.9343 33.3806 29.8903 33.1982 29.8004C33.026 29.7109 32.884 29.5733 32.7896 29.4048C32.6992 29.2411 32.6512 29.0578 32.65 28.8711C32.6537 28.6697 32.7085 28.4724 32.8095 28.2976C32.9092 28.1247 33.0536 27.9814 33.228 27.8825C33.4013 27.7853 33.597 27.7341 33.7961 27.734C33.9562 27.7366 34.1147 27.7668 34.2644 27.8231L34.4439 27.8825C34.4563 27.8886 34.4698 27.8916 34.4836 27.8916C34.4975 27.8916 34.5112 27.8886 34.5235 27.8825C34.5538 27.8541 34.5718 27.8149 34.5734 27.7736L34.6331 27.734Z" fill="#010101"/>
<path fill-rule="evenodd" clip-rule="evenodd" d="M36.8454 28.0407C36.7378 27.9377 36.6092 27.8589 36.4682 27.8094C36.3272 27.76 36.1773 27.741 36.0283 27.7539C35.8856 27.7436 35.7423 27.7638 35.6081 27.8133C35.474 27.8628 35.3522 27.9403 35.251 28.0407C35.1455 28.1434 35.0627 28.2668 35.0078 28.403C34.9529 28.5391 34.9271 28.6851 34.9321 28.8317C34.9259 29.0893 35.0105 29.341 35.1713 29.5435C35.2764 29.6718 35.4107 29.7736 35.5631 29.8406C35.7155 29.9076 35.8818 29.9379 36.0483 29.929C36.2162 29.9419 36.3848 29.9127 36.5381 29.8435C36.6915 29.7744 36.8247 29.6677 36.9252 29.5336C37.0763 29.3267 37.1566 29.0772 37.1544 28.8218C37.1587 28.5313 37.0477 28.2507 36.8454 28.0407ZM36.5266 29.4247C36.485 29.5486 36.4091 29.6583 36.3074 29.7412C36.2304 29.7905 36.1398 29.8148 36.0483 29.8104C35.9753 29.8136 35.9027 29.799 35.8367 29.768C35.7707 29.7369 35.7133 29.6906 35.6696 29.6325C35.5321 29.3924 35.4696 29.117 35.4901 28.8416C35.4784 28.6018 35.5192 28.3623 35.6097 28.1396C35.6467 28.0546 35.7078 27.982 35.7857 27.9311C35.8637 27.8802 35.955 27.853 36.0483 27.8529C36.1468 27.8534 36.2434 27.8806 36.3273 27.9318C36.4182 28.0103 36.484 28.1134 36.5166 28.2285C36.5819 28.4294 36.6089 28.6407 36.5963 28.8515C36.6035 29.045 36.58 29.2384 36.5266 29.4247Z" fill="#010101"/>
<path fill-rule="evenodd" clip-rule="evenodd" d="M39.2572 29.148L39.1875 29.8895H37.3239V29.8301H37.3936C37.4428 29.8415 37.494 29.8415 37.5431 29.8301C37.5582 29.822 37.5714 29.8107 37.5817 29.7971C37.592 29.7834 37.5992 29.7676 37.6029 29.751C37.6133 29.6855 37.6133 29.6188 37.6029 29.5533V28.169C37.6123 28.1001 37.6123 28.0303 37.6029 27.9614C37.5969 27.9456 37.5875 27.9314 37.5755 27.9194C37.5635 27.9075 37.5491 27.8983 37.5332 27.8924C37.4875 27.8797 37.4392 27.8797 37.3936 27.8924H37.3239V27.833H38.44V27.8924H38.3503C38.3011 27.881 38.25 27.881 38.2009 27.8924C38.1763 27.915 38.156 27.9416 38.141 27.9713C38.1306 28.0368 38.1306 28.1035 38.141 28.169V29.5137C38.1316 29.5826 38.1316 29.6524 38.141 29.7213C38.1476 29.7356 38.1573 29.7485 38.1694 29.7587C38.1814 29.7689 38.1955 29.7764 38.2107 29.7807C38.2735 29.7897 38.3374 29.7897 38.4001 29.7807H38.5795C38.6728 29.7844 38.7656 29.7639 38.8485 29.7213C38.9278 29.677 38.9933 29.6121 39.038 29.5335C39.1096 29.4168 39.1634 29.2901 39.1974 29.1577L39.2572 29.148Z" fill="#010101"/>
<path fill-rule="evenodd" clip-rule="evenodd" d="M40.1341 27.7736L41.1306 29.0787V28.1788C41.1418 28.0888 41.1206 27.9978 41.0708 27.9218C41.0389 27.889 41 27.8641 40.9568 27.8486C40.9136 27.8332 40.8673 27.8278 40.8216 27.8329V27.7736H41.5193V27.8329H41.3399C41.3064 27.8531 41.2816 27.8846 41.2702 27.9218C41.2569 27.9937 41.2569 28.0676 41.2702 28.1395V29.8895H41.2203L39.8053 28.1395V29.4839C39.8014 29.5283 39.8064 29.5731 39.8201 29.6155C39.8338 29.6579 39.8558 29.6972 39.8849 29.7311C39.9404 29.7698 40.0065 29.7905 40.0742 29.7905V29.8499H39.3368V29.7905C39.4226 29.7994 39.5085 29.7745 39.576 29.7212C39.6255 29.6522 39.6502 29.5686 39.6458 29.4839V27.991V27.9317C39.6139 27.8877 39.5732 27.8508 39.5262 27.823C39.4806 27.8104 39.4323 27.8104 39.3867 27.823V27.7637L40.1341 27.7736Z" fill="#010101"/>
<path fill-rule="evenodd" clip-rule="evenodd" d="M43.3032 27.9023V28.7524C43.3574 28.7571 43.412 28.7489 43.4623 28.7282C43.5126 28.7076 43.5571 28.6752 43.5921 28.6339C43.6576 28.5188 43.6951 28.39 43.7017 28.2581H43.7615V29.3655H43.7017C43.6944 29.2625 43.6674 29.1618 43.622 29.0688C43.595 29.0019 43.5458 28.9459 43.4825 28.9105C43.4067 28.8965 43.3291 28.8965 43.2533 28.9105V29.5038C43.2434 29.576 43.2434 29.6491 43.2533 29.7213V29.7806C43.2956 29.793 43.3406 29.793 43.3829 29.7806H43.5124C43.6798 29.7879 43.8447 29.7392 43.9808 29.6423C44.1091 29.5345 44.1998 29.389 44.2399 29.2269L44.1502 29.8992H42.3464V29.84H42.4162C42.462 29.8513 42.51 29.8513 42.5558 29.84C42.5709 29.8319 42.584 29.8206 42.5943 29.807C42.6046 29.7933 42.6118 29.7775 42.6155 29.7608C42.6259 29.6953 42.6259 29.6287 42.6155 29.5632V28.1789C42.6236 28.1198 42.6236 28.06 42.6155 28.001C42.6075 27.9673 42.5902 27.9367 42.5656 27.9122C42.5137 27.8962 42.4582 27.8962 42.4063 27.9122H42.3364V27.8528H44.0804V28.4755H44.0207C44.0033 28.3599 43.9626 28.2491 43.9011 28.1494C43.8388 28.0812 43.7599 28.03 43.6719 28.001H43.343L43.3032 27.9023Z" fill="#010101"/>
<path fill-rule="evenodd" clip-rule="evenodd" d="M46.5518 29.148L46.4722 29.8895H44.6186V29.8301H44.6883C44.7375 29.8415 44.7886 29.8415 44.8378 29.8301C44.8624 29.8075 44.8827 29.7807 44.8977 29.751C44.9058 29.6853 44.9058 29.6189 44.8977 29.5533V28.169C44.905 28.1 44.905 28.0304 44.8977 27.9614C44.8824 27.9316 44.8579 27.9076 44.8278 27.8924C44.782 27.8811 44.7341 27.8811 44.6883 27.8924H44.6186V27.833H45.7347V27.8924H45.6451C45.5959 27.881 45.5447 27.881 45.4956 27.8924C45.4652 27.9116 45.441 27.9389 45.4259 27.9713C45.4177 28.037 45.4177 28.1033 45.4259 28.169V29.5137C45.411 29.5821 45.411 29.6529 45.4259 29.7213C45.431 29.7365 45.4402 29.7502 45.4525 29.7606C45.4648 29.7711 45.4796 29.7779 45.4956 29.7807C45.5583 29.7905 45.6221 29.7905 45.6848 29.7807H45.8543C45.9507 29.7831 46.0464 29.7627 46.1334 29.7213C46.2107 29.6745 46.2755 29.6102 46.3227 29.5335C46.3862 29.4141 46.4364 29.288 46.4722 29.1577L46.5518 29.148Z" fill="#010101"/>
<path fill-rule="evenodd" clip-rule="evenodd" d="M47.5186 27.9023V28.7524C47.5729 28.758 47.6277 28.7502 47.6782 28.7295C47.7286 28.7087 47.773 28.6759 47.8075 28.6339C47.8768 28.5198 47.9178 28.3909 47.9271 28.2581H47.9869V29.3655H47.9271C47.9198 29.2625 47.8927 29.1618 47.8474 29.0688C47.817 29.004 47.7686 28.949 47.7078 28.9105C47.6321 28.8965 47.5544 28.8965 47.4787 28.9105V29.5038C47.4688 29.576 47.4688 29.6491 47.4787 29.7213C47.474 29.7408 47.474 29.7611 47.4787 29.7806C47.5209 29.793 47.5659 29.793 47.6082 29.7806H47.7378C47.9049 29.7864 48.0694 29.7379 48.2061 29.6423C48.3348 29.5364 48.4228 29.3896 48.4553 29.2269H48.5151L48.4253 29.8992H46.6117V29.84H46.6814C46.7305 29.8514 46.7817 29.8514 46.8309 29.84C46.846 29.8319 46.8592 29.8206 46.8696 29.807C46.8799 29.7933 46.8871 29.7775 46.8907 29.7608C46.9012 29.6953 46.9012 29.6287 46.8907 29.5632V28.1789C46.8907 28.08 46.8907 28.0208 46.8907 28.001C46.8826 27.965 46.8613 27.9334 46.8309 27.9122C46.7792 27.8948 46.7232 27.8948 46.6715 27.9122H46.6017V27.8528H48.3556V28.4755H48.2958C48.2803 28.3579 48.2359 28.246 48.1663 28.1494C48.1057 28.0793 48.0261 28.0277 47.937 28.001H47.6182L47.5186 27.9023Z" fill="#010101"/>
<path fill-rule="evenodd" clip-rule="evenodd" d="M50.877 27.734V28.4557H50.8171C50.7824 28.286 50.6912 28.1328 50.558 28.0208C50.4419 27.9203 50.2936 27.8643 50.1395 27.8627C50.0101 27.8627 49.8843 27.9042 49.7808 27.9812C49.6747 28.056 49.5918 28.1588 49.5415 28.2778C49.4794 28.4455 49.449 28.6232 49.4518 28.8018C49.4485 28.9757 49.472 29.1492 49.5217 29.316C49.5594 29.4528 49.6354 29.576 49.7409 29.6718C49.8529 29.7544 49.9901 29.7964 50.1295 29.7905C50.255 29.7929 50.3788 29.7621 50.4883 29.7015C50.6237 29.623 50.7422 29.519 50.8371 29.3951V29.5829C50.7312 29.693 50.6063 29.7835 50.4683 29.8499C50.3301 29.9088 50.1802 29.9356 50.0299 29.9288C49.8231 29.9343 49.6179 29.8904 49.4319 29.8004C49.2634 29.7094 49.1251 29.5719 49.0334 29.4048C48.943 29.2411 48.8951 29.0578 48.8938 28.8711C48.8922 28.669 48.9474 28.4703 49.0532 28.2976C49.15 28.1225 49.2952 27.9785 49.4718 27.8825C49.6451 27.7853 49.8407 27.7341 50.0398 27.734C50.1967 27.7367 50.3519 27.7669 50.4983 27.8231L50.6776 27.8825C50.6915 27.8894 50.7069 27.8928 50.7225 27.8928C50.738 27.8928 50.7534 27.8894 50.7674 27.8825C50.7762 27.8467 50.7762 27.8093 50.7674 27.7736L50.877 27.734Z" fill="#010101"/>
<path fill-rule="evenodd" clip-rule="evenodd" d="M53.0893 27.7737V28.3472C53.0693 28.2461 53.0323 28.1492 52.9796 28.0604C52.935 28.0016 52.8769 27.9541 52.8102 27.9219H52.6109H52.4514V29.5434C52.442 29.6123 52.442 29.6821 52.4514 29.751C52.4661 29.7813 52.4908 29.8057 52.5213 29.8203C52.5669 29.833 52.6151 29.833 52.6607 29.8203H52.7205V29.8797H51.6343V29.8203H51.704C51.7532 29.8317 51.8044 29.8317 51.8535 29.8203C51.8781 29.7977 51.8983 29.7708 51.9133 29.7411C51.9237 29.6756 51.9237 29.6089 51.9133 29.5434V27.9219H51.7539C51.6463 27.9111 51.5388 27.9432 51.4549 28.011C51.3564 28.105 51.2961 28.2318 51.2854 28.367H51.2257V27.7935L53.0893 27.7737Z" fill="#010101"/>
<path fill-rule="evenodd" clip-rule="evenodd" d="M55.3215 29.7709C55.2666 29.7223 55.2195 29.6657 55.182 29.6029L54.6738 28.8911C54.7854 28.8703 54.889 28.8188 54.9728 28.7426C55.029 28.6956 55.0734 28.6364 55.1028 28.5695C55.1322 28.5027 55.1458 28.43 55.1422 28.3571C55.1423 28.2364 55.1038 28.1187 55.0325 28.0209C54.9601 27.9279 54.8584 27.8618 54.7436 27.8331C54.5616 27.7857 54.3734 27.7656 54.1855 27.7737H53.1889V27.8331C53.2511 27.8184 53.3161 27.8184 53.3783 27.8331C53.413 27.8449 53.4416 27.8698 53.458 27.9024C53.4674 27.9713 53.4674 28.0411 53.458 28.11V29.494C53.4674 29.5629 53.4674 29.6327 53.458 29.7016C53.4416 29.7342 53.413 29.7591 53.3783 29.7709C53.3161 29.7856 53.2511 29.7856 53.1889 29.7709V29.8302H54.2553V29.7709C54.1896 29.7854 54.1215 29.7854 54.0559 29.7709C54.0259 29.7557 54.0015 29.7314 53.9862 29.7016C53.9768 29.6327 53.9768 29.5629 53.9862 29.494V28.8911H54.1257L54.8033 29.8797H55.4611V29.8204C55.4106 29.8183 55.3619 29.801 55.3215 29.7709ZM54.5741 28.634C54.5382 28.7004 54.4773 28.7501 54.4047 28.7723C54.2992 28.7914 54.1912 28.7914 54.0858 28.7723H53.9962V27.8529H54.1655C54.2303 27.848 54.2954 27.856 54.357 27.8763C54.4186 27.8967 54.4754 27.929 54.5242 27.9714C54.6043 28.0723 54.6435 28.1994 54.634 28.3275C54.6453 28.4332 54.6244 28.54 54.5741 28.634Z" fill="#010101"/>
<path fill-rule="evenodd" clip-rule="evenodd" d="M56.5972 29.8301V29.8895H55.501V29.8301H55.5707C55.6198 29.8415 55.671 29.8415 55.7202 29.8301C55.7353 29.822 55.7484 29.8107 55.7588 29.7971C55.7691 29.7834 55.7763 29.7676 55.7799 29.751C55.7904 29.6855 55.7904 29.6188 55.7799 29.5533V28.169C55.7894 28.1001 55.7894 28.0303 55.7799 27.9614C55.7739 27.9456 55.7647 27.9314 55.7527 27.9194C55.7406 27.9075 55.7261 27.8983 55.7102 27.8924C55.6646 27.8797 55.6163 27.8797 55.5707 27.8924H55.501V27.833H56.5972V27.8924H56.5273C56.4782 27.881 56.4271 27.881 56.3779 27.8924C56.3628 27.9005 56.3496 27.9118 56.3393 27.9255C56.3289 27.9391 56.3217 27.9546 56.3181 27.9713C56.3076 28.0368 56.3076 28.1035 56.3181 28.169V29.5533C56.3087 29.6222 56.3087 29.692 56.3181 29.7609C56.3328 29.7911 56.3574 29.8156 56.3879 29.8301C56.4336 29.8428 56.4817 29.8428 56.5273 29.8301H56.5972Z" fill="#010101"/>
<path fill-rule="evenodd" clip-rule="evenodd" d="M58.7795 27.734V28.4557H58.7198C58.6844 28.2885 58.5973 28.1365 58.4707 28.0208C58.3529 27.9232 58.2055 27.8676 58.0521 27.8627C57.9222 27.8596 57.7954 27.9014 57.6933 27.9812C57.5873 28.056 57.5045 28.1588 57.4542 28.2778C57.3841 28.4436 57.3502 28.6222 57.3545 28.8018C57.3512 28.9757 57.3746 29.1492 57.4243 29.316C57.462 29.4528 57.538 29.576 57.6435 29.6718C57.7554 29.7544 57.8927 29.7964 58.0321 29.7905C58.1607 29.7928 58.2877 29.7621 58.4009 29.7015C58.533 29.6223 58.6482 29.5184 58.7398 29.3951V29.5829C58.6373 29.6926 58.5158 29.783 58.381 29.8499C58.2391 29.9083 58.086 29.9351 57.9325 29.9288C57.7258 29.9332 57.521 29.8893 57.3346 29.8004C57.1661 29.7094 57.0277 29.5719 56.936 29.4048C56.8456 29.2411 56.7976 29.0578 56.7964 28.8711C56.7948 28.669 56.8501 28.4703 56.9559 28.2976C57.0527 28.1225 57.1979 27.9785 57.3745 27.8825C57.5478 27.7853 57.7434 27.7341 57.9425 27.734C58.0995 27.7356 58.2548 27.7659 58.4009 27.8231L58.5903 27.8825C58.6026 27.8886 58.6163 27.8916 58.6302 27.8916C58.644 27.8916 58.6576 27.8886 58.6699 27.8825C58.7002 27.8541 58.7182 27.8149 58.7198 27.7736L58.7795 27.734Z" fill="#010101"/>
<path fill-rule="evenodd" clip-rule="evenodd" d="M61.859 27.734V28.4557H61.7992C61.7645 28.286 61.6732 28.1328 61.54 28.0208C61.4239 27.9203 61.2756 27.8643 61.1216 27.8627C60.9922 27.8627 60.8662 27.9042 60.7627 27.9812C60.6567 28.056 60.5738 28.1588 60.5235 28.2778C60.4614 28.4455 60.4311 28.6232 60.4339 28.8018C60.4305 28.9757 60.454 29.1492 60.5036 29.316C60.5374 29.4544 60.6142 29.5787 60.7229 29.6718C60.8349 29.7544 60.9722 29.7964 61.1116 29.7905C61.2369 29.7916 61.3603 29.7609 61.4703 29.7015C61.6057 29.623 61.7242 29.519 61.8191 29.3951V29.5829C61.7132 29.693 61.5884 29.7835 61.4504 29.8499C61.3121 29.9088 61.1622 29.9356 61.0118 29.9288C60.805 29.9343 60.5999 29.8904 60.4139 29.8004C60.2455 29.7094 60.107 29.5719 60.0153 29.4048C59.9249 29.2411 59.8771 29.0578 59.8759 28.8711C59.8743 28.669 59.9294 28.4703 60.0352 28.2976C60.132 28.1225 60.2773 27.9785 60.4538 27.8825C60.6272 27.7853 60.8228 27.7341 61.0218 27.734C61.1787 27.7367 61.334 27.7669 61.4803 27.8231L61.6596 27.8825C61.6737 27.8887 61.6891 27.8919 61.7045 27.8919C61.72 27.8919 61.7352 27.8887 61.7493 27.8825C61.7582 27.8467 61.7582 27.8093 61.7493 27.7736L61.859 27.734Z" fill="#010101"/>
<path fill-rule="evenodd" clip-rule="evenodd" d="M64.0513 28.0406C63.9467 27.9362 63.82 27.8563 63.6804 27.8067C63.5407 27.7571 63.3916 27.739 63.244 27.7538C63.0997 27.742 62.9546 27.7615 62.8186 27.811C62.6826 27.8605 62.5592 27.9389 62.4568 28.0406C62.3545 28.1451 62.2745 28.2692 62.2214 28.405C62.1684 28.5409 62.1433 28.6859 62.1478 28.8315C62.1363 29.09 62.2214 29.3435 62.387 29.5434C62.4877 29.6741 62.6199 29.778 62.7713 29.8453C62.9227 29.9126 63.0885 29.9412 63.254 29.9288C63.4219 29.9418 63.5905 29.9125 63.7439 29.8434C63.8972 29.7742 64.0304 29.6675 64.131 29.5335C64.2889 29.3295 64.3731 29.0788 64.3701 28.8216C64.3726 28.6769 64.3457 28.5329 64.2909 28.3988C64.2361 28.2646 64.1546 28.1428 64.0513 28.0406ZM63.7324 29.4246C63.6941 29.5475 63.6215 29.6573 63.5231 29.741C63.443 29.7918 63.3488 29.8161 63.254 29.8103C63.1824 29.8136 63.1112 29.7989 63.0468 29.7678C62.9824 29.7367 62.9268 29.6903 62.8853 29.6324C62.7443 29.3933 62.6785 29.1179 62.696 28.8414C62.6842 28.6016 62.725 28.3622 62.8156 28.1395C62.8535 28.0553 62.915 27.9835 62.9927 27.9327C63.0704 27.8819 63.161 27.8542 63.254 27.8528C63.3528 27.8517 63.4498 27.879 63.533 27.9317C63.6272 28.0092 63.6965 28.1123 63.7324 28.2283C63.7923 28.4304 63.8191 28.6408 63.8121 28.8513C63.8198 29.0449 63.7962 29.2384 63.7423 29.4246H63.7324Z" fill="#010101"/>
<path fill-rule="evenodd" clip-rule="evenodd" d="M66.0444 29.1675L66.6124 27.7736H67.4596V27.833H67.3897C67.3441 27.8203 67.2958 27.8203 67.2502 27.833C67.2198 27.8522 67.1957 27.8797 67.1805 27.9121C67.1724 27.9778 67.1724 28.0442 67.1805 28.1098V29.4939C67.1732 29.5629 67.1732 29.6324 67.1805 29.7014C67.2012 29.7269 67.2245 29.7502 67.2502 29.7707C67.2961 29.7809 67.3438 29.7809 67.3897 29.7707H67.4596V29.8301H66.3732V29.7707H66.4431C66.4887 29.7834 66.537 29.7834 66.5826 29.7707C66.613 29.7515 66.6371 29.724 66.6523 29.6915C66.6604 29.6259 66.6604 29.5595 66.6523 29.4939V27.9317L65.8551 29.8598L65.0379 27.9515V29.4345C65.0301 29.4969 65.0301 29.5601 65.0379 29.6225C65.0433 29.6489 65.054 29.6738 65.0694 29.6959C65.0848 29.718 65.1046 29.7367 65.1276 29.7509C65.1958 29.7716 65.2687 29.7716 65.3369 29.7509V29.8103H64.6193V29.7509H64.7489C64.7844 29.7361 64.8154 29.7121 64.8386 29.6817C64.8459 29.6458 64.8459 29.6089 64.8386 29.573V28.0801C64.846 28.0111 64.846 27.9416 64.8386 27.8725C64.8233 27.8427 64.7988 27.8184 64.7688 27.8033C64.7229 27.7931 64.6752 27.7931 64.6293 27.8033H64.5596V27.7439H65.4166L66.0444 29.1675Z" fill="#010101"/>
<path fill-rule="evenodd" clip-rule="evenodd" d="M69.1037 27.9417C68.9138 27.8133 68.6851 27.754 68.4561 27.7737H67.5492V27.8331C67.6114 27.8184 67.6762 27.8184 67.7385 27.8331C67.7566 27.837 67.7734 27.8454 67.7874 27.8575C67.8013 27.8696 67.812 27.8851 67.8183 27.9024C67.8281 27.9746 67.8281 28.0477 67.8183 28.1199V29.4841C67.8281 29.5563 67.8281 29.6294 67.8183 29.7016C67.8123 29.7174 67.8029 29.7319 67.7909 29.7438C67.7789 29.7558 67.7644 29.7649 67.7485 29.7709C67.6828 29.7854 67.6148 29.7854 67.5492 29.7709V29.8303H68.6055V29.7709C68.5431 29.7846 68.4786 29.7846 68.4162 29.7709C68.3995 29.7663 68.3843 29.7577 68.372 29.7455C68.3598 29.7334 68.3511 29.7182 68.3465 29.7016C68.3311 29.6299 68.3311 29.5558 68.3465 29.4841V28.901C68.5119 28.9216 68.6793 28.9216 68.8448 28.901C68.9811 28.8785 69.1048 28.8082 69.1935 28.703C69.2792 28.6081 69.3255 28.4846 69.3231 28.3571C69.3232 28.2755 69.3032 28.1949 69.2651 28.1225C69.2269 28.0502 69.1715 27.9882 69.1037 27.9417ZM68.6853 28.703C68.6479 28.7408 68.6027 28.7702 68.5528 28.789C68.5029 28.8077 68.4495 28.8156 68.3962 28.8119H68.3265V27.9024H68.3863C68.4412 27.8965 68.4967 27.9031 68.5485 27.9219C68.6004 27.9408 68.6472 27.9713 68.6853 28.011C68.7252 28.057 68.7555 28.1104 68.7743 28.1682C68.7932 28.2259 68.8001 28.2868 68.7949 28.3473C68.8035 28.4752 68.7645 28.6017 68.6853 28.703Z" fill="#010101"/>
<path fill-rule="evenodd" clip-rule="evenodd" d="M71.2863 29.7707C71.2084 29.6801 71.1475 29.5762 71.1068 29.4642L70.3494 27.734L69.602 29.4147C69.5563 29.5305 69.4961 29.6402 69.4227 29.741C69.3761 29.7917 69.3121 29.8235 69.2433 29.8301V29.8895H69.9409V29.8301C69.8718 29.8427 69.8008 29.8427 69.7316 29.8301C69.709 29.8173 69.6906 29.7983 69.6783 29.7756C69.666 29.7528 69.6603 29.7272 69.6619 29.7015C69.6546 29.6424 69.6546 29.5827 69.6619 29.5236L69.7615 29.3259H70.489L70.5986 29.5829L70.6485 29.7015C70.6531 29.721 70.6531 29.7413 70.6485 29.7608C70.6546 29.7714 70.6578 29.7832 70.6578 29.7953C70.6578 29.8075 70.6546 29.8196 70.6485 29.8301C70.6485 29.8301 70.5687 29.8301 70.479 29.8301V29.8895H71.4755V29.8301C71.3659 29.8202 71.3162 29.8103 71.2863 29.7707ZM69.8214 29.1675L70.1402 28.4557L70.4492 29.1675H69.8214Z" fill="#010101"/>
<path fill-rule="evenodd" clip-rule="evenodd" d="M72.2529 27.7736L73.2495 29.0787V28.1788C73.2606 28.0888 73.2395 27.9978 73.1897 27.9218C73.1579 27.889 73.1188 27.8641 73.0756 27.8486C73.0324 27.8332 72.9862 27.8278 72.9406 27.8329V27.7736H73.6381V27.8329H73.4587C73.428 27.856 73.404 27.8865 73.389 27.9218C73.3757 27.9937 73.3757 28.0676 73.389 28.1395V29.8895H73.3391L71.9241 28.1395V29.4839C71.9189 29.5292 71.9242 29.575 71.9398 29.6179C71.9553 29.6608 71.9807 29.6995 72.0138 29.7311C72.0678 29.7725 72.135 29.7935 72.2032 29.7905V29.8499H71.4557V29.7905C71.5415 29.7994 71.6274 29.7745 71.6949 29.7212C71.7486 29.6543 71.7736 29.5691 71.7646 29.4839V27.991V27.9317L71.655 27.823C71.6058 27.8117 71.5547 27.8117 71.5055 27.823V27.7637L72.2529 27.7736Z" fill="#010101"/>
<path fill-rule="evenodd" clip-rule="evenodd" d="M76.0099 27.7736V27.833C75.9525 27.839 75.8976 27.8595 75.8504 27.8924C75.7536 27.9988 75.673 28.1185 75.6113 28.2482L75.1529 29.0194V29.5236C75.1435 29.5925 75.1435 29.6623 75.1529 29.7312C75.1589 29.747 75.1682 29.7612 75.1803 29.7732C75.1923 29.7851 75.2067 29.7945 75.2226 29.8005C75.2649 29.8128 75.3099 29.8128 75.3521 29.8005H75.4717V29.8598H74.2959V29.8005H74.4055C74.4546 29.8118 74.5058 29.8118 74.555 29.8005C74.5825 29.7806 74.6032 29.753 74.6147 29.7213C74.6252 29.6558 74.6252 29.5891 74.6147 29.5236V29.0985L74.1164 28.1987C74.0677 28.0832 74.0004 27.9766 73.9172 27.8825C73.8704 27.8502 73.8147 27.8329 73.7577 27.833V27.7736H74.7542V27.833C74.7121 27.8194 74.6668 27.8194 74.6247 27.833C74.6486 27.936 74.6926 28.0335 74.7542 28.1198L75.1329 28.8118L75.5116 28.1789C75.5778 28.0867 75.6252 27.9828 75.6512 27.8726C75.6596 27.8503 75.6596 27.8256 75.6512 27.8033C75.592 27.7655 75.5219 27.7481 75.4518 27.7538V27.6945L76.0099 27.7736Z" fill="#010101"/>
<path d="M63.6726 15.3362C63.9808 15.3362 64.2307 15.0883 64.2307 14.7825C64.2307 14.4768 63.9808 14.2289 63.6726 14.2289C63.3644 14.2289 63.1146 14.4768 63.1146 14.7825C63.1146 15.0883 63.3644 15.3362 63.6726 15.3362Z" stroke="white" stroke-width="0.0266552" stroke-miterlimit="10"/>
<path fill-rule="evenodd" clip-rule="evenodd" d="M63.9816 15.0595L63.9018 14.9704L63.7623 14.7826C63.8103 14.7699 63.8547 14.7461 63.8918 14.7134C63.9033 14.678 63.9033 14.6399 63.8918 14.6045C63.9041 14.5727 63.9041 14.5376 63.8918 14.5058H63.8122H63.6527H63.4135C63.4331 14.5003 63.4538 14.5003 63.4734 14.5058C63.4734 14.5058 63.4734 14.5056 63.4734 14.5847V15.01C63.4734 15.01 63.4734 15.0791 63.4734 15.0889H63.4135H63.6926C63.6926 15.0889 63.6925 15.0889 63.6327 15.0889C63.5729 15.0889 63.6327 15.0891 63.6327 15.01V14.822H63.7026L63.9218 15.1285H64.1012L63.9816 15.0595ZM63.6327 14.7628V14.4464H63.7026C63.7199 14.4391 63.7385 14.4353 63.7573 14.4353C63.7761 14.4353 63.7948 14.4391 63.8122 14.4464C63.8236 14.4784 63.8236 14.5134 63.8122 14.5454C63.826 14.5803 63.826 14.619 63.8122 14.654C63.7682 14.7113 63.7042 14.7502 63.6327 14.7628Z" fill="white"/>
</g>
<defs>
<clipPath id="clip0_150_18">
<rect width="52" height="30" fill="white" transform="translate(24)"/>
</clipPath>
</defs>
</svg>
