<svg width="100" height="30" viewBox="0 0 100 30" fill="none" xmlns="http://www.w3.org/2000/svg">
<mask id="mask0_150_17" style="mask-type:luminance" maskUnits="userSpaceOnUse" x="14" y="4" width="22" height="22">
<path d="M25.0369 25.4803C30.9145 25.4803 35.6792 20.7065 35.6792 14.8177C35.6792 8.92887 30.9145 4.15503 25.0369 4.15503C19.1594 4.15503 14.3948 8.92887 14.3948 14.8177C14.3948 20.7065 19.1594 25.4803 25.0369 25.4803Z" fill="white"/>
</mask>
<g mask="url(#mask0_150_17)">
<path d="M23.7947 14.8336H13.6194L14.1495 17.6083L23.7947 14.8336Z" fill="#2B2A29"/>
<path d="M23.858 15.1666L14.0387 17.8065L15.2651 20.3592L23.858 15.1666Z" fill="#2B2A29"/>
<path d="M24.0164 15.4836L15.2098 20.5732L17.0534 22.7136L24.0164 15.4836Z" fill="#2B2A29"/>
<path d="M24.2456 15.7374L17.0532 22.9436L19.3874 24.5371L24.2456 15.7374Z" fill="#2B2A29"/>
<path d="M24.5306 15.9355L19.4429 24.759L22.1094 25.6865L24.5306 15.9355Z" fill="#2B2A29"/>
<path d="M24.8548 16.0465L22.22 25.8847L25.0368 26.0908L24.8548 16.0465Z" fill="#2B2A29"/>
<path d="M25.203 16.0624V26.2573L27.9723 25.7262L25.203 16.0624Z" fill="#2B2A29"/>
<path d="M25.5433 15.999L28.1703 25.8372L30.7102 24.6084L25.5433 15.999Z" fill="#2B2A29"/>
<path d="M25.8521 15.8484L30.9318 24.6718L33.0682 22.8247L25.8521 15.8484Z" fill="#2B2A29"/>
<path d="M26.1132 15.6185L33.2976 22.8247L34.888 20.4861L26.1132 15.6185Z" fill="#2B2A29"/>
<path d="M26.303 15.3252L35.1095 20.4227L36.0352 17.751L26.303 15.3252Z" fill="#2B2A29"/>
<path d="M26.4137 15.0002L36.233 17.6401L36.4388 14.8179L26.4137 15.0002Z" fill="#2B2A29"/>
<path d="M23.7947 14.5957H13.6194L14.1495 11.8131L23.7947 14.5957Z" fill="#2B2A29"/>
<path d="M23.858 14.255L14.0387 11.6151L15.2651 9.07031L23.858 14.255Z" fill="#2B2A29"/>
<path d="M24.0164 13.9458L15.2098 8.84835L17.0534 6.70789L24.0164 13.9458Z" fill="#2B2A29"/>
<path d="M24.2456 13.6841L17.0532 6.47786L19.3874 4.89233L24.2456 13.6841Z" fill="#2B2A29"/>
<path d="M24.5306 13.4939L19.4429 4.67045L22.1094 3.73499L24.5306 13.4939Z" fill="#2B2A29"/>
<path d="M24.8548 13.3828L22.22 3.54461L25.0368 3.33057L24.8548 13.3828Z" fill="#2B2A29"/>
<path d="M25.203 13.3591V3.17212L27.9723 3.70327L25.203 13.3591Z" fill="#2B2A29"/>
<path d="M25.5433 13.4305L28.1703 3.58435L30.7102 4.81313L25.5433 13.4305Z" fill="#2B2A29"/>
<path d="M25.8521 13.5811L30.9318 4.75769L33.0682 6.60483L25.8521 13.5811Z" fill="#2B2A29"/>
<path d="M26.1132 13.8111L33.2976 6.60486L34.888 8.94351L26.1132 13.8111Z" fill="#2B2A29"/>
<path d="M26.303 14.0964L35.1095 9.00684L36.0352 11.6784L26.303 14.0964Z" fill="#2B2A29"/>
<path d="M26.4137 14.4293L36.233 11.7894L36.4388 14.6117L26.4137 14.4293Z" fill="#2B2A29"/>
</g>
<path d="M86.8251 26.2018H40.1814C39.684 26.2018 39.2071 26.0038 38.8554 25.6515C38.5037 25.2991 38.3062 24.8212 38.3062 24.3229V4.93989C38.3062 4.44158 38.5037 3.96369 38.8554 3.61134C39.2071 3.25899 39.684 3.06104 40.1814 3.06104H86.8251C87.3218 3.06312 87.7976 3.26174 88.1488 3.61364C88.5 3.96555 88.6982 4.44223 88.7003 4.93989V24.3229C88.6982 24.8206 88.5 25.2973 88.1488 25.6492C87.7976 26.0011 87.3218 26.1997 86.8251 26.2018ZM40.1814 3.40192C39.9798 3.40192 39.7802 3.4417 39.594 3.51899C39.4078 3.59628 39.2385 3.70957 39.096 3.85238C38.9535 3.9952 38.8404 4.16474 38.7633 4.35133C38.6861 4.53792 38.6464 4.73792 38.6464 4.93989V24.3229C38.6464 24.5249 38.6861 24.7249 38.7633 24.9115C38.8404 25.0981 38.9535 25.2676 39.096 25.4104C39.2385 25.5532 39.4078 25.6665 39.594 25.7438C39.7802 25.8211 39.9798 25.8609 40.1814 25.8609H86.8251C87.2322 25.8609 87.6226 25.6989 87.9105 25.4104C88.1984 25.122 88.3601 24.7308 88.3601 24.3229V4.93989C88.3601 4.53199 88.1984 4.14081 87.9105 3.85238C87.6226 3.56396 87.2322 3.40192 86.8251 3.40192H40.1814Z" fill="#2B2A29"/>
<path d="M36.0432 26.2018H14.0941C13.5968 26.2018 13.1198 26.0038 12.7681 25.6515C12.4164 25.2991 12.2189 24.8212 12.2189 24.3229V4.93989C12.2189 4.44158 12.4164 3.96369 12.7681 3.61134C13.1198 3.25899 13.5968 3.06104 14.0941 3.06104H36.0432C36.5405 3.06104 37.0175 3.25899 37.3692 3.61134C37.7208 3.96369 37.9184 4.44158 37.9184 4.93989V24.3229C37.9184 24.8212 37.7208 25.2991 37.3692 25.6515C37.0175 26.0038 36.5405 26.2018 36.0432 26.2018ZM14.0941 3.40192C13.8925 3.40192 13.6929 3.4417 13.5067 3.51899C13.3204 3.59628 13.1512 3.70957 13.0087 3.85238C12.8661 3.9952 12.7531 4.16474 12.6759 4.35133C12.5988 4.53792 12.5591 4.73792 12.5591 4.93989V24.3229C12.5591 24.5249 12.5988 24.7249 12.6759 24.9115C12.7531 25.0981 12.8661 25.2676 13.0087 25.4104C13.1512 25.5532 13.3204 25.6665 13.5067 25.7438C13.6929 25.8211 13.8925 25.8609 14.0941 25.8609H36.0432C36.4503 25.8609 36.8407 25.6989 37.1286 25.4104C37.4164 25.122 37.5782 24.7308 37.5782 24.3229V4.93989C37.5782 4.53199 37.4164 4.14081 37.1286 3.85238C36.8407 3.56396 36.4503 3.40192 36.0432 3.40192H14.0941Z" fill="#2B2A29"/>
<path d="M84.0795 22.2775L80.9066 13.7712L83.7234 6.88209H85.4167V5.52646H80.503V6.88209H81.4447L79.245 12.2649V6.88209H80.329V5.52646H71.6016V6.88209H72.8597L71.4908 17.0057L69.576 5.49475H69.4099H67.5109H67.3447L65.4299 17.0057L64.0611 6.88209H65.7939V5.52646H60.4451V6.88209H61.8773L64.2905 23.8076H64.3063H66.3556H66.4902L68.4604 11.4484L70.4305 23.8076H70.5651H72.6223H72.6302L75.0435 6.88209H76.5073V22.2775H75.4233V23.6332H80.329V22.2775H79.245V16.6568L81.3339 22.2775H80.7404V23.6332H85.6461V22.2775H84.0795Z" fill="#2B2A29"/>
<path d="M58.6726 5.49475H55.6264L52.6671 22.3172H50.7919V6.88209H52.1212V5.52646H46.7724V6.88209H48.0463V13.2242H45.1107V6.88209H46.4163V5.52646H41.0675V6.88209H42.3493V22.3172H41.0675V23.6728H46.4163V22.3172H45.087V15.0317H48.0226V22.3172H46.7486V23.6728H55.7292V22.3172H55.0171L55.7609 18.1314H58.2929L59.0841 22.3172H57.8181V23.6728H63.1669V22.3172H61.7189L58.6726 5.49475ZM56.0932 16.308L57.0348 10.9886L58.0001 16.308H56.0932Z" fill="#2B2A29"/>
</svg>
