<svg width="100" height="30" viewBox="0 0 100 30" fill="none" xmlns="http://www.w3.org/2000/svg">
<g clip-path="url(#clip0_150_20)">
<path d="M71.7736 0H27.0208V30H71.7736V0Z" fill="white"/>
<path d="M41.7259 11.812C41.7259 11.8852 41.7259 11.9164 41.8493 11.9268H43.5563C43.69 11.9268 43.7311 11.9269 43.7311 11.7388C43.7311 11.582 43.7311 11.4252 43.7311 11.2684C43.7311 10.9026 43.7311 10.5367 43.7311 10.1603C43.7322 10.0313 43.7077 9.90318 43.6592 9.78393C43.5959 9.65352 43.5065 9.53809 43.3968 9.44477C43.2871 9.35145 43.1595 9.28248 43.0221 9.24214C42.8847 9.20181 42.7404 9.19097 42.5987 9.2105C42.4569 9.23002 42.3208 9.27939 42.1989 9.35545C42.06 9.43938 41.9452 9.55872 41.8659 9.70176C41.7865 9.84479 41.7453 10.0066 41.7465 10.1708V11.8431L41.7259 11.812Z" fill="#006F6B"/>
<path d="M62.457 24.1567C62.3509 24.2019 62.2613 24.2797 62.2005 24.379C62.1397 24.4782 62.1107 24.594 62.1176 24.7107V26.2054V27.7318C62.1212 27.8519 62.1604 27.9678 62.2302 28.0648C62.2999 28.1618 62.3969 28.2354 62.5083 28.2754C62.625 28.319 62.7519 28.3263 62.8727 28.2965C62.9936 28.2668 63.103 28.2011 63.1871 28.1079C63.282 27.9942 63.3331 27.8495 63.331 27.7004C63.331 27.4286 63.331 27.1568 63.331 26.885V25.8397C63.331 25.4634 63.331 25.0766 63.331 24.7003V24.6168C63.317 24.5202 63.2804 24.4281 63.2246 24.3486C63.1687 24.2691 63.0952 24.2044 63.0098 24.1595C62.9245 24.1146 62.8298 24.0908 62.7337 24.0903C62.6375 24.0899 62.5427 24.1126 62.457 24.1567Z" fill="#006F6B"/>
<path d="M59.4233 24.1149C59.2879 24.0785 59.1443 24.091 59.0169 24.1501C58.8894 24.2092 58.786 24.3112 58.7241 24.439C58.6839 24.5385 58.6629 24.645 58.6624 24.7526C58.6624 25.7352 58.6624 26.7074 58.6624 27.69C58.661 27.7696 58.6751 27.8486 58.7038 27.9227C58.7325 27.9968 58.7754 28.0645 58.8298 28.1218C58.8843 28.179 58.9492 28.2248 59.021 28.2565C59.0929 28.2882 59.1703 28.3052 59.2486 28.3065C59.4009 28.3182 59.5516 28.2693 59.6687 28.1697C59.7859 28.0702 59.8602 27.9278 59.8759 27.7734C59.8759 27.7107 59.8759 27.6481 59.8759 27.5853V26.1639V26.0592C59.8759 25.5993 59.8759 25.1498 59.8759 24.7003C59.879 24.5645 59.8355 24.432 59.753 24.3252C59.6704 24.2184 59.5538 24.144 59.4233 24.1149Z" fill="#006F6B"/>
<path d="M34.4556 24.1672H33.9723C33.89 24.1672 33.8592 24.1674 33.8489 24.2928V25.0977V25.8712C33.8489 25.9966 33.8489 26.0279 34.0032 26.0279H34.4145C34.5768 26.0205 34.7305 25.9523 34.8463 25.8365C34.9621 25.7207 35.0318 25.5657 35.0418 25.4009C35.0521 25.2059 35.0521 25.0104 35.0418 24.8154C35.0356 24.6543 34.9733 24.5006 34.8659 24.3819C34.7585 24.2631 34.613 24.187 34.4556 24.1672Z" fill="#006F6B"/>
<path d="M27.0208 8.71933e-05V29.9896H71.969V-0.010376L27.0208 8.71933e-05ZM47.8238 1.66194C47.8238 1.46334 47.8239 1.45294 48.0295 1.45294H50.0862C50.2918 1.45294 50.3021 1.4529 50.3021 1.67241V19.0872C50.3072 19.1428 50.3072 19.1987 50.3021 19.2544C50.3021 19.3171 50.3021 19.3485 50.1993 19.3485H48.1426C47.9472 19.3485 47.937 19.3486 47.937 19.1291L47.8238 1.66194ZM32.2447 26.0488C32.2162 26.1455 32.1674 26.2348 32.1018 26.3106C32.0361 26.3864 31.9551 26.4468 31.8643 26.4877C31.6291 26.6015 31.3737 26.6657 31.1135 26.6761H30.7639C30.6096 26.6761 30.5583 26.7492 30.5583 26.9165V28.4007C30.5633 28.4528 30.5633 28.5053 30.5583 28.5574C30.5585 28.6039 30.5418 28.649 30.5114 28.6837C30.4811 28.7185 30.4391 28.7406 30.3937 28.7457H30.1263C30.101 28.7478 30.0756 28.7438 30.052 28.7342C30.0284 28.7247 30.0073 28.7098 29.9904 28.6906C29.9734 28.6714 29.9612 28.6484 29.9545 28.6235C29.9477 28.5986 29.9466 28.5725 29.9515 28.5472C29.9464 28.502 29.9464 28.4563 29.9515 28.4112V23.7701C29.9515 23.5924 29.9515 23.5506 30.1572 23.5506H31.3706C31.4865 23.5502 31.6016 23.5713 31.71 23.6132C31.8226 23.6526 31.9258 23.7158 32.0126 23.7987C32.0995 23.8816 32.168 23.9824 32.2139 24.0942C32.3177 24.3208 32.3771 24.5657 32.3887 24.8154C32.4354 25.2323 32.3861 25.6545 32.2447 26.0488ZM32.7074 9.89901C32.6868 10.0691 32.6868 10.2411 32.7074 10.4112V19.0244C32.7125 19.0766 32.7125 19.129 32.7074 19.1811C32.7124 19.2228 32.7124 19.265 32.7074 19.3067C32.5737 19.3067 30.1057 19.3067 29.9823 19.3067C29.9749 19.2758 29.9749 19.2434 29.9823 19.2125C29.9772 19.1709 29.9772 19.1289 29.9823 19.0872V2.12207C29.9619 2.0575 29.9619 1.98784 29.9823 1.92327C30.0749 1.92327 32.5532 1.92327 32.6971 1.92327C32.8411 1.92327 32.6971 2.03842 32.6971 2.10114V7.83981C32.6971 7.91298 32.6971 7.97563 32.6971 8.02789C32.6971 8.08016 32.8 8.02789 32.8411 8.02789C32.915 7.9563 32.9836 7.87948 33.0467 7.79796C33.1856 7.64104 33.3534 7.5131 33.5404 7.42154C33.9657 7.20332 34.4249 7.06195 34.8978 7.00352C35.1905 6.97215 35.4863 6.99344 35.7718 7.0663C36.221 7.16752 36.6297 7.40425 36.9441 7.74564C37.2326 8.07724 37.428 8.48174 37.5098 8.91649C37.5797 9.33079 37.6141 9.75044 37.6126 10.1708V15.8467C37.6126 16.892 37.6126 18.021 37.6126 19.1081V19.2648C37.6126 19.3484 37.6126 19.3799 37.4789 19.3799H35.0726C34.8464 19.3799 34.8258 19.3799 34.8258 19.1291V10.4321C34.8291 10.2737 34.8117 10.1156 34.7744 9.96179C34.743 9.80184 34.6657 9.65477 34.5522 9.53944C34.4387 9.4241 34.2942 9.34553 34.1368 9.31358C33.8708 9.2403 33.5904 9.2403 33.3244 9.31358C33.1787 9.34434 33.0441 9.41528 32.9353 9.51851C32.8265 9.62174 32.7477 9.75335 32.7074 9.89901ZM35.6484 28.7771C35.5834 28.7719 35.5181 28.7719 35.4531 28.7771C35.393 28.7806 35.3335 28.7641 35.2834 28.7302C35.2333 28.6962 35.1954 28.6465 35.1754 28.5888C35.0932 28.3588 35.0006 28.1394 34.9184 27.9199L34.4761 26.7909C34.4498 26.7022 34.3922 26.6265 34.3144 26.5783C34.2367 26.5301 34.1442 26.5128 34.0546 26.5296C34.0272 26.5281 33.9998 26.5326 33.9741 26.5426C33.9485 26.5526 33.9253 26.5678 33.9058 26.5875C33.8864 26.6072 33.8713 26.6309 33.8615 26.6569C33.8517 26.683 33.8474 26.7107 33.8489 26.7386V28.5367C33.8543 28.5818 33.8543 28.6274 33.8489 28.6725C33.8489 28.6899 33.8454 28.7071 33.8386 28.723C33.8317 28.739 33.8218 28.7533 33.8092 28.7651C33.7966 28.7769 33.7818 28.786 33.7656 28.7917C33.7495 28.7973 33.7322 28.7995 33.7152 28.798L33.3244 28.7353C33.299 28.7302 33.2764 28.7155 33.2611 28.6942C33.2459 28.6729 33.2391 28.6464 33.2422 28.6202V23.8434C33.2422 23.6238 33.2422 23.5922 33.4787 23.5922C33.7152 23.5922 34.0237 23.5922 34.3014 23.5922L34.8156 23.655C34.9971 23.6948 35.1647 23.7839 35.3005 23.9128C35.4363 24.0416 35.5352 24.2053 35.5868 24.3867C35.7202 24.8473 35.7202 25.3373 35.5868 25.7979C35.5231 26.0257 35.3807 26.2224 35.1857 26.352C35.1579 26.3632 35.1332 26.3812 35.1137 26.4043C35.082 26.422 35.0582 26.4511 35.0468 26.4859C35.0353 26.5208 35.0372 26.5589 35.052 26.5924C35.0714 26.6636 35.0954 26.7334 35.124 26.8014L35.8027 28.5367C35.9261 28.7249 35.8541 28.7667 35.6484 28.7771ZM38.9493 28.6411C38.9493 28.7352 38.9493 28.7667 38.8259 28.7667C38.7953 28.7719 38.764 28.7719 38.7334 28.7667H36.8619C36.6974 28.7667 36.6768 28.7665 36.6768 28.5783V26.1639V23.7806C36.6768 23.5924 36.6768 23.5611 36.8825 23.5611L38.7746 23.6132C38.9288 23.6132 38.9699 23.6134 38.9493 23.812C38.9288 24.0106 38.9493 23.9373 38.9493 24C38.9493 24.0628 38.898 24.1358 38.7849 24.1463H37.6537H37.5098C37.3761 24.1463 37.3349 24.1987 37.3349 24.3346V25.568C37.3349 25.683 37.3864 25.7247 37.4995 25.7247H38.5278C38.6409 25.7247 38.6718 25.7248 38.6821 25.8816V26.1534C38.6821 26.2893 38.682 26.3206 38.5072 26.3206C38.1884 26.3206 37.8696 26.3206 37.5508 26.3206H37.4377C37.3995 26.3206 37.3629 26.336 37.3359 26.3634C37.3089 26.3909 37.2937 26.428 37.2937 26.4668C37.2887 26.4944 37.2887 26.5229 37.2937 26.5505V27.9827C37.2937 28.1499 37.2938 28.1917 37.4995 28.1917H38.8259C38.9185 28.1917 38.9493 28.1916 38.9493 28.3275C38.9596 28.4317 38.9596 28.5368 38.9493 28.6411ZM43.145 28.6411C43.145 28.7561 43.1449 28.798 42.9804 28.798C42.8881 28.8085 42.795 28.8085 42.7027 28.798C42.6102 28.798 42.569 28.7979 42.5588 28.662V28.5574C42.5588 27.9198 42.5588 27.2718 42.5588 26.6238C42.5588 25.9757 42.5588 25.5052 42.5588 24.9407C42.5639 24.8851 42.5639 24.8292 42.5588 24.7736C42.4971 24.7736 42.4765 24.7736 42.4662 24.7736V24.9093C42.2606 26.1114 42.0549 27.3137 41.8596 28.5158V28.6097C41.8526 28.6403 41.8373 28.6684 41.8155 28.6906C41.7937 28.7128 41.7662 28.7282 41.7362 28.7353C41.5558 28.7667 41.3715 28.7667 41.1911 28.7353C41.0986 28.7353 41.0677 28.6515 41.0471 28.5679C41.0266 28.4842 41.0472 28.2543 40.9649 28.108L40.6873 26.4357C40.5947 25.913 40.5124 25.3904 40.4199 24.8782C40.4243 24.8365 40.4243 24.7943 40.4199 24.7526C40.4199 24.7526 40.4199 24.8364 40.4199 24.8782C40.4199 25.1082 40.4199 25.338 40.4199 25.568V27.1464C40.4199 27.6168 40.4199 28.087 40.4199 28.5574C40.4199 28.7665 40.4199 28.7876 40.1834 28.798H39.9982C39.8851 28.798 39.8441 28.7979 39.8338 28.6411V23.8745C39.8338 23.6759 39.8338 23.6446 40.0497 23.6446H40.5947C40.749 23.6446 40.7901 23.6447 40.8107 23.8329C40.8826 24.3137 40.9443 24.7944 41.0163 25.2753C41.1397 26.0697 41.2733 26.8642 41.3967 27.6586C41.3967 27.7631 41.3968 27.8572 41.4791 27.9722C41.4988 27.9607 41.515 27.9438 41.5259 27.9235C41.5368 27.9032 41.5419 27.8802 41.5407 27.8571C41.5407 27.5958 41.6436 27.3345 41.6847 27.0732C41.8492 26.0279 42.0035 24.9826 42.168 23.9373C42.168 23.7178 42.168 23.6969 42.4354 23.6969H42.9598C43.1141 23.6969 43.1553 23.6968 43.1553 23.8954V28.6934L43.145 28.6411ZM44.7697 28.6411C44.7697 28.6744 44.7567 28.7064 44.7335 28.7299C44.7104 28.7534 44.679 28.7667 44.6463 28.7667C44.53 28.7771 44.413 28.7771 44.2967 28.7667C44.263 28.7668 44.2304 28.7537 44.2056 28.7304C44.1808 28.7072 44.1656 28.6753 44.163 28.6411V23.7178C44.1615 23.6968 44.1645 23.6758 44.1717 23.656C44.1789 23.6363 44.1902 23.6184 44.2048 23.6035C44.2195 23.5886 44.237 23.5771 44.2564 23.5698C44.2758 23.5625 44.2966 23.5595 44.3173 23.5611H44.6154C44.7285 23.5611 44.7697 23.6133 44.7697 23.7283C44.7753 23.7629 44.7753 23.7983 44.7697 23.8329V28.4739C44.7787 28.5293 44.7787 28.5857 44.7697 28.6411ZM44.7697 19.2334C44.3761 19.4 43.9602 19.5058 43.5357 19.5471C43.2733 19.584 43.0088 19.605 42.7439 19.6099C42.0653 19.6522 41.3869 19.5228 40.7695 19.2334C40.3173 19.0203 39.926 18.6933 39.6327 18.2836C39.3394 17.8739 39.1537 17.395 39.0933 16.892C39.0335 16.4519 38.9992 16.0086 38.9905 15.5644L38.9289 12.9617V11.9164C38.9289 11.3728 38.9289 10.871 38.9289 10.2856C38.9545 9.7742 39.0804 9.27321 39.299 8.81186C39.5724 8.23937 40.0294 7.77855 40.5947 7.50524C41.0142 7.30214 41.4613 7.16481 41.9212 7.09769C42.2617 7.04841 42.6059 7.03086 42.9495 7.04537C43.7464 7.06096 44.5217 7.31147 45.181 7.76657C45.559 8.01831 45.8756 8.35429 46.1066 8.74908C46.2442 9.00851 46.3315 9.29246 46.3636 9.58537C46.4084 9.86186 46.4325 10.1415 46.4356 10.4217C46.4356 11.467 46.4356 12.5123 46.4356 13.5575C46.4356 13.6725 46.4356 13.7771 46.4356 13.8817C46.4356 13.9862 46.4357 14.0384 46.2711 14.0488H41.8802C41.767 14.0488 41.7362 14.0487 41.7156 14.2055C41.7156 14.8431 41.7156 15.4808 41.7156 16.1185C41.7126 16.3271 41.7403 16.535 41.7978 16.7353C41.8597 16.937 41.9804 17.1148 42.1438 17.2454C42.3071 17.3761 42.5056 17.4533 42.713 17.4669C42.7881 17.4774 42.8642 17.4774 42.9392 17.4669C43.0732 17.453 43.2008 17.4017 43.3079 17.3187C43.415 17.2357 43.4974 17.1243 43.546 16.9966C43.64 16.7996 43.6991 16.5872 43.7208 16.3693C43.7513 16.1159 43.7513 15.8597 43.7208 15.6063V15.5435C43.7208 15.4599 43.7208 15.4287 43.8339 15.4182H46.2094C46.4048 15.4182 46.4253 15.4182 46.4356 15.6377C46.4563 16.1483 46.4254 16.6596 46.3431 17.1638C46.272 17.5534 46.1289 17.9259 45.9214 18.2614C45.6277 18.6891 45.2111 19.0139 44.7286 19.1916L44.7697 19.2334ZM48.2763 26.9479C48.2763 27.2719 48.2763 27.5959 48.2763 27.9199C48.2669 28.161 48.1704 28.3903 48.0054 28.5638C47.8404 28.7373 47.6184 28.8428 47.3817 28.8606C47.1381 28.9178 46.8849 28.9178 46.6413 28.8606C46.4627 28.8227 46.299 28.7323 46.171 28.6003C46.0429 28.4682 45.9561 28.3005 45.9214 28.1185C45.9058 28.011 45.9058 27.9018 45.9214 27.7943C45.9214 27.1463 45.9214 26.4983 45.9214 25.8502V23.8434C45.9214 23.6866 45.9215 23.655 46.1066 23.655H46.3636C46.5179 23.655 46.559 23.655 46.559 23.8536V24.1358C46.559 24.6585 46.559 25.1811 46.559 25.6933C46.559 26.2055 46.559 26.9058 46.559 27.5226C46.5542 27.6817 46.5751 27.8408 46.6207 27.9931C46.6524 28.0969 46.7171 28.187 46.8045 28.2494C46.8919 28.3118 46.9973 28.3428 47.104 28.3379C47.1752 28.3535 47.2487 28.3535 47.3199 28.3379C47.4254 28.3225 47.523 28.2723 47.5973 28.1948C47.6717 28.1173 47.7188 28.017 47.7313 27.9094C47.7465 27.774 47.7465 27.6373 47.7313 27.5019V23.9582C47.7262 23.9096 47.7262 23.8606 47.7313 23.812C47.7313 23.7179 47.7827 23.6759 47.865 23.6759C47.9916 23.6655 48.1188 23.6655 48.2454 23.6759C48.3174 23.6759 48.3483 23.676 48.3585 23.7806C48.3636 23.8327 48.3636 23.8851 48.3585 23.9373C48.266 24.8676 48.266 25.8921 48.266 26.906L48.2763 26.9479ZM52.2971 23.812V28.4949C52.3022 28.54 52.3022 28.5855 52.2971 28.6306C52.2985 28.6471 52.2966 28.6639 52.2917 28.6796C52.2868 28.6954 52.2789 28.7099 52.2684 28.7225C52.2579 28.7351 52.2449 28.7456 52.2305 28.7531C52.216 28.7607 52.2002 28.7653 52.184 28.7667H51.9063C51.8866 28.7681 51.8668 28.7652 51.8481 28.7585C51.8294 28.7518 51.8122 28.7413 51.7978 28.7276C51.7833 28.7139 51.7717 28.6973 51.7639 28.6789C51.756 28.6604 51.752 28.6403 51.7521 28.6202C51.7471 28.589 51.7471 28.5574 51.7521 28.5263V26.8746V25.7142C51.7521 25.4633 51.7521 25.2125 51.7521 24.9616C51.7521 24.9616 51.7521 24.8572 51.7521 24.8363C51.7521 24.8154 51.6801 24.9094 51.6698 24.9512C51.6698 25.2334 51.5773 25.5262 51.5259 25.8084L51.063 28.5158C51.0679 28.547 51.0679 28.5785 51.063 28.6097C51.058 28.6476 51.0396 28.6824 51.0112 28.7075C50.9828 28.7325 50.9464 28.7461 50.9088 28.7457C50.734 28.7457 50.5593 28.7457 50.3844 28.7457C50.3317 28.743 50.282 28.7198 50.2456 28.6809C50.2092 28.642 50.1889 28.5904 50.189 28.5367C50.189 28.3695 50.189 28.1918 50.1068 28.0141C49.9937 27.1674 49.8804 26.3205 49.757 25.4738C49.7628 25.4357 49.7628 25.3971 49.757 25.359C49.7512 25.3865 49.7512 25.4149 49.757 25.4424C49.757 25.9651 49.757 26.4877 49.757 27.0104C49.757 27.533 49.757 27.9408 49.757 28.4007C49.757 28.4634 49.757 28.5261 49.757 28.5888C49.757 28.6515 49.6851 28.7771 49.5514 28.7562H49.4589C49.4214 28.7496 49.387 28.7307 49.361 28.7023C49.335 28.674 49.3189 28.6378 49.3149 28.5992C49.3099 28.5471 49.3099 28.4947 49.3149 28.4426V23.8015C49.3149 23.6238 49.3149 23.582 49.5308 23.582H49.7982C49.9525 23.582 49.9936 23.582 50.0141 23.7701C50.0347 23.9583 50.0656 24.1674 50.0965 24.366C50.189 25.0036 50.2713 25.6411 50.3536 26.2787L50.5386 27.5853C50.5386 27.6585 50.5386 27.7316 50.5386 27.8048C50.5386 27.878 50.5387 27.8885 50.6209 27.899C50.6717 27.8444 50.704 27.7749 50.7134 27.7004C50.7134 27.4914 50.7854 27.2822 50.8265 27.0627L51.2276 24.3971L51.3201 23.7596C51.3201 23.7074 51.3201 23.655 51.3201 23.6132C51.6241 23.5764 51.9314 23.5764 52.2354 23.6132V23.6969L52.2971 23.812ZM54.3538 19.3485C54.2612 19.3485 51.7932 19.3485 51.6596 19.3485C51.5259 19.3485 51.6596 19.2857 51.6596 19.2544V1.68287C51.6549 1.61326 51.6549 1.54347 51.6596 1.47386H54.3641V1.56803V19.1395C54.3657 19.206 54.3478 19.2715 54.3126 19.3276L54.3538 19.3485ZM57.4387 24.0314C57.4298 24.0693 57.4087 24.1031 57.379 24.1276C57.3493 24.1522 57.3125 24.166 57.2742 24.1672H56.6469C56.503 24.1672 56.4618 24.1674 56.4515 24.366V28.6202C56.4515 28.6408 56.4475 28.6611 56.4398 28.6801C56.432 28.6992 56.4206 28.7166 56.4063 28.7312C56.392 28.7457 56.375 28.7572 56.3563 28.7651C56.3376 28.773 56.3176 28.7771 56.2973 28.7771C56.1947 28.7876 56.0913 28.7876 55.9888 28.7771C55.9497 28.7745 55.9131 28.7567 55.8863 28.7276C55.8596 28.6985 55.8447 28.66 55.8448 28.6202C55.8397 28.5715 55.8397 28.5226 55.8448 28.4739V26.4668V24.4495C55.8498 24.4078 55.8498 24.3658 55.8448 24.3242C55.8463 24.3032 55.8433 24.2821 55.8361 24.2624C55.8289 24.2427 55.8176 24.2247 55.803 24.2098C55.7883 24.1949 55.7708 24.1835 55.7514 24.1761C55.732 24.1688 55.7112 24.1656 55.6905 24.1672H55.0941C54.9296 24.1672 54.8576 24.0836 54.8576 23.9163C54.8518 23.8888 54.8518 23.8605 54.8576 23.8329C54.8597 23.7993 54.8731 23.7673 54.8955 23.7426C54.918 23.7178 54.9482 23.7016 54.981 23.6969H55.125H57.1817H57.3564C57.371 23.6902 57.3868 23.6869 57.4027 23.6869C57.4187 23.6869 57.4345 23.6902 57.449 23.6969C57.3873 23.8119 57.3667 23.906 57.3564 24.0105L57.4387 24.0314ZM57.0171 18.805C56.5893 18.4664 56.2618 18.0142 56.071 17.4983C55.9518 17.1612 55.8758 16.8099 55.8448 16.453C55.8448 16.1081 55.8448 15.7631 55.8448 15.4077C55.8448 14.6551 55.8448 13.9023 55.8448 13.1393C55.8448 12.7003 55.8448 12.251 55.8448 11.812C55.8448 11.373 55.8448 10.6934 55.8448 10.1394C55.86 9.62052 55.9938 9.11242 56.2356 8.65517C56.5048 8.13774 56.9252 7.71764 57.4387 7.45293C57.9321 7.20558 58.4648 7.04988 59.012 6.99306C59.6387 6.91809 60.2738 6.96407 60.8836 7.12882C61.4744 7.27364 62.0193 7.56864 62.4673 7.98604C62.9156 8.41897 63.2056 8.99407 63.2899 9.61676C63.3052 9.86042 63.3052 10.1048 63.2899 10.3484C63.2899 11.3937 63.2899 12.366 63.2899 13.3695C63.2899 13.4949 63.2899 13.6202 63.2899 13.7456C63.2899 13.8711 63.2898 13.9026 63.1253 13.913H58.7242C58.6822 13.913 58.6419 13.9291 58.6113 13.9582C58.5807 13.9873 58.5622 14.0272 58.5596 14.0697V14.1534C58.5596 14.812 58.5596 15.4599 58.5596 16.108C58.5587 16.374 58.6222 16.636 58.7446 16.8711C58.8837 17.1066 59.1084 17.277 59.3701 17.3455C59.6318 17.4139 59.9096 17.3751 60.1433 17.237C60.2356 17.1798 60.314 17.1022 60.3727 17.0099C60.4315 16.9176 60.469 16.813 60.4826 16.7039C60.4826 16.4948 60.5442 16.2857 60.5648 16.0662C60.5853 15.8466 60.5648 15.7736 60.5648 15.6272C60.5597 15.5926 60.5597 15.5572 60.5648 15.5226C60.5696 15.4754 60.5911 15.4317 60.625 15.3991C60.659 15.3665 60.7033 15.3472 60.7499 15.345H62.9712C63.003 15.3421 63.0351 15.3458 63.0656 15.3559C63.096 15.3661 63.1241 15.3824 63.1481 15.4039C63.1722 15.4254 63.1916 15.4516 63.2054 15.481C63.2192 15.5104 63.227 15.5424 63.2282 15.5749C63.2282 15.7212 63.2282 15.8675 63.2282 16.0138C63.2557 16.4781 63.2106 16.9438 63.0945 17.3937C62.927 18.0434 62.5225 18.604 61.9633 18.9616C61.4307 19.3064 60.8238 19.5145 60.1946 19.568C59.9446 19.5837 59.6939 19.5837 59.4439 19.568C59.2177 19.568 58.9914 19.568 58.7549 19.568C58.3643 19.5511 57.9805 19.4588 57.6238 19.2962C57.3722 19.1711 57.1401 19.0091 56.9349 18.8154L57.0171 18.805ZM60.5957 25.3276V26.1639C60.5957 26.6552 60.5957 27.1464 60.5957 27.6377C60.5943 27.795 60.5623 27.9505 60.5015 28.0952C60.4407 28.24 60.3523 28.3713 60.2414 28.4811C60.1305 28.5909 59.9994 28.6773 59.8554 28.7353C59.7115 28.7933 59.5576 28.8215 59.4028 28.8187C59.2215 28.8304 59.0399 28.8057 58.8681 28.7457C58.6558 28.6658 58.4713 28.5238 58.3378 28.3379C58.2043 28.152 58.1275 27.9304 58.1174 27.7004C58.1174 27.3973 58.1174 27.094 58.1174 26.7909C58.1174 26.1219 58.1174 25.453 58.1174 24.7736C58.1124 24.604 58.1429 24.4352 58.2067 24.2785C58.2705 24.1217 58.3662 23.9805 58.4875 23.864C58.6705 23.6817 58.9108 23.5708 59.1663 23.5506C59.3233 23.5298 59.4824 23.5298 59.6394 23.5506C59.8895 23.592 60.1186 23.7174 60.2901 23.9069C60.4617 24.0964 60.5656 24.3392 60.5854 24.5959C60.5339 24.8573 60.5134 25.0976 60.5134 25.3381L60.5957 25.3276ZM64.0405 26.77C64.0405 27.0418 64.0405 27.324 64.0405 27.5958C64.046 27.8279 63.9854 28.0567 63.8658 28.2545C63.774 28.4087 63.6482 28.5388 63.4982 28.635C63.3483 28.7311 63.1783 28.7907 63.0019 28.8085C62.8235 28.844 62.6398 28.8407 62.4626 28.7993C62.2855 28.7579 62.1188 28.679 61.9736 28.5679C61.8412 28.4656 61.7328 28.3349 61.6564 28.1848C61.5799 28.0347 61.5373 27.8693 61.5315 27.7004C61.5315 27.4496 61.5315 27.1883 61.5315 26.9374V26.1743C61.5315 25.6831 61.5315 25.1916 61.5315 24.7108C61.5302 24.4983 61.5848 24.2895 61.6896 24.1057C61.7945 23.9219 61.9458 23.7698 62.1279 23.6655C62.3619 23.5407 62.6268 23.4882 62.8898 23.5141C63.1529 23.5401 63.4027 23.6437 63.6087 23.812C63.7319 23.9213 63.8305 24.0563 63.8979 24.2078C63.9653 24.3593 64 24.5236 63.9995 24.6899L64.0405 26.77ZM66.9712 28.7667H65.1409C65.0689 28.7667 65.0381 28.7665 65.0381 28.6411C65.033 28.5994 65.033 28.5575 65.0381 28.5158V26.1743C65.0381 25.3904 65.0381 24.6064 65.0381 23.8224C65.0381 23.6134 65.0381 23.5925 65.254 23.582H65.5214C65.6242 23.582 65.6654 23.5819 65.6757 23.7283V28.0245C65.6721 28.0473 65.6739 28.0705 65.6809 28.0924C65.688 28.1143 65.7 28.1343 65.7161 28.1506C65.7321 28.1669 65.7516 28.1792 65.7732 28.1863C65.7948 28.1935 65.8177 28.1953 65.8401 28.1917H66.4777C66.6319 28.1917 66.7965 28.1917 66.9611 28.1917C67.1256 28.1917 67.1255 28.1916 67.1461 28.3589C67.1667 28.5261 67.1461 28.5052 67.1461 28.5783C67.1461 28.6515 67.0535 28.7771 66.889 28.7771L66.9712 28.7667ZM67.4341 19.0767C67.4341 19.3067 67.4341 19.3276 67.1873 19.3276H64.9146C64.6986 19.3276 64.6781 19.3276 64.6781 19.0977V7.51571C64.673 7.47755 64.673 7.43876 64.6781 7.40061C64.6752 7.34406 64.6939 7.28856 64.7303 7.2457C64.7667 7.20285 64.8181 7.17599 64.8735 7.17068H67.2798C67.3208 7.17556 67.3588 7.19519 67.387 7.2258C67.4152 7.25641 67.4319 7.29619 67.4341 7.33809C67.4391 7.39022 67.4391 7.44264 67.4341 7.49478V8.36246C67.4341 8.36246 67.4341 8.44596 67.4341 8.49822C67.4648 8.46247 67.4923 8.42413 67.5163 8.38338C67.7049 8.09384 67.9296 7.83033 68.1847 7.59941C68.587 7.24803 69.0791 7.01957 69.6038 6.94074H69.8609C69.8895 6.9363 69.9187 6.93801 69.9466 6.94585C69.9745 6.95369 70.0005 6.96742 70.0228 6.98617C70.0452 7.00492 70.0633 7.02843 70.0762 7.05482C70.089 7.0812 70.0963 7.10987 70.0974 7.13929C70.1025 7.19142 70.1025 7.2441 70.0974 7.29623V9.44961C70.1021 9.49478 70.1021 9.5402 70.0974 9.58537C70.0974 9.71081 70.0152 9.75274 69.8918 9.71093L69.6963 9.64815C69.4066 9.54251 69.0951 9.51364 68.7914 9.56445C68.5683 9.5986 68.3553 9.6818 68.167 9.80816C67.9788 9.93452 67.8199 10.101 67.7014 10.2961C67.478 10.6519 67.3601 11.0658 67.362 11.4879C67.362 12.6795 67.362 13.8711 67.362 15.0523L67.4341 19.0767ZM69.7066 28.5783C69.5364 28.7029 69.341 28.7874 69.1346 28.8254C68.9282 28.8633 68.7161 28.854 68.5137 28.798C68.3088 28.7454 68.1249 28.6298 67.9869 28.4671C67.8489 28.3043 67.7635 28.1023 67.7425 27.8885C67.7425 27.7317 67.7425 27.5645 67.7425 27.4077V27.2196C67.7395 27.1868 67.7436 27.1538 67.7543 27.1227C67.765 27.0916 67.7821 27.063 67.8045 27.0392C67.8269 27.0154 67.8541 26.9968 67.8842 26.9846C67.9143 26.9724 67.9467 26.9671 67.9791 26.9688H68.0716C68.2567 26.9688 68.339 27.042 68.339 27.2406V27.69C68.3339 27.7561 68.3339 27.8224 68.339 27.8885C68.3499 27.9761 68.3859 28.0587 68.4426 28.1256C68.4992 28.1925 68.5741 28.241 68.6577 28.2649C68.7607 28.3001 68.8703 28.3111 68.9781 28.2971C69.0859 28.2831 69.1892 28.2444 69.2802 28.184C69.3712 28.1237 69.4476 28.0431 69.5036 27.9485C69.5597 27.8539 69.5939 27.7477 69.6038 27.6377C69.6103 27.5423 69.5971 27.4467 69.5653 27.3567C69.5334 27.2667 69.4835 27.1843 69.4187 27.115C69.285 26.9478 69.1411 26.791 68.9971 26.6238C68.8532 26.4565 68.4521 26.0278 68.1847 25.7247C68.035 25.562 67.9349 25.3589 67.8968 25.1395C67.8557 24.9079 67.8557 24.6706 67.8968 24.439C67.9171 24.2505 67.9942 24.0731 68.1176 23.9309C68.2409 23.7887 68.4044 23.6887 68.5858 23.6446C68.919 23.5283 69.2809 23.5283 69.6141 23.6446C69.7241 23.6862 69.823 23.7533 69.9033 23.8403C69.9836 23.9273 70.043 24.032 70.0768 24.1463C70.1382 24.4003 70.1382 24.6657 70.0768 24.9198C70.0742 24.9651 70.0547 25.0079 70.0222 25.039C69.9897 25.0701 69.9467 25.0873 69.9021 25.0872H69.7272C69.6141 25.0872 69.5729 25.0243 69.5626 24.9093C69.5524 24.7943 69.5626 24.6272 69.5626 24.4913C69.5517 24.4157 69.531 24.3419 69.501 24.2718C69.4743 24.2238 69.4352 24.1839 69.3879 24.1567C69.2921 24.1032 69.1876 24.068 69.0794 24.0524C68.971 24.0351 68.8602 24.0583 68.7675 24.1179C68.6749 24.1776 68.6066 24.2693 68.5755 24.3762C68.5271 24.479 68.5021 24.5917 68.5021 24.7057C68.5021 24.8196 68.5271 24.9321 68.5755 25.0349C68.6327 25.158 68.7091 25.2711 68.8017 25.3694C68.9971 25.589 69.2131 25.777 69.4085 25.9965C69.5658 26.1551 69.7101 26.3264 69.8403 26.5087C70.0618 26.7694 70.1952 27.0956 70.2208 27.4391C70.2501 27.6699 70.2085 27.9042 70.1018 28.11C69.995 28.3159 69.8283 28.483 69.6244 28.5888L69.7066 28.5783Z" fill="#006F6B"/>
<path d="M31.751 24.8259C31.7524 24.7408 31.7373 24.6562 31.7065 24.5771C31.6757 24.4979 31.6299 24.4257 31.5717 24.3645C31.5134 24.3034 31.4439 24.2544 31.367 24.2206C31.2902 24.1867 31.2075 24.1686 31.1238 24.1672H30.7125C30.5789 24.1672 30.548 24.1674 30.548 24.3451V25.1395C30.548 25.4113 30.548 25.6933 30.548 25.9651C30.548 26.0801 30.548 26.1116 30.6817 26.1116H31.1033C31.1883 26.1131 31.2727 26.0968 31.3514 26.0641C31.43 26.0314 31.5014 25.9828 31.561 25.9212C31.6206 25.8596 31.6673 25.7863 31.6982 25.7058C31.7291 25.6253 31.7437 25.5393 31.7409 25.4529C31.7409 25.2439 31.7442 25.035 31.751 24.8259Z" fill="#006F6B"/>
<path d="M58.6111 11.9268H60.2974C60.4517 11.9268 60.4826 11.9268 60.4826 11.7387C60.4826 11.216 60.4826 10.6934 60.4826 10.1603C60.4976 10.0668 60.4976 9.97148 60.4826 9.87802C60.4351 9.69206 60.3309 9.52618 60.185 9.40412C60.039 9.28206 59.8588 9.21019 59.6702 9.19868C59.5295 9.17512 59.3856 9.18132 59.2475 9.21731C59.1094 9.2533 58.9803 9.31824 58.8682 9.40769C58.758 9.49369 58.669 9.60454 58.6083 9.73154C58.5476 9.85854 58.5169 9.99816 58.5185 10.1393V11.8015C58.4876 11.8851 58.5494 11.9163 58.6111 11.9268Z" fill="#006F6B"/>
</g>
<defs>
<clipPath id="clip0_150_20">
<rect width="45" height="30" fill="white" transform="translate(27)"/>
</clipPath>
</defs>
</svg>
