<svg width="131" height="131" viewBox="0 0 131 131" fill="none" xmlns="http://www.w3.org/2000/svg">
<g clip-path="url(#clip0_182_70)">
<path d="M68.8152 71.648C72.6369 71.6472 76.3223 73.0525 79.1545 75.5909C81.9868 78.1292 83.7633 81.6189 84.1387 85.3813L83.3294 85.8211L83.0625 85.9709L82.7957 86.1115L68.2015 94.0296L54.8613 86.3051L54.5945 86.1556L54.3366 85.9973L53.5006 85.5133C53.8368 81.7243 55.5974 78.1976 58.4346 75.6304C61.2717 73.0632 64.979 71.6422 68.824 71.648M68.824 70.6011C64.6016 70.6072 60.5427 72.2172 57.4858 75.0988C54.4289 77.9804 52.6075 81.9132 52.3978 86.0851L52.6557 86.2436L52.9136 86.3931L53.803 86.9035L54.0609 87.053L54.3277 87.2113L68.1926 95.235L83.3116 87.0265L83.5784 86.8859L83.8363 86.7362L84.7256 86.261L84.9925 86.1203L85.2503 85.9797C85.0142 81.8264 83.1813 77.9199 80.1271 75.0606C77.073 72.2012 73.029 70.6057 68.824 70.6011Z" fill="#A57F2D"/>
<path d="M85.2682 87.1234V97.4609C85.2682 97.7175 85.1651 97.9637 84.9816 98.1452C84.7981 98.3267 84.5493 98.4285 84.2898 98.4285H53.3405C53.0818 98.4262 52.8343 98.3236 52.6513 98.1426C52.4684 97.9616 52.3646 97.7168 52.3622 97.4609V87.2553L53.2516 87.7833L68.1482 96.4049L83.7918 87.9239L84.0497 87.7744L85.2682 87.1234Z" fill="#02517D"/>
<path d="M68.5128 48.5889C70.6788 48.5871 72.7967 49.221 74.5985 50.4103C76.4002 51.5997 77.8048 53.2911 78.6345 55.2704C79.4642 57.2497 79.6818 59.4279 79.2597 61.5296C78.8375 63.6313 77.7946 65.5618 76.263 67.077C74.7314 68.5921 72.7799 69.6237 70.6553 70.0413C68.5308 70.4589 66.3288 70.2437 64.328 69.4229C62.3272 68.6021 60.6174 67.2128 59.4152 65.4304C58.2129 63.6481 57.5721 61.553 57.5738 59.4103C57.5785 56.5417 58.7325 53.7919 60.7829 51.7635C62.8334 49.7351 65.613 48.5935 68.5128 48.5889ZM68.5128 47.542C66.1374 47.5403 63.8149 48.2356 61.8392 49.54C59.8634 50.8444 58.3231 52.6992 57.4133 54.8698C56.5035 57.0404 56.265 59.4291 56.7279 61.7339C57.1909 64.0386 58.3346 66.1558 60.0143 67.8174C61.6939 69.4789 63.834 70.6102 66.1638 71.0682C68.4936 71.5262 70.9084 71.2904 73.1026 70.3904C75.2968 69.4903 77.1718 67.9666 78.4904 66.0121C79.809 64.0575 80.5119 61.7601 80.5101 59.4103C80.5077 56.2633 79.243 53.2458 76.9936 51.0205C74.7442 48.7953 71.694 47.5443 68.5128 47.542Z" fill="#A57F2D"/>
<path d="M55.3859 73.0027C53.8517 69.5982 51.4996 66.6161 48.5345 64.3161C45.5693 62.0161 42.0808 60.4679 38.3727 59.8059C42.3113 58.7333 45.7206 56.2791 47.9639 52.9017C50.2072 49.5243 51.1311 45.4547 50.5631 41.4527C49.995 37.4508 47.9739 33.79 44.8771 31.1544C41.7804 28.5187 37.8197 27.0882 33.7348 27.13C29.6498 27.1719 25.7199 28.6833 22.679 31.3818C19.638 34.0803 17.6939 37.7815 17.2098 41.7942C16.7256 45.807 17.7345 49.8569 20.0479 53.1876C22.3614 56.5183 25.8214 58.902 29.7816 59.8938C24.7569 60.9076 20.2154 63.5451 16.8716 67.3913C13.5277 71.2375 11.5712 76.0743 11.3098 81.1407L11.6833 81.3518L12.0391 81.5629L13.2842 82.2756L13.6399 82.4868L14.0223 82.7067L33.4457 93.9504L49.3562 85.3108L49.9787 84.9852L50.7613 84.5629C50.8312 83.9385 50.9381 83.3187 51.0815 82.7067C51.6955 80.0575 52.9532 77.5962 54.7456 75.5363C55.1103 75.1228 55.4927 74.7183 55.8929 74.34C55.7684 73.8297 55.5816 73.425 55.3859 73.0027ZM18.5758 43.7763C18.574 40.7776 19.4709 37.8456 21.153 35.3509C22.8351 32.8563 25.2269 30.9107 28.0263 29.7604C30.8257 28.61 33.9071 28.3065 36.8809 28.8879C39.8547 29.4693 42.5875 30.9096 44.734 33.0269C46.8806 35.1442 48.3446 37.8435 48.9409 40.7836C49.5373 43.7238 49.2392 46.7728 48.0845 49.5454C46.9297 52.318 44.97 54.6899 42.4531 56.3611C39.9362 58.0324 36.9751 58.928 33.9437 58.935C31.9283 58.9384 29.932 58.5489 28.0688 57.7888C26.2056 57.0288 24.512 55.9131 23.0849 54.5053C21.6577 53.0976 20.5249 51.4256 19.7512 49.5847C18.9775 47.7437 18.5781 45.77 18.5758 43.7763ZM49.5963 83.5072L33.4724 92.3051L14.796 81.4837L14.4314 81.2725L14.0668 81.0614L12.8929 80.3752C13.3281 75.6231 15.3611 71.1526 18.667 67.678C21.9729 64.2035 26.3608 61.9254 31.1294 61.2081C35.8979 60.4908 40.772 61.3755 44.9725 63.7209C49.173 66.0663 52.4574 69.7372 54.3009 74.1464C51.828 76.7355 50.1902 79.9941 49.5963 83.5072Z" fill="#A57F2D"/>
<path d="M51.7308 98.4637H12.6528C12.2896 98.4637 11.9412 98.3209 11.6844 98.0668C11.4275 97.8127 11.2832 97.4682 11.2832 97.1088V82.8212L12.555 83.5603L33.428 95.6397L49.3563 86.9913L49.8454 86.7274L50.7347 86.2698V96.7042C50.6903 97.9711 51.1438 98.4637 51.7308 98.4637Z" fill="#02517D"/>
<path d="M81.266 74.3137C81.6662 74.6921 82.0486 75.0966 82.4133 75.5101C84.2075 77.5688 85.4655 80.0305 86.0774 82.6805C86.2208 83.2925 86.3277 83.9123 86.3975 84.5367L87.1802 84.959L87.8027 85.2846H87.8472L103.758 93.9241L123.181 82.6805L123.563 82.4605L123.919 82.2494L125.164 81.5367L125.52 81.3256L125.894 81.1145C125.632 76.0481 123.676 71.2115 120.332 67.3653C116.988 63.5191 112.446 60.8814 107.422 59.8676C111.38 58.8758 114.837 56.493 117.149 53.1639C119.461 49.8349 120.469 45.7874 119.984 41.777C119.5 37.7667 117.557 34.0677 114.518 31.3709C111.479 28.674 107.551 27.1637 103.468 27.1219C99.3858 27.0801 95.4274 28.5096 92.3323 31.1436C89.2373 33.7776 87.2172 37.4359 86.6492 41.4355C86.0812 45.4351 87.0041 49.5026 89.2458 52.8783C91.4874 56.2539 94.8945 58.7071 98.8307 59.7797C95.1225 60.4416 91.634 61.9899 88.6689 64.2899C85.7037 66.5899 83.3517 69.572 81.8174 72.9765C81.6217 73.4252 81.435 73.8299 81.266 74.3137ZM103.313 58.9352C100.28 58.9352 97.3154 58.0453 94.7938 56.3783C92.2723 54.7113 90.307 52.3419 89.1468 49.5699C87.9866 46.7979 87.6835 43.7478 88.2758 40.8053C88.8681 37.8629 90.3293 35.1604 92.4745 33.0396C94.6197 30.9187 97.3524 29.4747 100.327 28.8905C103.302 28.3062 106.385 28.608 109.187 29.7573C111.988 30.9067 114.382 32.8521 116.066 35.3475C117.749 37.8429 118.647 40.7763 118.645 43.7765C118.641 47.7969 117.023 51.6512 114.149 54.4933C111.274 57.3353 107.377 58.9328 103.313 58.9352ZM82.9557 74.1026C84.7992 69.6933 88.0837 66.0227 92.2842 63.6773C96.4847 61.3319 101.359 60.4472 106.127 61.1645C110.896 61.8818 115.284 64.1596 118.59 67.6342C121.896 71.1087 123.929 75.5793 124.364 80.3313L123.19 81.0176L122.825 81.2287L122.461 81.4399L103.784 92.2612L87.6071 83.5074C87.0315 79.9827 85.4058 76.7081 82.938 74.1026H82.9557Z" fill="#A57F2D"/>
<path d="M85.5261 98.4637H124.577C124.941 98.4637 125.289 98.3209 125.546 98.0668C125.803 97.8127 125.947 97.4682 125.947 97.1088V82.8212L124.657 83.5074L103.784 95.5868L87.8561 86.9385L87.367 86.6747L86.5221 86.2172V96.7042C86.5132 97.9711 86.0597 98.4637 85.5261 98.4637Z" fill="#02517D"/>
</g>
<defs>
<clipPath id="clip0_182_70">
<rect width="114.633" height="71.28" fill="white" transform="translate(11.2808 27.1398)"/>
</clipPath>
</defs>
</svg>
