<svg width="131" height="130" viewBox="0 0 131 130" fill="none" xmlns="http://www.w3.org/2000/svg">
<g clip-path="url(#clip0_63_162)">
<path d="M68.3962 70.9082C72.2179 70.9074 75.9033 72.3128 78.7355 74.8511C81.5677 77.3895 83.3443 80.8792 83.7196 84.6415L82.9103 85.0814L82.6435 85.2311L82.3767 85.3718L67.7825 93.2898L54.4423 85.5653L54.1754 85.4158L53.9175 85.2575L53.0815 84.7736C53.4177 80.9845 55.1784 77.4578 58.0155 74.8907C60.8527 72.3235 64.56 70.9025 68.405 70.9082M68.405 69.8613C64.1825 69.8674 60.1237 71.4775 57.0668 74.359C54.0099 77.2406 52.1885 81.1735 51.9788 85.3454L52.2367 85.5039L52.4946 85.6534L53.3839 86.1637L53.6418 86.3132L53.9086 86.4715L67.7736 94.4952L82.8925 86.2868L83.1593 86.1461L83.4172 85.9964L84.3066 85.5213L84.5734 85.3806L84.8313 85.2399C84.5952 81.0867 82.7622 77.1801 79.7081 74.3208C76.654 71.4615 72.61 69.866 68.405 69.8613Z" fill="#A57F2D"/>
<path d="M84.8491 86.3837V96.7211C84.8491 96.9778 84.746 97.2239 84.5626 97.4054C84.3791 97.5869 84.1303 97.6887 83.8708 97.6887H52.9215C52.6627 97.6865 52.4153 97.5839 52.2323 97.4029C52.0493 97.2219 51.9455 96.9771 51.9432 96.7211V86.5155L52.8326 87.0435L67.7291 95.6652L83.3728 87.1842L83.6307 87.0347L84.8491 86.3837Z" fill="#F9F9FA"/>
<path d="M68.0938 47.8491C70.2598 47.8474 72.3777 48.4812 74.1794 49.6706C75.9812 50.8599 77.3858 52.5513 78.2155 54.5306C79.0452 56.5099 79.2628 58.6882 78.8406 60.7899C78.4185 62.8915 77.3756 64.8221 75.844 66.3373C74.3123 67.8524 72.3608 68.884 70.2363 69.3016C68.1118 69.7192 65.9098 69.504 63.909 68.6832C61.9082 67.8624 60.1984 66.473 58.9961 64.6907C57.7938 62.9083 57.153 60.8133 57.1548 58.6705C57.1595 55.8019 58.3135 53.0521 60.3639 51.0237C62.4143 48.9954 65.194 47.8538 68.0938 47.8491ZM68.0938 46.8022C65.7184 46.8005 63.3959 47.4958 61.4201 48.8002C59.4443 50.1046 57.9041 51.9594 56.9943 54.13C56.0844 56.3007 55.8459 58.6894 56.3089 60.9941C56.7719 63.2989 57.9156 65.4161 59.5952 67.0776C61.2749 68.7392 63.415 69.8705 65.7448 70.3285C68.0746 70.7865 70.4893 70.5506 72.6835 69.6506C74.8777 68.7506 76.7528 67.2268 78.0714 65.2723C79.3899 63.3178 80.0928 61.0203 80.0911 58.6705C80.0887 55.5236 78.824 52.506 76.5745 50.2808C74.3251 48.0556 71.2749 46.8046 68.0938 46.8022Z" fill="#A57F2D"/>
<path d="M54.9669 72.2629C53.4326 68.8584 51.0806 65.8764 48.1154 63.5764C45.1502 61.2764 41.6618 59.7281 37.9536 59.0662C41.8923 57.9935 45.3016 55.5393 47.5449 52.162C49.7881 48.7846 50.712 44.7149 50.144 40.713C49.576 36.711 47.5548 33.0503 44.4581 30.4146C41.3613 27.779 37.4006 26.3485 33.3157 26.3903C29.2308 26.4321 25.3009 27.9436 22.2599 30.6421C19.219 33.3406 17.2749 37.0418 16.7907 41.0545C16.3066 45.0672 17.3154 49.1171 19.6289 52.4478C21.9424 55.7786 25.4023 58.1623 29.3625 59.154C24.3378 60.1679 19.7964 62.8053 16.4525 66.6515C13.1087 70.4977 11.1522 75.3345 10.8907 80.4009L11.2643 80.6121L11.62 80.8232L12.8651 81.5359L13.2208 81.747L13.6033 81.967L33.0267 93.2106L48.9371 84.5711L49.5597 84.2455L50.3423 83.8232C50.4121 83.1987 50.5191 82.579 50.6625 81.967C51.2764 79.3177 52.5341 76.8565 54.3266 74.7966C54.6912 74.3831 55.0736 73.9785 55.4738 73.6002C55.3493 73.0899 55.1625 72.6852 54.9669 72.2629ZM18.1567 43.0366C18.155 40.0379 19.0518 37.1059 20.7339 34.6112C22.4161 32.1165 24.8079 30.171 27.6073 29.0206C30.4067 27.8703 33.488 27.5667 36.4618 28.1481C39.4356 28.7295 42.1684 30.1698 44.315 32.2872C46.4616 34.4045 47.9255 37.1038 48.5219 40.0439C49.1182 42.984 48.8202 46.033 47.6654 48.8056C46.5107 51.5782 44.551 53.9501 42.0341 55.6214C39.5172 57.2926 36.556 58.1883 33.5247 58.1952C31.5093 58.1987 29.513 57.8091 27.6497 57.0491C25.7865 56.2891 24.093 55.1733 22.6658 53.7656C21.2387 52.3579 20.1059 50.6859 19.3322 48.8449C18.5585 47.004 18.159 45.0303 18.1567 43.0366ZM49.1772 82.7675L33.0533 91.5653L14.377 80.7439L14.0124 80.5328L13.6478 80.3217L12.4738 79.6354C12.9091 74.8833 14.9421 70.4128 18.248 66.9383C21.5538 63.4637 25.9417 61.1857 30.7103 60.4683C35.4789 59.751 40.353 60.6358 44.5535 62.9812C48.7539 65.3266 52.0384 68.9974 53.8819 73.4067C51.409 75.9957 49.7712 79.2543 49.1772 82.7675Z" fill="#A57F2D"/>
<path d="M51.3118 97.724H12.2338C11.8705 97.724 11.5222 97.5811 11.2653 97.3271C11.0085 97.073 10.8642 96.7284 10.8642 96.3691V82.0814L12.136 82.8205L33.009 94.8999L48.9372 86.2516L49.4264 85.9876L50.3157 85.5301V95.9644C50.2712 97.2313 50.7248 97.724 51.3118 97.724Z" fill="#F9F9FA"/>
<path d="M80.847 73.574C81.2472 73.9523 81.6296 74.3569 81.9942 74.7704C83.7885 76.829 85.0464 79.2908 85.6583 81.9407C85.8017 82.5528 85.9086 83.1725 85.9785 83.797L86.7611 84.2192L87.3837 84.5449H87.4281L103.339 93.1844L122.762 81.9407L123.144 81.7208L123.5 81.5097L124.745 80.797L125.101 80.5858L125.474 80.3747C125.213 75.3083 123.257 70.4717 119.913 66.6255C116.569 62.7793 112.027 60.1417 107.003 59.1278C110.96 58.1361 114.418 55.7532 116.73 52.4242C119.042 49.0952 120.05 45.0477 119.565 41.0373C119.081 37.0269 117.138 33.3279 114.099 30.6311C111.06 27.9343 107.132 26.4239 103.049 26.3821C98.9668 26.3403 95.0084 27.7698 91.9133 30.4039C88.8182 33.0379 86.7981 36.6962 86.2301 40.6958C85.6621 44.6954 86.5851 48.7629 88.8267 52.1385C91.0684 55.5142 94.4754 57.9674 98.4116 59.04C94.7035 59.7019 91.215 61.2501 88.2498 63.5501C85.2847 65.8502 82.9326 68.8322 81.3984 72.2367C81.2027 72.6854 81.0159 73.0901 80.847 73.574ZM102.894 58.1954C99.8611 58.1954 96.8964 57.3056 94.3748 55.6385C91.8532 53.9715 89.888 51.6021 88.7278 48.8301C87.5676 46.0581 87.2645 43.008 87.8568 40.0656C88.4491 37.1231 89.9103 34.4207 92.0555 32.2998C94.2006 30.179 96.9334 28.7349 99.9081 28.1507C102.883 27.5665 105.966 27.8683 108.767 29.0176C111.569 30.1669 113.963 32.1123 115.647 34.6077C117.33 37.1032 118.228 40.0366 118.226 43.0368C118.222 47.0572 116.604 50.9115 113.73 53.7535C110.855 56.5956 106.958 58.1931 102.894 58.1954ZM82.5367 73.3629C84.3802 68.9536 87.6647 65.283 91.8651 62.9376C96.0656 60.5922 100.94 59.7074 105.708 60.4247C110.477 61.1421 114.865 63.4199 118.171 66.8944C121.477 70.369 123.51 74.8395 123.945 79.5916L122.771 80.2778L122.406 80.489L122.042 80.7001L103.365 91.5215L87.188 82.7677C86.6125 79.2429 84.9868 75.9683 82.5189 73.3629H82.5367Z" fill="#A57F2D"/>
<path d="M85.107 97.724H124.158C124.522 97.724 124.87 97.5811 125.127 97.3271C125.384 97.073 125.528 96.7284 125.528 96.3691V82.0814L124.238 82.7677L103.365 94.8471L87.4371 86.1987L86.948 85.935L86.1031 85.4775V95.9644C86.0942 97.2313 85.6406 97.724 85.107 97.724Z" fill="#F9F9FA"/>
</g>
<defs>
<clipPath id="clip0_63_162">
<rect width="114.633" height="71.28" fill="white" transform="translate(10.8617 26.4)"/>
</clipPath>
</defs>
</svg>
