<svg width="100" height="30" viewBox="0 0 100 30" fill="none" xmlns="http://www.w3.org/2000/svg">
<g clip-path="url(#clip0_150_19)">
<path d="M48.2886 13.2557V8.32275H48.8247V13.2557H48.2886Z" fill="#010101"/>
<path d="M50.0825 13.2555V8.32251H50.6392L52.8041 12.2078V8.32251H53.3196V13.2555H52.7628L50.6082 9.38037V13.2555H50.0825Z" fill="#010101"/>
<path d="M55.6392 13.2555V8.9021H54.2886V8.32251H57.536V8.9021H56.1856V13.2555H55.6392Z" fill="#010101"/>
<path d="M58.4536 13.2555V8.32251H61.4123V8.9021H58.9897V10.4179H61.2576V10.9975H58.9897V12.6759H61.5154V13.2555H58.4536Z" fill="#010101"/>
<path d="M62.6082 13.2555V8.32251H64.4227C64.7117 8.30744 65.0004 8.35598 65.268 8.4648C65.4613 8.56696 65.6167 8.72725 65.7113 8.92246C65.8308 9.15194 65.8909 9.40698 65.8865 9.66495C65.9004 9.99234 65.7943 10.3139 65.5876 10.5703C65.3685 10.8173 65.0628 10.9735 64.7319 11.0076C64.8621 11.0812 64.9804 11.1738 65.0825 11.2823C65.2445 11.478 65.386 11.6894 65.5051 11.913L66.2268 13.2555H65.5463L64.9999 12.2383C64.8583 11.956 64.6964 11.6843 64.5154 11.4248C64.4334 11.3098 64.328 11.2128 64.2061 11.14C64.0686 11.0859 63.921 11.0615 63.7732 11.0687H63.1546V13.2555H62.6082ZM63.1546 10.4991H64.3196C64.5164 10.508 64.7128 10.477 64.8968 10.4077C65.0293 10.3495 65.1382 10.2492 65.2062 10.1229C65.29 9.98845 65.3329 9.83292 65.3299 9.67513C65.3369 9.56652 65.3203 9.45778 65.2812 9.35603C65.2421 9.25428 65.1814 9.16204 65.1031 9.08536C65.013 9.00827 64.9082 8.9497 64.7949 8.91302C64.6816 8.87635 64.5621 8.86235 64.4433 8.8718H63.1546V10.4991Z" fill="#010101"/>
<path d="M67.0928 13.2556V8.32259H68.6392C68.9104 8.3113 69.1818 8.34203 69.4433 8.41397C69.682 8.50499 69.8819 8.67385 70.0103 8.89225C70.1611 9.1518 70.2362 9.44741 70.2268 9.74648C70.2408 10.1383 70.1169 10.5229 69.8762 10.8349C69.7225 10.987 69.5363 11.1034 69.3312 11.1756C69.1261 11.2477 68.9074 11.2737 68.6908 11.2518H67.6598V13.2861L67.0928 13.2556ZM67.6392 10.6722H68.6701C68.9342 10.6932 69.1963 10.6129 69.402 10.4482C69.4836 10.3571 69.5457 10.2507 69.5846 10.1354C69.6236 10.02 69.6386 9.89822 69.6288 9.77703C69.6364 9.60067 69.5973 9.4254 69.5154 9.26846C69.4594 9.14426 69.3608 9.04343 69.2371 8.98363C69.0522 8.91803 68.8559 8.89026 68.6598 8.90218H67.6289L67.6392 10.6722Z" fill="#010101"/>
<path d="M73.9484 8.32251H74.4845V11.1807C74.4956 11.5749 74.4505 11.9685 74.3505 12.3503C74.2646 12.6436 74.0835 12.9008 73.835 13.0826C73.5547 13.2666 73.223 13.3591 72.8865 13.3471C72.6603 13.3637 72.4332 13.3294 72.2225 13.2465C72.0117 13.1637 71.8228 13.0346 71.6701 12.8691C71.3534 12.3645 71.2122 11.7717 71.268 11.1807V8.32251H71.8041V11.1705C71.7861 11.5134 71.8244 11.8569 71.9175 12.1877C71.9753 12.371 72.0955 12.5291 72.2577 12.6352C72.4324 12.7467 72.6372 12.8033 72.8453 12.7978C73.0003 12.8092 73.1561 12.7859 73.3007 12.7295C73.4453 12.6732 73.5751 12.5851 73.6804 12.4723C73.8998 12.0893 73.9935 11.6487 73.9484 11.211V8.32251Z" fill="#010101"/>
<path d="M75.7319 13.2555V8.32251H76.5464L77.5257 11.8214L77.7217 12.5537C77.7217 12.3706 77.8454 12.1061 77.9381 11.7603L78.9691 8.32251H79.701V13.2555H79.1855V9.18693L77.9897 13.2555H77.4948L76.3093 9.065V13.2555H75.7319Z" fill="#010101"/>
<path d="M80.8762 13.2556V8.32259H82.4226C82.6939 8.3113 82.9653 8.34203 83.2268 8.41397C83.4654 8.50499 83.6654 8.67385 83.7937 8.89225C83.9367 9.15446 84.0079 9.44882 84 9.74648C84.0169 10.1371 83.8968 10.5215 83.6598 10.8349C83.5041 10.9872 83.316 11.1037 83.1092 11.1758C82.9025 11.2479 82.6821 11.2738 82.4639 11.2518H81.433V13.2861L80.8762 13.2556ZM81.4123 10.6722H82.4433C82.7073 10.6932 82.9694 10.6129 83.1752 10.4482C83.2581 10.3576 83.3218 10.2516 83.3626 10.1364C83.4033 10.0211 83.4201 9.89887 83.4123 9.77703C83.4159 9.60102 83.3771 9.42669 83.2989 9.26846C83.2372 9.14809 83.1402 9.04882 83.0205 8.98363C82.8323 8.91721 82.6324 8.88944 82.4329 8.90218H81.402L81.4123 10.6722Z" fill="#010101"/>
<path d="M50.0928 19.2872V18.6972H51.835V20.5281C51.5956 20.7664 51.3167 20.9623 51.0103 21.1077C50.733 21.2363 50.4301 21.3025 50.1237 21.3011C49.759 21.2994 49.4019 21.1973 49.0928 21.0061C48.7636 20.7946 48.5025 20.4945 48.3402 20.1415C48.1468 19.7096 48.0552 19.2403 48.0722 18.7685C48.0625 18.2874 48.1537 17.8093 48.3402 17.3647C48.4936 17.0068 48.7475 16.6999 49.0722 16.4799C49.3797 16.2866 49.7385 16.1874 50.1031 16.1951C50.3769 16.1878 50.6487 16.2434 50.8969 16.3578C51.116 16.4701 51.3063 16.63 51.4535 16.8256C51.6167 17.0791 51.7256 17.3631 51.7732 17.6597L51.2887 17.8224C51.2481 17.5984 51.1641 17.3844 51.0413 17.1919C50.9364 17.055 50.798 16.9465 50.6392 16.8765C50.47 16.7922 50.2823 16.7504 50.0928 16.7546C49.8191 16.7474 49.5497 16.8218 49.3196 16.9681C49.0877 17.1358 48.9089 17.365 48.8041 17.6292C48.6628 17.9817 48.5962 18.3591 48.6083 18.7379C48.5654 19.2668 48.7152 19.7934 49.0309 20.2229C49.1561 20.3738 49.3134 20.4957 49.4915 20.58C49.6696 20.6644 49.8642 20.7091 50.0618 20.7111C50.2903 20.708 50.5155 20.6561 50.7216 20.5587C50.9226 20.4765 51.1049 20.3554 51.2577 20.2026V19.2872H50.0928Z" fill="#010101"/>
<path d="M52.9691 21.23V16.2968H54.7836C55.0718 16.2792 55.3603 16.3245 55.6289 16.4292C55.8222 16.5313 55.9776 16.6916 56.0722 16.8868C56.1918 17.1199 56.2519 17.3783 56.2474 17.6395C56.2641 17.9673 56.1578 18.2898 55.9485 18.5449C55.7263 18.788 55.4222 18.9433 55.0928 18.9822C55.223 19.0557 55.3411 19.1483 55.4432 19.2568C55.6075 19.4508 55.7494 19.6622 55.866 19.8873L56.5877 21.23H55.9072L55.3608 20.2129C55.2183 19.931 55.0565 19.6591 54.8763 19.3991C54.7956 19.2857 54.6898 19.1917 54.567 19.1245C54.4303 19.0669 54.2827 19.0393 54.1341 19.0433H53.5154V21.23H52.9691ZM53.5154 18.4736H54.6804C54.8772 18.4835 55.074 18.4522 55.2577 18.382C55.3912 18.3214 55.5026 18.222 55.5773 18.0972C55.6532 17.9563 55.6923 17.799 55.6908 17.6395C55.6972 17.5309 55.6802 17.4223 55.6411 17.3206C55.602 17.219 55.5416 17.1265 55.4639 17.0495C55.3738 16.9724 55.2691 16.9138 55.1558 16.8771C55.0425 16.8405 54.9229 16.8265 54.8041 16.8359H53.5154V18.4736Z" fill="#010101"/>
<path d="M57.299 18.8193C57.2588 18.1269 57.4588 17.4418 57.8661 16.8766C58.0298 16.6632 58.2418 16.4904 58.4852 16.372C58.7287 16.2537 58.9968 16.1933 59.2681 16.1952C59.6362 16.1842 59.9979 16.2913 60.2991 16.5004C60.6123 16.7228 60.8582 17.0251 61.0103 17.375C61.1943 17.813 61.2821 18.2846 61.2681 18.7584C61.2988 19.39 61.1216 20.0144 60.7629 20.5384C60.6052 20.7759 60.3893 20.9703 60.1352 21.1036C59.8811 21.237 59.597 21.305 59.3093 21.3013C59.0175 21.3065 58.7294 21.2371 58.4729 21.0999C58.2164 20.9626 58.0002 20.7622 57.8454 20.5181C57.4877 20.0222 57.2965 19.4279 57.299 18.8193ZM57.8661 18.8193C57.8344 19.325 57.976 19.8267 58.2682 20.2434C58.3864 20.4025 58.5419 20.5308 58.7215 20.6176C58.901 20.7044 59.0992 20.7471 59.2991 20.7418C59.5 20.7468 59.6991 20.7031 59.8789 20.6144C60.0586 20.5257 60.2135 20.3948 60.33 20.2332C60.629 19.7929 60.7704 19.2667 60.732 18.7381C60.7375 18.3488 60.6676 17.962 60.5258 17.5988C60.4242 17.3553 60.2566 17.1443 60.0413 16.9886C59.8354 16.8381 59.5862 16.7561 59.3299 16.7547C59.1293 16.7514 58.9309 16.7958 58.7514 16.8843C58.5719 16.9729 58.4167 17.103 58.299 17.2633C57.9893 17.7228 57.8376 18.2682 57.8661 18.8193Z" fill="#010101"/>
<path d="M64.9485 16.2866H65.4846V19.1347C65.4962 19.5322 65.4511 19.9295 65.3506 20.3147C65.2634 20.6045 65.0823 20.8581 64.8351 21.0368C64.5548 21.2207 64.223 21.3132 63.8866 21.3013C63.6604 21.3179 63.4333 21.2835 63.2225 21.2007C63.0118 21.1179 62.8228 20.9888 62.6701 20.8233C62.3519 20.3192 62.2107 19.7257 62.2681 19.1347V16.2866H62.8041V19.1347C62.7933 19.4599 62.8281 19.785 62.9073 20.1009C62.9664 20.2891 63.0904 20.4513 63.2578 20.5588C63.4349 20.664 63.6387 20.7168 63.8454 20.7113C64.0008 20.7275 64.158 20.7064 64.3034 20.6497C64.4488 20.593 64.5782 20.5024 64.6805 20.3857C64.8991 20.0062 64.9928 19.569 64.9485 19.1347V16.2866Z" fill="#010101"/>
<path d="M66.7526 21.23V16.2968H68.299C68.5703 16.2855 68.8415 16.3165 69.103 16.3885C69.3459 16.4724 69.5482 16.6429 69.6701 16.8665C69.8141 17.1246 69.8853 17.4162 69.8762 17.7108C69.8949 18.1016 69.7746 18.4866 69.5361 18.7992C69.3826 18.9552 69.1952 19.0746 68.988 19.1486C68.7808 19.2226 68.5593 19.2492 68.3402 19.2263H67.3092V21.2606L66.7526 21.23ZM67.2887 18.6363H68.3197C68.5837 18.6573 68.8458 18.5772 69.0516 18.4125C69.136 18.3229 69.2007 18.2169 69.2415 18.1014C69.2823 17.9858 69.2983 17.8633 69.2887 17.7413C69.2945 17.5684 69.2554 17.3968 69.1753 17.2429C69.1106 17.1221 69.0145 17.0202 68.8969 16.9479C68.7075 16.8873 68.508 16.8631 68.3093 16.8767H67.2784L67.2887 18.6363Z" fill="#010101"/>
<path d="M14.9999 0.0734863H43.3608V29.9164H14.9999V0.0734863Z" fill="#F1F4FA"/>
<path d="M16.8867 1.9043H41.4743V2.71806H16.8867V1.9043ZM16.8867 2.92143H41.4743V24.2813H16.8867V2.92143Z" fill="#010101"/>
<path d="M16.9072 8.06813C17.1444 7.87487 17.6186 7.47809 17.6804 7.45775C17.7423 7.4374 17.7525 7.52905 17.7422 7.56974C17.7319 7.61042 18 7.49854 18 7.56974C18 7.64094 17.7422 7.90538 17.6288 8.06813L19.4227 6.84761C19.3608 6.84761 19.2681 6.75605 19.4846 6.57297C19.7011 6.38988 22.4227 4.29455 22.5154 4.25387C22.6082 4.21318 22.8144 4.25373 22.6701 4.36561C22.8454 4.25373 23.3298 3.93839 23.237 4.09096C23.237 4.09096 23.4639 3.91819 23.5876 3.97922C23.7114 4.04025 23.8762 3.85715 24.0309 3.71475C24.1855 3.57235 24.2164 3.52156 24.268 3.52156C24.3195 3.52156 24.4639 3.64354 24.5052 3.70457C24.5464 3.7656 24.5052 3.84696 23.9794 4.20296L23.4227 4.60971C21.6431 5.81819 19.9453 7.14002 18.3401 8.56651L21.1237 6.58315C21.2268 6.52212 20.9484 7.06114 20.6494 7.28491L20.9794 7.08153C21.8557 6.54245 23.835 5.32171 24.0721 5.11828C24.5104 4.76832 24.9963 4.48088 25.5155 4.26405C26.1057 3.87215 26.6704 3.4441 27.2062 2.98245C27.5525 2.68228 27.9174 2.40365 28.2989 2.14832H28.5979C28.708 2.13146 28.8153 2.1006 28.9175 2.05669C29.0205 2.05669 29.1649 2.05669 29.1134 2.05669C29.0619 2.05669 29.1134 2.05669 29.2061 2.05669C29.2989 2.05669 29.4535 1.92446 29.4329 2.05669C29.4123 2.18892 29.5566 2.05669 29.6907 2.05669C29.8247 2.05669 29.9381 1.97532 29.9381 2.05669C29.9381 2.13806 30.0412 2.05669 30.1237 2.05669C30.2062 2.05669 30.2783 1.98549 30.2164 2.05669C29.9989 2.26743 29.7567 2.45185 29.4948 2.60599L29.2165 2.78925C29.2165 2.78925 29.2164 2.78925 29.3092 2.78925C29.402 2.78925 29.6082 2.78923 29.3092 3.02317C28.8453 3.369 27.3196 4.28424 27.1546 4.36561C27.1035 4.37523 27.051 4.37523 26.9999 4.36561C26.9484 4.36526 26.8972 4.37497 26.8494 4.39417C26.8017 4.41337 26.7582 4.4418 26.7216 4.47761C26.4845 4.6912 26.7216 4.80294 27.1237 4.57917C27.5257 4.3554 27.536 4.71144 27.2783 4.87418C27.0206 5.03692 25.8865 5.89144 25.3298 6.27796L24.536 6.89827L26.7216 5.66758L31.1237 2.99263C31.2474 2.99263 31.4948 2.9925 31.4845 3.11455C31.4741 3.23661 31.5463 3.21639 31.6082 3.23673C31.67 3.25707 31.7009 3.23657 31.6082 3.32811C31.5154 3.41966 27.2061 6.37974 25.0824 7.87493L21.5773 9.08526L16.8557 12.2484V11.2822L21.2061 8.30205C20.1752 8.96319 18.1134 10.2651 18.0516 10.2651C17.9897 10.2651 18.0515 9.99051 18.2783 9.84811L16.8557 10.7736V10.5295L17.134 10.2549L16.8557 10.3363V9.62437L17.134 9.33955H16.8557L16.9072 8.06813ZM16.9072 6.89827V6.24741C17.9145 5.34199 18.9973 4.52207 20.1443 3.7962C20.6494 3.56226 20.6907 3.63336 20.6392 3.69439C20.7835 3.58251 21.1134 3.31803 21.3402 3.16546C21.567 3.01289 21.5772 3.16553 21.5566 3.23673C21.6673 3.11647 21.7959 3.01352 21.9381 2.93154C22.103 2.84 22.1752 2.93154 22.1958 2.93154C21.6551 3.30701 21.1356 3.711 20.6392 4.14187C20.6392 4.21307 20.6391 4.21314 20.7937 4.21314H21.1237L21.2681 4.10115C21.2681 4.10115 21.3814 4.00971 21.4742 3.95886C21.519 3.92911 21.5675 3.90511 21.6185 3.88759C21.712 3.8618 21.7972 3.81287 21.8659 3.7453C22.0357 3.58362 22.2515 3.47708 22.4845 3.44011C22.5243 3.42527 22.5683 3.42527 22.6082 3.44011C22.6269 3.45587 22.6507 3.46444 22.6753 3.46444C22.6998 3.46444 22.7235 3.45587 22.7422 3.44011C22.835 3.36891 22.9278 3.4402 22.9793 3.53174L16.9072 7.88486V7.28491L19.4639 5.06762C19.165 5.21002 17.6392 6.30852 16.9072 6.83743V6.89827ZM18.1546 11.8213L16.9174 12.8384V13.3979L18.5051 12.1367L18.6495 12.2077L19.2473 11.9636L16.9174 13.7639V14.3743L17.4535 14.1811L20.2886 12.3604L19.134 13.3775C18.9896 13.5098 18.9896 13.581 19.134 13.6624C19.2783 13.7437 19.134 13.8252 19.134 13.9574C19.0989 14.0163 19.068 14.0774 19.0412 14.1404C19.0412 14.293 19.0412 14.3336 19.0412 14.3336L16.9794 15.8898V16.7036L21.1958 14.0386V13.1436C21.0206 13.2657 20.6494 13.4793 20.536 13.3775C20.4226 13.2758 20.7319 13.1537 20.9587 13.052C21.0453 13.0225 21.1256 12.9778 21.1958 12.9199C21.2783 12.8385 21.3505 12.2079 21.1958 12.1672C21.0412 12.1265 21.0103 12.0757 21.1031 11.9231C21.1959 11.7705 20.9793 11.8519 20.8247 11.9231C20.6804 11.974 20.8248 11.8011 21.1547 11.6688C21.4846 11.5366 23.6907 11.2314 24.8247 11.0686L25.4536 10.977L27.2783 9.95986V8.69862C26.8423 9.04017 26.3766 9.34324 25.8866 9.60401C25.5155 9.74641 25.5463 9.60403 25.5773 9.37009C26.0966 8.95887 26.6685 8.61689 27.2783 8.35295V6.9899L26.5258 7.57992L24.4639 8.94272C24.4639 9.23769 24.4638 9.88878 24.1443 10.082C23.7197 10.2577 23.2821 10.4004 22.8351 10.5092C22.1784 10.6496 21.5413 10.8683 20.9381 11.1603C20.4948 11.4959 19.5464 11.9433 19.6907 11.7908C19.835 11.6382 20.1237 11.4348 20.567 11.0992C21.0103 10.7635 21.8248 10.0821 22.0516 9.9092C22.2784 9.73629 22.1753 9.68523 22.0516 9.70558C21.9279 9.72592 21.9278 9.70558 21.9072 9.70558C21.8866 9.70558 21.7835 9.55317 21.6082 9.62437C21.433 9.69557 20.0824 10.7025 19.9175 10.8245C19.9175 10.7737 19.7938 10.7736 19.6907 10.7736L18.3298 11.7908L18.1546 11.8213ZM32.2783 4.82352C31.9795 4.98364 31.6965 5.17073 31.433 5.38275V6.10487C31.8259 5.79514 32.2353 5.50668 32.6597 5.24046L32.866 5.04726C33.0619 4.88452 33.2886 4.6809 33.2783 4.59953C33.268 4.51816 33.2062 4.59953 33.134 4.59953C33.0535 4.62452 32.9672 4.62452 32.8866 4.59953C32.7629 4.59953 32.6391 4.71164 32.536 4.82352C32.4986 4.8866 32.4453 4.93903 32.3814 4.97599C32.3814 4.97599 32.3814 4.97594 32.3814 4.92509C32.3814 4.87423 32.3401 4.81335 32.2577 4.82352H32.2783ZM31.433 6.44061C31.8301 6.15306 32.2589 5.91083 32.7113 5.71848C32.8 5.70287 32.8907 5.70287 32.9794 5.71848C33.0825 5.71848 33.1752 5.71842 33.2268 5.65739C33.2783 5.59637 33.5464 5.37261 33.5876 5.41329C33.6288 5.45398 33.5876 5.50498 33.5876 5.56601C33.5876 5.62704 33.5876 5.68796 33.5876 5.7083H33.6495C33.7114 5.7083 33.7835 5.78956 33.6495 5.85059C33.587 5.90076 33.5175 5.94198 33.4432 5.97277C33.3789 5.99445 33.3218 6.03326 33.2783 6.08476C33.2783 6.08476 33.2784 6.08476 33.3711 6.08476C33.4639 6.08476 33.5567 5.98305 33.4536 6.08476C33.3505 6.18647 32.268 7.00015 31.8041 7.32564L31.6701 7.41702C31.3402 7.66113 31.299 7.41713 31.3299 7.27473L31.433 6.44061Z" fill="#6EBE45"/>
<path d="M17.7629 16.5816C17.7629 16.5816 17.6391 16.5207 17.6907 16.4698V16.3985C17.6907 16.3375 17.6907 16.2867 17.8247 16.2053C17.9587 16.124 18.2061 15.9307 18.4742 15.7171C18.7299 15.4734 19.0178 15.2645 19.3299 15.0966C19.5339 15.0782 19.7276 15.0003 19.8866 14.8728L20.1135 14.6593C20.3299 14.4457 20.598 14.1709 20.6392 14.2523C20.6582 14.2848 20.6682 14.3218 20.6682 14.3593C20.6682 14.3968 20.6582 14.4336 20.6392 14.4661L21.2681 13.9878L26.2577 10.3568C26.2577 10.3568 26.402 10.4075 26.3298 10.4686L27.3608 9.60415C29.5055 9.08813 31.6133 8.43215 33.6701 7.64089C34.3092 7.25438 35.1959 6.62381 35.567 6.42038C35.567 6.42038 35.701 6.4205 36.1753 6.03399C36.4707 5.82341 36.7931 5.6524 37.1341 5.52542C37.4404 5.41649 37.7314 5.26934 38 5.08787C38.6289 4.6505 38.701 4.61003 39.1443 4.53883C39.5201 4.41691 39.8697 4.22717 40.1753 3.97935C40.2532 3.91087 40.3398 3.85282 40.433 3.80652C40.5258 3.80652 40.8453 4.00972 40.7938 4.08092L40.701 4.142C40.6289 4.142 40.5361 4.21336 40.567 4.30491V4.37593C40.6032 4.44512 40.622 4.52181 40.622 4.59967C40.622 4.67752 40.6032 4.75446 40.567 4.82365C39.8758 5.37466 39.1567 5.89044 38.4124 6.36947L38.2578 6.48147C38.0905 6.60714 37.9066 6.70985 37.7113 6.78666C37.7113 6.78666 37.7114 6.7255 37.7629 6.6543C37.8134 6.59987 37.8551 6.53819 37.8866 6.47129C37.8866 6.32889 36.9381 6.79672 37.0309 6.92895C37.0462 6.94687 37.0651 6.96166 37.0864 6.97216C37.1077 6.98265 37.1309 6.98868 37.1546 6.99004C37.1546 6.99004 37.2268 6.98992 37.1546 7.12214C36.8031 7.37023 36.4306 7.58816 36.0412 7.77325H34.8866C35.299 7.53931 36.1649 7.03066 36.299 6.92895C36.6688 6.68117 37.0584 6.46357 37.4639 6.27809C37.8211 6.09401 38.1655 5.88663 38.4948 5.65753C37.9747 5.86634 37.4686 6.10751 36.9794 6.37965L35.3608 7.32577L33.6599 8.5361L30.5671 9.60415C29.4124 9.98049 27.0721 10.723 27 10.8348C26.9278 10.9467 27 10.9263 27 10.9568H27.0927C27.1752 10.9568 27.0928 11.0281 27.0413 11.0789C26.9741 11.1193 26.9118 11.1669 26.8556 11.2212L26.2474 11.7909C26.0952 11.9556 25.8924 12.0664 25.6702 12.1063C25.5051 12.1261 25.3483 12.1892 25.2165 12.2893C25.1928 12.2949 25.1681 12.2949 25.1444 12.2893C25.1444 12.2893 25.2062 12.452 25.5876 12.2893L25.8144 12.1979C25.8791 12.1686 25.9495 12.1534 26.0206 12.1534C26.0918 12.1534 26.1621 12.1686 26.2268 12.1979C26.5283 12.1907 26.8202 12.0912 27.0619 11.9131C27.0924 11.8923 27.1275 11.8788 27.1642 11.8738C27.201 11.8688 27.2383 11.8724 27.2734 11.8843C27.3085 11.8961 27.3404 11.9159 27.3663 11.9421C27.3922 11.9683 27.4115 12.0001 27.4227 12.035C27.2847 12.1491 27.1322 12.2448 26.969 12.3198C26.7736 12.4133 26.5903 12.5294 26.4227 12.6657C26.4227 12.6657 26.5155 12.6657 26.6392 12.6657C26.7629 12.6657 27.0618 12.5233 27.134 12.5945C27.2062 12.6657 27.2578 12.747 26.9279 13.0623L26.3402 13.6218C26.593 13.5814 26.8371 13.4989 27.0619 13.3777L27.6907 13.0318L31.2164 11.0993C31.544 10.8401 31.8884 10.6023 32.2474 10.3874L32.5361 10.2754C32.7216 10.194 32.9176 10.1228 33.1238 10.0516C33.2784 10.0516 33.5051 9.96008 33.5773 10.0516C33.6495 10.1432 33.8659 10.4381 33.6701 10.4991H33.5567C33.4288 10.5114 33.3056 10.5528 33.1965 10.6198C33.0874 10.6868 32.9954 10.7779 32.9278 10.8857C32.8647 11.0217 32.7648 11.1376 32.6391 11.2212C32.5773 11.2823 32.5257 11.3129 32.5257 11.3841C32.5257 11.4553 32.5257 11.4959 32.6391 11.5061H32.7526C32.8454 11.5671 32.9176 11.6791 32.7526 11.8825C32.5877 12.0859 32.433 12.2587 32.6804 12.2587C32.802 12.2401 32.9142 12.1831 33 12.0961C33.1031 12.0351 33.1443 11.9944 33.0722 12.1775C32.9973 12.3434 32.9689 12.5261 32.9897 12.7065L30.6082 14.4254C29.9072 14.4966 28.4227 14.5778 28.1856 14.3032C28.0218 14.1706 27.8221 14.0885 27.6113 14.0668C27.4006 14.0451 27.188 14.0849 27 14.1813C26.8144 14.2728 25.567 15.0458 24.9381 15.4221C24.9381 15.6052 24.9381 15.8798 25.3505 15.6357C25.4997 15.5193 25.6346 15.3863 25.7526 15.2391C25.9072 15.056 26.0206 14.934 26.2371 14.9645C26.5097 14.9753 26.7793 14.9042 27.0103 14.7608C27.0842 14.7208 27.1643 14.6935 27.2474 14.6796C27.2006 15.4203 27.1077 16.1574 26.969 16.8868L24.6083 18.5244C23.5839 19.5503 22.4922 20.5083 21.3402 21.3926C21.2783 21.2909 20.3711 22.0742 19.7732 22.5828C19.4845 22.8269 19.268 22.9997 19.2577 22.9997C19.187 22.9876 19.1201 22.9597 19.0619 22.9183C18.6526 23.4518 18.1783 23.9337 17.6495 24.3526C17.4536 24.3526 16.9793 23.9864 16.7834 23.7728V23.5389L18.3505 22.1351C18.2886 22.1351 18.2061 22.298 18.3505 22.298C18.958 21.911 19.5244 21.4645 20.0412 20.9655C20.4098 20.5241 20.8207 20.1188 21.2681 19.7551C21.3609 19.7551 21.3609 19.6838 21.3918 19.6228C21.4227 19.5618 21.3918 19.4195 21.7629 19.216C21.9955 19.0807 22.2193 18.9313 22.433 18.7686C22.5118 18.7059 22.5944 18.648 22.6805 18.5955C22.8351 18.5243 22.3815 18.3617 22.0206 18.5244L21.6186 18.6871C21.4433 18.738 21.3093 18.7786 21.2681 18.8498C21.2268 18.921 21.0515 18.7176 21.3402 18.4125C21.4822 18.2596 21.6412 18.1232 21.8144 18.0057L21.8866 17.9446C21.9588 17.9446 21.7423 17.6699 21.6289 17.5682L16.7834 21.891V20.9553C17.4742 20.3145 18.8453 19.0126 18.8453 18.921C18.7628 18.8397 18.6185 18.6974 18.8453 18.5244C19.0721 18.3515 20.464 17.0699 21.1547 16.4902L21.3918 17.0596L20.0206 18.4634L21.5465 17.4462L21.4845 16.5612C21.4845 16.5103 21.2578 16.3071 21.1547 16.2053L20.6907 16.5612C20.3917 16.846 19.1134 18.0566 18.8866 18.0057C18.1194 18.5144 17.4258 19.1235 16.8247 19.8162V18.9108L18.8866 16.9478C18.8041 16.9478 18.701 16.9479 18.8866 16.7546L19.3711 16.2053C19.2474 16.1138 18.9691 15.9816 18.8866 16.2053C18.8041 16.4291 18.732 16.3374 18.6392 16.3171C18.5893 16.2973 18.534 16.2959 18.483 16.3126C18.432 16.3294 18.3887 16.3634 18.3608 16.4087C18.2116 16.5809 18.0085 16.6991 17.7835 16.7445L17.7113 16.663L17.7629 16.5816ZM37.4742 7.28504C37.0397 7.46507 36.6223 7.68281 36.2269 7.9359C36.2608 8.06852 36.3419 8.18476 36.4555 8.26319C36.5691 8.34163 36.7075 8.3772 36.8454 8.36327C37.2268 8.03779 40.0825 6.39999 41.4742 5.60662V4.99649C41.0309 5.27112 40.1443 5.82032 40.1134 5.70843C39.426 6.007 38.7757 6.3825 38.1752 6.82738C37.9678 7.01859 37.7313 7.17643 37.4742 7.29523V7.28504ZM37.0412 9.10576L38.0721 8.51574L38.1752 8.43429C38.3195 8.34275 38.433 8.28188 38.5361 8.34291C38.6392 8.40393 39.4845 7.84432 39.7216 7.64089L39.8248 7.53933C40.0104 7.36642 40.1752 7.22403 40.268 7.29523C40.3169 7.32716 40.3743 7.34415 40.433 7.34415C40.4917 7.34415 40.5491 7.32716 40.598 7.29523L40.7525 7.18323C40.8935 7.06266 41.0495 6.96008 41.2165 6.87804H41.4433V7.45788C40.701 7.84439 39.969 8.24099 39.2371 8.64785C38.5051 9.0547 37.5773 9.74649 37.1752 10.0618L37.0412 9.10576Z" fill="#E8E620"/>
<path d="M23.1856 20.5485C23.1 20.7104 22.9845 20.8552 22.8453 20.9756C23.0429 20.8578 23.2499 20.7557 23.464 20.6704C23.747 20.4727 24.0094 20.2479 24.2475 19.9992C24.5567 19.7144 24.5566 19.9279 24.6494 19.877L25.4021 19.3178C25.682 19.1086 25.9378 18.8697 26.165 18.6056C26.3402 18.4123 27.1959 17.9345 27.402 18.0464C27.6082 18.1582 27.6083 18.6259 27.5877 18.8599C27.567 19.0938 27.3711 19.511 27.2577 19.5619C27.1443 19.6127 27.0206 19.7246 26.8969 19.7754C26.5366 20.0545 26.1924 20.3533 25.866 20.6704C25.6758 20.8581 25.4474 21.0039 25.1958 21.0978C25.1134 21.0978 25.1031 21.0977 25.1958 20.9756C25.2886 20.8535 26.2886 20.0907 26.4535 19.9585C26.6185 19.8262 26.5979 19.755 26.6185 19.6838C26.6391 19.6126 26.4433 19.633 26.5155 19.5212C26.5876 19.4093 26.6186 19.4194 26.9175 19.216C27.2165 19.0125 27.1959 18.8802 27.1959 18.8191C27.1959 18.7581 27.1134 18.7378 26.9072 18.626C26.7865 18.5651 26.6493 18.5437 26.5155 18.5649L24.7834 20.1517C24.6288 20.2737 24.3505 20.528 24.402 20.6195C24.4536 20.711 24.4948 20.7314 24.7731 20.6195C25.0111 20.519 25.2333 20.3856 25.4329 20.2229C25.2164 20.4264 24.7525 20.8332 24.6701 20.9349C24.5876 21.0366 24.0206 21.4434 23.7525 21.6468C23.8858 21.4938 24.0066 21.3306 24.1134 21.1586C24.2268 20.9755 24.1133 20.9959 24.0103 20.9349C23.9072 20.8738 23.6288 21.118 23.4845 21.2401C22.9278 21.7588 22.4021 22.2573 21.8866 22.8778C21.8866 22.9591 21.7938 22.9692 22 23.0404C22.2062 23.1116 22 23.3558 21.8866 23.3558C21.8331 23.338 21.7751 23.338 21.7216 23.3558C21.4487 23.6269 21.1906 23.9119 20.9484 24.21C21.0412 24.1388 21.4226 24.2812 21.5566 24.21C21.6907 24.1388 22.134 23.5285 22.268 23.4268C22.4021 23.3251 22.2681 23.203 22.5774 23.1522C22.8867 23.1013 22.701 23.2032 22.7629 23.3151C22.8247 23.4269 23.0412 23.142 23.3093 22.9386C23.5773 22.7352 24.1133 22.064 24.402 22.0233C24.6907 21.9826 24.701 21.8606 25.2062 21.5453C25.844 21.1262 26.4567 20.6711 27.0412 20.1822C27.3608 19.9076 30.9175 17.9954 31.0103 17.9649C31.1031 17.9344 31.5876 17.68 31.8144 17.5885C32.0412 17.4969 32.103 17.202 32.268 17.1002C32.4329 16.9985 32.4639 16.8969 32.6804 16.6222C32.7892 16.4699 32.9446 16.3558 33.1237 16.2967C33.1237 16.4289 33.1237 16.6935 33.0515 16.7139C32.9793 16.7342 32.8248 16.9987 32.732 16.9987C32.6392 16.9987 32.1031 17.5988 31.8144 17.7921C31.5368 17.9883 31.231 18.1425 30.9072 18.2497C29.6907 18.9414 28.4949 19.6838 27.3403 20.467C26.1959 21.4028 25.0722 22.3488 23.9485 23.3151C23.5838 23.589 23.2393 23.888 22.9175 24.21C23.1216 24.2514 23.332 24.2514 23.5361 24.21C24.4516 23.5828 25.3294 22.9035 26.165 22.1757C27.6889 20.8867 29.3477 19.7614 31.1134 18.8191C32.2189 18.2898 33.2126 17.5582 34.0413 16.663C34.2146 16.5086 34.4007 16.3692 34.5979 16.246C34.8399 16.3195 35.0747 16.4146 35.299 16.5306C35.1551 16.7124 34.9964 16.8825 34.8247 17.0392C34.5767 17.2845 34.3115 17.5124 34.031 17.7208C33.9451 17.7607 33.8491 17.7743 33.7554 17.7598C33.6616 17.7453 33.5745 17.7033 33.5052 17.6394L32.0722 18.4938L27.9485 21.3317C27.8866 21.3927 27.3505 22.064 27.268 22.1047C27.1855 22.1454 27.6495 22.1047 27.7732 22.1047C28.0394 21.9978 28.2787 21.8344 28.4742 21.6265C29.3299 20.9653 30.2165 20.345 31.1237 19.7551C31.3543 19.6468 31.5721 19.5136 31.7732 19.3583C31.9748 19.1942 32.2107 19.0762 32.4639 19.0126C32.6598 18.9617 33.299 18.1174 33.3815 18.1785C33.4639 18.2395 33.4433 18.6769 33.3815 18.7481C32.9917 19.0341 32.6198 19.3432 32.268 19.6736C32.1054 19.8037 31.9204 19.9037 31.7217 19.9686L30.4639 20.9858C30.1731 21.2776 29.8595 21.5464 29.5258 21.7894C28.9691 22.1962 27.7629 23.3557 27.5361 23.2947C27.4639 23.2947 26.9999 23.966 26.835 24.0576C26.67 24.1491 26.5773 24.261 26.6288 24.3017C26.6804 24.3423 27.1236 24.1186 27.2267 24.0576C27.3298 23.9965 27.3196 24.0576 27.4536 24.0576C27.5877 24.0576 28.1444 23.5185 28.1134 23.6203C28.0825 23.722 28.3917 23.6202 28.5154 23.5184C29.6288 22.6234 30.7217 21.7182 31.8144 20.7926C32.0754 20.6192 32.3555 20.4757 32.6494 20.3652C32.7216 20.3652 32.7526 20.3652 32.8866 20.3652C33.1044 20.1989 33.3047 20.0117 33.4845 19.806L33.6804 20.1924C33.4759 20.3481 33.283 20.5181 33.1031 20.701C32.6674 21.0259 32.2054 21.3152 31.7217 21.5656C31.4348 21.7983 31.1815 22.0687 30.969 22.3692C30.969 22.5014 30.969 22.7557 30.8453 22.8472C30.7216 22.9388 30.536 23.254 30.5876 23.2336C30.6391 23.2133 31.4227 22.5521 31.8144 22.2165C31.8144 22.2165 31.9278 22.2877 32.134 22.2165C32.7571 21.8173 33.356 21.3826 33.9278 20.9145C33.4329 21.3824 32.4124 22.3082 32.3299 22.359C32.2474 22.4099 31.6392 22.8979 31.5464 22.9691C31.4536 23.0403 31.732 23.0608 31.8144 23.0811C31.8969 23.1015 32 22.9794 32.3299 22.837C33.1401 22.2841 33.918 21.6864 34.6598 21.0469L37.1649 18.5244C37.9614 18.2358 38.7062 17.8236 39.3711 17.3036C41.3402 16.0119 41.1649 15.7475 41.1752 15.6662C41.1855 15.5848 40.6908 15.89 40.4846 16.1951C40.4643 16.2364 40.4352 16.2729 40.3995 16.3024C40.3638 16.3319 40.3222 16.3537 40.2774 16.3662C40.2327 16.3787 40.1857 16.3816 40.1396 16.3749C40.0936 16.3682 40.0495 16.3519 40.0103 16.3272C40.2474 16.1441 40.732 15.7374 40.8557 15.6764C40.9794 15.6153 40.9587 15.4628 40.9278 15.4424C40.8969 15.4221 40.7629 15.6051 40.6186 15.6662C40.4743 15.7272 40.4639 15.6663 40.2474 15.7476C40.0309 15.829 39.8454 16.0729 39.5464 16.3272C39.1776 16.6282 38.7806 16.8939 38.3608 17.1206C38.102 17.2159 37.8316 17.2774 37.5567 17.3036C37.4433 17.3036 37.1444 17.6191 37.0104 17.7615L36.9175 17.5378L37.4536 16.9783C37.4106 16.9472 37.3743 16.9079 37.3469 16.8629C37.3194 16.8178 37.3013 16.7677 37.2936 16.7156C37.286 16.6635 37.2889 16.6103 37.3022 16.5594C37.3155 16.5085 37.3389 16.4608 37.3712 16.4188L39.8351 14.649C39.9588 14.5575 39.835 14.4354 39.7216 14.3846C39.6082 14.3337 39.5052 14.6795 38.9382 15.0965C38.3712 15.5135 37.9072 15.7679 37.7423 15.8899C37.9794 15.7068 38.5155 15.2491 38.7732 15.0558C39.0056 14.8508 39.2195 14.6263 39.4124 14.3846C39.4124 14.2829 39.4124 14.3845 39.165 14.3337C38.9175 14.2828 38.6804 14.7305 38.5052 14.7407C38.2574 14.8104 38.0261 14.9278 37.8247 15.0863C37.7328 15.1702 37.6231 15.2329 37.5037 15.2699C37.3842 15.3068 37.258 15.317 37.1341 15.2999C36.8557 15.2999 37.3299 14.7913 37.3815 14.7913C37.6415 14.6153 37.8741 14.403 38.0721 14.1608C38.402 13.815 38 13.9064 38.2371 13.764C38.4742 13.6216 38.5669 13.764 38.6907 13.764C39.1145 13.3234 39.5656 12.909 40.0412 12.5231C40.7423 12.0451 40.5361 11.9536 40.5567 11.8519C40.68 11.7114 40.8222 11.5881 40.9794 11.4856C40.9794 11.4144 40.9794 11.2925 40.8557 11.3128C40.732 11.3331 40.6804 11.506 40.402 11.4856C40.1237 11.4653 39.8453 11.8417 39.5979 12.096C39.4732 12.1992 39.3283 12.2758 39.1723 12.3212C39.0162 12.3667 38.8522 12.3802 38.6907 12.3605C38.4226 12.3605 38.5257 12.4826 38.3092 12.6453C38.1842 12.7317 38.099 12.8632 38.0721 13.0113L37.4536 13.4693C36.7113 13.988 35.969 14.4862 35.2577 15.0965C34.5389 15.3463 33.8057 15.5536 33.0618 15.7171C32.8866 15.7171 32.8042 15.8595 32.4949 16.246C32.1856 16.6325 31.4639 17.1816 31.3608 17.1308C31.2577 17.0799 31.5567 16.7443 31.6907 16.6222C31.8248 16.5002 32.5052 15.8188 32.6289 15.7171C32.7474 15.5927 32.8417 15.4477 32.9072 15.2897C33.0792 15.1248 33.2655 14.9752 33.4639 14.8422C33.5361 14.7812 33.4639 14.3235 33.3608 14.0997C33.1134 14.354 32.5464 14.9033 32.3299 15.1169C32.0013 15.4245 31.638 15.6942 31.2474 15.9205C31.2474 15.9205 31.5258 15.5848 31.7114 15.4221C32.2268 14.9338 33.2783 13.9472 33.3299 13.8353C33.3814 13.7234 33.1958 13.8353 33.0205 13.8353C32.4877 14.158 31.9842 14.5256 31.5154 14.9339C30.8096 15.3117 30.0835 15.6512 29.3402 15.951L25.5566 18.6361L24.2372 19.7754C23.9028 20.0329 23.5985 20.3262 23.3299 20.65L23.1856 20.5485Z" fill="#ED1C24"/>
<path d="M31.0722 24.2813H31.9588C32.3093 23.9559 32.9897 23.2642 32.9897 23.2642C32.9897 23.2642 32.9897 23.3252 33.0618 23.2642C33.2885 23.1273 33.5024 22.9707 33.701 22.7964L32.5464 24.1592H33.5773C33.9897 23.8744 34.3918 23.5693 34.7938 23.2642C34.8866 23.1727 35.0825 23.1727 35.0516 23.2642C34.7822 23.5802 34.4929 23.879 34.1855 24.1592H35.3196C35.9588 23.5489 36.6185 22.9488 37.3092 22.3894C37.5154 22.1961 37.732 21.9929 37.7423 22.0641C37.7526 22.1353 37.8041 22.186 37.8247 22.186L37.9897 22.0335C38.1765 21.8797 38.3522 21.7132 38.5155 21.5351C38.5155 21.6267 38.6598 21.7182 38.9382 21.474L40.3609 20.2128C40.1612 20.4076 39.9784 20.6187 39.8145 20.8435L39.7319 20.9044C39.5773 21.0264 39.2371 21.3214 39.2474 21.4537C39.2577 21.5859 39.5361 21.3927 39.6907 21.2707L37.0515 24.1592H38.7835C39.2578 23.6608 40.2372 22.6539 40.2268 22.6844C40.2165 22.7149 40.134 23.0609 40.0515 23.1117C39.9691 23.1626 39.433 23.8339 39.1546 24.1289H40.5051C40.67 23.9458 40.9691 23.5694 40.8763 23.5592C40.7836 23.549 40.6288 23.6405 40.5464 23.6811C40.4845 23.6811 40.4639 23.7218 40.5464 23.6811C40.694 23.5621 40.8614 23.4691 41.0412 23.4065C41.1855 23.4065 41.3608 23.1625 41.4433 23.0608V19.4499C41.2927 19.6668 41.1162 19.8649 40.9175 20.04C40.905 20.0532 40.8898 20.0638 40.8729 20.071C40.8561 20.0782 40.838 20.0819 40.8196 20.0819C40.8012 20.0819 40.7831 20.0782 40.7662 20.071C40.7494 20.0638 40.7342 20.0532 40.7217 20.04C40.6925 20.0271 40.6608 20.0203 40.6288 20.0203C40.5968 20.0203 40.5652 20.0271 40.5361 20.04V19.9891C40.5864 19.9919 40.6368 19.9831 40.6833 19.9637C40.7298 19.9443 40.7711 19.9147 40.8041 19.8771L41.402 19.3178V17.6903C41.0967 18.0203 40.7503 18.3109 40.3711 18.555C40.334 18.5654 40.2947 18.5654 40.2577 18.555C40.1958 18.555 40.1443 18.5548 40.0103 18.6158L39.7732 18.8396C39.6082 18.9921 39.433 19.1549 39.3299 19.1651H39.2371C39.2371 19.1651 39.2371 19.1652 39 19.2873C38.3551 19.7957 37.7487 20.3497 37.1855 20.9451C37.0662 21.1103 36.9067 21.2433 36.7217 21.3317L37 20.8942C36.7779 20.9178 36.5576 20.9552 36.3402 21.0062C36.3402 21.0571 36.3402 20.7925 36.433 20.6399C36.5462 20.5121 36.6497 20.3762 36.7423 20.2332C36.9279 19.9585 37.134 19.6737 37.1546 19.7144C37.2069 19.9189 37.2481 20.1262 37.2783 20.335C37.5721 20.1824 37.8457 19.9944 38.0928 19.7755L39.2577 18.8701C39.3711 18.7786 39.567 18.6158 39.6804 18.6158C39.7938 18.6158 39.8762 18.6158 40.134 18.3819C40.3608 18.2192 41.0309 17.6191 41.3505 17.3648V16.9377C40.9781 17.1675 40.6324 17.437 40.3196 17.7412C40.2165 17.8735 40.2474 17.792 40.3196 17.6496C40.3918 17.5072 40.4329 17.3647 40.3917 17.3342C40.3505 17.3037 40.2989 17.3342 40.2474 17.3342C40.1958 17.3342 40.1443 17.3342 40.134 17.3342C40.331 17.0941 40.564 16.885 40.8247 16.7139L41.3815 16.3069V15.7983L39.4227 17.253C38.6289 17.8023 37.835 18.331 37.0206 18.8396C37.0206 18.8396 32.165 22.9082 32.0825 22.9997C32 23.0913 32.1752 22.9997 32.268 22.9997L31.0722 24.2813Z" fill="#6ECCDC"/>
<path d="M20.67 16.7343V10.7941H24.969V15.3203C24.969 16.6833 25.6288 16.9682 26.0721 16.9682C26.5154 16.9682 26.2576 16.8055 26.3401 16.7343V5.66772H31.1649V8.22075C31.738 7.9464 32.3558 7.77423 32.9897 7.71218C33.8973 7.6509 34.7976 7.90829 35.5315 8.43877C36.2654 8.96926 36.7856 9.73878 37 10.6111V16.3986H32.9587V11.3129C32.9587 10.6924 32.9587 10.1433 32.1546 10.1433C31.9258 10.1336 31.7004 10.1993 31.5137 10.33C31.3271 10.4608 31.1898 10.6492 31.1236 10.8654V21.4842H26.3093V18.2804C25.8845 18.7806 25.311 19.1364 24.67 19.2975C21.67 19.3992 20.6597 17.6395 20.67 16.7343Z" fill="#F9F7F5"/>
<path d="M21.6185 16.3069V10.3364H25.4021V14.9033C25.4021 16.2561 26.1134 16.5306 26.5464 16.5306C26.8122 16.5395 27.0733 16.4608 27.2887 16.3069V5.19983H31.6391V7.77321C32.2127 7.50006 32.8303 7.32795 33.4639 7.26465C34.3738 7.20547 35.2758 7.46465 36.0111 7.99671C36.7465 8.52876 37.2682 9.29948 37.4845 10.1735V15.9307H33.4639V10.9264C33.4639 10.306 33.4638 9.7464 32.6391 9.7464C32.4117 9.73613 32.1873 9.80037 32.0008 9.92916C31.8143 10.058 31.6762 10.244 31.6082 10.4583V21.1179H27.2577V17.8835C26.6728 18.4243 25.9364 18.7787 25.1444 18.9006C22.1547 18.982 21.6082 17.1613 21.6185 16.3069Z" fill="#010101"/>
<path d="M21.6186 10.3364V16.3068C21.6186 17.2019 22.1443 18.982 25.1752 18.8904C25.3045 18.8861 25.4327 18.8655 25.5567 18.8293H25.433C25.2454 18.7545 25.0792 18.636 24.9485 18.4837C24.8794 18.4189 24.8173 18.3473 24.763 18.2701L24.5773 18.0158C24.5551 17.977 24.5238 17.9439 24.4862 17.9192C24.4486 17.8945 24.4058 17.8786 24.3609 17.8733C24.2578 17.8733 24.165 17.8732 23.9691 17.5884C23.7733 17.3036 23.7422 17.2835 23.7422 17.2326C23.7535 17.1721 23.7535 17.1099 23.7422 17.0493C23.607 16.6656 23.5272 16.2651 23.5051 15.8594C23.4229 15.3722 23.4022 14.8768 23.4434 14.3846C23.4434 14.2218 23.4434 14.1811 23.4434 14.1201L23.2577 13.6115C23.2215 13.513 23.2215 13.4049 23.2577 13.3063V13.0419C23.2464 12.9677 23.2464 12.8923 23.2577 12.8181C23.2577 12.8181 23.2577 12.7572 23.2577 12.6148C23.2577 12.4724 23.2577 12.4114 23.2577 12.391C23.2577 12.3707 23.2577 12.3909 23.2577 12.2994C23.2577 12.2078 23.2577 12.1876 23.2577 12.1673C23.2487 12.1518 23.2439 12.1342 23.2439 12.1164C23.2439 12.0985 23.2487 12.0809 23.2577 12.0655V11.7196C23.2506 11.651 23.259 11.5817 23.2821 11.5167C23.3053 11.4516 23.3427 11.3925 23.3918 11.3433C23.4219 11.3057 23.4382 11.259 23.4382 11.211C23.4382 11.163 23.4219 11.1166 23.3918 11.0789C23.3731 11.0158 23.3731 10.9488 23.3918 10.8857C23.383 10.8216 23.383 10.7564 23.3918 10.6922C23.3918 10.6922 23.3918 10.6313 23.3918 10.5398V10.3364H21.6186ZM29.433 21.1179H27.2887V18.4124C27.8042 17.8224 28.4227 17.1002 28.464 17.0799L28.5464 16.8867C28.5979 16.7239 28.6805 16.5207 28.7423 16.5207C28.8042 16.5207 28.8248 16.5207 28.866 16.5207H28.9794C29.0722 16.5207 29.0825 16.5207 29.1135 16.5207C29.1287 16.4895 29.154 16.4644 29.1856 16.4494H29.2475C29.262 16.434 29.2794 16.4215 29.299 16.4131C29.3185 16.4047 29.3396 16.4005 29.3609 16.4005C29.3822 16.4005 29.4033 16.4047 29.4228 16.4131C29.4423 16.4215 29.4598 16.434 29.4743 16.4494C29.5853 16.6105 29.6559 16.7952 29.6804 16.9885L29.433 21.1179ZM28.6598 15.7273C28.992 15.4737 29.287 15.1758 29.5362 14.8422C29.8248 14.415 29.7939 14.2625 29.7629 14.0997C29.7526 14.0085 29.7526 13.9164 29.7629 13.8251V13.0419C29.774 12.9544 29.8057 12.8708 29.8557 12.7978C29.9279 12.6452 30.0207 12.4621 29.9176 12.2994C29.8042 12.1163 29.7836 12.0757 29.9176 11.913C29.9945 11.6592 30.0155 11.3922 29.9794 11.1298C29.9072 11.0077 29.7939 10.7331 29.9176 10.6314C30.0413 10.5297 30.0516 9.98032 29.9794 9.75655C29.9589 9.68672 29.9539 9.61344 29.9646 9.5415C29.9752 9.46956 30.0014 9.40072 30.0413 9.33961C30.0413 9.33961 30.0413 9.24791 30.0413 9.17671C30.0103 9.0773 30.0103 8.97118 30.0413 8.87177C30.0485 8.84255 30.0624 8.81526 30.0821 8.79231C30.1018 8.76935 30.1267 8.75123 30.1547 8.73941C30.1547 8.73941 30.2268 8.73955 30.2268 8.62767C30.2244 8.58471 30.2131 8.54249 30.1936 8.504C30.1741 8.46552 30.1468 8.43137 30.1134 8.40368C30.1134 8.35282 30.0413 8.31227 30.0413 8.28175C30.035 8.27093 30.0316 8.25874 30.0316 8.24624C30.0316 8.23374 30.035 8.22131 30.0413 8.21048C30.0413 8.21048 30.0413 8.15973 30.0413 8.05801C30.0257 7.98765 30.0257 7.91482 30.0413 7.84445C30.0926 7.70654 30.0926 7.555 30.0413 7.41709C30.0059 7.33949 29.9646 7.26471 29.9176 7.19335C29.9176 7.14249 29.9175 7.13243 29.9794 7.05106L30.1547 6.93906C30.1628 6.89877 30.1628 6.85743 30.1547 6.81714V6.65423C30.1547 6.65423 30.1547 6.56281 30.1547 6.52213L30.0618 6.37959C30.0292 6.32763 29.9829 6.28555 29.9278 6.25766C29.9278 6.25766 29.8556 6.25752 29.9278 6.11512C30 5.97272 30.0619 5.88138 30.0207 5.81018H27.4021V16.5003C27.8736 16.3143 28.3316 16.0967 28.7732 15.8492L28.6598 15.7273Z" fill="#68A797"/>
<path d="M35.3711 15.9307H33.4639V10.845C33.4639 10.3263 33.464 9.82783 32.8867 9.74646C33.1212 9.58204 33.403 9.49646 33.6907 9.50236C33.8024 9.52885 33.9077 9.57742 34 9.6449L34.1444 9.70574C34.2062 9.70574 34.2475 9.70574 34.2887 9.70574C34.3299 9.70574 34.3711 9.70574 34.4639 9.70574C34.5077 9.73276 34.549 9.76348 34.5876 9.79737C34.5876 9.79737 34.5877 9.85846 34.6908 9.85846C34.7939 9.85846 34.7835 9.80752 34.8042 9.77701C34.8223 9.80793 34.8317 9.84311 34.8317 9.87882C34.8317 9.91453 34.8223 9.94946 34.8042 9.98038V10.0313C34.8042 10.0313 34.8041 10.0314 34.8763 10.1026H34.9897C34.9897 10.1026 35.0515 10.1026 35.1031 10.1636V10.2449C35.1031 10.2449 35.1031 10.245 35.165 10.3568C35.2268 10.4687 35.165 10.4584 35.165 10.4686C35.165 10.4788 35.1649 10.4687 35.2164 10.5602C35.268 10.6518 35.1649 10.6516 35.134 10.6821C35.1031 10.7127 35.0618 10.7331 35.134 10.7738H35.1959C35.2546 10.7939 35.3073 10.8278 35.3497 10.8726C35.3921 10.9174 35.4228 10.9717 35.4391 11.0308C35.4553 11.0899 35.4567 11.1523 35.4431 11.2121C35.4295 11.2719 35.4011 11.3274 35.3608 11.374C35.1237 11.7605 35.1341 11.7808 35.1753 11.8724L35.2371 12.0452C35.2606 12.0891 35.2728 12.1381 35.2728 12.1877C35.2728 12.2374 35.2606 12.2861 35.2371 12.33C35.2371 12.4216 35.1855 12.442 35.2371 12.4522V12.5334C35.247 12.5698 35.2688 12.602 35.299 12.625C35.299 12.625 35.299 12.6251 35.299 12.6861C35.2217 12.7298 35.1609 12.7969 35.1256 12.8776C35.0903 12.9583 35.0823 13.0481 35.1031 13.1336C35.1031 13.2353 35.1856 13.225 35.2062 13.225C35.2269 13.225 35.2062 13.2251 35.2062 13.3166C35.1789 13.3749 35.1441 13.4295 35.1031 13.4793C35.1031 13.4793 35.1031 13.4794 35.1031 13.5913L35.1546 13.6829V13.7743C35.2269 13.9854 35.2269 14.2143 35.1546 14.4254L35.0824 14.5066C35.0824 14.5676 35.0206 14.5779 35.0103 14.6389V14.6899C35.0103 14.6899 35.0103 14.6897 35.0103 14.7711L35.1031 14.8423H35.0516C35.0516 14.8423 34.9897 14.8423 34.9793 14.8423V15.005C34.9587 15.1125 34.9587 15.223 34.9793 15.3305C34.9793 15.3305 34.9793 15.3307 35.0927 15.4833L35.3711 15.9307Z" fill="#6CAC9B"/>
<path d="M28.4433 5.97291L28.7423 5.71863H27.2887V16.3273C27.3239 16.35 27.3651 16.3623 27.4072 16.3623C27.4494 16.3623 27.4905 16.35 27.5258 16.3273L27.6701 16.2764C27.8936 16.187 28.0995 16.0597 28.2783 15.9002C28.397 15.8123 28.5248 15.7373 28.6598 15.6764C28.7216 15.6764 28.6598 15.239 28.598 14.8627L28.5464 14.4457V14.3236C28.5464 14.232 28.5464 14.2118 28.5464 14.1915L28.6391 14.0489C28.7161 13.8586 28.741 13.6518 28.7114 13.449V13.0929C28.7114 13.042 28.7114 13.0014 28.7114 12.9404C28.6766 12.8944 28.6529 12.8411 28.6422 12.7847C28.6314 12.7283 28.6339 12.6702 28.6495 12.6148V12.4522C28.6666 12.3546 28.6666 12.2548 28.6495 12.1572V11.9739C28.6405 11.8758 28.6405 11.7773 28.6495 11.6792C28.6663 11.6072 28.6668 11.5323 28.6507 11.4601C28.6347 11.388 28.6025 11.3204 28.5567 11.262C28.544 11.2292 28.544 11.1932 28.5567 11.1604C28.5527 11.1164 28.5527 11.072 28.5567 11.028C28.6031 10.8272 28.6031 10.6188 28.5567 10.4179C28.5251 10.3502 28.4871 10.2853 28.4433 10.2245C28.4368 10.2101 28.4334 10.1946 28.4334 10.1788C28.4334 10.163 28.4368 10.1475 28.4433 10.1331C28.4511 10.0315 28.4511 9.92947 28.4433 9.8279V9.30915C28.4547 9.26235 28.4547 9.21341 28.4433 9.16661C28.4433 9.16661 28.4433 9.16674 28.4433 9.04468L28.5258 8.93269C28.5258 8.85132 28.6392 8.78011 28.5258 8.66822C28.4258 8.44929 28.3632 8.21568 28.3403 7.97664V7.74272C28.3412 7.67813 28.3669 7.61639 28.4124 7.56989V7.5088C28.4124 7.5088 28.4124 7.38663 28.598 7.14252C28.6303 7.08523 28.6722 7.03377 28.7217 6.99005V6.92896C28.7217 6.86793 28.7216 6.84775 28.6391 6.83758C28.5567 6.82741 28.5258 6.83748 28.5567 6.73576C28.5876 6.63405 28.5567 6.57305 28.4227 6.51202C28.2784 6.44082 28.3093 6.43054 28.4227 6.40003C28.5155 6.40003 28.567 6.32897 28.5361 6.28828L28.4743 6.23738C28.4179 6.21666 28.3681 6.18146 28.3299 6.13556C28.2578 6.07454 28.2681 6.06452 28.3299 6.04418L28.4433 5.97291ZM21.6186 16.48V10.3772H22.4331C22.3403 10.3772 22.2062 10.4788 22.2371 10.5297C22.2681 10.5805 22.2372 10.5908 22.299 10.6213C22.3079 10.6512 22.3079 10.6828 22.299 10.7127C22.299 10.7127 22.299 10.7738 22.299 10.8043C22.2816 10.813 22.2667 10.826 22.2559 10.8421C22.245 10.8581 22.2386 10.8767 22.2371 10.8959V10.9568C22.2371 11.0178 22.2371 11.0994 22.2371 11.1808L22.3197 11.2722C22.4022 11.3332 22.4331 11.3842 22.3197 11.4351C22.2063 11.4859 22.2372 11.5876 22.3197 11.6792C22.3637 11.7155 22.4121 11.7461 22.4639 11.7705C22.5361 11.7705 22.5979 11.8317 22.4639 11.8622H22.3711C22.2474 11.913 22.1444 11.9333 22.2887 11.9943C22.433 12.0553 22.3815 12.0554 22.3815 12.0859C22.3815 12.1164 22.3815 12.1368 22.3815 12.1572C22.4258 12.1921 22.4796 12.2131 22.5361 12.218C22.5727 12.2048 22.6129 12.2048 22.6495 12.218H22.7113C22.7113 12.218 22.7114 12.2181 22.6495 12.3198C22.5566 12.4418 22.4412 12.5454 22.3094 12.625C22.2269 12.625 22.196 12.6961 22.3094 12.7469H22.3918C22.5155 12.8181 22.5774 12.8488 22.5568 12.8997V13.1336C22.5568 13.4286 22.5568 13.9066 22.4331 13.8964C22.3094 13.8863 22.3711 13.8964 22.3505 13.8964C22.3299 13.8964 22.3505 13.8963 22.3505 13.998C22.3561 14.1885 22.3908 14.3772 22.4536 14.5575C22.5078 14.739 22.5322 14.9279 22.5258 15.117C22.5258 15.117 22.5258 15.117 22.4331 15.178C22.3403 15.2391 22.2371 15.2593 22.3505 15.3407L22.5258 15.4323C22.6083 15.4323 22.6495 15.4322 22.5979 15.5644C22.5819 15.5868 22.5734 15.6134 22.5734 15.6407C22.5734 15.668 22.5819 15.6948 22.5979 15.7172C22.6133 15.7471 22.6213 15.7802 22.6213 15.8138C22.6213 15.8473 22.6133 15.8804 22.5979 15.9104V15.9816C22.5979 16.0732 22.5361 16.1037 22.5979 16.2664C22.6598 16.4292 22.5979 16.3986 22.5979 16.4495C22.574 16.4741 22.5607 16.5067 22.5607 16.5408C22.5607 16.575 22.574 16.6079 22.5979 16.6325L22.6598 16.7241C23.134 17.532 23.7401 18.257 24.4536 18.8701C22.0928 18.7176 21.6186 17.1614 21.6186 16.4291V16.48ZM34.3918 15.9816H33.4639V10.8959C33.4639 10.3263 33.464 9.81768 32.7011 9.77699C32.7549 9.74355 32.8143 9.7194 32.8764 9.70572L33.1135 9.60416C33.33 9.51262 33.4433 9.60403 33.6083 9.72609C33.6952 9.8132 33.7963 9.88535 33.9073 9.93964C34.1238 10.0312 34.1134 10.0517 34.1031 10.1127C34.0895 10.145 34.0825 10.1794 34.0825 10.2143C34.0825 10.2492 34.0895 10.2839 34.1031 10.3161C34.1959 10.489 34.1856 10.5399 34.165 10.6111V10.7738V11.0586V11.1197C34.1464 11.1467 34.1365 11.1784 34.1365 11.2111C34.1365 11.2437 34.1464 11.2757 34.165 11.3027L34.2268 11.4045C34.2268 11.5164 34.2268 11.5163 34.2268 11.5672L34.165 11.6282L34.1031 11.74V11.8418C34.1031 11.9028 34.1031 11.9131 34.1031 11.9334C34.1313 11.9368 34.1582 11.9468 34.1815 11.9627C34.2049 11.9787 34.224 12 34.2371 12.0248C34.2692 12.131 34.2692 12.2442 34.2371 12.3504V12.5639C34.2655 12.7337 34.2288 12.9077 34.1341 13.0521L34.0722 13.1234C34.0103 13.1844 34 13.2047 34.0722 13.2555C34.1443 13.3064 34.1649 13.337 34.0722 13.3981C34.059 13.4515 34.059 13.5072 34.0722 13.5607V14.0082C34.0963 14.1727 34.0557 14.3403 33.9588 14.4763C33.8557 14.6695 33.9588 14.8626 34.0722 15.0559C34.1856 15.2491 34.0722 15.3813 33.9588 15.5237C33.8454 15.6661 33.9587 15.646 34.0515 15.7273C34.121 15.7803 34.1834 15.8418 34.2371 15.9104C34.2896 15.9012 34.3436 15.9083 34.3918 15.9307V15.9816ZM27.299 21.1689H28.5052C28.524 21.1022 28.5281 21.0324 28.5175 20.964C28.5068 20.8956 28.4815 20.8303 28.4433 20.7723C28.3712 20.6706 28.4433 20.6603 28.4433 20.6196C28.4575 20.5766 28.4575 20.5304 28.4433 20.4875C28.4542 20.4337 28.4542 20.3785 28.4433 20.3248C28.4411 20.1639 28.4839 20.0053 28.567 19.8669C28.6033 19.7833 28.622 19.6934 28.622 19.6024C28.622 19.5115 28.6033 19.4215 28.567 19.338C28.5413 19.2761 28.5413 19.2067 28.567 19.1448C28.567 19.0532 28.567 19.0432 28.567 19.0025C28.5378 18.965 28.5136 18.9239 28.4949 18.8803C28.4949 18.7888 28.4949 18.7685 28.4949 18.7278C28.5475 18.6582 28.5925 18.5832 28.629 18.5041C28.6683 18.4568 28.6897 18.3974 28.6897 18.3362C28.6897 18.275 28.6683 18.2157 28.629 18.1684C28.5902 18.1187 28.5685 18.0582 28.567 17.9955C28.5779 17.9521 28.5779 17.9066 28.567 17.8632C28.567 17.8632 28.567 17.8633 28.567 17.7718C28.6539 17.6612 28.7011 17.5251 28.7011 17.3852C28.6942 17.3157 28.6694 17.2492 28.629 17.192C28.5925 17.1569 28.5704 17.1097 28.567 17.0596C28.5812 16.9952 28.6055 16.9335 28.6391 16.8766C28.701 16.7545 28.7732 16.6121 28.7011 16.5816C28.6289 16.5511 28.5464 16.6428 28.4433 16.7547C28.3309 16.8989 28.176 17.0053 28 17.0596C27.8144 17.0596 27.4536 17.609 27.2268 17.9854V21.1994L27.299 21.1689Z" fill="#C1E1D2"/>
<path d="M23.0412 9.40067C24.3451 9.40067 25.4021 8.35783 25.4021 7.07143C25.4021 5.78502 24.3451 4.74219 23.0412 4.74219C21.7374 4.74219 20.6804 5.78502 20.6804 7.07143C20.6804 8.35783 21.7374 9.40067 23.0412 9.40067Z" fill="#010101"/>
<path d="M25.3195 7.64085C25.2437 7.93844 25.1091 8.21845 24.9234 8.46454C24.7376 8.71063 24.5044 8.91802 24.2371 9.07492C23.9699 9.23182 23.6737 9.3352 23.3659 9.37887C23.0581 9.42254 22.7446 9.4057 22.4433 9.32945C21.8375 9.17378 21.3187 8.78807 21 8.25644C20.6813 7.72481 20.5887 7.09037 20.7423 6.4916C20.8433 6.09128 21.0517 5.72525 21.3456 5.43175C21.6394 5.13825 22.0079 4.92821 22.4124 4.82361C22.5046 4.92553 22.6217 5.00251 22.7525 5.04735C22.8039 5.05315 22.8558 5.05315 22.9072 5.04735C22.9897 5.04735 23.0309 5.04718 22.9896 5.12855C22.963 5.18835 22.9321 5.24632 22.8969 5.30163C22.8324 5.3985 22.7967 5.51107 22.7938 5.62694C22.8061 5.75287 22.8373 5.87639 22.8866 5.99322V6.07467C22.8866 6.07467 22.8866 6.07449 22.8866 6.14569C22.8866 6.21689 22.7938 6.20685 22.8866 6.28822L22.969 6.34931C22.969 6.34931 22.969 6.3492 22.969 6.4916C22.969 6.634 22.9691 6.58325 23.0928 6.6036C23.2165 6.62394 23.2165 6.60349 23.2062 6.74589C23.2154 6.79292 23.2154 6.84114 23.2062 6.88818C23.2062 6.93903 23.2062 6.94935 23.2062 7.0409C23.2274 7.0835 23.2595 7.11994 23.2992 7.14668C23.339 7.17342 23.385 7.18944 23.433 7.19337C23.453 7.20607 23.4762 7.21298 23.4999 7.21298C23.5237 7.21298 23.547 7.20607 23.567 7.19337C23.567 7.19337 23.6288 7.19337 23.6598 7.19337C23.6907 7.19337 23.7422 7.28485 23.6598 7.38656C23.5773 7.48828 23.6597 7.61044 23.7835 7.49856L23.8865 7.41711C23.8865 7.41711 23.8866 7.41719 23.9794 7.49856L24.0515 7.56983C24.0515 7.56983 24.0515 7.56964 24.1649 7.63067C24.1868 7.64316 24.2118 7.64979 24.2371 7.64979C24.2625 7.64979 24.2873 7.64316 24.3092 7.63067C24.3092 7.63067 24.3711 7.63067 24.402 7.63067C24.4098 7.67099 24.4098 7.71252 24.402 7.75284C24.402 7.81387 24.4021 7.84438 24.5052 7.75284C24.6698 7.76723 24.8354 7.76723 25 7.75284C25.0968 7.69267 25.2059 7.65435 25.3195 7.64085Z" fill="#69A897"/>
<path d="M22.2061 4.88452C22.0824 5.02692 21.9794 5.19998 22.0103 5.29152L22.0721 5.38291C22.0721 5.48462 22.1444 5.50493 22.0103 5.60665L21.9484 5.66774C21.8144 5.76945 21.7216 5.84069 21.701 5.96275C21.6535 6.21145 21.6535 6.46671 21.701 6.71542C21.7191 6.73538 21.7414 6.75131 21.7663 6.76185C21.7913 6.7724 21.8182 6.77736 21.8453 6.7765H21.9484C22.0103 6.83753 21.9484 6.86801 21.9484 6.99006V7.05115C21.8969 7.17321 21.8247 7.31566 21.9484 7.35634C22.0028 7.36759 22.059 7.36759 22.1134 7.35634C22.1856 7.35634 22.2061 7.35618 22.1958 7.44772C22.1855 7.53927 22.1959 7.58011 22.3093 7.61063C22.3815 7.61063 22.3815 7.61046 22.3918 7.69183V7.7631C22.3918 7.81395 22.3918 7.81401 22.3918 7.82418C22.3918 7.83436 22.3918 7.82402 22.5052 7.90539C22.5445 7.95078 22.5665 8.00856 22.5671 8.06829C22.5671 8.13949 22.567 8.21059 22.7319 8.22076C22.8152 8.25026 22.9064 8.25026 22.9897 8.22076C23.0059 8.20839 23.0259 8.20164 23.0464 8.20164C23.0669 8.20164 23.0868 8.20839 23.1031 8.22076H23.165C23.165 8.22076 23.165 8.22082 23.2887 8.28185C23.4124 8.34287 23.4124 8.34287 23.4743 8.28185C23.515 8.27269 23.5573 8.27269 23.598 8.28185H23.7011C23.7011 8.28185 23.7732 8.28193 23.8145 8.3633C23.8557 8.44467 23.8969 8.51577 24 8.51577C24 8.51577 24 8.59723 24.134 8.6074C24.2841 8.63303 24.4376 8.63303 24.5877 8.6074H24.6804C24.4694 8.83211 24.2156 9.01352 23.9334 9.1413C23.6512 9.26907 23.3462 9.34054 23.036 9.35188C22.7257 9.36321 22.4162 9.31418 22.1252 9.20735C21.8342 9.10052 21.5675 8.93802 21.3402 8.72933C21.1041 8.51172 20.9155 8.24889 20.7861 7.95679C20.6567 7.66469 20.5892 7.34957 20.5876 7.03079C20.6012 6.55233 20.7639 6.08949 21.0535 5.70548C21.3431 5.32147 21.7455 5.03483 22.2061 4.88452Z" fill="#C1E4DA"/>
<path d="M25.0618 8.28185C24.6172 8.71973 24.0147 8.96573 23.3865 8.96573C22.7584 8.96573 22.1558 8.71973 21.7113 8.28185C21.4909 8.0642 21.3164 7.80555 21.1978 7.52098C21.0793 7.23642 21.0191 6.93145 21.0206 6.62378C21.0221 6.19754 21.1396 5.77958 21.3608 5.41345C21.1401 5.62908 20.9649 5.88578 20.8453 6.16861C20.7258 6.45143 20.6642 6.7549 20.6642 7.06133C20.6642 7.36777 20.7258 7.67098 20.8453 7.95381C20.9649 8.23663 21.1401 8.49333 21.3608 8.70896C21.5779 8.92888 21.8376 9.10343 22.1246 9.22225C22.4115 9.34107 22.7197 9.40192 23.0309 9.40079C23.4379 9.40022 23.8381 9.29711 24.1935 9.10132C24.5489 8.90553 24.8477 8.62344 25.0618 8.28185Z" fill="#F9F7F5"/>
<path d="M35.3299 21.5249C36.6337 21.5249 37.6907 20.4821 37.6907 19.1957C37.6907 17.9093 36.6337 16.8665 35.3299 16.8665C34.026 16.8665 32.9691 17.9093 32.9691 19.1957C32.9691 20.4821 34.026 21.5249 35.3299 21.5249Z" fill="#010101"/>
<path d="M37.6083 19.7754C37.4528 20.3723 37.0638 20.884 36.5267 21.1986C35.9895 21.5131 35.3479 21.6049 34.7423 21.4536C34.4407 21.3788 34.157 21.246 33.9076 21.0627C33.6581 20.8795 33.4479 20.6493 33.2889 20.3856C33.1299 20.1219 33.0252 19.8298 32.981 19.5261C32.9367 19.2224 32.9536 18.913 33.0309 18.6157C33.1359 18.2173 33.3456 17.8533 33.6389 17.5604C33.9321 17.2675 34.2985 17.0562 34.701 16.9478C34.7933 17.0497 34.9105 17.1267 35.0413 17.1715C35.0958 17.1812 35.1517 17.1812 35.2063 17.1715C35.2785 17.1715 35.3299 17.1207 35.2784 17.2529C35.2517 17.316 35.2207 17.377 35.1856 17.436C35.1229 17.5293 35.0904 17.6394 35.0928 17.7513C35.1037 17.8798 35.1315 18.0061 35.1753 18.1275V18.1988C35.1753 18.1988 35.1753 18.2497 35.1753 18.2701C35.1753 18.2904 35.0825 18.3412 35.1753 18.4124L35.2578 18.4735C35.2578 18.4735 35.2578 18.4733 35.2578 18.6157C35.2578 18.7581 35.2578 18.7074 35.3815 18.7277C35.5052 18.7481 35.5052 18.7276 35.4949 18.87C35.5046 18.9204 35.5046 18.9723 35.4949 19.0228C35.4949 19.0228 35.4949 19.0226 35.4949 19.165C35.5168 19.207 35.5491 19.2429 35.5887 19.2696C35.6283 19.2962 35.6741 19.3129 35.7218 19.3178C35.7402 19.3296 35.7616 19.3356 35.7835 19.3356C35.8055 19.3356 35.8271 19.3296 35.8455 19.3178C35.879 19.3076 35.9149 19.3076 35.9485 19.3178C36.0001 19.3178 36.0207 19.4194 35.9485 19.511C35.8764 19.6025 35.9485 19.7346 36.0722 19.6227L36.1753 19.5415C36.1753 19.5415 36.1753 19.5413 36.268 19.6227L36.3506 19.694C36.3506 19.694 36.3506 19.694 36.464 19.7652C36.4865 19.776 36.5111 19.7816 36.5361 19.7816C36.5611 19.7816 36.5858 19.776 36.6083 19.7652C36.6083 19.7652 36.6083 19.7652 36.7011 19.7652C36.7104 19.8054 36.7104 19.847 36.7011 19.8872C36.7011 19.8872 36.7011 19.9685 36.8041 19.8872C36.9656 19.8953 37.1272 19.8953 37.2887 19.8872C37.4948 19.7753 37.5774 19.7551 37.6083 19.7754Z" fill="#69A897"/>
<path d="M34.4948 17.0089C34.3711 17.1513 34.2681 17.3241 34.299 17.4258L34.3608 17.5175C34.3608 17.609 34.433 17.6395 34.299 17.7412H34.2371C34.1031 17.8429 34.0103 17.9142 33.9897 18.0464C33.9435 18.2918 33.9435 18.5435 33.9897 18.7889C34.0279 18.8286 34.0789 18.8536 34.134 18.8599C34.1502 18.8526 34.1677 18.849 34.1855 18.849C34.2033 18.849 34.2209 18.8526 34.2371 18.8599C34.2989 18.9209 34.2989 18.9514 34.2371 19.0735V19.1346C34.2371 19.2566 34.1134 19.3991 34.2371 19.4499C34.2952 19.4583 34.3543 19.4583 34.4124 19.4499C34.4742 19.4499 34.5051 19.45 34.4845 19.5518C34.4639 19.6535 34.4845 19.6737 34.5979 19.7042C34.6597 19.7042 34.6598 19.7043 34.6701 19.7857V19.8567C34.6701 19.9076 34.6701 19.9076 34.6701 19.9178C34.6701 19.928 34.6701 19.9179 34.7835 20.0094C34.7981 20.0592 34.7981 20.112 34.7835 20.1619C34.7835 20.2331 34.7834 20.3044 34.9587 20.3146C34.9977 20.3314 35.0398 20.3399 35.0824 20.3399C35.125 20.3399 35.1672 20.3314 35.2062 20.3146C35.2225 20.3022 35.2423 20.2955 35.2629 20.2955C35.2834 20.2955 35.3034 20.3022 35.3196 20.3146H35.3814C35.3814 20.3146 35.3814 20.3144 35.5051 20.3754C35.6288 20.4365 35.6392 20.4365 35.6907 20.3754C35.7423 20.3144 35.7629 20.3754 35.8144 20.3754H35.9175C35.9794 20.3754 35.9896 20.3755 36.0309 20.4569C36.0721 20.5383 36.1134 20.6094 36.2165 20.6094C36.2165 20.6094 36.2165 20.6908 36.3505 20.701C36.501 20.7216 36.6536 20.7216 36.8041 20.701H36.8968C36.6851 20.925 36.4307 21.1055 36.1482 21.2324C35.8656 21.3593 35.5605 21.4301 35.2503 21.4405C34.94 21.4509 34.6308 21.4007 34.3401 21.293C34.0495 21.1853 33.7832 21.0223 33.5566 20.813C33.3205 20.5954 33.132 20.3323 33.0025 20.0402C32.8731 19.7481 32.8056 19.433 32.8041 19.1142C32.8311 18.634 33.0081 18.1738 33.3109 17.7968C33.6136 17.4199 34.0272 17.1447 34.4948 17.0089Z" fill="#C1E4DA"/>
<path d="M37.3505 20.406C37.132 20.6237 36.8718 20.7966 36.5851 20.9146C36.2985 21.0325 35.991 21.0933 35.6804 21.0933C35.3698 21.0933 35.0622 21.0325 34.7756 20.9146C34.4889 20.7966 34.2289 20.6237 34.0103 20.406C33.7874 20.1918 33.6105 19.9357 33.4901 19.6526C33.3696 19.3695 33.3081 19.0654 33.3092 18.7584C33.3109 18.3289 33.4284 17.9077 33.6495 17.5378C33.2057 17.9765 32.9564 18.5709 32.9564 19.1907C32.9564 19.8105 33.2057 20.4049 33.6495 20.8435C33.8701 21.061 34.1322 21.2331 34.4206 21.3501C34.709 21.4671 35.0181 21.5265 35.3299 21.5249C35.7354 21.5236 36.1339 21.42 36.4875 21.2242C36.8411 21.0284 37.1381 20.7468 37.3505 20.406Z" fill="#F9F7F5"/>
<path fill-rule="evenodd" clip-rule="evenodd" d="M41.4743 24.7899H16.8867V28.0549H41.4743V24.7899ZM17.835 25.2578V27.1192H18.3093V25.2985L17.835 25.2578ZM18.6289 25.2578V27.1192H19.0103V25.9089L19.6701 27.1192H20.1443V25.2985H19.7217V26.4073L19.1237 25.2985L18.6289 25.2578ZM20.3093 25.6546V25.2985H21.6083V25.6951H21.1752V27.1599H20.6701V25.6951L20.3093 25.6546ZM21.866 25.2578V27.1192H22.8969V26.7733H22.2371V26.3156H22.8042V26.0002H22.2371V25.6648H22.8969V25.2985L21.866 25.2578ZM24.7938 25.2578V27.1192H25.2165V26.4477H25.4846C25.6386 26.4424 25.7843 26.3778 25.8904 26.2674C25.9965 26.1571 26.0544 26.01 26.0516 25.858C26.0545 25.7049 25.9968 25.5567 25.891 25.4447C25.7852 25.3328 25.6395 25.2657 25.4846 25.2578H24.7938ZM25.2062 26.0919H25.3609C25.4292 26.0919 25.4947 26.0651 25.5431 26.0174C25.5914 25.9697 25.6186 25.905 25.6186 25.8376C25.6214 25.802 25.6168 25.7663 25.6052 25.7326C25.5937 25.6988 25.5753 25.6675 25.5513 25.6409C25.5272 25.6143 25.4979 25.5928 25.4652 25.5776C25.4325 25.5625 25.397 25.554 25.3609 25.5528H25.2062V26.1021V26.0919ZM30.1237 27.109V25.2985H30.8042C30.9591 25.3064 31.1049 25.3735 31.2107 25.4855C31.3165 25.5975 31.374 25.7456 31.3711 25.8987C31.3739 26.0507 31.3161 26.1978 31.21 26.3082C31.104 26.4185 30.9582 26.4831 30.8042 26.4885H30.5361V27.1599L30.1237 27.109ZM30.5361 25.5426H30.6805C30.7166 25.5439 30.7521 25.5523 30.7848 25.5674C30.8175 25.5826 30.8468 25.6041 30.8709 25.6307C30.895 25.6573 30.9133 25.6886 30.9249 25.7224C30.9364 25.7562 30.941 25.7919 30.9382 25.8274C30.9383 25.8958 30.9114 25.9616 30.8633 26.0109C30.8153 26.0602 30.7498 26.0892 30.6805 26.0919H30.5361V25.5426ZM39.2887 25.2476V27.109H39.7011V26.4378H39.9691C40.045 26.4352 40.1195 26.4177 40.1885 26.3866C40.2575 26.3556 40.3196 26.3113 40.3714 26.2565C40.4231 26.2017 40.4634 26.1374 40.4899 26.0673C40.5164 25.9971 40.5285 25.9226 40.5258 25.8478C40.5285 25.7716 40.516 25.6957 40.489 25.6243C40.462 25.5529 40.421 25.4876 40.3683 25.4318C40.3157 25.3761 40.2525 25.3311 40.1822 25.2995C40.1119 25.2679 40.036 25.2502 39.9588 25.2476H39.2887ZM39.8556 25.5426H39.6908V26.0919H39.8454C39.8807 26.0906 39.9152 26.0823 39.9473 26.0678C39.9793 26.0533 40.008 26.0327 40.0319 26.0072C40.0559 25.9817 40.0745 25.9519 40.0867 25.9193C40.0989 25.8867 40.1046 25.852 40.1032 25.8172C40.1046 25.7825 40.0989 25.7478 40.0867 25.7152C40.0745 25.6826 40.0559 25.6528 40.0319 25.6273C40.008 25.6018 39.9793 25.5812 39.9473 25.5667C39.9152 25.5522 39.8807 25.5439 39.8454 25.5426H39.8556ZM23.2371 25.2476V27.109H23.6598V26.4378H23.8351C23.9693 26.6463 24.0734 26.8721 24.1443 27.109H24.5773C24.4977 26.8398 24.387 26.5804 24.2475 26.336C24.3207 26.2766 24.3798 26.2021 24.4208 26.1177C24.4617 26.0334 24.4836 25.9413 24.4846 25.8478C24.4873 25.7716 24.4749 25.6957 24.4478 25.6243C24.4208 25.5529 24.3798 25.4876 24.3272 25.4318C24.2745 25.3761 24.2112 25.3311 24.1409 25.2995C24.0706 25.2679 23.9947 25.2502 23.9175 25.2476H23.2371ZM23.6495 25.5426V26.0919H23.8041C23.8734 26.0867 23.9379 26.0552 23.9841 26.004C24.0303 25.9527 24.0544 25.8857 24.0516 25.8172C24.0544 25.7487 24.0303 25.6817 23.9841 25.6305C23.9379 25.5793 23.8734 25.5478 23.8041 25.5426H23.6495ZM34.1753 27.109V25.2985H34.8557C35.0106 25.3064 35.1565 25.3735 35.2623 25.4855C35.3681 25.5975 35.4256 25.7456 35.4227 25.8987C35.4244 25.9937 35.4028 26.0876 35.3597 26.1726C35.3166 26.2576 35.2534 26.3312 35.1753 26.3869C35.3191 26.6292 35.43 26.8891 35.5052 27.1599H35.0722C35.008 26.9206 34.9034 26.6935 34.7629 26.4885H34.5876V27.1599L34.1753 27.109ZM34.7423 26.0919H34.5773V25.5528H34.732C34.804 25.558 34.8711 25.5905 34.9192 25.6437C34.9673 25.6968 34.9926 25.7664 34.9897 25.8376C34.9897 25.906 34.963 25.9718 34.9149 26.0211C34.8669 26.0704 34.8012 26.0994 34.732 26.1021L34.7423 26.0919ZM26.3608 26.4174V25.2578H26.835V26.3971C26.835 26.5598 26.897 26.6921 27.0516 26.6921C27.0887 26.6909 27.1251 26.682 27.1586 26.6663C27.192 26.6505 27.2218 26.6279 27.246 26.6002C27.2703 26.5725 27.2884 26.5401 27.2993 26.5051C27.3101 26.4701 27.3136 26.4334 27.3093 26.3971V25.2985H27.7629V26.4276C27.7656 26.5211 27.7497 26.6141 27.7159 26.7015C27.6822 26.7889 27.6313 26.8689 27.5662 26.9369C27.5011 27.0049 27.423 27.0596 27.3365 27.0978C27.25 27.1361 27.1567 27.1573 27.0619 27.1599C26.9662 27.1573 26.872 27.136 26.7848 27.0971C26.6976 27.0582 26.619 27.0026 26.5537 26.9335C26.4885 26.8644 26.4379 26.7832 26.4047 26.6946C26.3716 26.606 26.3567 26.5118 26.3608 26.4174ZM37.5155 25.2578V26.4276C37.5461 26.6176 37.6502 26.7884 37.806 26.9041C37.9618 27.0199 38.157 27.0714 38.3505 27.0479C38.5161 27.0252 38.6688 26.9472 38.7832 26.8269C38.8976 26.7066 38.9668 26.5514 38.9794 26.3869V25.2985H38.5361V26.4174C38.5375 26.457 38.5308 26.4964 38.5164 26.5334C38.502 26.5704 38.4801 26.604 38.4522 26.6325C38.4243 26.661 38.3909 26.6836 38.3539 26.699C38.317 26.7145 38.2773 26.7224 38.2371 26.7224C38.1975 26.7252 38.1578 26.72 38.1203 26.707C38.0829 26.6939 38.0486 26.6734 38.0195 26.6466C37.9905 26.6199 37.9674 26.5875 37.9516 26.5515C37.9358 26.5156 37.9277 26.477 37.9278 26.4378V25.2985L37.5155 25.2578ZM33.9073 26.0919H33.2783V26.4276H33.5567V26.702C33.1546 26.8851 32.8454 26.702 32.8454 26.2036C32.8397 26.1295 32.8496 26.055 32.8745 25.9849C32.8994 25.9147 32.9388 25.8503 32.9901 25.7959C33.0414 25.7414 33.1036 25.6981 33.1727 25.6685C33.2419 25.6389 33.3165 25.6238 33.3918 25.624C33.4619 25.624 33.5303 25.6451 33.5876 25.6849H33.8351V25.3799C33.7241 25.3006 33.5906 25.2577 33.4536 25.2578C33.327 25.2536 33.2009 25.2748 33.0827 25.3201C32.9646 25.3654 32.8571 25.434 32.7665 25.5215C32.6759 25.6089 32.6042 25.7134 32.5557 25.8289C32.5073 25.9444 32.4831 26.0684 32.4846 26.1934C32.4717 26.3079 32.483 26.4237 32.5177 26.5337C32.5524 26.6436 32.61 26.7454 32.6865 26.8324C32.763 26.9193 32.8569 26.9896 32.9623 27.039C33.0677 27.0884 33.1823 27.1157 33.2989 27.1192C33.5054 27.1054 33.7096 27.0677 33.9073 27.0072V26.0919ZM37.2475 26.1934C37.2616 26.4239 37.1829 26.6506 37.0284 26.8239C36.8739 26.9973 36.6561 27.1035 36.4227 27.1192C36.3062 27.1127 36.1921 27.0836 36.0871 27.0335C35.982 26.9835 35.888 26.9134 35.8105 26.8274C35.7329 26.7414 35.6732 26.6412 35.635 26.5324C35.5968 26.4236 35.5807 26.3084 35.5877 26.1934C35.5736 25.9603 35.6534 25.7313 35.8098 25.556C35.9662 25.3807 36.1865 25.2734 36.4227 25.2578C36.657 25.276 36.8748 25.3842 37.029 25.5592C37.1833 25.7342 37.2617 25.962 37.2475 26.1934ZM36.8454 26.1934C36.8454 26.5189 36.6598 26.7733 36.4227 26.7733C36.1856 26.7733 36 26.5189 36 26.1934C36 25.868 36.1856 25.6037 36.4227 25.6037C36.6598 25.6037 36.8454 25.868 36.8454 26.1934ZM28.1856 25.2578L28.0309 27.1192H28.3814L28.4846 26.0308L28.763 27.1192H29.1341L29.4742 26.0308L29.567 27.1192H30.0103L29.8041 25.2578H29.3712L28.9897 26.4579L28.6907 25.2578H28.1856Z" fill="#010101"/>
<path fill-rule="evenodd" clip-rule="evenodd" d="M43.3608 0.0734863H14.9999V29.9164H43.3608V0.0734863ZM42.4124 0.999239H15.9381V28.9906H42.4124V0.999239Z" fill="#010101"/>
</g>
<defs>
<clipPath id="clip0_150_19">
<rect width="69" height="30" fill="white" transform="translate(15)"/>
</clipPath>
</defs>
</svg>
