<svg width="100" height="30" viewBox="0 0 100 30" fill="none" xmlns="http://www.w3.org/2000/svg">
<g clip-path="url(#clip0_150_21)">
<path d="M49.5 21.9375L49.0866 21.8026C48.1252 21.3879 47.0581 20.9828 46.0486 20.5585L44.0682 19.7C43.5106 19.4589 42.9433 19.2178 42.3761 18.996C42.268 18.9565 42.1697 18.8938 42.0883 18.8121C42.007 18.7305 41.9444 18.6319 41.905 18.5234C41.4532 17.4144 40.9917 16.2957 40.5302 15.1866C40.0687 14.0775 39.5688 12.9588 39.1458 11.8498C39.0901 11.7254 39.0613 11.5908 39.0613 11.4544C39.0613 11.3181 39.0901 11.1832 39.1458 11.0589C39.4919 10.2873 39.8092 9.50624 40.1072 8.72506C40.2995 8.26214 40.4725 7.7607 40.6648 7.33636C40.9436 6.66127 41.232 5.99574 41.5204 5.32064C41.6647 4.9831 41.8089 4.6455 41.9435 4.29831C41.9737 4.20297 42.0235 4.11525 42.0897 4.04049C42.156 3.96572 42.2372 3.90563 42.328 3.86437C42.8953 3.64255 43.4528 3.39182 44.02 3.16036L45.8948 2.39843L48.1252 1.49194C48.4425 1.35692 48.7693 1.23162 49.0866 1.08696C49.2105 1.03107 49.3449 1.0022 49.4808 1.0022C49.6167 1.0022 49.751 1.03107 49.875 1.08696C50.8363 1.50166 51.7978 1.88743 52.8361 2.29248L55.9413 3.56534L56.6047 3.85471C56.8013 3.94 56.9567 4.09927 57.0373 4.29831C57.22 4.75158 57.4122 5.19536 57.5949 5.64863C58.0083 6.61305 58.4121 7.57746 58.8159 8.54188C59.2197 9.5063 59.4985 10.2005 59.8638 11.0203C59.9245 11.1764 59.949 11.3444 59.9357 11.5114C59.9224 11.6785 59.8715 11.8402 59.7869 11.9847C59.3254 13.113 58.8256 14.2318 58.3737 15.3505L57.0181 18.6296C56.973 18.7253 56.9087 18.8105 56.8293 18.8802C56.7499 18.9498 56.6571 19.0025 56.5567 19.0346C56.2778 19.1503 55.9894 19.2469 55.701 19.3723L53.6628 20.2305C53.0668 20.4812 52.4707 20.7127 51.8747 20.9538L49.9519 21.7736C49.8043 21.8365 49.6535 21.8911 49.5 21.9375ZM58.1525 11.4351C58.0244 11.1265 57.8994 10.805 57.7776 10.4707L56.499 7.36532L55.6914 5.43649C55.6536 5.35412 55.599 5.28063 55.5311 5.22081C55.4632 5.161 55.3835 5.11609 55.2972 5.08919L52.6342 3.99952L49.9326 2.91926C49.7958 2.85475 49.6464 2.82131 49.4952 2.82131C49.344 2.82131 49.1947 2.85475 49.0578 2.91926C48.3271 3.24716 47.5773 3.54613 46.837 3.88367L45.2507 4.5201C44.7507 4.73228 44.2893 4.97354 43.7413 5.16642C43.6066 5.21075 43.4843 5.28605 43.3841 5.38657C43.2839 5.48709 43.2086 5.60987 43.1645 5.74493C43.0587 6.02461 42.9529 6.3044 42.8376 6.57443C42.5587 7.25917 42.2607 7.93414 41.9819 8.61887L41.2417 10.4707L40.9244 11.2326C40.8815 11.3247 40.8592 11.4251 40.8592 11.5267C40.8592 11.6284 40.8815 11.7287 40.9244 11.8208C41.0205 12.0233 41.0974 12.226 41.1744 12.4285C41.3859 12.9493 41.5782 13.4796 41.7897 14.0004C42.2607 15.1384 42.751 16.2765 43.2125 17.4241C43.2416 17.4973 43.2857 17.5633 43.3421 17.6181C43.3984 17.673 43.4656 17.7155 43.5394 17.7424C43.9527 17.8968 44.3566 18.0701 44.77 18.2534C45.4237 18.5331 46.0774 18.8322 46.7408 19.1022L49.1443 20.0666C49.2495 20.1164 49.3645 20.1422 49.4808 20.1422C49.5972 20.1422 49.7121 20.1164 49.8173 20.0666L50.4037 19.8255C50.9325 19.6133 51.4613 19.4203 51.99 19.1985C53.0668 18.7452 54.1435 18.2342 55.2203 17.8387C55.3492 17.7915 55.4664 17.7172 55.5643 17.6207C55.6621 17.5242 55.7383 17.4077 55.7875 17.2793C56.1529 16.3824 56.5374 15.4857 56.9027 14.5888C57.2681 13.6919 57.7584 12.4767 58.191 11.4351H58.1525Z" fill="#333A42"/>
<path d="M45.3083 24.3485H45.616H48.8078C49.1955 24.3554 49.5683 24.4995 49.8604 24.7554C50.1524 25.0113 50.3448 25.3624 50.4037 25.7469C50.4713 26.1102 50.4713 26.4831 50.4037 26.8464C50.3272 27.1517 50.1621 27.4273 49.9294 27.6385C49.6966 27.8497 49.4067 27.9868 49.0962 28.0326C48.8491 28.0797 48.5979 28.1024 48.3463 28.1002H46.9524H46.6447C46.7076 28.6675 46.7076 29.2398 46.6447 29.807C46.2183 29.8797 45.7828 29.8797 45.3564 29.807C45.3564 29.807 45.3564 29.7397 45.3564 29.7107V24.6958C45.3514 24.6316 45.3514 24.5669 45.3564 24.5027C45.3361 24.4527 45.32 24.4012 45.3083 24.3485ZM46.5966 26.7113H46.7408C47.3817 26.7113 48.0227 26.7113 48.6636 26.7113C48.7539 26.7166 48.8427 26.6865 48.9109 26.627C48.9792 26.5675 49.0216 26.4836 49.0289 26.3932C49.0387 26.3002 49.0387 26.2064 49.0289 26.1135C49.0289 25.7084 48.904 25.5733 48.5098 25.5733H46.837C46.7505 25.5733 46.6735 25.5733 46.5774 25.5733L46.5966 26.7113Z" fill="#333A42"/>
<path d="M55.4414 27.7818H56.7681C56.7721 27.8364 56.7721 27.8911 56.7681 27.9457C56.6607 28.3677 56.4491 28.7559 56.1528 29.0742C55.7078 29.5794 55.0906 29.8993 54.4223 29.9711C54.0135 30.0329 53.5959 30.0007 53.2012 29.8771C52.8065 29.7535 52.445 29.5417 52.1438 29.2574C51.7361 28.8861 51.4454 28.4035 51.3074 27.8687C51.1875 27.4503 51.1633 27.0099 51.2365 26.5808C51.3097 26.1516 51.4786 25.7447 51.7305 25.3901C51.9234 25.0924 52.1761 24.8382 52.4724 24.6439C52.7687 24.4497 53.1021 24.3194 53.4513 24.2616C54.0721 24.1231 54.721 24.1945 55.2972 24.4643C55.6592 24.6282 55.9794 24.8721 56.2342 25.1777C56.4889 25.4833 56.6714 25.8426 56.7681 26.229C56.7778 26.2604 56.7778 26.2941 56.7681 26.3255C56.7713 26.3479 56.7713 26.3707 56.7681 26.3931C56.7202 26.3975 56.6719 26.3975 56.624 26.3931H55.451C55.3934 26.287 55.3453 26.1905 55.2876 26.1037C55.1904 25.9302 55.0516 25.7837 54.8837 25.6776C54.7159 25.5715 54.5242 25.5091 54.3262 25.496C54.1916 25.496 54.0666 25.496 53.9416 25.496C53.752 25.4962 53.5653 25.5428 53.3977 25.6319C53.2301 25.721 53.0868 25.8499 52.9803 26.0072C52.811 26.2406 52.7007 26.5118 52.6588 26.7974C52.6169 27.0829 52.6448 27.3743 52.7399 27.6467C52.7907 27.8754 52.9025 28.0861 53.0634 28.256C53.2243 28.4259 53.4281 28.5485 53.6532 28.6111C53.9134 28.6884 54.189 28.6971 54.4534 28.6363C54.7178 28.5755 54.9621 28.4473 55.1626 28.264C55.2721 28.1135 55.3656 27.9519 55.4414 27.7818Z" fill="#333A42"/>
<path d="M43.5874 24.3775V29.8553C43.1548 29.8553 42.7414 29.8553 42.328 29.8553C42.2511 29.6045 42.2223 24.9561 42.328 24.3871C42.7436 24.3053 43.1707 24.3021 43.5874 24.3775Z" fill="#333A42"/>
<path d="M48.3944 12.5635C48.4161 12.691 48.4119 12.8216 48.3822 12.9475C48.3524 13.0734 48.2977 13.1922 48.2213 13.2964L46.3947 16.4791C46.2697 16.6912 46.164 16.9033 46.0294 17.1348L44.4046 16.7781C44.3491 16.7657 44.2985 16.7369 44.2591 16.6957C44.2198 16.6545 44.1935 16.6026 44.1835 16.5464C44.0681 16.016 43.9624 15.4953 43.847 14.9359C44.0585 14.8009 44.27 14.6659 44.4912 14.5406L46.4139 13.4026C46.837 13.1519 47.2696 12.9108 47.7118 12.6793C47.8105 12.6117 47.9226 12.5663 48.0405 12.5463C48.1583 12.5263 48.2791 12.5321 48.3944 12.5635Z" fill="#333A42"/>
<path d="M52.9706 17.0961C52.7783 16.7779 52.5861 16.4886 52.413 16.1897L51.5093 14.5502C51.2498 14.0969 50.9806 13.6531 50.7402 13.1999C50.6481 13.0222 50.5678 12.8387 50.4999 12.6503C50.519 12.6138 50.5452 12.5814 50.577 12.5552C50.6088 12.529 50.6455 12.5097 50.685 12.498C50.7244 12.4863 50.7658 12.4825 50.8067 12.4872C50.8475 12.4918 50.887 12.5046 50.9229 12.5248C51.1127 12.5837 51.2962 12.6612 51.4708 12.7563L53.0572 13.7207L54.8453 14.743C55.0665 14.8684 55.1145 14.9455 55.0761 15.177C54.9991 15.6013 54.903 16.0161 54.8357 16.4501C54.8265 16.5449 54.7836 16.6331 54.7147 16.6987C54.6458 16.7643 54.5557 16.8026 54.4608 16.8068L52.9706 17.0961Z" fill="#333A42"/>
<path d="M51.019 17.8579C50.5251 18.2407 50.001 18.5826 49.452 18.8803L47.9714 17.8676C48.106 17.3179 48.2406 16.8068 48.3752 16.2861L48.8559 14.4439C48.9328 14.1642 49.0001 13.875 49.0866 13.5856C49.1473 13.3369 49.2854 13.1138 49.4808 12.949C49.5787 13.0026 49.6638 13.0771 49.7302 13.167C49.7966 13.2569 49.8427 13.3602 49.8654 13.4698C50.2499 14.8875 50.6249 16.3053 51.0094 17.7134C51.019 17.7519 51.0094 17.7808 51.019 17.8579Z" fill="#333A42"/>
<path d="M43.0683 12.949L42.0588 11.464C42.3655 10.9108 42.7092 10.3791 43.0875 9.87256L43.799 10.0557L47.3273 11.0202C47.5778 11.0699 47.8046 11.2024 47.9714 11.3964C47.811 11.6224 47.57 11.7778 47.2984 11.8304L45.3757 12.3319L43.2798 12.901C43.2106 12.9221 43.1398 12.938 43.0683 12.949Z" fill="#333A42"/>
<path d="M48.2982 10.3935C48.0505 10.3502 47.8126 10.262 47.5964 10.133C46.9812 9.75692 46.337 9.4002 45.6737 9.04337L44.0105 8.07895C43.9435 8.03464 43.8793 7.98619 43.8182 7.93415C43.9239 7.41336 44.02 6.88305 44.145 6.36226C44.1624 6.31604 44.1894 6.27405 44.2242 6.23912C44.259 6.2042 44.3009 6.17718 44.3469 6.15977C44.8372 6.0344 45.3083 5.93787 45.8275 5.83179C46.0005 5.83179 46.0967 5.89927 46.1736 6.04393C46.3659 6.39112 46.5581 6.74804 46.76 7.09523L47.7214 8.78296L48.2213 9.69911C48.2724 9.8035 48.3112 9.91364 48.3367 10.0271C48.369 10.0846 48.3826 10.1507 48.3758 10.2164C48.3689 10.2821 48.3418 10.3439 48.2982 10.3935Z" fill="#333A42"/>
<path d="M51.019 11.3964C51.1911 11.2157 51.4114 11.0883 51.6535 11.0298L55.2107 10.0654L55.9221 9.89185L56.8835 11.4254C56.592 11.9573 56.271 12.4723 55.9221 12.9683L55.4703 12.872L52.913 12.1969L51.6055 11.8303C51.4831 11.8028 51.3677 11.7499 51.2667 11.6752C51.1658 11.6004 51.0814 11.5056 51.019 11.3964Z" fill="#333A42"/>
<path d="M50.5287 10.2776C50.5606 9.90911 50.6974 9.55779 50.9229 9.26514C51.3074 8.56111 51.7112 7.87623 52.115 7.18185C52.3746 6.72857 52.6437 6.29469 52.9129 5.84141C52.9896 5.83265 53.067 5.83265 53.1437 5.84141L54.5569 6.15009C54.6261 6.15654 54.691 6.18695 54.7401 6.23627C54.7893 6.28558 54.8197 6.35048 54.8261 6.41992C54.9031 6.86355 54.9991 7.3073 55.0761 7.75094C55.094 7.82516 55.0856 7.90336 55.0523 7.97203C55.0189 8.0407 54.9627 8.09542 54.8934 8.12696L52.9706 9.20721C52.5187 9.45796 52.0862 9.7377 51.6343 9.98845C51.3844 10.1627 51.1086 10.296 50.8171 10.3838C50.7639 10.394 50.7091 10.3895 50.6582 10.3708C50.6074 10.3521 50.5626 10.3199 50.5287 10.2776Z" fill="#333A42"/>
<path d="M48.0098 4.98296L48.4713 4.69382L49.2885 4.14404C49.3544 4.09242 49.4356 4.06445 49.5192 4.06445C49.6028 4.06445 49.684 4.09242 49.7499 4.14404L51.0574 5.01192C51.0675 5.09197 51.0675 5.17297 51.0574 5.25302C50.7113 6.47783 50.3748 7.69303 50.0287 8.9082C49.9518 9.16859 49.8653 9.42904 49.7596 9.68943C49.7009 9.78528 49.6298 9.87287 49.548 9.94984C49.3674 9.81788 49.2382 9.62686 49.1827 9.40971C48.9616 8.60925 48.7501 7.79914 48.5386 6.99867C48.4136 6.51646 48.279 6.03426 48.1541 5.5617C48.0579 5.34953 48.0098 5.17584 48.0098 4.98296Z" fill="#333A42"/>
</g>
<defs>
<clipPath id="clip0_150_21">
<rect width="21" height="29" fill="white" transform="translate(39 1)"/>
</clipPath>
</defs>
</svg>
