<svg width="100" height="30" viewBox="0 0 100 30" fill="none" xmlns="http://www.w3.org/2000/svg">
<g clip-path="url(#clip0_150_22)">
<path d="M86.2232 10.2959H83.0012C83.1379 10.0991 83.1867 9.88251 83.3332 9.70537C83.4399 9.55584 83.5284 9.39396 83.5968 9.22317C83.9288 8.57366 84.251 7.92416 84.5732 7.25497C84.724 7.00528 84.8577 6.74549 84.9735 6.47749C85.0315 6.34928 85.0615 6.2102 85.0615 6.06928C85.0615 5.92837 85.0315 5.78905 84.9735 5.66084C84.9635 5.60884 84.9635 5.55523 84.9735 5.50323L84.29 4.87351H24.0286C23.5492 4.90739 23.0797 5.02723 22.6422 5.22766C21.8405 5.55542 21.1397 6.09211 20.6114 6.78262C20.3127 7.21536 20.0638 7.68078 19.8693 8.17011L18.6391 10.6501C17.9556 12.0672 17.282 13.4843 16.5985 14.8916C16.1103 15.8757 15.6221 16.8598 15.1437 17.8439C14.9826 18.1252 14.8978 18.4442 14.8978 18.7689C14.8978 19.0937 14.9826 19.4129 15.1437 19.6942C15.2541 19.9152 15.4079 20.111 15.5959 20.2701C15.7839 20.4291 16.0022 20.5479 16.2373 20.6192C16.4478 20.691 16.6693 20.7242 16.8914 20.7174H67.5453L66.0027 23.6109H16.9207C16.5701 23.6128 16.2202 23.5797 15.876 23.5124C15.5611 23.4404 15.2538 23.3382 14.9582 23.2072C14.6469 23.075 14.352 22.9066 14.0795 22.7053C13.2472 22.1026 12.6279 21.2475 12.3122 20.2648C12.2807 20.1253 12.2579 19.984 12.2439 19.8417C12.0829 19.0959 12.0829 18.324 12.2439 17.5782C12.3082 17.2607 12.4132 16.9531 12.5563 16.663C12.9469 15.8462 13.4058 15.0491 13.767 14.2225C14.3626 12.8743 15.0949 11.585 15.7198 10.2368C16.3446 8.88861 17.1453 7.34363 17.8287 5.87732C17.9841 5.56782 18.1741 5.27713 18.395 5.01118C18.6553 4.66671 18.9357 4.33809 19.2346 4.02708C19.6775 3.59635 20.1769 3.22894 20.7187 2.93486C21.1997 2.63406 21.7232 2.40826 22.2712 2.2655C22.6715 2.15724 23.0816 2.06889 23.5014 1.99016C24.3125 1.90991 25.1279 1.88353 25.9423 1.91135C26.7625 1.91135 27.5924 1.91135 28.4223 1.91135H83.8702C84.7622 1.91881 85.6296 2.208 86.3502 2.73809C86.6527 2.98424 86.919 3.27239 87.141 3.59413C87.3973 3.92721 87.5924 4.30394 87.7171 4.70629C87.8185 4.9734 87.8715 5.25661 87.8733 5.54264C87.8587 5.79172 87.8587 6.04148 87.8733 6.29056C87.8739 7.04799 87.642 7.78719 87.2094 8.40653L86.8676 9.0658C86.6333 9.52833 86.4478 9.89245 86.2232 10.2959Z" fill="#B6ACA0"/>
<path d="M58.2405 14.3014H54.872V11.3491H61.1696C61.2976 12.0232 61.3435 12.7105 61.3063 13.3958C61.2866 14.1366 61.1311 14.8673 60.8474 15.551C60.5617 16.1964 60.194 16.8018 59.7538 17.352C59.3815 17.8084 58.9439 18.2063 58.4553 18.5328C57.9242 18.8744 57.3657 19.1708 56.7857 19.4187C56.3808 19.4621 55.9795 19.5344 55.5848 19.6351C55.2036 19.6927 54.818 19.7158 54.4327 19.7041C53.6245 19.66 52.8292 19.4803 52.0796 19.1726C51.0779 18.7362 50.1967 18.0607 49.5118 17.2044C48.9099 16.5086 48.4726 15.6843 48.2327 14.7934C48.0596 14.1224 47.984 13.4295 48.0082 12.7366C48.0249 11.5853 48.3414 10.4585 48.926 9.46928C49.1263 9.11292 49.3689 8.78246 49.6485 8.48518C50.169 7.93437 50.7562 7.4517 51.3961 7.04843C51.8038 6.80252 52.2444 6.61687 52.7045 6.49727C53.068 6.40202 53.4363 6.32648 53.8078 6.27095C54.1983 6.20206 54.5791 6.27111 54.9599 6.19238C55.2295 6.20355 55.4975 6.23966 55.7605 6.3005C56.0063 6.33168 56.2484 6.38765 56.483 6.46772C57.2747 6.67083 58.0204 7.02498 58.6799 7.51093C58.8849 7.63886 59.0509 7.85536 59.2657 8.00298C59.2657 8.00298 59.2657 8.1407 59.3243 8.19975L57.3716 10.168C56.8997 9.76115 56.3519 9.45342 55.7605 9.26266C55.4919 9.17215 55.2131 9.11602 54.9306 9.09544C54.4215 9.06141 53.9106 9.12823 53.427 9.29221C52.9718 9.45232 52.5534 9.70336 52.1968 10.0303C52.0405 10.1779 51.8844 10.3255 51.7379 10.4928C51.3803 10.9208 51.1173 11.4206 50.9665 11.9591C50.8787 12.2543 50.9665 12.5694 50.7908 12.8351C50.7761 12.8658 50.7685 12.8993 50.7685 12.9333C50.7685 12.9674 50.7761 13.0012 50.7908 13.0318C50.8622 13.2752 50.9048 13.5263 50.9177 13.7798C51.0414 14.2418 51.2323 14.6827 51.484 15.0885C51.484 15.0885 51.484 15.0885 51.484 15.1377C52.0773 15.8958 52.8946 16.4439 53.8176 16.7025C54.2618 16.7843 54.7148 16.8076 55.165 16.7715C55.4701 16.743 55.7677 16.6597 56.0437 16.5255C56.4595 16.3791 56.8391 16.1439 57.1567 15.8364C57.2544 15.7281 57.4496 15.6693 57.518 15.5414C57.8155 15.1644 58.0587 14.7469 58.2405 14.3014Z" fill="#B6ACA0"/>
<path d="M37.8149 6.51697H47.1002V9.1937H40.744V11.3784H47.0904L47.149 11.4276V13.947H40.744V16.4467H47.1392V19.1431H37.8149V6.51697Z" fill="#B6ACA0"/>
<path d="M34.6124 6.62544C34.9834 6.89115 35.4813 6.9797 35.8328 7.34382C36.1826 7.67752 36.4849 8.05827 36.7311 8.47544C36.9258 8.91631 37.0542 9.38414 37.1119 9.86318C37.1609 10.3582 37.0905 10.8579 36.9069 11.3196C36.7486 11.7592 36.5175 12.1684 36.2234 12.5301C35.8869 12.9027 35.4825 13.2066 35.0323 13.4255C35.0367 13.5456 35.0564 13.6648 35.0908 13.7799C35.4423 14.6065 35.7059 15.4527 36.0183 16.2892C36.3308 17.1256 36.692 18.0805 36.9947 18.9858C37.0141 19.0445 37.0404 19.1006 37.0728 19.1531C36.6144 19.1822 36.1546 19.1822 35.6962 19.1531H34.2707C33.5677 17.4112 32.9721 15.6102 32.3179 13.8782H30.2383V19.1334H27.5044C27.4263 18.7299 27.397 8.4262 27.5044 6.47768C28.7054 6.47768 29.9063 6.47768 31.1072 6.47768C32.2777 6.42818 33.4501 6.4777 34.6124 6.62544ZM34.2511 10.8177C34.2511 10.6701 34.2511 10.493 34.2511 10.306C34.2485 10.0128 34.1312 9.73228 33.9245 9.52585C33.7179 9.31943 33.4387 9.20365 33.1478 9.20366H30.2187V11.5854H33.5091C33.836 11.4222 34.0977 11.1513 34.2511 10.8177Z" fill="#B6ACA0"/>
<path d="M64.4014 16.8993C64.3136 17.0371 64.2257 17.1649 64.1476 17.3027C63.8644 17.8144 63.5813 18.2869 63.3079 18.8478C63.2396 18.9659 63.1517 19.0841 63.0834 19.2022H59.8906C60.2519 18.7298 60.4276 18.2181 60.7498 17.726C60.8077 17.6342 60.8599 17.5389 60.9061 17.4406C61.3162 16.5155 61.8825 15.6791 62.3121 14.7836C62.6147 14.1636 62.9662 13.5533 63.2884 12.9629C63.7571 12.1756 64.1085 11.3195 64.6358 10.5716C64.7432 10.424 64.753 10.2173 64.8604 10.0697C65.2216 9.52841 65.4657 8.9183 65.8367 8.37704C66.2077 7.83579 66.3737 7.33381 66.6471 6.81223C66.8033 6.517 66.9986 6.22187 67.1743 5.92664C67.4965 6.53678 67.809 7.13692 68.1507 7.72738L69.2442 9.69559L70.4354 11.8901C70.7478 12.4707 71.0798 13.0514 71.4117 13.6123L69.6641 16.8796L64.4014 16.8993ZM68.4436 14.1043L67.1743 11.7919C67.1255 11.8551 67.0799 11.9207 67.0376 11.9886L66.3542 13.2483L65.9149 14.1043H68.4436Z" fill="#B6ACA0"/>
<path d="M72.5248 23.5815L72.0171 23.1682C71.97 22.8378 72.0001 22.5008 72.1049 22.1841C72.1008 22.1547 72.1008 22.1248 72.1049 22.0955L72.9837 20.511L73.1887 20.0977L74.253 18.1295C74.5166 17.6375 74.79 17.1454 75.0438 16.6632C75.5418 15.6791 76.0202 14.7638 76.5474 13.8387C76.811 13.386 77.0063 12.9039 77.309 12.4611C77.5434 12.1188 77.8502 11.833 78.2072 11.6245C78.6412 11.3373 79.1529 11.193 79.6718 11.2112C79.8796 11.182 80.091 11.2269 80.2694 11.3383C80.4477 11.4498 80.5817 11.6209 80.6482 11.8215C80.6702 12.0706 80.6427 12.3215 80.5672 12.5598C80.4918 12.7981 80.3699 13.0188 80.2088 13.209C80.1181 13.3512 80.0365 13.499 79.9647 13.6518C79.5644 14.4391 79.1738 15.2265 78.7638 16.0039C78.3537 16.7814 77.9046 17.6769 77.4262 18.4937C77.1528 18.9563 76.9185 19.4778 76.6451 19.9108C76.3717 20.3438 76.1959 20.7572 75.9909 21.1803C75.7858 21.6035 75.6101 21.9577 75.3953 22.3316C74.95 22.9174 74.3415 23.356 73.6476 23.5913C73.2734 23.6088 72.8986 23.6055 72.5248 23.5815Z" fill="#177AC0"/>
<path d="M76.3717 23.0302V22.4692L76.8599 21.4851C76.9966 21.2292 77.1235 20.9635 77.2797 20.7175C77.4359 20.4714 77.4946 20.1567 77.7386 19.9501C77.8584 19.5532 78.0396 19.1778 78.2756 18.8379C78.6174 18.2278 78.9103 17.5981 79.252 16.9879C79.7011 16.1416 80.16 15.305 80.6189 14.4686C80.9509 13.8387 81.2829 13.209 81.5953 12.589C81.8184 12.2283 82.1186 11.9221 82.474 11.6933L83.1087 11.3195C83.6259 11.1477 84.1871 11.1685 84.6904 11.3783L84.9637 11.6539V12.4215C84.7587 12.8053 84.5341 13.1696 84.3682 13.5534C84.2022 13.9372 84.0167 14.1339 83.88 14.439C83.7601 14.7593 83.5957 15.0607 83.3918 15.3344C83.2746 15.4722 83.2649 15.6789 83.1672 15.8462C82.7865 16.5154 82.435 17.1945 82.0835 17.8834C81.732 18.5722 81.2438 19.4285 80.8239 20.2059C80.531 20.7669 80.2479 21.3278 79.9452 21.8887C79.7565 22.2873 79.4841 22.6396 79.1469 22.9216C78.8098 23.2037 78.4159 23.4086 77.9925 23.5223C77.612 23.5961 77.2209 23.5961 76.8403 23.5223C76.7251 23.4911 76.6206 23.4288 76.538 23.3421C76.4554 23.2553 76.3979 23.1475 76.3717 23.0302Z" fill="#177AC0"/>
<path d="M68.2483 23.5813C68.1573 23.5534 68.0691 23.517 67.9847 23.4729C67.8356 23.364 67.726 23.2087 67.6731 23.0309C67.6202 22.853 67.6267 22.6625 67.6918 22.4888C67.8099 22.1219 67.9671 21.769 68.1605 21.436C68.3102 21.201 68.4471 20.9579 68.5705 20.7078C68.9122 20.0386 69.254 19.3596 69.6348 18.7396C69.8593 18.3656 70.0448 17.9718 70.2596 17.5979C70.4117 17.3472 70.5486 17.0876 70.6697 16.8204C70.8336 16.4823 71.0162 16.1538 71.2165 15.8363C71.4118 15.5017 71.5875 15.1474 71.7633 14.8522C71.939 14.5569 72.2026 14.0058 72.4174 13.5826C72.6765 12.9616 73.0701 12.4069 73.5695 11.959C73.9046 11.6794 74.2987 11.4807 74.7216 11.3783C74.951 11.3182 75.1878 11.2918 75.4246 11.2997C75.5832 11.3201 75.7399 11.3528 75.8933 11.398L76.2447 11.7228L76.3131 11.9885C76.3131 12.0673 76.3912 12.1656 76.3619 12.205C76.1959 12.4609 76.2545 12.8054 76.0104 13.012C75.948 13.0833 75.9014 13.1672 75.8737 13.2581C75.5125 13.9666 75.1707 14.6948 74.7704 15.3935C74.5263 15.8363 74.3213 16.299 74.0675 16.7418C73.589 17.5881 73.0911 18.4343 72.6908 19.3102C72.6029 19.4677 72.5248 19.6349 72.437 19.8022C72.3236 19.9703 72.2193 20.1445 72.1245 20.3238C72.0614 20.4962 71.9863 20.6639 71.8999 20.8258C71.5289 21.2883 71.3629 21.8788 71.0212 22.361C70.7825 22.6933 70.5 22.9912 70.1815 23.2466C69.9166 23.4565 69.6049 23.5985 69.2735 23.6601C68.93 23.668 68.5866 23.6416 68.2483 23.5813Z" fill="#177AC0"/>
<path d="M22.9644 6.51697H25.7079V19.1726H22.9644V6.51697Z" fill="#B6ACA0"/>
<path d="M72.9641 27.872H72.2514L71.8511 26.5239L71.3726 27.8622H70.6501L69.8885 25.2938H70.6013C70.8029 25.7895 70.9565 26.3036 71.0602 26.829L71.5972 25.2839H72.1049L72.6224 26.7601L73.0715 25.2839H73.7452C73.8233 25.4316 73.7452 25.52 73.6866 25.6381C73.5207 26.3171 73.2277 26.9568 73.0813 27.6063C73.057 27.7008 73.0174 27.7906 72.9641 27.872Z" fill="#181415"/>
<path d="M74.5459 25.8549C74.5459 25.8549 74.6923 25.7171 74.79 25.6088C74.9323 25.4367 75.1286 25.3186 75.3465 25.2742C75.6658 25.1843 76.0035 25.1843 76.3229 25.2742C76.5389 25.3554 76.7328 25.4869 76.8889 25.6579C77.045 25.8289 77.1588 26.0345 77.2211 26.2583C77.2552 26.6348 77.1734 27.0129 76.9868 27.3409C76.7873 27.6277 76.4931 27.8335 76.1569 27.9218C75.8206 28.0102 75.4642 27.9753 75.1512 27.8231C74.9267 27.7331 74.7333 27.5789 74.5945 27.3796C74.4557 27.1803 74.3777 26.9444 74.3701 26.7011C74.3506 26.5508 74.3506 26.3987 74.3701 26.2484C74.4183 26.1127 74.4771 25.9812 74.5459 25.8549ZM76.0202 27.2719L76.4596 26.839V26.3861L76.0494 25.9531L75.3367 26.0516L75.0731 26.5929C75.3758 27.2425 75.4148 27.2621 76.0202 27.2719Z" fill="#181415"/>
<path d="M58.7386 26.9765C58.673 26.7178 58.6813 26.4455 58.7625 26.1913C58.8437 25.9371 58.9945 25.7113 59.1975 25.5398C59.4714 25.3106 59.818 25.1883 60.1739 25.1952C60.387 25.2051 60.5958 25.2592 60.7873 25.354C60.9788 25.4489 61.1489 25.5824 61.2869 25.7464C61.6481 26.1302 61.4919 26.573 61.5408 26.9371C61.4709 27.2388 61.2994 27.5067 61.0554 27.6951C60.8115 27.8836 60.5103 27.9809 60.2031 27.9705C59.8809 28.0123 59.5546 27.9345 59.285 27.7516C59.0155 27.5687 58.8213 27.2932 58.7386 26.9765ZM60.1348 25.8646C59.7052 25.9925 59.3928 26.1892 59.4221 26.6615C59.4558 26.8071 59.5281 26.9409 59.6313 27.0483C59.7344 27.1558 59.8646 27.233 60.0078 27.2718C60.1567 27.2842 60.3056 27.2478 60.4323 27.168C60.5589 27.0882 60.6567 26.9693 60.7109 26.829C60.8866 26.4747 60.8573 26.3762 60.4472 25.9826C60.3822 25.9879 60.3169 25.9879 60.2519 25.9826C60.2519 25.9826 60.1836 25.904 60.1348 25.8646Z" fill="#181415"/>
<path d="M29.096 26.2779V27.0751L28.5199 27.7147C27.9712 27.871 27.3992 27.9276 26.8308 27.8819V25.3233C27.2764 25.2435 27.7326 25.2435 28.1782 25.3233C28.3543 25.3635 28.5189 25.4438 28.6594 25.5581C28.7998 25.6724 28.9125 25.8176 28.9886 25.9826C29.0305 26.0787 29.0664 26.1773 29.096 26.2779ZM27.6217 25.9826V27.2719C28.0708 27.2719 28.2661 26.9962 28.4125 26.632C28.3051 26.3959 28.2954 26.1106 28.0415 25.9826H27.6217Z" fill="#181415"/>
<path d="M32.4548 27.7244C32.2325 27.4139 32.1285 27.0331 32.1619 26.6516C32.1619 26.199 32.1619 25.7562 32.1619 25.2937H32.8258L32.9918 25.4511C32.9918 26.0022 32.9918 26.5729 32.9918 27.1536C32.9918 27.1536 33.0601 27.2225 33.0991 27.2619H33.5093L33.6459 27.1338V25.4314L33.7826 25.2937H34.4465C34.4465 25.9038 34.4465 26.5336 34.4465 27.1536C34.4301 27.3238 34.3624 27.4849 34.2524 27.6151C34.1425 27.7453 33.9955 27.8383 33.8314 27.8818C33.6042 27.957 33.3636 27.982 33.126 27.9548C32.8884 27.9276 32.6594 27.8491 32.4548 27.7244Z" fill="#181415"/>
<path d="M80.2674 27.8721H79.3594L78.8614 27.1635V27.8524H78.0608V25.2741C78.5823 25.2326 79.107 25.279 79.6132 25.4118L79.8964 25.6874L80.0233 26.1009C79.8573 26.2977 79.9648 26.7208 79.5156 26.8192C79.7045 27.2111 79.9587 27.5671 80.2674 27.8721ZM78.8614 26.3666C78.9031 26.3817 78.9478 26.3869 78.9919 26.3822C79.036 26.3775 79.0784 26.3629 79.116 26.3392C79.1536 26.3155 79.1854 26.2834 79.209 26.2455C79.2325 26.2076 79.2472 26.165 79.252 26.1206C79.1153 26.1206 79.0957 25.8546 78.8614 25.8841V26.3666Z" fill="#181415"/>
<path d="M84.4463 25.2937C84.6874 25.3992 84.9086 25.5456 85.1005 25.7266C85.307 25.9292 85.4337 26.2004 85.4571 26.49C85.4804 26.7795 85.3988 27.0678 85.2274 27.3013C85.1203 27.4824 84.9668 27.6309 84.7829 27.7314C84.599 27.8318 84.3917 27.8804 84.1827 27.8719H83.2063V25.2937H84.4463ZM84.6708 26.8878V26.3074L84.3682 26.0022L83.919 25.8744V27.2422H84.2608L84.6708 26.8878Z" fill="#181415"/>
<path d="M45.1768 25.638L45.0889 26.5238C45.1573 26.5829 45.3135 26.6616 45.333 26.7699C45.3525 26.8781 45.5088 27.1144 45.4502 27.321C45.3888 27.4767 45.2845 27.6111 45.1495 27.7088C45.0145 27.8065 44.8545 27.8631 44.6886 27.8719H43.4877V25.2642C44.0442 25.333 44.6495 25.1066 45.1768 25.638ZM44.2004 27.2619H44.6984V26.8878H44.2199L44.2004 27.2619ZM44.464 26.2778V25.8939H44.1907V26.2778H44.464Z" fill="#181415"/>
<path d="M67.7895 27.8621H66.8717L66.2761 27.0258V27.8426H65.5829V25.274C65.8563 25.274 66.1199 25.274 66.3737 25.274C66.6099 25.2593 66.8464 25.2963 67.067 25.3824C67.2134 25.4414 67.3111 25.5987 67.438 25.707V26.4056C67.3306 26.5533 67.311 26.7994 67.0181 26.8093C67.2093 27.2048 67.4707 27.5615 67.7895 27.8621ZM66.2761 26.3468H66.6178L66.7448 26.1106L66.5202 25.884H66.2761V26.3468Z" fill="#181415"/>
<path d="M64.5381 25.2938L64.6944 25.4512L64.6065 27.4194L64.1476 27.872C63.7205 28.039 63.2468 28.039 62.8197 27.872L62.4097 27.38V25.2938H63.0638C63.0422 25.9528 63.088 26.6124 63.2005 27.262H63.718C63.9231 27.0947 63.8742 26.8682 63.8742 26.6419C63.8742 26.199 63.8742 25.7465 63.8742 25.2839L64.5381 25.2938Z" fill="#181415"/>
<path d="M18.4732 27.8621H17.8092V26.878H16.911V27.8621H16.2275V25.3627H16.911V26.3468H17.8092V25.3627H18.4927L18.4732 27.8621Z" fill="#181415"/>
<path d="M40.9783 25.274H41.7301L42.7065 27.8328C42.4429 27.9312 42.1792 27.8328 41.9449 27.8328L41.7594 27.4292H40.9491L40.7733 27.8033H40.002L40.9783 25.274ZM41.5642 26.8586L41.3298 26.2286L41.1638 26.8586H41.5642Z" fill="#181415"/>
<path d="M23.4233 27.8522C23.7748 26.9764 24.0385 26.1007 24.3997 25.2937H25.1027C25.4542 26.1203 25.7373 26.9764 26.079 27.8621C25.8349 27.8621 25.5811 27.8621 25.337 27.8621L25.1612 27.4685H24.3216L24.1556 27.8426L23.4233 27.8522ZM24.966 26.8681L24.7805 26.2384L24.5461 26.8681H24.966Z" fill="#181415"/>
<path d="M54.4132 26.3468C54.3675 26.0637 54.4341 25.7738 54.5987 25.5398C54.5987 25.4611 54.7354 25.412 54.8232 25.3824C54.9111 25.3529 55.2235 25.1461 55.37 25.1953C55.5164 25.2445 55.9559 25.1954 56.1511 25.5201L55.9363 25.9728C55.6922 25.9728 55.4579 25.7759 55.1943 25.9137V26.1301C55.3088 26.1904 55.4301 26.2368 55.5555 26.268C55.6817 26.2674 55.8058 26.3002 55.9155 26.3629C56.0252 26.4257 56.1167 26.5163 56.1809 26.6258C56.2451 26.7353 56.2797 26.8597 56.2813 26.9869C56.283 27.114 56.2515 27.2395 56.1902 27.3506C56.1804 27.3994 56.1804 27.4494 56.1902 27.4982C56.1079 27.635 55.9937 27.7496 55.8576 27.8319C55.7215 27.9142 55.5676 27.9617 55.4091 27.9705C55.2123 27.9928 55.013 27.9747 54.8234 27.9172C54.6338 27.8597 54.4577 27.7639 54.3058 27.6358L54.6279 27.0554C54.872 27.3211 55.165 27.2817 55.4774 27.2718V27.0061L55.0575 26.8781C54.9136 26.8536 54.7784 26.7918 54.6654 26.6986C54.5524 26.6054 54.4655 26.4842 54.4132 26.3468Z" fill="#181415"/>
<path d="M37.2291 26.8978L37.1315 27.4785C37.0542 27.615 36.9457 27.7309 36.8149 27.8165C36.6841 27.9021 36.5349 27.955 36.3797 27.9705C36.1789 27.9965 35.975 27.9812 35.7803 27.9253C35.5856 27.8695 35.4042 27.7743 35.2471 27.6457L35.54 27.0751C35.6677 27.1558 35.8056 27.2186 35.9501 27.262C36.1024 27.282 36.2566 27.282 36.4089 27.262V27.0061L35.5107 26.6126C35.4446 26.4909 35.3922 26.362 35.3545 26.2286C35.3349 26.0803 35.3513 25.9293 35.4023 25.7887C35.4533 25.6482 35.5375 25.5222 35.6474 25.4216C35.7353 25.3133 35.9403 25.3134 36.0672 25.2445C36.1335 25.2155 36.2049 25.2006 36.2771 25.2006C36.3494 25.2006 36.4208 25.2155 36.4871 25.2445C36.7137 25.2742 36.929 25.3623 37.112 25.5004L36.8776 25.9629L36.1453 25.8351V26.1205C36.2429 26.1868 36.3524 26.2335 36.4675 26.2582C36.8385 26.2779 37.0534 26.4844 37.2291 26.8978Z" fill="#181415"/>
<path d="M48.5551 25.2839H50.0098V25.9629H49.3459V26.2582H50.0001V26.8586H49.3557V27.262H50.0001V27.8622H48.5551V25.2839Z" fill="#181415"/>
<path d="M20.9629 25.3036V25.8252L20.8067 25.9826H20.1818V26.2581H20.8067L20.9531 26.4352V26.8585H20.2404V27.2619H20.9922V27.8621H19.5471V25.3036H20.9629Z" fill="#181415"/>
<path d="M15.4171 25.2937V25.8744L14.9289 26.0219V27.8522H14.1381V25.9923H13.6499V25.3232C14.226 25.2642 14.8215 25.2642 15.4171 25.2937Z" fill="#181415"/>
<path d="M38.4301 25.9726H37.9711C37.7075 25.7758 37.854 25.5298 37.7954 25.2739C38.1469 25.2739 38.4789 25.2739 38.7718 25.2739C39.0647 25.2739 39.3869 25.1459 39.6603 25.3919V25.8152C39.5138 26.0612 39.2892 25.9234 39.0744 25.9824V27.8521H38.4008L38.4301 25.9726Z" fill="#181415"/>
<path d="M46.2507 27.8522V25.4215L46.3679 25.2937H47.0123V27.2619H47.8031V27.8621L46.2507 27.8522Z" fill="#181415"/>
<path d="M31.1854 27.4982C31.0871 27.6652 30.9419 27.7992 30.7681 27.8833C30.5944 27.9674 30.3999 27.9977 30.209 27.9705C30.0049 27.9083 29.8265 27.7803 29.7013 27.6063L30.1114 27.193L30.4921 27.3112V25.4315L30.6386 25.2839H31.2928C31.3312 26.0238 31.2953 26.7656 31.1854 27.4982Z" fill="#181415"/>
<path d="M81.605 27.2719H82.3958V27.8524H80.941V25.2939C81.1621 25.2787 81.3839 25.2787 81.605 25.2939V27.2719Z" fill="#181415"/>
<path d="M53.4369 27.8622H52.6656V26.9766C52.6656 26.701 52.6656 26.4155 52.6656 26.1301C52.6656 25.8447 52.5582 25.5398 52.7827 25.2839H53.4369V27.8622Z" fill="#181415"/>
</g>
<defs>
<clipPath id="clip0_150_22">
<rect width="76" height="26" fill="white" transform="translate(12 2)"/>
</clipPath>
</defs>
</svg>
