<svg width="100" height="30" viewBox="0 0 100 30" fill="none" xmlns="http://www.w3.org/2000/svg">
<g clip-path="url(#clip0_150_20)">
<path d="M86.981 22.7414V23.5155C86.981 23.6432 86.9299 23.7657 86.8389 23.856C86.7478 23.9463 86.6244 23.997 86.4957 23.997H61.7561C61.8848 23.997 62.0082 23.9463 62.0992 23.856C62.1902 23.7657 62.2414 23.6432 62.2414 23.5155V22.7414C62.2414 22.3833 62.098 22.0399 61.8428 21.7868C61.5877 21.5336 61.2416 21.3914 60.8807 21.3914H85.6203C85.9812 21.3914 86.3273 21.5336 86.5824 21.7868C86.8376 22.0399 86.981 22.3833 86.981 22.7414Z" fill="#EE1C25"/>
<path d="M62.2319 22.7414V23.5155C62.2319 23.6432 62.1807 23.7657 62.0897 23.856C61.9987 23.9463 61.8753 23.997 61.7466 23.997H37.2353C37.364 23.997 37.4874 23.9463 37.5784 23.856C37.6694 23.7657 37.7206 23.6432 37.7206 23.5155V22.7414C37.7206 22.3833 37.5773 22.0399 37.3221 21.7868C37.0669 21.5336 36.7208 21.3914 36.3599 21.3914H60.8712C61.2321 21.3914 61.5781 21.5336 61.8333 21.7868C62.0885 22.0399 62.2319 22.3833 62.2319 22.7414Z" fill="white"/>
<path d="M37.711 22.7414V23.5155C37.711 23.6432 37.6599 23.7657 37.5689 23.856C37.4779 23.9463 37.3545 23.997 37.2258 23.997H13.647C13.5183 23.997 13.3949 23.9463 13.3039 23.856C13.2128 23.7657 13.1617 23.6432 13.1617 23.5155V21.8728C13.1617 21.7452 13.2128 21.6227 13.3039 21.5324C13.3949 21.4421 13.5183 21.3914 13.647 21.3914H36.3599C36.7191 21.3938 37.0628 21.5372 37.3159 21.7901C37.569 22.043 37.7111 22.385 37.711 22.7414Z" fill="#00A651"/>
<path d="M86.4576 23.9876H13.609C13.537 23.9876 13.4656 23.9734 13.3992 23.9457C13.3328 23.9181 13.2726 23.8776 13.2221 23.8266C13.1716 23.7757 13.1319 23.7152 13.1052 23.6489C13.0785 23.5825 13.0653 23.5115 13.0666 23.44V21.7973C13.0666 21.7266 13.0806 21.6567 13.1079 21.5914C13.1352 21.5261 13.1751 21.4668 13.2255 21.4168C13.2759 21.3668 13.3356 21.3272 13.4014 21.3001C13.4672 21.2731 13.5378 21.2592 13.609 21.2592H50.4425V21.3819H13.609C13.4979 21.3819 13.3915 21.4257 13.313 21.5036C13.2345 21.5815 13.1903 21.6871 13.1903 21.7973V23.44C13.1903 23.5502 13.2345 23.6558 13.313 23.7337C13.3915 23.8116 13.4979 23.8554 13.609 23.8554H86.4576C86.5687 23.8554 86.6752 23.8116 86.7537 23.7337C86.8322 23.6558 86.8763 23.5502 86.8763 23.44V22.6659C86.8763 22.3254 86.74 21.9988 86.4973 21.758C86.2546 21.5172 85.9255 21.3819 85.5823 21.3819H56.085V21.2592H85.5823C85.9583 21.2592 86.3189 21.4074 86.5848 21.6712C86.8507 21.935 87 22.2928 87 22.6659V23.44C87.0013 23.5115 86.9882 23.5825 86.9615 23.6489C86.9348 23.7152 86.8951 23.7757 86.8446 23.8266C86.7941 23.8776 86.7338 23.9181 86.6674 23.9457C86.601 23.9734 86.5297 23.9876 86.4576 23.9876Z" fill="#231F20"/>
<path d="M16.1114 7.24908C16.1114 6.50348 15.5022 5.89905 14.7508 5.89905C13.9993 5.89905 13.3901 6.50348 13.3901 7.24908V18.2665C13.3901 19.0121 13.9993 19.6165 14.7508 19.6165C15.5022 19.6165 16.1114 19.0121 16.1114 18.2665V7.24908Z" fill="#231F20"/>
<path d="M14.1037 2C14.3682 2 14.63 2.05183 14.8742 2.15253C15.1185 2.25323 15.3402 2.4008 15.5268 2.58678C15.7133 2.77276 15.861 2.99347 15.9613 3.23624C16.0617 3.47902 16.1127 3.73906 16.1114 4.00145V4.11474C16.1127 4.20852 16.0952 4.30161 16.0599 4.38861C16.0246 4.4756 15.9722 4.55478 15.9058 4.62153C15.8394 4.68828 15.7603 4.74129 15.6731 4.77746C15.5859 4.81363 15.4923 4.83225 15.3978 4.83224H14.1037C13.9145 4.83224 13.7329 4.75764 13.5991 4.62486C13.4653 4.49207 13.3901 4.31197 13.3901 4.12418V2.7175C13.3888 2.62373 13.4063 2.53064 13.4416 2.44364C13.4769 2.35664 13.5293 2.27747 13.5957 2.21071C13.6621 2.14396 13.7412 2.09096 13.8284 2.05479C13.9156 2.01861 14.0092 1.99999 14.1037 2Z" fill="#231F20"/>
<path d="M43.1347 2C43.6748 2 44.1927 2.21286 44.5746 2.59174C44.9565 2.97063 45.171 3.48451 45.171 4.02033V18.8896C45.171 19.0799 45.0948 19.2624 44.9592 19.397C44.8236 19.5315 44.6396 19.6071 44.4478 19.6071H43.1347C42.9429 19.6071 42.759 19.5315 42.6234 19.397C42.4878 19.2624 42.4116 19.0799 42.4116 18.8896V2.73638C42.409 2.64058 42.4259 2.54525 42.4611 2.45601C42.4963 2.36676 42.5491 2.28542 42.6165 2.21678C42.6839 2.14814 42.7645 2.0936 42.8535 2.05637C42.9425 2.01913 43.0381 1.99997 43.1347 2Z" fill="#231F20"/>
<path d="M60.2716 6.39934L55.3713 19.6165L53.982 23.3456L53.8298 23.7799C53.7721 23.9189 53.6766 24.0394 53.5539 24.1277C53.4313 24.2161 53.2863 24.2688 53.1352 24.2802H51.2321C51.1711 24.2841 51.1102 24.2718 51.0556 24.2444C51.001 24.217 50.9549 24.1757 50.9218 24.1246C50.8888 24.0735 50.8702 24.0147 50.8679 23.954C50.8656 23.8934 50.8796 23.8333 50.9086 23.7799L52.5262 19.4277L47.8447 6.42769C47.7496 6.16334 47.8447 5.9462 48.1492 5.9462H49.1007C49.5057 5.97438 49.8944 6.11627 50.2212 6.35531C50.5481 6.59435 50.7997 6.92068 50.9466 7.29623L53.9535 15.6514L57.0459 7.31513C57.2014 6.9301 57.4617 6.59554 57.7978 6.3488C58.1339 6.10207 58.5324 5.95284 58.949 5.91785H59.9005C60.2335 5.94617 60.3763 6.11611 60.2716 6.39934Z" fill="#231F20"/>
<path d="M70.2627 9.80759C70.2627 9.65881 70.2331 9.51149 70.1757 9.37404C70.1184 9.23659 70.0343 9.11166 69.9282 9.00647C69.8222 8.90127 69.6963 8.81781 69.5578 8.76088C69.4193 8.70395 69.2708 8.67468 69.1208 8.67468H65.9523C65.8023 8.67468 65.6538 8.70395 65.5153 8.76088C65.3768 8.81781 65.2509 8.90127 65.1449 9.00647C65.0388 9.11166 64.9547 9.23659 64.8974 9.37404C64.84 9.51149 64.8104 9.65881 64.8104 9.80759V15.7269C64.8104 16.0274 64.9307 16.3156 65.1449 16.5281C65.359 16.7405 65.6494 16.8598 65.9523 16.8598H69.1113C69.4142 16.8598 69.7046 16.7405 69.9187 16.5281C70.1328 16.3156 70.2532 16.0274 70.2532 15.7269C70.2532 15.6984 70.2588 15.6702 70.2698 15.6438C70.2808 15.6175 70.297 15.5936 70.3173 15.5734C70.3376 15.5533 70.3617 15.5373 70.3882 15.5264C70.4148 15.5154 70.4433 15.5098 70.472 15.5098H72.8508C72.8962 15.5098 72.9398 15.5277 72.9719 15.5596C73.004 15.5915 73.0221 15.6347 73.0221 15.6797C73.0221 16.7213 72.605 17.7203 71.8627 18.4568C71.1204 19.1934 70.1136 19.6071 69.0638 19.6071H65.9903C64.9413 19.6046 63.9359 19.1901 63.1941 18.4541C62.4524 17.7181 62.0345 16.7206 62.032 15.6797V9.85478C62.032 8.81317 62.449 7.81421 63.1914 7.07768C63.9337 6.34115 64.9405 5.92737 65.9903 5.92737H69.1113C70.1611 5.92737 71.168 6.34115 71.9103 7.07768C72.6526 7.81421 73.0696 8.81317 73.0696 9.85478C73.0696 9.89234 73.0546 9.92837 73.0279 9.95493C73.0011 9.98148 72.9648 9.99636 72.9269 9.99636H70.491C70.4631 10.002 70.4342 10.0014 70.4065 9.99451C70.3788 9.9876 70.353 9.97456 70.3311 9.95642C70.3092 9.93829 70.2916 9.91553 70.2798 9.88976C70.2679 9.86398 70.2621 9.83591 70.2627 9.80759Z" fill="#231F20"/>
<path d="M75.772 9.86423V15.6703C75.772 16.7128 76.1887 17.7127 76.9308 18.4507C77.6728 19.1888 78.6796 19.6046 79.7303 19.6071H82.7942C83.8449 19.6046 84.8517 19.1888 85.5937 18.4507C86.3358 17.7127 86.7525 16.7128 86.7525 15.6703V9.86423C86.7525 8.82175 86.3358 7.82181 85.5937 7.08379C84.8517 6.34576 83.8449 5.92987 82.7942 5.92737H79.7303C78.6796 5.92987 77.6728 6.34576 76.9308 7.08379C76.1887 7.82181 75.772 8.82175 75.772 9.86423ZM82.661 16.8598H79.8635C79.5127 16.8598 79.1763 16.7216 78.9283 16.4755C78.6803 16.2294 78.5409 15.8956 78.5409 15.5476V9.98696C78.5409 9.63893 78.6803 9.30512 78.9283 9.05902C79.1763 8.81292 79.5127 8.67468 79.8635 8.67468H82.661C83.0118 8.67468 83.3482 8.81292 83.5963 9.05902C83.8443 9.30512 83.9836 9.63893 83.9836 9.98696V15.5476C83.9837 15.7231 83.9483 15.8969 83.8794 16.0586C83.8106 16.2203 83.7098 16.3667 83.5829 16.4891C83.456 16.6115 83.3057 16.7073 83.1408 16.771C82.9759 16.8347 82.7998 16.8649 82.623 16.8598H82.661Z" fill="#231F20"/>
<path d="M26.2927 18.2759V19.22C26.2927 19.2828 26.2801 19.3449 26.2556 19.4028C26.2311 19.4607 26.1952 19.5132 26.15 19.5572C26.1048 19.6011 26.0512 19.6357 25.9924 19.6589C25.9336 19.682 25.8707 19.6933 25.8074 19.692H23.2574C22.703 19.6933 22.1538 19.586 21.6413 19.3764C21.1288 19.1668 20.663 18.8589 20.2705 18.4705C19.8781 18.082 19.5668 17.6205 19.3544 17.1124C19.142 16.6044 19.0326 16.0598 19.0326 15.5098V2.47201C19.0326 2.40922 19.0452 2.34704 19.0697 2.28915C19.0942 2.23125 19.1301 2.1788 19.1753 2.13484C19.2205 2.09088 19.2741 2.05632 19.3329 2.03316C19.3917 2.01 19.4546 1.99872 19.5179 1.99997H21.3163C21.3795 1.99872 21.4424 2.01 21.5012 2.03316C21.5601 2.05632 21.6137 2.09088 21.6589 2.13484C21.7041 2.1788 21.7399 2.23125 21.7644 2.28915C21.789 2.34704 21.8016 2.40922 21.8016 2.47201V5.94623H24.3897C24.7506 5.94623 25.0967 6.08845 25.3518 6.34163C25.607 6.59481 25.7503 6.9382 25.7503 7.29625V8.24034C25.7504 8.30313 25.7377 8.36528 25.7132 8.42317C25.6887 8.48107 25.6528 8.53352 25.6077 8.57748C25.5625 8.62144 25.5089 8.65603 25.4501 8.67919C25.3913 8.70235 25.3283 8.71363 25.2651 8.71238H21.792V15.387C21.792 15.7952 21.9554 16.1866 22.2463 16.4752C22.5372 16.7638 22.9317 16.9259 23.343 16.9259H24.9225C25.1024 16.9234 25.2809 16.9565 25.4477 17.0233C25.6144 17.0902 25.7661 17.1894 25.8937 17.3151C26.0213 17.4409 26.1223 17.5906 26.1909 17.7556C26.2594 17.9206 26.294 18.0975 26.2927 18.2759Z" fill="#231F20"/>
<path d="M30.4034 6.37104V7.31512C30.4033 7.67155 30.5454 8.0135 30.7985 8.26641C31.0516 8.51932 31.3953 8.66266 31.7545 8.66515H35.2466C35.4473 8.66391 35.6464 8.70205 35.8322 8.7774C36.018 8.85275 36.1869 8.96384 36.3293 9.10423C36.4717 9.24462 36.5847 9.41158 36.6618 9.59546C36.7389 9.77935 36.7786 9.9765 36.7786 10.1757V10.8271H32.7822C31.644 10.8271 30.5525 11.2757 29.7477 12.0742C28.9429 12.8727 28.4908 13.9557 28.4908 15.0849V15.387C28.4908 15.9457 28.6019 16.4989 28.8176 17.0149C29.0334 17.531 29.3496 17.9998 29.7483 18.3944C30.1469 18.789 30.62 19.1018 31.1406 19.3147C31.6612 19.5276 32.2191 19.6366 32.7822 19.6354H38.1582C38.5242 19.6354 38.8751 19.4912 39.1339 19.2344C39.3926 18.9777 39.538 18.6295 39.538 18.2664V10.0718C39.538 9.51764 39.4279 8.96891 39.2142 8.45691C39.0004 7.94491 38.6872 7.47967 38.2922 7.0878C37.8973 6.69594 37.4284 6.38507 36.9123 6.17299C36.3963 5.96092 35.8432 5.85181 35.2847 5.85181H30.8886C30.8216 5.8516 30.7552 5.86516 30.6937 5.89168C30.6322 5.91821 30.5769 5.9571 30.5313 6.00589C30.4857 6.05468 30.4508 6.11234 30.4287 6.17518C30.4067 6.23803 30.3981 6.30471 30.4034 6.37104ZM36.7786 16.9353H32.687C32.3084 16.9353 31.9455 16.7861 31.6778 16.5205C31.4101 16.255 31.2597 15.8948 31.2597 15.5192V14.9527C31.2622 14.5788 31.4137 14.221 31.6811 13.9575C31.9485 13.6939 32.3101 13.546 32.687 13.546H36.7595L36.7786 16.9353Z" fill="#231F20"/>
<path d="M14.1418 25.4509H14.4558L15.5881 27.9811H15.2551L14.3036 25.7625L13.3521 27.9811H12.9714L14.1418 25.4509ZM13.5138 27.0653H15.0553V27.3297H13.5138V27.0653Z" fill="#67686B"/>
<path d="M18.6806 25.4509H18.9946V27.9811H18.6806V25.4509Z" fill="#67686B"/>
<path d="M23.4382 25.451C23.583 25.4486 23.7273 25.4677 23.8664 25.5076C23.9822 25.5412 24.0893 25.5992 24.1804 25.6776C24.2674 25.7486 24.3359 25.8392 24.3802 25.9419C24.4278 26.0555 24.4505 26.1778 24.4468 26.3007C24.4496 26.4266 24.4269 26.5518 24.3802 26.6689C24.3359 26.7743 24.2675 26.868 24.1804 26.9427C24.0893 27.0211 23.9822 27.079 23.8664 27.1126C23.729 27.1604 23.5838 27.1829 23.4382 27.1787H22.7721V27.9812H22.4867V25.451H23.4382ZM23.4382 26.9049C23.5391 26.9211 23.6419 26.9211 23.7427 26.9049C23.8271 26.8864 23.9055 26.8475 23.9711 26.7916C24.0311 26.7411 24.077 26.6761 24.1043 26.6028C24.1196 26.5185 24.1196 26.4322 24.1043 26.3479C24.1204 26.2605 24.1204 26.171 24.1043 26.0836C24.0743 26.0144 24.0287 25.9531 23.9711 25.9042C23.9011 25.8553 23.8241 25.8171 23.7427 25.7909C23.6415 25.7799 23.5394 25.7799 23.4382 25.7909H22.7721V26.9805L23.4382 26.9049ZM23.5144 27.0465H23.8283L24.4754 27.9906H24.1233L23.5144 27.0465Z" fill="#67686B"/>
<path d="M33.4483 26.008L33.2865 25.8758L33.1057 25.772L32.9059 25.7153C32.8364 25.706 32.766 25.706 32.6965 25.7153C32.5594 25.7116 32.4231 25.7374 32.2969 25.7909C32.1766 25.843 32.0669 25.9166 31.9734 26.008C31.8845 26.1034 31.8107 26.2116 31.7545 26.329C31.6528 26.5837 31.6528 26.8673 31.7545 27.122C31.8084 27.2407 31.8824 27.3493 31.9734 27.443C32.0653 27.5415 32.1774 27.6193 32.3021 27.6714C32.4268 27.7235 32.5613 27.7487 32.6965 27.7451H32.9059L33.0962 27.679C33.1632 27.6553 33.2271 27.6235 33.2865 27.5846L33.4483 27.4619L33.6291 27.6507C33.5688 27.7115 33.5017 27.7653 33.4292 27.8112L33.1913 27.9339L32.9439 28.0094H32.687C32.5073 28.0097 32.3294 27.9744 32.1637 27.9056C32.0085 27.8403 31.8667 27.7475 31.745 27.6318C31.6206 27.5081 31.5227 27.3607 31.4573 27.1985C31.3919 27.0362 31.3603 26.8624 31.3644 26.6877C31.3592 26.512 31.3913 26.3372 31.4585 26.1746C31.5257 26.0119 31.6265 25.8651 31.7545 25.7436C31.8771 25.629 32.0187 25.5364 32.1732 25.4699C32.3365 25.405 32.5111 25.373 32.687 25.3755C32.7755 25.3657 32.8649 25.3657 32.9535 25.3755C33.0383 25.3875 33.1214 25.4097 33.2009 25.4416L33.4292 25.5643C33.5019 25.6062 33.5691 25.6569 33.6291 25.7153L33.4483 26.008Z" fill="#67686B"/>
<path d="M38.4342 25.5265C38.5923 25.5917 38.7373 25.6845 38.8624 25.8003C38.9787 25.9198 39.075 26.0568 39.1479 26.2063C39.2167 26.3659 39.2522 26.5377 39.2522 26.7113C39.2522 26.8849 39.2167 27.0568 39.1479 27.2164C39.075 27.3659 38.9787 27.5029 38.8624 27.6224C38.7373 27.7382 38.5923 27.8309 38.4342 27.8961C38.2685 27.9649 38.0906 28.0002 37.9109 28C37.7313 27.9993 37.5536 27.964 37.3875 27.8961C37.2312 27.8331 37.0889 27.74 36.9689 27.6224C36.8465 27.5081 36.7493 27.3698 36.6834 27.2164C36.6146 27.0568 36.5791 26.8849 36.5791 26.7113C36.5791 26.5377 36.6146 26.3659 36.6834 26.2063C36.7493 26.0529 36.8465 25.9146 36.9689 25.8003C37.0889 25.6827 37.2312 25.5896 37.3875 25.5265C37.5541 25.4616 37.7319 25.4296 37.9109 25.4321C38.0899 25.4289 38.2678 25.4609 38.4342 25.5265ZM37.4827 25.772C37.3644 25.8277 37.2553 25.9009 37.1592 25.9891C37.0635 26.0827 36.989 26.1953 36.9403 26.3195C36.8845 26.4411 36.8553 26.573 36.8547 26.7066C36.8525 26.8465 36.8818 26.9852 36.9403 27.1125C37.0444 27.3546 37.2387 27.5475 37.4827 27.6507C37.6082 27.7074 37.7445 27.7364 37.8823 27.7357C38.1504 27.7294 38.4059 27.6212 38.596 27.4336C38.6881 27.3407 38.7622 27.2319 38.8148 27.1125C38.8646 26.9829 38.8904 26.8454 38.8909 26.7066C38.8896 26.574 38.8638 26.4429 38.8148 26.3195C38.7623 26.1973 38.6882 26.0854 38.596 25.9891C38.4998 25.9009 38.3908 25.8277 38.2725 25.772C38.1482 25.7234 38.0159 25.6978 37.8823 25.6964C37.7584 25.7013 37.6361 25.7268 37.5208 25.772H37.4827Z" fill="#67686B"/>
<path d="M42.4687 25.4509H42.8398L43.7913 27.3391L44.7428 25.4509H45.114V27.9811H44.8189V25.8758L43.8674 27.7073H43.6867L42.7351 25.8758V27.9811H42.4687V25.4509Z" fill="#67686B"/>
<path d="M49.5956 25.451C49.7373 25.448 49.8785 25.4671 50.0142 25.5076C50.13 25.5412 50.2372 25.5992 50.3283 25.6776C50.4152 25.7486 50.4837 25.8392 50.528 25.9419C50.571 26.0568 50.5936 26.1782 50.5947 26.3007C50.5927 26.4262 50.5702 26.5505 50.528 26.6689C50.4837 26.7743 50.4154 26.868 50.3283 26.9427C50.2372 27.0211 50.13 27.079 50.0142 27.1126C49.8803 27.1612 49.7381 27.1837 49.5956 27.1787H48.8058L48.939 27.0371V27.9812H48.6345V25.451H49.5956ZM49.5956 26.9049C49.6933 26.9201 49.7928 26.9201 49.8905 26.9049C49.971 26.8615 50.0371 26.7959 50.0809 26.7161C50.1409 26.6656 50.1868 26.6005 50.2141 26.5273C50.2499 26.4472 50.2662 26.3599 50.2616 26.2724C50.267 26.1818 50.2507 26.0912 50.2141 26.008C50.1841 25.9389 50.1385 25.8775 50.0809 25.8286C50.012 25.7779 49.9347 25.7396 49.8525 25.7154C49.7545 25.7043 49.6555 25.7043 49.5575 25.7154H48.7773L48.9105 25.5832V27.0465L48.7773 26.9049H49.5956Z" fill="#67686B"/>
<path d="M54.7338 25.4509C54.8786 25.4492 55.0228 25.4683 55.162 25.5075C55.2778 25.5411 55.3849 25.5991 55.476 25.6775C55.5629 25.7464 55.6288 25.8379 55.6663 25.9418C55.7171 26.0547 55.7431 26.177 55.7424 26.3006C55.7422 26.4272 55.7163 26.5524 55.6663 26.6688C55.629 26.7755 55.5632 26.8701 55.476 26.9426C55.3849 27.021 55.2778 27.079 55.162 27.1125C55.0244 27.1595 54.8794 27.1819 54.7338 27.1786H54.0677V27.9811H53.7537V25.4509H54.7338ZM54.7338 26.9048C54.8315 26.92 54.9311 26.92 55.0288 26.9048C55.1146 26.8904 55.1941 26.851 55.2571 26.7915C55.3172 26.7389 55.3657 26.6746 55.3999 26.6027C55.4152 26.5184 55.4152 26.4321 55.3999 26.3478C55.416 26.2604 55.416 26.1709 55.3999 26.0835C55.3632 26.0159 55.3149 25.9552 55.2571 25.9041C55.1895 25.8514 55.1118 25.8129 55.0288 25.7908C54.9308 25.7797 54.8318 25.7797 54.7338 25.7908H54.0677V26.9804L54.7338 26.9048ZM54.8099 27.0464H55.1239L55.7709 27.9905H55.4094L54.8099 27.0464Z" fill="#67686B"/>
<path d="M59.1108 25.4509H60.8521V25.7153H59.4153V26.565H60.6999V26.8293H59.4153V27.7073H60.8997V27.9811H59.1108V25.4509Z" fill="#67686B"/>
<path d="M65.6668 25.9136L65.5051 25.8286L65.3052 25.7719H65.1149H64.9341H64.7533C64.6964 25.7807 64.6415 25.7999 64.5916 25.8286C64.5416 25.8555 64.4966 25.8906 64.4584 25.9324C64.4422 25.9911 64.4422 26.0531 64.4584 26.1118C64.4556 26.1822 64.4756 26.2517 64.5155 26.3101C64.56 26.3669 64.6149 26.4149 64.6773 26.4517C64.7482 26.4943 64.8252 26.5262 64.9056 26.5461L65.172 26.631L65.4289 26.7255C65.5109 26.7588 65.5877 26.8033 65.6573 26.8577C65.724 26.9123 65.779 26.9797 65.819 27.0559C65.8588 27.1483 65.8782 27.2481 65.8761 27.3485C65.8781 27.4602 65.852 27.5705 65.8001 27.6696C65.7421 27.7554 65.6677 27.8291 65.5812 27.8867C65.4866 27.9428 65.3839 27.9842 65.2767 28.0094C65.169 28.0185 65.0608 28.0185 64.9532 28.0094C64.8646 28.0192 64.7753 28.0192 64.6867 28.0094L64.4203 27.9339L64.1824 27.8111C64.107 27.7653 64.0368 27.7115 63.9731 27.6507L64.1063 27.3957L64.2871 27.5468L64.4965 27.6601L64.7248 27.7262H64.9532C65.0195 27.7355 65.0867 27.7355 65.153 27.7262C65.2195 27.7142 65.2837 27.6919 65.3433 27.6601C65.4012 27.6329 65.4506 27.5904 65.486 27.5374C65.5231 27.4817 65.5399 27.415 65.5336 27.3485C65.5366 27.2722 65.5167 27.1966 65.4765 27.1314C65.4342 27.0726 65.3789 27.0241 65.3148 26.9898C65.2419 26.951 65.1655 26.9194 65.0864 26.8954L64.8295 26.8104L64.563 26.7255C64.4826 26.6892 64.4061 26.6449 64.3347 26.5933C64.2707 26.536 64.2161 26.4691 64.1729 26.395C64.1294 26.3018 64.1069 26.2003 64.1069 26.0976C64.1069 25.9949 64.1294 25.8935 64.1729 25.8003C64.2315 25.7201 64.306 25.6526 64.3918 25.602C64.4792 25.5475 64.576 25.5091 64.6773 25.4887C64.7785 25.4795 64.8804 25.4795 64.9817 25.4887H65.2006L65.4099 25.5359C65.4829 25.5512 65.5534 25.5766 65.6193 25.6115L65.8001 25.7059L65.6668 25.9136Z" fill="#67686B"/>
<path d="M70.6148 25.9136L70.453 25.8286L70.2722 25.7625H70.0914H69.9011H69.7299C69.6145 25.7768 69.509 25.8342 69.4349 25.923C69.3951 25.9742 69.3749 26.0378 69.3778 26.1024C69.3778 26.1739 69.4011 26.2435 69.4444 26.3007C69.4866 26.3595 69.542 26.408 69.6062 26.4423C69.6771 26.4849 69.754 26.5167 69.8345 26.5367L70.0914 26.6217L70.3578 26.7161C70.436 26.751 70.5095 26.7954 70.5767 26.8482C70.6434 26.9029 70.6985 26.9703 70.7385 27.0465C70.7885 27.1411 70.8146 27.2464 70.8146 27.3533C70.8146 27.4602 70.7885 27.5655 70.7385 27.6601C70.6805 27.746 70.6061 27.8197 70.5196 27.8773C70.4284 27.9333 70.3288 27.9748 70.2246 28C70.1138 28.0092 70.0024 28.0092 69.8916 28C69.803 28.0093 69.7137 28.0093 69.6251 28L69.3683 27.9245L69.1209 27.8018C69.0471 27.7536 68.9771 27.6999 68.9115 27.6412L69.0543 27.3864L69.235 27.5374L69.4444 27.6507L69.6632 27.7168H69.9011C69.9674 27.7261 70.0346 27.7261 70.1009 27.7168C70.1644 27.7047 70.2255 27.6824 70.2817 27.6507C70.3397 27.6234 70.389 27.581 70.4244 27.528C70.4642 27.4731 70.4843 27.4066 70.4815 27.3391C70.4859 27.2612 70.4623 27.1843 70.4149 27.122C70.3764 27.0633 70.3242 27.0148 70.2627 26.9804C70.1899 26.9416 70.1133 26.91 70.0343 26.886L69.7679 26.8011L69.511 26.7161C69.4306 26.6797 69.3541 26.6354 69.2826 26.5839C69.2159 26.5292 69.1609 26.4618 69.1209 26.3857C69.0724 26.2993 69.0493 26.2011 69.0543 26.1024C69.038 25.989 69.058 25.8735 69.1113 25.772C69.1663 25.692 69.2376 25.6245 69.3206 25.5737C69.409 25.5208 69.5054 25.4826 69.6062 25.4604C69.7106 25.4512 69.8157 25.4512 69.9201 25.4604H70.1295L70.3483 25.5076C70.4178 25.5244 70.485 25.5498 70.5482 25.5831L70.7385 25.6776L70.6148 25.9136Z" fill="#67686B"/>
<path d="M75.772 25.5265C75.9283 25.5896 76.0706 25.6827 76.1907 25.8003C76.313 25.9147 76.4102 26.0529 76.4761 26.2063C76.545 26.3659 76.5805 26.5377 76.5805 26.7113C76.5805 26.885 76.545 27.0568 76.4761 27.2165C76.4102 27.3699 76.313 27.5081 76.1907 27.6224C76.0706 27.7401 75.9283 27.8331 75.772 27.8962C75.606 27.964 75.4282 27.9993 75.2487 28C75.069 28.0003 74.8911 27.965 74.7253 27.8962C74.5673 27.8309 74.4223 27.7382 74.2971 27.6224C74.1808 27.505 74.0872 27.3674 74.0212 27.2165C73.9331 27.0632 73.881 26.8921 73.8689 26.7161C73.866 26.5436 73.9017 26.3727 73.9736 26.2157C74.0397 26.0647 74.1333 25.9271 74.2496 25.8097C74.3747 25.6939 74.5197 25.6012 74.6777 25.536C74.8441 25.4704 75.0221 25.4383 75.2011 25.4416C75.3953 25.4296 75.5899 25.4586 75.772 25.5265ZM74.8205 25.772C74.6979 25.8253 74.5854 25.8987 74.4875 25.9891C74.3983 26.0878 74.3245 26.1992 74.2686 26.3196C74.2196 26.4429 74.1938 26.5741 74.1925 26.7066C74.193 26.8454 74.2188 26.9829 74.2686 27.1126C74.3247 27.2299 74.3986 27.3382 74.4875 27.4336C74.5818 27.5285 74.6953 27.6025 74.8205 27.6507C74.943 27.7061 75.0759 27.7351 75.2106 27.7357C75.3484 27.7364 75.4848 27.7074 75.6103 27.6507C75.7307 27.604 75.8383 27.5296 75.9242 27.4336C76.0188 27.3428 76.0933 27.2334 76.1431 27.1126C76.2016 26.9852 76.2308 26.8466 76.2287 26.7066C76.2281 26.573 76.1989 26.4411 76.1431 26.3196C76.0945 26.1953 76.0199 26.0827 75.9242 25.9891C75.8333 25.8988 75.7271 25.8253 75.6103 25.772C75.4829 25.7225 75.3474 25.6968 75.2106 25.6964C75.0769 25.6969 74.9445 25.7225 74.8205 25.772Z" fill="#67686B"/>
<path d="M80.7675 25.451C80.9123 25.4486 81.0566 25.4677 81.1957 25.5076C81.3115 25.5412 81.4186 25.5992 81.5097 25.6776C81.5967 25.7486 81.6652 25.8392 81.7095 25.9419C81.7525 26.0568 81.775 26.1782 81.7761 26.3007C81.7741 26.4262 81.7516 26.5505 81.7095 26.6689C81.6652 26.7743 81.5968 26.868 81.5097 26.9427C81.4186 27.0211 81.3115 27.079 81.1957 27.1126C81.0583 27.1604 80.9131 27.1829 80.7675 27.1787H80.1014V27.9812H79.7874V25.451H80.7675ZM80.7675 26.9049C80.8684 26.9199 80.9711 26.9199 81.072 26.9049C81.1544 26.8888 81.2304 26.8494 81.2908 26.7916C81.3538 26.7417 81.4029 26.6767 81.4336 26.6028C81.4489 26.5185 81.4489 26.4322 81.4336 26.3479C81.4497 26.2605 81.4497 26.171 81.4336 26.0836C81.4 26.014 81.3513 25.9527 81.2908 25.9042C81.2255 25.8534 81.1513 25.815 81.072 25.7909C80.9708 25.7805 80.8687 25.7805 80.7675 25.7909H80.1014V26.9805L80.7675 26.9049ZM80.8436 27.0465H81.1576L81.8047 27.9906H81.4812L80.8436 27.0465Z" fill="#67686B"/>
<path d="M86.6004 25.9136L86.4386 25.8286L86.2388 25.7719H86.058H85.8677H85.6964C85.5811 25.7863 85.4756 25.8436 85.4014 25.9324C85.3617 25.9837 85.3414 26.0472 85.3444 26.1118C85.3444 26.1833 85.3677 26.2529 85.411 26.3101C85.4532 26.369 85.5086 26.4174 85.5727 26.4517C85.6436 26.4943 85.7206 26.5262 85.8011 26.5461L86.058 26.631L86.3244 26.7255C86.4038 26.7581 86.4776 26.8027 86.5433 26.8577C86.61 26.9123 86.665 26.9797 86.705 27.0559C86.755 27.1505 86.7812 27.2558 86.7812 27.3627C86.7812 27.4696 86.755 27.5749 86.705 27.6696C86.6497 27.7576 86.5749 27.8318 86.4862 27.8867C86.395 27.9428 86.2954 27.9842 86.1912 28.0094C86.0804 28.0187 85.969 28.0187 85.8582 28.0094H85.5918L85.3348 27.9339L85.0874 27.8111C85.0137 27.763 84.9437 27.7093 84.8781 27.6507L85.0208 27.3957L85.2016 27.5468L85.411 27.6601L85.6393 27.7262H85.8677C85.934 27.7355 86.0012 27.7355 86.0675 27.7262C86.1277 27.7132 86.1855 27.6909 86.2388 27.6601C86.2967 27.6329 86.3461 27.5904 86.3815 27.5374C86.4213 27.4825 86.4414 27.416 86.4386 27.3485C86.443 27.2706 86.4194 27.1937 86.372 27.1314C86.3335 27.0727 86.2812 27.0241 86.2197 26.9898C86.1469 26.951 86.0704 26.9194 85.9914 26.8954L85.725 26.8104L85.4681 26.7255C85.3876 26.6892 85.3111 26.6449 85.2397 26.5933C85.173 26.5386 85.118 26.4712 85.078 26.395C85.0295 26.3086 85.0064 26.2105 85.0113 26.1118C85.0077 26.0018 85.0375 25.8932 85.0969 25.8003C85.1519 25.7204 85.2233 25.6528 85.3063 25.602C85.3946 25.5492 85.491 25.5109 85.5918 25.4887C85.6962 25.4795 85.8013 25.4795 85.9058 25.4887H86.1151L86.3339 25.5359C86.4034 25.5527 86.4706 25.5781 86.5338 25.6115L86.7241 25.7059L86.6004 25.9136Z" fill="#67686B"/>
</g>
<defs>
<clipPath id="clip0_150_20">
<rect width="74" height="26" fill="white" transform="translate(13 2)"/>
</clipPath>
</defs>
</svg>
