<svg width="100" height="30" viewBox="0 0 100 30" fill="none" xmlns="http://www.w3.org/2000/svg">
<g clip-path="url(#clip0_150_23)">
<path d="M92.4367 19.9021H86.8326C86.587 19.8698 86.3543 19.7685 86.1591 19.6087C85.1806 18.8082 84.1894 18.048 83.2745 17.1809C83.0097 16.9078 82.6821 16.7114 82.3236 16.6109C81.965 16.5104 81.5877 16.5089 81.2286 16.607V20.0757H77.3275V6.73498H77.8738C81.0634 6.73498 84.2276 6.73498 87.4553 6.73498C88.4719 6.69732 89.4888 6.80046 90.4797 7.04179C90.9755 7.14272 91.4296 7.40202 91.7799 7.78406C92.1302 8.16611 92.3595 8.6524 92.4367 9.17644C92.7669 10.844 92.7669 12.5648 92.4367 14.2323C92.342 14.7422 92.1076 15.2122 91.7622 15.5843C91.4168 15.9564 90.9755 16.2144 90.4924 16.3269C89.9714 16.4736 89.425 16.5403 88.8151 16.6604L92.4367 19.9021ZM87.5062 13.2318C88.4719 13.0583 88.6879 12.7917 88.7133 11.7778C88.7133 11.471 88.7133 11.1509 88.7133 10.844C88.7112 10.607 88.6258 10.3789 88.4733 10.204C88.3209 10.0292 88.112 9.9196 87.8873 9.89657C87.7184 9.87685 87.548 9.87685 87.3791 9.89657H81.7115H81.2795V13.2451C81.2795 13.5519 81.5336 13.4721 81.7115 13.4721H87.163C87.3028 13.4188 87.4935 13.4588 87.5062 13.1787V13.2318Z" fill="#084E8F"/>
<path d="M41.0603 10.0166V6.66809H56.3093C56.3093 7.62862 56.3093 8.56263 56.3093 9.49649C56.256 9.70317 56.1284 9.87994 55.9534 9.98992C53.8567 11.6175 51.7345 13.2319 49.5997 14.8461L47.4903 16.4603C47.3654 16.5424 47.2745 16.6711 47.2361 16.8205L56.5253 16.7137V20.0489H40.7553C40.7553 19.0483 40.7553 18.0745 40.7553 17.0873C40.7553 16.9272 40.9841 16.7403 41.1493 16.6202L46.0925 12.8317C47.2235 11.9645 48.3544 11.0974 49.4726 10.1635C49.5743 10.1635 49.6633 10.0034 49.8666 9.83L41.0603 10.0166Z" fill="#084E8F"/>
<path d="M62.8663 17.781L61.6718 20.0755H57.2496L59.0414 16.4869C60.6171 13.3652 62.1928 10.2568 63.7431 7.14842C63.8024 6.98616 63.9098 6.84795 64.0493 6.75432C64.1888 6.6607 64.3532 6.6164 64.5184 6.62795C66.1958 6.62795 67.8731 6.62795 69.6014 6.62795C69.745 6.60714 69.8913 6.63486 70.0191 6.70677C70.147 6.77868 70.2498 6.89113 70.3129 7.02824C72.3969 11.2706 74.5148 15.5041 76.6666 19.7287C76.7227 19.8536 76.7694 19.983 76.8064 20.1156H75.6247C74.6843 20.1156 73.7566 20.1156 72.8162 20.1156C72.6929 20.1325 72.5678 20.1047 72.4615 20.0368C72.3552 19.9688 72.2741 19.8648 72.2317 19.742C71.9268 19.0883 71.5836 18.408 71.2532 17.7943C71.177 17.4475 70.9101 17.594 70.7322 17.594H63.4127C63.1585 17.5807 62.9299 17.4608 62.8663 17.781ZM64.1371 14.7793C66.0021 14.9354 67.8761 14.9354 69.7411 14.7793C68.9787 13.2184 68.2289 11.6442 67.4537 10.0833C67.3991 9.99802 67.3253 9.92808 67.2389 9.87976C67.1525 9.83144 67.056 9.80615 66.9581 9.80615C66.8602 9.80615 66.7638 9.83144 66.6773 9.87976C66.5909 9.92808 66.5171 9.99802 66.4625 10.0833C65.7509 11.5908 65.0013 13.1517 64.2007 14.7793H64.1371Z" fill="#084E8F"/>
<path d="M40.1072 20.0623H36.0663V6.72156H40.1072V20.0623Z" fill="#084E8F"/>
<path d="M30.9706 13.0318L21.8593 13.1386L20.5886 8.86931C23.5621 8.52245 28.8993 10.0034 30.9706 13.0318Z" fill="#084E8F"/>
<path d="M14.654 18.6347L13.2817 22.9037C10.181 20.8359 7.10584 16.3802 7.24562 13.0851L14.654 18.6347Z" fill="#084E8F"/>
<path d="M19.0764 4L16.3443 13.0985H12.1C12.3796 9.8967 16.3189 4.73374 19.0764 4Z" fill="#084E8F"/>
<path d="M11.7949 27.7066L19.0128 22.0635L22.5583 24.7316C19.2925 27.173 15.8613 28.6538 11.7949 27.7066Z" fill="#084E8F"/>
<path d="M26.4467 27.7866L23.6002 18.6614L26.9423 16.1001C26.9423 16.1001 27.0566 16.1001 27.0693 16.1001C28.108 19.0967 28.25 22.355 27.4761 25.4386C27.2714 26.2803 26.9225 27.0759 26.4467 27.7866Z" fill="#084E8F"/>
<path d="M81.432 26.6926C80.9491 26.6926 80.4535 26.6926 79.9706 26.6926C79.2971 26.6926 79.005 26.359 78.9668 25.652C78.9287 24.9449 78.9668 24.4515 78.9668 23.8512C78.9668 23.2509 79.2844 22.8506 79.9833 22.8239C80.9491 22.8239 81.9276 22.8239 82.9061 22.8239C83.0395 22.8074 83.1748 22.8222 83.302 22.8676C83.4292 22.913 83.545 22.9877 83.6412 23.0861C83.7374 23.1846 83.8115 23.3042 83.8579 23.4366C83.9044 23.5689 83.9222 23.7107 83.9099 23.8512C83.948 24.433 83.948 25.0167 83.9099 25.5986C83.9099 26.359 83.5795 26.6526 82.8298 26.706H81.432V26.6926ZM81.432 25.6787H81.6861C82.8806 25.6787 82.8806 25.6787 82.8425 24.3446C82.8462 24.2718 82.8353 24.1991 82.8104 24.131C82.7855 24.0629 82.7472 24.0008 82.6981 23.9492C82.649 23.8976 82.59 23.8578 82.5251 23.8316C82.4603 23.8055 82.3909 23.7939 82.3215 23.7978C81.767 23.7644 81.2113 23.7644 80.6569 23.7978C80.2502 23.7978 80.1358 23.9578 80.1231 24.3847C80.1231 25.6387 79.996 25.7188 81.2414 25.7188L81.432 25.6787Z" fill="#084E8F"/>
<path d="M66.3609 25.2517H64.9631V24.4915H67.4283C67.4283 24.9585 67.4283 25.4121 67.4283 25.8256C67.4152 26.009 67.3424 26.1818 67.222 26.3155C67.1017 26.4491 66.9412 26.5351 66.7675 26.5591C66.626 26.5988 66.4814 26.6257 66.3355 26.6392C65.4841 26.6392 64.6327 26.6392 63.794 26.6392C62.9553 26.6392 62.7011 26.2925 62.663 25.4921C62.6187 24.9105 62.6187 24.326 62.663 23.7444C62.7266 23.1307 62.9808 22.8373 63.5526 22.7972C64.5438 22.7972 65.5477 22.7972 66.5389 22.7972C67.2378 22.7972 67.4537 23.2241 67.4156 24.1313H66.6659C66.5642 24.1313 66.3991 24.1313 66.3737 24.0645C66.1703 23.5976 65.7637 23.7444 65.4333 23.731C65.0528 23.6976 64.6702 23.6976 64.2896 23.731C63.883 23.731 63.7558 23.891 63.7558 24.3179C63.7558 25.7587 63.6796 25.7455 65.0266 25.7321H65.9924C66.183 25.7588 66.3609 25.6653 66.3609 25.2517Z" fill="#084E8F"/>
<path d="M76.0822 22.7305L77.6071 22.8106C78.2043 22.8106 78.4839 23.0906 78.5347 23.7043C78.5857 24.3926 78.5857 25.084 78.5347 25.7722C78.5424 25.8911 78.5256 26.0103 78.4854 26.1217C78.4451 26.2331 78.3824 26.3341 78.3016 26.4177C78.2207 26.5014 78.1236 26.5654 78.0169 26.606C77.9102 26.6466 77.7965 26.6625 77.6834 26.6526C76.616 26.6526 75.5612 26.6526 74.4938 26.6526C74.3806 26.6601 74.2671 26.6427 74.1608 26.6014C74.0544 26.5602 73.9575 26.4961 73.8761 26.4132C73.7947 26.3303 73.7307 26.2304 73.6883 26.12C73.6458 26.0096 73.6259 25.8912 73.6296 25.7722C73.5789 25.1062 73.5789 24.4371 73.6296 23.7711C73.6296 23.0907 73.9728 22.8506 74.6336 22.7839H75.396H76.095L76.0822 22.7305ZM76.0822 25.6787H76.3363C77.6071 25.6787 77.4673 25.6787 77.4546 24.3446C77.4546 23.9844 77.2894 23.7844 76.9717 23.7711C76.3791 23.7377 75.7852 23.7377 75.1926 23.7711C75.1027 23.7835 75.0175 23.8209 74.946 23.8795C74.8745 23.9382 74.8193 24.016 74.7861 24.1046C74.6929 24.5439 74.6929 24.9994 74.7861 25.4387C74.9258 25.8122 75.3833 25.6387 75.7137 25.6654L76.0822 25.6787Z" fill="#084E8F"/>
<path d="M58.3044 26.6526H57.1734V22.824C57.7579 22.824 58.3678 22.824 58.965 22.824C59.0921 22.824 59.232 23.0241 59.3336 23.1575C59.8165 23.8512 60.2867 24.5714 60.7696 25.2785C60.8331 25.3852 60.9093 25.4787 61.0745 25.7188V22.8373H62.1801V26.666C61.6337 26.666 61.0873 26.666 60.5409 26.666C60.3445 26.6172 60.1724 26.4936 60.058 26.3191C59.6133 25.6921 59.1939 24.9851 58.7873 24.4114C58.6457 24.1939 58.4928 23.9847 58.3297 23.7845L58.3044 26.6526Z" fill="#084E8F"/>
<path d="M88.4084 25.3853H89.1708L89.2853 25.4788C89.4124 25.5855 89.5394 25.7456 89.6791 25.7589C90.2891 25.7589 90.95 25.7589 91.5091 25.7589C91.687 25.372 91.5852 25.212 91.2421 25.1987C90.5432 25.1987 89.8443 25.1986 89.1454 25.0652C88.4465 24.9318 88.2686 24.7582 88.2686 23.9578C88.2686 23.1573 88.51 22.8106 89.1708 22.784C89.8316 22.7573 90.7847 22.784 91.5853 22.784C92.3858 22.784 92.551 23.0773 92.5383 23.9711C92.119 23.9711 91.687 24.198 91.3439 23.7311C91.3439 23.6644 91.1533 23.651 91.0389 23.651C90.6196 23.651 90.2002 23.651 89.7682 23.651C89.6193 23.6885 89.4744 23.7423 89.336 23.8112V23.9845C89.4863 24.0599 89.644 24.1182 89.8062 24.1581L91.5218 24.2512C91.7404 24.2312 91.9598 24.2761 92.1552 24.3809C92.3505 24.4856 92.5138 24.6461 92.6264 24.8437C92.7391 25.0413 92.7966 25.2681 92.7923 25.4984C92.7879 25.7286 92.722 25.9531 92.6019 26.1458C92.5453 26.2826 92.4534 26.3997 92.3367 26.4846C92.2199 26.5694 92.0829 26.6184 91.9411 26.6259C90.9499 26.6259 89.9461 26.6259 88.9549 26.6259C88.4593 26.6259 88.3449 26.3592 88.2814 25.7589V25.5853C88.2688 25.5706 88.262 25.5519 88.262 25.5322C88.262 25.5125 88.2688 25.4935 88.2814 25.4788L88.4084 25.3853Z" fill="#084E8F"/>
<path d="M39.6752 25.1987H40.7299C40.7481 25.3359 40.7481 25.4748 40.7299 25.612C40.7299 26.2791 40.5138 26.6126 39.9038 26.6526C38.9304 26.7126 37.9546 26.7126 36.9812 26.6526C36.8623 26.6612 36.743 26.6424 36.6319 26.5973C36.5207 26.5521 36.4204 26.4818 36.3379 26.3914C36.2555 26.3011 36.1929 26.1927 36.1547 26.0742C36.1166 25.9556 36.1037 25.8298 36.117 25.7055C36.117 25.0651 36.117 24.3715 36.117 23.7712C36.117 23.1708 36.3712 22.9038 36.8922 22.8771C37.908 22.817 38.9262 22.817 39.942 22.8771C40.4757 22.8771 40.641 23.264 40.6664 24.2112C40.2471 24.2112 39.7769 24.5047 39.3957 23.9444C39.3957 23.8644 39.1796 23.8379 39.0525 23.8379H37.7818C37.7177 23.8285 37.6524 23.8332 37.5902 23.8523C37.528 23.8713 37.4704 23.9039 37.4211 23.948C37.3719 23.9921 37.3321 24.0468 37.3045 24.1083C37.2768 24.1697 37.2619 24.2367 37.2607 24.3046C37.2669 24.3712 37.2669 24.4384 37.2607 24.505C37.1083 25.5856 37.2607 25.839 38.3408 25.839H39.1034C39.4084 25.719 39.6752 25.6123 39.6752 25.1987Z" fill="#084E8F"/>
<path d="M44.7328 22.8506H45.8384C45.8384 23.8111 45.8384 24.7715 45.8384 25.7187C45.8385 25.8448 45.8143 25.9695 45.7672 26.0855C45.7201 26.2014 45.6513 26.3063 45.5646 26.3936C45.4779 26.4808 45.3753 26.5487 45.2629 26.5932C45.1505 26.6377 45.0308 26.6579 44.9108 26.6525C43.9831 26.6525 43.0428 26.6525 42.1152 26.6525C41.9958 26.6598 41.8763 26.6414 41.764 26.5984C41.6517 26.5554 41.5489 26.4889 41.462 26.4027C41.3751 26.3165 41.306 26.2125 41.2588 26.0972C41.2116 25.9819 41.1872 25.8576 41.1874 25.7321C41.1681 25.4879 41.1681 25.2424 41.1874 24.9983V22.8506H42.3184V24.7849C42.3184 25.5987 42.3184 25.6653 43.1571 25.6787C43.5129 25.6787 43.8814 25.6787 44.2372 25.6787C44.593 25.6787 44.7583 25.532 44.771 25.0917C44.7456 24.358 44.7328 23.7044 44.7328 22.8506Z" fill="#084E8F"/>
<path d="M70.6433 23.8112H69.0167V22.864H73.4136V23.7844H71.8252V26.6392H70.6433V23.8112Z" fill="#084E8F"/>
<path d="M53.5391 26.5724H52.4208V23.8378H50.7815V22.8506H55.1402V23.8111H53.6152C53.4943 24.7258 53.4476 25.6494 53.4755 26.5724H53.5391Z" fill="#084E8F"/>
<path d="M88.2686 25.5985V25.7721C87.8746 25.9589 88.2686 26.3457 87.989 26.6391H84.4182C84.3001 25.3793 84.3001 24.1105 84.4182 22.8506H85.5619V25.5985H88.2686Z" fill="#084E8F"/>
<path d="M47.719 26.3725V23.8112L46.1432 23.731V22.7972H50.4765V23.7043L48.9008 23.8245C48.6086 23.8245 48.6975 24.1178 48.6975 24.3046C48.6975 24.985 48.6975 25.6387 48.6975 26.3725H47.719Z" fill="#084E8F"/>
<path d="M56.6269 26.6525H55.5087V22.8506H56.6269V26.6525Z" fill="#084E8F"/>
<path d="M62.8663 17.7812C62.8663 17.461 63.1586 17.5809 63.3238 17.5809H70.6433C70.8212 17.5809 71.0881 17.4344 71.1644 17.7812H62.8663Z" fill="#084E8F"/>
<path d="M47.719 26.3724H48.6975C48.6975 25.6654 48.6975 25.0383 48.6975 24.3045C48.6975 24.1178 48.6086 23.8778 48.9009 23.8245V26.6258C48.5323 26.6258 48.1893 26.6258 47.8335 26.6258C47.7954 26.6658 47.7571 26.5192 47.719 26.3724Z" fill="#084E8F"/>
<path d="M81.2795 13.1786H87.5316C87.5316 13.4587 87.3282 13.4186 87.1631 13.4186H81.7115C81.5082 13.4053 81.2795 13.4854 81.2795 13.1786Z" fill="#084E8F"/>
</g>
<defs>
<clipPath id="clip0_150_23">
<rect width="86" height="24" fill="white" transform="translate(7 4)"/>
</clipPath>
</defs>
</svg>
