<svg width="100" height="30" viewBox="0 0 100 30" fill="none" xmlns="http://www.w3.org/2000/svg">
<g clip-path="url(#clip0_150_25)">
<path d="M47.5741 3.04663H52.6752L57.0476 19.5112H51.63L51.2657 17.6969H45.9057L45.081 19.5112H39.9704C40.7854 17.5604 41.6676 15.8048 42.5018 13.9906C43.336 12.1764 44.1894 10.3621 45.0236 8.54792C45.8578 6.73371 46.7207 4.8901 47.5741 3.04663ZM47.5741 13.893C48.5817 14.0459 49.606 14.0459 50.6136 13.893L49.6548 9.30874H49.5589L47.5741 13.893Z" fill="#E9262B"/>
<path d="M65.9073 7.09461H62.7527C61.6979 7.09461 60.6336 7.09461 59.5117 7.09461L59.9337 3.08569H74.0383C73.1658 4.53901 72.2549 5.85576 71.3823 7.21154L68.7071 11.3276L66.0128 15.4925H72.926L72.5042 19.5795C67.71 19.5795 62.9157 19.5795 58.1215 19.4917C60.7104 15.3561 63.3663 11.3082 66.0128 7.25059L65.9073 7.09461Z" fill="#E9262B"/>
<path d="M26.0575 12.9858H31.2737C31.3062 13.0873 31.3286 13.1917 31.3408 13.2978C31.3408 13.4441 31.3408 13.5906 31.3408 13.7369C31.3298 14.0533 31.4242 14.364 31.6087 14.6189C31.7932 14.8739 32.057 15.058 32.3572 15.1414C32.7077 15.2634 33.0886 15.2605 33.4372 15.1328C33.7858 15.0052 34.0813 14.7605 34.2749 14.4391C34.5667 13.8488 34.7209 13.1977 34.7255 12.537C34.9812 10.3911 35.2338 8.2389 35.4831 6.08005C35.5789 5.20221 35.6748 4.3244 35.7802 3.43681C35.7802 3.32951 35.7803 3.22215 35.8378 3.11485C37.5293 2.98287 39.2282 2.98287 40.9197 3.11485L40.7183 4.98751C40.5362 6.62615 40.3731 8.25504 40.1813 9.86442C39.9896 11.4738 39.8937 13.0443 39.5964 14.6049C39.4119 15.9221 38.8055 17.1405 37.8712 18.0716C36.9368 19.0026 35.7266 19.5944 34.4282 19.7549C32.8043 20.1142 31.1129 19.9888 29.5573 19.3939C28.6505 19.0489 27.8515 18.4622 27.2442 17.6951C26.6369 16.928 26.2436 16.0088 26.1055 15.034C25.9842 14.358 25.968 13.6669 26.0575 12.9858Z" fill="#E9262B"/>
<path d="M30.2668 24.8465L30.0655 24.7391L29.8545 24.6514L29.6244 24.5928H29.4135H29.2696H29.1449C29.103 24.6084 29.0687 24.64 29.0491 24.6807C29.0337 24.7249 29.0337 24.773 29.0491 24.8172C29.0469 24.8511 29.0518 24.8853 29.0634 24.9172C29.0749 24.9491 29.093 24.978 29.1163 25.0024C29.1626 25.0545 29.2177 25.0976 29.2792 25.1294C29.3596 25.1659 29.4431 25.1952 29.5285 25.217L29.797 25.3049L30.0751 25.4123C30.1648 25.4526 30.2487 25.505 30.3244 25.5682C30.3924 25.6355 30.4475 25.7148 30.4874 25.8023C30.5364 25.9055 30.5595 26.0195 30.5545 26.134C30.5596 26.2707 30.5262 26.4059 30.4586 26.5241C30.3987 26.6319 30.313 26.7226 30.2094 26.7875C30.1018 26.8551 29.9855 26.9075 29.8641 26.9434C29.7334 26.9571 29.6017 26.9571 29.471 26.9434C29.3596 26.9578 29.2468 26.9578 29.1353 26.9434C29.0276 26.9234 28.9218 26.8942 28.819 26.8558C28.7154 26.817 28.616 26.7678 28.5218 26.7094C28.4258 26.6589 28.3383 26.5931 28.2629 26.5143L28.493 26.0559C28.5591 26.1165 28.6296 26.1719 28.7039 26.2217C28.7828 26.2747 28.8663 26.3205 28.9532 26.3583L29.2121 26.4557H29.471H29.634L29.7874 26.4072C29.8342 26.3821 29.8739 26.345 29.9025 26.2998C29.9193 26.2492 29.9193 26.1944 29.9025 26.1438C29.9046 26.1098 29.8998 26.0757 29.8882 26.0438C29.8766 26.0119 29.8587 25.9827 29.8354 25.9583C29.7919 25.9033 29.7359 25.8599 29.6724 25.8316L29.423 25.734L29.1449 25.6561L28.867 25.5487C28.7784 25.5119 28.6972 25.4591 28.6272 25.3927C28.5573 25.3288 28.4988 25.2529 28.4546 25.1684C28.4103 25.0671 28.3875 24.9574 28.3875 24.8465C28.3875 24.7135 28.4205 24.5827 28.4834 24.4662C28.5452 24.3657 28.6268 24.2793 28.7231 24.2126C28.8276 24.1412 28.9449 24.0914 29.0683 24.0661C29.1989 24.0512 29.3308 24.0512 29.4614 24.0661H29.7299C29.8213 24.0753 29.9113 24.0949 29.9983 24.1247L30.2572 24.2223L30.497 24.349L30.2668 24.8465Z" fill="#E9262B"/>
<path d="M31.9929 25.8219C31.973 25.925 31.973 26.031 31.9929 26.1341C32.02 26.2184 32.066 26.2952 32.1271 26.3584C32.1861 26.4268 32.2624 26.4773 32.3477 26.5046C32.4392 26.5259 32.5341 26.5259 32.6256 26.5046C32.714 26.5248 32.8058 26.5248 32.8941 26.5046C32.9766 26.4771 33.0497 26.4264 33.1051 26.3584C33.1662 26.2952 33.2122 26.2184 33.2393 26.1341C33.2547 26.0306 33.2547 25.9254 33.2393 25.8219V24.1248H33.8051V25.8219C33.8078 25.995 33.7784 26.167 33.7187 26.3291C33.6678 26.4754 33.586 26.6085 33.479 26.7192C33.3652 26.8262 33.2316 26.909 33.086 26.963C32.9214 27.015 32.7501 27.0414 32.5778 27.0411C32.3992 27.0413 32.2215 27.0149 32.0504 26.963C31.9065 26.9112 31.7756 26.828 31.6668 26.7192C31.554 26.6115 31.4684 26.4777 31.4175 26.3291C31.3578 26.167 31.3286 25.995 31.3312 25.8219V24.1248H31.8969L31.9929 25.8219Z" fill="#E9262B"/>
<path d="M36.183 24.0759C36.3451 24.076 36.5065 24.0991 36.6624 24.1443C36.7957 24.1833 36.9197 24.2497 37.0268 24.3393C37.1234 24.4265 37.2016 24.5327 37.2569 24.6515C37.3088 24.7849 37.3349 24.9273 37.3336 25.0708C37.3347 25.2207 37.3088 25.3694 37.2569 25.5097C37.2028 25.632 37.1244 25.7416 37.0268 25.8317C36.9204 25.9246 36.7964 25.9942 36.6624 26.0365C36.5075 26.0864 36.3454 26.1096 36.183 26.1048H35.5597V26.9533H34.9844V24.0759H36.183ZM36.183 25.6269C36.269 25.6375 36.3559 25.6375 36.4419 25.6269C36.5116 25.6031 36.5765 25.5666 36.6336 25.5195C36.6876 25.4773 36.7277 25.4196 36.7487 25.3537C36.765 25.2733 36.765 25.1903 36.7487 25.1099C36.7651 25.036 36.7651 24.9594 36.7487 24.8856C36.7243 24.8215 36.6847 24.7647 36.6336 24.7198C36.5784 24.6721 36.5126 24.6385 36.4419 24.6222C36.3563 24.6067 36.2686 24.6067 36.183 24.6222H35.5597V25.6952L36.183 25.6269ZM36.183 25.8902H36.7391L37.4294 26.9533H36.7871L36.183 25.8902Z" fill="#E9262B"/>
<path d="M38.3787 24.0759H40.3539V24.5539H38.9541V25.344H40.2293V25.8121H38.9541V26.9533H38.3787V24.0759Z" fill="#E9262B"/>
<path d="M41.984 24.0759H42.5689L43.7866 26.9533H43.1729L42.2141 24.6613L41.2552 26.9533H40.6703L41.984 24.0759ZM41.4087 25.8805H43.0771V26.3389H41.4087V25.8805Z" fill="#E9262B"/>
<path d="M46.5865 24.9051C46.5369 24.8482 46.4823 24.7958 46.4234 24.7489C46.3639 24.7028 46.2997 24.6637 46.2317 24.632C46.1695 24.5944 46.1014 24.568 46.0304 24.5539C45.9636 24.5444 45.8958 24.5444 45.829 24.5539C45.7037 24.5554 45.5799 24.582 45.4646 24.632C45.3537 24.6806 45.2529 24.75 45.1674 24.8368C45.0872 24.9294 45.0223 25.0349 44.9756 25.1489C44.9254 25.2727 44.8994 25.4051 44.8989 25.539C44.8992 25.6697 44.9252 25.7992 44.9756 25.9195C45.0223 26.0335 45.0872 26.1388 45.1674 26.2315C45.2529 26.3182 45.3537 26.3876 45.4646 26.4363C45.578 26.492 45.7031 26.5188 45.829 26.5144H46.0304L46.2317 26.446L46.4138 26.3389L46.5865 26.1924L46.9221 26.5437C46.8491 26.6199 46.7688 26.6885 46.6824 26.7485C46.5961 26.8115 46.5027 26.864 46.4042 26.9047C46.3084 26.949 46.209 26.9848 46.1071 27.0118H45.8002C45.5994 27.0137 45.4004 26.974 45.2153 26.8949C45.038 26.8274 44.8775 26.7207 44.7455 26.5827C44.6112 26.451 44.5066 26.2913 44.4387 26.1146C44.3601 25.9299 44.3209 25.7304 44.3236 25.5292C44.322 25.3313 44.3612 25.1354 44.4387 24.9539C44.5147 24.7793 44.622 24.6203 44.7551 24.4855C44.8923 24.354 45.0513 24.2485 45.2249 24.1736C45.4153 24.1025 45.6165 24.0661 45.8194 24.0662H46.1263C46.2248 24.0898 46.321 24.1226 46.4138 24.1638C46.5081 24.2028 46.5982 24.2518 46.6824 24.31C46.767 24.3608 46.8445 24.4231 46.9125 24.4953L46.5865 24.9051Z" fill="#E9262B"/>
<path d="M47.8042 24.0759H49.904V24.5539H48.3699V25.2756H49.7411V25.7438H48.3699V26.4753H49.9424V26.9533H47.7946L47.8042 24.0759Z" fill="#E9262B"/>
<path d="M52.4738 24.0759H54.5736V24.5539H53.0491V25.2756H54.4107V25.7438H53.0491V26.4753H54.6216V26.9533H52.4738V24.0759Z" fill="#E9262B"/>
<path d="M55.3599 24.0759H56.0215L56.6544 25.0513L57.2968 24.0759H57.9584L56.9995 25.4609L58.0255 26.9533H57.3447L56.6352 25.9195L55.9352 26.9533H55.2736L56.29 25.4902L55.3599 24.0759Z" fill="#E9262B"/>
<path d="M59.9816 24.0759C60.1436 24.078 60.3047 24.101 60.461 24.1443C60.5881 24.1842 60.7057 24.2506 60.8062 24.3393C60.9036 24.4236 60.9792 24.5308 61.0267 24.6515C61.0824 24.7838 61.1087 24.927 61.1035 25.0708C61.1096 25.2211 61.0834 25.3708 61.0267 25.5097C60.9792 25.6332 60.9037 25.7436 60.8062 25.8317C60.7054 25.9223 60.5882 25.9919 60.461 26.0365C60.3058 26.085 60.144 26.1082 59.9816 26.1048H59.1282L59.3775 25.8512V26.9533H58.8118V24.0759H59.9816ZM59.9816 25.6269C60.0676 25.6375 60.1545 25.6375 60.2405 25.6269C60.3111 25.6051 60.3764 25.5685 60.4322 25.5195C60.4888 25.4799 60.5296 25.4212 60.5473 25.3537C60.5636 25.2733 60.5636 25.1903 60.5473 25.1099C60.5637 25.036 60.5637 24.9594 60.5473 24.8856C60.5296 24.8181 60.4888 24.7594 60.4322 24.7198C60.3781 24.6703 60.3119 24.6365 60.2405 24.6222C60.1549 24.6067 60.0672 24.6067 59.9816 24.6222H59.157L59.4063 24.3686V25.9486L59.157 25.6952L59.9816 25.6269Z" fill="#E9262B"/>
<path d="M61.9664 24.0759H64.0567V24.5539H62.5321V25.2756H63.9032V25.7438H62.5321V26.4753H64.1046V26.9533H61.9664V24.0759Z" fill="#E9262B"/>
<path d="M66.2908 24.0759C66.456 24.0772 66.6204 24.1002 66.7798 24.1443C66.9131 24.1833 67.0371 24.2497 67.1442 24.3393C67.2415 24.4236 67.3173 24.5308 67.3648 24.6515C67.4205 24.7838 67.4466 24.927 67.4415 25.0708C67.4476 25.2211 67.4214 25.3708 67.3648 25.5097C67.3173 25.6332 67.2417 25.7436 67.1442 25.8317C67.0377 25.9246 66.9137 25.9942 66.7798 26.0365C66.6214 26.0857 66.4563 26.1089 66.2908 26.1048H65.6676V26.9533H65.1018V24.0759H66.2908ZM66.2908 25.6269C66.3768 25.6375 66.4637 25.6375 66.5497 25.6269C66.6223 25.603 66.6905 25.5666 66.7511 25.5195C66.8022 25.4746 66.8417 25.4178 66.8662 25.3537C66.8825 25.2733 66.8825 25.1903 66.8662 25.1099C66.8823 25.036 66.8823 24.9594 66.8662 24.8856C66.8417 24.8215 66.8022 24.7647 66.7511 24.7198C66.6923 24.672 66.6233 24.6385 66.5497 24.6222C66.4641 24.6067 66.3764 24.6067 66.2908 24.6222H65.6676V25.6952L66.2908 25.6269ZM66.2908 25.8902H66.847L67.5373 26.9533H66.8949L66.2908 25.8902Z" fill="#E9262B"/>
<path d="M68.151 24.0759H70.4715V24.5636H69.5989V26.9533H69.0236V24.5636H68.151V24.0759Z" fill="#E9262B"/>
<path d="M73.0699 24.8465L72.8782 24.7391L72.6575 24.6514L72.437 24.5928H72.2165H72.0822H71.948C71.9095 24.6137 71.8766 24.644 71.8521 24.6807C71.8368 24.7249 71.8368 24.773 71.8521 24.8172C71.85 24.8511 71.8548 24.8853 71.8664 24.9172C71.878 24.9491 71.896 24.978 71.9193 25.0024C71.9672 25.0568 72.026 25.1002 72.0918 25.1294C72.1683 25.1676 72.2487 25.1968 72.3315 25.217L72.6097 25.3049L72.8876 25.4123C72.9743 25.4527 73.055 25.5051 73.1274 25.5682C73.1953 25.6377 73.2534 25.7165 73.3 25.8023C73.3443 25.9071 73.3671 26.02 73.3671 26.134C73.3671 26.2701 73.3342 26.404 73.2712 26.5241C73.2052 26.6271 73.1206 26.7164 73.0219 26.7875C72.9118 26.8569 72.7923 26.9094 72.6671 26.9434C72.5365 26.9577 72.4047 26.9577 72.2741 26.9434C72.1659 26.9577 72.0562 26.9577 71.948 26.9434C71.8397 26.9258 71.7337 26.8966 71.6316 26.8558C71.5273 26.819 71.4275 26.7697 71.3343 26.7094C71.2368 26.6566 71.1466 26.5911 71.0659 26.5143L71.3056 26.0559C71.3698 26.1188 71.4405 26.1743 71.5165 26.2217C71.5922 26.2745 71.6724 26.3204 71.7563 26.3583L72.0248 26.4557C72.1108 26.4653 72.1975 26.4653 72.2836 26.4557H72.4466L72.6001 26.4072C72.6421 26.3792 72.678 26.3425 72.7055 26.2998C72.7387 26.2549 72.7557 26.1999 72.7535 26.1438C72.7537 26.0758 72.7299 26.0099 72.6863 25.9583C72.6372 25.9053 72.5787 25.8624 72.5138 25.8316C72.437 25.7916 72.3568 25.7588 72.2741 25.734L71.996 25.6561L71.7179 25.5487C71.6264 25.512 71.542 25.4593 71.4686 25.3927C71.3988 25.331 71.3432 25.2544 71.3056 25.1684C71.2566 25.0687 71.2335 24.9578 71.2384 24.8465C71.2351 24.7143 71.2647 24.5835 71.3247 24.4662C71.3888 24.3675 71.4701 24.2816 71.5644 24.2126C71.6704 24.144 71.7872 24.0943 71.9097 24.0661C72.0403 24.0512 72.1721 24.0512 72.3028 24.0661H72.5713C72.6656 24.0762 72.7588 24.0959 72.8494 24.1247L73.1083 24.2223L73.3384 24.349L73.0699 24.8465Z" fill="#E9262B"/>
</g>
<defs>
<clipPath id="clip0_150_25">
<rect width="48" height="24" fill="white" transform="translate(26 3)"/>
</clipPath>
</defs>
</svg>
