<svg width="100" height="30" viewBox="0 0 100 30" fill="none" xmlns="http://www.w3.org/2000/svg">
<g clip-path="url(#clip0_150_24)">
<path d="M21.9013 12.8896H14.8141V16.8774H25.5206V10.0306H14.8141V10.7301H21.9013V12.8896ZM21.9013 16.0185H18.6079V13.5645H21.9013V16.0185Z" fill="#1B3A68"/>
<path d="M49.0865 10.681H56.162V12.8406H49.0865V16.8283H59.7813V9.98157H49.0865V10.681ZM56.162 15.9695H52.8803V13.5155H56.162V15.9695Z" fill="#1B3A68"/>
<path d="M36.7274 16.8895H40.7656V10.7423H44.0474V16.8895H47.5037V10.0306H36.7274V16.8895Z" fill="#1B3A68"/>
<path d="M35.1564 13.503V10.0306H27.0916V16.8895H30.5363V10.7423H32.1888V13.503H35.1564Z" fill="#1B3A68"/>
<path d="M72.2217 12.8159H65.0298V10.7423H72.2217V10.0306H61.364V13.8343L68.6606 13.8466V16.0184H61.364V16.8895H72.2217V12.8159Z" fill="#1B3A68"/>
<path d="M82.1019 16.0184H77.5866V10.73H82.1019V10.0306H73.7928V16.8895H82.1019V16.0184Z" fill="#1B3A68"/>
<path d="M87.525 7L83.6846 7.01227V16.8896H87.525L87.5134 10.7423L90.7369 10.7301V16.8896H94.2165V10.0675H87.5134L87.525 7Z" fill="#1B3A68"/>
<path d="M9.28631 11.2086L13.79 7H10.8108L5.78344 11.6871V10.3006V7H2.09436V16.8896H5.78344V12.546H6.78426L10.4268 16.8896H14.0577L9.28631 11.2086Z" fill="#1B3A68"/>
<path d="M18.4566 23H19.0501V21.908H20.9121V21.3927H19.0501V20.9019H20.9819V20.3743H18.4566V23Z" fill="#1B3A68"/>
<path d="M4.24732 20.4969C4.08017 20.4308 3.90184 20.4014 3.72354 20.4109H2.08276V22.9509H2.67629V22.178H3.77014C3.90558 22.1921 4.04198 22.1921 4.17742 22.178C4.27207 22.1496 4.35963 22.0991 4.43355 22.0306C4.50357 21.9643 4.55576 21.8797 4.58485 21.7853C4.59859 21.6548 4.59859 21.5231 4.58485 21.3926V21.2086C4.59231 21.0407 4.56442 20.8729 4.50331 20.7177C4.43908 20.6204 4.35046 20.544 4.24732 20.4969ZM4.03778 21.368C4.04248 21.4043 4.0386 21.4413 4.02641 21.4756C4.01423 21.5098 3.99418 21.5405 3.96803 21.5645C3.96803 21.5645 3.86323 21.5645 3.75849 21.5645H2.67629V20.9753H3.73519C3.81721 20.9661 3.89975 20.9879 3.96803 21.0367C3.99362 21.0638 4.0132 21.0968 4.02528 21.1329C4.03735 21.1689 4.04156 21.2074 4.03778 21.2455V21.368Z" fill="#1B3A68"/>
<path d="M23.7401 23H26.2654V22.4847H24.3336V21.908H26.2072V21.3927H24.3336V20.9019H26.2654V20.3743H23.7401V23Z" fill="#1B3A68"/>
<path d="M9.83318 21.9569C9.90549 21.9085 9.95913 21.8346 9.98447 21.7484C10.0077 21.631 10.0077 21.5098 9.98447 21.3925V21.2086C9.98894 21.0436 9.95712 20.8796 9.89142 20.7299C9.83075 20.604 9.72664 20.5074 9.60049 20.46C9.43715 20.3948 9.26296 20.3655 9.08851 20.374H7.24969V22.9508H7.84322V22.1657H9.00696C9.11598 22.1567 9.22417 22.1916 9.30955 22.2636C9.34704 22.2985 9.37614 22.3424 9.39436 22.3915C9.41257 22.4406 9.41934 22.4934 9.41425 22.5458V22.9508H10.0078V22.411C10.0322 22.2979 10.0322 22.1805 10.0078 22.0674C9.98738 22.0374 9.96137 22.0121 9.93134 21.9931C9.90132 21.9741 9.86789 21.9617 9.83318 21.9569ZM9.43754 21.3311C9.46091 21.3942 9.46091 21.4645 9.43754 21.5276C9.36648 21.557 9.28757 21.557 9.2165 21.5276H7.93627V20.9387H9.20485C9.28659 20.9332 9.36785 20.9544 9.43754 20.9998C9.46065 21.0672 9.46065 21.1412 9.43754 21.2086V21.3311Z" fill="#1B3A68"/>
<path d="M15.4775 20.6074C15.377 20.5029 15.2455 20.4377 15.105 20.4231C14.8982 20.3791 14.6877 20.3585 14.4767 20.3617H13.9529C13.7515 20.3451 13.5492 20.3451 13.3478 20.3617C13.2181 20.3898 13.0978 20.4534 12.9987 20.5459C12.9091 20.649 12.8486 20.7766 12.8241 20.9141C12.7825 21.1114 12.763 21.3132 12.7659 21.5153V21.8343C12.7526 22.0727 12.7884 22.3111 12.8707 22.5335C12.9 22.6118 12.9454 22.6823 13.0038 22.7396C13.0622 22.7969 13.132 22.8396 13.2081 22.8648C13.4466 22.9344 13.6941 22.9634 13.9413 22.9508H14.4651C14.6781 22.9666 14.8919 22.9666 15.105 22.9508C15.2388 22.9272 15.3661 22.8729 15.4775 22.7914C15.5659 22.7 15.63 22.5858 15.6636 22.4601C15.6851 22.2645 15.6851 22.0669 15.6636 21.8712V21.5522C15.6855 21.3524 15.6855 21.1507 15.6636 20.9509C15.6309 20.8213 15.5668 20.7029 15.4775 20.6074ZM15.1167 21.8343C15.1393 21.96 15.1393 22.0888 15.1167 22.2145C15.0988 22.254 15.0729 22.289 15.0407 22.3166C15.0085 22.3442 14.9708 22.3638 14.9304 22.3742C14.7874 22.3919 14.6429 22.3919 14.4999 22.3742H14.0228H13.7086C13.6405 22.3631 13.5763 22.3334 13.5224 22.2882C13.4752 22.2441 13.4461 22.1827 13.441 22.1165C13.4266 22.0231 13.4266 21.9278 13.441 21.8343V21.5522C13.4246 21.4219 13.4246 21.2898 13.441 21.1594C13.4555 21.1185 13.4787 21.0817 13.509 21.0519C13.5393 21.0221 13.5757 20.9999 13.6154 20.9875C13.7541 20.9635 13.8958 20.9635 14.0345 20.9875H14.4767C14.6236 20.9699 14.7719 20.9699 14.9188 20.9875C14.9607 20.9982 14.9995 21.0196 15.0319 21.0495C15.0643 21.0794 15.0894 21.1171 15.105 21.1594C15.1295 21.2891 15.1295 21.4226 15.105 21.5522L15.1167 21.8343Z" fill="#1B3A68"/>
<path d="M77.9123 20.6074C77.8118 20.503 77.6804 20.4378 77.54 20.4232C77.3333 20.3785 77.1225 20.3579 76.9115 20.3618H76.3879C76.1904 20.3451 75.9919 20.3451 75.7944 20.3618C75.6613 20.39 75.5371 20.4535 75.4335 20.546C75.3439 20.6491 75.2835 20.7767 75.2591 20.9142C75.2378 21.114 75.2378 21.3156 75.2591 21.5154V21.8344C75.2432 22.0719 75.2748 22.31 75.3522 22.5336C75.3814 22.6119 75.427 22.6824 75.4854 22.7397C75.5438 22.797 75.6136 22.8397 75.6897 22.8649C75.9282 22.9345 76.1757 22.9635 76.4228 22.9509H76.9465C77.1596 22.9667 77.3735 22.9667 77.5866 22.9509C77.7204 22.9273 77.8475 22.873 77.9589 22.7915C78.0513 22.7035 78.1162 22.5879 78.1452 22.4602C78.1666 22.2646 78.1666 22.067 78.1452 21.8713V21.5523C78.1671 21.3525 78.1671 21.1508 78.1452 20.951C78.1044 20.8132 78.0228 20.6928 77.9123 20.6074ZM77.5516 21.8344C77.5743 21.9601 77.5743 22.0889 77.5516 22.2146C77.5344 22.2523 77.5101 22.286 77.4801 22.3134C77.45 22.3409 77.4149 22.3616 77.3771 22.3742C77.2301 22.3913 77.0818 22.3913 76.9348 22.3742H76.4693H76.1436C76.0755 22.3632 76.0112 22.3335 75.9573 22.2883C75.9141 22.2412 75.8856 22.1813 75.8758 22.1166C75.8673 22.0228 75.8673 21.9283 75.8758 21.8344V21.5523C75.8522 21.4226 75.8522 21.2892 75.8758 21.1595C75.8874 21.1169 75.91 21.0783 75.9407 21.0481C75.9714 21.0179 76.0093 20.9969 76.0504 20.9876C76.1889 20.9609 76.3308 20.9609 76.4693 20.9876H76.8999C77.0507 20.9702 77.2029 20.9702 77.3538 20.9876C77.3935 21 77.43 21.0222 77.4603 21.052C77.4906 21.0818 77.5139 21.1186 77.5284 21.1595C77.5528 21.2891 77.5528 21.4226 77.5284 21.5523L77.5516 21.8344Z" fill="#1B3A68"/>
<path d="M83.5333 20.6074C83.437 20.5038 83.3094 20.4386 83.1725 20.4232C82.9618 20.3792 82.7473 20.3586 82.5325 20.3618H82.0088C81.8112 20.3456 81.6128 20.3456 81.4152 20.3618C81.2848 20.3875 81.164 20.4514 81.0662 20.546C80.9682 20.6443 80.9028 20.7735 80.88 20.9141C80.8586 21.1139 80.8586 21.3156 80.88 21.5154V21.8344C80.8698 22.0716 80.9014 22.3085 80.973 22.5336C81.0036 22.6109 81.0496 22.6807 81.1078 22.7379C81.166 22.795 81.2352 22.8382 81.3105 22.8649C81.549 22.9344 81.7965 22.9635 82.0437 22.9508H82.5673C82.7843 22.9666 83.0021 22.9666 83.2191 22.9508C83.3494 22.9276 83.4727 22.8731 83.5798 22.7915C83.6721 22.7034 83.7371 22.5879 83.766 22.4602C83.7884 22.2646 83.7884 22.0668 83.766 21.8712V21.5522C83.7894 21.3525 83.7894 21.1506 83.766 20.951C83.7253 20.8132 83.6438 20.6927 83.5333 20.6074ZM83.1841 21.8344C83.201 21.9606 83.201 22.0884 83.1841 22.2145C83.1445 22.2916 83.0775 22.3491 82.9979 22.3742C82.851 22.3918 82.7028 22.3918 82.5558 22.3742H82.0903H81.7644C81.6963 22.3631 81.6321 22.3335 81.5782 22.2882C81.5349 22.2411 81.5065 22.1813 81.4968 22.1166C81.4883 22.0227 81.4883 21.9282 81.4968 21.8344V21.5522C81.4732 21.4225 81.4732 21.2892 81.4968 21.1595C81.5084 21.1169 81.5308 21.0783 81.5615 21.048C81.5923 21.0178 81.6303 20.9969 81.6714 20.9875C81.8099 20.9608 81.9518 20.9608 82.0903 20.9875H82.5209C82.6717 20.9701 82.8239 20.9701 82.9748 20.9875C83.0159 21 83.0538 21.0219 83.086 21.0516C83.1182 21.0813 83.1437 21.1182 83.1608 21.1595C83.1793 21.2896 83.1793 21.422 83.1608 21.5522L83.1841 21.8344Z" fill="#1B3A68"/>
<path d="M69.9408 20.9141H70.9765V23H71.57V20.9141H72.6058V20.3743H69.9408V20.9141Z" fill="#1B3A68"/>
<path d="M93.9954 21.5647C93.9258 21.5036 93.8409 21.4651 93.751 21.4541C93.6234 21.4397 93.4945 21.4397 93.3669 21.4541H92.273H92.1101H92.0169C92.0033 21.4061 92.0033 21.3548 92.0169 21.3068C92.0124 21.2693 92.0176 21.2314 92.032 21.1968C92.0463 21.1623 92.0693 21.1324 92.0985 21.1106C92.1666 21.0879 92.2397 21.0879 92.3079 21.1106H93.2972C93.3776 21.0915 93.461 21.0915 93.5415 21.1106C93.563 21.1698 93.563 21.2352 93.5415 21.2945H94.1816C94.189 21.1876 94.1716 21.0803 94.131 20.982C94.0905 20.8837 94.028 20.7973 93.9488 20.7301C93.7436 20.595 93.5037 20.5308 93.2622 20.5462H92.1799C92.0065 20.5403 91.8334 20.5653 91.6679 20.6199C91.5494 20.6629 91.4501 20.7501 91.3886 20.8652C91.3171 20.9996 91.2847 21.1531 91.2954 21.3068C91.2835 21.467 91.3116 21.6279 91.3769 21.7732C91.4057 21.8254 91.4443 21.8709 91.4903 21.9068C91.5363 21.9427 91.5888 21.968 91.6446 21.9817C91.8276 22.028 92.0149 22.0527 92.2032 22.0554H93.1459C93.2628 22.0434 93.3804 22.0691 93.4832 22.1291C93.5112 22.1574 93.533 22.1919 93.547 22.23C93.5611 22.2681 93.5672 22.309 93.5648 22.3498C93.5678 22.3901 93.5607 22.4304 93.5443 22.467C93.528 22.5035 93.5029 22.535 93.4716 22.5583C93.3721 22.5833 93.2686 22.5833 93.1692 22.5583H92.1915C92.117 22.5648 92.0428 22.543 91.9821 22.4969C91.9566 22.48 91.9357 22.4566 91.9215 22.4286C91.9072 22.4007 91.8999 22.3693 91.9006 22.3375H91.2954C91.2884 22.4856 91.3165 22.6333 91.3769 22.7671C91.4319 22.8784 91.5226 22.9654 91.6329 23.0125C91.7905 23.0672 91.956 23.0921 92.1218 23.0861H93.3553C93.5828 23.1097 93.8107 23.0441 93.9954 22.9019C94.0652 22.8189 94.1177 22.7215 94.1498 22.6158C94.1818 22.5102 94.1927 22.3987 94.1816 22.2884C94.2029 22.1503 94.2029 22.0096 94.1816 21.8714C94.1738 21.809 94.153 21.7492 94.1208 21.6962C94.0886 21.6432 94.0458 21.5983 93.9954 21.5647Z" fill="#1B3A68"/>
<path d="M87.106 20.3743H86.5125V23H88.6305V22.4724H87.106V20.3743Z" fill="#1B3A68"/>
<path d="M61.5385 20.3743H60.945V23H63.0514V22.4724H61.5385V20.3743Z" fill="#1B3A68"/>
<path d="M37.2162 21.5647C37.1435 21.5014 37.0542 21.4628 36.9602 21.4541C36.8327 21.4384 36.7038 21.4384 36.5762 21.4541H35.4939H35.331C35.3004 21.4625 35.2684 21.4625 35.2379 21.4541C35.2243 21.4061 35.2243 21.3548 35.2379 21.3068C35.2332 21.2705 35.2371 21.2338 35.2493 21.1995C35.2615 21.1653 35.2815 21.1346 35.3077 21.1106C35.38 21.0897 35.4565 21.0897 35.5288 21.1106H36.518C36.5943 21.0898 36.6744 21.0898 36.7507 21.1106C36.7507 21.1106 36.7508 21.2086 36.8206 21.2945H37.4491C37.4578 21.1886 37.4422 21.0821 37.4037 20.9838C37.3653 20.8856 37.305 20.7986 37.2279 20.7301C37.0227 20.595 36.7828 20.5308 36.5413 20.5462H35.459C35.2855 20.5393 35.1123 20.5643 34.947 20.6199C34.8253 20.6623 34.722 20.7493 34.656 20.8652C34.5901 21.0018 34.558 21.1536 34.5628 21.3068C34.554 21.4681 34.5862 21.6293 34.656 21.7732C34.6848 21.8254 34.7234 21.8709 34.7694 21.9068C34.8154 21.9427 34.8679 21.968 34.9237 21.9817C35.1067 22.028 35.294 22.0527 35.4823 22.0554H36.425C36.5382 22.0427 36.6523 22.0686 36.7507 22.1291C36.7822 22.155 36.8072 22.1888 36.8234 22.2273C36.8397 22.2658 36.8467 22.3078 36.8439 22.3498C36.8468 22.3901 36.8398 22.4304 36.8234 22.467C36.8071 22.5035 36.782 22.535 36.7507 22.5583C36.6511 22.582 36.5477 22.582 36.4481 22.5583H35.459C35.3881 22.564 35.3178 22.5421 35.2612 22.4969C35.2357 22.48 35.2148 22.4566 35.2005 22.4286C35.1863 22.4007 35.179 22.3693 35.1797 22.3375H34.5745C34.5699 22.4842 34.5937 22.6305 34.6444 22.7671C34.7046 22.8786 34.7989 22.9651 34.912 23.0125C35.0693 23.0682 35.235 23.0932 35.4009 23.0861H36.5646C36.7958 23.1094 37.027 23.0439 37.2162 22.9019C37.3514 22.7306 37.4182 22.5106 37.4025 22.2884C37.4238 22.1503 37.4238 22.0096 37.4025 21.8714C37.3946 21.809 37.3738 21.7492 37.3417 21.6962C37.3095 21.6432 37.2667 21.5983 37.2162 21.5647Z" fill="#1B3A68"/>
<path d="M40.8471 20.3743H40.2536V23H40.8471V20.3743Z" fill="#1B3A68"/>
<path d="M31.665 21.5647C31.5923 21.5014 31.503 21.4628 31.409 21.4541C31.2814 21.4397 31.1527 21.4397 31.025 21.4541H29.9311H29.7798C29.7454 21.463 29.7095 21.463 29.6751 21.4541C29.6615 21.4061 29.6615 21.3548 29.6751 21.3068C29.6728 21.2696 29.6789 21.2325 29.6931 21.1983C29.7073 21.1642 29.729 21.134 29.7565 21.1106C29.8246 21.0879 29.8978 21.0879 29.966 21.1106H30.9552C31.0355 21.0902 31.1193 21.0902 31.1996 21.1106C31.2211 21.1698 31.2211 21.2352 31.1996 21.2945H31.8396C31.8456 21.1889 31.8289 21.0834 31.7906 20.9856C31.7523 20.8879 31.6935 20.8004 31.6186 20.7301C31.4134 20.595 31.1733 20.5308 30.9319 20.5462H29.838C29.6646 20.5403 29.4914 20.5653 29.3259 20.6199C29.2074 20.6629 29.1081 20.7501 29.0466 20.8652C28.9807 21.0018 28.9487 21.1536 28.9535 21.3068C28.9476 21.4666 28.9754 21.626 29.0349 21.7732C29.0637 21.8254 29.1023 21.8709 29.1483 21.9068C29.1943 21.9427 29.247 21.968 29.3027 21.9817C29.4861 22.0262 29.6732 22.051 29.8613 22.0554H30.8155C30.9288 22.0427 31.043 22.0686 31.1414 22.1291C31.1716 22.1556 31.1948 22.1896 31.209 22.2282C31.2233 22.2668 31.228 22.3088 31.2228 22.3498C31.2284 22.3904 31.2227 22.432 31.2062 22.4691C31.1896 22.5061 31.163 22.537 31.1297 22.5583C31.0341 22.5823 30.9345 22.5823 30.8388 22.5583H29.8497C29.7751 22.5648 29.7008 22.543 29.6401 22.4969C29.616 22.4785 29.5963 22.4547 29.5822 22.4271C29.5681 22.3995 29.56 22.3689 29.5587 22.3375H28.9535C28.9523 22.4851 28.9799 22.6314 29.0349 22.7671C29.0935 22.8754 29.1833 22.9613 29.2911 23.0125C29.4526 23.0671 29.6218 23.0921 29.7914 23.0861H30.9552C31.1827 23.1097 31.4106 23.0441 31.5953 22.9019C31.6651 22.8189 31.7176 22.7215 31.7497 22.6158C31.7818 22.5102 31.7926 22.3987 31.7815 22.2884C31.8022 22.1502 31.8022 22.0096 31.7815 21.8714C31.7757 21.7585 31.7347 21.6507 31.665 21.5647Z" fill="#1B3A68"/>
<path d="M51.6583 22.1779L50.2153 20.3743H49.3308V23H49.9243V21.0491L51.5536 23H52.2635V20.3743H51.6583V22.1779Z" fill="#1B3A68"/>
<path d="M46.3399 20.6074C46.2379 20.5052 46.1073 20.4405 45.9676 20.4231C45.7569 20.3791 45.5423 20.3585 45.3275 20.3617H44.8155C44.6141 20.3451 44.4117 20.3451 44.2103 20.3617C44.0799 20.3875 43.9591 20.4514 43.8613 20.5459C43.7675 20.646 43.7063 20.775 43.6867 20.9141C43.6451 21.1114 43.6255 21.3132 43.6284 21.5153V21.8343C43.6151 22.0727 43.6508 22.3111 43.7331 22.5335C43.7624 22.6118 43.808 22.6823 43.8664 22.7396C43.9248 22.7969 43.9946 22.8396 44.0707 22.8648C44.3092 22.9344 44.5567 22.9634 44.8038 22.9508H45.3275C45.5406 22.9666 45.7545 22.9666 45.9676 22.9508C46.1007 22.9247 46.2273 22.8706 46.3399 22.7914C46.4243 22.6968 46.488 22.5836 46.5262 22.4601C46.5476 22.2645 46.5476 22.0669 46.5262 21.8712V21.5522C46.5481 21.3524 46.5481 21.1507 46.5262 20.9509C46.4934 20.8213 46.4292 20.7029 46.3399 20.6074ZM45.9792 21.8343C46.0019 21.96 46.0019 22.0888 45.9792 22.2145C45.9396 22.2915 45.8726 22.349 45.793 22.3742C45.6499 22.3913 45.5055 22.3913 45.3624 22.3742H44.8852H44.5595C44.4948 22.3634 44.4343 22.3335 44.3849 22.2882C44.338 22.2423 44.3056 22.1825 44.2919 22.1165C44.2846 22.0226 44.2846 21.9283 44.2919 21.8343V21.5522C44.2755 21.4219 44.2755 21.2898 44.2919 21.1594C44.3064 21.1185 44.3296 21.0817 44.3599 21.0519C44.3902 21.0221 44.4266 20.9999 44.4663 20.9875C44.605 20.9635 44.7465 20.9635 44.8852 20.9875H45.3275C45.4744 20.9705 45.6227 20.9705 45.7697 20.9875C45.8108 20.9999 45.8489 21.0219 45.8811 21.0516C45.9133 21.0813 45.9388 21.1181 45.9559 21.1594C45.9804 21.2891 45.9804 21.4226 45.9559 21.5522L45.9792 21.8343Z" fill="#1B3A68"/>
<path d="M56.1737 20.3741L54.9052 23.0001H55.5918L55.8944 22.362H57.384L57.6864 23.0001H58.3732L57.1046 20.3741H56.1737ZM56.1737 21.8468L56.6625 20.8651L57.1279 21.8468H56.1737Z" fill="#1B3A68"/>
<path d="M96.9978 8.65662C97.0337 8.63329 97.0622 8.59898 97.0793 8.55836C97.0865 8.50135 97.0865 8.44342 97.0793 8.38641V8.30074C97.0935 8.22787 97.0935 8.15253 97.0793 8.07967C97.0446 8.02274 96.9965 7.97641 96.9397 7.94486C96.8589 7.92919 96.776 7.92919 96.6952 7.94486H95.8457V9.17186H96.1133V8.81598H96.6604C96.7054 8.79808 96.7551 8.79808 96.8001 8.81598C96.8103 8.83685 96.8155 8.8599 96.8155 8.88338C96.8155 8.90686 96.8103 8.93022 96.8001 8.95108V9.13501H97.0793V8.88967C97.0933 8.83752 97.0933 8.78217 97.0793 8.73001C97.0616 8.6958 97.0326 8.66984 96.9978 8.65662ZM96.8232 8.36215C96.8294 8.37553 96.8326 8.39011 96.8326 8.40499C96.8326 8.41987 96.8294 8.43444 96.8232 8.44782C96.7896 8.46215 96.7521 8.46215 96.7185 8.44782H96.125V8.22705H96.7185C96.7521 8.21272 96.7896 8.21272 96.8232 8.22705C96.8232 8.22705 96.8232 8.22714 96.8232 8.3253V8.36215Z" fill="#1B3A68"/>
<path d="M96.4509 10.0552C96.0651 10.0552 95.6951 9.8935 95.4223 9.60586C95.1494 9.31823 94.9962 8.92823 94.9962 8.52146C94.9993 8.11682 95.1539 7.72983 95.4264 7.44485C95.6988 7.15986 96.0671 6.99999 96.4509 7C96.8347 6.99999 97.203 7.15986 97.4754 7.44485C97.7479 7.72983 97.9025 8.11682 97.9056 8.52146C97.9056 8.92823 97.7524 9.31823 97.4795 9.60586C97.2067 9.8935 96.8367 10.0552 96.4509 10.0552ZM96.4509 7.2699C96.1423 7.2699 95.8462 7.39927 95.628 7.62937C95.4097 7.85948 95.2872 8.17148 95.2872 8.4969C95.2872 8.82232 95.4097 9.13431 95.628 9.36442C95.8462 9.59453 96.1423 9.72389 96.4509 9.72389C96.7595 9.72389 97.0556 9.59453 97.2738 9.36442C97.4921 9.13431 97.6146 8.82232 97.6146 8.4969C97.6146 8.17148 97.4921 7.85948 97.2738 7.62937C97.0556 7.39927 96.7595 7.2699 96.4509 7.2699Z" fill="#1B3A68"/>
</g>
<defs>
<clipPath id="clip0_150_24">
<rect width="96" height="16" fill="white" transform="translate(2 7)"/>
</clipPath>
</defs>
</svg>
