<svg width="100" height="30" viewBox="0 0 100 30" fill="none" xmlns="http://www.w3.org/2000/svg">
<g clip-path="url(#clip0_150_26)">
<path d="M39.3574 9.31039H38V6.07812H39.346C40.1445 6.07812 40.327 6.6394 40.327 6.93212C40.3248 7.07245 40.285 7.209 40.2122 7.32577C40.1394 7.44254 40.0366 7.53437 39.9163 7.59049C40.0611 7.659 40.185 7.76981 40.2737 7.90999C40.3625 8.05017 40.4125 8.21427 40.4182 8.38344C40.4182 8.76153 40.2015 9.31039 39.3574 9.31039ZM38.6159 7.35882H39.3004C39.5856 7.35882 39.7339 7.23681 39.7339 7.00507C39.7339 6.77334 39.5856 6.63942 39.3004 6.63942H38.6159V7.35882ZM38.6159 8.7494H39.3574C39.6654 8.7494 39.8251 8.60293 39.8251 8.33461C39.8251 8.06628 39.6654 7.91982 39.3574 7.91982H38.6159V8.7494Z" fill="#6D7474"/>
<path d="M42.1407 6.02968C42.345 6.0268 42.5476 6.07002 42.7352 6.15682C42.9227 6.24362 43.091 6.37193 43.2289 6.5332C43.3668 6.69447 43.4712 6.88522 43.5353 7.0927C43.5994 7.30019 43.6217 7.51971 43.6008 7.73707C43.6167 7.95154 43.5905 8.16704 43.5242 8.37013C43.4578 8.57321 43.3525 8.75933 43.2152 8.91653C43.0778 9.07373 42.9113 9.19877 42.7264 9.28338C42.5414 9.36798 42.3419 9.41021 42.1407 9.40784C41.9378 9.41073 41.7368 9.36778 41.5506 9.28159C41.3644 9.19541 41.1974 9.06803 41.0605 8.90789C40.9237 8.74775 40.8201 8.55857 40.7566 8.35256C40.6931 8.14655 40.6711 7.92841 40.692 7.71266C40.6746 7.49825 40.6991 7.28241 40.7641 7.07871C40.829 6.87501 40.933 6.68799 41.0693 6.52963C41.2056 6.37127 41.3713 6.245 41.5557 6.15891C41.7402 6.07281 41.9394 6.02887 42.1407 6.02968ZM41.308 7.71266C41.308 8.39566 41.6388 8.84685 42.1407 8.84685C42.6426 8.84685 42.9734 8.39569 42.9734 7.73707C42.9734 7.07846 42.654 6.59067 42.1407 6.59067C41.6274 6.59067 41.308 7.04185 41.308 7.71266Z" fill="#6D7474"/>
<path d="M44.5248 7.84686V9.31039H43.8973V6.07812H44.5248V7.29778H45.6655V6.07812H46.2928V9.31039H45.6768V7.84686H44.5248Z" fill="#6D7474"/>
<path d="M48.654 8.42006C48.654 8.13954 48.5399 8.02969 48.2662 8.02969H47.5589V9.24934H46.9316V6.01738H48.5513C48.6614 6.00822 48.772 6.02443 48.8755 6.06532C48.979 6.10621 49.0731 6.17066 49.1511 6.2541C49.2292 6.33755 49.2894 6.43819 49.3276 6.54889C49.3659 6.65959 49.3812 6.77784 49.3727 6.89549C49.3805 7.06959 49.3344 7.24142 49.2416 7.38473C49.1488 7.52803 49.0145 7.63472 48.8593 7.68815C49.2472 7.8711 49.2586 7.90769 49.2814 8.90781C49.2733 8.96096 49.281 9.01566 49.3035 9.06384C49.3261 9.11201 49.3622 9.15115 49.4068 9.17609V9.29818H48.7452C48.6587 9.12658 48.623 8.931 48.6426 8.73718C48.6426 8.51765 48.654 8.55422 48.654 8.42006ZM48.3118 6.63941H47.5589V7.4687H48.3118C48.5627 7.4687 48.7452 7.46858 48.7452 7.0417C48.7452 6.61482 48.5627 6.63941 48.3118 6.63941Z" fill="#6D7474"/>
<path d="M50.3765 8.7494H52.0076V9.31039H49.7263V6.07812H51.9164V6.63942H50.3536V7.35882H51.8023V7.91982H50.3536L50.3765 8.7494Z" fill="#6D7474"/>
<path d="M54.2319 8.41995C54.2319 8.13943 54.1179 8.02958 53.8555 8.02958H53.1369V9.24923H52.5209V6.01726H54.1407C54.2503 6.00784 54.3604 6.02393 54.4635 6.06491C54.5665 6.10588 54.6599 6.17059 54.7371 6.25429C54.8143 6.33798 54.8734 6.43864 54.9103 6.54937C54.9472 6.66011 54.9609 6.77836 54.9505 6.89538C54.9584 7.06948 54.9124 7.2413 54.8196 7.38461C54.7268 7.52792 54.5925 7.63461 54.4373 7.68804C54.8251 7.87098 54.8365 7.90757 54.8593 8.90769C54.8512 8.96084 54.8589 9.01555 54.8815 9.06372C54.904 9.11189 54.9401 9.15104 54.9848 9.17598V9.29806H54.3232C54.2419 9.12468 54.2102 8.92961 54.2319 8.73707V8.41995ZM53.8897 6.6393H53.1369V7.46858H53.8897C54.1407 7.46858 54.3232 7.46846 54.3232 7.04158C54.3232 6.6147 54.1521 6.6393 53.8897 6.6393Z" fill="#6D7474"/>
<path d="M56.4106 8.39559H55.27V7.79797H56.4106V8.39559Z" fill="#6D7474"/>
<path d="M57.4487 9.31039H56.8213V6.07812H57.7567L58.2927 8.65173L58.8289 6.07812H59.7643V9.31039H59.1825V6.79783L58.6464 9.31039H58.0418L57.5057 6.79783L57.4487 9.31039Z" fill="#6D7474"/>
<path d="M60.7795 8.65173L60.5741 9.31039H59.9353L61.0075 6.07812H61.7034L62.7414 9.31039H62.1026L61.9087 8.65173H60.7795ZM61.3384 6.84666L60.9505 8.06632H61.7376L61.3384 6.84666Z" fill="#6D7474"/>
<path d="M63.1406 6.07811H64.2813C64.4575 6.05718 64.6359 6.08066 64.8022 6.14629C64.9685 6.21193 65.1183 6.31797 65.2395 6.45627C65.4885 6.80598 65.6174 7.23663 65.6045 7.67592C65.6165 8.11508 65.4877 8.5454 65.2395 8.89558C65.1183 9.03388 64.9685 9.14022 64.8022 9.20585C64.6359 9.27148 64.4575 9.29467 64.2813 9.27374H63.1406V6.07811ZM64.2813 8.74938C64.749 8.74938 64.9886 8.40774 64.9886 7.70034C64.9886 6.99294 64.749 6.6394 64.2813 6.6394H63.7452V8.74938H64.2813Z" fill="#6D7474"/>
<path d="M66.5627 8.7494H68.2053V9.31039H65.924V6.07812H68.1027V6.63942H66.54V7.35882H67.9886V7.91982H66.54L66.5627 8.7494Z" fill="#6D7474"/>
<path d="M70.4069 9.31039H69.7909V6.07812H70.4069V9.31039Z" fill="#6D7474"/>
<path d="M71.422 7.07833V9.31039H70.7947V6.07812H71.4335L72.5741 8.27356V6.07812H73.1902V9.31039H72.5741L71.422 7.07833Z" fill="#6D7474"/>
<path d="M76.2928 6.5906C75.7681 6.5906 75.4487 7.00518 75.4487 7.70038C75.4487 8.39559 75.8023 8.83458 76.3042 8.83458C76.4933 8.83636 76.6765 8.76432 76.8193 8.6318C76.9622 8.49928 77.0548 8.3156 77.0799 8.11517H76.3841V7.56609H77.5932V9.31041H77.2282L77.1483 8.88341C77.0556 9.05091 76.9212 9.18749 76.76 9.27795C76.5989 9.36842 76.4174 9.40911 76.2358 9.39557C76.0379 9.38961 75.8433 9.34094 75.6636 9.25205C75.484 9.16315 75.3231 9.03607 75.1908 8.87865C75.0585 8.72122 74.9575 8.53656 74.894 8.33612C74.8305 8.13567 74.8058 7.92358 74.8213 7.71259C74.802 7.49515 74.8258 7.27569 74.8914 7.06882C74.9569 6.86194 75.0626 6.67239 75.2016 6.51229C75.3406 6.35219 75.5096 6.22539 75.6977 6.14008C75.8857 6.05478 76.0886 6.01298 76.2928 6.0174C76.4454 5.9935 76.6009 6.00292 76.7499 6.04509C76.899 6.08727 77.0385 6.1613 77.1601 6.26276C77.2816 6.36422 77.3827 6.49088 77.4571 6.63527C77.5316 6.77966 77.5779 6.9387 77.5932 7.10276H77.0114C76.9631 6.94331 76.8659 6.80596 76.7354 6.71299C76.605 6.62001 76.449 6.57695 76.2928 6.5906Z" fill="#6D7474"/>
<path d="M78.6312 8.7494H80.2738V9.31039H77.9924V6.07812H80.1712V6.63942H78.6084V7.35882H80.0571V7.91982H78.6084L78.6312 8.7494Z" fill="#6D7474"/>
<path d="M82.4981 8.41995C82.4981 8.13943 82.3726 8.02958 82.1102 8.02958H81.3916V9.24923H80.7756V6.01726H82.3954C82.505 6.00784 82.6152 6.02393 82.7182 6.06491C82.8213 6.10588 82.9146 6.17059 82.9918 6.25429C83.069 6.33798 83.1282 6.43864 83.1651 6.54937C83.2019 6.66011 83.2156 6.77836 83.2053 6.89538C83.2131 7.06948 83.1671 7.2413 83.0743 7.38461C82.9815 7.52792 82.8471 7.63461 82.692 7.68804C83.0798 7.87098 83.1026 7.90757 83.114 8.90769C83.1068 8.96221 83.1163 9.01777 83.141 9.0661C83.1656 9.11443 83.2041 9.15292 83.2509 9.17598V9.29806H82.5779C82.4967 9.12468 82.4649 8.92961 82.4867 8.73707C82.4867 8.51753 82.4981 8.55411 82.4981 8.41995ZM82.1445 6.6393H81.3916V7.46858H82.1445C82.4068 7.46858 82.5894 7.46846 82.5894 7.04158C82.5894 6.6147 82.4068 6.6393 82.1445 6.6393Z" fill="#6D7474"/>
<path d="M84.1977 9.31039H83.5818V6.07812H84.5057L85.0532 8.65173L85.5894 6.07812H86.5247V9.31039H85.8973V6.79783L85.3613 9.31039H84.7452L84.1977 6.79783V9.31039Z" fill="#6D7474"/>
<path d="M87.5285 8.65173L87.3346 9.31039H86.6958L87.768 6.07812H88.4524L89.5019 9.31039H88.8403L88.635 8.65173H87.5285ZM88.0988 6.84666L87.711 8.06632H88.4981L88.0988 6.84666Z" fill="#6D7474"/>
<path d="M90.3117 7.07833V9.31039H89.6958V6.07812H90.3346L91.4753 8.27356V6.07812H92.1026V9.31039H91.4753L90.3117 7.07833Z" fill="#6D7474"/>
<path d="M93.962 9.31027H93.4031V8.09061L92.3993 6.05359H93.0951L93.7111 7.48079L94.2814 6.05359H94.9772L94.019 8.09061L93.962 9.31027Z" fill="#6D7474"/>
<path d="M36.4715 6.02942V9.24931H31.635L25.2243 17.5186L30.403 23.9827H25.5095L22.8403 20.5799L20.3764 17.5308L22.7604 14.4572L29.308 6.02942H36.4715Z" fill="#6D7474"/>
<path d="M38.3536 17.9698V18.1528L38.1597 18.1162L38.3536 17.9698Z" fill="#D13736"/>
<path d="M38.3536 17.9698V18.1528L38.1597 18.1162L38.3536 17.9698Z" fill="#D13736"/>
<path d="M38.3536 17.9698V18.1528L38.1597 18.1162L38.3536 17.9698Z" fill="#D13736"/>
<path d="M26.6274 6.02942L22.384 11.4813H5V6.02942H26.6274Z" fill="#080A0F"/>
<path d="M18.0836 17.0306L18.1863 17.1892H5V11.4812H22.384L18.0836 17.0306Z" fill="#D13736"/>
<path d="M22.8973 23.9827H5V17.1892H18.1863L22.8973 23.9827Z" fill="#FEE050"/>
<path d="M41.0799 20.6531L38.981 18.2138C39.4303 17.785 39.7943 17.2635 40.051 16.6809C40.3077 16.0984 40.452 15.4667 40.4753 14.8232C40.4821 14.1213 40.3517 13.4256 40.0924 12.7808C39.8331 12.136 39.4507 11.5562 38.9696 11.0787H32.6502L31.9088 12.0423L30.0381 14.4816L27.654 17.5552L30.1065 20.6043L32.7871 24.0072H37.6807L32.5019 17.543L34.9544 13.9814H36.0951C36.4549 13.9845 36.8028 14.1196 37.0809 14.3637C37.3591 14.6078 37.5506 14.9464 37.6236 15.3231C37.6814 15.7372 37.5981 16.1598 37.3887 16.5136C37.1792 16.8674 36.8577 17.1289 36.4829 17.2503H35.8441V19.7991L36.6084 20.6531L39.4373 23.8607H42.2776V22.0068L41.0799 20.6531ZM38.3536 18.1528H38.1483L38.3536 18.0063V18.1528Z" fill="#D13736"/>
<path d="M47.308 11.0909H43.3384V23.9705H47.308V11.0909Z" fill="#D13736"/>
<path d="M55.5437 11.0909H51.5742V23.9705H55.5437V11.0909Z" fill="#D13736"/>
<path d="M76.3155 11.0909H72.3459V23.9705H76.3155V11.0909Z" fill="#D13736"/>
<path d="M87.1635 11.2129H83.194V23.9827H87.1635V11.2129Z" fill="#D13736"/>
<path d="M83.5818 14.5425V11.2129H91.0305L89.5476 14.5425H83.5818Z" fill="#D13736"/>
<path d="M67.7947 11.0909H63.8251V23.9705H67.7947V11.0909Z" fill="#D13736"/>
<path d="M71.2395 14.5425V11.0909H60.6882V14.5425H71.2395Z" fill="#D13736"/>
<path d="M59.2737 14.5426V11.0909H48.7224V14.5426H59.2737Z" fill="#D13736"/>
<path d="M81.7908 14.5547V11.1031H72.9162V14.5547H81.7908Z" fill="#D13736"/>
<path d="M81.1749 19.2627V15.811H72.9278V19.2627H81.1749Z" fill="#D13736"/>
<path d="M81.8022 23.9827V20.5311H72.9277V23.9827H81.8022Z" fill="#D13736"/>
<path d="M91.0189 11.213C91.6557 11.4546 92.2194 11.8761 92.6502 12.4327C93.0944 13.0063 93.386 13.6971 93.4943 14.4328C93.623 15.112 93.5996 15.814 93.4258 16.4817C93.294 16.9188 93.0976 17.3306 92.8441 17.7014C92.5695 18.0967 92.2339 18.4391 91.8517 18.7138L94.9886 21.5557V23.995H92.5132L88.1901 19.714V17.7746H88.5323C88.7414 17.7899 88.9512 17.7574 89.1479 17.6796C89.3445 17.6018 89.5234 17.4804 89.6729 17.3232C89.9055 17.0472 90.0425 16.6943 90.0608 16.3233C90.1126 15.8892 90.0019 15.4508 89.7528 15.1036C89.5209 14.8001 89.1914 14.6001 88.8288 14.5426H88.4296V11.213H91.0189Z" fill="#D13736"/>
</g>
<defs>
<clipPath id="clip0_150_26">
<rect width="90" height="18" fill="white" transform="translate(5 6)"/>
</clipPath>
</defs>
</svg>
