<svg width="100" height="30" viewBox="0 0 100 30" fill="none" xmlns="http://www.w3.org/2000/svg">
<g clip-path="url(#clip0_150_27)">
<path d="M67.5403 17.1054C67.8713 17.1793 78.1205 17.2039 78.7825 17.1054C78.7825 15.9849 78.7825 14.852 78.7825 13.6577H73.2901C74.2474 12.1531 75.2912 10.7058 76.4164 9.32344H83.6374C83.7355 9.66821 83.7477 21.0703 83.6374 21.5136C83.3187 21.5875 60.2457 21.5998 59.6817 21.5136C58.3331 17.3271 56.9764 13.1325 55.6114 8.92964C54.3855 13.1038 53.3802 17.2902 52.2645 21.5013H44.7738C44.0628 19.0386 43.413 16.416 42.7265 13.8672C42.0399 11.3184 41.3656 8.76931 40.6913 6.20819C40.2592 6.16538 39.8239 6.16538 39.3918 6.20819H38.1045V6.12221C38.2884 5.93752 38.4723 5.75289 38.6685 5.58051L40.8017 3.64727L43.1187 1.54177C43.1857 1.47338 43.266 1.41935 43.3546 1.38335C43.4431 1.34735 43.5382 1.32993 43.6337 1.33225C44.0995 1.33225 44.5531 1.33225 45.068 1.33225C45.7791 3.65942 46.3676 5.98679 47.0174 8.30166C47.6672 10.6165 48.3046 12.9067 48.9667 15.2954L52.4975 1.43085H58.6274C59.3017 3.72108 59.9147 6.03608 60.5522 8.33863C61.1897 10.6412 61.7782 12.9313 62.477 15.3077C63.703 10.6164 64.9289 5.99898 66.1549 1.4062C66.5227 1.32 83.3186 1.29538 83.7845 1.4062C83.8703 1.70171 83.8949 5.76504 83.7845 6.33144H70.7891C70.6297 6.66389 67.6016 16.5144 67.5403 17.1054Z" fill="#263F77"/>
<path d="M22.5836 21.5507H18.121C18.121 21.366 18.121 21.1934 18.121 21.021C18.121 17.7457 18.121 14.4827 18.121 11.1705C18.1325 10.9712 18.1 10.7719 18.0259 10.5867C17.9517 10.4015 17.8376 10.2352 17.6919 10.0994C16.9073 9.29909 16.1594 8.4618 15.3993 7.63682L15.0806 7.29201V2.9701L18.4275 1.02454C18.47 1.43386 18.47 1.84652 18.4275 2.25585C18.4275 2.66218 18.4275 3.06851 18.4275 3.48716V5.83915H22.7062C22.7368 5.32246 22.7368 4.80438 22.7062 4.28769V1.13546C23.8964 1.62822 25.0308 2.2474 26.0899 2.98243V7.42759L24.4103 8.94208C23.8219 9.45923 23.1843 9.96407 22.6694 10.4812C22.5897 10.5864 22.5352 10.7083 22.51 10.838C22.4977 10.9444 22.4977 11.0518 22.51 11.1582V21.5997L22.5836 21.5507Z" fill="#263F77"/>
<path d="M23.454 11.5891L25.2562 9.87775C25.3298 9.80387 25.4155 9.75443 25.5013 9.68055L27.6346 7.63668C27.8308 7.45199 28.0514 7.292 28.2476 7.1073C28.4438 6.92261 28.5663 6.98405 28.7502 6.98405H35.3583V7.09498L30.8834 11.0967L42.8367 21.5136C42.7279 21.5417 42.6173 21.5623 42.5057 21.5752H35.0762C34.8335 21.5699 34.6016 21.473 34.4265 21.304L30.2337 17.6101C29.5717 17.0191 28.9218 16.3789 28.2598 15.8371L25.8078 13.6577L24.067 12.1185L23.454 11.5891Z" fill="#169FDA"/>
<path d="M29.3878 6.13461C29.7434 5.78985 30.0376 5.48201 30.3563 5.19881L32.2076 3.49944C32.9186 2.85916 33.6174 2.26834 34.3162 1.55418C34.3837 1.49748 34.462 1.45512 34.5463 1.42972C34.6306 1.40432 34.7192 1.39626 34.8066 1.40627H41.7456C41.6204 1.63624 41.4442 1.83419 41.2308 1.98495L39.2079 3.77029L36.756 5.99904C36.6165 6.11191 36.4445 6.17686 36.2655 6.18391H29.633L29.3878 6.13461Z" fill="#EF3826"/>
<path d="M49.7636 25.7124H52.2155C52.6078 25.7124 52.7427 25.8601 52.7672 26.2541C52.8098 26.4377 52.8097 26.6288 52.7672 26.8123C52.7247 26.9959 52.6409 27.1673 52.522 27.3132C52.6681 27.4628 52.7706 27.6499 52.8181 27.854C52.8657 28.0581 52.8565 28.2713 52.7917 28.4705C52.7764 28.6087 52.7099 28.7361 52.6055 28.8274C52.501 28.9186 52.3662 28.9672 52.2278 28.9632C51.3819 28.9632 50.5359 28.9632 49.7023 28.9632C49.6066 27.8806 49.6272 26.7906 49.7636 25.7124ZM52.2155 27.5963C51.586 27.4971 50.9448 27.4971 50.3153 27.5963V28.4582C50.948 28.5927 51.6053 28.5503 52.2155 28.3352V27.5963ZM52.2155 26.9684C52.2767 26.8527 52.3087 26.7239 52.3087 26.5929C52.3087 26.4619 52.2767 26.3328 52.2155 26.2171H50.401V26.9684H52.2155Z" fill="#4E4F50"/>
<path d="M25.1704 28.5568C24.631 27.9535 24.2877 27.3254 23.785 26.6359C23.7613 26.898 23.7613 27.162 23.785 27.4241V28.9386H23.2701V25.7124H23.7359L25.1949 27.7809L26.5312 25.7124H27.0094C27.1085 26.0519 27.1335 26.409 27.0829 26.7591C27.0829 27.1408 27.0829 27.5101 27.0829 27.8918V28.9756H26.5189V26.5866C26.0163 27.2269 25.6608 27.9165 25.1704 28.5568Z" fill="#4E4F50"/>
<path d="M73.0449 26.5005L72.7261 26.6111C72.6773 26.6174 72.6279 26.6174 72.579 26.6111L72.4809 26.205H70.5071V26.9805H71.0834C71.5738 26.9805 72.0641 26.9806 72.5545 27.0545C73.0449 27.1284 73.0572 27.2761 73.0694 27.6578C73.0817 27.8998 73.0817 28.1421 73.0694 28.3841C73.0694 28.7904 72.861 28.9631 72.4442 28.9754H70.6052C69.98 28.9754 69.8329 28.7905 69.8574 28.0886L70.3355 27.941L70.4213 28.4581H72.5055V27.5962H72.1377H70.7401C70.1516 27.5962 69.9432 27.3624 69.9309 26.7713C69.9127 26.546 69.9127 26.3194 69.9309 26.094C69.9433 25.9808 69.9986 25.8767 70.0853 25.8033C70.172 25.73 70.2836 25.6929 70.3967 25.6999H72.4687C72.91 25.7246 73.0204 25.9218 73.0449 26.5005Z" fill="#4E4F50"/>
<path d="M61.6556 25.7124H64.1076C64.5857 25.7124 64.7451 25.8725 64.7573 26.365C64.7573 26.6236 64.7573 26.87 64.7573 27.1286C64.7669 27.2074 64.7588 27.2872 64.7334 27.3625C64.708 27.4377 64.6661 27.5062 64.6107 27.563C64.5554 27.6197 64.488 27.6634 64.4136 27.6904C64.3393 27.7175 64.2598 27.7276 64.1811 27.7196C64.0708 27.7196 63.9481 27.7196 63.7397 27.7196L65.0761 28.9509H64.2179L63.0655 27.7196H62.2563V28.9509H61.7414C61.6151 27.8763 61.5864 26.7922 61.6556 25.7124ZM64.1076 26.2541C63.4867 26.1492 62.8527 26.1492 62.2318 26.2541C62.1657 26.5791 62.1657 26.9142 62.2318 27.2392H63.3474C64.1443 27.2392 64.2302 27.1407 64.1076 26.3404C64.1566 26.365 64.1321 26.3649 64.1076 26.2541Z" fill="#4E4F50"/>
<path d="M34.5123 28.9999L33.3722 27.7686H32.4894V28.9999H31.9255C31.9255 27.9164 31.9255 26.8576 31.9255 25.7617H34.4755C34.8924 25.7617 35.064 25.9587 35.0762 26.3774C35.0885 26.796 35.0762 26.919 35.0762 27.1899C35.0762 27.4608 34.8801 27.744 34.4878 27.7686H34.071L35.3827 28.9999H34.6226H34.5123ZM32.5507 26.1805C32.4522 26.5307 32.4522 26.9013 32.5507 27.2516H34.1936C34.2343 27.2533 34.2749 27.2466 34.3128 27.2317C34.3508 27.2169 34.3853 27.1942 34.4142 27.1653C34.443 27.1363 34.4654 27.1018 34.4802 27.0637C34.495 27.0255 34.5018 26.9846 34.5001 26.9437C34.5124 26.825 34.5124 26.7053 34.5001 26.5866C34.5001 26.3034 34.402 26.2051 34.12 26.2051L32.5507 26.1805Z" fill="#4E4F50"/>
<path d="M55.3907 27.03C55.3951 27.1161 55.3951 27.2024 55.3907 27.2885C55.3988 27.3622 55.3988 27.4364 55.3907 27.5101H54.0299V28.4829C54.4178 28.5076 54.8068 28.5076 55.1946 28.4829H56.4206V28.9263H53.4047C53.4047 27.855 53.4047 26.8083 53.4047 25.7124H56.3961V26.1312C55.5869 26.205 54.8145 26.1312 54.0054 26.1312V26.8821C54.4345 27.0668 54.9004 26.9315 55.3907 27.03Z" fill="#4E4F50"/>
<path d="M77.0783 25.7001H79.9962V26.1558C79.2361 26.2297 78.476 26.1558 77.6791 26.1558V26.8944C78.1082 27.0299 78.5741 26.8945 79.0522 26.9807V27.4608H77.6791V28.4459C78.4392 28.4459 79.2116 28.4459 80.0207 28.4459V28.9016C79.0032 28.9016 78.0346 28.9016 77.0661 28.9016C76.9713 27.8364 76.9754 26.7645 77.0783 25.7001Z" fill="#4E4F50"/>
<path d="M65.6768 25.6877H66.2285V28.4335C66.9395 28.4335 67.6016 28.4335 68.3127 28.4335V25.6508H68.8766C68.8863 25.7696 68.8863 25.8891 68.8766 26.0079C68.8766 26.6851 68.8766 27.3625 68.8766 28.0274C68.8766 28.6923 68.6559 28.9385 67.9816 28.9262C67.3073 28.9139 66.817 28.9262 66.2407 28.9262C66.1512 28.9401 66.0596 28.933 65.9732 28.9055C65.8868 28.878 65.8079 28.8307 65.7426 28.7675C65.6773 28.7043 65.6275 28.6269 65.5969 28.5411C65.5664 28.4554 65.556 28.364 65.5665 28.2736C65.5665 27.4486 65.5665 26.6236 65.5665 25.811C65.6 25.7671 65.6368 25.7258 65.6768 25.6877Z" fill="#4E4F50"/>
<path d="M44.7003 27.3132C44.7003 27.0053 44.7003 26.6975 44.7984 26.3897C44.8223 26.208 44.9116 26.0412 45.0493 25.921C45.1871 25.8008 45.3638 25.7355 45.5462 25.737C46.0196 25.7001 46.495 25.7001 46.9684 25.737C47.1576 25.7395 47.3392 25.8129 47.4776 25.9427C47.6159 26.0725 47.7009 26.2495 47.7162 26.439C47.8026 27.0309 47.8026 27.6323 47.7162 28.2243C47.7066 28.4279 47.6177 28.6197 47.4686 28.7579C47.3195 28.8962 47.1222 28.9699 46.9193 28.9632C46.511 28.9869 46.1017 28.9869 45.6934 28.9632C45.5696 28.9684 45.4461 28.9477 45.3307 28.9025C45.2153 28.8573 45.1106 28.7884 45.023 28.7005C44.9354 28.6125 44.8669 28.5074 44.8219 28.3915C44.7769 28.2756 44.7564 28.1517 44.7616 28.0274C44.7616 27.7812 44.7616 27.5471 44.7616 27.3008L44.7003 27.3132ZM45.2888 26.3527C45.1853 26.9102 45.1853 27.4822 45.2888 28.0397C45.2949 28.1542 45.3438 28.262 45.4255 28.3419C45.5073 28.4217 45.6161 28.4676 45.7301 28.4705C46.1134 28.5075 46.4993 28.5075 46.8825 28.4705C47.2135 28.4705 47.2749 28.3106 47.2871 27.9781C47.2994 27.6457 47.2871 27.1901 47.2871 26.8084C47.2871 26.4267 47.1277 26.2541 46.7477 26.2171C46.4949 26.1925 46.2404 26.1925 45.9876 26.2171C45.7518 26.2516 45.5184 26.3011 45.2888 26.365V26.3527Z" fill="#4E4F50"/>
<path d="M80.3518 28.9754V25.6999H82.3379C82.4696 25.6832 82.6034 25.6975 82.7287 25.7414C82.8541 25.7854 82.9675 25.8579 83.0602 25.9533C83.1529 26.0488 83.2222 26.1646 83.2628 26.2915C83.3034 26.4185 83.3141 26.5532 83.2941 26.685C83.2941 27.1283 83.2941 27.584 83.2941 28.0396C83.3047 28.1604 83.2895 28.282 83.2494 28.3964C83.2094 28.5108 83.1453 28.6153 83.0617 28.7028C82.9781 28.7902 82.8768 28.8587 82.7646 28.9036C82.6525 28.9485 82.5321 28.9688 82.4114 28.9631C81.7739 29 81.0751 28.9754 80.3518 28.9754ZM80.8422 26.1926C80.7374 26.9648 80.7374 27.7475 80.8422 28.5197C81.3203 28.5197 81.8107 28.5197 82.3011 28.5197C82.5708 28.5197 82.7547 28.3965 82.767 28.1256C82.767 27.6084 82.767 27.0913 82.767 26.5618C82.7615 26.4709 82.7239 26.3853 82.661 26.3198C82.5981 26.2543 82.5139 26.2136 82.4237 26.205C81.8965 26.1803 81.3693 26.1926 80.8422 26.1926Z" fill="#4E4F50"/>
<path d="M36.4127 28.9508H35.9222C35.9222 27.8918 35.9222 26.8328 35.9222 25.7616L36.1675 25.6999H36.4372C36.4853 26.1086 36.5098 26.5197 36.5108 26.9312C36.591 26.8953 36.6688 26.8544 36.7437 26.8083C37.1851 26.4882 37.6386 26.168 38.08 25.8232C38.2221 25.7297 38.3854 25.6738 38.5548 25.6609C38.7241 25.6479 38.894 25.6784 39.0486 25.7492L36.9888 27.2267C37.7489 27.8178 38.5336 28.3104 39.355 28.9015C39.1476 28.9561 38.9309 28.9655 38.7195 28.9294C38.5081 28.8933 38.3068 28.8124 38.1291 28.6919C37.6632 28.3102 37.1483 27.9656 36.5966 27.5716C36.4127 28.0518 36.5475 28.4829 36.4127 28.9508Z" fill="#4E4F50"/>
<path d="M28.4683 28.212L28.0637 28.9509H27.512C28.0882 27.8181 28.6153 26.722 29.1793 25.6631L29.7678 25.737L31.4351 28.9139C31.2394 28.9746 31.0301 28.9746 30.8344 28.9139L30.4298 28.1504L28.4683 28.212ZM29.449 26.1804L28.7134 27.6703H30.1846L29.449 26.1804Z" fill="#4E4F50"/>
<path d="M21.5783 28.9632H20.9408L20.5239 28.1873C19.8987 28.1873 19.298 28.1873 18.5869 28.1873L18.1946 28.9263H17.6306L19.2735 25.7001H19.8987L21.5783 28.9632ZM19.58 26.1928L18.8443 27.6703H20.3155L19.58 26.1928Z" fill="#4E4F50"/>
<path d="M42.9349 26.1804V28.9509H42.3587C42.3285 28.4835 42.3285 28.0144 42.3587 27.547V26.1681H41.0347V25.6754H44.3326V26.1435L42.9349 26.1804Z" fill="#4E4F50"/>
<path d="M76.7106 25.7001V26.1435C76.2447 26.242 75.7911 26.1432 75.3007 26.2171C75.3007 27.116 75.3007 28.0274 75.3007 28.9632H74.7858C74.7555 28.4958 74.7555 28.0268 74.7858 27.5594V26.1804H73.4863L73.3882 25.6754L76.7106 25.7001Z" fill="#4E4F50"/>
<path d="M61.2265 25.7247V26.1681H60.6012H59.9638C59.8791 26.4555 59.8541 26.7572 59.8902 27.0546C59.8902 27.3748 59.8902 27.6949 59.8902 28.0028V28.9263H59.3139V26.1805H57.9531V25.7001L61.2265 25.7247Z" fill="#4E4F50"/>
</g>
<defs>
<clipPath id="clip0_150_27">
<rect width="69" height="28" fill="white" transform="translate(15 1)"/>
</clipPath>
</defs>
</svg>
