<svg width="63" height="62" viewBox="0 0 63 62" fill="none" xmlns="http://www.w3.org/2000/svg">
<g clip-path="url(#clip0_4_205)">
<path d="M31.4029 1.49721C37.201 1.49721 42.8689 3.21667 47.6896 6.43819C52.5104 9.65971 56.2674 14.2385 58.4856 19.5955C60.7038 24.9525 61.2835 30.8469 60.1514 36.5334C59.0192 42.2199 56.2262 47.4431 52.1254 51.542C48.0246 55.641 42.8004 58.4314 37.1134 59.561C31.4264 60.6905 25.5321 60.1082 20.1761 57.8875C14.8202 55.6669 10.243 51.9076 7.02369 47.0853C3.80437 42.2631 2.08741 36.5946 2.09005 30.7965C2.10067 23.0268 5.19276 15.5784 10.6881 10.0856C16.1834 4.5928 23.6332 1.50428 31.4029 1.49721ZM31.4029 0C25.3225 0 19.3786 1.80307 14.3229 5.18116C9.26724 8.55924 5.32689 13.3606 3.00003 18.9781C0.673162 24.5957 0.0643404 30.7771 1.25057 36.7406C2.43679 42.7042 5.36471 48.1821 9.6642 52.4815C13.9637 56.781 19.4417 59.7091 25.4053 60.8953C31.3688 62.0816 37.5501 61.4727 43.1676 59.1459C48.7852 56.819 53.5867 52.8785 56.9647 47.8228C60.3428 42.7672 62.1459 36.8234 62.1459 30.743C62.1459 22.5894 58.9069 14.7699 53.1415 9.00445C47.376 3.23902 39.5565 0 31.4029 0Z" fill="#f9f9f9"/>
<path d="M19.0656 23.5922H24.4122V40.5944H19.0656V23.5922ZM21.7389 15.1311C22.3475 15.1311 22.9424 15.3119 23.4482 15.6503C23.9541 15.9887 24.3481 16.4695 24.5804 17.032C24.8127 17.5945 24.8728 18.2135 24.753 18.8102C24.6333 19.4069 24.3391 19.9547 23.9078 20.3841C23.4766 20.8135 22.9276 21.105 22.3304 21.2221C21.7331 21.3392 21.1145 21.2767 20.553 21.042C19.9915 20.8072 19.5122 20.411 19.176 19.9037C18.8398 19.3964 18.6619 18.8007 18.6645 18.1921C18.6645 17.789 18.7442 17.3899 18.8988 17.0177C19.0535 16.6454 19.28 16.3074 19.5657 16.023C19.8513 15.7386 20.1904 15.5133 20.5633 15.3602C20.9362 15.2072 21.3358 15.1294 21.7389 15.1311Z" fill="#f9f9f9"/>
<path d="M27.6735 23.5922H32.7529V25.918C33.2595 25.0501 33.9918 24.3355 34.8721 23.8507C35.7523 23.3658 36.7476 23.1288 37.7519 23.1644C43.0985 23.1644 44.101 26.6799 44.101 31.2646V40.6211H38.7544V32.347C38.7544 30.3821 38.7544 27.8427 36.0142 27.8427C33.2741 27.8427 32.8464 29.9947 32.8464 32.2135V40.6211H27.4998L27.6735 23.5922Z" fill="#f9f9f9"/>
</g>
<defs>
<clipPath id="clip0_4_205">
<rect width="61.6063" height="61.6063" fill="white" transform="translate(0.606323)"/>
</clipPath>
</defs>
</svg>
