<svg width="40" height="40" viewBox="0 0 40 40" fill="none" xmlns="http://www.w3.org/2000/svg">
<g clip-path="url(#clip0_27_498)">
<path d="M19.4995 4.64508H19.9943C21.4275 4.71391 22.8213 5.14345 24.0506 5.8951C25.2799 6.64674 26.3061 7.69693 27.0369 8.95126C27.8139 10.2484 28.2667 11.719 28.3558 13.2348C28.4449 14.7506 28.1676 16.2655 27.5481 17.6474L24.0928 25.1874L22.7487 26.2011L19.4995 28.639L16.2504 26.2011L14.9062 25.1957L11.4509 17.6557C10.8293 16.2714 10.5509 14.7536 10.64 13.2347C10.7291 11.7159 11.1831 10.2423 11.9622 8.94287C12.693 7.68854 13.7192 6.63835 14.9484 5.88671C16.1777 5.13507 17.5716 4.70554 19.0047 4.63672H19.4995M19.4995 18.8035C20.4928 18.8035 21.4638 18.5043 22.2897 17.9436C23.1156 17.383 23.7593 16.5862 24.1394 15.6539C24.5195 14.7216 24.6189 13.6958 24.4252 12.7061C24.2314 11.7164 23.7531 10.8073 23.0507 10.0937C22.3484 9.38021 21.4535 8.8943 20.4793 8.69743C19.5051 8.50057 18.4953 8.60161 17.5776 8.98777C16.66 9.37393 15.8756 10.0279 15.3238 10.8669C14.7719 11.7059 14.4774 12.6923 14.4774 13.7014C14.4774 15.0546 15.0065 16.3523 15.9483 17.3091C16.8902 18.266 18.1676 18.8035 19.4995 18.8035ZM19.4995 4H18.9718C17.4379 4.07299 15.9459 4.53232 14.6302 5.33666C13.3145 6.141 12.2162 7.2651 11.4344 8.60777C10.6005 9.99516 10.1141 11.5691 10.0178 13.1917C9.92143 14.8144 10.2181 16.4363 10.8819 17.9154L14.4032 25.5643L15.8793 26.6702L19.4995 29.3846L23.1198 26.7205L24.5959 25.6146L28.1172 17.9657C28.7788 16.486 29.0743 14.8645 28.978 13.2422C28.8817 11.6199 28.3965 10.0462 27.5646 8.65803C26.782 7.31421 25.6825 6.18939 24.3653 5.38498C23.048 4.58058 21.5544 4.12189 20.0191 4.05026H19.4995V4ZM19.4995 18.1752C18.6282 18.1768 17.776 17.9158 17.0508 17.4253C16.3255 16.9347 15.7598 16.2366 15.4252 15.4193C15.0907 14.602 15.0023 13.7022 15.1713 12.8338C15.3402 11.9654 15.759 11.1675 16.3745 10.541C16.9901 9.91451 17.7747 9.48761 18.6291 9.31431C19.4836 9.14101 20.3694 9.22912 21.1746 9.56747C21.9797 9.90583 22.668 10.4792 23.1522 11.2151C23.6364 11.951 23.8949 12.8163 23.8949 13.7014C23.8928 14.8858 23.4292 16.0212 22.6056 16.8595C21.7821 17.6977 20.6654 18.1707 19.4995 18.1752Z" fill="#A5802D"/>
<path d="M24.5959 26.5529L19.8953 36.7738C19.858 36.8482 19.8014 36.9109 19.7317 36.9552C19.662 36.9994 19.5817 37.0236 19.4995 37.0251C19.4169 37.0255 19.3359 37.0021 19.2658 36.9576C19.1957 36.9132 19.1395 36.8494 19.1037 36.7738L14.3784 26.5529L15.8545 27.6588L19.4748 30.3732L23.0867 27.6672L24.5959 26.5529Z" fill="#00527F"/>
</g>
<defs>
<clipPath id="clip0_27_498">
<rect width="19" height="33" fill="white" transform="translate(10 4)"/>
</clipPath>
</defs>
</svg>
