<svg width="45" height="50" viewBox="0 0 45 50" fill="none" xmlns="http://www.w3.org/2000/svg">
<path d="M31.1003 22.84C30.1734 22.6703 29.2327 22.5866 28.2903 22.59C27.2294 22.5911 26.1712 22.695 25.1304 22.9C22.664 23.4017 20.3507 24.4782 18.3785 26.042C16.4064 27.6058 14.8309 29.6129 13.7803 31.9H15.0104C16.2351 29.4253 18.128 27.3429 20.475 25.8884C22.822 24.4339 25.5292 23.6654 28.2903 23.67C31.9562 23.6707 35.4916 25.031 38.2125 27.4878C40.9334 29.9446 42.6465 33.3232 43.0203 36.97L42.3003 37.37L42.0403 37.51L41.7903 37.65L27.6903 45.38L14.8003 37.9L14.5503 37.75L14.3003 37.6L13.5403 37.16C13.6033 36.4317 13.7237 35.7094 13.9003 35H12.7504C12.5427 35.9104 12.4155 36.8373 12.3704 37.77L12.6204 37.92L12.8704 38.07L13.7303 38.57L13.9803 38.72L14.2404 38.87L27.6703 46.73L42.3303 38.73L42.5903 38.59L42.8403 38.45L43.6903 37.98L43.9403 37.84L44.2003 37.7C44.0028 34.1118 42.603 30.6945 40.2266 27.9988C37.8501 25.3031 34.6355 23.4859 31.1003 22.84Z" fill="#A57F2D"/>
<path d="M44.2203 38.77V48.9C44.2084 49.1464 44.1059 49.3798 43.9324 49.5551C43.7589 49.7305 43.5265 49.8355 43.2803 49.85H13.2803C13.0322 49.8379 12.7977 49.7339 12.6221 49.5583C12.4465 49.3827 12.3424 49.1481 12.3303 48.9V38.9L13.2103 39.41L27.7003 47.9L42.8503 39.59L43.1003 39.44L44.2203 38.77Z" fill="#F9F9F9"/>
<path d="M27.9904 0C26.4631 0 24.9507 0.300807 23.5397 0.885269C22.1287 1.46973 20.8467 2.3264 19.7667 3.40634C18.6868 4.48629 17.8301 5.76837 17.2456 7.17938C16.6611 8.5904 16.3604 10.1027 16.3604 11.63C16.361 14.2162 17.2236 16.7285 18.8119 18.7695C20.4002 20.8106 22.6236 22.264 25.1304 22.9C26.0652 23.1377 27.0258 23.2586 27.9904 23.26C29.0411 23.2592 30.087 23.118 31.1003 22.84C33.5499 22.1585 35.7089 20.6936 37.2474 18.6693C38.786 16.645 39.6195 14.1726 39.6204 11.63C39.6204 8.54552 38.395 5.58739 36.214 3.40634C34.0329 1.22529 31.0748 0 27.9904 0ZM27.9904 22.13C25.2064 22.1273 22.5372 21.0203 20.5686 19.0517C18.6 17.0831 17.493 14.4139 17.4904 11.63C17.493 8.84511 18.5997 6.17491 20.568 4.20476C22.5363 2.23461 25.2055 1.12529 27.9904 1.12C30.7762 1.12528 33.4463 2.23428 35.4161 4.20415C37.386 6.17401 38.4951 8.84419 38.5004 11.63C38.4951 14.4149 37.3857 17.084 35.4155 19.0523C33.4454 21.0206 30.7752 22.1273 27.9904 22.13Z" fill="#A57F2D"/>
<path d="M8.07156 26.11L9.07156 27.2C9.08859 27.215 9.10214 27.2335 9.11148 27.2542C9.12082 27.2748 9.12564 27.2973 9.12564 27.32C9.12564 27.3427 9.12082 27.3651 9.11148 27.3858C9.10214 27.4065 9.08859 27.425 9.07156 27.44L3.91153 32.24C3.88628 32.264 3.86849 32.2947 3.86038 32.3286C3.85227 32.3624 3.85423 32.3979 3.86587 32.4307C3.87751 32.4635 3.89842 32.4923 3.92605 32.5134C3.95369 32.5346 3.98681 32.5473 4.02151 32.55H25.6815C25.7043 32.5485 25.727 32.5519 25.7483 32.5599C25.7696 32.568 25.7889 32.5804 25.805 32.5965C25.821 32.6126 25.8336 32.6319 25.8416 32.6532C25.8496 32.6745 25.8529 32.6973 25.8515 32.72V34.2C25.8515 34.2451 25.8337 34.2883 25.8018 34.3202C25.7699 34.3521 25.7266 34.37 25.6815 34.37H4.02151C3.98575 34.3677 3.95025 34.3768 3.91995 34.3959C3.88965 34.415 3.86612 34.4432 3.85281 34.4765C3.8395 34.5098 3.83698 34.5464 3.84573 34.5811C3.85448 34.6159 3.87404 34.647 3.90152 34.67L9.07156 39.48C9.08859 39.495 9.10214 39.5135 9.11148 39.5342C9.12082 39.5548 9.12564 39.5773 9.12564 39.6C9.12564 39.6227 9.12082 39.6451 9.11148 39.6658C9.10214 39.6865 9.08859 39.705 9.07156 39.72L8.07156 40.81C8.03801 40.8424 7.99319 40.8605 7.94656 40.8605C7.89993 40.8605 7.85512 40.8424 7.82156 40.81L0.0515423 33.58C0.0184975 33.5448 2.86102e-05 33.4983 2.86102e-05 33.45C2.86102e-05 33.4017 0.0184975 33.3552 0.0515423 33.32L7.82156 26.09C7.85765 26.0602 7.90391 26.0455 7.95059 26.0493C7.99727 26.053 8.04068 26.0748 8.07156 26.11Z" fill="#F9F9F9"/>
</svg>
