<svg width="235" height="56" viewBox="0 0 235 56" fill="none" xmlns="http://www.w3.org/2000/svg">
<g clip-path="url(#clip0_137_165)">
<path d="M13.4533 50.4798L11.8586 53.7664H0L8.94749 35.1848L13.4533 50.4798Z" fill="#F9F9FA"/>
<path d="M41.8156 33.0788L37.3847 48.5759L25.8899 24.9314L14.3845 48.5759L9.95355 33.0788L25.8899 0L41.8156 33.0788Z" fill="#A57F2D"/>
<path d="M51.7691 53.7664H39.9105L38.3158 50.4798L42.8324 35.1848L51.7691 53.7664Z" fill="#F9F9FA"/>
<path d="M56.8422 44.9382V8.85999H48.28V43.6619L53.1177 53.7132H63.9702V44.9382H56.8422Z" fill="#F9F9FA"/>
<path d="M74.5981 45.2041V35.0678H83.0746V26.5587H65.9502V53.7557H86.6386V45.2467L74.5981 45.2041ZM65.9288 8.87061V25.0909H74.491V16.5819H86.5102V8.87061H65.9288Z" fill="#F9F9FA"/>
<path d="M111.255 8.85999H102.575L99.6639 17.8157L96.8062 8.85999H88.137L95.3507 31.3132L88.137 53.7557H96.8062L99.6639 44.8744L102.575 53.7557H111.255L104.031 31.3132L111.255 8.85999Z" fill="#F9F9FA"/>
<path d="M119.892 53.7663H116.949L115.975 51.756L114.99 53.7663H112.047L115.161 47.2994L115.975 45.6083L116.778 47.2994L119.892 53.7663Z" fill="#A57F2D"/>
<path d="M144.819 55.9999V55.1065H145.707V55.9999H144.819ZM143.074 55.9999V55.1065H143.952V55.9999H143.074ZM143.577 53.9897C143.349 54.0218 143.117 54.0018 142.898 53.9312C142.68 53.8605 142.48 53.7411 142.315 53.582C142.15 53.423 142.023 53.2284 141.945 53.0134C141.867 52.7983 141.84 52.5683 141.865 52.341V49.3097H142.753V52.5006C142.828 52.9792 143.053 53.0643 143.47 53.0643H145.257C145.889 53.0643 145.964 52.6495 145.964 52.4687V51.9475H143.909V49.3416C143.901 49.1109 143.942 48.8811 144.029 48.6672C144.116 48.4533 144.248 48.2602 144.416 48.1005C144.584 47.9408 144.784 47.8181 145.002 47.7406C145.221 47.663 145.454 47.6323 145.686 47.6504H146.884V48.5333H145.643C145.258 48.5333 144.797 48.6928 144.797 49.448V51.1072H146.852V52.3623C146.877 52.5896 146.85 52.8195 146.772 53.0346C146.694 53.2497 146.567 53.4442 146.402 53.6033C146.237 53.7624 146.037 53.8818 145.818 53.9525C145.6 54.0231 145.368 54.0431 145.14 54.0109L143.577 53.9897Z" fill="#F9F9FA"/>
<path d="M147.955 53.1282C148.1 53.1475 148.247 53.1332 148.386 53.0866C148.525 53.0399 148.651 52.9622 148.754 52.8593C148.858 52.7564 148.936 52.6312 148.983 52.4933C149.03 52.3555 149.044 52.2088 149.025 52.0646V47.6505H149.913V51.905C149.913 52.0646 149.913 52.2028 149.913 52.3092C149.905 52.6876 149.79 53.0562 149.581 53.3728C149.459 53.5474 149.3 53.6938 149.115 53.8021C148.93 53.9103 148.724 53.9779 148.511 54.0004H148.426H147.965L147.955 53.1282Z" fill="#F9F9FA"/>
<path d="M156.292 53.0856H155.393V53.9897H156.292V53.0856Z" fill="#F9F9FA"/>
<path d="M160.884 46.5443V45.6615H161.772V46.5443H160.884ZM159.139 46.5443V45.6615H160.027V46.5443H159.139Z" fill="#F9F9FA"/>
<path d="M151.187 51.9688V45.6615H152.075V51.1073H157.031V49.448C157.031 48.6503 156.517 48.5333 156.206 48.5333H154.548V47.6505H156.206C156.438 47.6323 156.671 47.6631 156.89 47.7406C157.108 47.8182 157.308 47.9408 157.476 48.1005C157.644 48.2602 157.776 48.4533 157.863 48.6672C157.95 48.8811 157.991 49.1109 157.983 49.3417V51.1073H160.926V47.6505H161.815V51.1073H163.698V45.6828H164.587V51.9901L151.187 51.9688Z" fill="#F9F9FA"/>
<path d="M166.706 45.6615H165.818V51.9688H166.706V45.6615Z" fill="#F9F9FA"/>
<path d="M169.799 55.0746C170.345 54.9576 170.516 54.6917 170.516 54.0109V49.3416C170.508 49.1138 170.548 48.8868 170.634 48.6753C170.719 48.4637 170.848 48.2722 171.012 48.113C171.177 47.9539 171.372 47.8305 171.587 47.7508C171.802 47.6712 172.032 47.637 172.261 47.6504H173.598V51.171C173.616 51.4074 173.582 51.6447 173.499 51.8668C173.416 52.089 173.286 52.2907 173.117 52.4583C172.948 52.6259 172.745 52.7553 172.522 52.8379C172.298 52.9204 172.06 52.9541 171.822 52.9367H171.372V53.8833C171.372 55.2128 170.848 55.9042 169.767 56.0106L169.799 55.0746ZM172.261 48.5333C171.875 48.5333 171.415 48.6928 171.415 49.448V52.0432H171.907C172.293 52.0432 172.753 51.8837 172.753 51.1179V48.5333H172.261Z" fill="#F9F9FA"/>
<path d="M182.514 46.5443V45.6615H183.413V46.5443H182.514ZM180.769 46.5443V45.6615H181.658V46.5443H180.769Z" fill="#F9F9FA"/>
<path d="M186.699 46.5443V45.6615H187.587V46.5443H186.699ZM184.954 46.5443V45.6615H185.842V46.5443H184.954Z" fill="#F9F9FA"/>
<path d="M174.925 51.9688V51.1072H177.612V50.1925C177.635 49.9697 177.607 49.7446 177.529 49.5344C177.451 49.3243 177.325 49.1346 177.162 48.98C176.992 48.8296 176.791 48.7171 176.574 48.6503C176.304 48.5854 176.027 48.5497 175.75 48.5439V47.6611H175.974C176.541 47.6417 177.1 47.8019 177.569 48.1184C177.89 48.3543 178.145 48.6676 178.309 49.0287C178.474 49.3898 178.544 49.7867 178.511 50.1819V51.1072H181.154L180.973 50.8413C180.917 50.757 180.848 50.6817 180.769 50.618C180.518 50.2919 180.386 49.8905 180.395 49.4799C180.379 49.1543 180.456 48.8308 180.617 48.5468C180.778 48.2627 181.016 48.0294 181.304 47.8738C181.641 47.7275 182.007 47.6584 182.375 47.6717H183.67V51.1072H186.613V47.6504H187.501V51.1072H189.374V45.6827H190.263V51.1072H192.135V45.6827H193.013V51.9901L174.925 51.9688ZM182.417 48.5333C181.486 48.5333 181.347 49.097 181.347 49.448C181.347 50.1181 181.797 50.618 182.674 50.9264L182.899 51.0009V48.5333H182.417Z" fill="#F9F9FA"/>
<path d="M199.456 46.5443V45.6615H200.345V46.5443H199.456ZM197.701 46.5443V45.6615H198.6V46.5443H197.701Z" fill="#F9F9FA"/>
<path d="M203.298 53.9897V53.0856H204.187V53.9897H203.298ZM201.543 53.9897V53.0856H202.432V53.9897H201.543Z" fill="#F9F9FA"/>
<path d="M199.456 51.9688V48.778L199.231 48.863C198.322 49.1609 197.605 50.3096 197.262 52.0539H196.331C196.62 49.565 198.108 47.9696 200.345 47.7462V51.1073H203.298V47.6505H204.187V51.9688H199.456Z" fill="#F9F9FA"/>
<path d="M205.257 53.1282C205.402 53.1475 205.55 53.1332 205.689 53.0866C205.827 53.0399 205.953 52.9622 206.057 52.8593C206.16 52.7564 206.239 52.6312 206.285 52.4933C206.332 52.3555 206.347 52.2088 206.327 52.0646V47.6505H207.216V51.905C207.216 52.0646 207.216 52.2028 207.216 52.3092C207.208 52.6876 207.093 53.0562 206.884 53.3728C206.761 53.5474 206.602 53.6938 206.417 53.8021C206.233 53.9103 206.027 53.9779 205.814 54.0004H205.728H205.268L205.257 53.1282Z" fill="#F9F9FA"/>
<path d="M214.868 45.6615H213.98V46.5443H214.868V45.6615Z" fill="#F9F9FA"/>
<path d="M208.489 51.9688V51.1072H211.219V50.1925C211.24 49.9716 211.213 49.7488 211.139 49.5395C211.065 49.3301 210.946 49.1392 210.79 48.98C210.616 48.8293 210.412 48.7169 210.191 48.6502C209.921 48.5837 209.645 48.548 209.367 48.5439V47.6611H209.602C210.166 47.6417 210.721 47.802 211.186 48.1184C211.509 48.3529 211.765 48.6659 211.93 49.0274C212.095 49.3888 212.163 49.7865 212.128 50.1819V51.1072H214.001V47.6504H214.89V51.1072H220.648V50.4265C220.666 50.3064 220.656 50.1837 220.62 50.0677C220.584 49.9516 220.522 49.8452 220.438 49.7563C220.355 49.6674 220.253 49.5983 220.139 49.5541C220.025 49.5099 219.903 49.4918 219.781 49.5011H216.73V47.6185L219.31 45.6934H220.776L217.629 48.0333V48.5864H219.77C219.996 48.5792 220.222 48.6178 220.433 48.6999C220.644 48.7821 220.836 48.906 220.997 49.0642C221.158 49.2225 221.285 49.4116 221.371 49.6202C221.456 49.8288 221.498 50.0525 221.493 50.2776V51.1072H225.657V47.7568H226.545V51.1072H228.3V47.81H229.188V51.1072H230.912V47.6504H231.8V51.9688H208.489Z" fill="#F9F9FA"/>
<path d="M234.251 45.6615H233.362V51.9688H234.251V45.6615Z" fill="#F9F9FA"/>
<path d="M234.422 53.1175V53.6068H233.994C233.801 53.6068 233.705 53.7131 233.705 53.9365C233.705 54.1598 233.812 54.2237 234.037 54.2237H234.604V54.6917H233.009V54.2237H233.266C233.232 54.1385 233.21 54.049 233.202 53.9578C233.197 53.8471 233.216 53.7368 233.256 53.6335C233.296 53.5303 233.358 53.4364 233.436 53.3576C233.514 53.2788 233.608 53.2169 233.711 53.1756C233.815 53.1343 233.925 53.1145 234.037 53.1175H234.422Z" fill="#F9F9FA"/>
<path d="M233.181 54.5214V54.3938H233.512L233.437 54.1704C233.413 54.1013 233.395 54.0301 233.384 53.9577C233.379 53.8694 233.393 53.7812 233.425 53.6986C233.457 53.616 233.505 53.5408 233.568 53.4778C233.63 53.4148 233.705 53.3653 233.787 53.3326C233.87 53.2999 233.959 53.2846 234.047 53.2876H234.24V53.4365H233.994C233.929 53.4345 233.865 53.4465 233.805 53.4715C233.746 53.4965 233.692 53.534 233.648 53.5815C233.605 53.629 233.572 53.6852 233.552 53.7465C233.532 53.8078 233.526 53.8726 233.534 53.9364C233.53 54.0012 233.541 54.0661 233.565 54.1263C233.59 54.1865 233.627 54.2404 233.676 54.2843C233.724 54.3281 233.781 54.3607 233.844 54.3796C233.906 54.3986 233.972 54.4034 234.037 54.3938H234.433V54.5214H233.181Z" fill="#F9F9FA"/>
<path d="M145.225 7.65808H143.759C142.271 7.65808 141.619 8.21117 141.619 9.51943V15.2311H143.171V10.0725C143.16 9.92212 143.181 9.77115 143.234 9.62962C143.286 9.48809 143.368 9.35925 143.474 9.25162C143.58 9.144 143.709 9.06006 143.85 9.00538C143.991 8.95069 144.143 8.92651 144.294 8.93444H144.669C144.816 8.93408 144.962 8.96385 145.097 9.0219C145.232 9.07994 145.353 9.16502 145.453 9.27181C145.554 9.3786 145.631 9.50482 145.68 9.64258C145.729 9.78035 145.749 9.9267 145.739 10.0725V15.2843H141.565V22.8254H143.117V16.8372H145.739V22.8254H147.302V9.51943C147.366 8.21117 146.724 7.65808 145.225 7.65808Z" fill="#F9F9FA"/>
<path d="M151.925 21.1981H149.688V7.63684H148.137V22.8361H151.925V21.1981Z" fill="#F9F9FA"/>
<path d="M156.635 21.2832H153.98V14.7525H156.635V13.2102H153.98V8.94507H156.87V7.65808H152.428V22.836H156.635V21.2832Z" fill="#F9F9FA"/>
<path d="M162.81 22.8361L160.734 14.1569L162.831 7.63684H161.312L159.963 11.7744L158.647 7.63684H157.127L159.225 14.1569L157.148 22.8361H158.668L159.963 16.8798L161.29 22.8361H162.81Z" fill="#F9F9FA"/>
<path d="M164.694 16.8372H167.316V22.8254H168.868V9.51943C168.868 8.21117 168.236 7.65808 166.727 7.65808H165.272C163.773 7.65808 163.131 8.21117 163.131 9.51943V15.2311H164.694V10.0725C164.683 9.92022 164.705 9.76731 164.758 9.6242C164.812 9.48109 164.896 9.35113 165.004 9.24315C165.113 9.13518 165.244 9.05171 165.388 8.99844C165.532 8.94517 165.686 8.92334 165.839 8.93444H166.214C166.365 8.92651 166.517 8.95069 166.658 9.00538C166.799 9.06006 166.927 9.144 167.034 9.25162C167.14 9.35925 167.222 9.48809 167.274 9.62962C167.327 9.77115 167.348 9.92212 167.337 10.0725V15.2843H163.153V22.8254H164.715L164.694 16.8372Z" fill="#F9F9FA"/>
<path d="M171.04 10.615L173.513 22.8361H175.568V7.63684H174.016V20.1345L171.479 7.63684H169.478V22.8361H171.04V10.615Z" fill="#F9F9FA"/>
<path d="M182.043 20.9747V9.51943C182.043 8.21117 181.401 7.65808 179.902 7.65808H176.295V22.8254H179.902C181.401 22.8254 182.043 22.2723 182.043 20.9747ZM180.48 10.0725V20.4961C180.491 20.6465 180.47 20.7974 180.417 20.939C180.365 21.0805 180.283 21.2093 180.177 21.317C180.07 21.4246 179.942 21.5085 179.801 21.5632C179.659 21.6179 179.508 21.6421 179.356 21.6342H177.858V8.93444H179.356C179.508 8.92651 179.659 8.95069 179.801 9.00538C179.942 9.06006 180.07 9.144 180.177 9.25162C180.283 9.35925 180.365 9.48809 180.417 9.62962C180.47 9.77115 180.491 9.92212 180.48 10.0725Z" fill="#F9F9FA"/>
<path d="M186.913 10.0513V12.9019C186.92 13.0459 186.898 13.19 186.847 13.3252C186.796 13.4605 186.719 13.5841 186.619 13.6886C186.519 13.793 186.398 13.8762 186.265 13.9329C186.131 13.9897 185.987 14.0188 185.842 14.0187H185.082L186.699 22.8255H188.315L186.955 15.6779L187.48 15.4971C187.961 15.3269 188.55 14.9759 188.55 13.7953V9.54079C188.55 8.23253 187.908 7.67944 186.41 7.67944H182.942V22.8255H184.494V8.93452H185.874C186.017 8.93859 186.157 8.97089 186.287 9.02952C186.417 9.08816 186.533 9.17194 186.63 9.27597C186.727 9.37999 186.801 9.50216 186.85 9.63531C186.898 9.76845 186.92 9.90989 186.913 10.0513Z" fill="#F9F9FA"/>
<path d="M190.776 7.64746H189.214V22.8148H190.776V7.64746Z" fill="#F9F9FA"/>
<path d="M195.807 22.8254H197.369V9.51943C197.369 8.21117 196.727 7.65808 195.229 7.65808H193.762C192.264 7.65808 191.622 8.21117 191.622 9.51943V15.2311H193.174V10.0725C193.163 9.92212 193.184 9.77115 193.237 9.62962C193.289 9.48809 193.371 9.35925 193.477 9.25162C193.584 9.144 193.712 9.06006 193.853 9.00538C193.994 8.95069 194.146 8.92651 194.297 8.93444H194.672C194.819 8.93408 194.965 8.96385 195.1 9.0219C195.235 9.07994 195.356 9.16502 195.457 9.27181C195.557 9.3786 195.634 9.50482 195.683 9.64258C195.733 9.78035 195.753 9.9267 195.742 10.0725V15.2843H191.568V22.8254H193.12V16.8372H195.807V22.8254Z" fill="#F9F9FA"/>
<path d="M144.776 26.8247H141.479V42.0665H143.096V35.5039H144.776C146.296 35.5039 146.917 34.9402 146.917 33.6213V28.7073C146.938 27.3884 146.296 26.8247 144.776 26.8247ZM145.332 29.2498V32.7278C145.332 33.0099 145.22 33.2805 145.019 33.4799C144.818 33.6794 144.546 33.7915 144.262 33.7915H143.128V28.1649H144.262C144.405 28.1648 144.546 28.1931 144.677 28.2478C144.808 28.3026 144.927 28.3829 145.027 28.4839C145.126 28.5849 145.205 28.7047 145.257 28.8362C145.31 28.9677 145.335 29.1083 145.332 29.2498Z" fill="#F9F9FA"/>
<path d="M151.219 26.8247H147.719V42.0665H149.325V28.1649H150.673C150.957 28.1649 151.229 28.2769 151.43 28.4764C151.631 28.6759 151.743 28.9464 151.743 29.2285V32.079C151.743 32.3611 151.631 32.6317 151.43 32.8311C151.229 33.0306 150.957 33.1427 150.673 33.1427H149.892L151.519 42.0133H153.188L151.829 34.8445L152.332 34.6636C152.824 34.4935 153.402 34.1425 153.402 32.9406V28.6861C153.381 27.3884 152.739 26.8247 151.219 26.8247Z" fill="#F9F9FA"/>
<path d="M157.619 26.8247H156.206C154.687 26.8247 154.066 27.3884 154.066 28.7073V40.1839C154.066 41.5028 154.708 42.0665 156.206 42.0665H157.673C159.193 42.0665 159.813 41.5028 159.813 40.1839V28.7073C159.781 27.3884 159.139 26.8247 157.619 26.8247ZM158.176 29.2498V39.7052C158.176 39.9873 158.063 40.2579 157.862 40.4573C157.662 40.6568 157.389 40.7689 157.105 40.7689H156.731C156.447 40.7689 156.175 40.6568 155.974 40.4573C155.773 40.2579 155.661 39.9873 155.661 39.7052V29.2498C155.661 28.9677 155.773 28.6971 155.974 28.4977C156.175 28.2982 156.447 28.1862 156.731 28.1862H157.105C157.389 28.1862 157.662 28.2982 157.862 28.4977C158.063 28.6971 158.176 28.9677 158.176 29.2498Z" fill="#F9F9FA"/>
<path d="M170.398 26.8247H166.909V42.0665H168.525V28.1649H169.874C170.158 28.1649 170.43 28.2769 170.631 28.4764C170.831 28.6759 170.944 28.9464 170.944 29.2285V32.079C170.944 32.3611 170.831 32.6317 170.631 32.8311C170.43 33.0306 170.158 33.1427 169.874 33.1427H169.05L170.677 42.0133H172.346L170.987 34.8445L171.49 34.6636C171.982 34.4935 172.56 34.1425 172.56 32.9406V28.6861C172.56 27.3884 171.918 26.8247 170.398 26.8247Z" fill="#F9F9FA"/>
<path d="M173.288 42.0665H177.548V40.4604H174.893V33.9829H177.548V32.3875H174.893V28.1649H177.783V26.8353H173.288V42.0665Z" fill="#F9F9FA"/>
<path d="M181.957 26.8247H180.502C178.982 26.8247 178.361 27.3884 178.361 28.7073V31.1218C178.36 31.3513 178.415 31.5777 178.522 31.7812C178.617 31.9914 178.764 32.1743 178.95 32.313L182.161 34.7913C182.296 34.9137 182.405 35.0632 182.478 35.2299C182.552 35.3967 182.59 35.577 182.589 35.7592V39.7052C182.589 39.9873 182.476 40.2579 182.275 40.4573C182.075 40.6568 181.802 40.7689 181.518 40.7689H181.133C180.849 40.7689 180.577 40.6568 180.376 40.4573C180.176 40.2579 180.063 39.9873 180.063 39.7052V35.4507H178.447V40.1307C178.447 41.4496 179.1 42.0133 180.587 42.0133H182.043C183.83 42.0133 184.183 41.1837 184.183 40.4391V35.0359C184.193 34.8014 184.144 34.5682 184.041 34.3568C183.938 34.1455 183.785 33.9623 183.595 33.8234L180.491 31.377C180.338 31.2637 180.213 31.1161 180.127 30.9461C180.042 30.7761 179.998 30.5885 179.999 30.3985V29.2498C179.999 28.9677 180.111 28.6971 180.312 28.4977C180.513 28.2982 180.785 28.1862 181.069 28.1862H181.454C181.738 28.1862 182.01 28.2982 182.211 28.4977C182.412 28.6971 182.525 28.9677 182.525 29.2498V30.5687H184.141V28.7073C184.13 27.3884 183.477 26.8247 181.957 26.8247Z" fill="#F9F9FA"/>
<path d="M188.593 26.8247H187.127C185.607 26.8247 184.986 27.3884 184.986 28.7073V31.1218C184.985 31.3513 185.04 31.5777 185.147 31.7812C185.246 31.9892 185.392 32.1713 185.575 32.313L188.786 34.7913C188.921 34.9137 189.03 35.0632 189.103 35.2299C189.177 35.3967 189.215 35.577 189.214 35.7592V39.7052C189.214 39.9873 189.101 40.2579 188.9 40.4573C188.7 40.6568 188.427 40.7689 188.143 40.7689H187.769C187.485 40.7689 187.213 40.6568 187.012 40.4573C186.811 40.2579 186.699 39.9873 186.699 39.7052V35.4507H185.082V40.1307C185.082 41.4496 185.735 42.0133 187.223 42.0133H188.689C190.466 42.0133 190.776 41.1837 190.83 40.4391V35.0359C190.842 34.801 190.794 34.5668 190.691 34.355C190.588 34.1431 190.434 33.9603 190.241 33.8234L187.137 31.377C186.984 31.2637 186.859 31.1161 186.774 30.9461C186.688 30.7761 186.644 30.5885 186.645 30.3985V29.2498C186.645 28.9677 186.758 28.6971 186.958 28.4977C187.159 28.2982 187.431 28.1862 187.715 28.1862H188.09C188.374 28.1862 188.646 28.2982 188.847 28.4977C189.047 28.6971 189.16 28.9677 189.16 29.2498V30.5687H190.776V28.7073C190.755 27.3884 190.102 26.8247 188.593 26.8247Z" fill="#F9F9FA"/>
<path d="M163.934 26.8247H162.478C160.958 26.8247 160.338 27.3884 160.338 28.7073V40.1839C160.338 41.5028 160.991 42.0665 162.478 42.0665H166.106V33.483H163.484V35.1529H164.49V40.7901H162.885C162.751 40.7847 162.619 40.7528 162.498 40.6961C162.376 40.6394 162.268 40.5591 162.178 40.46C162.088 40.3609 162.019 40.2449 161.975 40.119C161.931 39.993 161.913 39.8596 161.922 39.7265V29.2498C161.922 28.9677 162.035 28.6971 162.235 28.4977C162.436 28.2982 162.708 28.1862 162.992 28.1862H163.388C163.672 28.1862 163.944 28.2982 164.145 28.4977C164.346 28.6971 164.458 28.9677 164.458 29.2498V30.5687H166.074V28.7073C166.106 27.3884 165.454 26.8247 163.934 26.8247Z" fill="#F9F9FA"/>
<path d="M193.837 28.5264H195.539V42.0451H197.144V28.5264H198.857V26.8778H193.837V28.5264Z" fill="#F9F9FA"/>
<path d="M203.191 26.9098H199.702V42.0878H201.308V28.2606H202.646C202.929 28.2606 203.202 28.3727 203.402 28.5721C203.603 28.7716 203.716 29.0421 203.716 29.3242V32.1535C203.716 32.4356 203.603 32.7061 203.402 32.9056C203.202 33.105 202.929 33.2171 202.646 33.2171H201.864L203.48 42.0665H205.15L203.802 34.9189L204.294 34.7487C204.786 34.5785 205.364 34.2275 205.364 33.0256V28.7711C205.343 27.4735 204.701 26.9098 203.191 26.9098Z" fill="#F9F9FA"/>
<path d="M209.838 26.8566H208.382C206.873 26.8566 206.242 27.4203 206.242 28.7392V34.387H207.847V29.2923C207.847 29.0102 207.96 28.7396 208.161 28.5402C208.361 28.3407 208.634 28.2286 208.917 28.2286H209.292C209.576 28.2286 209.848 28.3407 210.049 28.5402C210.25 28.7396 210.362 29.0102 210.362 29.2923V34.4509H206.199V42.0345H207.804V36.0463H210.362V42.0345H211.968V28.7711C212 27.4203 211.347 26.8566 209.838 26.8566Z" fill="#F9F9FA"/>
<path d="M216.463 26.8672H212.845V42.0452H216.463C217.972 42.0452 218.603 41.4814 218.603 40.1732V28.7711C218.614 27.4309 217.972 26.8672 216.463 26.8672ZM217.009 29.3029V39.6945C217.009 39.9766 216.896 40.2472 216.695 40.4466C216.495 40.6461 216.222 40.7582 215.938 40.7582H214.472V28.1967H215.938C216.083 28.1966 216.225 28.2255 216.358 28.2816C216.491 28.3377 216.611 28.4198 216.711 28.5231C216.811 28.6265 216.889 28.7488 216.94 28.8828C216.991 29.0168 217.014 29.1597 217.009 29.3029Z" fill="#F9F9FA"/>
<path d="M221.14 26.8778H219.535V42.0451H221.14V26.8778Z" fill="#F9F9FA"/>
<path d="M226.738 39.0989L224.254 26.8566H222.221V42.0452H223.826V30.0794L226.245 42.0452H228.343V26.8566H226.738V39.0989Z" fill="#F9F9FA"/>
<path d="M234.989 30.59V28.7712C234.989 27.4523 234.347 26.8885 232.849 26.8885H231.393C229.884 26.8885 229.253 27.4523 229.253 28.7712V40.1626C229.253 41.4709 229.905 42.0346 231.393 42.0346H235V33.5256H232.399V35.1529H233.395V40.8114H231.8C231.535 40.785 231.289 40.6613 231.111 40.4647C230.933 40.268 230.835 40.0124 230.837 39.7478V29.2711C230.837 28.989 230.949 28.7184 231.15 28.519C231.351 28.3195 231.623 28.2074 231.907 28.2074H232.303C232.587 28.2074 232.859 28.3195 233.06 28.519C233.26 28.7184 233.373 28.989 233.373 29.2711V30.59H234.989Z" fill="#F9F9FA"/>
<path d="M135.871 43.2896C135.875 43.5195 135.82 43.7465 135.711 43.949C135.602 44.1379 135.443 44.2927 135.25 44.3958L134.897 44.1299C135.061 44.0403 135.201 43.9125 135.304 43.7576C135.398 43.6196 135.446 43.4561 135.443 43.2896C135.444 43.1902 135.422 43.0919 135.379 43.0024C135.336 42.9179 135.274 42.845 135.197 42.7897C135.11 42.7364 135.01 42.7104 134.908 42.7152C134.819 42.7073 134.731 42.734 134.662 42.7897C134.592 42.855 134.537 42.9349 134.501 43.0237C134.438 43.1509 134.385 43.2824 134.341 43.4172C134.341 43.5342 134.234 43.6512 134.169 43.7682C134.108 43.8797 134.024 43.9775 133.923 44.0554C133.814 44.1313 133.682 44.1688 133.549 44.1618C133.396 44.1635 133.247 44.119 133.121 44.0341C132.991 43.9415 132.888 43.8168 132.821 43.6725C132.745 43.5092 132.709 43.3309 132.714 43.1513C132.714 42.9905 132.747 42.8313 132.81 42.6833C132.879 42.5272 132.973 42.3834 133.088 42.2579L133.431 42.4812C133.334 42.5628 133.256 42.6636 133.2 42.7772C133.145 42.8908 133.114 43.0146 133.11 43.1407C133.108 43.2692 133.145 43.3952 133.217 43.5023C133.252 43.5438 133.297 43.5769 133.347 43.599C133.397 43.6211 133.451 43.6317 133.506 43.63C133.55 43.6314 133.593 43.6237 133.634 43.6072C133.675 43.5907 133.711 43.5658 133.741 43.5342C133.802 43.4576 133.856 43.3758 133.902 43.2896L134.03 42.9705C134.087 42.8218 134.151 42.6762 134.223 42.5344C134.278 42.419 134.363 42.32 134.469 42.2472C134.594 42.1701 134.74 42.133 134.887 42.1409C135.07 42.1313 135.251 42.1783 135.407 42.2754C135.562 42.3725 135.683 42.515 135.753 42.6833C135.833 42.8755 135.873 43.0817 135.871 43.2896Z" fill="#A57F2D"/>
<path d="M132.232 40.9177C132.248 40.9733 132.248 41.0323 132.232 41.0879C132.201 41.1405 132.157 41.1845 132.104 41.2155C132.044 41.2308 131.982 41.2308 131.922 41.2155C131.866 41.2309 131.807 41.2309 131.751 41.2155C131.698 41.1845 131.654 41.1405 131.622 41.0879C131.588 41.0374 131.57 40.9783 131.569 40.9177C131.57 40.8538 131.589 40.7914 131.622 40.7369C131.654 40.6842 131.698 40.6403 131.751 40.6093C131.807 40.5933 131.866 40.5933 131.922 40.6093C131.982 40.5935 132.044 40.5935 132.104 40.6093C132.157 40.6403 132.201 40.6842 132.232 40.7369C132.248 40.7961 132.248 40.8585 132.232 40.9177ZM135.807 41.1943H132.842V40.6305H135.807V41.1943Z" fill="#A57F2D"/>
<path d="M135.807 39.4074H132.842V38.8436H133.217C133.075 38.7471 132.96 38.615 132.885 38.4607C132.787 38.2741 132.739 38.0651 132.746 37.8545C132.738 37.6472 132.786 37.4416 132.885 37.2588C132.98 37.0902 133.126 36.956 133.303 36.8759C133.502 36.7779 133.722 36.7304 133.945 36.7377H135.807V37.2907H134.062C133.831 37.2791 133.603 37.3509 133.42 37.4928C133.343 37.5641 133.282 37.6518 133.244 37.7493C133.205 37.8469 133.188 37.9519 133.196 38.0566C133.192 38.2041 133.225 38.3503 133.292 38.482C133.358 38.5906 133.45 38.6817 133.559 38.7479C133.67 38.8105 133.796 38.8435 133.923 38.8436H135.807V39.4074Z" fill="#A57F2D"/>
<path d="M135.871 34.27C135.875 34.696 135.714 35.1073 135.422 35.4187C135.277 35.5628 135.107 35.6783 134.919 35.759C134.72 35.845 134.504 35.8885 134.287 35.8867C134.087 35.8841 133.89 35.8424 133.706 35.764C133.523 35.6855 133.356 35.5718 133.217 35.4293C133.069 35.2798 132.953 35.1027 132.874 34.9081C132.795 34.7046 132.755 34.4881 132.757 34.27C132.758 34.0825 132.787 33.8961 132.842 33.7169C132.889 33.5587 132.965 33.4107 133.067 33.2808L133.452 33.4829C133.3 33.6893 133.221 33.9398 133.228 34.1955C133.22 34.4008 133.272 34.604 133.378 34.7805C133.463 34.9313 133.584 35.0591 133.731 35.1528C133.9 35.2483 134.093 35.2961 134.287 35.2911C134.485 35.2921 134.68 35.2446 134.854 35.1528C135.019 35.0589 135.156 34.923 135.25 34.7592C135.356 34.5827 135.408 34.3795 135.4 34.1742C135.4 34.0448 135.382 33.916 135.347 33.7913C135.312 33.6747 135.253 33.5662 135.176 33.4722L135.55 33.2595C135.652 33.3913 135.731 33.5386 135.786 33.6956C135.843 33.8817 135.872 34.0753 135.871 34.27Z" fill="#A57F2D"/>
<path d="M135.871 31.0259C135.878 31.3154 135.808 31.6016 135.668 31.8556C135.537 32.099 135.341 32.3016 135.101 32.4406C134.86 32.5874 134.581 32.6614 134.298 32.6533C134.086 32.6524 133.875 32.6127 133.677 32.5363C133.491 32.453 133.32 32.3378 133.174 32.1959C133.031 32.0574 132.916 31.8922 132.837 31.7097C132.758 31.5272 132.716 31.3309 132.714 31.1323C132.709 30.8511 132.775 30.5731 132.907 30.3239C133.033 30.099 133.218 29.9117 133.442 29.7815C133.684 29.6496 133.957 29.5836 134.234 29.59H134.351V32.1321C134.546 32.1372 134.739 32.0894 134.908 31.9938C135.064 31.8999 135.193 31.7681 135.283 31.6109C135.363 31.4357 135.405 31.2452 135.405 31.0525C135.405 30.8598 135.363 30.6693 135.283 30.4941C135.191 30.3297 135.063 30.1879 134.908 30.0793L135.122 29.6751C135.355 29.8112 135.545 30.0104 135.668 30.2495C135.795 30.4892 135.865 30.755 135.871 31.0259ZM133.945 32.0896V30.1006C133.794 30.1203 133.653 30.1832 133.538 30.2814C133.421 30.3701 133.329 30.4873 133.27 30.6217C133.205 30.7652 133.172 30.9214 133.174 31.0791C133.17 31.2403 133.203 31.4004 133.27 31.5471C133.325 31.6837 133.418 31.8019 133.538 31.8875C133.665 31.9854 133.817 32.0446 133.977 32.0576L133.945 32.0896Z" fill="#A57F2D"/>
<path d="M136.107 27.4415H132.66V27.8776H132.179V26.9523H136.149L136.107 27.4415Z" fill="#A57F2D"/>
<path d="M136.107 25.5163L134.64 24.2932C134.736 24.4345 134.784 24.6018 134.78 24.7718C134.781 24.9431 134.748 25.1129 134.683 25.2717C134.62 25.4301 134.521 25.572 134.394 25.6865C134.269 25.806 134.124 25.9031 133.966 25.9737C133.789 26.0426 133.6 26.0786 133.41 26.0801C133.169 26.0805 132.933 26.0182 132.725 25.8992C132.518 25.7843 132.348 25.615 132.232 25.41C132.112 25.1843 132.053 24.9313 132.061 24.6761C132.051 24.4126 132.114 24.1514 132.243 23.9209C132.358 23.7097 132.528 23.5332 132.735 23.4103C132.947 23.2901 133.187 23.2277 133.431 23.2295C133.548 23.2181 133.667 23.2181 133.784 23.2295C133.887 23.2517 133.987 23.2838 134.084 23.3253C134.181 23.3665 134.274 23.4164 134.362 23.4742L134.63 23.6763L136.107 24.8994V25.5163ZM134.351 24.6548C134.353 24.5303 134.328 24.4068 134.276 24.2932C134.229 24.1849 134.16 24.0872 134.073 24.006C133.985 23.9232 133.884 23.855 133.773 23.8039C133.657 23.7618 133.534 23.7402 133.41 23.7401C133.241 23.7334 133.074 23.774 132.928 23.8571C132.79 23.9317 132.676 24.042 132.596 24.1762C132.521 24.3246 132.482 24.4886 132.482 24.6548C132.482 24.821 132.521 24.985 132.596 25.1334C132.679 25.2741 132.798 25.3906 132.941 25.4709C133.084 25.5512 133.245 25.5926 133.41 25.5908C133.579 25.5915 133.745 25.5474 133.891 25.4632C134.032 25.3875 134.147 25.273 134.223 25.1334C134.309 24.9884 134.353 24.823 134.351 24.6548Z" fill="#A57F2D"/>
<path d="M136.107 22.6978L132.564 20.7513V22.6339H132.136V20.0387H132.286L136.107 22.166V22.6978Z" fill="#A57F2D"/>
<path d="M136.107 17.9008H135.347V19.8685H135.165L132.136 17.9221V17.4328H134.919V16.9755H135.347V17.4328H136.107V17.9008ZM134.919 19.1984V17.9008H132.778L134.919 19.1984Z" fill="#A57F2D"/>
<path d="M134.448 7.63684H133.955V15.2843H134.448V7.63684Z" fill="#F9F9FA"/>
<path d="M134.448 46.0977H133.955V53.7558H134.448V46.0977Z" fill="#F9F9FA"/>
</g>
<defs>
<clipPath id="clip0_137_165">
<rect width="235" height="56" fill="white"/>
</clipPath>
</defs>
</svg>
