<svg width="100" height="30" viewBox="0 0 100 30" fill="none" xmlns="http://www.w3.org/2000/svg">
<g clip-path="url(#clip0_150_28)">
<path d="M4.33661 6.73998H9.42293L12.5631 15.4002H12.8138L15.9659 6.7157H20.9328C21.1905 11.2678 21.2223 15.8302 21.0283 20.3855H17.4464V13.0108H17.1359L14.366 20.5309H10.9632L8.1453 12.8651H7.94242V20.5066H4.36051L4.33661 6.73998Z" fill="#2C3588"/>
<path d="M61.6592 19.306L63.7606 20.8829C62.5722 21.0279 61.3734 21.0646 60.1787 20.9921L59.0921 20.155C57.0903 20.3267 55.0925 19.782 53.4446 18.6148C52.4769 17.9147 51.709 16.9664 51.2194 15.8668C50.7297 14.7671 50.5356 13.5553 50.6569 12.3547C50.7783 11.1541 51.2106 10.0075 51.9101 9.03185C52.6095 8.05623 53.551 7.28625 54.6386 6.80053C56.1667 6.02211 57.9075 5.78695 59.5828 6.13217C61.2582 6.4774 62.7712 7.38315 63.8799 8.70493C64.4591 9.40241 64.893 10.2121 65.1552 11.0849C65.4174 11.9577 65.5026 12.8754 65.4055 13.7826C65.3084 14.6898 65.0309 15.5677 64.5902 16.3628C64.1494 17.1579 63.5544 17.8537 62.8412 18.4084L61.6592 19.306ZM62.2083 13.2413C62.2195 12.6629 62.1168 12.0882 61.9062 11.5507C61.6956 11.0132 61.3815 10.524 60.9822 10.1115C60.5829 9.69911 60.1064 9.37191 59.5809 9.14912C59.0554 8.92633 58.4915 8.81247 57.922 8.8142C57.351 8.81509 56.7861 8.9339 56.2617 9.16333C55.7372 9.39276 55.264 9.72801 54.8709 10.1488C54.4779 10.5697 54.1731 11.0673 53.9752 11.6114C53.7772 12.1555 53.6901 12.7348 53.7192 13.3142C53.7095 13.8871 53.8135 14.4563 54.0249 14.9876C54.2362 15.5189 54.5508 16.0014 54.9496 16.4066C55.3485 16.8118 55.8235 17.1312 56.3465 17.3459C56.8695 17.5607 57.4296 17.6664 57.9936 17.6566C59.118 17.6312 60.1883 17.1602 60.9758 16.3444C61.7632 15.5286 62.2055 14.4325 62.2083 13.2899V13.2413Z" fill="#2C3588"/>
<path d="M28.228 6.7157H32.0486L37.7439 20.2034H25.6848L27.3564 17.5836H33.2069L29.9711 10.4635C26.8191 15.0241 24.0013 19.5971 20.7537 24.0001L28.228 6.7157Z" fill="#0675B2"/>
<path d="M75.7242 6.73999H78.7926C78.7926 7.116 78.8763 7.43118 78.8763 7.75867C78.8763 10.4878 78.7927 13.229 78.8763 15.9581C78.8912 16.975 78.5324 17.9611 77.87 18.7237C77.2077 19.4863 76.2894 19.9708 75.2944 20.0823C73.6825 20.0823 72.0587 20.264 70.5185 20.167C69.4629 20.1606 68.4528 19.7294 67.7098 18.9677C66.9667 18.206 66.5512 17.1762 66.5544 16.1038C66.4589 13.2413 66.5544 10.3787 66.5544 7.52828C66.5784 7.26159 66.6264 6.9978 66.6977 6.73999H69.7065C69.7065 7.16452 69.8139 7.60096 69.8139 8.03762C69.8139 10.3543 69.8139 12.6592 69.8139 14.9759C69.7901 15.3556 69.7901 15.7363 69.8139 16.116C69.8198 16.6065 70.0119 17.0758 70.35 17.426C70.6881 17.7763 71.1462 17.9805 71.6288 17.9961C72.3317 18.0628 73.0392 18.0628 73.7421 17.9961C74.2212 17.9534 74.6704 17.742 75.0126 17.3988C75.3548 17.0556 75.5684 16.602 75.6166 16.116C75.6822 15.447 75.7062 14.7743 75.6883 14.1023C75.7361 11.6886 75.7242 9.25077 75.7242 6.73999Z" fill="#2C3588"/>
<path d="M50.388 19.9974H46.6628C45.9106 18.2993 45.0988 16.6377 44.4779 14.9153C44.2988 14.1203 44.2304 13.3037 44.2749 12.4894C44.7764 12.3075 45.1824 12.2103 45.5525 12.0405C45.8414 11.9178 46.084 11.7044 46.2451 11.4317C46.4062 11.1589 46.4773 10.841 46.448 10.5243C46.3405 9.86934 46.0539 9.31154 45.3256 9.16599C44.4062 9.03256 43.4511 8.98407 42.3765 8.88703C42.3765 9.46925 42.2691 9.91798 42.2571 10.3546V18.6995C42.2571 19.1119 42.2571 19.5123 42.2571 20.0096H39.2125V6.66726C39.6901 6.66726 40.0841 6.66726 40.4901 6.66726C42.4004 6.66726 44.3107 6.66726 46.2091 6.66726C46.9481 6.61674 47.681 6.83222 48.2792 7.27581C48.8774 7.71939 49.3029 8.36277 49.4807 9.09314C49.7195 10.5608 49.827 12.259 47.8211 13.108C47.6168 13.234 47.4283 13.3845 47.2598 13.5567C48.024 15.6914 49.4687 17.6686 50.388 19.9974Z" fill="#2C3588"/>
<path d="M92.2247 17.5108C92.4993 15.8369 92.2248 15.449 90.6607 14.9638C89.622 14.7055 88.6133 14.3353 87.6519 13.8598C87.0393 13.5849 86.5261 13.1232 86.1837 12.5385C85.8414 11.9538 85.6869 11.2752 85.7415 10.5971C85.7276 9.76964 85.9719 8.95905 86.4395 8.28138C86.9071 7.60371 87.5739 7.09364 88.3443 6.82473C88.5362 6.75422 88.7375 6.71351 88.9413 6.70361H94.3978C94.7442 7.53985 94.7782 8.47571 94.4933 9.33559C93.6695 9.14152 92.9292 8.899 92.1054 8.78983C91.5367 8.68679 90.9546 8.68679 90.386 8.78983C89.0965 9.03242 88.8219 9.54192 89.0487 10.9853C89.7416 11.5719 90.559 11.9872 91.4367 12.1983C92.3704 12.5087 93.2705 12.9151 94.1231 13.4112C94.7503 13.7957 95.228 14.3876 95.4759 15.0879C95.7238 15.7881 95.7268 16.5539 95.4842 17.2561C95.2908 17.9448 94.9066 18.5624 94.3774 19.0355C93.8482 19.5086 93.1963 19.8172 92.4993 19.9245C90.5173 20.0216 88.5353 19.9245 86.5295 19.9245C86.2245 19.8764 85.9273 19.7867 85.6459 19.6577V17.05C89.6577 18.3115 91.0905 18.3841 92.2247 17.5108Z" fill="#2C3588"/>
<path d="M80.894 6.73999H83.8909C84.1487 11.1836 84.1487 15.6387 83.8909 20.0823C82.877 20.2278 81.848 20.2278 80.8342 20.0823L80.894 6.73999Z" fill="#2C3588"/>
</g>
<defs>
<clipPath id="clip0_150_28">
<rect width="92" height="18" fill="white" transform="translate(4 6)"/>
</clipPath>
</defs>
</svg>
