<svg width="100" height="30" viewBox="0 0 100 30" fill="none" xmlns="http://www.w3.org/2000/svg">
<g clip-path="url(#clip0_150_36)">
<path d="M88.0078 4.57678C87.037 8.52957 85.4175 12.2922 83.2157 15.7102L82.8322 16.2638L80.9753 18.9478L80.6159 19.4894C78.5225 22.2963 76.0739 24.817 73.3318 26.9879C79.6575 22.1734 86.8456 20.3319 92.716 26.9879C87.5405 20.9698 86.4983 12.1595 88.0078 4.57678Z" fill="#231F20" stroke="#231F20" stroke-width="0.0265363" stroke-miterlimit="10"/>
<path d="M86.4623 22.5828C84.3058 20.2598 81.6702 18.3942 78.076 18.6831C74.9372 18.9479 71.8342 20.8978 69.498 22.6551C75.803 17.6813 80.3274 10.7828 82.389 3C81.5695 6.37439 81.4595 9.88342 82.0656 13.303C82.6011 16.7531 84.115 19.9749 86.4263 22.5828H86.4623Z" fill="#E92127"/>
<path d="M24.8352 23.1846H37.4266L38.2293 19.0441H30.1904L30.6936 16.4804H37.3188L37.9777 13.0983H31.3406L31.7239 11.0522H39.2835L40.0982 6.85156H27.9741L24.8352 23.1846Z" fill="#E92127"/>
<path d="M45.4894 11.4616C45.8496 11.0089 46.3322 10.6703 46.8792 10.4866C47.4956 10.294 48.1556 10.294 48.772 10.4866C49.0166 10.5643 49.2386 10.7007 49.419 10.8838C49.7583 11.272 49.9567 11.764 49.9821 12.2799H53.9475C53.98 11.3432 53.7694 10.4141 53.3365 9.58385C53.0567 8.97285 52.6448 8.43216 52.1308 8.00117C51.6169 7.57019 51.0138 7.25997 50.3654 7.09259C49.1143 6.79595 47.8242 6.70222 46.5437 6.81549C45.7645 6.83997 45.0017 7.04599 44.3154 7.41729C42.517 8.40408 41.1404 10.0182 40.4456 11.9549C39.7897 13.7884 39.4612 15.7238 39.4752 17.6721C39.4581 18.6654 39.6919 19.647 40.155 20.5248C40.618 21.4026 41.2951 22.148 42.1229 22.6913C43.5269 23.41 45.1341 23.6225 46.6755 23.2931C47.7397 23.068 48.7195 22.5466 49.5028 21.7886C49.5028 22.234 49.5028 22.6912 49.5028 23.1486H52.4021C53.0091 20.1395 53.6122 17.1305 54.2112 14.1215H48.1251C47.8974 15.2288 47.6819 16.3482 47.4542 17.4555H49.4549C49.2938 17.9662 49.004 18.4265 48.6135 18.7914C48.223 19.1562 47.7452 19.4133 47.2265 19.5377C46.709 19.7074 46.1493 19.695 45.6398 19.5025C45.1302 19.31 44.7012 18.9489 44.4232 18.4787C43.915 17.5509 43.7255 16.4805 43.8841 15.4335C43.9976 13.9694 44.5771 12.5809 45.5372 11.4736L45.4894 11.4616Z" fill="#E92127"/>
<path d="M66.3353 6.82739H62.0822L53.4922 23.1605H57.8291L59.1471 20.7533H64.4303L64.7898 23.1605H69.1747L66.3353 6.82739ZM61.0519 17.2027L63.2923 13.0503L63.9033 17.2027H61.0519Z" fill="#E92127"/>
<path d="M13.8133 23.1846H17L20.5822 14.2658L18.7971 23.1846H23.134L26.3927 6.85156H20.4504L16.6646 16.1795L16.3291 6.85156H10.5306L7.27197 23.1846H11.6089L13.382 14.2658L13.8133 23.1846Z" fill="#E92127"/>
<path d="M73.4636 8.54887C73.4525 8.48402 73.426 8.42259 73.3863 8.3702C73.3467 8.31782 73.2952 8.27604 73.236 8.24796C73.3183 8.22661 73.3912 8.17828 73.4432 8.11074C73.4953 8.04319 73.5236 7.96019 73.5235 7.87477C73.5283 7.82048 73.5198 7.76582 73.499 7.71551C73.4781 7.66519 73.4453 7.62075 73.4036 7.58592C73.3434 7.53791 73.2743 7.50257 73.2002 7.4819C73.1261 7.46122 73.0486 7.45552 72.9723 7.46544H72.601V8.94586H72.7926V8.30791H72.9723C73.152 8.30791 73.2359 8.38041 73.2718 8.59706C73.2973 8.7164 73.3335 8.83297 73.3798 8.94586H73.5833C73.5259 8.81944 73.4856 8.68605 73.4636 8.54887ZM72.9843 8.16363H72.7926V7.62206H72.9843C73.188 7.62206 73.3318 7.7063 73.3318 7.91092C73.3318 8.11553 73.164 8.16363 72.9843 8.16363Z" fill="#E92127"/>
<path d="M74.3621 8.15148C74.3621 7.80034 74.2233 7.46357 73.9762 7.21527C73.729 6.96698 73.3938 6.82739 73.0443 6.82739C72.6948 6.82739 72.3596 6.96698 72.1124 7.21527C71.8653 7.46357 71.7265 7.80034 71.7265 8.15148C71.7297 8.50053 71.8699 8.83406 72.1167 9.07976C72.3635 9.32545 72.6969 9.46354 73.0443 9.46352C73.3918 9.46354 73.7251 9.32545 73.9719 9.07976C74.2187 8.83406 74.359 8.50053 74.3621 8.15148Z" stroke="#E92127" stroke-width="0.331704" stroke-miterlimit="10"/>
</g>
<defs>
<clipPath id="clip0_150_36">
<rect width="86" height="24" fill="white" transform="translate(7 3)"/>
</clipPath>
</defs>
</svg>
