<svg width="291" height="75" viewBox="0 0 291 75" fill="none" xmlns="http://www.w3.org/2000/svg">
<g clip-path="url(#clip0_4_213)">
<path d="M52.5113 1.0281L52.5113 74.1092L38.6267 74.1092L38.6267 26.9081L33.3209 74.1092L20.2842 74.1092L14.8143 26.9081L14.8143 74.1092L0.920715 74.1092L0.920712 1.05557L21.5423 1.05557L26.7752 46.5447L31.9078 1.05557L52.5113 1.0281Z" stroke="#A57F2D" stroke-width="2.66651"/>
<path d="M77.9372 74.1092L64.0527 74.1092L64.0527 1.05557L77.9372 1.05557L77.9372 74.1092Z" stroke="#A57F2D" stroke-width="2.66651"/>
<path d="M124.304 46.1969L124.304 63.3617C123.66 70.5267 119.029 74.1092 110.41 74.1092L102.935 74.1092C93.6724 74.1092 89.0442 69.9256 89.0503 61.5583L89.0503 45.73L102.935 45.73L102.935 59.0682C102.935 60.8991 103.846 61.8146 105.715 61.8146L107.639 61.8146C109.462 61.8146 110.374 60.8991 110.374 59.0682L110.374 49.9136C110.381 49.3662 110.271 48.8236 110.051 48.3228C109.831 47.822 109.506 47.3748 109.098 47.0116L93.0707 34.36C91.8004 33.3744 90.7765 32.1049 90.0805 30.6524C89.3731 29.202 89.0081 27.6076 89.0138 25.9927L89.0138 13.5424C89.0138 5.17513 93.6419 0.991488 102.898 0.991487L110.374 0.991487C119.636 0.991487 124.268 5.17513 124.268 13.5424L124.268 25.9927L110.374 25.9927L110.374 16.3346C110.374 14.5037 109.462 13.5729 107.639 13.5424L105.715 13.5424C103.892 13.5424 102.935 14.4579 102.935 16.3346L102.935 22.2301C102.924 22.7734 103.044 23.3112 103.285 23.7975C103.527 24.2838 103.882 24.7041 104.321 25.0223L120.238 37.6831C121.544 38.6722 122.595 39.9616 123.303 41.443C124.01 42.9244 124.354 44.5547 124.304 46.1969Z" stroke="#A57F2D" stroke-width="2.66651"/>
<path d="M170.133 46.1969L170.133 63.3617C169.482 70.5267 164.851 74.1092 156.239 74.1092L148.764 74.1092C139.501 74.1092 134.873 69.9256 134.879 61.5583L134.879 45.73L148.764 45.73L148.764 59.0682C148.764 60.8991 149.675 61.8146 151.499 61.8146L153.422 61.8146C155.246 61.8146 156.157 60.8991 156.157 59.0682L156.157 49.9136C156.165 49.3662 156.054 48.8236 155.834 48.3228C155.614 47.822 155.289 47.3748 154.881 47.0116L138.854 34.36C137.584 33.3744 136.56 32.1049 135.864 30.6524C135.156 29.202 134.791 27.6076 134.797 25.9927L134.797 13.5424C134.797 5.17513 139.425 0.991488 148.682 0.991487L156.157 0.991487C165.42 0.991487 170.051 5.17513 170.051 13.5424L170.051 25.9927L156.157 25.9927L156.157 16.3346C156.157 14.5037 155.246 13.5729 153.422 13.5424L151.499 13.5424C149.675 13.5424 148.764 14.4579 148.764 16.3346L148.764 22.2301C148.753 22.7734 148.873 23.3112 149.114 23.7975C149.356 24.2838 149.711 24.7041 150.149 25.0223L166.067 37.6831C167.373 38.6722 168.424 39.9616 169.132 41.443C169.839 42.9244 170.183 44.5547 170.133 46.1969Z" stroke="#A57F2D" stroke-width="2.66651"/>
<path d="M194.912 74.1092L181.009 74.1092L181.009 1.05557L194.893 1.05557L194.912 74.1092Z" stroke="#A57F2D" stroke-width="2.66651"/>
<path d="M241.807 13.579L241.807 61.5308C241.807 69.8981 237.179 74.0817 227.923 74.0817L220.438 74.0817C211.182 74.0817 206.553 69.8981 206.553 61.5308L206.553 13.579C206.553 5.21175 211.182 1.02811 220.438 1.02811L227.923 1.02811C237.179 1.0281 241.807 5.21174 241.807 13.579ZM227.923 59.0682L227.923 16.3712C227.974 15.9964 227.939 15.6147 227.821 15.2555C227.702 14.8963 227.503 14.5692 227.239 14.2995C226.975 14.0297 226.653 13.8245 226.297 13.6996C225.941 13.5747 225.562 13.5334 225.188 13.579L223.264 13.579C222.89 13.5334 222.511 13.5747 222.155 13.6996C221.799 13.8245 221.477 14.0297 221.213 14.2995C220.948 14.5692 220.749 14.8963 220.631 15.2555C220.512 15.6147 220.477 15.9964 220.529 16.3712L220.529 59.0682C220.529 60.8991 221.441 61.8146 223.264 61.8146L225.188 61.8146C227.011 61.839 227.923 60.9235 227.923 59.0682Z" stroke="#A57F2D" stroke-width="2.66651"/>
<path d="M290.088 0.927397L290.088 74.1092L274.28 74.1092L266.914 42.892L266.914 74.1092L253.03 74.1092L253.03 0.954862L268.528 0.954861L276.222 33.5635L276.222 0.954861L290.088 0.927397Z" stroke="#A57F2D" stroke-width="2.66651"/>
</g>
<defs>
<clipPath id="clip0_4_213">
<rect width="75" height="291" fill="white" transform="translate(0 75) rotate(-90)"/>
</clipPath>
</defs>
</svg>
