<svg width="75" height="291" viewBox="0 0 75 291" fill="none" xmlns="http://www.w3.org/2000/svg">
<g clip-path="url(#clip0_1_441)">
<path d="M73.9719 52.5113H0.890808V38.6267H48.0919L0.890808 33.321V20.2843L48.0919 14.8143H0.890808V0.920746H73.9444V21.5424L28.4553 26.7752L73.9444 31.9079L73.9719 52.5113Z" stroke="#A57F2D" stroke-width="2.66651"/>
<path d="M0.890808 77.9373V64.0528H73.9444V77.9373H0.890808Z" stroke="#A57F2D" stroke-width="2.66651"/>
<path d="M28.8031 124.304H11.6383C4.4733 123.66 0.890808 119.029 0.890808 110.41V102.935C0.890808 93.6724 5.07445 89.0443 13.4417 89.0503H29.27V102.935H15.9318C14.1009 102.935 13.1854 103.847 13.1854 105.715V107.639C13.1854 109.462 14.1009 110.374 15.9318 110.374H25.0864C25.6338 110.381 26.1764 110.271 26.6772 110.051C27.178 109.831 27.6252 109.506 27.9884 109.098L40.64 93.0708C41.6256 91.8004 42.8951 90.7765 44.3476 90.0805C45.798 89.3732 47.3924 89.0081 49.0073 89.0138H61.4576C69.8249 89.0138 74.0085 93.642 74.0085 102.898V110.374C74.0085 119.636 69.8249 124.268 61.4576 124.268H49.0073V110.374H58.6654C60.4963 110.374 61.4271 109.462 61.4576 107.639V105.715C61.4576 103.892 60.5421 102.935 58.6654 102.935H52.7699C52.2266 102.924 51.6888 103.044 51.2025 103.285C50.7162 103.527 50.2959 103.882 49.9777 104.321L37.3169 120.238C36.3278 121.544 35.0384 122.596 33.557 123.303C32.0756 124.011 30.4453 124.354 28.8031 124.304Z" stroke="#A57F2D" stroke-width="2.66651"/>
<path d="M28.8031 170.133H11.6383C4.4733 169.482 0.890808 164.851 0.890808 156.239V148.764C0.890808 139.501 5.07445 134.873 13.4417 134.879H29.27V148.764H15.9318C14.1009 148.764 13.1854 149.675 13.1854 151.499V153.422C13.1854 155.246 14.1009 156.157 15.9318 156.157H25.0864C25.6338 156.165 26.1764 156.054 26.6772 155.834C27.178 155.614 27.6252 155.289 27.9884 154.881L40.64 138.854C41.6256 137.584 42.8951 136.56 44.3476 135.864C45.798 135.156 47.3924 134.791 49.0073 134.797H61.4576C69.8249 134.797 74.0085 139.425 74.0085 148.682V156.157C74.0085 165.42 69.8249 170.051 61.4576 170.051H49.0073V156.157H58.6654C60.4963 156.157 61.4271 155.246 61.4576 153.422V151.499C61.4576 149.675 60.5421 148.764 58.6654 148.764H52.7699C52.2266 148.753 51.6888 148.873 51.2025 149.114C50.7162 149.356 50.2959 149.711 49.9777 150.149L37.3169 166.067C36.3278 167.373 35.0384 168.424 33.557 169.132C32.0756 169.839 30.4453 170.183 28.8031 170.133Z" stroke="#A57F2D" stroke-width="2.66651"/>
<path d="M0.890808 194.912V181.009H73.9444V194.893L0.890808 194.912Z" stroke="#A57F2D" stroke-width="2.66651"/>
<path d="M61.421 241.807H13.4692C5.10191 241.807 0.918274 237.179 0.918274 227.923V220.438C0.918274 211.182 5.10191 206.554 13.4692 206.554H61.421C69.7883 206.554 73.9719 211.182 73.9719 220.438V227.923C73.9719 237.179 69.7883 241.807 61.421 241.807ZM15.9318 227.923H58.6288C59.0036 227.974 59.3853 227.94 59.7445 227.821C60.1037 227.703 60.4308 227.503 60.7005 227.239C60.9703 226.975 61.1755 226.653 61.3004 226.297C61.4253 225.941 61.4666 225.562 61.421 225.188V223.264C61.4666 222.89 61.4253 222.511 61.3004 222.155C61.1755 221.799 60.9703 221.477 60.7005 221.213C60.4308 220.948 60.1037 220.749 59.7445 220.631C59.3853 220.512 59.0036 220.478 58.6288 220.529H15.9318C14.1009 220.529 13.1854 221.441 13.1854 223.264V225.188C13.161 227.011 14.0765 227.923 15.9318 227.923Z" stroke="#A57F2D" stroke-width="2.66651"/>
<path d="M74.0726 290.088H0.890808V274.28L32.108 266.914H0.890808V253.03H74.0451V268.528L41.4365 276.222H74.0451L74.0726 290.088Z" stroke="#A57F2D" stroke-width="2.66651"/>
</g>
<defs>
<clipPath id="clip0_1_441">
<rect width="75" height="291" fill="white"/>
</clipPath>
</defs>
</svg>
