<svg width="40" height="40" viewBox="0 0 40 40" fill="none" xmlns="http://www.w3.org/2000/svg">
<g clip-path="url(#clip0_27_499)">
<path d="M12.698 6.77813L18.4199 13.0925L14.0626 17.4452C13.9954 17.5112 13.9456 17.5933 13.9177 17.6839C13.8898 17.7745 13.8848 17.8708 13.903 17.964C14.2759 19.7228 15.0842 21.356 16.2516 22.7091C17.419 24.0622 18.9069 25.0905 20.5746 25.6968L22.2186 31.5491C18.8813 30.2129 15.8643 28.1668 13.3701 25.5482C10.876 22.9296 8.96247 19.7992 7.75817 16.3672C7.51083 15.2709 7.51083 14.132 7.75817 13.0357C7.99533 12.0277 8.42657 11.0773 9.02704 10.2393C10.1609 8.99642 11.3854 7.84214 12.69 6.78624M12.7379 5.97568C12.7379 5.97568 9.01108 9.14499 8.5562 9.92314C7.9125 10.8195 7.4488 11.8358 7.19156 12.9141C6.92361 14.1038 6.92361 15.3396 7.19156 16.5293C8.48197 20.2219 10.5747 23.572 13.3143 26.3308C16.0539 29.0896 19.37 31.1862 23.0166 32.465L20.9976 25.2672C19.3606 24.7285 17.8919 23.7618 16.7391 22.4643C15.5863 21.1667 14.7898 19.5839 14.4297 17.8748L19.1701 13.1492L12.7858 5.99999L12.7379 5.97568Z" fill="#A5802D"/>
<path d="M33 27.48C33 27.48 30.5102 31.0303 29.2253 31.9463C28.3609 32.4995 27.3839 32.8459 26.3683 32.9595C25.5033 33.058 24.6276 32.9837 23.7907 32.7406L21.7397 25.4455L25.8337 21.2792L33 27.48Z" fill="#00527F"/>
</g>
<defs>
<clipPath id="clip0_27_499">
<rect width="26" height="27" fill="white" transform="translate(7 6)"/>
</clipPath>
</defs>
</svg>
