<svg width="100" height="30" viewBox="0 0 100 30" fill="none" xmlns="http://www.w3.org/2000/svg">
<g clip-path="url(#clip0_150_32)">
<path d="M18.4946 27.8446C18.2433 27.9469 18.162 28.1952 18.0215 28.3925C17.7481 28.7797 17.482 29.1815 17.2085 29.5687C17.1385 29.6392 17.0558 29.6961 16.9646 29.7367C16.9783 29.6306 17.0082 29.5271 17.0533 29.4299C17.1583 29.2826 17.2745 29.1434 17.4007 29.0135C17.4894 28.9185 17.5485 28.787 17.4746 28.6993C17.4007 28.6117 17.4155 28.4509 17.4746 28.3267C17.9402 27.6912 18.4059 27.0483 18.8641 26.4054C19.2189 25.9086 19.6033 25.4118 19.9137 24.9078C20.0245 24.7397 20.0098 24.5279 20.1871 24.3672C20.3078 24.2214 20.396 24.0521 20.4459 23.8704C20.4459 23.8339 20.4459 23.7754 20.4459 23.7243C20.4459 23.6731 20.372 23.7243 20.3572 23.7827C20.1576 24.0676 19.958 24.3599 19.7732 24.6521C19.6993 24.7617 19.655 24.8859 19.5885 24.9881C19.5219 25.0904 19.4702 25.0685 19.4259 24.9881V24.8639C19.4259 24.8639 19.352 24.9224 19.352 24.9516C19.352 25.0904 19.2485 25.1269 19.1746 25.2073C18.9996 25.4147 18.8368 25.6318 18.6868 25.8575C18.5455 26.0751 18.3738 26.2719 18.1768 26.4419C18.004 26.6171 17.8661 26.8228 17.7703 27.0483C17.5698 27.3332 17.3195 27.5806 17.0312 27.7788C17.0194 27.7836 17.0069 27.7861 16.9942 27.7861C16.9815 27.7861 16.9689 27.7836 16.9572 27.7788C16.9572 27.7788 16.9572 27.7788 16.9572 27.7277L17.8885 26.2666C18.1768 25.821 18.4798 25.3826 18.7681 24.937C19.0563 24.4914 19.3594 23.9727 19.655 23.4759C19.7349 23.3437 19.8017 23.2043 19.8546 23.0595C19.8685 22.9904 19.8975 22.9252 19.9396 22.8684C19.9818 22.8116 20.036 22.7646 20.0985 22.7307C20.1288 22.7174 20.1562 22.6983 20.179 22.6745C20.2019 22.6507 20.2197 22.6226 20.2315 22.5919C20.4107 22.1924 20.6365 21.8148 20.9041 21.4669C20.9928 21.3135 21.0593 21.1381 21.1554 20.992C21.4806 20.4733 21.8132 19.9692 22.1458 19.4579C22.8849 18.362 23.5723 17.2662 24.2671 16.1631C24.436 15.9155 24.5609 15.6413 24.6366 15.3522C24.7275 15.0949 24.895 14.8708 25.1171 14.7093C25.1614 14.7093 25.2206 14.5924 25.2058 14.5705C25.1958 14.5497 25.1815 14.5312 25.1637 14.5163C25.1459 14.5014 25.1251 14.4905 25.1027 14.4843C25.0803 14.478 25.0567 14.4766 25.0337 14.4802C25.0107 14.4837 24.9887 14.4921 24.9693 14.5047L24.8436 14.5997C24.5506 14.8361 24.2143 15.0146 23.8532 15.1257C23.5898 15.2296 23.3413 15.3672 23.1141 15.5348C22.6582 15.8791 22.1263 16.112 21.5619 16.2142C21.2589 16.4188 20.8228 16.3457 20.5567 16.5722C20.5209 16.585 20.4817 16.585 20.4459 16.5722C20.4355 16.5773 20.4242 16.58 20.4126 16.58C20.4011 16.58 20.3896 16.5773 20.3793 16.5722C20.3793 16.5722 20.3793 16.5284 20.3793 16.5138L20.5124 16.4334C21.2396 15.947 21.929 15.4073 22.5745 14.8189C23.2779 14.1894 24.0183 13.6015 24.7919 13.0583C25.0062 12.9341 25.058 12.6565 25.3536 12.5834C25.5945 12.4941 25.8172 12.363 26.0114 12.1962C26.1621 12.0862 26.2965 11.9559 26.4105 11.809C26.5214 11.6702 26.5805 11.4876 26.8096 11.4876C26.854 11.4876 26.8984 11.3926 26.9279 11.3415C26.9796 11.2579 27.0544 11.1908 27.1435 11.1481C27.2326 11.1054 27.3322 11.0888 27.4305 11.1004C27.9837 11.1785 28.5422 11.2127 29.1009 11.2027C29.523 11.1548 29.9495 11.2408 30.3189 11.4483C30.6882 11.6558 30.9813 11.974 31.1557 12.3569C31.2692 12.5879 31.4001 12.8102 31.5474 13.0217C31.5918 13.0802 31.6287 13.1386 31.5474 13.1824C31.4661 13.2263 31.3995 13.4381 31.3256 13.5696L31.1335 13.8984L30.8822 14.2929C30.8822 14.2929 30.8822 14.3513 30.8822 14.3805C30.9166 14.3841 30.9513 14.3841 30.9857 14.3805L31.577 13.9349C32.3674 13.3198 33.2673 12.8564 34.2304 12.5688C35.1676 12.2983 36.1494 12.2114 37.1203 12.3131C37.8756 12.3991 38.6024 12.6485 39.249 13.0436C40.0677 13.502 40.7058 14.2202 41.0598 15.0819C41.2617 15.524 41.2855 16.0256 41.1263 16.4845C41.049 16.6716 40.9307 16.8394 40.7799 16.9759C40.6291 17.1123 40.4495 17.214 40.2542 17.2735C39.6455 17.4269 39.0076 17.4269 38.399 17.2735C37.7622 17.1521 37.1368 16.9786 36.529 16.7548C36.0043 16.5795 35.4943 16.3384 34.9769 16.1339C34.4591 15.9264 33.9219 15.7698 33.373 15.6663C32.8024 15.5938 32.2232 15.6285 31.6656 15.7686C31.5781 15.7893 31.4936 15.8212 31.4143 15.8636C31.4143 15.8636 31.3626 15.922 31.3404 15.9512H31.4365H32.2348C32.8255 15.9641 33.4 16.1441 33.8904 16.4699C34.1317 16.6342 34.3181 16.8657 34.426 17.135C34.5339 17.4042 34.5585 17.6991 34.4965 17.9822C34.4068 18.3577 34.2831 18.7244 34.1269 19.078C33.8165 19.8962 33.4691 20.6998 33.1734 21.5253C32.8924 22.2844 32.6701 23.0635 32.5082 23.8558C32.5042 23.8824 32.5042 23.9095 32.5082 23.9361C32.5082 24.0749 32.4491 24.2357 32.6117 24.3233C32.7743 24.411 32.8778 24.2649 32.9665 24.1626C33.2252 23.8923 33.4839 23.622 33.7056 23.3298C33.9328 23.0289 34.2226 22.7798 34.5556 22.5992C34.9189 22.4253 35.3283 22.3683 35.7261 22.4365C36.1239 22.5046 36.49 22.6944 36.7729 22.9791C37.1263 23.2729 37.3971 23.6518 37.5589 24.0793C37.7208 24.5067 37.7683 24.9682 37.6968 25.4192C37.5797 26.1874 37.1665 26.8811 36.5438 27.3551C35.8871 27.883 35.1345 28.2822 34.3264 28.5313C33.4742 28.8348 32.5709 28.9737 31.6656 28.9404C31.1401 28.9294 30.6231 28.8077 30.1489 28.5834C29.6748 28.3592 29.2545 28.0376 28.9161 27.64C28.4944 27.1266 28.2189 26.5113 28.1179 25.8575C27.9499 24.9226 28.0056 23.9619 28.2805 23.0522C28.4632 22.4087 28.7263 21.7903 29.0639 21.2112C29.3078 20.8094 29.5813 20.4368 29.8031 20.035C29.9208 19.7822 30.0566 19.5381 30.2096 19.3045C30.4112 19.1233 30.5966 18.9253 30.7639 18.7127C31.0511 18.347 31.2758 17.9374 31.4291 17.5C31.4956 17.2297 31.4291 17.0324 31.1704 16.9521C31.0353 16.9029 30.8931 16.8758 30.7491 16.8717C30.4387 16.8717 30.1209 16.8717 29.8031 16.8717C29.7176 16.868 29.6324 16.8839 29.5542 16.9181C29.476 16.9523 29.4069 17.0039 29.3522 17.069C28.8496 17.6315 28.3396 18.194 27.837 18.7638C27.5562 19.0707 27.2827 19.3848 26.9944 19.6916C26.9585 19.7266 26.9158 19.754 26.8688 19.772H26.7948C26.7948 19.772 26.7948 19.7063 26.7948 19.6843C26.7948 19.6624 26.8688 19.5236 26.8983 19.436C26.9279 19.3483 26.8983 19.3702 26.8983 19.3337C26.8745 19.3573 26.8546 19.3844 26.8392 19.414C26.4622 19.9912 26.1001 20.5683 25.7158 21.1381C25.657 21.2244 25.5875 21.3029 25.5088 21.3719C24.814 22.1025 24.171 22.833 23.5428 23.6074C23.2753 23.8944 22.9835 24.1584 22.6706 24.3964C22.5745 24.4914 22.4858 24.6009 22.3823 24.6959C22.2789 24.7909 21.998 25.0831 21.7985 25.2657C21.7672 25.2801 21.7331 25.2876 21.6987 25.2876C21.6642 25.2876 21.6301 25.2801 21.5989 25.2657C21.4806 25.2073 21.5989 25.1196 21.5989 25.0758C21.8358 24.7244 22.0247 24.3437 22.1606 23.9434C22.168 23.9048 22.168 23.8652 22.1606 23.8266C22.1216 23.8185 22.0813 23.8185 22.0423 23.8266C21.9692 23.883 21.9045 23.9494 21.8502 24.0238C21.1997 25.0173 20.3719 25.8794 19.6328 26.8145C19.2688 27.2192 18.9516 27.6627 18.6868 28.1368C18.5808 28.3116 18.4542 28.4735 18.3098 28.619L17.8294 29.2399C17.8294 29.2399 17.8294 29.2399 17.7777 29.2399C17.7259 29.2399 17.7777 29.1888 17.7777 29.1669C17.8039 29.0821 17.8411 29.0011 17.8885 28.9258C18.0118 28.7131 18.1553 28.5125 18.3172 28.3267C18.3848 28.2573 18.4368 28.1746 18.4699 28.084C18.503 27.9933 18.5165 27.8968 18.5094 27.8007C18.6868 27.7423 18.7385 27.5743 18.8124 27.4282C18.8124 27.4282 18.8124 27.377 18.8124 27.3624C18.8124 27.3478 18.7607 27.3624 18.7533 27.3624C18.635 27.5524 18.4798 27.6473 18.4946 27.8446Z" fill="#C42528"/>
<path d="M48.5914 23.1763V28.0782C48.5914 28.1878 48.5915 28.2463 48.4362 28.2463H46.3298C46.1893 28.2463 46.1302 28.1878 46.108 28.0417C46.0637 27.7057 45.9824 27.3769 45.938 27.0482C45.8567 26.4491 45.6867 25.8647 45.6202 25.2583C45.5758 24.8492 45.4502 24.4474 45.3763 24.0456C45.2728 23.4758 45.1841 22.8987 45.088 22.3288C45.0407 22.0086 44.9741 21.6915 44.8884 21.3791C44.8367 21.1965 44.8885 20.9846 44.7703 20.8239C44.7703 20.8239 44.7702 20.7289 44.7333 20.6778C44.7303 20.7338 44.7303 20.7898 44.7333 20.8458C44.7333 21.8248 44.7333 22.811 44.7333 23.768V28.0782C44.7333 28.1659 44.7333 28.2244 44.5929 28.2244H43.3215C43.1663 28.2244 43.1219 28.1367 43.1219 27.9979C43.1219 27.8591 43.1219 27.6838 43.1219 27.5303V18.4715C43.1219 18.0405 43.0776 18.1063 43.4989 18.1063H45.7606C45.9011 18.1063 45.9676 18.1063 45.9971 18.2889C46.0636 18.7637 46.1893 19.224 46.2263 19.7062C46.2649 20.0522 46.3216 20.396 46.3963 20.7362C46.4997 21.4083 46.5959 22.0877 46.6993 22.7672C46.7585 23.147 46.825 23.4977 46.8915 23.9068C46.8915 23.9507 46.8915 23.9799 46.8915 24.0164C46.8915 24.0529 46.8915 24.2429 46.9432 24.3598C46.9432 24.2429 46.9432 24.126 46.9432 24.0091C46.9432 22.1827 46.9432 20.3563 46.9432 18.5227V18.2524C46.9432 18.1574 46.9433 18.1063 47.0837 18.1063H48.4288C48.4574 18.1133 48.4835 18.1279 48.5044 18.1485C48.5252 18.1691 48.54 18.1949 48.5471 18.2231C48.5583 18.3129 48.5583 18.4037 48.5471 18.4934L48.5914 23.1763Z" fill="#040707"/>
<path d="M66.9289 23.1689V27.7567C66.9289 27.8444 66.9289 27.9394 66.9289 28.0271C66.9289 28.1147 66.9288 28.2024 66.7736 28.2024H65.0737C64.9554 28.2024 64.8963 28.1585 64.9037 28.0417V23.6584C64.9037 23.4246 64.9037 23.4246 64.6819 23.4173C64.2089 23.4173 64.2089 23.4173 64.2089 23.8921C64.2089 25.2364 64.2089 26.5806 64.2089 27.9248C64.2089 28.1732 64.2089 28.2681 63.8689 28.2535H62.4424C62.1467 28.2535 62.1394 28.2535 62.1394 27.9394C62.1394 25.9133 62.1394 23.8897 62.1394 21.8685C62.1394 20.7142 62.1394 19.5673 62.1394 18.4203C62.1394 18.1354 62.1394 18.1354 62.4055 18.1281H63.9872C64.1941 18.1281 64.2015 18.1281 64.2015 18.3473V21.3279C64.2015 21.401 64.2015 21.4813 64.2015 21.5617C64.2015 21.642 64.2015 21.7662 64.3715 21.7443H64.4158C64.8963 21.7443 64.8963 21.7443 64.8963 21.2841C64.8963 20.3124 64.8963 19.3481 64.8963 18.3619C64.8963 18.0989 64.8963 18.0989 65.1624 18.0989H66.6406C66.8919 18.0989 66.8919 18.0989 66.8993 18.3692L66.9289 23.1689Z" fill="#040707"/>
<path d="M56.8325 23.1398V19.8888C56.8176 19.7333 56.8176 19.5768 56.8325 19.4213C56.8801 19.1071 57.0184 18.8132 57.2308 18.5748C57.4431 18.3363 57.7206 18.1635 58.0299 18.0771C58.693 17.8586 59.4049 17.8283 60.0846 17.9894C60.3933 18.0579 60.6849 18.1871 60.942 18.3693C61.1226 18.4993 61.2724 18.6666 61.3809 18.8597C61.4894 19.0527 61.554 19.2668 61.5703 19.487C61.622 19.8961 61.5703 20.3126 61.5703 20.7217C61.5703 20.9701 61.5702 21.2111 61.6146 21.4522C61.6589 21.6933 61.6146 21.6714 61.4372 21.6714H59.6486C59.5451 21.6714 59.5081 21.6714 59.5155 21.5107C59.5155 20.9408 59.5155 20.371 59.5155 19.8012C59.5017 19.7123 59.4633 19.6288 59.4046 19.5601C59.3794 19.5221 59.3437 19.4919 59.3019 19.473C59.26 19.4542 59.2136 19.4474 59.168 19.4535C59.1224 19.4596 59.0795 19.4783 59.0442 19.5075C59.0089 19.5368 58.9827 19.5752 58.9686 19.6185C58.9159 19.7664 58.8884 19.922 58.8873 20.0788C58.8873 22.1316 58.8873 24.1772 58.8873 26.23C58.8986 26.3703 58.9208 26.5095 58.9538 26.6464C58.9576 26.6994 58.9821 26.7488 59.0221 26.7843C59.0621 26.8197 59.1145 26.8384 59.1681 26.8364C59.2202 26.8484 59.2747 26.8427 59.3231 26.8201C59.3714 26.7976 59.4106 26.7595 59.4342 26.7122C59.4818 26.6081 59.5117 26.4971 59.5229 26.3834C59.5229 25.9889 59.5229 25.5944 59.5229 25.2072C59.5451 24.9252 59.5451 24.6419 59.5229 24.3598C59.5229 24.2356 59.5968 24.1772 59.7225 24.1772H60.2768C60.639 24.1772 61.0159 24.1772 61.3485 24.1772C61.6811 24.1772 61.6294 24.221 61.622 24.4621C61.622 25.0611 61.622 25.6602 61.622 26.2519C61.6776 26.6408 61.604 27.0371 61.412 27.381C61.2201 27.7249 60.9202 27.9978 60.5577 28.1587C59.9559 28.3888 59.3042 28.4618 58.6655 28.3705C58.3688 28.3391 58.0793 28.2601 57.8082 28.1367C57.5034 28.0135 57.2438 27.8013 57.0642 27.5285C56.8846 27.2557 56.7934 26.9352 56.8029 26.6099C56.8029 25.5287 56.8029 24.4182 56.8029 23.359L56.8325 23.1398Z" fill="#040707"/>
<path d="M35.1838 7.56445C35.178 8.00477 35.0842 8.43961 34.9077 8.84394C34.7312 9.24826 34.4755 9.61408 34.1554 9.92032C33.8352 10.2266 33.457 10.4672 33.0423 10.6283C32.6277 10.7895 32.1849 10.8679 31.7395 10.8592C31.294 10.8482 30.855 10.7505 30.4477 10.5718C30.0404 10.3931 29.6727 10.1369 29.3655 9.81769C29.0584 9.49851 28.8178 9.12267 28.6577 8.71162C28.4975 8.30057 28.4208 7.86235 28.432 7.422C28.4431 6.98165 28.5419 6.54777 28.7227 6.14517C28.9035 5.74256 29.1628 5.37909 29.4857 5.07551C29.8087 4.77194 30.1889 4.53421 30.6048 4.37589C31.0206 4.21757 31.464 4.14175 31.9095 4.15279C32.8002 4.17955 33.6442 4.55313 34.2575 5.19216C34.8708 5.83119 35.2037 6.68387 35.1838 7.56445Z" fill="#040707"/>
<path d="M53.1665 23.9214V19.9618C53.1665 19.5746 53.2183 19.6258 52.797 19.6184H51.9692C51.8657 19.6184 51.8213 19.5673 51.8213 19.4796C51.8213 19.0705 51.8213 18.6687 51.8213 18.2596C51.8213 18.172 51.8213 18.1135 51.9544 18.1135H56.2782C56.3417 18.1025 56.4068 18.1025 56.4704 18.1135C56.4977 18.1225 56.5228 18.1368 56.5444 18.1557C56.566 18.1745 56.5836 18.1974 56.596 18.2231C56.596 18.6395 56.596 19.0632 56.596 19.4796C56.596 19.5746 56.5369 19.6111 56.4482 19.6111H55.4134C55.273 19.6111 55.2286 19.6623 55.236 19.7938C55.2434 19.9253 55.236 19.9472 55.236 20.0276C55.236 22.6283 55.236 25.2291 55.236 27.8298C55.236 28.1659 55.3026 28.2535 54.8221 28.2389H53.4326C53.1739 28.2389 53.1517 28.2389 53.1591 27.954V23.9141L53.1665 23.9214Z" fill="#040707"/>
<path d="M49.301 23.1032V18.3985C49.301 18.1209 49.3749 18.0551 49.6409 18.0624L51.0601 18.1063C51.4814 18.1063 51.4296 18.1062 51.4296 18.4642V24.7762C51.4296 25.8062 51.4296 26.8363 51.4296 27.8737C51.4296 28.1878 51.4296 28.2463 51.0453 28.2317H49.7C49.2566 28.2317 49.301 28.1659 49.301 27.8518V23.1032Z" fill="#040707"/>
<path d="M69.6267 23.1616V28.0563C69.6291 28.0751 69.6271 28.0942 69.6209 28.1121C69.6147 28.13 69.6044 28.1463 69.5909 28.1597C69.5773 28.1731 69.5608 28.1833 69.5427 28.1894C69.5246 28.1955 69.5052 28.1975 69.4862 28.1951H67.7419C67.6458 28.1951 67.6014 28.144 67.6088 28.049V18.2596C67.6088 18.1647 67.6089 18.1135 67.7419 18.1135H69.4862C69.5823 18.1135 69.6267 18.1574 69.6267 18.2596V23.1543V23.1616Z" fill="#040707"/>
<path d="M43.8167 13.6792V15.6663C43.8167 15.9 43.8167 15.9219 43.5433 15.9293H43.462C43.0924 15.9293 43.0998 16.0023 43.0998 15.5786C43.0998 14.5997 43.0998 13.6207 43.0998 12.6564C43.0998 12.4445 43.0997 12.4372 43.3141 12.4372H43.7871C44.1863 12.4372 44.1937 12.4372 44.2824 12.8317C44.3932 13.3723 44.5041 13.9202 44.6075 14.4609V14.5339C44.6075 14.5339 44.6593 14.4901 44.6667 14.4609C44.7185 14.2782 44.7776 14.0883 44.8145 13.8983C44.9032 13.46 44.9697 13.0144 45.0658 12.576C45.0788 12.5412 45.1005 12.5101 45.1289 12.4859C45.1574 12.4616 45.1917 12.4448 45.2285 12.4372C45.5067 12.4226 45.7855 12.4226 46.0637 12.4372C46.1228 12.4372 46.1893 12.5176 46.2262 12.5833C46.2374 12.6462 46.2374 12.7105 46.2262 12.7733V15.6297C46.2262 15.9293 46.2262 15.9366 45.9232 15.9439H45.8419C45.5315 15.9439 45.5166 15.9877 45.524 15.6297C45.524 14.9649 45.524 14.3001 45.524 13.6353C45.524 13.6353 45.5241 13.5842 45.4797 13.555C45.4354 13.5257 45.4797 13.5988 45.4797 13.6207C45.4058 13.986 45.3246 14.3513 45.2433 14.7092C45.162 15.0672 45.0806 15.3886 45.0141 15.7247C45.0141 15.9146 44.8884 15.9512 44.7184 15.9512C44.3858 15.9512 44.3785 15.9512 44.3046 15.637C44.1567 14.9868 44.0162 14.3367 43.8684 13.6865L43.8167 13.6792Z" fill="#040707"/>
<path d="M56.899 15.9292C56.7068 15.9292 56.4925 15.9876 56.3891 15.7392C56.3891 15.7392 56.2708 15.7392 56.2265 15.7392C55.9302 15.9112 55.5826 15.9758 55.2434 15.9219C55.0812 15.9065 54.9264 15.8472 54.796 15.7506C54.6656 15.6539 54.5647 15.5236 54.5043 15.374C54.4135 15.2278 54.3725 15.0568 54.3872 14.8859C54.4018 14.715 54.4713 14.5533 54.5856 14.4243C54.6669 14.3439 54.726 14.2416 54.8073 14.154C54.8887 14.0663 55.0586 13.9932 55.0734 13.8983C55.0882 13.8033 54.9626 13.6718 54.9034 13.5622C54.8203 13.4527 54.77 13.3223 54.7582 13.1858C54.7464 13.0494 54.7737 12.9124 54.8369 12.7905C54.9 12.6687 54.9966 12.5668 55.1156 12.4966C55.2345 12.4263 55.371 12.3906 55.5095 12.3933H55.8273C55.9724 12.3887 56.1157 12.4264 56.2393 12.5018C56.3629 12.5771 56.4612 12.6868 56.5221 12.817C56.5833 12.9597 56.602 13.1167 56.5758 13.2694C56.5496 13.4222 56.4797 13.5644 56.3743 13.6791C56.3141 13.7666 56.239 13.8432 56.1525 13.9056C56.0047 14.0078 56.0269 14.1028 56.1525 14.2197C56.2782 14.3366 56.3226 14.4462 56.4187 14.5558C56.5147 14.6653 56.4925 14.5558 56.5295 14.5558C56.5664 14.5558 56.5295 14.5558 56.5295 14.5192C56.5295 14.4827 56.5295 14.2343 56.6329 14.2051C56.7805 14.1571 56.937 14.1422 57.0912 14.1613C57.1177 14.1599 57.1442 14.1649 57.1682 14.176C57.1923 14.187 57.2133 14.2037 57.2293 14.2246C57.2454 14.2455 57.2559 14.27 57.2602 14.2959C57.2645 14.3217 57.2623 14.3483 57.2539 14.3731C57.2539 14.5119 57.1725 14.6434 57.1282 14.7822C57.101 14.8794 57.0612 14.9727 57.0099 15.0598C56.9635 15.1139 56.9381 15.1825 56.9381 15.2534C56.9381 15.3243 56.9635 15.3929 57.0099 15.447C57.069 15.5274 57.1355 15.615 57.1873 15.7027C57.239 15.7904 57.2539 15.9219 57.0543 15.9292H56.899ZM55.6278 15.3959H55.7534C55.9752 15.3228 56.0195 15.1986 55.8864 15.016C55.7534 14.8334 55.6647 14.6946 55.5465 14.5411C55.5358 14.5245 55.5211 14.5109 55.5036 14.5014C55.4862 14.492 55.4666 14.487 55.4467 14.487C55.4268 14.487 55.4072 14.492 55.3897 14.5014C55.3723 14.5109 55.3576 14.5245 55.3469 14.5411C55.2673 14.6249 55.2068 14.7245 55.1695 14.8334C55.1524 14.9012 55.1513 14.9721 55.1665 15.0405C55.1817 15.1088 55.2128 15.1727 55.2572 15.2272C55.3016 15.2817 55.3581 15.3253 55.4224 15.3546C55.4867 15.3838 55.557 15.398 55.6278 15.3959ZM55.9382 13.2042C55.9382 13.0362 55.8347 12.9339 55.65 12.9266C55.4652 12.9193 55.3691 13.0289 55.4061 13.1969C55.4442 13.3332 55.5014 13.4635 55.5761 13.5841C55.591 13.5912 55.6074 13.5949 55.6241 13.5949C55.6407 13.5949 55.6572 13.5912 55.6721 13.5841C55.783 13.4453 55.9678 13.3796 55.9382 13.1677V13.2042Z" fill="#040707"/>
<path d="M74.3866 15.5421C74.2609 15.6444 74.187 15.7174 74.0983 15.7759C73.9601 15.8638 73.7929 15.8954 73.6317 15.864C73.4704 15.8327 73.3278 15.7409 73.2336 15.6078C73.0835 15.4261 73.0001 15.1995 72.997 14.9649C72.997 14.68 72.997 14.3951 72.997 14.1029C73.0065 13.8569 73.0974 13.6208 73.2557 13.4308C73.3647 13.2976 73.521 13.2106 73.6927 13.1875C73.8645 13.1644 74.0386 13.207 74.1796 13.3066C74.2313 13.3066 74.2757 13.387 74.3275 13.4235C74.3451 13.3776 74.3674 13.3335 74.394 13.292C74.394 13.292 74.4679 13.292 74.5048 13.292H74.9039C75.0074 13.292 75.0666 13.3285 75.0666 13.4527C75.0666 14.2563 75.0666 15.0672 75.0666 15.8781C75.0777 16.048 75.0344 16.2171 74.9429 16.3613C74.8513 16.5056 74.7161 16.6177 74.5565 16.6817C74.316 16.7496 74.0675 16.7864 73.8174 16.7913C73.7435 16.7913 73.6623 16.7548 73.5883 16.7548C73.4688 16.7498 73.3535 16.7096 73.2573 16.6393C73.1611 16.569 73.0886 16.4718 73.0488 16.3603C72.9306 16.1265 72.9822 16.0462 73.2631 16.0462C73.544 16.0462 73.6253 16.0023 73.7731 16.2288C73.921 16.4553 74.1722 16.3749 74.2683 16.1338C74.3259 15.9406 74.3655 15.7425 74.3866 15.5421ZM74.3866 14.5266L74.2388 13.8983C74.2388 13.7376 74.0762 13.7376 73.9579 13.7522C73.9048 13.7539 73.8542 13.775 73.816 13.8115C73.7777 13.8479 73.7546 13.8971 73.7509 13.9495C73.6659 14.3149 73.6659 14.6945 73.7509 15.0599C73.7953 15.1987 73.8248 15.301 73.9874 15.3156C74.0548 15.3198 74.1217 15.3011 74.1768 15.2625C74.2319 15.224 74.272 15.168 74.2905 15.1038C74.3325 14.9135 74.3622 14.7207 74.3792 14.5266H74.3866Z" fill="#040707"/>
<path d="M59.3234 14.176C59.3603 14.4974 59.4047 14.8188 59.4342 15.1403C59.4342 15.1761 59.4415 15.2115 59.4558 15.2444C59.4701 15.2773 59.491 15.307 59.5173 15.3316C59.5436 15.3562 59.5747 15.3753 59.6087 15.3876C59.6427 15.3999 59.6789 15.4053 59.7151 15.4033C59.7947 15.413 59.8753 15.394 59.9418 15.3497C60.0084 15.3054 60.0565 15.2388 60.0773 15.1622C60.1205 15.0023 60.1453 14.8381 60.1512 14.6727C60.1512 14.5778 60.1956 14.5412 60.299 14.5266C60.9568 14.4755 61.0381 14.5266 60.8681 15.1768C60.8111 15.4377 60.6532 15.6662 60.4281 15.8136C60.2031 15.9611 59.9286 16.0157 59.6633 15.9658C59.4954 15.9529 59.3308 15.9134 59.1756 15.8489C59.0336 15.7798 58.9113 15.6768 58.8197 15.5492C58.7281 15.4217 58.67 15.2736 58.6507 15.1184C58.5696 14.6357 58.5498 14.1448 58.5916 13.6573C58.5912 13.4251 58.6338 13.1948 58.7173 12.9779C58.825 12.7363 59.0177 12.5416 59.2597 12.4301C59.5018 12.3186 59.7765 12.2977 60.0329 12.3715C60.1663 12.3901 60.2946 12.435 60.4101 12.5036C60.5256 12.5721 60.626 12.663 60.7053 12.7706C60.7846 12.8783 60.8412 13.0007 60.8717 13.1304C60.9022 13.2601 60.906 13.3946 60.8829 13.5258C60.8829 13.6207 60.8386 13.6719 60.7351 13.6646H60.5799C60.166 13.6646 60.166 13.6646 60.0921 13.2628C60.0882 13.2141 60.0735 13.1669 60.0493 13.1243C60.025 13.0818 59.9918 13.045 59.9517 13.0165C59.9116 12.988 59.8657 12.9684 59.8171 12.9593C59.7686 12.9501 59.7186 12.9514 59.6707 12.9632C59.6181 12.959 59.5659 12.9748 59.5246 13.0074C59.4834 13.04 59.4564 13.0869 59.449 13.1386C59.4112 13.2875 59.3841 13.4388 59.3677 13.5915C59.3677 13.7888 59.3677 13.986 59.3677 14.1833L59.3234 14.176Z" fill="#040707"/>
<path d="M61.2082 14.1759V12.7148C61.2082 12.4737 61.2082 12.4591 61.4817 12.4518H61.6369C61.8882 12.4518 61.9252 12.408 61.9178 12.7221C61.9178 12.8974 61.9178 13.0655 61.9178 13.2335C61.9178 13.4015 62.0139 13.438 62.1099 13.3577C62.1899 13.2996 62.2808 13.2581 62.3773 13.2355C62.4738 13.2129 62.5739 13.2097 62.6717 13.2262C62.8033 13.2262 62.9306 13.2726 63.0308 13.3569C63.131 13.4412 63.1976 13.558 63.2186 13.6864C63.2299 13.7737 63.2299 13.8621 63.2186 13.9494C63.2186 14.5485 63.2186 15.1548 63.2186 15.7539C63.2186 15.8927 63.2186 15.973 63.0264 15.9657C62.3982 15.9657 62.5091 16.068 62.5017 15.4544C62.5017 15.0599 62.5017 14.6727 62.5017 14.2782V14.1248C62.5017 13.9129 62.3613 13.7595 62.2134 13.7814C62.0656 13.8033 61.94 13.9348 61.94 14.1467C61.94 14.5266 61.94 14.8772 61.94 15.279V15.5566C61.94 15.9511 61.9399 15.973 61.526 15.9584C61.1121 15.9438 61.1713 15.9584 61.1713 15.6224L61.2082 14.1759Z" fill="#040707"/>
<path d="M52.457 14.753H52.154C52.0257 14.7559 51.8986 14.7781 51.777 14.8188C51.7875 15.0326 51.8565 15.2397 51.9766 15.4178C52.0407 15.4497 52.1147 15.4561 52.1834 15.4357C52.2521 15.4153 52.3104 15.3697 52.3462 15.3083C52.3722 15.248 52.3871 15.1837 52.3905 15.1183C52.3905 14.9868 52.4718 14.9503 52.5974 14.9503H52.9005C53.0261 14.9503 53.1074 15.016 53.0853 15.1329C52.9892 15.6297 52.7231 15.9584 52.2131 15.9584C52.0694 15.9812 51.9227 15.9748 51.7816 15.9396C51.6406 15.9044 51.5082 15.8412 51.3927 15.7539C51.2765 15.6529 51.1876 15.5248 51.134 15.3813C51.0195 14.8737 51.0195 14.3475 51.134 13.8399C51.1868 13.6773 51.2835 13.5322 51.4138 13.4201C51.5441 13.3081 51.703 13.2334 51.8731 13.2043C52.066 13.1676 52.2641 13.1676 52.457 13.2043C52.6181 13.2549 52.7607 13.351 52.8671 13.4809C52.9735 13.6107 53.0391 13.7685 53.0557 13.9348C53.0758 14.1779 53.0758 14.4223 53.0557 14.6654C52.8931 14.8553 52.6491 14.6946 52.457 14.753ZM52.1318 14.2782C52.1318 14.2782 52.3314 14.2782 52.3462 14.2782C52.3902 14.1453 52.3902 14.002 52.3462 13.8691C52.3149 13.8228 52.2717 13.7855 52.221 13.7611C52.1704 13.7367 52.1141 13.7261 52.0579 13.7303C52.0029 13.7475 51.952 13.7758 51.9087 13.8136C51.8655 13.8513 51.8306 13.8976 51.8065 13.9494C51.7725 14.0564 51.7725 14.1712 51.8065 14.2782C51.8777 14.2872 51.9497 14.2872 52.0209 14.2782H52.1318Z" fill="#040707"/>
<path d="M76.759 14.753H76.4265L76.0865 14.8042C76.0887 14.971 76.106 15.1372 76.1382 15.301C76.1382 15.4178 76.2934 15.4178 76.3969 15.4178C76.5004 15.4178 76.6261 15.3521 76.6334 15.2498C76.6334 14.9722 76.8034 14.9722 77.003 14.9868C77.0474 14.9868 77.0991 14.9868 77.1508 14.9868C77.2025 14.9868 77.3578 15.0379 77.3504 15.1548C77.3465 15.3783 77.2534 15.5912 77.0914 15.7472C76.9295 15.9032 76.7117 15.9896 76.4856 15.9877C76.2274 16.0329 75.9616 15.9751 75.7465 15.8269C75.6321 15.7443 75.5386 15.6368 75.473 15.5128C75.2584 14.9526 75.2584 14.3343 75.473 13.7741C75.5203 13.6253 75.6119 13.4941 75.7359 13.3977C75.8599 13.3012 76.0104 13.244 76.1678 13.2335C76.3251 13.2189 76.4835 13.2189 76.6408 13.2335C76.796 13.2555 76.9408 13.3229 77.0568 13.4271C77.1727 13.5312 77.2544 13.6674 77.2913 13.8179C77.3358 14.084 77.3654 14.3523 77.38 14.6215C77.38 14.7676 77.3208 14.7969 77.1878 14.7896L76.759 14.753ZM76.3526 14.2782H76.5891C76.7295 14.2782 76.7369 14.2197 76.7295 14.1175C76.7321 14.0785 76.7321 14.0395 76.7295 14.0006C76.7295 13.8471 76.6408 13.701 76.4487 13.6937C76.2565 13.6864 76.2047 13.8033 76.1382 13.9421C75.9682 14.227 76.0052 14.2782 76.3526 14.2782Z" fill="#040707"/>
<path d="M72.62 14.8115C72.62 15.111 72.62 15.4106 72.62 15.7101C72.62 15.8489 72.5609 15.8854 72.4352 15.8854C71.8957 15.8854 71.8957 15.8854 71.8957 15.3959V14.0298C71.8798 13.9585 71.8423 13.8937 71.7882 13.8441C71.734 13.7945 71.6658 13.7624 71.5926 13.7522C71.5401 13.7453 71.4868 13.758 71.4431 13.7877C71.3995 13.8173 71.3685 13.862 71.3562 13.9129C71.3172 14.0489 71.2925 14.1884 71.2823 14.3293C71.2823 14.7725 71.2823 15.2182 71.2823 15.6662C71.2823 15.9219 71.2305 15.9365 71.0309 15.9365C70.5431 15.9365 70.5579 15.9365 70.5653 15.4617C70.5653 14.7969 70.5653 14.1321 70.5653 13.4673C70.5653 13.3139 70.6096 13.2554 70.7648 13.2627H71.1196C71.1713 13.2627 71.2527 13.2993 71.2527 13.3139C71.2527 13.5403 71.3266 13.4673 71.4374 13.3723C71.5213 13.281 71.6296 13.2151 71.7499 13.1823C71.8702 13.1495 71.9974 13.1513 72.1167 13.1873C72.2361 13.2233 72.3425 13.292 72.4238 13.3856C72.505 13.4792 72.5578 13.5936 72.5757 13.7157C72.6054 13.8153 72.6203 13.9187 72.62 14.0225C72.62 14.2782 72.62 14.5412 72.62 14.8042V14.8115Z" fill="#040707"/>
<path d="M48.6653 14.5485C48.6653 14.7312 48.6653 14.9138 48.6653 15.0964C48.6517 15.311 48.5633 15.5142 48.4151 15.6714C48.2668 15.8287 48.0678 15.9301 47.8522 15.9585C47.6761 15.9876 47.4963 15.9876 47.3201 15.9585C47.1216 15.9216 46.9413 15.8204 46.8074 15.6709C46.6736 15.5214 46.5939 15.3322 46.581 15.133C46.5588 14.7948 46.5588 14.4556 46.581 14.1175C46.5906 13.8707 46.6971 13.6374 46.8778 13.4669C47.0586 13.2964 47.2994 13.2022 47.5493 13.2043C47.7181 13.1888 47.8883 13.2037 48.0518 13.2481C48.2188 13.3085 48.3641 13.4162 48.4693 13.5579C48.5745 13.6996 48.635 13.8689 48.6431 14.0445C48.6431 14.2198 48.6431 14.3878 48.6431 14.5558L48.6653 14.5485ZM47.9853 14.607C47.9853 14.3805 47.8966 14.1394 47.8744 13.8764C47.8523 13.6134 47.734 13.6865 47.638 13.6792C47.5794 13.6728 47.5205 13.689 47.4738 13.7244C47.427 13.7598 47.3957 13.8116 47.3866 13.8691C47.2721 14.3199 47.2721 14.7917 47.3866 15.2426C47.3894 15.2714 47.3979 15.2994 47.4117 15.325C47.4255 15.3505 47.4443 15.3731 47.467 15.3915C47.4897 15.4098 47.5158 15.4235 47.5439 15.4318C47.5719 15.4401 47.6014 15.4428 47.6306 15.4398C47.6597 15.4439 47.6894 15.4422 47.7179 15.4349C47.7464 15.4275 47.7731 15.4146 47.7965 15.3969C47.8199 15.3792 47.8395 15.3571 47.8541 15.3319C47.8688 15.3066 47.8782 15.2787 47.8818 15.2499C47.9114 15.0672 47.9484 14.8407 47.9853 14.607Z" fill="#040707"/>
<path d="M69.6193 14.753H69.1831C68.9762 14.753 68.9689 14.753 68.9762 14.9795C68.9691 15.0694 68.9691 15.1598 68.9762 15.2498C68.991 15.3064 69.0245 15.3565 69.0713 15.3923C69.1182 15.428 69.1757 15.4473 69.2349 15.447C69.3236 15.447 69.4566 15.352 69.464 15.279C69.5305 14.9137 69.804 15.0014 70.0405 14.9868C70.277 14.9722 70.2253 15.0379 70.2105 15.1694C70.203 15.3055 70.1613 15.4376 70.089 15.5537C70.0167 15.6698 69.9162 15.7663 69.7967 15.8342C69.6401 15.9174 69.467 15.9657 69.2895 15.9758C69.112 15.9859 68.9345 15.9575 68.7693 15.8927C68.6293 15.8454 68.5058 15.7599 68.4129 15.6461C68.32 15.5324 68.2617 15.395 68.2445 15.2498C68.147 14.7776 68.1647 14.2892 68.2962 13.8252C68.3523 13.6402 68.4676 13.4781 68.6249 13.3635C68.7822 13.2489 68.973 13.1878 69.1684 13.1896C69.3322 13.167 69.4991 13.1875 69.6522 13.2491C69.8054 13.3106 69.9393 13.4111 70.0405 13.5403C70.1491 13.6698 70.2091 13.8323 70.2105 14.0005C70.2197 14.1575 70.2395 14.3137 70.2697 14.4681C70.2697 14.6799 70.2696 14.7457 70.0183 14.753C69.767 14.7603 69.7301 14.753 69.5823 14.753H69.6193ZM69.294 14.2781H69.4493C69.5823 14.2781 69.6192 14.227 69.5897 14.1174C69.569 14.0049 69.5368 13.8948 69.4936 13.7887C69.4492 13.6937 69.3606 13.6791 69.2571 13.6864C69.1536 13.6937 68.9762 13.8617 68.9688 14.1247C68.9615 14.3877 69.1462 14.2489 69.2497 14.2781H69.294Z" fill="#040707"/>
<path d="M65.5614 14.7165C65.5396 15.0664 65.5644 15.4177 65.6353 15.7612C65.6353 15.8562 65.6353 15.9365 65.5023 15.9365C65.3692 15.9365 65.2584 15.9365 65.1475 15.9365C65.1044 15.9307 65.0632 15.9159 65.0262 15.8933C64.9893 15.8706 64.9576 15.8406 64.9331 15.805C64.9331 15.7101 64.8667 15.7247 64.8149 15.805C64.5784 16.0826 64.2532 15.9877 63.9649 15.9658C63.8023 15.9658 63.5362 15.4836 63.5658 15.3083C63.5618 15.245 63.5618 15.1816 63.5658 15.1183C63.5658 15.0087 63.5067 14.8918 63.625 14.7896C63.7432 14.6873 63.8615 14.5193 64.0536 14.4681C64.2458 14.417 64.4749 14.3366 64.6819 14.2709C64.7471 14.2585 64.8053 14.2223 64.845 14.1696C64.8846 14.1168 64.903 14.0513 64.8962 13.986C64.8962 13.8179 64.7632 13.7814 64.6376 13.7303C64.5119 13.6791 64.3936 13.7741 64.3197 13.8837C64.2458 13.9933 64.2531 14.0882 64.2014 14.0956C64.0443 14.1138 63.8855 14.1138 63.7284 14.0956C63.688 14.0707 63.6589 14.0315 63.6471 13.986C63.6403 13.888 63.6561 13.7898 63.6932 13.6987C63.7303 13.6076 63.7878 13.526 63.8614 13.46C64.0741 13.3043 64.3301 13.2173 64.5947 13.2107C64.8592 13.2042 65.1194 13.2785 65.3397 13.4234C65.4046 13.4869 65.4547 13.5635 65.4867 13.648C65.5186 13.7326 65.5315 13.823 65.5245 13.9129C65.5688 14.1467 65.5614 14.4097 65.5614 14.7165ZM64.9036 14.9795C64.9036 14.6873 64.7927 14.6142 64.5562 14.7311C64.4859 14.7655 64.4234 14.8136 64.3726 14.8727C64.3217 14.9317 64.2837 15.0004 64.2606 15.0745C64.2406 15.1349 64.2406 15.2 64.2605 15.2604C64.2804 15.3208 64.3192 15.3734 64.3714 15.4105C64.4174 15.4473 64.4749 15.4674 64.5341 15.4674C64.5932 15.4674 64.6506 15.4473 64.6966 15.4105C64.7732 15.37 64.8346 15.3062 64.8719 15.2287C64.9091 15.1511 64.9202 15.0638 64.9036 14.9795Z" fill="#040707"/>
<path d="M49.907 15.9292C49.4488 15.9292 49.471 15.9292 49.3675 15.4617C49.264 14.9941 49.1162 14.5485 48.9905 14.0882C48.9314 13.8691 48.8797 13.6426 48.8279 13.4161C48.8279 13.3212 48.8279 13.2773 48.9461 13.2627C49.5079 13.2043 49.6261 13.2992 49.6853 13.8544C49.7222 14.1832 49.7962 14.5119 49.8553 14.848C49.8553 14.848 49.8553 14.848 49.8553 14.8991C49.8541 14.8748 49.8541 14.8504 49.8553 14.8261C49.9366 14.3951 50.0253 13.9713 50.1066 13.5403C50.1509 13.2846 50.1657 13.27 50.4318 13.27C50.9565 13.27 50.9418 13.27 50.8087 13.7449C50.6757 14.2197 50.5353 14.8407 50.4023 15.3959C50.4023 15.4397 50.3579 15.4909 50.3431 15.5347C50.2987 15.9292 50.2988 15.9292 49.907 15.9292Z" fill="#040707"/>
<path d="M67.934 14.1832C67.934 14.6799 67.934 15.1767 67.934 15.6443C67.934 15.8707 67.934 15.8999 67.6975 15.9073H67.6162C67.1949 15.9073 67.1505 15.973 67.1579 15.4689C67.1579 14.5557 67.1579 13.6426 67.1579 12.7294C67.1579 12.4079 67.158 12.3933 67.4906 12.4006C68.0154 12.4006 67.934 12.3276 67.934 12.8243C67.934 13.3211 67.934 13.7375 67.934 14.1832Z" fill="#040707"/>
<path d="M66.7441 14.1905C66.7441 14.7019 66.7441 15.206 66.7441 15.7174C66.7441 15.9219 66.744 15.9292 66.5223 15.9292C65.9384 15.9292 66.0345 16.0096 66.0345 15.469C66.0345 14.5485 66.0345 13.6207 66.0345 12.6929C66.0345 12.4226 66.0345 12.4153 66.3227 12.4226C66.8401 12.4226 66.7441 12.3569 66.7515 12.8609C66.7589 13.365 66.7515 13.7449 66.7515 14.1905H66.7441Z" fill="#040707"/>
</g>
<defs>
<clipPath id="clip0_150_32">
<rect width="91" height="25" fill="white" transform="translate(4 4)"/>
</clipPath>
</defs>
</svg>
