<svg id="Layer_1" data-name="Layer 1" xmlns="http://www.w3.org/2000/svg" width="407.81" height="335" viewBox="0 0 407.81 335">
  <g>
    <path d="M1575.43,452.08c-.43,2.82-.86,5.67-1.3,8.52a2.73,2.73,0,0,1-3.51,2.24A421.1,421.1,0,0,0,1466,445.55a2.78,2.78,0,0,0-2.82,2.31c-.69,3.92-1.38,7.86-2.07,11.79a2.85,2.85,0,0,1-1.06,1.74l-7.33,5.54-36.37-29.06,35.08-23.69,15.07,2.89a2.73,2.73,0,0,1,2.17,3.25l-1.35,6.9a2.77,2.77,0,0,0,2.6,3.32A394.55,394.55,0,0,1,1573.53,449,2.79,2.79,0,0,1,1575.43,452.08Z" transform="translate(-1167.65 -393.27)" fill="#00517e"/>
    <g>
      <path d="M1197.6,642.7l-25.49,40.93a29.25,29.25,0,0,0-1.33,28.71,28.4,28.4,0,0,0,23,15.8l1.32.09c.54,0,1.08,0,1.62,0a33.43,33.43,0,0,0,7.25-.81,28.36,28.36,0,0,0,19.92-16.65,29.14,29.14,0,0,0-1.69-26.64Zm-.15,13.61,18.62,31.46a22.12,22.12,0,0,1,1.28,20.24,21.34,21.34,0,0,1-15,12.55,25.83,25.83,0,0,1-7,.61l-1-.07a21.35,21.35,0,0,1-17.27-11.91,22.25,22.25,0,0,1,1-21.82Z" transform="translate(-1167.65 -393.27)" fill="#a57f2d"/>
      <path d="M1195,635.76l.82,0,1,0a20.26,20.26,0,0,0,4.46-.5,17.51,17.51,0,0,0,12.31-10.29,18,18,0,0,0-1-16.44L1197.36,583l-15.74,25.28a18.06,18.06,0,0,0-.83,17.72A17.54,17.54,0,0,0,1195,635.76Zm2.23-39.14,9.23,15.59a11,11,0,0,1,.64,10,10.51,10.51,0,0,1-7.39,6.19,12.89,12.89,0,0,1-2.9.32l-1.17,0a10.35,10.35,0,0,1-8.49-5.87,11.05,11.05,0,0,1,.49-10.84Z" transform="translate(-1167.65 -393.27)" fill="#a57f2d"/>
      <path d="M1407.48,438l38-25.7-98.64-18.93a4.15,4.15,0,0,0-3.32.81l-113.49,88.58a4.07,4.07,0,0,0-1.58,2.78,4,4,0,0,0,.87,3.06l34.91,43.76a4.13,4.13,0,0,0,5.86.65l55.07-44.58a1.66,1.66,0,0,1,1.16-.28l75.47,14.71a4.14,4.14,0,0,0,3.28-.76l42.5-32Zm28.61,31.89-34.18,25.78-74.25-14.47a8.61,8.61,0,0,0-6.9,1.74L1268,525.64l-31.24-39.15,110.14-86L1427.4,416l-31.83,21.5Z" transform="translate(-1167.65 -393.27)" fill="#a57f2d"/>
      <path d="M1227.27,491.32a4.94,4.94,0,0,0-6.73-.76l-8.75,7a4.78,4.78,0,0,0-.76,6.72l8.41,10.57-15.54,12.37a4.78,4.78,0,0,0-.77,6.72l10.59,13.3a4.79,4.79,0,0,0,6.72.76L1236,535.6l8.71,10.94a4.78,4.78,0,0,0,6.72.77l8.75-7a4.78,4.78,0,0,0,.77-6.72Zm2.63,40.09L1217.83,541l-7.75-9.72,12.08-9.62Zm24.09,4.82-5.18,4.13L1218,501.64l5.18-4.13Z" transform="translate(-1167.65 -393.27)" fill="#a57f2d"/>
      <path d="M1366.11,462.78l-13.52,9.58a6.85,6.85,0,0,0-1.47,7,7.23,7.23,0,0,0,5.19,4.48l37.33,6.68a4.59,4.59,0,0,0,.73.06,4.18,4.18,0,0,0,2.55-.87l14.2-11.06a4.09,4.09,0,0,0,1.48-2.28,6.17,6.17,0,0,0-.12-3.25,6.48,6.48,0,0,0-4.21-4l-39-7A4.06,4.06,0,0,0,1366.11,462.78Zm-8.15,14.4,11.23-7.93,34.54,6.16-10.13,7.89Z" transform="translate(-1167.65 -393.27)" fill="#a57f2d"/>
    </g>
  </g>
</svg>
