<svg width="100" height="30" viewBox="0 0 100 30" fill="none" xmlns="http://www.w3.org/2000/svg">
<g clip-path="url(#clip0_150_32)">
<path d="M88.6526 16.3037L84.413 6.82551C84.196 6.43331 83.8718 6.10191 83.4734 5.86506C83.075 5.6282 82.6165 5.49449 82.1448 5.47729C82.1448 5.47729 65.727 4.04968 49.712 4.04968C33.697 4.04968 16.9718 5.47729 16.9718 5.47729C16.5001 5.49449 16.0418 5.6282 15.6433 5.86506C15.2449 6.10191 14.9206 6.43331 14.7036 6.82551L10.464 16.3037C10.3258 16.5642 10.2486 16.8493 10.2376 17.14C10.2267 17.4307 10.2822 17.7201 10.4005 17.9891C10.5168 18.2589 10.6977 18.5002 10.9292 18.6944C11.1607 18.8887 11.4367 19.0307 11.736 19.1096L47.6347 25.7323C48.2876 25.866 48.95 25.9554 49.6167 26C50.312 25.9497 51.0025 25.8536 51.6834 25.7125L87.4443 19.1096C87.7443 19.0321 88.0211 18.8905 88.2528 18.6961C88.4845 18.5018 88.6648 18.2597 88.7797 17.9891C88.8883 17.716 88.9331 17.4244 88.9112 17.1337C88.8893 16.843 88.8011 16.5599 88.6526 16.3037Z" fill="url(#paint0_linear_150_32)"/>
<path d="M49.5106 24.5327C48.9543 24.4888 48.4018 24.4093 47.8571 24.2948L12.0009 17.682C11.8901 17.6347 11.8029 17.5496 11.7571 17.4441C11.721 17.3658 11.7023 17.2814 11.7023 17.1962C11.7023 17.1109 11.721 17.0266 11.7571 16.9483L15.9967 7.44036C16.0841 7.29086 16.2087 7.16324 16.36 7.06833C16.5113 6.97341 16.6847 6.91394 16.8658 6.89502H17.0248C17.1838 6.89502 33.8877 5.46741 49.606 5.46741C65.3242 5.46741 81.7314 6.87519 81.8903 6.89502H82.0493C82.2285 6.91545 82.3998 6.97566 82.5492 7.07051C82.6985 7.16535 82.8215 7.29212 82.9079 7.44036L87.1475 16.9285C87.2159 17.0875 87.2159 17.2652 87.1475 17.4242C87.0978 17.533 87.0074 17.6212 86.8931 17.6721L51.1746 24.265C50.6021 24.3857 50.0213 24.4685 49.4363 24.5129L49.5106 24.5327ZM12.2446 17.2061L47.9631 23.7892C48.4721 23.9011 48.9894 23.9773 49.5106 24.0172C50.0562 23.9718 50.5979 23.8924 51.1321 23.7792L86.7341 17.216C86.7341 17.216 86.7341 17.216 86.7341 17.1664V17.087L82.4946 7.66837C82.4543 7.60438 82.4007 7.54854 82.337 7.50426C82.2732 7.45998 82.2007 7.42817 82.1236 7.41059H81.9328C81.7632 7.41059 65.4831 5.9929 49.6907 5.9929C33.8983 5.9929 17.3109 7.40067 17.152 7.41059H16.9717C16.8906 7.4251 16.8137 7.4557 16.7461 7.50014C16.6785 7.54459 16.6217 7.60186 16.5796 7.66837L12.34 17.1565C12.3354 17.1761 12.3354 17.1964 12.34 17.216L12.2446 17.2061Z" fill="url(#paint1_linear_150_32)"/>
<path d="M29.9238 13.6468C29.9238 15.7684 27.7298 17.2555 24.8681 17.2555C22.0063 17.2555 19.8229 15.7684 19.8229 13.6468C19.8229 11.5251 22.0275 10.0182 24.8681 10.0182C27.7086 10.0182 29.9238 11.4755 29.9238 13.6468ZM22.1123 13.6468C22.1123 14.8365 23.1722 15.6296 24.8681 15.6296C26.5639 15.6296 27.6131 14.8464 27.6131 13.6468C27.6131 12.4471 26.5533 11.6639 24.8468 11.6639C23.1404 11.6639 22.1123 12.4471 22.1123 13.6567V13.6468Z" fill="white"/>
<path d="M31.2168 14.8065C32.2655 15.4193 33.4779 15.7423 34.7144 15.7384C36.23 15.7384 36.9403 15.4313 36.9403 14.9752C36.9403 14.5192 36.1559 14.3011 34.5872 14.2317C32.213 14.1424 30.7292 13.6566 30.7292 12.2488C30.7292 10.841 32.4569 10.0181 34.884 10.0181C36.3099 9.98195 37.7241 10.2675 39.007 10.8507L38.0955 12.1793C37.0787 11.7301 35.966 11.503 34.8416 11.5151C33.4955 11.5151 32.8702 11.7828 32.8702 12.219C32.8702 12.6553 33.5486 12.8436 35.202 12.9031C37.4066 12.9625 39.272 13.4583 39.272 14.8859C39.272 16.3136 37.3112 17.2159 34.7887 17.2159C33.2538 17.2326 31.7385 16.8919 30.3795 16.2245L31.2168 14.8065Z" fill="white"/>
<path d="M40.3849 17.0175V7.60876H42.5789V10.7813C43.4647 10.281 44.48 10.0173 45.5148 10.0181C48.1751 10.0181 49.9557 11.5647 49.9557 13.6467C49.9557 15.7287 48.1328 17.2061 45.5254 17.2061C44.5151 17.2804 43.5011 17.1132 42.5789 16.7203V17.0175H40.3849ZM42.5789 12.4173V14.8662C43.2727 15.3422 44.1139 15.5929 44.9743 15.58C46.7337 15.58 47.6664 14.7967 47.6664 13.5971C47.6664 12.3974 46.7549 11.6142 45.0167 11.6142C44.1356 11.6432 43.2849 11.9235 42.5789 12.4173Z" fill="white"/>
<path d="M61.1164 13.6468C61.1164 15.7684 58.9224 17.2555 56.0607 17.2555C53.199 17.2555 51.0156 15.7684 51.0156 13.6468C51.0156 11.5251 53.2202 10.0182 56.0607 10.0182C58.9012 10.0182 61.1164 11.4755 61.1164 13.6468ZM53.305 13.6468C53.305 14.8365 54.3648 15.6296 56.0607 15.6296C57.7565 15.6296 58.8059 14.8464 58.8059 13.6468C58.8059 12.4471 57.7459 11.6639 56.0395 11.6639C54.333 11.6639 53.305 12.4471 53.305 13.6567V13.6468Z" fill="white"/>
<path d="M64.3385 10.5335C65.2895 10.1482 66.3253 9.98159 67.3592 10.0477C67.8167 10.0372 68.2734 10.0874 68.7159 10.1966V12.0603C68.1527 11.8527 67.5511 11.7518 66.9458 11.7631C66.0354 11.7606 65.1389 11.9718 64.3385 12.3777V17.0175H62.1445V10.2363H64.3385V10.5335Z" fill="white"/>
<path d="M72.0334 10.2362V10.5433C73.0363 10.1428 74.1242 9.96322 75.2131 10.0181C77.2481 10.0181 78.7001 10.8903 78.7001 12.7939V17.0174H76.5062V13.2105C76.5062 12.0703 75.6794 11.7727 74.5135 11.7727C73.6259 11.7488 72.7498 11.9658 71.991 12.3974V17.0174H69.7971V10.2362H72.0334Z" fill="white"/>
</g>
<defs>
<linearGradient id="paint0_linear_150_32" x1="49.5106" y1="26" x2="49.5106" y2="4.00011" gradientUnits="userSpaceOnUse">
<stop offset="0.25" stop-color="#1C3B6A"/>
<stop offset="0.8" stop-color="#0D76BD"/>
</linearGradient>
<linearGradient id="paint1_linear_150_32" x1="49.5106" y1="24.5327" x2="49.5106" y2="5.45749" gradientUnits="userSpaceOnUse">
<stop offset="0.2" stop-color="#0D76BD"/>
<stop offset="0.75" stop-color="#1C3B6A"/>
</linearGradient>
<clipPath id="clip0_150_32">
<rect width="79" height="22" fill="white" transform="translate(10 4)"/>
</clipPath>
</defs>
</svg>
