<svg width="100" height="30" viewBox="0 0 100 30" fill="none" xmlns="http://www.w3.org/2000/svg">
<g clip-path="url(#clip0_150_40)">
<path d="M18.0932 9.94177L13.1969 26.0105H73.3676L78.4129 9.94177H18.0932Z" fill="#E21F26"/>
<path d="M30.9724 12.6637L30.2061 15.1439L29.1949 18.4228L26.4381 20.6823H22.8297L22.0208 23.3517H18.6573L19.4769 20.6823H17.4651L18.3167 18.2126H20.2326L20.8819 16.1002H24.2348L23.5961 18.2126H25.9059L26.8425 15.1439H21.1373L21.9782 12.6637H30.9724Z" fill="white"/>
<path d="M41.4888 12.6637L38.3275 23.3832H34.8682L35.6771 20.7033L33.2077 20.6823L32.3988 23.3832H29.3226L31.4727 16.1318H34.5808L33.8996 18.1285H36.5819L37.4334 15.312H31.7175L34.4743 12.6637H41.4888Z" fill="white"/>
<path d="M41.7442 15.3121L44.4584 12.6322H51.5686L50.6533 15.3121H41.7442Z" fill="white"/>
<path d="M44.3307 16.0056H47.8326L45.6612 23.3831H42.0422L44.3307 16.0056Z" fill="white"/>
<path d="M51.5686 16.0687H54.9215L53.4633 20.6613H55.8049L57.508 15.3121H51.7709L54.698 12.6322H61.5847L59.2004 20.7454L56.4755 23.3832H49.3866L51.5686 16.0687Z" fill="white"/>
<path d="M60.1051 23.3517H63.4367L65.1078 17.6242H67.3111L66.6192 12.7163H63.3302L60.1051 23.3517Z" fill="white"/>
<path d="M73.0589 12.7163H69.7273L68.0669 18.4439H65.8529L66.5448 23.3517H69.8444L73.0589 12.7163Z" fill="white"/>
<path d="M91.8031 9.36378L82.6811 8.7017L86.7684 5.23363L81.6167 6.93614L80.9568 0L79.3602 6.93614L74.7833 5.35974L77.9765 8.3654H18.6147L18.2528 9.36378H78.6151L77.8807 13.599L79.4773 10.8246L79.4347 18.8852L81.1271 10.9192L83.2878 14.3347L82.3725 9.93129L91.8031 9.36378Z" fill="#E21F26"/>
<path d="M20.2539 7.68239H19.6365L20.0198 4.78181H20.5839C20.7783 4.75909 20.9748 4.75909 21.1693 4.78181C21.2805 4.81146 21.3853 4.8615 21.478 4.92909C21.5724 5.00241 21.6487 5.09582 21.7015 5.20234C21.7497 5.32284 21.775 5.45096 21.776 5.58053C21.7753 5.72923 21.7427 5.87626 21.6802 6.01157C21.6265 6.13813 21.5381 6.24713 21.4248 6.32665C21.3275 6.40194 21.215 6.45585 21.0948 6.48444C20.911 6.50595 20.7252 6.50595 20.5413 6.48444H20.3923L20.2539 7.68239ZM20.4668 6.07443H20.552C20.7176 6.08977 20.8841 6.05705 21.031 5.98002C21.0774 5.9377 21.1131 5.88524 21.1352 5.82684C21.1574 5.76844 21.1655 5.70566 21.1587 5.64365C21.1655 5.59138 21.1594 5.53835 21.1408 5.48893C21.1223 5.43951 21.0919 5.39514 21.0522 5.35987C20.9254 5.29159 20.7808 5.26223 20.6371 5.27572H20.5732L20.4668 6.07443Z" fill="#E21F26"/>
<path d="M22.4892 7.68225L22.7446 5.73818H23.3087L23.0533 7.68225H22.4892ZM22.7872 4.9918C22.7861 4.94726 22.7941 4.90296 22.8105 4.86146C22.827 4.81997 22.8516 4.78213 22.883 4.75011C22.9131 4.71891 22.9495 4.69457 22.9898 4.67827C23.0302 4.66197 23.0736 4.65423 23.1172 4.65569C23.1607 4.65423 23.2041 4.66197 23.2445 4.67827C23.2849 4.69457 23.3213 4.71891 23.3514 4.75011C23.4138 4.8154 23.4481 4.90203 23.4471 4.9918C23.4473 5.03467 23.439 5.07734 23.4226 5.11701C23.4061 5.15669 23.3819 5.19281 23.3514 5.22324C23.3213 5.25444 23.2849 5.27877 23.2445 5.29508C23.2041 5.31138 23.1607 5.31912 23.1172 5.31765C23.0736 5.31912 23.0302 5.31138 22.9898 5.29508C22.9495 5.27877 22.9131 5.25444 22.883 5.22324C22.8524 5.19281 22.8282 5.15669 22.8118 5.11701C22.7953 5.07734 22.787 5.03467 22.7872 4.9918Z" fill="#E21F26"/>
<path d="M24.2454 7.68228L24.6499 4.61365H25.2247L24.8096 7.68228H24.2454Z" fill="#E21F26"/>
<path d="M27.1193 5.67523C27.2534 5.66755 27.3877 5.68677 27.5139 5.73194C27.6402 5.7771 27.7558 5.84727 27.8538 5.93797C27.948 6.02909 28.0215 6.13904 28.0692 6.26048C28.1169 6.38191 28.1378 6.51195 28.1305 6.64201C28.1372 6.78983 28.1123 6.93747 28.0572 7.0751C28.0022 7.21274 27.9184 7.33729 27.8112 7.44072C27.6994 7.54589 27.5674 7.62802 27.423 7.68216C27.2786 7.7363 27.1246 7.76141 26.9703 7.75605C26.8379 7.76291 26.7056 7.74323 26.5811 7.69807C26.4567 7.65291 26.3429 7.5832 26.2465 7.49332C26.1571 7.40137 26.0875 7.29257 26.0417 7.17337C25.996 7.05418 25.9751 6.92715 25.9804 6.7998C25.9721 6.65024 25.9964 6.50062 26.0515 6.36106C26.1065 6.22149 26.1911 6.09519 26.2997 5.99056C26.4057 5.88338 26.5337 5.79965 26.675 5.74528C26.8164 5.6909 26.9678 5.66708 27.1193 5.67523ZM27.1193 6.17966C27.0427 6.17829 26.9668 6.19368 26.8969 6.22456C26.827 6.25544 26.7648 6.30096 26.7148 6.35823C26.6595 6.41743 26.6169 6.48714 26.5895 6.56298C26.562 6.63882 26.5503 6.71941 26.5552 6.7998C26.5511 6.91909 26.593 7.03528 26.6723 7.12539C26.7133 7.16772 26.763 7.20088 26.8181 7.22263C26.8732 7.24439 26.9323 7.25436 26.9916 7.25163C27.0672 7.25294 27.1422 7.23876 27.2118 7.20981C27.2815 7.18085 27.3442 7.13785 27.3961 7.08357C27.5048 6.96216 27.5619 6.80393 27.5557 6.64201C27.5593 6.51959 27.5177 6.39999 27.4386 6.30564C27.3527 6.22302 27.2391 6.17453 27.1193 6.16914V6.17966Z" fill="#E21F26"/>
<path d="M29.1417 7.68229L29.344 6.17953H28.9714V5.73823H29.344L29.4291 5.09705H30.0039L29.9081 5.73823H30.2912V6.17953H29.9081L29.7058 7.68229H29.1417Z" fill="#E21F26"/>
<path d="M33.5377 7.68219H32.9203L33.3035 4.78161H33.8677C34.0657 4.75948 34.2657 4.75948 34.4637 4.78161C34.5717 4.8113 34.6729 4.8614 34.7617 4.92889C34.8561 5.00221 34.9325 5.09562 34.9853 5.20214C35.0374 5.32149 35.0628 5.45039 35.0598 5.58033C35.0593 5.72798 35.0304 5.87436 34.9746 6.01137C34.9133 6.13632 34.822 6.24435 34.7085 6.32645C34.6124 6.40355 34.4995 6.45768 34.3786 6.48424C34.1947 6.50575 34.0089 6.50575 33.8251 6.48424H33.6867L33.5377 7.68219ZM33.7505 6.07424H33.8464C34.0086 6.09001 34.1718 6.05721 34.3147 5.97982C34.3611 5.9375 34.3969 5.88504 34.4191 5.82664C34.4412 5.76824 34.4492 5.70546 34.4424 5.64345C34.4493 5.59118 34.4431 5.53815 34.4246 5.48873C34.406 5.43931 34.3757 5.39494 34.336 5.35967C34.2097 5.29013 34.0647 5.26069 33.9209 5.27552H33.857L33.7505 6.07424Z" fill="#E21F26"/>
<path d="M35.9006 7.68228L36.3051 4.61365H36.8692L36.4648 7.68228H35.9006Z" fill="#E21F26"/>
<path d="M39.509 7.68226H38.9449V7.46161C38.887 7.56124 38.7971 7.63888 38.6894 7.68226C38.584 7.73465 38.4668 7.76003 38.3488 7.7559C38.2389 7.76378 38.1286 7.74606 38.0269 7.70407C37.9252 7.66208 37.8349 7.59702 37.7634 7.5142C37.6067 7.32171 37.5305 7.07714 37.5505 6.83095C37.5375 6.5319 37.6317 6.23813 37.8166 6.00093C37.8959 5.8972 37.999 5.81357 38.1175 5.75692C38.2359 5.70028 38.3663 5.67219 38.4978 5.67508C38.6275 5.66912 38.7562 5.69827 38.8704 5.75923C38.9809 5.81755 39.0729 5.90481 39.1365 6.01145V5.73819H39.7113L39.509 7.68226ZM39.1152 6.63133C39.1205 6.50548 39.0787 6.38227 38.9981 6.2847C38.9557 6.23763 38.903 6.20063 38.844 6.17694C38.7849 6.15324 38.7211 6.14336 38.6575 6.14794C38.5841 6.14671 38.5113 6.16212 38.4448 6.1931C38.3784 6.22408 38.32 6.26972 38.2743 6.32652C38.1737 6.47135 38.125 6.64542 38.1359 6.82068C38.1326 6.88399 38.1422 6.94712 38.1641 7.0067C38.186 7.06628 38.2199 7.12091 38.2636 7.16732C38.309 7.2097 38.3626 7.24264 38.421 7.2643C38.4795 7.28596 38.5418 7.29602 38.6043 7.29355C38.6762 7.29478 38.7475 7.27918 38.8122 7.24814C38.8769 7.21709 38.9333 7.17132 38.9768 7.11472C39.0701 6.95965 39.1111 6.77934 39.0939 6.59977L39.1152 6.63133Z" fill="#E21F26"/>
<path d="M40.6585 7.68238L40.914 5.73831H41.4356V6.04286C41.542 5.93188 41.6638 5.83659 41.7974 5.75935C41.9141 5.70546 42.0412 5.67671 42.17 5.67519C42.3457 5.66562 42.5191 5.71762 42.6596 5.82221C42.7213 5.87543 42.7698 5.94221 42.8012 6.01695C42.8325 6.09169 42.8461 6.17253 42.8406 6.25326C42.8476 6.37226 42.8476 6.4914 42.8406 6.61041L42.7129 7.66134H42.138L42.2871 6.61041C42.2813 6.57561 42.2813 6.54027 42.2871 6.50547V6.44235C42.2887 6.36251 42.2624 6.2846 42.2126 6.2217C42.1489 6.1725 42.0699 6.14644 41.989 6.14806C41.9182 6.14369 41.8472 6.15473 41.7811 6.18013C41.7149 6.20554 41.6551 6.24485 41.6058 6.29533C41.4962 6.41771 41.4323 6.57341 41.4249 6.73664L41.2972 7.6929L40.6585 7.68238Z" fill="#E21F26"/>
<path d="M43.8837 7.68229L44.0859 6.17953H43.7134V5.73823H44.0859L44.1711 5.09705H44.7458L44.6606 5.73823H45.0332V6.17953H44.65L44.4478 7.68229H43.8837Z" fill="#E21F26"/>
<path d="M47.822 7.06246C47.8829 7.14538 47.9586 7.21656 48.0455 7.2726C48.1155 7.32638 48.2016 7.35575 48.2903 7.3565C48.3482 7.35816 48.4047 7.33975 48.45 7.30416C48.4704 7.29009 48.4871 7.27103 48.4982 7.24899C48.5094 7.22696 48.5147 7.20254 48.5138 7.17792C48.5138 7.09385 48.4394 7.00978 48.2903 6.92571L48.1413 6.84155C48.0323 6.77338 47.9352 6.68821 47.8539 6.58934C47.7972 6.50151 47.7676 6.39948 47.7688 6.2953C47.7679 6.21059 47.7867 6.12676 47.8236 6.05027C47.8604 5.97379 47.9145 5.90648 47.9816 5.85374C48.1373 5.72841 48.3346 5.66481 48.5351 5.67516C48.6701 5.67321 48.804 5.6983 48.929 5.7488C49.0521 5.81027 49.1636 5.89199 49.2589 5.99049L48.9183 6.2953C48.8584 6.22401 48.7864 6.16338 48.7055 6.11647C48.6394 6.0975 48.5693 6.0975 48.5032 6.11647C48.455 6.09964 48.4024 6.09964 48.3542 6.11647C48.3349 6.13103 48.3198 6.15052 48.3105 6.17266C48.3011 6.1948 48.2979 6.21892 48.301 6.24271C48.301 6.31627 48.3968 6.40036 48.599 6.51596L48.7374 6.58934C48.8354 6.6429 48.9193 6.71872 48.9822 6.81025C49.0338 6.89594 49.0596 6.99412 49.0567 7.09376C49.0586 7.18474 49.0406 7.2751 49.0039 7.35855C48.9671 7.442 48.9125 7.51677 48.8438 7.57741C48.6902 7.70742 48.4924 7.77496 48.2903 7.7665C48.1429 7.76774 47.9972 7.73528 47.8646 7.67183C47.7208 7.60487 47.5909 7.51221 47.4814 7.39857L47.822 7.06246Z" fill="#E21F26"/>
<path d="M50.0998 7.68225L50.3552 5.73818H50.93L50.6745 7.68225H50.0998ZM50.4084 4.9918C50.4074 4.94726 50.4153 4.90296 50.4318 4.86146C50.4482 4.81997 50.4728 4.78213 50.5042 4.75011C50.5343 4.71891 50.5707 4.69457 50.6111 4.67827C50.6514 4.66197 50.6948 4.65423 50.7384 4.65569C50.782 4.65423 50.8254 4.66197 50.8657 4.67827C50.9061 4.69457 50.9425 4.71891 50.9725 4.75011C51.035 4.8154 51.0693 4.90203 51.0684 4.9918C51.0686 5.03467 51.0603 5.07734 51.0438 5.11701C51.0274 5.15669 51.0031 5.19281 50.9725 5.22324C50.9425 5.25444 50.9061 5.27877 50.8657 5.29508C50.8254 5.31138 50.782 5.31912 50.7384 5.31765C50.6948 5.31912 50.6514 5.31138 50.6111 5.29508C50.5707 5.27877 50.5343 5.25444 50.5042 5.22324C50.4736 5.19281 50.4494 5.15669 50.433 5.11701C50.4166 5.07734 50.4082 5.03467 50.4084 4.9918Z" fill="#E21F26"/>
<path d="M51.8667 7.68234L52.1221 5.73827H52.6543V6.04283C52.755 5.92994 52.8736 5.83432 53.0056 5.75931C53.1223 5.70542 53.2493 5.67667 53.3781 5.67515C53.5571 5.66577 53.7339 5.71764 53.8784 5.82217C53.9384 5.87681 53.9855 5.94381 54.0167 6.01819C54.048 6.09258 54.0625 6.17275 54.0594 6.25322C54.0705 6.37207 54.0705 6.49152 54.0594 6.61037L53.921 7.6613H53.3569L53.4953 6.61037C53.5 6.57549 53.5 6.54031 53.4953 6.50543V6.44231C53.4987 6.40246 53.4939 6.36223 53.481 6.32429C53.4682 6.28634 53.4477 6.25151 53.4208 6.22166C53.357 6.17246 53.2781 6.1464 53.1972 6.14802C53.1266 6.14563 53.0562 6.15737 52.9903 6.18266C52.9244 6.20795 52.8645 6.24642 52.814 6.29529C52.7085 6.42013 52.6451 6.57441 52.633 6.7366L52.5053 7.69286L51.8667 7.68234Z" fill="#E21F26"/>
<path d="M56.6245 6.36874C56.5535 6.30177 56.4705 6.24843 56.3797 6.21121C56.3024 6.19619 56.2229 6.19619 56.1456 6.21121C56.0634 6.20786 55.9814 6.22104 55.9046 6.24995C55.8277 6.27886 55.7576 6.32278 55.6985 6.37926C55.5875 6.50767 55.5305 6.67301 55.5389 6.84161C55.5356 6.90492 55.5451 6.96831 55.5671 7.02788C55.589 7.08746 55.6229 7.1421 55.6666 7.1885C55.7699 7.27602 55.9032 7.32128 56.0391 7.31473C56.124 7.32402 56.2097 7.32402 56.2946 7.31473C56.3995 7.28695 56.4999 7.24436 56.5926 7.1885L56.4968 7.735L56.2414 7.81916H55.954C55.8225 7.82623 55.6908 7.80754 55.5666 7.76425C55.4424 7.72097 55.3281 7.65396 55.2302 7.56695C55.1375 7.47465 55.0652 7.3643 55.0175 7.24315C54.9699 7.122 54.9481 6.99249 54.9535 6.86265C54.9452 6.71309 54.9694 6.56373 55.0245 6.42416C55.0796 6.2846 55.1642 6.15804 55.2728 6.05341C55.3775 5.94759 55.5038 5.86502 55.6432 5.81069C55.7826 5.75636 55.932 5.7317 56.0817 5.73834C56.2013 5.71564 56.3241 5.71564 56.4436 5.73834C56.5596 5.76942 56.6681 5.82291 56.7629 5.89588L56.6245 6.36874Z" fill="#E21F26"/>
<path d="M58.0829 6.83089C58.08 6.8885 58.0889 6.94632 58.109 7.00048C58.1291 7.05464 58.16 7.10408 58.1999 7.14622C58.2988 7.22587 58.4237 7.26711 58.5512 7.26193C58.6455 7.26506 58.7384 7.2393 58.8173 7.18829C58.9045 7.137 58.9804 7.06919 59.0408 6.98868L59.424 7.30401C59.3313 7.43823 59.2022 7.54392 59.0514 7.60882C58.8846 7.68379 58.7025 7.7196 58.5192 7.71376C58.2496 7.72125 57.987 7.62734 57.7848 7.45103C57.6938 7.36018 57.6231 7.25157 57.5773 7.1321C57.5315 7.01264 57.5115 6.88506 57.5187 6.75751C57.5094 6.45812 57.6204 6.16723 57.8274 5.94827C57.9309 5.84379 58.0554 5.76163 58.1929 5.70735C58.3303 5.65306 58.4777 5.62779 58.6257 5.63294C58.7534 5.62392 58.8817 5.6427 59.0013 5.6881C59.1209 5.73351 59.2288 5.80443 59.3175 5.89567C59.4948 6.09961 59.5862 6.36282 59.573 6.63127C59.5772 6.68022 59.5772 6.72959 59.573 6.77854H58.0935L58.0829 6.83089ZM58.0829 6.50529H59.0195C59.0212 6.39453 58.9836 6.28663 58.9131 6.20048C58.874 6.1622 58.8274 6.1321 58.7761 6.11222C58.7249 6.09234 58.6701 6.08299 58.6151 6.08477C58.4925 6.07917 58.3719 6.11648 58.2745 6.18996C58.1899 6.27797 58.1311 6.38696 58.1041 6.50529H58.0829Z" fill="#E21F26"/>
<path d="M63.0643 7.68225L63.3729 5.29662H62.8727L62.9365 4.81323H64.0009L63.6177 7.68225H63.0643Z" fill="#E21F26"/>
<path d="M65.64 7.68221L66.3425 6.86246L66.4596 6.73648C66.5074 6.67879 66.5608 6.62583 66.6193 6.57869H66.4702H66.3745C66.2625 6.58502 66.1504 6.56776 66.0458 6.52788C65.9412 6.48801 65.8464 6.42648 65.7677 6.34751C65.6886 6.26713 65.627 6.17166 65.5867 6.06682C65.5464 5.96198 65.5283 5.85016 65.5336 5.73815C65.5308 5.60324 65.5579 5.4693 65.6131 5.34584C65.6682 5.22239 65.7501 5.11224 65.8529 5.02333C65.9613 4.92384 66.0886 4.84678 66.2275 4.79626C66.3664 4.74575 66.514 4.72276 66.6619 4.72904C66.9088 4.72019 67.1494 4.80716 67.3325 4.97099C67.4179 5.05437 67.4848 5.15437 67.5288 5.26477C67.5728 5.37516 67.5929 5.49338 67.5879 5.61191C67.5825 5.81779 67.5278 6.01953 67.4282 6.20049C67.2651 6.47648 67.0762 6.73682 66.8641 6.97817L66.2893 7.66117L65.64 7.68221ZM66.5447 6.1479C66.609 6.14965 66.6728 6.13741 66.7317 6.11198C66.7906 6.08654 66.8431 6.04865 66.8854 6.00088C66.9737 5.90639 67.0231 5.7826 67.0237 5.65399C67.0255 5.59966 67.0161 5.54551 66.9959 5.49491C66.9758 5.44432 66.9454 5.3983 66.9067 5.3597C66.8676 5.32142 66.821 5.29132 66.7697 5.27144C66.7185 5.25156 66.6636 5.24247 66.6086 5.24424C66.4747 5.24221 66.3451 5.29101 66.2467 5.38074C66.2006 5.4259 66.1644 5.48011 66.1406 5.53981C66.1168 5.59952 66.1058 5.6635 66.1084 5.72763C66.1051 5.7837 66.1138 5.83983 66.134 5.89235C66.1541 5.94486 66.1853 5.99262 66.2254 6.03244C66.2645 6.07784 66.3136 6.11369 66.369 6.13738C66.4244 6.16107 66.4845 6.17184 66.5447 6.16894V6.1479Z" fill="#E21F26"/>
<path d="M68.7588 6.9783C68.8241 7.06776 68.9074 7.14286 69.0036 7.19895C69.0941 7.25022 69.1973 7.27576 69.3016 7.27259C69.3838 7.27594 69.4658 7.26275 69.5426 7.23384C69.6195 7.20494 69.6896 7.16075 69.7487 7.10427C69.8075 7.0533 69.8542 6.99013 69.8855 6.91928C69.9167 6.84844 69.9318 6.77178 69.9296 6.69452C69.9343 6.62138 69.9235 6.54803 69.8979 6.47926C69.8722 6.41048 69.8323 6.34792 69.7806 6.29529C69.7257 6.24718 69.6617 6.21022 69.5923 6.18676C69.5228 6.16331 69.4494 6.1537 69.3761 6.15854C69.281 6.14324 69.1839 6.14324 69.0887 6.15854C68.9853 6.2032 68.8857 6.25581 68.7907 6.31608L68.6949 6.23218L69.1419 4.77124H70.6002L70.5257 5.24436H69.4613L69.3123 5.72775H69.5039C69.7626 5.7168 70.0152 5.80748 70.2063 5.97996C70.2951 6.068 70.3646 6.17315 70.4104 6.28888C70.4562 6.4046 70.4773 6.5283 70.4724 6.65245C70.4773 6.79478 70.4502 6.93652 70.3932 7.06733C70.3361 7.19813 70.2505 7.31474 70.1425 7.40908C70.0342 7.51314 69.9059 7.59482 69.7651 7.64898C69.6243 7.70314 69.474 7.72872 69.3229 7.72441C69.1259 7.73119 68.9296 7.69522 68.7481 7.61922C68.5807 7.53809 68.4349 7.41948 68.3224 7.27259L68.7588 6.9783Z" fill="#E21F26"/>
<path d="M71.771 7.68226L72.4735 6.86251L72.58 6.73653L72.7396 6.57874H72.6012H72.4948C72.3831 6.58311 72.2716 6.56487 72.1673 6.52511C72.0629 6.48535 71.9679 6.42493 71.8881 6.34756C71.7322 6.1825 71.6482 5.96381 71.654 5.7382C71.6512 5.60329 71.6783 5.46935 71.7334 5.34589C71.7886 5.22244 71.8705 5.11229 71.9733 5.02338C72.1935 4.82443 72.4839 4.71873 72.7822 4.72909C73.0291 4.72024 73.2698 4.80721 73.4528 4.97104C73.5383 5.05442 73.6051 5.15442 73.6491 5.26482C73.6931 5.37521 73.7133 5.49343 73.7083 5.61196C73.7029 5.81784 73.6481 6.01958 73.5486 6.20054C73.3892 6.47892 73.2001 6.73963 72.9845 6.97822L72.4203 7.66122L71.771 7.68226ZM72.6651 6.14795C72.7294 6.15045 72.7935 6.13854 72.8525 6.11305C72.9115 6.08757 72.9639 6.04929 73.0057 6.00093C73.0519 5.95577 73.088 5.90156 73.1119 5.84185C73.1357 5.78215 73.1467 5.71816 73.1441 5.65404C73.1459 5.59971 73.1364 5.54556 73.1163 5.49496C73.0962 5.44437 73.0658 5.39835 73.027 5.35975C72.9879 5.32147 72.9413 5.29137 72.8901 5.27149C72.8388 5.25161 72.784 5.24252 72.729 5.24429C72.6641 5.24238 72.5995 5.25339 72.5391 5.27688C72.4787 5.30036 72.4239 5.33571 72.3778 5.38079C72.3302 5.42543 72.2924 5.47918 72.2667 5.53884C72.2411 5.5985 72.2282 5.66287 72.2287 5.72768C72.2254 5.78375 72.2341 5.83988 72.2543 5.8924C72.2745 5.94491 72.3057 5.99267 72.3458 6.03249C72.3849 6.07789 72.434 6.11374 72.4894 6.13743C72.5447 6.16112 72.6048 6.17189 72.6651 6.16899V6.14795Z" fill="#E21F26"/>
</g>
<defs>
<clipPath id="clip0_150_40">
<rect width="79" height="26" fill="white" transform="translate(13)"/>
</clipPath>
</defs>
</svg>
