<svg width="100" height="30" viewBox="0 0 100 30" fill="none" xmlns="http://www.w3.org/2000/svg">
<g clip-path="url(#clip0_150_44)">
<path fill-rule="evenodd" clip-rule="evenodd" d="M17.4342 13.7109C13.8274 13.6315 10.2354 14.1827 6.8302 15.3377C6.96623 15.6165 7.12069 15.8864 7.29257 16.146C10.2703 14.7594 13.5377 14.0563 16.8412 14.0909C17.3538 14.0909 17.8463 14.0907 18.3689 14.1394C18.3689 14.0128 18.4393 13.8668 18.4594 13.7304C18.1378 13.7109 17.7759 13.7109 17.4342 13.7109ZM6.37788 13.4576C6.41044 13.8097 6.47434 14.1585 6.56886 14.4999C10.4824 13.6466 14.4895 13.2639 18.4996 13.3604H18.5499C18.5499 13.2727 18.5499 13.1948 18.5499 13.1266C17.4241 13.1071 11.303 13.0583 6.32764 13.4576H6.37788ZM18.5499 12.4836H18.4996C14.4891 12.5771 10.4819 12.1911 6.56886 11.3343C6.47434 11.6758 6.41044 12.0245 6.37788 12.3766C11.4035 12.7857 17.4342 12.7368 18.5599 12.7076C18.5097 12.62 18.4996 12.542 18.4996 12.4641L18.5499 12.4836ZM12.4488 7.01947C11.6263 7.01455 10.8114 7.17257 10.0543 7.48413C9.29722 7.79569 8.61394 8.25407 8.04641 8.83102C10.9064 10.5715 14.2285 11.4653 17.605 11.4026H18.3489C18.0028 10.1324 17.2299 9.00997 16.1525 8.21274C15.075 7.41551 13.7541 6.98889 12.3985 6.99997L12.4488 7.01947ZM17.605 14.4512C14.229 14.3929 10.9083 15.2864 8.04641 17.0227C8.61308 17.6014 9.29602 18.0616 10.0532 18.3749C10.8103 18.6881 11.6256 18.8477 12.4488 18.844C13.7915 18.8444 15.0968 18.4163 16.1632 17.6258C17.2296 16.8353 17.9978 15.7265 18.3489 14.4707L17.605 14.4512ZM18.4192 11.6948C17.9167 11.6948 17.4141 11.7433 16.8914 11.7433C13.5879 11.778 10.3206 11.0749 7.34282 9.68829C7.17299 9.9524 7.01861 10.2254 6.88044 10.5063C10.2868 11.6566 13.878 12.2076 17.4844 12.1331C17.8262 12.1331 18.1679 12.1331 18.4895 12.1331C18.4393 11.948 18.3991 11.8214 18.3689 11.6753L18.4192 11.6948Z" fill="#E92127"/>
<path d="M93.5921 8.0811C93.5376 7.95972 93.4628 7.84799 93.3709 7.75009C93.2692 7.65464 93.1499 7.57866 93.0191 7.52608C92.8895 7.47048 92.7487 7.44377 92.6071 7.44808C92.4697 7.44524 92.3331 7.46847 92.205 7.51633C92.079 7.56694 91.9659 7.64334 91.8733 7.74034C91.7686 7.83594 91.6864 7.95205 91.6321 8.0811C91.5795 8.2047 91.5522 8.33717 91.5516 8.47086C91.5519 8.60142 91.5793 8.7305 91.6321 8.85062C91.6847 8.97531 91.7634 9.08817 91.8632 9.18188C91.9609 9.27998 92.0769 9.35929 92.205 9.41563C92.3325 9.46659 92.4691 9.49313 92.6071 9.49363C92.7449 9.49217 92.8812 9.46567 93.0091 9.41563C93.1356 9.36512 93.2514 9.29251 93.3508 9.20138C93.4519 9.10483 93.5306 8.98855 93.582 8.86037C93.6361 8.73723 93.6635 8.6047 93.6624 8.47086C93.6603 8.3382 93.6366 8.20656 93.5921 8.0811ZM93.4413 8.1396C93.3951 8.03539 93.3304 7.93976 93.2503 7.8571C93.1643 7.77552 93.0616 7.71252 92.9488 7.67209C92.8429 7.62006 92.7258 7.59327 92.6071 7.59409C92.4899 7.59734 92.3742 7.62048 92.2653 7.66234C92.1633 7.71148 92.0686 7.77368 91.9838 7.84735C91.8991 7.93214 91.831 8.0312 91.7829 8.1396C91.7362 8.24457 91.709 8.35675 91.7024 8.47086C91.709 8.58496 91.7362 8.69691 91.7829 8.80187C91.8214 8.90712 91.8871 9.00105 91.9738 9.07463C92.0575 9.15925 92.1562 9.2285 92.2653 9.27914C92.3717 9.31657 92.4838 9.33639 92.597 9.33763C92.7169 9.33865 92.836 9.3188 92.9488 9.27914C93.059 9.2349 93.1584 9.16855 93.2402 9.08438C93.3269 9.00868 93.3955 8.91559 93.4413 8.81162C93.4857 8.70642 93.5096 8.59427 93.5116 8.48061C93.5127 8.36348 93.4888 8.2473 93.4413 8.1396ZM93.0694 8.39286C93.0948 8.36519 93.1142 8.33291 93.1263 8.29774C93.1384 8.26257 93.143 8.22529 93.1397 8.18835C93.1428 8.14027 93.131 8.09228 93.106 8.05066C93.081 8.00905 93.0437 7.9757 92.999 7.95459C92.8865 7.89168 92.7564 7.86436 92.6271 7.8766H92.1748V9.02588H92.4361V8.53887H92.6171L92.8483 9.02588H93.1397L92.8683 8.50011C92.9456 8.48647 93.0161 8.44876 93.0694 8.39286ZM92.808 8.0811C92.736 8.05938 92.6589 8.05938 92.5869 8.0811H92.4361V8.44161H92.597C92.6659 8.46136 92.7392 8.46136 92.808 8.44161C92.8308 8.42662 92.8493 8.40627 92.8616 8.38239C92.8739 8.35852 92.8797 8.33178 92.8784 8.30511C92.8904 8.28627 92.8982 8.26526 92.9012 8.24328C92.9041 8.22131 92.9022 8.19909 92.8956 8.17789C92.8889 8.15669 92.8777 8.13699 92.8626 8.12034C92.8475 8.10368 92.8289 8.09025 92.808 8.0811Z" fill="#24497B"/>
<path fill-rule="evenodd" clip-rule="evenodd" d="M64.6044 7.43828C63.3198 7.49335 62.0693 7.85582 60.9644 8.49316C59.8595 9.1305 58.9346 10.0229 58.2722 11.0909C58.0629 11.3967 57.8876 11.7232 57.7495 12.0649C57.6441 12.3162 57.5535 12.5732 57.4782 12.8344C56.6841 15.8734 58.6039 18.3181 61.7499 18.3181C63.3751 18.2491 64.9371 17.6888 66.2169 16.7158C67.4968 15.7428 68.4302 14.4061 68.8862 12.8929C68.8819 12.8737 68.8819 12.8537 68.8862 12.8344C68.9189 12.7222 68.9457 12.6083 68.9667 12.4934C69.1173 11.871 69.1164 11.2233 68.964 10.6012C68.8117 9.97925 68.5121 9.4002 68.0889 8.90978C67.6657 8.41937 67.1305 8.0311 66.5258 7.77572C65.921 7.52033 65.2632 7.40477 64.6044 7.43828ZM66.2026 12.9317C65.9215 13.744 65.3961 14.4563 64.694 14.977C63.9919 15.4977 63.1451 15.803 62.2625 15.8538C61.8951 15.8694 61.5295 15.7956 61.1991 15.639C60.8687 15.4825 60.584 15.2483 60.3711 14.9577C60.1581 14.6671 60.0237 14.3295 59.9802 13.9756C59.9366 13.6217 59.9852 13.2627 60.1216 12.9317C60.4046 12.1186 60.9318 11.4061 61.6356 10.8854C62.3395 10.3648 63.1878 10.0597 64.0717 10.0096C64.4383 9.99565 64.8027 10.0709 65.1318 10.2281C65.4608 10.3854 65.7441 10.6198 65.9558 10.9102C66.1675 11.2005 66.301 11.5375 66.3441 11.8906C66.3872 12.2437 66.3386 12.6015 66.2026 12.9317Z" fill="#24497B"/>
<path fill-rule="evenodd" clip-rule="evenodd" d="M87.1895 7.43835C85.5536 7.51372 83.9833 8.0842 82.6995 9.06966C81.4158 10.0551 80.4832 11.4058 80.033 12.9318C79.7574 13.8941 79.7996 14.9159 80.1537 15.8538C80.165 15.9025 80.1854 15.9488 80.214 15.9903C80.5696 16.7437 81.1509 17.3759 81.8822 17.805C82.6136 18.234 83.4612 18.44 84.3149 18.3961C85.9494 18.3252 87.5194 17.7572 88.8022 16.7729C90.0849 15.7886 91.0153 14.4381 91.4612 12.9125C92.2553 9.87353 90.3355 7.43835 87.1895 7.43835ZM88.7876 12.9318C88.5065 13.7441 87.9811 14.4564 87.279 14.9771C86.5769 15.4978 85.7301 15.8031 84.8475 15.8538C84.4801 15.8695 84.1145 15.7956 83.7841 15.6391C83.4537 15.4826 83.169 15.2484 82.9561 14.9578C82.7432 14.6672 82.6088 14.3296 82.5652 13.9757C82.5217 13.6218 82.5702 13.2628 82.7066 12.9318C82.9854 12.118 83.5101 11.4044 84.2127 10.8834C84.9153 10.3623 85.7633 10.0578 86.6467 10.0097C87.0141 9.99403 87.3798 10.0679 87.7102 10.2244C88.0406 10.381 88.3252 10.6153 88.5382 10.9059C88.7511 11.1966 88.8855 11.5342 88.9291 11.8881C88.9726 12.242 88.924 12.6008 88.7876 12.9318Z" fill="#24497B"/>
<path fill-rule="evenodd" clip-rule="evenodd" d="M26.0783 18.4254C27.7129 18.3495 29.2816 17.7784 30.5637 16.7929C31.8457 15.8074 32.7764 14.4569 33.2247 12.9318C34.0187 9.90254 32.099 7.43835 28.9529 7.43835C27.3171 7.51372 25.7467 8.0842 24.463 9.06966C23.1792 10.0551 22.2466 11.4058 21.7965 12.9318C21.7567 13.0725 21.7265 13.2159 21.706 13.3605L19.2837 21.9902L22.4598 20.3637L24.4701 12.9318C24.7488 12.118 25.2736 11.4044 25.9762 10.8834C26.6788 10.3623 27.5268 10.0578 28.4101 10.0097C28.7776 9.99316 29.1434 10.0667 29.4739 10.2232C29.8044 10.3798 30.0889 10.6144 30.3012 10.9055C30.5134 11.1966 30.6467 11.5349 30.6886 11.889C30.7306 12.2431 30.6798 12.6016 30.541 12.9318C30.3023 13.5883 29.9148 14.1848 29.4068 14.677C28.8989 15.1692 28.2835 15.5448 27.606 15.7761C26.6612 16.0683 25.043 15.9319 24.5907 15.0066L23.5856 17.7729C24.3378 18.2105 25.201 18.4364 26.0783 18.4254Z" fill="#24497B"/>
<path fill-rule="evenodd" clip-rule="evenodd" d="M43.6778 18.4253C45.3123 18.3494 46.8811 17.7784 48.1632 16.7928C49.4452 15.8073 50.376 14.4569 50.8242 12.9317C51.6082 9.95117 49.8191 7.5454 46.8037 7.39929H42.7833L42.1299 9.87336H46.0298C46.3993 9.87213 46.7633 9.95975 47.0891 10.1285C47.415 10.2973 47.6925 10.5419 47.8968 10.8402C48.101 11.1386 48.2256 11.4815 48.2594 11.8381C48.2932 12.1946 48.2351 12.5538 48.0903 12.8832C47.8588 13.5874 47.4486 14.2239 46.8971 14.7344C46.3457 15.245 45.6707 15.6133 44.9342 15.8053C44.4216 15.8637 43.7381 15.8053 43.1451 15.8053L43.5974 14.1202L44.2809 11.5682H41.6675L40.2102 17.0325L39.8483 18.3961L43.6778 18.4253Z" fill="#24497B"/>
<path fill-rule="evenodd" clip-rule="evenodd" d="M79.5305 18.3766L80.244 15.8733C77.4599 16.0973 76.7261 14.7045 77.2287 12.8052L78.7666 7.39929H76.113L74.5752 12.8052C74.3407 13.5082 74.2967 14.2578 74.4477 14.982C74.5986 15.7062 74.9394 16.3806 75.4372 16.9403C75.9349 17.4999 76.573 17.926 77.2899 18.1775C78.0067 18.4291 78.7783 18.4977 79.5305 18.3766Z" fill="#24497B"/>
<path fill-rule="evenodd" clip-rule="evenodd" d="M73.8916 18.3766L74.6053 15.8733C71.8111 16.0973 71.0773 14.7045 71.5899 12.8052L73.1278 7.39929H70.4039L68.866 12.8052C68.6269 13.5145 68.5821 14.2718 68.736 15.0029C68.89 15.734 69.2373 16.4139 69.7441 16.9757C70.2509 17.5375 70.8996 17.9619 71.6267 18.2075C72.3538 18.4531 73.1343 18.5114 73.8916 18.3766Z" fill="#24497B"/>
<path fill-rule="evenodd" clip-rule="evenodd" d="M52.2515 7.39926L51.5681 9.98057H55.1061C55.5484 9.98057 55.8599 10.2531 55.6589 10.7986C55.5764 11.0431 55.4142 11.2551 55.1967 11.4026C54.9792 11.5502 54.7181 11.6254 54.4528 11.6169H51.1359L49.3367 18.3863H51.95L53.0657 14.1882H53.6285L54.9352 18.3766H57.6792L56.1715 13.5064C56.8206 13.1703 57.3701 12.6788 57.7677 12.0787C58.1653 11.4785 58.3978 10.7897 58.443 10.0778C58.443 8.33433 57.247 7.37976 55.1061 7.37976L52.2515 7.39926Z" fill="#24497B"/>
<path fill-rule="evenodd" clip-rule="evenodd" d="M40.2504 14.198H35.9183C35.9582 14.5711 36.1142 14.9236 36.3654 15.2089C36.6167 15.4942 36.9516 15.6989 37.3255 15.7956C37.6673 15.8443 38.9237 15.7956 39.8182 15.7956L39.1247 18.3864H37.6471C36.9446 18.4182 36.2445 18.2858 35.6059 18.0002C34.9673 17.7146 34.4091 17.2841 33.9784 16.7453C33.5476 16.2066 33.257 15.5753 33.131 14.9048C33.0051 14.2342 33.0475 13.5443 33.2548 12.893C33.6599 11.4077 34.5278 10.0794 35.7401 9.08939C36.9523 8.09937 38.4501 7.49561 40.0293 7.36035H42.0395L41.3862 9.82467H39.9689C39.3172 9.87036 38.6821 10.0454 38.1029 10.3386C37.5238 10.6317 37.0128 11.0369 36.6018 11.5292H40.9339L40.2504 14.198Z" fill="#24497B"/>
</g>
<defs>
<clipPath id="clip0_150_44">
<rect width="88" height="15" fill="white" transform="translate(6 7)"/>
</clipPath>
</defs>
</svg>
