<svg width="100" height="30" viewBox="0 0 100 30" fill="none" xmlns="http://www.w3.org/2000/svg">
<path d="M61.0526 2.27258C60.2841 0.732578 58.3475 1.00978 58.3475 1.00978C56.626 1.00978 55.8805 3.05029 55.8805 3.05029L55.7114 3.22739H52.4606V1.11758H34.7845V19.3743H52.3683V14.9083H52.9063V13.8919C54.3511 14.3154 54.5663 14.8082 54.5663 14.8082C57.064 19.9826 61.4216 19.5591 61.4216 19.5591V3.7972C61.399 3.2584 61.2544 2.73179 60.9989 2.25719M48.103 1.83369C48.3312 1.82747 48.5583 1.8674 48.7708 1.9511C48.9832 2.0348 49.1766 2.16054 49.3395 2.32083C49.5023 2.48111 49.6313 2.67263 49.7186 2.88396C49.8059 3.09529 49.8497 3.32208 49.8476 3.55079V4.71349C49.8573 4.93688 49.8207 5.15987 49.7401 5.36836C49.6594 5.57685 49.5364 5.76633 49.379 5.92481C49.2215 6.08328 49.033 6.20731 48.8253 6.28907C48.6175 6.37083 48.3951 6.40853 48.1721 6.3998C47.9497 6.40507 47.7285 6.36505 47.5219 6.28217C47.3153 6.1993 47.1277 6.07528 46.9704 5.91763C46.813 5.75998 46.6892 5.57198 46.6065 5.365C46.5238 5.15803 46.4838 4.93638 46.4891 4.71349V3.55079C46.4891 3.3297 46.5327 3.1108 46.6174 2.90663C46.702 2.70247 46.8262 2.51708 46.9826 2.3611C47.139 2.20513 47.3245 2.08165 47.5287 1.99774C47.7328 1.91384 47.9515 1.87118 48.1721 1.87219M44.6063 1.81059L45.2364 3.55079L45.905 1.82598H46.6121L45.6053 4.4209V6.3151H44.9059V4.444L43.8992 1.82598L44.6063 1.81059ZM42.9923 1.81059H43.7147V6.2612H42.9923V1.81059ZM41.4552 1.91839L42.8771 6.2689H42.1623L41.9933 5.7453H40.1795L40.0027 6.2689H39.3034L40.7406 1.91839H41.4552ZM36.9901 1.81059H40.1719V2.51899H38.9192V6.2612H38.2121V2.51899H36.9901V1.81059ZM35.4531 18.7891V1.71048L43.5534 18.7737L35.4531 18.7891ZM51.8842 18.7891H43.6686L51.8842 1.78749V18.7891ZM52.4989 13.4607V11.2431C53.4212 12.1748 52.4989 13.453 52.4989 13.4607ZM54.2743 13.7456C53.9685 13.5404 53.6379 13.3748 53.2905 13.2528C54.0591 11.1045 52.522 10.5886 52.522 10.5886V4.62109H55.696C55.9804 4.62109 55.942 4.8675 55.942 4.8675V6.55379C55.1593 7.559 54.6057 8.72376 54.3202 9.96622C54.0348 11.2087 54.0243 12.4987 54.2897 13.7456M60.9374 18.6428C60.9374 18.6428 57.21 15.7553 57.21 11.3201C57.21 11.3201 57.2792 7.72421 59.1083 6.2381C59.35 6.01029 59.6586 5.86693 59.9883 5.82946C60.318 5.79199 60.651 5.86241 60.9374 6.0302V18.6428ZM60.9374 5.3603C60.2572 5.21008 59.5457 5.30839 58.9315 5.6375C56.6259 7.57021 56.6259 11.2816 56.6259 11.2816C56.6259 16.0017 60.3226 18.8892 60.3226 18.8892C59.0823 18.6099 57.9378 18.0069 57.0052 17.1415C56.0726 16.276 55.3849 15.1788 55.012 13.9612C53.6748 9.34121 56.5491 6.8079 56.5491 6.8079V4.9522C56.5642 4.83536 56.5523 4.71661 56.5144 4.60509C56.4764 4.49357 56.4135 4.39227 56.3304 4.30896C56.2473 4.22566 56.1461 4.16258 56.0348 4.12458C55.9235 4.08658 55.805 4.07468 55.6883 4.08979H52.5451V3.81259H55.7959C56.5645 3.81259 56.7412 2.85779 56.7412 2.85779C56.8897 2.45242 57.1695 2.10857 57.5358 1.88108C57.9022 1.6536 58.334 1.55559 58.7624 1.60268C59.336 1.60672 59.8849 1.83678 60.2905 2.24313C60.696 2.64947 60.9257 3.19944 60.9297 3.77409L60.9374 5.3603ZM58.3551 3.28128C58.3551 3.40497 58.3184 3.52585 58.2496 3.62858C58.1809 3.73131 58.0832 3.81124 57.9691 3.85821C57.8549 3.90518 57.7293 3.91709 57.6083 3.89239C57.4874 3.86769 57.3765 3.80752 57.2897 3.71952C57.203 3.63152 57.1443 3.51967 57.1212 3.39818C57.098 3.27669 57.1114 3.15105 57.1597 3.03723C57.208 2.9234 57.289 2.82653 57.3924 2.75893C57.4958 2.69134 57.6169 2.65606 57.7403 2.65758C57.9035 2.66156 58.0587 2.72879 58.1734 2.84512C58.288 2.96144 58.3532 3.1178 58.3551 3.28128ZM41.8242 5.0446H40.4716L41.1479 2.99639L41.8242 5.0446ZM47.2884 4.70579V3.55079C47.2852 3.42353 47.3079 3.29695 47.355 3.17874C47.4022 3.06053 47.4729 2.95315 47.5627 2.86314C47.6526 2.77312 47.7597 2.70234 47.8777 2.65509C47.9956 2.60785 48.122 2.58512 48.2491 2.58829C48.4834 2.61348 48.6994 2.72687 48.8535 2.90554C49.0076 3.08421 49.0882 3.31484 49.079 3.55079V4.71349C49.079 4.71349 48.9945 5.67599 48.1261 5.67599C47.9985 5.68144 47.8711 5.66028 47.7521 5.61384C47.6331 5.5674 47.525 5.49669 47.4347 5.40621C47.3443 5.31572 47.2738 5.20742 47.2274 5.08817C47.1811 4.96893 47.16 4.84134 47.1654 4.71349M44.6677 24.7798C44.6677 24.7798 44.7138 26.4199 45.9127 26.4199C46.1477 26.408 46.3745 26.3293 46.5664 26.1929C46.7583 26.0565 46.9075 25.8682 46.9964 25.6499H48.8715C48.8715 25.6499 48.3412 28.1601 45.8896 28.1601C45.4673 28.1453 45.0522 28.0465 44.6683 27.8696C44.2844 27.6927 43.9394 27.4411 43.6534 27.1295C43.3674 26.8178 43.1461 26.4523 43.0022 26.0543C42.8584 25.6562 42.7949 25.2334 42.8155 24.8106C42.8155 24.8106 42.8155 21.5996 45.8896 21.4533C45.8896 21.4533 48.0492 21.2762 48.8715 23.9713H46.981C46.9026 23.749 46.7582 23.5562 46.5673 23.4185C46.3763 23.2809 46.1479 23.2051 45.9127 23.2013C45.9127 23.2013 44.6677 23.2474 44.6677 24.8414M53.4673 21.5304H55.2964V25.3111C55.2964 25.3111 55.2964 28.2679 52.4144 28.2679C52.0273 28.2767 51.6425 28.2057 51.2839 28.0595C50.9252 27.9132 50.6004 27.6947 50.3295 27.4174C50.0586 27.1402 49.8473 26.8103 49.7089 26.4479C49.5705 26.0856 49.5078 25.6986 49.5247 25.3111V21.5304H51.3846V25.3111C51.3826 25.5956 51.4929 25.8695 51.6916 26.0729C51.8903 26.2763 52.1612 26.3927 52.4452 26.3968C52.5867 26.399 52.7272 26.3722 52.858 26.3181C52.9888 26.2639 53.1071 26.1835 53.2057 26.0818C53.3044 25.9801 53.3811 25.8592 53.4314 25.7267C53.4816 25.5942 53.5044 25.4527 53.4981 25.3111L53.4673 21.5304ZM61.4984 26.0272C61.4984 26.0272 61.4522 28.1293 58.6394 28.1293C58.6394 28.1293 55.7806 28.1293 55.7806 26.0272H57.579C57.579 26.0272 57.5789 26.6201 58.6394 26.6201C58.6394 26.6201 59.6924 26.6201 59.6924 26.0272C59.6924 26.0272 59.7461 25.6576 59.0468 25.4728L57.5559 25.057C57.5559 25.057 56.0188 24.5642 56.0188 23.3322C56.0188 23.3322 56.0188 21.4457 58.6625 21.4457C58.6625 21.4457 61.3063 21.4456 61.3063 23.3322H59.5156C59.5156 23.3322 59.5156 22.8625 58.6625 22.8625C58.6625 22.8625 57.8095 22.9087 57.8095 23.3322C57.8095 23.3322 57.7327 23.6247 58.3475 23.771L59.4772 24.0021C59.4772 24.0021 61.5214 24.3717 61.5214 26.0272M37.897 21.5073H34.8229V28.1293H36.6443V26.1119H37.874C38.4854 26.1119 39.0718 25.8685 39.5042 25.4353C39.9366 25.0021 40.1795 24.4145 40.1795 23.8019C40.1795 23.1892 39.9366 22.6016 39.5042 22.1684C39.0718 21.7352 38.4854 21.4918 37.874 21.4918M37.874 24.3409H36.6443V23.2475H37.874C37.9471 23.2401 38.021 23.2492 38.0901 23.2742C38.1593 23.2991 38.2219 23.3393 38.2735 23.3918C38.3251 23.4442 38.3643 23.5076 38.3883 23.5772C38.4122 23.6469 38.4203 23.721 38.4119 23.7941C38.4151 23.8661 38.4035 23.938 38.3777 24.0053C38.3519 24.0726 38.3125 24.1338 38.262 24.1851C38.2115 24.2364 38.151 24.2767 38.0842 24.3035C38.0174 24.3303 37.9459 24.343 37.874 24.3409ZM40.4485 21.5611H42.3007V28.0138H40.4485V21.5611ZM62.4052 26.2505C62.224 26.2505 62.0469 26.3044 61.8964 26.4054C61.7458 26.5065 61.6286 26.65 61.5596 26.8179C61.4906 26.9858 61.473 27.1704 61.5089 27.3484C61.5449 27.5263 61.6327 27.6896 61.7614 27.8174C61.8901 27.9453 62.0537 28.0319 62.2316 28.0664C62.4095 28.1009 62.5936 28.0816 62.7606 28.0111C62.9276 27.9406 63.0699 27.8219 63.1694 27.6702C63.269 27.5185 63.3214 27.3406 63.3198 27.1591C63.3198 27.0391 63.2961 26.9203 63.25 26.8096C63.204 26.6988 63.1366 26.5983 63.0515 26.5138C62.9665 26.4294 62.8656 26.3626 62.7547 26.3174C62.6438 26.2722 62.525 26.2494 62.4052 26.2505ZM62.9433 27.6365H62.9125C62.8506 27.7029 62.7756 27.7557 62.6922 27.7915C62.6089 27.8273 62.519 27.8453 62.4283 27.8444C62.2662 27.8493 62.1073 27.7982 61.9783 27.6997C61.8493 27.6011 61.7581 27.4612 61.7198 27.3032C61.6816 27.1453 61.6987 26.979 61.7683 26.8322C61.838 26.6854 61.9559 26.5671 62.1022 26.4971C62.2486 26.427 62.4145 26.4095 62.5722 26.4475C62.7299 26.4855 62.8698 26.5767 62.9684 26.7057C63.067 26.8348 63.1183 26.9939 63.1137 27.1563C63.1091 27.3188 63.049 27.4747 62.9433 27.598V27.6365ZM62.6973 27.2746C62.6705 27.2364 62.633 27.2069 62.5897 27.1899C62.6665 27.1828 62.7378 27.1471 62.7895 27.0898C62.8131 27.0654 62.8314 27.0364 62.8434 27.0046C62.8553 26.9728 62.8605 26.9389 62.8587 26.905C62.861 26.8475 62.8448 26.7909 62.8126 26.7433C62.7882 26.6964 62.747 26.6607 62.6973 26.6432C62.6183 26.632 62.5381 26.632 62.4591 26.6432H62.021V27.6673H62.2285V27.2438H62.3746C62.3995 27.2522 62.421 27.2684 62.436 27.29C62.4775 27.3343 62.5136 27.3834 62.5436 27.4363L62.6973 27.6596H62.8894C62.8894 27.6596 62.8894 27.6596 62.8894 27.6211L62.7895 27.4594C62.7546 27.4011 62.7134 27.3469 62.6666 27.2977M62.3515 27.0667H62.1977V26.8049H62.5128C62.5356 26.7993 62.5593 26.7993 62.582 26.8049C62.5927 26.8321 62.5927 26.8623 62.582 26.8896C62.5872 26.915 62.5872 26.9412 62.582 26.9666C62.5669 26.9882 62.5454 27.0043 62.5205 27.0128H62.3361" fill="#231F20"/>
</svg>
