<svg width="100" height="30" viewBox="0 0 100 30" fill="none" xmlns="http://www.w3.org/2000/svg">
<g clip-path="url(#clip0_150_29)">
<path d="M9.15082 3.02783H9.5622H15.3318L18.6514 3.07427C18.9085 3.08016 19.1647 3.10481 19.4181 3.14834C19.6438 3.18974 19.8588 3.27607 20.05 3.40203C20.2413 3.52799 20.4048 3.69102 20.5309 3.88133C20.9701 4.44239 21.2538 5.10775 21.3538 5.81121C21.4067 6.25147 21.4316 6.69453 21.4286 7.13789C21.4286 9.21615 21.4286 11.2944 21.4286 13.3726C21.4286 14.8107 21.4286 16.2582 21.4286 17.7056V18.0302H21.2696H12.0215C11.7391 18.0277 11.4603 17.9671 11.2027 17.8521C10.9452 17.7371 10.7145 17.5703 10.5254 17.3622C9.89306 16.7091 9.46729 15.8866 9.30046 14.9963C9.30046 14.8386 9.24428 14.6715 9.21622 14.5138C9.20195 14.4386 9.18327 14.3642 9.16018 14.2911V13.2336C9.16457 13.1873 9.16457 13.1408 9.16018 13.0945C9.16018 12.7234 9.16018 12.3521 9.16018 11.9902C9.16018 10.4223 9.16018 8.85446 9.16018 7.28649C9.16479 7.25573 9.16479 7.22437 9.16018 7.19362V7.0824L9.15082 3.02783ZM9.68377 3.50102V3.71439C9.68377 4.23395 9.68377 4.75346 9.68377 5.27302V12.046C9.68377 12.6397 9.68377 13.2242 9.68377 13.818C9.64866 14.9502 10.0462 16.0539 10.7966 16.9076C10.9577 17.107 11.163 17.2668 11.3965 17.3747C11.6301 17.4825 11.8855 17.5353 12.1431 17.5291C13.1436 17.5291 14.1349 17.5291 15.1261 17.5291H20.9329V17.3529C20.9329 16.5921 20.9329 15.8221 20.9329 15.0613V7.14718C20.9394 6.67847 20.9081 6.20998 20.8395 5.7462C20.7253 5.09466 20.4307 4.4876 19.9885 3.99277C19.8443 3.82949 19.6562 3.71029 19.4462 3.64938C19.2412 3.58228 19.026 3.55103 18.8103 3.55674C18.0622 3.55674 17.3141 3.55674 16.566 3.55674H9.68377V3.50102Z" fill="#010101"/>
<path d="M61.198 18.9025V6.30303H65.1441C65.5741 6.30138 66.0032 6.34168 66.4252 6.42353C66.7564 6.49208 67.0675 6.63475 67.3349 6.84054C67.6023 7.04633 67.8188 7.30983 67.9681 7.61113C68.1789 8.03863 68.3088 8.50089 68.3514 8.97496C68.4233 9.53138 68.4012 10.0958 68.286 10.645C68.1679 11.2311 67.8591 11.7625 67.407 12.1575C67.6866 12.331 67.9271 12.5598 68.1137 12.8295C68.3003 13.0993 68.429 13.4042 68.4917 13.7254C68.6264 14.3343 68.6674 14.9599 68.6132 15.581C68.5907 16.0326 68.5058 16.479 68.3607 16.9076C68.183 17.4294 67.8586 17.8897 67.4257 18.2343C67.014 18.566 66.506 18.7579 65.9763 18.7818C65.621 18.7818 65.2656 18.7818 64.9009 18.7818H61.1606L61.198 18.9025ZM63.7975 15.9613H64.9757H65.3498C65.5368 15.9523 65.7149 15.8787 65.8532 15.7533C65.9914 15.628 66.0813 15.4588 66.1073 15.2747C66.1794 14.9696 66.1794 14.652 66.1073 14.3469C66.0802 14.2008 66.0096 14.0661 65.9045 13.9603C65.7995 13.8544 65.6649 13.7824 65.5181 13.7532C65.3864 13.7211 65.2516 13.7024 65.116 13.6975H63.9378H63.8069L63.7975 15.9613ZM63.7975 11.3223H65.0412C65.1591 11.311 65.2752 11.2862 65.3872 11.2482C65.4814 11.2241 65.5677 11.1764 65.6381 11.1098C65.7085 11.0433 65.7605 10.9599 65.7892 10.8677C65.9356 10.4628 65.9356 10.0202 65.7892 9.61531C65.7601 9.53254 65.7121 9.45746 65.6488 9.39628C65.5856 9.33509 65.5087 9.28936 65.4245 9.26263H65.2188C64.7575 9.19764 64.2907 9.17894 63.8256 9.20691L63.7975 11.3223Z" fill="#010101"/>
<path d="M44.7497 14.5788V18.8932H42.1128V6.30295H46.2552C46.7657 6.29814 47.2739 6.37328 47.7608 6.52561C48.1138 6.63342 48.4355 6.82366 48.6991 7.08034C48.9627 7.33702 49.1604 7.65274 49.2756 8.00089C49.4527 8.52457 49.5473 9.07222 49.5561 9.62452C49.5888 10.2294 49.5322 10.8358 49.3878 11.4244C49.2307 12.0582 48.849 12.6147 48.3125 12.9923L48.2563 13.048H48.3312C48.5497 13.1423 48.7459 13.2809 48.9069 13.4551C49.068 13.6293 49.1904 13.8351 49.2663 14.0592C49.4041 14.4443 49.4829 14.8478 49.5 15.2561C49.5 15.9797 49.5 16.7035 49.5748 17.4272C49.5748 17.6591 49.5749 17.8818 49.631 18.1045C49.6326 18.1582 49.646 18.2109 49.6702 18.2589C49.6944 18.307 49.7288 18.3493 49.7711 18.3828C49.7821 18.4096 49.7821 18.4394 49.7711 18.4662V18.8374C49.6402 18.8374 47.2839 18.8838 47.0595 18.8374C47.0108 18.5673 46.9764 18.2946 46.9565 18.0209C46.9565 17.4178 46.9565 16.8055 46.9565 16.1653C46.9602 15.8525 46.9225 15.5405 46.8443 15.2375C46.814 15.0669 46.7328 14.9095 46.6111 14.7854C46.4894 14.6613 46.3327 14.5763 46.1617 14.5416C46.0809 14.5327 45.9994 14.5327 45.9186 14.5416H44.7591L44.7497 14.5788ZM44.7497 9.38329V11.7121H44.89C45.2173 11.7121 45.5446 11.7121 45.8251 11.7121C45.9714 11.7213 46.1182 11.7213 46.2645 11.7121C46.439 11.7072 46.6062 11.6409 46.7363 11.5254C46.8664 11.4099 46.951 11.2525 46.9752 11.081C47.0641 10.7151 47.0641 10.3336 46.9752 9.96769C46.9456 9.83713 46.8787 9.71787 46.7825 9.62407C46.6864 9.53027 46.565 9.46586 46.4329 9.43878C46.3675 9.43438 46.302 9.43438 46.2366 9.43878H44.7591L44.7497 9.38329Z" fill="#010101"/>
<path d="M83.9582 14.7181H82.7706V12.0366C82.8828 12.0366 86.193 11.9902 86.4081 12.0366V18.9024H84.6876L84.5566 17.8632L84.4351 18.0394C84.0482 18.6234 83.4482 19.0358 82.7612 19.1899C82.1849 19.3435 81.5755 19.3231 81.0109 19.1314C80.4463 18.9397 79.952 18.5855 79.5913 18.1137C79.1618 17.5608 78.8443 16.9307 78.6562 16.2581C78.4361 15.5393 78.2951 14.7988 78.2354 14.0499C78.1793 13.2684 78.1793 12.4842 78.2354 11.7027C78.2836 10.6566 78.5046 9.62529 78.8899 8.65027C79.1309 8.04581 79.4936 7.49649 79.956 7.03592C80.5746 6.43014 81.3974 6.0731 82.2656 6.03383C82.7415 5.99477 83.2205 6.04505 83.6776 6.1822C84.3436 6.40126 84.9207 6.82752 85.3234 7.39766C85.7395 7.98298 86.0322 8.64579 86.1837 9.34612C86.2856 9.77952 86.3543 10.2198 86.3894 10.6635C86.2585 10.6635 84.3229 10.7192 83.8553 10.6635C83.8553 10.6635 83.8553 10.5894 83.8553 10.5523C83.7954 10.2689 83.6912 9.9965 83.5467 9.745C83.4727 9.6036 83.3696 9.47922 83.244 9.38009C83.1183 9.28097 82.9729 9.20945 82.8174 9.16989C82.6344 9.11988 82.4413 9.11837 82.2575 9.16559C82.0737 9.2128 81.9057 9.3069 81.7701 9.43876C81.5892 9.61038 81.4487 9.8196 81.3586 10.0512C81.2002 10.4308 81.0964 10.8306 81.0501 11.2389C80.9349 12.0907 80.9129 12.9524 80.9845 13.8089C81.0099 14.2404 81.0884 14.6672 81.2183 15.0798C81.2927 15.2861 81.3866 15.4848 81.4989 15.6735C81.5962 15.8214 81.7232 15.948 81.8718 16.0452C82.0204 16.1424 82.1876 16.2082 82.363 16.2387C82.5383 16.2691 82.7181 16.2634 82.8911 16.2221C83.0642 16.1808 83.2269 16.1046 83.3691 15.9983C83.7273 15.6649 83.9389 15.2051 83.9582 14.7181Z" fill="#010101"/>
<path d="M40.8784 12.4913C40.8986 13.5701 40.7729 14.6466 40.5045 15.6921C40.2931 16.5057 39.9141 17.2671 39.3916 17.9283C38.8434 18.6356 38.0378 19.1017 37.1474 19.2271C36.5258 19.3391 35.8854 19.2847 35.2921 19.0694C34.6987 18.8542 34.1739 18.4858 33.7717 18.0023C33.2366 17.3579 32.8446 16.6087 32.6216 15.8036C32.41 15.0432 32.2814 14.2625 32.2382 13.4748C32.2054 12.8815 32.2054 12.2869 32.2382 11.6935C32.284 10.657 32.5021 9.63501 32.8834 8.66891C33.1097 8.11467 33.4256 7.6006 33.8185 7.1472C34.148 6.77632 34.554 6.47999 35.009 6.2783C35.4639 6.07661 35.9572 5.97426 36.4554 5.97817C37.0229 5.95883 37.587 6.0734 38.1012 6.31228C38.6344 6.56536 39.0968 6.94444 39.4478 7.4163C39.9479 8.08703 40.3072 8.85046 40.5045 9.66149C40.6808 10.3418 40.7873 11.0381 40.8224 11.7397C40.8598 12.0366 40.8691 12.3057 40.8784 12.4913ZM38.1761 12.6306C38.1766 12.0341 38.1297 11.4383 38.0358 10.8491C37.9773 10.4566 37.8439 10.0788 37.643 9.73578C37.5261 9.55577 37.3655 9.4077 37.176 9.30518C36.9865 9.20267 36.7741 9.14889 36.5583 9.14889C36.3424 9.14889 36.1301 9.20267 35.9406 9.30518C35.7511 9.4077 35.5906 9.55577 35.4737 9.73578C35.3874 9.86053 35.3153 9.99425 35.2586 10.1347C35.1407 10.4326 35.0621 10.7445 35.0248 11.0625C34.93 11.7354 34.8955 12.4155 34.9219 13.0945C34.9312 13.5873 34.9876 14.078 35.0902 14.5603C35.1561 14.8883 35.2796 15.2024 35.4549 15.4881C35.598 15.7128 35.8085 15.8874 36.0567 15.9873C36.305 16.0871 36.5785 16.1072 36.8389 16.0448C37.008 16.0122 37.1681 15.9438 37.3085 15.8446C37.4488 15.7454 37.5661 15.6175 37.6524 15.4695C37.8265 15.1851 37.944 14.8701 37.9984 14.5417C38.1228 13.9122 38.1824 13.272 38.1761 12.6306Z" fill="#010101"/>
<path d="M26.7213 15.0891V18.9301H24.0562V6.34937H24.1871H27.7311C28.2392 6.34179 28.7458 6.40419 29.2366 6.53489C29.8266 6.6986 30.3418 7.05888 30.6954 7.55532C31.0306 8.02058 31.2602 8.55249 31.3686 9.11418C31.6216 10.3107 31.5929 11.5489 31.2845 12.7325C31.1558 13.2508 30.9095 13.7332 30.5645 14.1427C30.3455 14.4092 30.0743 14.6288 29.7673 14.7883C29.4603 14.9478 29.1239 15.0438 28.7784 15.0705C28.3389 15.0705 27.8994 15.0705 27.4599 15.0705L26.7213 15.0891ZM26.7213 11.9995H27.8527C27.9917 11.9915 28.1294 11.9699 28.2641 11.9347C28.4279 11.9102 28.5793 11.8334 28.6957 11.7163C28.812 11.5993 28.8869 11.448 28.9093 11.2851C28.9842 10.9395 28.9842 10.5823 28.9093 10.2368C28.9022 10.0381 28.8189 9.8496 28.6764 9.7099C28.5338 9.5702 28.3428 9.48981 28.1425 9.4852C27.9415 9.45245 27.7385 9.4338 27.5348 9.42948C27.2636 9.42948 26.9924 9.42948 26.7025 9.42948L26.7213 11.9995Z" fill="#010101"/>
<path d="M77.7304 18.9025H75.0654L74.7475 17.251H72.1012L71.7833 18.8932H69.1743C69.1743 18.7633 71.9796 6.56276 72.0918 6.31226H74.7942C75.773 10.4997 76.7517 14.6965 77.7304 18.9025ZM73.4665 10.3387L72.6436 14.5788H74.308L73.4665 10.3387Z" fill="#010101"/>
<path d="M57.7101 9.61526H55.4286V18.8932H52.7449V9.61526H50.3791C50.3791 9.4761 50.323 6.56276 50.3791 6.30298H57.7757L57.7101 9.61526Z" fill="#010101"/>
<path d="M66.8272 25.8331H65.7799V23.6713C65.4433 23.6713 65.1347 23.6713 64.8448 23.6713V25.8238H63.7881V20.2571H64.8448V22.1127H65.7799C65.7799 21.4818 65.7799 20.8509 65.7799 20.2571H66.8272V25.8331Z" fill="#010101"/>
<path d="M75.2524 20.2384H77.1226C77.2565 20.2552 77.3882 20.2862 77.5153 20.331C77.6354 20.3735 77.7455 20.4399 77.8387 20.5261C77.932 20.6122 78.0064 20.7163 78.0577 20.8321C78.1359 21.0187 78.1863 21.2157 78.2073 21.4167C78.2587 21.7488 78.2587 22.0865 78.2073 22.4186C78.1586 22.7271 78.0032 23.0093 77.7678 23.2166C77.877 23.2715 77.9712 23.3514 78.0428 23.4499C78.1144 23.5483 78.1611 23.6626 78.1792 23.7826C78.2102 23.9577 78.2322 24.134 78.2447 24.3113C78.2447 24.636 78.2447 24.9608 78.2447 25.2948C78.2428 25.4016 78.2685 25.5071 78.3195 25.6011C78.3293 25.6594 78.3293 25.7189 78.3195 25.7773C77.9619 25.8112 77.6018 25.8112 77.2441 25.7773C77.2029 25.5851 77.181 25.3892 77.1787 25.1927C77.1787 24.9329 77.1787 24.664 77.1787 24.3949C77.1742 24.3672 77.1742 24.339 77.1787 24.3113C77.1787 23.9773 77.0104 23.8567 76.6644 23.8567H76.2997V25.7866H75.2617L75.2524 20.2384ZM76.2997 22.6412H76.9262C76.99 22.6379 77.0507 22.6132 77.0983 22.571C77.1459 22.5289 77.1775 22.4717 77.1881 22.4093C77.2254 22.2318 77.2254 22.0488 77.1881 21.8713C77.1775 21.8089 77.1459 21.7518 77.0983 21.7096C77.0507 21.6674 76.99 21.6427 76.9262 21.6394C76.7205 21.6394 76.5147 21.6394 76.2997 21.6394V22.6412Z" fill="#010101"/>
<path d="M56.4665 23.0682C56.4709 23.6179 56.3921 24.1653 56.2327 24.6918C56.1466 24.9555 56.0171 25.203 55.8493 25.4246C55.7262 25.6006 55.562 25.7447 55.3707 25.8441C55.1793 25.9434 54.9666 25.9952 54.7506 25.9952C54.5346 25.9952 54.3219 25.9434 54.1306 25.8441C53.9392 25.7447 53.7749 25.6006 53.6518 25.4246C53.4174 25.1036 53.2548 24.7368 53.1749 24.3484C52.961 23.4089 52.9771 22.4321 53.2217 21.5C53.3102 21.158 53.4766 20.8406 53.708 20.5722C53.8778 20.3614 54.1088 20.2076 54.3697 20.1312C54.6306 20.0549 54.9087 20.0598 55.1667 20.1455C55.4588 20.2387 55.7097 20.4287 55.8773 20.6837C56.1271 21.0487 56.2931 21.4636 56.3636 21.8991C56.4354 22.2847 56.4698 22.6761 56.4665 23.0682ZM55.4004 23.0682C55.4004 22.7527 55.4005 22.4928 55.335 22.2423C55.3105 22.0759 55.2633 21.9136 55.1948 21.7598C55.1629 21.6704 55.1032 21.5933 55.0241 21.5399C54.945 21.4865 54.8509 21.4597 54.7553 21.4631C54.6574 21.4599 54.5609 21.4866 54.4789 21.5397C54.397 21.5928 54.3335 21.6697 54.2971 21.7598C54.2429 21.8819 54.2022 22.0096 54.1755 22.1404C54.0868 22.6718 54.0868 23.214 54.1755 23.7454C54.1999 23.932 54.2534 24.1134 54.3344 24.2834C54.3699 24.371 54.4325 24.4452 54.5132 24.4952C54.5939 24.5452 54.6885 24.5686 54.7834 24.5618C54.8751 24.559 54.9642 24.5305 55.0403 24.4796C55.1164 24.4287 55.1764 24.3575 55.2135 24.2741C55.2647 24.1711 55.3024 24.0621 55.3257 23.9495C55.3444 23.6619 55.3724 23.3465 55.4285 23.0867L55.4004 23.0682Z" fill="#010101"/>
<path d="M56.934 20.2291H58V23.6991C57.9926 23.8906 58.0178 24.0818 58.0748 24.2649C58.1005 24.3563 58.1576 24.4361 58.2361 24.4903C58.3146 24.5445 58.4097 24.5697 58.505 24.5619C58.5998 24.5733 58.6954 24.5493 58.7733 24.4944C58.8511 24.4394 58.9055 24.3575 58.9258 24.2649C58.9742 24.0769 58.9993 23.8838 59.0005 23.6898C59.0005 22.6135 59.0005 21.528 59.0005 20.4518V20.2477C59.3517 20.2099 59.706 20.2099 60.0572 20.2477C60.0572 20.2477 60.0572 20.3032 60.0572 20.3403V24.0053C60.0577 24.3935 59.9814 24.7781 59.8328 25.1372C59.7573 25.3405 59.6325 25.5221 59.4694 25.6661C59.3063 25.8101 59.1099 25.9121 58.8977 25.9628C58.5931 26.0564 58.2671 26.0564 57.9626 25.9628C57.7821 25.9053 57.6162 25.8102 57.4759 25.6838C57.3355 25.5573 57.2241 25.4025 57.1491 25.2298C57.0167 24.9366 56.9375 24.6226 56.9153 24.302C56.9153 24.1165 56.9153 23.9311 56.9153 23.7455V20.2849L56.934 20.2291Z" fill="#010101"/>
<path d="M49.7526 24.0981H50.7718C50.7718 24.1909 50.7717 24.2837 50.8465 24.3672C50.8663 24.4217 50.8969 24.4719 50.9364 24.5146C50.9759 24.5573 51.0237 24.5917 51.0768 24.6159C51.1299 24.6401 51.1873 24.6536 51.2457 24.6555C51.3041 24.6574 51.3623 24.6477 51.4169 24.627C51.4767 24.6035 51.5298 24.5659 51.5715 24.5173C51.6132 24.4688 51.6423 24.4109 51.6562 24.3486C51.67 24.2863 51.6682 24.2216 51.6509 24.1601C51.6337 24.0987 51.6015 24.0424 51.5572 23.9961C51.4609 23.8983 51.3467 23.8196 51.2206 23.7642C51.071 23.6807 50.9027 23.6158 50.7437 23.5415C50.4865 23.447 50.2618 23.2815 50.0961 23.0645C49.9305 22.8475 49.8307 22.5881 49.8086 22.3168C49.7479 21.918 49.7671 21.5113 49.8648 21.1199C49.9112 20.9801 49.9673 20.8437 50.033 20.7117C50.1423 20.5018 50.3114 20.3282 50.5192 20.2127C50.727 20.0973 50.9644 20.0451 51.2019 20.0623C51.4357 20.0576 51.6658 20.1197 51.8649 20.2415C52.0639 20.3633 52.2234 20.5395 52.3241 20.7489C52.4812 21.077 52.5671 21.434 52.5764 21.7972C52.2469 21.8308 51.9148 21.8308 51.5853 21.7972C51.5853 21.7229 51.5852 21.658 51.5198 21.5838C51.4896 21.4881 51.4226 21.408 51.3333 21.3611C51.244 21.3142 51.1397 21.3042 51.043 21.3333C51.0012 21.3424 50.9623 21.3615 50.9296 21.389C50.897 21.4165 50.8717 21.4515 50.8559 21.4909C50.817 21.5699 50.8042 21.6591 50.8193 21.7457C50.8344 21.8324 50.8766 21.912 50.94 21.9734C51.0364 22.0552 51.1434 22.1238 51.258 22.1775L51.791 22.4094C52.0127 22.5058 52.2056 22.6574 52.3513 22.8491C52.4971 23.0408 52.5907 23.2664 52.6232 23.5044C52.7171 24.0017 52.6882 24.5141 52.5391 24.998C52.4667 25.2321 52.3383 25.4455 52.1651 25.6198C52.0139 25.7599 51.8328 25.8643 51.6353 25.9253C51.4378 25.9864 51.2289 26.0024 51.0243 25.9722C50.8306 25.9513 50.6446 25.8848 50.482 25.7783C50.3193 25.6718 50.1847 25.5285 50.0892 25.36C49.8682 24.9756 49.7522 24.5406 49.7526 24.0981Z" fill="#010101"/>
<path d="M83.6216 22.3352H82.6023C82.5898 22.226 82.571 22.1175 82.5462 22.0104C82.5243 21.9063 82.4865 21.8061 82.434 21.7134C82.3965 21.6436 82.3406 21.5852 82.2722 21.5445C82.2039 21.5037 82.1256 21.4822 82.0459 21.4822C81.9661 21.4822 81.8879 21.5037 81.8195 21.5445C81.7512 21.5852 81.6953 21.6436 81.6579 21.7134C81.5457 21.893 81.4783 22.0967 81.4614 22.3074C81.3774 22.8267 81.3774 23.3559 81.4614 23.8753C81.4822 24.0505 81.543 24.2187 81.6392 24.367C81.6734 24.4261 81.7205 24.4769 81.7772 24.5154C81.8338 24.5539 81.8985 24.5793 81.9664 24.5897C82.0544 24.6061 82.1453 24.5943 82.226 24.5559C82.3067 24.5176 82.373 24.4546 82.4153 24.3763C82.5075 24.2068 82.5648 24.0206 82.5836 23.8288C82.5836 23.7825 82.5836 23.7361 82.5836 23.6805H83.5841C83.5841 23.7733 83.5841 23.8568 83.5841 23.9496C83.5646 24.3223 83.4824 24.6891 83.341 25.035C83.2615 25.2103 83.1611 25.3754 83.0418 25.5268C82.9285 25.669 82.7864 25.7861 82.6247 25.8706C82.463 25.9551 82.2853 26.0052 82.103 26.0174C81.9206 26.0296 81.7378 26.0039 81.5661 25.9417C81.3944 25.8796 81.2377 25.7824 81.1061 25.6566C80.8601 25.4075 80.6746 25.1061 80.5638 24.7752C80.4426 24.4212 80.3672 24.0534 80.3394 23.6805C80.2769 23.0041 80.3179 22.3222 80.4609 21.6579C80.5442 21.2866 80.7033 20.936 80.9285 20.628C81.0296 20.4858 81.1589 20.3656 81.3084 20.2746C81.4579 20.1837 81.6245 20.124 81.7981 20.0991C82.0328 20.0578 82.2745 20.0811 82.497 20.1661C82.7195 20.2512 82.9143 20.3947 83.0605 20.5816C83.2972 20.9016 83.4513 21.2745 83.5094 21.6672C83.5748 21.8714 83.5935 22.0847 83.6216 22.3352Z" fill="#010101"/>
<path d="M86.0808 25.8238L85.9593 25.1001H84.9213L84.781 25.8331H83.7431L84.8932 20.2664H85.978L87.1281 25.8331C86.7796 25.864 86.4288 25.8609 86.0808 25.8238ZM85.7628 23.9125L85.4543 22.0569C85.308 22.668 85.2018 23.2878 85.1364 23.9125H85.7628Z" fill="#010101"/>
<path d="M72.0451 25.8331H70.9884L70.8575 25.1001H69.8196L69.6886 25.8331H68.6507L69.8008 20.2664H70.8856L72.0451 25.8331ZM70.6705 23.9125L70.3619 22.0569L70.0533 23.9125H70.6705Z" fill="#010101"/>
<path d="M59.8328 12.5656V15.8221C59.7112 15.8221 57.2613 15.8685 56.9527 15.8221C56.9527 15.7108 56.906 12.7604 56.9527 12.5563L59.8328 12.5656Z" fill="#010101"/>
<path d="M73.4103 23.866V25.8052C73.0589 25.8393 72.705 25.8393 72.3536 25.8052V20.2384C72.4658 20.2384 74.5605 20.2384 74.8317 20.2384V21.5837H73.4384C73.4024 21.8919 73.4024 22.2032 73.4384 22.5115H74.5511V23.866H73.4103Z" fill="#010101"/>
<path d="M60.4312 21.6952V20.2478C60.5621 20.2478 62.8905 20.1921 63.3393 20.2478C63.3721 20.7359 63.3721 21.2254 63.3393 21.7135H62.4042C62.4042 22.1774 62.4042 22.6413 62.4042 23.0959V25.8793H61.3476V21.7414L60.4312 21.6952Z" fill="#010101"/>
<path d="M78.8058 20.2198H79.8718V25.7866C79.5171 25.8154 79.1605 25.8154 78.8058 25.7866V20.2198Z" fill="#010101"/>
<path d="M87.951 4.07617C88.447 4.07617 88.9227 4.27181 89.2734 4.6198C89.6241 4.96779 89.8212 5.43963 89.8212 5.93176C89.8212 6.42389 89.6241 6.89595 89.2734 7.24394C88.9227 7.59193 88.447 7.78735 87.951 7.78735C87.4595 7.77334 86.992 7.57354 86.6442 7.22854C86.2965 6.88354 86.0949 6.41946 86.0808 5.93176C86.0808 5.43963 86.2779 4.96779 86.6286 4.6198C86.9793 4.27181 87.455 4.07617 87.951 4.07617ZM87.951 7.41632C88.3462 7.4188 88.7263 7.26604 89.0083 6.99138C89.2904 6.71673 89.4515 6.34243 89.4565 5.95033C89.4565 5.55663 89.2988 5.17907 89.0183 4.90068C88.7377 4.62228 88.3572 4.466 87.9604 4.466C87.5659 4.46593 87.1871 4.61951 86.9055 4.89365C86.624 5.16779 86.4622 5.54044 86.4549 5.93176C86.4573 6.32471 86.6157 6.70106 86.8957 6.97892C87.1758 7.25679 87.5549 7.41389 87.951 7.41632Z" fill="#010101"/>
<path d="M10.3665 10.1161V4.24333H10.5534L12.7509 4.1969C14.406 4.1969 16.0611 4.1969 17.7163 4.1969C17.9968 4.1969 18.2866 4.19696 18.5671 4.26191C18.8095 4.28767 19.0435 4.36471 19.2532 4.48797C19.463 4.61122 19.6435 4.77782 19.7828 4.97633C20.061 5.3651 20.2435 5.81305 20.3157 6.28443C20.3794 6.6927 20.4107 7.10536 20.4093 7.51847V10.1533L16.2481 10.2647L16.351 10.4595C16.884 11.3873 17.417 12.3151 17.9407 13.2429C18.0999 13.4984 18.175 13.7966 18.1557 14.0964C18.1407 14.3418 18.06 14.5788 17.922 14.7829C17.8331 14.9233 17.6927 15.024 17.5305 15.0638C17.3683 15.1036 17.1969 15.0794 17.0523 14.9963C16.8503 14.8854 16.6897 14.7132 16.5941 14.5048C16.5941 14.412 16.5099 14.3192 16.4632 14.2264L14.7894 11.3502C14.7548 11.2995 14.7363 11.2396 14.7363 11.1785C14.7363 11.1173 14.7548 11.0577 14.7894 11.007C15.1929 10.1763 15.5427 9.32099 15.8367 8.44627C15.9493 8.12429 16.0031 7.7849 15.9956 7.44418C15.9822 7.10636 15.8611 6.78148 15.6496 6.51638C15.5164 6.33831 15.3382 6.1982 15.133 6.11025C14.9278 6.02229 14.7028 5.98955 14.4808 6.01534C14.3317 6.0331 14.1902 6.08971 14.0703 6.17933C13.9504 6.26895 13.8565 6.38843 13.7982 6.52567C13.6673 6.78545 13.5363 7.05439 13.4147 7.32345L12.0964 10.0328C12.076 10.0864 12.0384 10.1317 11.9894 10.1619C11.9404 10.1921 11.8826 10.2054 11.8251 10.1997H10.3851L10.3665 10.1161Z" fill="#ED282D"/>
<path d="M17.0897 10.8861H20.3812V16.722H12.4423C12.3272 16.7192 12.2135 16.6972 12.1057 16.657C11.7491 16.5167 11.4272 16.3014 11.1625 16.0259C10.8978 15.7504 10.6964 15.4213 10.5721 15.0612C10.4059 14.6079 10.3082 14.1326 10.2822 13.6509C10.2308 12.7641 10.2308 11.8751 10.2822 10.9883C10.2822 10.9883 10.2822 10.9232 10.2822 10.8675H11.9935C12.0455 10.8788 12.0998 10.8696 12.1452 10.842C12.1905 10.8143 12.2233 10.7703 12.2366 10.7192C12.779 9.49449 13.3213 8.27908 13.873 7.00801C13.9001 6.92537 13.9447 6.84946 14.0041 6.78557C14.0634 6.72168 14.136 6.67137 14.2168 6.63789C14.2976 6.6044 14.3848 6.58864 14.4723 6.59168C14.5598 6.59472 14.6456 6.61632 14.7239 6.65533C14.895 6.70562 15.045 6.80981 15.1512 6.95206C15.2575 7.0943 15.3143 7.26699 15.313 7.44404C15.3386 7.6688 15.3163 7.89636 15.2476 8.11203C15.0045 8.78932 14.7613 9.45725 14.5088 10.1253C14.3966 10.4222 14.2657 10.7099 14.1441 10.9976C14.1235 11.0311 14.1125 11.0695 14.1125 11.1088C14.1125 11.1481 14.1235 11.1867 14.1441 11.2202L16.3697 15.1076C16.4608 15.2666 16.6005 15.3925 16.7686 15.4676C16.9367 15.5426 17.1244 15.5628 17.3047 15.5251C17.6172 15.4697 17.9046 15.3195 18.1274 15.0952C18.3502 14.8708 18.4973 14.5835 18.5485 14.2727C18.6416 13.9042 18.595 13.5144 18.4176 13.1777C18.2025 12.751 17.9594 12.3243 17.7162 11.8975C17.4731 11.4707 17.3329 11.3038 17.1458 11.0161C17.202 11.0161 17.1738 10.9603 17.0897 10.8861Z" fill="#010101"/>
<path d="M88.4653 6.05245L88.8955 6.89666H88.1942L87.8388 6.15461H87.792V6.88738C87.5676 6.88738 87.3712 6.88738 87.1655 6.88738C87.1279 6.21989 87.1279 5.55091 87.1655 4.88342H87.2591C87.5396 4.88342 87.8201 4.88342 88.1006 4.88342C88.2439 4.89333 88.3853 4.92147 88.5214 4.96701C88.6235 4.99533 88.7136 5.05586 88.7777 5.13961C88.8418 5.22335 88.8766 5.32572 88.8768 5.4309C88.8904 5.53612 88.8728 5.64297 88.8263 5.73851C88.7798 5.83404 88.7064 5.91399 88.6149 5.96887L88.4653 6.05245ZM87.792 5.77407C87.951 5.77407 88.0913 5.77417 88.1755 5.64428C88.2021 5.60785 88.2164 5.56401 88.2164 5.51902C88.2164 5.47403 88.2021 5.43018 88.1755 5.39375C88.082 5.26386 87.9417 5.28232 87.8014 5.2916L87.792 5.77407Z" fill="#010101"/>
</g>
<defs>
<clipPath id="clip0_150_29">
<rect width="81" height="23" fill="white" transform="translate(9 3)"/>
</clipPath>
</defs>
</svg>
