<svg width="63" height="19" viewBox="0 0 63 19" fill="none" xmlns="http://www.w3.org/2000/svg">
<path d="M0.467621 0.214685C0.5715 0.214685 0.675374 0.214685 0.786672 0.214685C2.27066 0.214685 3.75464 0.214685 5.23863 0.214685C6.09192 0.214685 6.95264 0.214685 7.80594 0.214685C8.005 0.213222 8.20374 0.230623 8.39952 0.266665C8.75081 0.335566 9.06037 0.541254 9.26021 0.838516C9.59094 1.27322 9.80778 1.78382 9.89093 2.32384C9.93534 2.66614 9.95762 3.01095 9.95769 3.35613V8.22056C9.95769 9.34198 9.95769 10.4485 9.95769 11.5922C9.95769 11.6813 9.95769 11.763 9.95769 11.8522H9.83156H2.64908C2.43157 11.8563 2.21579 11.8126 2.01705 11.7241C1.8183 11.6355 1.64146 11.5043 1.499 11.3397C1.01024 10.8273 0.678086 10.1857 0.541802 9.4905C0.541802 9.37167 0.504735 9.238 0.482475 9.11175C0.471032 9.05398 0.456168 8.99694 0.437958 8.94094V8.09431C0.442135 8.05481 0.442135 8.01498 0.437958 7.97548C0.437958 7.69327 0.437958 7.40363 0.437958 7.11399C0.437958 5.89603 0.437958 4.67064 0.437958 3.44525C0.437958 3.44525 0.437958 3.40069 0.437958 3.38583V3.29672L0.467621 0.214685ZM0.883135 0.578581V1.95993C0.883135 3.72746 0.883135 5.49005 0.883135 7.24768C0.883135 7.70812 0.883135 8.16857 0.883135 8.62159C0.854641 9.50615 1.16223 10.3686 1.74387 11.0352C1.86787 11.1907 2.02622 11.3152 2.20648 11.399C2.38675 11.4828 2.58397 11.5235 2.78263 11.518H9.57931V11.3843C9.57931 10.7902 9.57931 10.1886 9.57931 9.59447V3.42297C9.58416 3.05766 9.55932 2.69255 9.50508 2.33126C9.41637 1.8231 9.18765 1.34984 8.8447 0.964767C8.73527 0.836927 8.59081 0.743979 8.42918 0.697409C8.26824 0.647345 8.10059 0.622293 7.93206 0.623139C7.35331 0.623139 6.77458 0.623139 6.19583 0.623139H0.883135V0.578581Z" fill="black"/>
<path d="M40.6985 12.5948V2.76937H43.7555C44.0841 2.76554 44.4123 2.79541 44.7349 2.8585C44.9923 2.90986 45.2343 3.02049 45.4416 3.18161C45.649 3.34273 45.816 3.54993 45.9295 3.78682C46.0938 4.11918 46.1944 4.47938 46.2263 4.84882C46.2834 5.2843 46.2658 5.72634 46.1743 6.15591C46.0855 6.61289 45.8449 7.0264 45.4917 7.32931C45.4917 7.32931 45.4917 7.36644 45.4917 7.37387C45.7086 7.50716 45.8952 7.68438 46.0396 7.89413C46.184 8.10388 46.283 8.34153 46.3302 8.59183C46.4378 9.07912 46.4703 9.58002 46.4266 10.0772C46.4051 10.4309 46.3378 10.7804 46.2263 11.1169C46.0987 11.5195 45.8594 11.8775 45.5362 12.1492C45.2171 12.4057 44.8247 12.5539 44.4158 12.5725C44.1413 12.5725 43.8593 12.5725 43.5848 12.5725H40.6613L40.6985 12.5948ZM42.7093 10.3H43.6145H43.9038C44.0503 10.2928 44.1897 10.2347 44.2981 10.1358C44.4064 10.0368 44.477 9.90315 44.4975 9.7578C44.5544 9.51353 44.5544 9.25941 44.4975 9.01514C44.4748 8.9015 44.419 8.79713 44.3371 8.71518C44.2552 8.63324 44.151 8.57739 44.0374 8.5547C43.9354 8.52883 43.8309 8.51389 43.7258 8.51014H42.7167L42.7093 10.3ZM42.7093 6.67577H43.6665C43.7601 6.67289 43.8527 6.65534 43.941 6.62378C44.0132 6.60344 44.0793 6.56575 44.1336 6.51397C44.188 6.46219 44.2288 6.39791 44.2526 6.32672C44.3617 6.01162 44.3617 5.66893 44.2526 5.35383C44.2332 5.28762 44.197 5.22754 44.1476 5.1794C44.0982 5.13126 44.0373 5.0967 43.9706 5.07904L43.8148 5.03448C43.4555 4.98984 43.0932 4.97493 42.7315 4.98993L42.7093 6.67577Z" fill="black"/>
<path d="M27.9882 9.21583V12.5801H25.9477V2.76953H29.1531C29.5457 2.76941 29.9361 2.82953 30.3106 2.94777C30.584 3.03138 30.8332 3.17963 31.0373 3.37999C31.2413 3.58035 31.3942 3.82694 31.4829 4.0989C31.6245 4.50478 31.6973 4.93151 31.6981 5.36142C31.7269 5.83298 31.6843 6.30619 31.572 6.76505C31.4496 7.25953 31.1549 7.69407 30.7409 7.99044L30.6964 8.02757L30.7558 8.0647C30.9287 8.13485 31.0845 8.24148 31.2126 8.37733C31.3406 8.51318 31.4379 8.67505 31.4978 8.85192C31.6047 9.15029 31.6648 9.46345 31.6759 9.78024C31.6759 10.3447 31.713 10.9165 31.7352 11.4809C31.7352 11.6518 31.7352 11.83 31.7797 12.0082C31.7821 12.0499 31.7933 12.0907 31.8124 12.1278C31.8316 12.1649 31.8584 12.1976 31.891 12.2236C31.8978 12.2454 31.8978 12.2687 31.891 12.2904C31.891 12.387 31.891 12.4835 31.891 12.5801C31.891 12.6766 29.9693 12.5801 29.7986 12.5801C29.7986 12.3647 29.7318 12.1568 29.717 11.9414C29.717 11.4463 29.717 10.971 29.717 10.5155C29.7181 10.2652 29.6882 10.0157 29.6279 9.77282C29.6031 9.63864 29.5391 9.51483 29.444 9.41702C29.349 9.31921 29.2271 9.25178 29.0937 9.22325C29.0346 9.21609 28.9748 9.21609 28.9157 9.22325H28.0104L27.9882 9.21583ZM27.9882 5.16833V6.98785H28.8489H29.1902C29.3252 6.98546 29.4548 6.93468 29.5556 6.84473C29.6563 6.75479 29.7215 6.63165 29.7393 6.49769C29.8096 6.21485 29.8096 5.91904 29.7393 5.6362C29.7201 5.53299 29.6701 5.43802 29.5959 5.36379C29.5218 5.28955 29.4269 5.23953 29.3237 5.22031C29.272 5.21328 29.2196 5.21328 29.1679 5.22031H28.0327L27.9882 5.16833Z" fill="black"/>
<path d="M58.2985 9.32706H57.3784V7.24019C57.4675 7.24019 60.0273 7.24019 60.1906 7.24019V12.5873H58.8624L58.766 11.7778L58.6695 11.9115C58.3708 12.371 57.905 12.6959 57.371 12.8176C56.9257 12.9346 56.4557 12.9175 56.0201 12.7682C55.5845 12.6189 55.2026 12.3441 54.9225 11.9784C54.5843 11.5342 54.3326 11.0303 54.1805 10.493C54.0073 9.93315 53.9002 9.35489 53.8614 8.77007C53.8169 8.1619 53.8169 7.5513 53.8614 6.94313C53.8945 6.12575 54.0651 5.3198 54.366 4.55919C54.5553 4.09064 54.8352 3.66412 55.1896 3.30409C55.6674 2.82876 56.3047 2.54818 56.9777 2.51687C57.3456 2.48557 57.716 2.52592 58.0685 2.6357C58.5827 2.80735 59.0294 3.13752 59.3447 3.57888C59.6617 4.0249 59.8862 4.52993 60.0051 5.0642C60.0859 5.40359 60.1405 5.74871 60.1683 6.0965C60.0645 6.0965 58.5656 6.0965 58.2095 6.0965C58.2095 6.0965 58.2095 6.03708 58.2095 5.99995C58.1611 5.78042 58.0785 5.56989 57.9646 5.37612C57.9075 5.26533 57.8278 5.16777 57.7306 5.08973C57.6335 5.0117 57.5211 4.95493 57.4007 4.92309C57.2587 4.88716 57.1099 4.88808 56.9684 4.92577C56.8269 4.96346 56.6973 5.03666 56.5919 5.13846C56.4541 5.27611 56.3455 5.44034 56.2729 5.6212C56.1531 5.91364 56.0733 6.22089 56.0354 6.53466C55.9502 7.20212 55.9353 7.8767 55.9909 8.54728C56.0053 8.88307 56.0652 9.21534 56.169 9.53501C56.2255 9.69753 56.2976 9.85422 56.3842 10.0029C56.4603 10.1228 56.5609 10.2252 56.6793 10.3036C56.7978 10.3819 56.9314 10.4343 57.0714 10.4575C57.2115 10.4806 57.3548 10.4739 57.4921 10.4378C57.6294 10.4017 57.7575 10.337 57.8681 10.248C58.1154 10.0012 58.2678 9.67514 58.2985 9.32706Z" fill="black"/>
<path d="M24.9905 7.58917C25.0089 8.43275 24.9115 9.27485 24.7011 10.0919C24.5393 10.7253 24.246 11.3174 23.8404 11.8298C23.4199 12.3816 22.7984 12.7447 22.1116 12.8398C21.6311 12.9291 21.1355 12.888 20.6762 12.7208C20.2169 12.5537 19.8107 12.2665 19.4998 11.8892C19.0856 11.3865 18.7822 10.8018 18.6094 10.1736C18.4464 9.58214 18.3493 8.97441 18.32 8.36154C18.2903 7.8991 18.2903 7.43521 18.32 6.97276C18.3539 6.1627 18.5245 5.36422 18.8245 4.61111C19.0006 4.17692 19.2518 3.7772 19.5665 3.43028C19.8203 3.14066 20.133 2.90866 20.4836 2.74984C20.8342 2.59101 21.2147 2.50903 21.5996 2.50938C22.0479 2.49094 22.4938 2.58366 22.8977 2.7793C23.3016 2.97494 23.6509 3.26744 23.9146 3.63079C24.3007 4.15568 24.5805 4.75108 24.7382 5.38347C24.8697 5.91415 24.9492 6.45638 24.9757 7.00247C24.9831 7.24013 24.9905 7.46292 24.9905 7.58917ZM22.8981 7.70058C22.9049 7.23548 22.8702 6.77069 22.7942 6.3118C22.7491 6.00305 22.6459 5.70568 22.49 5.43546C22.3989 5.29602 22.2746 5.18149 22.1282 5.10222C21.9818 5.02295 21.818 4.98143 21.6515 4.98143C21.4851 4.98143 21.3213 5.02295 21.1749 5.10222C21.0285 5.18149 20.9041 5.29602 20.8131 5.43546C20.7485 5.53381 20.6939 5.63829 20.6498 5.74738C20.5584 5.98655 20.4961 6.23591 20.4644 6.49004C20.3953 7.01679 20.3704 7.54842 20.3901 8.07933C20.3987 8.46352 20.4409 8.84621 20.5163 9.22302C20.5662 9.4863 20.6643 9.73807 20.8056 9.96568C20.9146 10.1421 21.0771 10.279 21.2693 10.3565C21.4615 10.434 21.6734 10.448 21.8741 10.3964C22.0035 10.3704 22.126 10.3173 22.2335 10.2405C22.3409 10.1636 22.4308 10.0649 22.4974 9.95084C22.6304 9.7207 22.7233 9.46955 22.7719 9.20818C22.8627 8.71093 22.905 8.20602 22.8981 7.70058Z" fill="black"/>
<path d="M14.0461 9.58698V12.5576H11.9908V2.76936H14.8326C15.2258 2.76716 15.6175 2.81712 15.9975 2.9179C16.4532 3.04181 16.8501 3.32336 17.118 3.71254C17.3813 4.07457 17.5613 4.49053 17.6448 4.9305C17.838 5.86398 17.8151 6.82934 17.578 7.75261C17.4793 8.15689 17.2888 8.53298 17.0215 8.85174C16.8534 9.06231 16.6445 9.23666 16.4073 9.36429C16.1701 9.49193 15.9096 9.5702 15.6414 9.5944C15.3001 9.5944 14.9588 9.5944 14.6175 9.5944L14.0461 9.58698ZM14.0461 7.18076H14.9216C15.0266 7.17067 15.1308 7.1533 15.2333 7.12878C15.3614 7.10919 15.4797 7.04871 15.5706 6.95637C15.6615 6.86403 15.7202 6.74477 15.7379 6.61634C15.7897 6.349 15.7897 6.07418 15.7379 5.80684C15.7306 5.6516 15.6658 5.50464 15.556 5.39475C15.4462 5.28486 15.2994 5.21995 15.1443 5.21271C14.9885 5.21271 14.8252 5.21271 14.6694 5.17558H14.0313L14.0461 7.18076Z" fill="black"/>
<path d="M53.4756 12.5875H51.4202L51.1828 11.3027H49.1349L48.8901 12.5875H46.8718C46.8718 12.4835 49.0533 2.93292 49.0978 2.76953H51.1828C51.9693 6.03724 52.7336 9.30989 53.4756 12.5875ZM50.1811 5.90356L49.543 9.2084H50.8341L50.1811 5.90356Z" fill="black"/>
<path d="M38.0051 5.34656H36.202V12.5801H34.1318V5.354H32.3288C32.3288 5.25002 32.2917 2.97748 32.3288 2.76953H38.0496L38.0051 5.34656Z" fill="black"/>
<path d="M45.054 17.9938H44.2378V16.308H43.4958V17.9864H42.6796V13.627H43.4587V15.1123H44.2007C44.2007 14.6147 44.2007 14.1245 44.2007 13.627H45.0168L45.054 17.9938Z" fill="black"/>
<path d="M51.5612 13.6345H52.9636C53.0687 13.6406 53.1717 13.6658 53.2678 13.7088C53.3604 13.74 53.4454 13.7906 53.5171 13.8572C53.5887 13.9238 53.6454 14.0048 53.6834 14.095C53.7462 14.2415 53.7862 14.3968 53.802 14.5554C53.8399 14.8015 53.8399 15.052 53.802 15.2981C53.7663 15.5401 53.6452 15.7614 53.4607 15.9219C53.5454 15.9656 53.6185 16.0287 53.6739 16.1062C53.7294 16.1837 53.7657 16.2733 53.7798 16.3675C53.8048 16.5026 53.8222 16.6389 53.8317 16.776C53.8317 17.0285 53.8317 17.2884 53.8317 17.5186C53.8266 17.6044 53.8473 17.6898 53.8911 17.7637C53.8988 17.8079 53.8988 17.8532 53.8911 17.8974C53.6147 17.9244 53.3364 17.9244 53.0601 17.8974C53.0241 17.7491 53.0066 17.5969 53.0081 17.4444C53.0081 17.2364 53.0081 17.0285 53.0081 16.8205V16.7537C53.0081 16.4938 52.8746 16.4046 52.6075 16.3972H52.3626V17.8825H51.5612V13.6345ZM52.37 15.506H52.8523C52.9013 15.5048 52.9483 15.4862 52.985 15.4536C53.0217 15.4209 53.0456 15.3764 53.0526 15.3278C53.086 15.1887 53.086 15.0436 53.0526 14.9045C53.0434 14.8562 53.019 14.8121 52.983 14.7787C52.9469 14.7453 52.9011 14.7243 52.8523 14.7188H52.3626L52.37 15.506Z" fill="black"/>
<path d="M37.0404 15.8329C37.0469 16.2629 36.9868 16.6913 36.8624 17.1029C36.7935 17.31 36.6935 17.5053 36.5656 17.6822C36.4697 17.8185 36.3424 17.9298 36.1946 18.0067C36.0467 18.0835 35.8826 18.1236 35.716 18.1236C35.5494 18.1236 35.3852 18.0835 35.2373 18.0067C35.0895 17.9298 34.9623 17.8185 34.8664 17.6822C34.6859 17.4312 34.5595 17.1454 34.4954 16.843C34.332 16.1078 34.3448 15.3443 34.5325 14.615C34.6007 14.3433 34.7273 14.0899 34.9035 13.8723C35.0362 13.7076 35.2161 13.5873 35.4189 13.5276C35.6218 13.4679 35.838 13.4715 36.0388 13.5381C36.2618 13.6138 36.4545 13.7597 36.5878 13.954C36.7823 14.2392 36.9115 14.5637 36.9662 14.9046C37.0184 15.2112 37.0432 15.5219 37.0404 15.8329ZM36.2168 15.8329C36.2168 15.5879 36.2168 15.3873 36.1649 15.1868C36.1477 15.0564 36.1128 14.929 36.061 14.8081C36.0359 14.7384 35.9892 14.6786 35.9279 14.6372C35.8665 14.5958 35.7936 14.575 35.7197 14.5778C35.6448 14.5746 35.5707 14.5951 35.5081 14.6364C35.4454 14.6777 35.3974 14.7378 35.3709 14.8081C35.3244 14.9044 35.2919 15.007 35.2745 15.1126C35.2077 15.5258 35.2077 15.947 35.2745 16.3602C35.2983 16.5037 35.3408 16.6435 35.4006 16.7761C35.4277 16.845 35.4763 16.9032 35.5391 16.942C35.602 16.9808 35.6758 16.9982 35.7494 16.9915C35.8199 16.9918 35.8889 16.9706 35.9472 16.9308C36.0055 16.8911 36.0503 16.8345 36.0758 16.7687C36.1197 16.6902 36.1498 16.6048 36.1649 16.5162C36.1797 16.3008 36.202 16.0557 36.2168 15.8552V15.8329Z" fill="black"/>
<path d="M37.404 13.6271H38.2647V16.3304C38.2583 16.4789 38.2784 16.6272 38.3241 16.7686C38.3475 16.8376 38.3919 16.8976 38.4512 16.94C38.5104 16.9825 38.5814 17.0053 38.6543 17.0053C38.7271 17.0053 38.7981 16.9825 38.8573 16.94C38.9166 16.8976 38.961 16.8376 38.9844 16.7686C39.0167 16.6222 39.0341 16.4729 39.0364 16.323C39.0364 15.4838 39.0364 14.6372 39.0364 13.798V13.642C39.3053 13.6151 39.5762 13.6151 39.8451 13.642C39.8488 13.6666 39.8488 13.6916 39.8451 13.7163C39.8451 14.6743 39.8451 15.6249 39.8451 16.5755C39.8489 16.8786 39.7909 17.1794 39.6745 17.4593C39.6139 17.6193 39.5143 17.7615 39.3847 17.8731C39.2551 17.9846 39.0996 18.062 38.9325 18.098C38.6905 18.1706 38.4325 18.1706 38.1905 18.098C38.0522 18.0521 37.9251 17.9775 37.8176 17.8789C37.7102 17.7803 37.6249 17.6601 37.5672 17.5261C37.4656 17.2907 37.4054 17.0394 37.3892 16.7835C37.3818 16.6375 37.3818 16.4912 37.3892 16.3453V13.6271H37.404Z" fill="black"/>
<path d="M31.8465 16.6424H32.6404C32.6404 16.7167 32.6775 16.7835 32.6998 16.8503C32.7146 16.8928 32.7379 16.9318 32.7682 16.9651C32.7984 16.9984 32.8351 17.0252 32.876 17.0439C32.9169 17.0626 32.9611 17.0729 33.0061 17.0741C33.051 17.0753 33.0958 17.0674 33.1376 17.0509C33.1849 17.0342 33.2272 17.0058 33.2605 16.9683C33.2939 16.9308 33.3172 16.8855 33.3283 16.8365C33.3394 16.7876 33.338 16.7366 33.3241 16.6884C33.3102 16.6401 33.2843 16.5962 33.2488 16.5607C33.1748 16.4848 33.0866 16.4243 32.9892 16.3825C32.8691 16.318 32.7452 16.261 32.6182 16.2116C32.4246 16.1324 32.2568 16.0008 32.1337 15.8316C32.0105 15.6625 31.9368 15.4623 31.9207 15.2536C31.8686 14.9446 31.8837 14.6279 31.9652 14.3253C31.9948 14.2143 32.0371 14.1072 32.0913 14.0059C32.1753 13.8411 32.306 13.7045 32.467 13.6134C32.6279 13.5223 32.8121 13.4806 32.9966 13.4935C33.1772 13.4902 33.3549 13.5397 33.5078 13.636C33.6607 13.7323 33.7822 13.8712 33.8573 14.0357C33.9826 14.2875 34.051 14.5639 34.0576 14.8452C33.8109 14.87 33.5624 14.87 33.3156 14.8452L33.2711 14.6818C33.2473 14.6071 33.1948 14.5449 33.1253 14.5087C33.0558 14.4726 32.9749 14.4654 32.9001 14.4887C32.8675 14.4946 32.8369 14.5086 32.811 14.5294C32.7851 14.5501 32.7647 14.5769 32.7517 14.6075C32.7223 14.6703 32.7137 14.7409 32.727 14.809C32.7403 14.8771 32.775 14.9392 32.8259 14.9863C32.9018 15.0468 32.9839 15.099 33.0708 15.1422L33.4789 15.3279C33.6501 15.4015 33.7995 15.5181 33.9126 15.6664C34.0257 15.8147 34.0987 15.9897 34.1244 16.1745C34.1955 16.5629 34.1726 16.9627 34.0576 17.3405C34.0044 17.5237 33.9047 17.69 33.7682 17.8232C33.6523 17.9342 33.5122 18.0167 33.359 18.0644C33.2058 18.112 33.0437 18.1236 32.8853 18.098C32.7323 18.0853 32.5847 18.0353 32.4554 17.9525C32.326 17.8696 32.2189 17.7564 32.1433 17.6227C31.9631 17.3263 31.8609 16.989 31.8465 16.6424Z" fill="black"/>
<path d="M58.0314 15.2611H57.2449C57.2343 15.1787 57.2195 15.0969 57.2004 15.0161C57.1818 14.9331 57.1519 14.8531 57.1114 14.7784C57.0833 14.7239 57.0407 14.6781 56.9884 14.6462C56.936 14.6142 56.8759 14.5973 56.8145 14.5973C56.7532 14.5973 56.6931 14.6142 56.6407 14.6462C56.5884 14.6781 56.5458 14.7239 56.5177 14.7784C56.4288 14.9168 56.3753 15.0749 56.3619 15.2389C56.2989 15.6449 56.2989 16.0582 56.3619 16.4642C56.3853 16.5981 56.4331 16.7265 56.5029 16.843C56.5301 16.8903 56.5675 16.9309 56.6125 16.9617C56.6574 16.9926 56.7087 17.0129 56.7626 17.0212C56.8302 17.0322 56.8995 17.0216 56.9608 16.991C57.022 16.9603 57.0721 16.9111 57.1039 16.8504C57.1771 16.7201 57.2226 16.5759 57.2375 16.4271C57.2339 16.3901 57.2339 16.3528 57.2375 16.3157H57.9795C57.9795 16.3826 57.9795 16.4494 57.9795 16.5162C57.9639 16.8074 57.8987 17.0937 57.7865 17.3629C57.7269 17.4995 57.6523 17.629 57.564 17.7491C57.4757 17.8571 57.3661 17.9459 57.242 18.0098C57.118 18.0736 56.9821 18.1113 56.8429 18.1203C56.7037 18.1294 56.5642 18.1097 56.4329 18.0624C56.3016 18.0151 56.1815 17.9413 56.08 17.8456C55.8944 17.6514 55.755 17.4179 55.6719 17.1623C55.5723 16.8876 55.5123 16.6 55.4938 16.3083C55.4441 15.7792 55.4767 15.2456 55.5902 14.7264C55.6541 14.4366 55.778 14.1633 55.9538 13.9244C56.0501 13.7981 56.1741 13.6958 56.3163 13.6254C56.4585 13.5549 56.6151 13.5183 56.7737 13.5183C56.9324 13.5183 57.0889 13.5549 57.2311 13.6254C57.3733 13.6958 57.4974 13.7981 57.5936 13.9244C57.7819 14.1712 57.9021 14.4631 57.9424 14.771C57.9943 14.8898 58.0092 15.0755 58.0314 15.2611Z" fill="black"/>
<path d="M59.9309 17.9864L59.8345 17.4219H59.0405L58.9366 17.9938H58.1353C58.4321 16.5085 58.7289 15.0826 59.0257 13.627H59.8641L60.7545 17.9715C60.4812 18.004 60.2053 18.009 59.9309 17.9864ZM59.6861 16.501L59.4486 15.0603C59.3347 15.5345 59.2529 16.0158 59.2037 16.501H59.6861Z" fill="black"/>
<path d="M49.083 17.9941H48.2668L48.1703 17.4223H47.369L47.2651 17.9941H46.4267C46.7235 16.5088 47.0277 15.0829 47.3245 13.6199H48.1555L49.083 17.9941ZM48.022 16.5088C47.9403 16.0261 47.8661 15.5582 47.7845 15.0903L47.5471 16.5088H48.022Z" fill="black"/>
<path d="M39.6448 7.64878V10.1887C39.5484 10.1887 37.6563 10.2258 37.4188 10.1887C37.4188 10.0996 37.3817 7.80474 37.4188 7.64136L39.6448 7.64878Z" fill="black"/>
<path d="M50.1366 16.4567V17.942C49.8652 17.9692 49.5918 17.9692 49.3204 17.942V13.5974C49.4095 13.5974 51.027 13.5974 51.2347 13.5974V14.6743H50.1366C50.103 14.9058 50.103 15.1409 50.1366 15.3724H50.9899V16.427L50.1366 16.4567Z" fill="black"/>
<path d="M40.1049 14.771V13.6421C40.2087 13.6421 42.0044 13.5976 42.3308 13.6421C42.3569 14.0204 42.3569 14.4001 42.3308 14.7784H41.6334V18.009H40.8098V14.7858L40.1049 14.771Z" fill="black"/>
<path d="M54.2769 13.6199H55.0999V17.9793C54.826 18.0021 54.5508 18.0021 54.2769 17.9793V13.6199Z" fill="black"/>
<path d="M61.3778 1.03174C61.5746 1.02446 61.7708 1.05789 61.9542 1.12996C62.1375 1.20202 62.3041 1.31117 62.4433 1.45057C62.5826 1.58998 62.6917 1.75665 62.7637 1.94016C62.8357 2.12366 62.8691 2.32005 62.8618 2.51706C62.7974 2.85694 62.6165 3.16367 62.3504 3.38433C62.0842 3.60498 61.7494 3.72572 61.4038 3.72572C61.0581 3.72572 60.7234 3.60498 60.4572 3.38433C60.191 3.16367 60.0101 2.85694 59.9457 2.51706C59.9398 2.32476 59.9724 2.13323 60.0416 1.95374C60.1108 1.77426 60.2152 1.61047 60.3487 1.47203C60.4822 1.33359 60.642 1.2233 60.8187 1.14768C60.9955 1.07206 61.1856 1.03264 61.3778 1.03174ZM61.3778 3.63105C61.5361 3.64381 61.6953 3.62361 61.8455 3.57174C61.9956 3.51986 62.1333 3.43743 62.25 3.32964C62.3667 3.22185 62.4599 3.09103 62.5236 2.94543C62.5873 2.79982 62.6202 2.6426 62.6202 2.48364C62.6202 2.32469 62.5873 2.16746 62.5236 2.02186C62.4599 1.87626 62.3667 1.74544 62.25 1.63765C62.1333 1.52985 61.9956 1.44742 61.8455 1.39555C61.6953 1.34367 61.5361 1.32348 61.3778 1.33623C61.2195 1.32348 61.0603 1.34367 60.9102 1.39555C60.7601 1.44742 60.6223 1.52985 60.5056 1.63765C60.3889 1.74544 60.2957 1.87626 60.232 2.02186C60.1683 2.16746 60.1354 2.32469 60.1354 2.48364C60.1354 2.6426 60.1683 2.79982 60.232 2.94543C60.2957 3.09103 60.3889 3.22185 60.5056 3.32964C60.6223 3.43743 60.7601 3.51986 60.9102 3.57174C61.0603 3.62361 61.2195 3.64381 61.3778 3.63105Z" fill="black"/>
<path d="M1.40997 5.7402V1.15799H1.55838L3.2501 1.11343C4.52633 1.11343 5.80996 1.07629 7.08619 1.11343C7.30707 1.11322 7.52772 1.12811 7.74657 1.15799C7.93429 1.17803 8.11556 1.23812 8.27811 1.3342C8.44067 1.43028 8.58074 1.56012 8.68892 1.71498C8.90194 2.02062 9.04159 2.37135 9.097 2.73985C9.14794 3.05912 9.17274 3.38201 9.17118 3.70531V5.75505L5.95096 5.84418L6.04 5.99271L7.26426 8.14642C7.3873 8.34659 7.44443 8.5804 7.42752 8.81482C7.41366 9.00514 7.35245 9.18895 7.24945 9.34952C7.18049 9.4596 7.07124 9.53831 6.94507 9.56885C6.8189 9.59938 6.68579 9.5793 6.57421 9.51291C6.42053 9.42718 6.29834 9.29445 6.2255 9.13416C6.1884 9.05989 6.15871 8.98563 6.12161 8.91879C5.69125 8.17613 5.2609 7.43347 4.82312 6.69081C4.79968 6.65017 4.78734 6.60406 4.78734 6.55713C4.78734 6.5102 4.79968 6.4641 4.82312 6.42345C5.13638 5.77515 5.409 5.10794 5.63934 4.4257C5.72373 4.17461 5.76388 3.91075 5.75804 3.6459C5.74926 3.37761 5.65865 3.11845 5.49836 2.90324C5.39481 2.76287 5.25546 2.65296 5.09489 2.58501C4.93432 2.51707 4.75842 2.4936 4.58568 2.51705C4.47117 2.5309 4.36231 2.57453 4.26989 2.64359C4.17746 2.71265 4.10471 2.80472 4.05889 2.91066C3.95501 3.11861 3.85854 3.32656 3.76208 3.53451C3.42076 4.23261 3.07945 4.93813 2.74555 5.64366C2.73201 5.68674 2.7038 5.7237 2.66584 5.74813C2.62789 5.77255 2.58255 5.78289 2.53777 5.77733H1.42478L1.40997 5.7402Z" fill="#ED242A"/>
<path d="M6.63358 6.34165H9.17118V10.8867H3.03494C2.94565 10.8882 2.85706 10.8705 2.77521 10.8347C2.49869 10.7276 2.24909 10.561 2.04395 10.3467C1.83882 10.1324 1.68317 9.87559 1.58804 9.59449C1.45867 9.24151 1.38363 8.8709 1.36545 8.49536C1.32472 7.80281 1.32472 7.10846 1.36545 6.41591C1.36232 6.38628 1.36232 6.35642 1.36545 6.32679H2.6936C2.73336 6.33068 2.77327 6.32108 2.80691 6.29953C2.84056 6.27798 2.86598 6.24572 2.8791 6.20796C3.29462 5.25736 3.71756 4.30676 4.1405 3.34873C4.16182 3.28436 4.19686 3.22539 4.24321 3.17592C4.28956 3.12644 4.3461 3.08765 4.40892 3.06222C4.47173 3.03679 4.53933 3.02533 4.607 3.02863C4.67468 3.03194 4.74084 3.04994 4.80088 3.08137C4.9321 3.12003 5.04717 3.20032 5.12881 3.31017C5.21045 3.42001 5.25422 3.55344 5.25349 3.69035C5.27341 3.86781 5.2557 4.04749 5.20154 4.21764C5.01604 4.7375 4.82311 5.25736 4.63019 5.77722C4.54115 6.01487 4.44469 6.23768 4.34823 6.4679C4.33163 6.49329 4.32282 6.52296 4.32282 6.5533C4.32282 6.58364 4.33163 6.61332 4.34823 6.63871C4.91709 7.62892 5.4909 8.63647 6.06966 9.66134C6.14112 9.78937 6.25187 9.89099 6.38549 9.95117C6.51912 10.0114 6.66852 10.0269 6.81165 9.99553C7.05236 9.95175 7.27337 9.83369 7.44369 9.6579C7.614 9.4821 7.72511 9.25738 7.76142 9.01522C7.84017 8.73192 7.80834 8.42926 7.67239 8.16859C7.50173 7.82696 7.31624 7.49277 7.12332 7.166C6.9304 6.83923 6.83392 6.70555 6.68553 6.47532L6.63358 6.34165Z" fill="black"/>
<path d="M61.7785 2.569L62.1124 3.22996H61.5707L61.2961 2.65069V3.22253H60.8065C60.7803 2.70052 60.7803 2.17753 60.8065 1.65552H61.5484C61.657 1.66089 61.7643 1.68087 61.8675 1.71493C61.9467 1.73828 62.0166 1.786 62.0672 1.85131C62.1178 1.91663 62.1466 1.99623 62.1495 2.07884C62.1564 2.16059 62.1407 2.24267 62.1041 2.31605C62.0674 2.38944 62.0112 2.45127 61.9417 2.49473L61.7785 2.569ZM61.2516 2.35362C61.3778 2.35362 61.4891 2.35363 61.5484 2.25708C61.5707 2.22841 61.5828 2.19313 61.5828 2.15682C61.5828 2.1205 61.5707 2.08523 61.5484 2.05656C61.4742 1.96001 61.3629 1.96744 61.2516 1.97487V2.35362Z" fill="black"/>
</svg>
