<svg width="100" height="30" viewBox="0 0 100 30" fill="none" xmlns="http://www.w3.org/2000/svg">
<g clip-path="url(#clip0_150_41)">
<path d="M84 2H17V29H84V2Z" fill="#E40E18"/>
<path d="M30.9651 20.5156L29.9175 22.6794H29.5523L28.6969 20.7813L27.8319 22.6794H27.4666L26.4286 20.5156H26.7265L27.6877 22.4137L28.5527 20.5156H28.9179L29.783 22.4137L30.7441 20.5156H30.9651Z" fill="white"/>
<path d="M33.9253 21.4552V21.6734H32.0897V22.4611H34.0119V22.6794H31.8301V20.5156H33.9927V20.7339H32.0704V21.4552H33.9253Z" fill="white"/>
<path d="M38.558 20.8004L38.3081 20.7435H38.1063H37.2989C37.1839 20.7475 37.0703 20.77 36.9625 20.8099C36.9336 20.8198 36.9073 20.836 36.8857 20.8573C36.864 20.8787 36.8476 20.9047 36.8376 20.9333C36.8213 20.9955 36.8213 21.0608 36.8376 21.1231C36.832 21.1734 36.8397 21.2244 36.8599 21.2709C36.8801 21.3175 36.9121 21.358 36.9529 21.3888C37.047 21.4484 37.1588 21.4752 37.2702 21.4647H38.4138H38.5869C38.7134 21.4675 38.8339 21.5185 38.9233 21.6071C38.9747 21.665 39.0132 21.7329 39.0364 21.8065C39.0595 21.88 39.0669 21.9576 39.0578 22.0341C39.0609 22.1475 39.0412 22.2604 39.0001 22.3663C38.9542 22.4577 38.8754 22.5288 38.7791 22.5656C38.6691 22.6105 38.552 22.6362 38.4331 22.6415C38.2763 22.6518 38.1189 22.6518 37.9621 22.6415H37.2702H36.9914C36.9313 22.6383 36.8726 22.6223 36.8195 22.5944C36.7664 22.5666 36.72 22.5276 36.6838 22.4802C36.5974 22.334 36.5604 22.1645 36.5781 21.9962H36.8376C36.8246 22.0779 36.8246 22.1612 36.8376 22.2429C36.8376 22.2999 36.9145 22.3378 37.001 22.3663H37.1643H37.347H37.7698C37.9619 22.3777 38.1546 22.3777 38.3466 22.3663C38.4618 22.3623 38.5728 22.3224 38.6637 22.2524C38.6963 22.2167 38.7208 22.1744 38.7357 22.1287C38.7506 22.0829 38.7555 22.0345 38.7502 21.9867C38.7502 21.8253 38.7502 21.7304 38.6445 21.683C38.5251 21.6377 38.3973 21.6183 38.2696 21.626H37.7698H37.1836C37.0186 21.6348 36.8548 21.5952 36.7126 21.5122C36.6555 21.4631 36.611 21.4015 36.5826 21.3322C36.5542 21.2629 36.5428 21.188 36.5493 21.1136C36.5437 20.9899 36.5667 20.8666 36.6165 20.753C36.6663 20.6532 36.752 20.5753 36.8568 20.5347L37.0586 20.4778H37.2702C37.443 20.4675 37.6162 20.4675 37.7891 20.4778H38.1255H38.4811C38.5512 20.4775 38.6205 20.4938 38.683 20.5252C38.7455 20.5547 38.8011 20.5967 38.8463 20.6486C38.9414 20.7664 38.9862 20.9162 38.9712 21.0661H38.7118C38.7301 20.9945 38.7301 20.9195 38.7118 20.8478C38.668 20.8143 38.6134 20.7974 38.558 20.8004Z" fill="white"/>
<path d="M42.2583 21.4552V21.6734H40.4322V22.4611H42.3544V22.6794H40.163V20.5156H42.2583V20.7339H40.3361V21.4552H42.2583Z" fill="white"/>
<path d="M44.2287 22.6794V20.7814H43.1234V20.5631H45.5934V20.7814H44.4881V22.6794H44.2287Z" fill="white"/>
<path d="M48.6787 22.6794V20.7814H47.583V20.5631H50.053V20.7814H48.9862V22.6794H48.6787Z" fill="white"/>
<path d="M51.2065 22.6794H50.9084V20.5156H51.168V21.4647H53.2055V20.5156H53.4747V22.6794H53.2055V21.6734H51.168L51.2065 22.6794Z" fill="white"/>
<path d="M56.8194 21.4552V21.6734H54.9933V22.4611H56.9155V22.6794H54.753V20.5156H56.9155V20.7339H54.9933V21.4552H56.8194Z" fill="white"/>
<path d="M61.4808 22.6794H59.4913V20.5156H59.7604V22.4137H61.4808V22.6794Z" fill="white"/>
<path d="M64.5277 21.4552V21.6734H62.6919V22.4611H64.6142V22.6794H62.442V20.5156H64.6045V20.7339H62.6823V21.4552H64.5277Z" fill="white"/>
<path d="M68.151 20.5156L66.9401 22.6794H66.5748L65.3734 20.5156H65.6809L66.7574 22.4137L67.8435 20.5156H68.151Z" fill="white"/>
<path d="M71.0921 21.4552V21.6734H69.2563V22.4611H71.1786V22.6794H68.9873V20.5156H71.1593V20.7339H69.2371V21.4552H71.0921Z" fill="white"/>
<path d="M74.3022 22.6794H72.3031V20.5156H72.5722V22.4137H74.3022V22.6794Z" fill="white"/>
<path d="M77.2626 20.8004C77.182 20.7716 77.0981 20.7524 77.0127 20.7435H76.8108H76.0035C75.8915 20.7466 75.7809 20.7691 75.6768 20.8099C75.6467 20.8197 75.6191 20.8358 75.5959 20.8571C75.5727 20.8784 75.5544 20.9044 75.5422 20.9333C75.5307 20.996 75.5307 21.0603 75.5422 21.1231C75.5355 21.1726 75.5418 21.223 75.5603 21.2695C75.5788 21.316 75.6089 21.357 75.6479 21.3888C75.7426 21.4471 75.8538 21.4738 75.965 21.4647H77.0992H77.2723C77.4015 21.468 77.5249 21.5187 77.6183 21.6071C77.7149 21.7279 77.7597 21.8811 77.7432 22.0341C77.7463 22.1475 77.7266 22.2604 77.6855 22.3663C77.6435 22.4571 77.5678 22.5284 77.4741 22.5656C77.3603 22.6093 77.2403 22.6349 77.1185 22.6415C76.9648 22.6515 76.8107 22.6515 76.6571 22.6415H75.8978H75.6287C75.5672 22.6384 75.5071 22.6225 75.4524 22.5947C75.3977 22.5668 75.3497 22.5278 75.3115 22.4802C75.2297 22.3323 75.193 22.1642 75.2058 21.9962H75.475C75.462 22.0779 75.462 22.1612 75.475 22.2429C75.4884 22.2743 75.5094 22.302 75.5362 22.3235C75.563 22.345 75.5948 22.3597 75.6287 22.3663H75.7921H75.9843H76.4072C76.5961 22.3775 76.7854 22.3775 76.9743 22.3663C77.0927 22.3636 77.2071 22.3237 77.301 22.2524C77.3336 22.2167 77.3581 22.1744 77.373 22.1287C77.388 22.0829 77.3929 22.0345 77.3876 21.9867C77.3876 21.8253 77.3876 21.7304 77.2723 21.683C77.1565 21.6367 77.0316 21.6172 76.907 21.626H76.4072H75.821C75.656 21.6348 75.4922 21.5952 75.35 21.5122C75.2899 21.4652 75.2426 21.4041 75.2124 21.3345C75.1822 21.2649 75.17 21.189 75.177 21.1136C75.1714 20.9899 75.1943 20.8666 75.2442 20.753C75.2977 20.6525 75.3866 20.5749 75.4941 20.5347L75.6864 20.4778H75.8978C76.0707 20.4675 76.244 20.4675 76.4169 20.4778H76.7628H77.1088C77.182 20.4778 77.2542 20.494 77.3203 20.5252C77.38 20.5548 77.4325 20.5969 77.4741 20.6486C77.5726 20.765 77.6209 20.9149 77.6086 21.0661H77.3395C77.3522 20.9939 77.3522 20.92 77.3395 20.8478C77.3169 20.8277 77.2909 20.8116 77.2626 20.8004Z" fill="white"/>
<path d="M64.6909 13.8914V14.233C64.6909 15.3103 65.1244 16.3434 65.8959 17.1052C66.6673 17.8669 67.7136 18.2948 68.8046 18.2948H73.6102C74.6995 18.2923 75.7434 17.8633 76.5128 17.1018C77.2822 16.3404 77.7142 15.3086 77.7142 14.233V13.8914C77.7155 13.3584 77.6103 12.8304 77.4046 12.3377C77.1989 11.8449 76.8968 11.3971 76.5156 11.0198C76.1344 10.6425 75.6815 10.3431 75.1829 10.1389C74.6844 9.93461 74.1499 9.82948 73.6102 9.82948H68.8046C68.264 9.82823 67.7286 9.93245 67.2289 10.1361C66.7292 10.3398 66.2753 10.639 65.893 11.0164C65.5108 11.3938 65.2078 11.8421 65.0015 12.3355C64.7952 12.8288 64.6897 13.3576 64.6909 13.8914ZM67.3436 14.0527C67.3436 13.7864 67.3969 13.5228 67.5004 13.2769C67.6039 13.031 67.7556 12.8078 67.9467 12.6199C68.1378 12.4321 68.3645 12.2834 68.614 12.1824C68.8635 12.0813 69.1308 12.03 69.4005 12.0312H72.9566C73.2262 12.03 73.4935 12.0813 73.743 12.1824C73.9925 12.2834 74.2193 12.4321 74.4105 12.6199C74.6016 12.8078 74.7532 13.031 74.8567 13.2769C74.9601 13.5228 75.0134 13.7864 75.0134 14.0527C75.0134 14.5913 74.7968 15.1079 74.4111 15.4888C74.0253 15.8696 73.5021 16.0836 72.9566 16.0836H69.4005C68.855 16.0836 68.3318 15.8696 67.9461 15.4888C67.5604 15.1079 67.3436 14.5913 67.3436 14.0527Z" fill="white"/>
<path d="M40.6821 9.82947H38.0294V18.2854H40.6821V16.1501H46.1989C47.0478 16.1501 47.8619 15.8171 48.4621 15.2244C49.0623 14.6318 49.3995 13.8279 49.3995 12.9898C49.3995 12.1516 49.0623 11.3478 48.4621 10.7551C47.8619 10.1624 47.0478 9.82947 46.1989 9.82947H40.6821ZM45.7761 13.9483H40.6821V12.0502H45.7761C46.031 12.0502 46.2754 12.1502 46.4556 12.3282C46.6359 12.5061 46.7372 12.7476 46.7372 12.9993C46.7424 13.1271 46.7213 13.2545 46.6754 13.3741C46.6294 13.4937 46.5594 13.6028 46.4696 13.695C46.3798 13.7872 46.2721 13.8605 46.1529 13.9105C46.0337 13.9606 45.9056 13.9863 45.7761 13.9862V13.9483Z" fill="white"/>
<path d="M61.1252 15.8842C61.7005 15.651 62.1947 15.2577 62.5479 14.7523C62.9011 14.2469 63.098 13.651 63.1147 13.0371C63.1181 12.6202 63.0346 12.2069 62.8692 11.8232C62.7039 11.4395 62.4602 11.0936 62.1536 10.8069C61.5406 10.204 60.7122 9.86309 59.8469 9.85791H51.3218V18.3138H53.9744V16.1784H57.7228L60.2122 18.2948H63.9701L61.1252 15.8842ZM60.0776 13.673C59.9875 13.7638 59.8797 13.8358 59.7608 13.8847C59.642 13.9336 59.5143 13.9584 59.3855 13.9577H53.9456V12.0596H59.3855C59.6404 12.0596 59.8849 12.1596 60.0652 12.3376C60.2454 12.5156 60.3466 12.757 60.3466 13.0087C60.3456 13.253 60.2493 13.4876 60.0776 13.6635V13.673Z" fill="white"/>
<path fill-rule="evenodd" clip-rule="evenodd" d="M79.3098 11.3289C79.3098 11.3289 79.3098 11.2814 79.3098 11.2624V11.0726C79.321 11.0355 79.321 10.9959 79.3098 10.9587C79.3098 10.9587 79.377 10.9113 79.4059 10.8828C79.4372 10.8312 79.4537 10.7721 79.4537 10.712C79.4537 10.6518 79.4372 10.5928 79.4059 10.5411C79.3717 10.4989 79.3244 10.4689 79.2713 10.4558C79.2172 10.4466 79.1619 10.4466 79.1079 10.4558H78.6177V11.4902H78.7619V11.0442H79.1079C79.1491 11.0365 79.1915 11.0365 79.2328 11.0442C79.2425 11.0686 79.2425 11.0956 79.2328 11.12C79.2383 11.1483 79.2383 11.1773 79.2328 11.2055V11.2719C79.2281 11.3066 79.2281 11.3417 79.2328 11.3763C79.2276 11.4045 79.2276 11.4335 79.2328 11.4617H79.4059L79.3098 11.3289ZM79.0982 10.7879C79.048 10.8021 78.9948 10.8021 78.9445 10.7879H78.6177V10.4368H79.0503C79.0807 10.4433 79.1078 10.4601 79.1271 10.4842C79.135 10.5022 79.1392 10.5216 79.1392 10.5411C79.1392 10.5607 79.135 10.5801 79.1271 10.5981C79.1655 10.7215 79.1367 10.7689 79.0982 10.7879Z" fill="white"/>
<path d="M78.8772 9.9718C78.6871 9.9718 78.5013 10.0274 78.3433 10.1317C78.1852 10.236 78.062 10.3842 77.9893 10.5576C77.9165 10.7311 77.8975 10.9219 77.9346 11.106C77.9717 11.2901 78.0632 11.4592 78.1977 11.5919C78.3321 11.7246 78.5033 11.815 78.6897 11.8516C78.8762 11.8882 79.0694 11.8695 79.245 11.7976C79.4206 11.7258 79.5708 11.6041 79.6764 11.4481C79.782 11.292 79.8383 11.1085 79.8383 10.9208C79.8383 10.6691 79.7371 10.4277 79.5569 10.2497C79.3766 10.0717 79.1321 9.9718 78.8772 9.9718ZM78.8772 11.699C78.7133 11.7009 78.5526 11.6546 78.4154 11.5661C78.2782 11.4776 78.1708 11.3508 78.1067 11.2018C78.0427 11.0529 78.025 10.8885 78.0558 10.7295C78.0866 10.5706 78.1646 10.4242 78.2798 10.3092C78.395 10.1941 78.5421 10.1154 78.7027 10.0831C78.8633 10.0509 79.0301 10.0665 79.1817 10.128C79.3333 10.1895 79.4629 10.294 79.5542 10.4284C79.6454 10.5628 79.6941 10.721 79.6941 10.8828C79.6941 11.0977 79.6084 11.3038 79.4555 11.4566C79.3026 11.6094 79.0947 11.6966 78.8772 11.699Z" fill="white"/>
<path d="M30.9941 9.86743V10.9114C30.156 10.9113 29.3516 11.2367 28.7546 11.8174C28.1575 12.3981 27.8157 13.1874 27.8031 14.0148H26.717V9.86743H30.9941Z" fill="#E40E18"/>
<path d="M35.1941 9.86743V13.9863H34.1657C34.1507 13.1629 33.8109 12.3778 33.2185 11.7982C32.6261 11.2186 31.828 10.8902 30.994 10.8829V9.83899L35.1941 9.86743Z" fill="white"/>
<path d="M35.1941 13.9862V18.2569H30.994V17.2129C31.4118 17.2117 31.8252 17.1292 32.2107 16.9702C32.5962 16.8112 32.9461 16.5787 33.2407 16.2862C33.5352 15.9936 33.7685 15.6466 33.9273 15.265C34.086 14.8834 34.1669 14.4747 34.1657 14.0621V13.9862H35.1941Z" fill="#E40E18"/>
<path d="M30.994 17.2129V18.2854H26.6978V13.9862H27.7838V14.0336C27.7838 14.8693 28.12 15.6707 28.7184 16.2616C29.3168 16.8525 30.1285 17.1844 30.9748 17.1844L30.994 17.2129Z" fill="white"/>
<path d="M30.994 13.9862V17.1844C30.1478 17.1844 29.3361 16.8525 28.7376 16.2616C28.1392 15.6707 27.803 14.8693 27.803 14.0336V13.9862H30.994Z" fill="#E40E18"/>
<path d="M34.1657 14.0621C34.1669 14.4747 34.086 14.8834 33.9273 15.265C33.7685 15.6466 33.5352 15.9936 33.2407 16.2862C32.9461 16.5787 32.5962 16.8112 32.2107 16.9702C31.8252 17.1292 31.4118 17.2117 30.994 17.2129V13.9862H34.1657V14.0621Z" fill="white"/>
<path d="M34.1657 13.9863H30.994V10.8829C31.828 10.8902 32.6261 11.2186 33.2185 11.7983C33.8109 12.3779 34.1507 13.1629 34.1657 13.9863Z" fill="#E40E18"/>
<path d="M30.9941 10.9114V13.9863H27.7838C27.7964 13.1589 28.1383 12.3696 28.7353 11.7889C29.3324 11.2083 30.1368 10.8828 30.9748 10.8829L30.9941 10.9114Z" fill="white"/>
<path d="M35.3287 18.3898H26.6786V9.84851H35.3287V18.3898ZM26.8515 18.219H35.1557V9.98139H26.8804L26.8515 18.219Z" fill="white"/>
</g>
<defs>
<clipPath id="clip0_150_41">
<rect width="67" height="27" fill="white" transform="translate(17 2)"/>
</clipPath>
</defs>
</svg>
