<svg width="173" height="173" viewBox="0 0 173 173" fill="none" xmlns="http://www.w3.org/2000/svg">
<g clip-path="url(#clip0_4_377)">
<path d="M96.2787 30.4115L102.829 37.6377L103.404 38.277L104.245 38.5104L113.711 41.0882L115.261 50.6789L115.405 51.5214L115.98 52.1606L122.53 59.3969L118.598 68.2976L118.249 69.0791L118.393 69.9213L119.943 79.512L111.73 84.8909L111.001 85.3679L110.652 86.1494L106.72 95.05L96.905 95.2024H96.0323L95.3137 95.6692L87.1006 101.058L78.754 95.9839L78.0149 95.5372H77.1421L67.3275 95.6997L63.108 86.9309L62.7282 86.1596L61.9889 85.7029L53.6423 80.6284L54.8846 70.9971L54.9975 70.1547L54.628 69.3732L50.3982 60.6148L56.7121 53.1755L57.2664 52.5159L57.3793 51.6633L58.6113 42.032L67.9948 39.1499L68.8264 38.8962L69.3808 38.2363L75.6844 30.7971L85.1602 33.3851L85.9918 33.6084L86.8234 33.3546L96.1966 30.4725M97.1309 27.1233L85.9405 30.5637L74.6475 27.519L67.1119 36.3993L55.9215 39.8399L54.4431 51.3388L46.9179 60.2191L51.9587 70.6723L50.4803 82.1609L60.4388 88.2503L65.4795 98.7139L77.1935 98.5211L87.1519 104.611L96.905 98.1861L108.629 97.9934L113.321 87.3875L123.074 80.9634L121.226 69.5256L125.918 58.9098L118.105 50.2731L116.247 38.8352L104.954 35.7905L97.1412 27.1639L97.1309 27.1233Z" fill="#02517D"/>
<path d="M86.9671 44.4781C91.2312 44.4781 95.3995 45.728 98.9449 48.0698C102.49 50.4117 105.254 53.7404 106.885 57.6348C108.517 61.5292 108.944 65.8143 108.112 69.9485C107.28 74.0828 105.227 77.8805 102.212 80.8611C99.1968 83.8418 95.3553 85.8717 91.1732 86.694C86.9911 87.5164 82.6561 87.0943 78.7167 85.4812C74.7772 83.8681 71.41 81.1362 69.041 77.6314C66.672 74.1265 65.4077 70.0061 65.4077 65.7908C65.4077 60.1383 67.6791 54.7172 71.7223 50.7203C75.7655 46.7234 81.2492 44.4781 86.9671 44.4781ZM86.9671 41.5551C82.1219 41.553 77.3849 42.9716 73.3552 45.6312C69.3256 48.2908 66.1844 52.0719 64.3288 56.4965C62.4732 60.9211 61.9867 65.7905 62.9307 70.4884C63.8747 75.1864 66.2068 79.5021 69.6322 82.8897C73.0575 86.2773 77.4222 88.5845 82.1742 89.5197C86.9261 90.4549 91.852 89.976 96.3286 88.1435C100.805 86.311 104.631 83.2072 107.323 79.2248C110.016 75.2424 111.452 70.5603 111.452 65.7705C111.452 59.35 108.873 53.1921 104.282 48.6511C99.6899 44.1102 93.462 41.5577 86.9671 41.5551Z" fill="#02517D"/>
<path d="M86.5051 50.9327L91.0531 60.0668L101.248 61.5282L93.8764 68.6325L95.6114 78.6596L86.5051 73.9302L77.3886 78.6596L79.1338 68.6325L71.7523 61.5282L81.9468 60.0668L86.5051 50.9327Z" fill="#A57F2D"/>
<path d="M124.398 134.499L110.795 133.484L101.72 143.369L97.2643 132.226L107.089 121.924L119.85 123.122L124.398 134.499Z" fill="#02517D"/>
<path d="M99.1534 102.946L111.093 104.073L117.684 120.544L106.597 119.529L106.093 119.479L105.744 119.844L97.0281 128.978L90.3346 112.242L99.1534 102.976M98.753 101.962L89.1436 112.11L96.6688 130.927L106.494 120.625L119.255 121.833L111.822 103.24L98.753 102.012V101.962Z" fill="#A57F2D"/>
<path d="M50.4803 135.098L64.0936 134.083L73.1691 143.968L77.6247 132.824L67.7997 122.523L55.0386 123.721L50.4803 135.098Z" fill="#02517D"/>
<path d="M75.7253 103.545L84.5443 112.811L77.8506 129.546L69.1344 120.412L68.7852 120.047H68.2925L57.1946 121.062L63.7855 104.59L75.7253 103.464M76.1257 102.449L63.0566 103.677L55.6238 122.259L68.385 121.062L78.2201 131.363L85.7454 112.547L76.1257 102.449Z" fill="#A57F2D"/>
</g>
<defs>
<clipPath id="clip0_4_377">
<rect width="79" height="117" fill="white" transform="translate(47 27)"/>
</clipPath>
</defs>
</svg>
