<svg width="130" height="130" viewBox="0 0 130 130" fill="none" xmlns="http://www.w3.org/2000/svg">
<g clip-path="url(#clip0_63_164)">
<path d="M73.1696 18.8284L78.6417 24.8194L79.1221 25.3494L79.8253 25.5429L87.7333 27.6801L89.0284 35.6313L89.1485 36.3298L89.6289 36.8598L95.101 42.8591L91.816 50.2383L91.5244 50.8862L91.6445 51.5844L92.9396 59.5356L86.078 63.9951L85.4691 64.3906L85.1774 65.0385L81.8924 72.4176L73.6928 72.544H72.9637L72.3634 72.931L65.5018 77.3989L58.5287 73.1919L57.9112 72.8215H57.182L48.9825 72.9563L45.4573 65.6864L45.14 65.0469L44.5224 64.6683L37.5493 60.4613L38.5872 52.4763L38.6815 51.7779L38.3727 51.13L34.839 43.8687L40.1139 37.7012L40.577 37.1543L40.6713 36.4475L41.7006 28.4625L49.54 26.0731L50.2347 25.8627L50.6979 25.3157L55.9642 19.1481L63.8807 21.2937L64.5754 21.4788L65.2702 21.2684L73.101 18.879M73.8815 16.1023L64.5326 18.9546L55.0979 16.4304L48.8024 23.7927L39.4534 26.6452L38.2183 36.1784L31.9314 43.5407L36.1427 52.207L34.9076 61.7318L43.2273 66.7802L47.4386 75.4552L57.225 75.2954L65.5446 80.3438L73.6928 75.0177L83.4877 74.8578L87.4074 66.065L95.5555 60.739L94.0117 51.2563L97.9314 42.4552L91.4043 35.2948L89.8519 25.8122L80.4172 23.2879L73.8901 16.136L73.8815 16.1023Z" fill="white"/>
<path d="M65.3903 30.4905C68.9527 30.4905 72.435 31.5267 75.3971 33.4683C78.3591 35.4098 80.6677 38.1695 82.0309 41.3982C83.3942 44.6269 83.7508 48.1795 83.0558 51.607C82.3609 55.0346 80.6455 58.1831 78.1265 60.6542C75.6075 63.1254 72.3981 64.8083 68.9042 65.4901C65.4103 66.1718 61.7887 65.8219 58.4975 64.4845C55.2063 63.1471 52.3932 60.8823 50.414 57.9765C48.4349 55.0708 47.3786 51.6548 47.3786 48.1601C47.3786 43.4738 49.2762 38.9794 52.6541 35.6657C56.0319 32.352 60.6133 30.4905 65.3903 30.4905ZM65.3903 28.0671C61.3424 28.0655 57.3849 29.2416 54.0183 31.4465C50.6518 33.6515 48.0275 36.7862 46.4772 40.4545C44.927 44.1227 44.5205 48.1597 45.3092 52.0546C46.0979 55.9496 48.0462 59.5275 50.9079 62.336C53.7696 65.1445 57.416 67.0574 61.386 67.8327C65.356 68.608 69.4713 68.211 73.2112 66.6918C76.9512 65.1725 80.1478 62.5993 82.3969 59.2976C84.6459 55.996 85.8464 52.1142 85.8464 48.1432C85.8464 42.8202 83.6915 37.7149 79.8555 33.9502C76.0195 30.1855 70.8164 28.0694 65.3903 28.0671Z" fill="white"/>
<path d="M65.0043 35.8417L68.8039 43.4143L77.3209 44.626L71.1626 50.5158L72.6121 58.8289L65.0043 54.908L57.3879 58.8289L58.846 50.5158L52.6791 44.626L61.1961 43.4143L65.0043 35.8417Z" fill="#A57F2D"/>
<path d="M96.662 105.123L85.2975 104.282L77.7154 112.477L73.993 103.238L82.2012 94.6981L92.8624 95.691L96.662 105.123Z" fill="white"/>
<path d="M75.5712 78.9638L85.5462 79.8979L91.0526 93.5539L81.7895 92.7125L81.3692 92.6704L81.0775 92.9734L73.7957 100.546L68.2035 86.6711L75.5712 78.9891M75.2366 78.1477L67.2086 86.5618L73.4955 102.162L81.7037 93.6211L92.3649 94.6225L86.1551 79.2079L75.2366 78.1898V78.1477Z" fill="#A57F2D"/>
<path d="M34.9076 105.62L46.2807 104.778L53.8628 112.974L57.5852 103.735L49.377 95.1946L38.7158 96.1874L34.9076 105.62Z" fill="white"/>
<path d="M55.9984 79.4603L63.3661 87.1423L57.7739 101.017L50.492 93.4444L50.2003 93.1416H49.7887L40.517 93.983L46.0234 80.327L55.9984 79.3929M56.3329 78.5515L45.4144 79.5696L39.2047 94.9758L49.8659 93.983L58.0827 102.523L64.3696 86.9235L56.3329 78.5515Z" fill="#A57F2D"/>
</g>
<defs>
<clipPath id="clip0_63_164">
<rect width="66" height="97" fill="white" transform="translate(32 16)"/>
</clipPath>
</defs>
</svg>
