<svg width="100" height="30" viewBox="0 0 100 30" fill="none" xmlns="http://www.w3.org/2000/svg">
<g clip-path="url(#clip0_150_37)">
<path d="M57.1461 24.9655V20.7628H48.1015C47.7191 20.7669 47.3397 20.6984 46.9848 20.5611C46.6299 20.4239 46.3066 20.2207 46.0332 19.9631C45.7598 19.7055 45.5418 19.3985 45.3916 19.0597C45.2414 18.7209 45.1619 18.3569 45.1578 17.9886V15.8512H54.8636V11.7411H45.083V8.22705H56.3889V4.11694H39.3982V18.7695C39.4066 19.5989 39.5846 20.4185 39.9221 21.1815C40.2596 21.9445 40.75 22.636 41.3652 23.2162C41.9804 23.7965 42.7084 24.2542 43.5074 24.5631C44.3064 24.8721 45.1607 25.0262 46.0216 25.0167L57.1461 24.9655Z" fill="#00AA95"/>
<path d="M30.9189 24.9346C30.3812 24.9677 29.8455 24.8442 29.3814 24.5804C28.9174 24.3165 28.5462 23.9243 28.3164 23.4548L23.4848 12.7995H27.4312C27.4312 12.7995 30.4709 12.8612 30.3643 10.2821C30.279 7.93932 27.2392 8.22702 27.0366 8.22702H22.8342V24.9243H17V4.01406H28.4125C28.4125 4.01406 36.1558 3.95233 36.1984 9.84006C36.1984 14.1454 33.212 15.3272 31.2709 15.656C30.5029 15.7793 30.0123 15.7175 29.9056 16.0258C29.7989 16.334 30.2256 16.7247 30.2256 16.7247L37.3717 24.9449L30.9189 24.9346Z" fill="#00AA95"/>
<path d="M83 24.9552L74.4673 14.053L81.9334 4.05518H75.022L70.9157 9.53197L66.6494 4.05518H59.7273L67.5239 14.053L59.3006 24.9755H64.3562C66.2654 24.9755 66.6279 24.4207 67.0972 23.8248L71.0437 18.574L76.0245 24.9552H83Z" fill="#00AA95"/>
</g>
<defs>
<clipPath id="clip0_150_37">
<rect width="66" height="21" fill="white" transform="translate(17 4)"/>
</clipPath>
</defs>
</svg>
