<svg width="100" height="30" viewBox="0 0 100 30" fill="none" xmlns="http://www.w3.org/2000/svg">
<g clip-path="url(#clip0_150_33)">
<mask id="mask0_150_33" style="mask-type:luminance" maskUnits="userSpaceOnUse" x="0" y="7" width="100" height="15">
<path d="M99.9999 7.02588H0V21.9741H99.9999V7.02588Z" fill="white"/>
</mask>
<g mask="url(#mask0_150_33)">
<path d="M48.3057 18.7372C48.1865 18.7297 48.0677 18.7598 47.962 18.824C47.8563 18.8883 47.7676 18.9844 47.7054 19.1022V18.7844H47.227V21.927H47.7358V20.7499C47.802 20.8508 47.8886 20.9316 47.988 20.985C48.0873 21.0383 48.1964 21.0626 48.3057 21.056C48.9061 21.056 49.1299 20.491 49.1299 19.8789C49.1299 19.2669 48.9061 18.7019 48.3159 18.7019M48.1734 20.5853C47.8478 20.5853 47.7358 20.1735 47.7358 19.8557C47.7358 19.5379 47.8681 19.1493 48.1836 19.1493C48.4991 19.1493 48.6009 19.5614 48.6009 19.8557C48.6009 20.1499 48.5092 20.5853 48.1734 20.5853Z" fill="#090909"/>
<path d="M50.0153 17.8192H49.5167V18.3724H50.0153V17.8192Z" fill="#090909"/>
<path d="M50.0153 18.7844H49.5167V21.0208H50.0153V18.7844Z" fill="#090909"/>
<path d="M51.6435 18.7372C51.5241 18.7284 51.4048 18.7579 51.2989 18.8223C51.193 18.8867 51.1044 18.9835 51.043 19.1022V18.7844H50.5648V21.927H51.0634V20.7499C51.1267 20.8514 51.2113 20.9329 51.3092 20.9864C51.4071 21.0399 51.5151 21.0638 51.6231 21.056C52.2337 21.056 52.4473 20.491 52.4473 19.8789C52.4473 19.2669 52.2337 18.7019 51.6435 18.7019M51.501 20.5853C51.1652 20.5853 51.0532 20.1735 51.0532 19.8557C51.0532 19.5379 51.1856 19.1493 51.5112 19.1493C51.8368 19.1493 51.9283 19.5614 51.9283 19.8557C51.9283 20.1499 51.8266 20.5853 51.501 20.5853Z" fill="#090909"/>
<path d="M53.6176 18.7372C53.489 18.7358 53.3616 18.7665 53.2442 18.8272C53.1267 18.8878 53.022 18.977 52.937 19.0887C52.852 19.2004 52.7889 19.3321 52.7518 19.4746C52.7147 19.6171 52.7046 19.7669 52.7221 19.9143C52.7057 20.0734 52.7208 20.2347 52.7662 20.3861C52.8116 20.5375 52.886 20.6751 52.984 20.7884C53.0819 20.9017 53.2009 20.988 53.3318 21.0404C53.4627 21.0929 53.6021 21.1102 53.7397 21.0913C53.9697 21.1 54.1977 21.0392 54.4012 20.9148V20.4442C54.207 20.5796 53.9866 20.6565 53.7601 20.6677C53.6913 20.6759 53.6218 20.6673 53.556 20.6427C53.4902 20.6182 53.4295 20.578 53.3779 20.5249C53.3262 20.4718 53.2847 20.4068 53.2559 20.3341C53.2271 20.2614 53.2116 20.1827 53.2105 20.1028H54.5437C54.5437 19.3259 54.3401 18.7608 53.6278 18.7608M53.2105 19.7025C53.2091 19.634 53.2198 19.566 53.2418 19.5025C53.2638 19.4389 53.2967 19.3811 53.3386 19.3326C53.3805 19.2842 53.4304 19.2463 53.4853 19.2209C53.5403 19.1954 53.5992 19.183 53.6583 19.1846C53.9331 19.1846 54.0451 19.42 54.0654 19.7025H53.2105Z" fill="#090909"/>
<path d="M55.8258 20.597C55.6427 20.597 55.5918 20.4204 55.5918 20.2321V19.1846H56.0395V18.7608H55.5918V18.1251L55.0932 18.3136V18.7608H54.7166V19.1846H55.0932V20.3617C55.0837 20.4576 55.0928 20.5548 55.12 20.6461C55.1472 20.7374 55.1917 20.8204 55.2502 20.8892C55.3087 20.9581 55.3798 21.0109 55.4583 21.0438C55.5367 21.0768 55.6206 21.0889 55.7037 21.0795C55.8252 21.1003 55.9486 21.1003 56.07 21.0795V20.597C55.9973 20.6383 55.917 20.6586 55.836 20.6559" fill="#090909"/>
<path d="M57.2708 18.7372C57.0009 18.7372 56.7422 18.8613 56.5513 19.082C56.3605 19.3028 56.2532 19.602 56.2532 19.9142C56.2425 20.0719 56.2615 20.2304 56.3089 20.3789C56.3562 20.5273 56.4308 20.6621 56.5275 20.774C56.6242 20.8859 56.7408 20.9724 56.8691 21.0272C56.9974 21.0819 57.1345 21.1036 57.2708 21.0912C57.4072 21.1036 57.5443 21.0819 57.6727 21.0272C57.801 20.9724 57.9174 20.8859 58.0141 20.774C58.1109 20.6621 58.1855 20.5273 58.2329 20.3789C58.2802 20.2304 58.2991 20.0719 58.2884 19.9142C58.2884 19.602 58.1813 19.3028 57.9904 19.082C57.7996 18.8613 57.5407 18.7372 57.2708 18.7372ZM57.2708 20.6205C56.8841 20.6205 56.7824 20.2205 56.7824 19.8438C56.7754 19.7631 56.7827 19.6813 56.8037 19.6039C56.8248 19.5265 56.8591 19.4548 56.9047 19.3932C56.9504 19.3316 57.0064 19.2814 57.0693 19.2455C57.1323 19.2096 57.2008 19.189 57.2708 19.1846C57.3414 19.1873 57.4108 19.2067 57.4744 19.2421C57.5381 19.2774 57.5946 19.3278 57.6405 19.3898C57.6864 19.4518 57.7208 19.524 57.7412 19.6021C57.7617 19.6803 57.7679 19.7628 57.7594 19.8438C57.7594 20.2205 57.6575 20.6205 57.2708 20.6205Z" fill="#090909"/>
<path d="M59.5604 18.7372C59.2905 18.7372 59.0318 18.8613 58.8409 19.082C58.6501 19.3028 58.5428 19.602 58.5428 19.9142C58.5321 20.0719 58.5511 20.2304 58.5985 20.3789C58.6458 20.5273 58.7204 20.6621 58.8171 20.774C58.9138 20.8859 59.0304 20.9724 59.1587 21.0272C59.287 21.0819 59.4241 21.1036 59.5604 21.0912C59.6968 21.1036 59.834 21.0819 59.9623 21.0272C60.0906 20.9724 60.207 20.8859 60.3038 20.774C60.4005 20.6621 60.4752 20.5273 60.5225 20.3789C60.5699 20.2304 60.5887 20.0719 60.578 19.9142C60.578 19.602 60.4709 19.3028 60.28 19.082C60.0892 18.8613 59.8303 18.7372 59.5604 18.7372ZM59.5604 20.6205C59.1737 20.6205 59.072 20.2205 59.072 19.8438C59.065 19.7631 59.0723 19.6813 59.0934 19.6039C59.1144 19.5265 59.1487 19.4548 59.1944 19.3932C59.24 19.3316 59.296 19.2814 59.3589 19.2455C59.4219 19.2096 59.4904 19.189 59.5604 19.1846C59.631 19.1873 59.7004 19.2067 59.764 19.2421C59.8277 19.2774 59.8842 19.3278 59.9301 19.3898C59.976 19.4518 60.0104 19.524 60.0308 19.6021C60.0513 19.6803 60.0575 19.7628 60.049 19.8438C60.049 20.2205 59.9471 20.6205 59.5604 20.6205Z" fill="#090909"/>
<path d="M61.4735 17.7604H60.9749V21.009H61.4735V17.7604Z" fill="#090909"/>
<path d="M63.9055 20.597C63.7224 20.597 63.6715 20.4204 63.6715 20.2321V19.1846H64.1193V18.7608H63.6715V18.1251L63.1729 18.3136V18.7608H62.7964V19.1846H63.1729V20.3617C63.1634 20.4576 63.1726 20.5548 63.1997 20.6461C63.2269 20.7374 63.2714 20.8204 63.3299 20.8892C63.3884 20.9581 63.4596 21.0109 63.5381 21.0438C63.6166 21.0768 63.7004 21.0889 63.7834 21.0795C63.9049 21.1003 64.0283 21.1003 64.1498 21.0795V20.597C64.077 20.6383 63.9967 20.6586 63.9157 20.6559" fill="#090909"/>
<path d="M65.2081 18.7372C65.0795 18.7358 64.9522 18.7665 64.8347 18.8272C64.7173 18.8878 64.6125 18.977 64.5275 19.0887C64.4425 19.2004 64.3794 19.3321 64.3423 19.4746C64.3052 19.6171 64.2951 19.7669 64.3126 19.9143C64.2963 20.0734 64.3114 20.2347 64.3567 20.3861C64.4021 20.5375 64.4765 20.6751 64.5745 20.7884C64.6724 20.9017 64.7914 20.988 64.9223 21.0404C65.0532 21.0929 65.1926 21.1102 65.3302 21.0913C65.5602 21.1 65.7882 21.0392 65.9917 20.9148V20.4442C65.7981 20.5811 65.5773 20.658 65.3506 20.6677C65.2818 20.6759 65.2123 20.6673 65.1465 20.6427C65.0807 20.6182 65.02 20.578 64.9684 20.5249C64.9167 20.4718 64.8752 20.4068 64.8464 20.3341C64.8176 20.2614 64.8021 20.1827 64.801 20.1028H66.1342C66.1342 19.3259 65.9306 18.7608 65.2183 18.7608M64.801 19.7025C64.7997 19.634 64.8103 19.566 64.8324 19.5025C64.8544 19.4389 64.8873 19.3811 64.9291 19.3326C64.971 19.2842 65.0209 19.2463 65.0758 19.2209C65.1308 19.1954 65.1897 19.183 65.2489 19.1846C65.5236 19.1846 65.6355 19.42 65.6558 19.7025H64.801Z" fill="#090909"/>
<path d="M67.4672 20.597C67.1212 20.597 66.9482 20.2791 66.9482 19.8671C66.9482 19.4551 67.1517 19.1611 67.457 19.1611C67.5762 19.1581 67.6945 19.1864 67.803 19.2435V18.7843C67.6441 18.7332 67.4794 18.7093 67.3145 18.7136C67.1835 18.7093 67.0532 18.7377 66.9324 18.7967C66.8116 18.8556 66.7033 18.9437 66.6145 19.0553C66.5258 19.1669 66.4587 19.2994 66.418 19.4435C66.3773 19.5876 66.3638 19.74 66.3784 19.8907C66.3634 20.0434 66.3773 20.1983 66.4192 20.3441C66.4612 20.49 66.5301 20.6235 66.6211 20.7355C66.7121 20.8475 66.823 20.935 66.9463 20.9924C67.0696 21.0498 67.2022 21.0755 67.3349 21.0677C67.5031 21.0718 67.671 21.0483 67.8335 20.9973V20.5145C67.7119 20.5789 67.5804 20.615 67.4468 20.6206" fill="#090909"/>
<path d="M69.3294 18.7372C69.2105 18.7343 69.0927 18.765 68.9863 18.8265C68.88 18.8881 68.7881 18.9786 68.7188 19.0903V17.7722H68.2202V21.0208H68.7188V19.926C68.7188 19.6435 68.8002 19.1846 69.1666 19.1846C69.5329 19.1846 69.4922 19.5495 69.4922 19.832V21.009H69.9908V19.5964C69.9908 19.0903 69.7975 18.7254 69.3396 18.7254" fill="#090909"/>
<path d="M71.619 18.7372C71.4964 18.727 71.3735 18.7543 71.2628 18.8163C71.1521 18.8782 71.0573 18.9728 70.9881 19.0904V18.7844H70.5098V21.0209H71.0186V19.9261C71.0186 19.6436 71.0899 19.1847 71.4562 19.1847C71.8225 19.1847 71.7818 19.5496 71.7818 19.8321V21.0091H72.2804V19.5965C72.2804 19.0903 72.0872 18.7255 71.6292 18.7255" fill="#090909"/>
<path d="M73.6746 18.7372C73.4047 18.7372 73.1459 18.8613 72.9551 19.082C72.7642 19.3028 72.657 19.602 72.657 19.9142C72.6462 20.0719 72.6653 20.2304 72.7126 20.3789C72.76 20.5273 72.8345 20.6621 72.9312 20.774C73.028 20.8859 73.1445 20.9724 73.2728 21.0272C73.4012 21.0819 73.5382 21.1036 73.6746 21.0912C73.8105 21.1016 73.9469 21.0783 74.0744 21.0228C74.202 20.9674 74.3178 20.8811 74.4142 20.7697C74.5105 20.6582 74.5852 20.5244 74.6332 20.3769C74.6811 20.2293 74.7012 20.0715 74.6922 19.9142C74.6922 19.602 74.585 19.3028 74.3942 19.082C74.2033 18.8613 73.9444 18.7372 73.6746 18.7372ZM73.6746 20.6205C73.298 20.6205 73.1963 20.2205 73.1963 19.8438C73.1878 19.7637 73.1937 19.6824 73.2136 19.605C73.2334 19.5276 73.2667 19.4556 73.3116 19.3938C73.3564 19.332 73.4119 19.2815 73.4743 19.2455C73.5368 19.2095 73.6049 19.1888 73.6746 19.1846C73.7451 19.1873 73.8145 19.2067 73.8782 19.2421C73.9418 19.2774 73.9983 19.3278 74.0442 19.3898C74.0902 19.4518 74.1245 19.524 74.145 19.6021C74.1654 19.6803 74.1716 19.7628 74.1631 19.8438C74.1631 20.2205 74.0613 20.6205 73.6746 20.6205Z" fill="#090909"/>
<path d="M75.5877 17.7604H75.0891V21.009H75.5877V17.7604Z" fill="#090909"/>
<path d="M77.0123 18.7372C76.7424 18.7372 76.4837 18.8613 76.2929 19.082C76.102 19.3028 75.9947 19.602 75.9947 19.9142C75.984 20.0719 76.003 20.2304 76.0504 20.3789C76.0977 20.5273 76.1723 20.6621 76.269 20.774C76.3657 20.8859 76.4823 20.9724 76.6106 21.0272C76.7389 21.0819 76.876 21.1036 77.0123 21.0912C77.1487 21.1036 77.2857 21.0819 77.4141 21.0272C77.5424 20.9724 77.6589 20.8859 77.7557 20.774C77.8524 20.6621 77.9271 20.5273 77.9744 20.3789C78.0218 20.2304 78.0407 20.0719 78.0299 19.9142C78.0299 19.602 77.9228 19.3028 77.7319 19.082C77.5411 18.8613 77.2822 18.7372 77.0123 18.7372ZM77.0123 20.6205C76.6256 20.6205 76.5239 20.2205 76.5239 19.8438C76.5169 19.7631 76.5241 19.6813 76.5451 19.6039C76.5662 19.5265 76.6006 19.4548 76.6463 19.3932C76.6919 19.3316 76.7479 19.2814 76.8108 19.2455C76.8738 19.2096 76.9423 19.189 77.0123 19.1846C77.338 19.1846 77.4906 19.5025 77.4906 19.8438C77.4906 20.1851 77.399 20.6205 77.0123 20.6205Z" fill="#090909"/>
<path d="M79.709 19.0902C79.6487 18.9737 79.5616 18.879 79.4573 18.8166C79.3531 18.7542 79.2359 18.7266 79.1188 18.737C78.5388 18.737 78.3047 19.3491 78.3047 19.9141C78.3047 20.479 78.5184 21.0911 79.0883 21.0911C79.2062 21.0974 79.3235 21.0682 79.4287 21.0063C79.534 20.9444 79.6235 20.8522 79.6886 20.7382C79.6886 21.1149 79.6887 21.5974 79.1086 21.5974C78.9095 21.5805 78.7155 21.5162 78.5387 21.4089V21.9035C78.7514 22.0063 78.9799 22.0582 79.2104 22.0563C79.3479 22.0753 79.4874 22.0579 79.6183 22.0055C79.7492 21.953 79.8682 21.8668 79.9661 21.7535C80.0641 21.6401 80.1385 21.5026 80.1839 21.3511C80.2292 21.1997 80.2443 21.0384 80.228 20.8793V18.8666H79.7497L79.709 19.0902ZM79.2409 20.5733C78.956 20.5733 78.8135 20.1965 78.8135 19.8905C78.8135 19.5845 78.9255 19.1845 79.2613 19.1845C79.5971 19.1845 79.6886 19.5021 79.6886 19.8787C79.6886 20.2554 79.5564 20.5733 79.2409 20.5733Z" fill="#090909"/>
<path d="M81.2151 18.7844H80.7164V21.0208H81.2151V18.7844Z" fill="#090909"/>
<path d="M81.2151 17.8192H80.7164V18.3724H81.2151V17.8192Z" fill="#090909"/>
<path d="M82.5074 18.7372C82.3788 18.7358 82.2515 18.7665 82.134 18.8272C82.0166 18.8878 81.9118 18.977 81.8268 19.0887C81.7419 19.2004 81.6787 19.3321 81.6416 19.4746C81.6045 19.6171 81.5944 19.7669 81.6119 19.9143C81.5956 20.0734 81.6107 20.2347 81.656 20.3861C81.7014 20.5375 81.7758 20.6751 81.8738 20.7884C81.9718 20.9017 82.0907 20.988 82.2216 21.0404C82.3525 21.0929 82.492 21.1102 82.6295 21.0913C82.8596 21.1011 83.0879 21.0403 83.291 20.9148V20.4442C83.0974 20.5811 82.8767 20.658 82.6499 20.6677C82.5811 20.6759 82.5116 20.6673 82.4458 20.6427C82.38 20.6182 82.3194 20.578 82.2677 20.5249C82.216 20.4718 82.1745 20.4068 82.1457 20.3341C82.1169 20.2614 82.1014 20.1827 82.1004 20.1028H83.4335C83.4335 19.3259 83.2299 18.7608 82.5176 18.7608M82.1004 19.7025C82.099 19.634 82.1097 19.566 82.1317 19.5025C82.1537 19.4389 82.1866 19.3811 82.2284 19.3326C82.2703 19.2842 82.3202 19.2463 82.3751 19.2209C82.4301 19.1954 82.489 19.183 82.5482 19.1846C82.8331 19.1846 82.9449 19.42 82.9551 19.7025H82.1004Z" fill="#090909"/>
<path d="M84.2271 19.4201C84.2271 19.2318 84.39 19.1729 84.5222 19.1729C84.6786 19.1715 84.8339 19.2035 84.9802 19.2672V18.8316C84.8012 18.7753 84.6163 18.7475 84.4307 18.7491C84.044 18.7491 83.6777 18.9611 83.6777 19.4436C83.6777 20.244 84.5528 19.9498 84.5528 20.3853C84.5528 20.5972 84.3493 20.656 84.217 20.656C84.0472 20.6509 83.8804 20.6025 83.7285 20.5146V20.9856C83.9139 21.0466 84.1056 21.0781 84.2984 21.0796C84.7054 21.0796 85.1023 20.8796 85.1023 20.35C85.1023 19.5496 84.2271 19.7732 84.2271 19.4201Z" fill="#090909"/>
<path d="M88.1245 19.9613V19.6789C88.1245 19.0197 87.8802 18.7372 87.29 18.7372C87.0589 18.7397 86.8306 18.7959 86.6185 18.9021V19.3964C86.789 19.2483 86.9955 19.166 87.2087 19.161C87.5038 19.161 87.6463 19.2786 87.6463 19.6435H87.3715C87.1489 19.6326 86.9269 19.6769 86.7202 19.7731C86.6164 19.828 86.5295 19.9181 86.4713 20.0317C86.4131 20.1454 86.3863 20.277 86.3945 20.4088C86.3996 20.5037 86.4213 20.5964 86.4581 20.6815C86.495 20.7665 86.5462 20.8423 86.6089 20.9039C86.6717 20.9654 86.7445 21.0116 86.8231 21.0398C86.9017 21.068 86.9843 21.0774 87.0662 21.0677C87.1867 21.068 87.3052 21.0325 87.4104 20.9645C87.5155 20.8965 87.6037 20.7983 87.6665 20.6795C87.6665 20.7501 87.6665 20.9031 87.6665 21.0208H88.1042C88.1042 20.8443 88.1042 20.6911 88.1042 20.5145C88.1042 20.338 88.1042 20.185 88.1042 19.9613M87.5444 20.4441C87.5023 20.5068 87.4483 20.5574 87.3865 20.5921C87.3248 20.6268 87.2569 20.6446 87.1883 20.6441C87.0051 20.6441 86.8729 20.5617 86.8729 20.3734C86.8729 20.1851 87.2086 19.9849 87.4325 19.9849H87.6463C87.6575 20.1467 87.6216 20.3084 87.5444 20.4441Z" fill="#090909"/>
<path d="M89.5187 20.597C89.3355 20.597 89.2847 20.4204 89.2847 20.2321V19.1846H89.7324V18.7608H89.2847V18.1251L88.7861 18.3136V18.7608H88.4095V19.1846H88.7861V20.3617C88.7766 20.4576 88.7857 20.5548 88.8129 20.6461C88.8401 20.7374 88.8845 20.8204 88.9431 20.8892C89.0016 20.9581 89.0727 21.0109 89.1511 21.0438C89.2296 21.0768 89.3135 21.0889 89.3966 21.0795C89.518 21.1003 89.6415 21.1003 89.7629 21.0795V20.597C89.6902 20.6383 89.6099 20.6586 89.5289 20.6559" fill="#090909"/>
<path d="M93.2736 20.4323H93.2634L92.836 18.7844H92.256L91.8693 20.4323H91.8591L91.4317 18.7844H90.9026L91.5539 21.0208H92.1237L92.5409 19.3141L92.9683 21.0208H93.5585L94.1487 18.7844H93.6705L93.2736 20.4323Z" fill="#090909"/>
<path d="M95.3394 18.7372C95.0695 18.7372 94.8108 18.8613 94.6199 19.082C94.4291 19.3028 94.3218 19.602 94.3218 19.9142C94.3111 20.0719 94.3301 20.2304 94.3775 20.3789C94.4248 20.5273 94.4994 20.6621 94.5961 20.774C94.6928 20.8859 94.8094 20.9724 94.9377 21.0272C95.066 21.0819 95.2031 21.1036 95.3394 21.0912C95.4758 21.1036 95.6128 21.0819 95.7411 21.0272C95.8695 20.9724 95.986 20.8859 96.0827 20.774C96.1795 20.6621 96.254 20.5273 96.3014 20.3789C96.3487 20.2304 96.3677 20.0719 96.357 19.9142C96.357 19.602 96.2499 19.3028 96.059 19.082C95.8682 18.8613 95.6093 18.7372 95.3394 18.7372ZM95.3394 20.6205C94.9527 20.6205 94.851 20.2205 94.851 19.8438C94.844 19.7631 94.8512 19.6813 94.8722 19.6039C94.8933 19.5265 94.9277 19.4548 94.9733 19.3932C95.019 19.3316 95.075 19.2814 95.1379 19.2455C95.2009 19.2096 95.2694 19.189 95.3394 19.1846C95.41 19.1873 95.4792 19.2067 95.5429 19.2421C95.6065 19.2774 95.6632 19.3278 95.7091 19.3898C95.755 19.4518 95.7894 19.524 95.8098 19.6021C95.8303 19.6803 95.8364 19.7628 95.8278 19.8438C95.8278 20.2205 95.7261 20.6205 95.3394 20.6205Z" fill="#090909"/>
<path d="M97.2015 19.2904V18.7844H96.7538V21.0209H97.2525V20.1968C97.2525 19.879 97.2525 19.2904 97.6595 19.2904C97.7365 19.2694 97.8166 19.2694 97.8936 19.2904V18.7019H97.7307C97.6035 18.7183 97.4841 18.7808 97.3891 18.8801C97.2941 18.9793 97.2285 19.1106 97.2015 19.2554" fill="#090909"/>
</g>
<mask id="mask1_150_33" style="mask-type:luminance" maskUnits="userSpaceOnUse" x="0" y="7" width="100" height="15">
<path d="M99.9999 7.02588H0V21.9741H99.9999V7.02588Z" fill="white"/>
</mask>
<g mask="url(#mask1_150_33)">
<path d="M99.9084 18.7844H99.3182L98.7178 19.6789H98.7076V17.7604H98.209V21.0207H98.7076V19.9261H98.7178L99.3589 21.0207H100L99.1859 19.7849L99.9084 18.7844Z" fill="#090909"/>
<path d="M12.079 18.5961C9.44368 18.6024 6.91301 17.4031 5.03911 15.2598C3.16521 13.1166 2.10003 10.2034 2.07586 7.1554H0.0406494C0.0621561 10.8434 1.34465 14.3717 3.60785 16.9696C5.87106 19.5676 8.93106 21.024 12.1196 21.0208C14.8326 21.0267 17.4681 19.9733 19.5991 18.0311L18.734 15.6771C16.9106 17.5487 14.5575 18.583 12.1196 18.5843" fill="#E92127"/>
</g>
<mask id="mask2_150_33" style="mask-type:luminance" maskUnits="userSpaceOnUse" x="0" y="7" width="100" height="15">
<path d="M99.9999 7.02588H0V21.9741H99.9999V7.02588Z" fill="white"/>
</mask>
<g mask="url(#mask2_150_33)">
<path d="M63.1017 14.2411C63.2224 13.9058 63.2812 13.5448 63.2746 13.1816C63.2746 12.1459 62.7659 11.5457 61.789 11.3103C62.1733 11.2014 62.5126 10.9404 62.7485 10.573C62.9845 10.2055 63.1022 9.75443 63.0813 9.29738C63.0813 7.83787 62.0636 7.1554 60.7 7.1554H57.3217V15.6889H60.3745C60.8949 15.7669 61.4237 15.6722 61.8994 15.4159C62.375 15.1595 62.7779 14.7522 63.061 14.2411H63.1017ZM59.2755 8.75599H59.8453C60.4966 8.75599 61.1275 8.82658 61.1275 9.60342C61.1275 10.3803 60.466 10.5098 59.8249 10.5098H59.2755V8.75599ZM59.8555 14.0408H59.2755V12.04H59.8759C60.5475 12.04 61.3209 12.1225 61.3209 13.0523C61.3209 13.9822 60.5678 14.0408 59.8555 14.0408Z" fill="#090909"/>
<path d="M16.4954 11.4985C16.9419 11.4117 17.347 11.1434 17.6379 10.7421C17.9289 10.3409 18.0866 9.83276 18.0828 9.30906C18.0828 7.84955 16.8923 7.14353 15.6304 7.1553H12.0077V15.6888H13.9717V12.3577H14.2871C15.0198 12.3577 15.488 12.2398 16.0273 13.9936L16.5463 15.6888H18.6934L17.7776 13.1933C17.401 12.1458 17.1365 11.6986 16.4954 11.4985ZM14.7755 10.7568H13.9717V8.7559H14.7857C15.5591 8.7559 16.1087 8.94432 16.1087 9.7447C16.1087 10.5451 15.5591 10.7568 14.7755 10.7568Z" fill="#090909"/>
</g>
<mask id="mask3_150_33" style="mask-type:luminance" maskUnits="userSpaceOnUse" x="0" y="7" width="100" height="15">
<path d="M99.9999 7.02588H0V21.9741H99.9999V7.02588Z" fill="white"/>
</mask>
<g mask="url(#mask3_150_33)">
<path d="M27.0479 9.09742H29.0322L29.0424 15.6888H30.9962V9.09742H32.9805V7.14355H27.0479V9.09742Z" fill="#090909"/>
<path d="M22.8452 7.02591C22.3439 7.01806 21.8464 7.12618 21.3816 7.34373C20.9169 7.56129 20.4944 7.88395 20.139 8.29289C19.7835 8.70182 19.5022 9.18874 19.3117 9.72509C19.1211 10.2614 19.0251 10.8363 19.0292 11.4162C19.0218 12.4441 19.324 13.443 19.8839 14.2413C20.2462 14.7463 20.7003 15.1525 21.214 15.4312C21.7276 15.7099 22.288 15.8542 22.8554 15.8536C23.4212 15.8541 23.9801 15.7097 24.4921 15.4309C25.0041 15.1521 25.4564 14.746 25.8166 14.2413C26.3766 13.443 26.6787 12.4441 26.6714 11.4162C26.6742 10.8358 26.5769 10.2606 26.3852 9.72423C26.1935 9.18782 25.9112 8.70109 25.5549 8.29231C25.1987 7.88353 24.7756 7.56087 24.3104 7.34345C23.8451 7.12603 23.347 7.01808 22.8452 7.02591ZM22.8452 13.9588C21.6444 13.9588 21.0542 12.7816 21.0542 11.4162C21.0542 10.0509 21.675 8.88571 22.8656 8.88571C24.0562 8.88571 24.6464 10.0626 24.6464 11.428C24.6464 12.7933 24.046 13.9588 22.8452 13.9588Z" fill="#090909"/>
<path d="M82.1513 12.3577H83.6471V13.9115C83.3331 14.0985 82.9824 14.1877 82.6295 14.1704C82.3212 14.1978 82.0113 14.1515 81.719 14.0348C81.4267 13.918 81.1582 13.7333 80.9302 13.4916C80.7022 13.25 80.5195 12.9568 80.3935 12.6301C80.2674 12.3035 80.2007 11.9504 80.1975 11.5928C80.1928 11.1764 80.2681 10.7639 80.4179 10.3853C80.5678 10.0067 80.7885 9.67137 81.064 9.40337C81.3395 9.13537 81.663 8.94138 82.0112 8.83554C82.3593 8.72971 82.7235 8.7146 83.0774 8.79129C83.4793 8.8493 83.8707 8.98048 84.2373 9.1798L84.9903 7.75564C84.3402 7.37059 83.6319 7.13466 82.9043 7.06109C80.4722 6.7786 78.264 8.52062 78.264 11.4867C78.2526 12.494 78.5562 13.4722 79.1189 14.2411C79.5172 14.7575 80.0068 15.1686 80.5546 15.4468C81.1024 15.7251 81.6956 15.8637 82.2938 15.8535C83.3431 15.9127 84.3831 15.6006 85.2753 14.9589V10.7568H82.2225L82.1513 12.3577Z" fill="#090909"/>
</g>
<mask id="mask4_150_33" style="mask-type:luminance" maskUnits="userSpaceOnUse" x="0" y="7" width="100" height="15">
<path d="M99.9999 7.02588H0V21.9741H99.9999V7.02588Z" fill="white"/>
</mask>
<g mask="url(#mask4_150_33)">
<path d="M47.5221 14.0763H44.1844V12.1106H47.227V10.5099H44.1844V8.75608H47.4V7.14355H42.2306V15.6888H47.5221V14.0763Z" fill="#090909"/>
<path d="M38.5367 10.5099H36.2166L36.2267 7.14355H34.2628V15.6888H36.2166V12.1106H38.5367V15.6888H40.4905V7.14355H38.5367V10.5099Z" fill="#090909"/>
<path d="M50.7785 9.83895L53.3021 15.6888H55.6528V7.14355H53.9127V12.911L51.5111 7.14355H49.0994V15.6888H50.7785V9.83895Z" fill="#090909"/>
<path d="M69.8891 14.0763H66.5513V12.1106H69.594V10.5099H66.5513V8.75608H69.7771V7.14355H64.5975V15.6888H69.8891V14.0763Z" fill="#090909"/>
<path d="M77.053 13.1933C76.6765 12.1458 76.4119 11.6986 75.7708 11.4985C76.2174 11.4117 76.6224 11.1434 76.9134 10.7421C77.2044 10.3409 77.3621 9.83276 77.3582 9.30906C77.3582 7.84955 76.1677 7.14353 74.9059 7.1553H71.3137V15.6888H73.2778V12.3577H73.5931C74.3258 12.3577 74.7939 12.2398 75.3434 13.9936L75.8522 15.6888H77.9893L77.053 13.1933ZM74.0002 10.7568H73.1963V8.7559H74.0104C74.7838 8.7559 75.3332 8.94432 75.3332 9.7447C75.3332 10.5451 74.7838 10.7568 74.0002 10.7568Z" fill="#090909"/>
<path d="M91.9304 14.0763H88.5927V12.1106H91.6353V10.5099H88.5927V8.75608H91.8185V7.14355H86.6389V15.6888H91.9304V14.0763Z" fill="#090909"/>
<path d="M97.863 15.6888H99.9999L99.0842 13.1933C98.7179 12.1458 98.4431 11.6986 97.8122 11.4985C98.2587 11.4117 98.6638 11.1434 98.9548 10.7421C99.2457 10.3409 99.4034 9.83276 99.3996 9.30906C99.3996 7.84955 98.209 7.14353 96.9471 7.1553H93.3245V15.6888H95.2886V12.3577H95.6039C96.3366 12.3577 96.8047 12.2398 97.344 13.9936L97.863 15.6888ZM96.0924 10.7568H95.2886V8.7559H96.0924C96.8759 8.7559 97.4255 8.94432 97.4255 9.7447C97.4255 10.5451 96.8759 10.7568 96.0924 10.7568Z" fill="#090909"/>
</g>
</g>
<defs>
<clipPath id="clip0_150_33">
<rect width="100" height="15" fill="white" transform="translate(0 7)"/>
</clipPath>
</defs>
</svg>
