<svg width="100" height="30" viewBox="0 0 100 30" fill="none" xmlns="http://www.w3.org/2000/svg">
<g clip-path="url(#clip0_150_41)">
<path d="M34.9229 6.27151L32.5556 8.68443H24.968L22.6007 6.27151L28.7618 0.0189209L34.9229 6.27151Z" fill="#E01F26"/>
<path d="M33.2792 15.8182H32.5452V17.1506H33.2689C33.3594 17.1619 33.4512 17.1526 33.5377 17.1231C33.6241 17.0937 33.703 17.0452 33.7685 16.9807C33.8339 16.9163 33.8843 16.8378 33.9159 16.751C33.9475 16.6642 33.9596 16.5714 33.9512 16.4792C33.9543 16.3898 33.9388 16.3007 33.9059 16.2177C33.8729 16.1347 33.8231 16.0595 33.7598 15.9972C33.6965 15.9349 33.621 15.8869 33.5382 15.8561C33.4554 15.8253 33.3672 15.8123 33.2792 15.8182ZM33.2172 12.9437H32.5452V14.2655H33.2276C33.3187 14.2752 33.4107 14.2632 33.4965 14.2305C33.5822 14.1977 33.6592 14.1453 33.7214 14.077C33.7836 14.0088 33.8293 13.9268 33.8548 13.8376C33.8804 13.7483 33.885 13.6542 33.8685 13.5627C33.8686 13.4021 33.8071 13.2479 33.6972 13.1324C33.5872 13.017 33.4374 12.9491 33.2792 12.9437H33.2172ZM21.66 13.1012H20.9777V14.9686H21.6497C21.6497 14.9686 22.3733 14.9684 22.3733 13.9928C22.3733 13.0171 21.6807 13.1012 21.6703 13.1012H21.66ZM21.66 13.1012H20.9777V14.9686H21.6497C21.6497 14.9686 22.3733 14.9684 22.3733 13.9928C22.3733 13.0171 21.6807 13.1012 21.6703 13.1012H21.66ZM33.2172 12.9437H32.5452V14.2655H33.2276C33.3187 14.2752 33.4107 14.2632 33.4965 14.2305C33.5822 14.1977 33.6592 14.1453 33.7214 14.077C33.7836 14.0088 33.8293 13.9268 33.8548 13.8376C33.8804 13.7483 33.885 13.6542 33.8685 13.5627C33.8686 13.4021 33.8071 13.2479 33.6972 13.1324C33.5872 13.017 33.4374 12.9491 33.2792 12.9437H33.2172ZM33.2792 15.8182H32.5452V17.1506H33.2689C33.3594 17.1619 33.4512 17.1526 33.5377 17.1231C33.6241 17.0937 33.703 17.0452 33.7685 16.9807C33.8339 16.9163 33.8843 16.8378 33.9159 16.751C33.9475 16.6642 33.9596 16.5714 33.9512 16.4792C33.9543 16.3898 33.9388 16.3007 33.9059 16.2177C33.8729 16.1347 33.8231 16.0595 33.7598 15.9972C33.6965 15.9349 33.621 15.8869 33.5382 15.8561C33.4554 15.8253 33.3672 15.8123 33.2792 15.8182ZM33.2792 15.8182H32.5452V17.1506H33.2689C33.3594 17.1619 33.4512 17.1526 33.5377 17.1231C33.6241 17.0937 33.703 17.0452 33.7685 16.9807C33.8339 16.9163 33.8843 16.8378 33.9159 16.751C33.9475 16.6642 33.9596 16.5714 33.9512 16.4792C33.9543 16.3898 33.9388 16.3007 33.9059 16.2177C33.8729 16.1347 33.8231 16.0595 33.7598 15.9972C33.6965 15.9349 33.621 15.8869 33.5382 15.8561C33.4554 15.8253 33.3672 15.8123 33.2792 15.8182ZM33.2172 12.9437H32.5452V14.2655H33.2276C33.3187 14.2752 33.4107 14.2632 33.4965 14.2305C33.5822 14.1977 33.6592 14.1453 33.7214 14.077C33.7836 14.0088 33.8293 13.9268 33.8548 13.8376C33.8804 13.7483 33.885 13.6542 33.8685 13.5627C33.8686 13.4021 33.8071 13.2479 33.6972 13.1324C33.5872 13.017 33.4374 12.9491 33.2792 12.9437H33.2172ZM21.66 13.1012H20.9777V14.9686H21.6497C21.6497 14.9686 22.3733 14.9684 22.3733 13.9928C22.3733 13.0171 21.6807 13.1012 21.6703 13.1012H21.66ZM21.66 13.1012H20.9777V14.9686H21.6497C21.6497 14.9686 22.3733 14.9684 22.3733 13.9928C22.3733 13.0171 21.6807 13.1012 21.6703 13.1012H21.66ZM33.2172 12.9437H32.5452V14.2655H33.2276C33.3187 14.2752 33.4107 14.2632 33.4965 14.2305C33.5822 14.1977 33.6592 14.1453 33.7214 14.077C33.7836 14.0088 33.8293 13.9268 33.8548 13.8376C33.8804 13.7483 33.885 13.6542 33.8685 13.5627C33.8686 13.4021 33.8071 13.2479 33.6972 13.1324C33.5872 13.017 33.4374 12.9491 33.2792 12.9437H33.2172ZM33.2792 15.8182H32.5452V17.1506H33.2689C33.3594 17.1619 33.4512 17.1526 33.5377 17.1231C33.6241 17.0937 33.703 17.0452 33.7685 16.9807C33.8339 16.9163 33.8843 16.8378 33.9159 16.751C33.9475 16.6642 33.9596 16.5714 33.9512 16.4792C33.9543 16.3898 33.9388 16.3007 33.9059 16.2177C33.8729 16.1347 33.8231 16.0595 33.7598 15.9972C33.6965 15.9349 33.621 15.8869 33.5382 15.8561C33.4554 15.8253 33.3672 15.8123 33.2792 15.8182ZM33.2792 15.8182H32.5452V17.1506H33.2689C33.3594 17.1619 33.4512 17.1526 33.5377 17.1231C33.6241 17.0937 33.703 17.0452 33.7685 16.9807C33.8339 16.9163 33.8843 16.8378 33.9159 16.751C33.9475 16.6642 33.9596 16.5714 33.9512 16.4792C33.9543 16.3898 33.9388 16.3007 33.9059 16.2177C33.8729 16.1347 33.8231 16.0595 33.7598 15.9972C33.6965 15.9349 33.621 15.8869 33.5382 15.8561C33.4554 15.8253 33.3672 15.8123 33.2792 15.8182ZM33.2172 12.9437H32.5452V14.2655H33.2276C33.3187 14.2752 33.4107 14.2632 33.4965 14.2305C33.5822 14.1977 33.6592 14.1453 33.7214 14.077C33.7836 14.0088 33.8293 13.9268 33.8548 13.8376C33.8804 13.7483 33.885 13.6542 33.8685 13.5627C33.8686 13.4021 33.8071 13.2479 33.6972 13.1324C33.5872 13.017 33.4374 12.9491 33.2792 12.9437H33.2172ZM21.66 13.1012H20.9777V14.9686H21.6497C21.6497 14.9686 22.3733 14.9684 22.3733 13.9928C22.3733 13.0171 21.6807 13.1012 21.6703 13.1012H21.66ZM21.66 13.1012H20.9777V14.9686H21.6497C21.6497 14.9686 22.3733 14.9684 22.3733 13.9928C22.3733 13.0171 21.6807 13.1012 21.6703 13.1012H21.66ZM33.2172 12.9437H32.5452V14.2655H33.2276C33.3187 14.2752 33.4107 14.2632 33.4965 14.2305C33.5822 14.1977 33.6592 14.1453 33.7214 14.077C33.7836 14.0088 33.8293 13.9268 33.8548 13.8376C33.8804 13.7483 33.885 13.6542 33.8685 13.5627C33.8686 13.4021 33.8071 13.2479 33.6972 13.1324C33.5872 13.017 33.4374 12.9491 33.2792 12.9437H33.2172ZM33.2792 15.8182H32.5452V17.1506H33.2689C33.3594 17.1619 33.4512 17.1526 33.5377 17.1231C33.6241 17.0937 33.703 17.0452 33.7685 16.9807C33.8339 16.9163 33.8843 16.8378 33.9159 16.751C33.9475 16.6642 33.9596 16.5714 33.9512 16.4792C33.9543 16.3898 33.9388 16.3007 33.9059 16.2177C33.8729 16.1347 33.8231 16.0595 33.7598 15.9972C33.6965 15.9349 33.621 15.8869 33.5382 15.8561C33.4554 15.8253 33.3672 15.8123 33.2792 15.8182ZM33.2792 15.8182H32.5452V17.1506H33.2689C33.3594 17.1619 33.4512 17.1526 33.5377 17.1231C33.6241 17.0937 33.703 17.0452 33.7685 16.9807C33.8339 16.9163 33.8843 16.8378 33.9159 16.751C33.9475 16.6642 33.9596 16.5714 33.9512 16.4792C33.9543 16.3898 33.9388 16.3007 33.9059 16.2177C33.8729 16.1347 33.8231 16.0595 33.7598 15.9972C33.6965 15.9349 33.621 15.8869 33.5382 15.8561C33.4554 15.8253 33.3672 15.8123 33.2792 15.8182ZM33.2172 12.9437H32.5452V14.2655H33.2276C33.3187 14.2752 33.4107 14.2632 33.4965 14.2305C33.5822 14.1977 33.6592 14.1453 33.7214 14.077C33.7836 14.0088 33.8293 13.9268 33.8548 13.8376C33.8804 13.7483 33.885 13.6542 33.8685 13.5627C33.8686 13.4021 33.8071 13.2479 33.6972 13.1324C33.5872 13.017 33.4374 12.9491 33.2792 12.9437H33.2172ZM21.66 13.1012H20.9777V14.9686H21.6497C21.6497 14.9686 22.3733 14.9684 22.3733 13.9928C22.3733 13.0171 21.6807 13.1012 21.6703 13.1012H21.66ZM21.66 13.1012H20.9777V14.9686H21.6497C21.6497 14.9686 22.3733 14.9684 22.3733 13.9928C22.3733 13.0171 21.6807 13.1012 21.6703 13.1012H21.66ZM33.2172 12.9437H32.5452V14.2655H33.2276C33.3187 14.2752 33.4107 14.2632 33.4965 14.2305C33.5822 14.1977 33.6592 14.1453 33.7214 14.077C33.7836 14.0088 33.8293 13.9268 33.8548 13.8376C33.8804 13.7483 33.885 13.6542 33.8685 13.5627C33.8686 13.4021 33.8071 13.2479 33.6972 13.1324C33.5872 13.017 33.4374 12.9491 33.2792 12.9437H33.2172ZM33.2792 15.8182H32.5452V17.1506H33.2689C33.3594 17.1619 33.4512 17.1526 33.5377 17.1231C33.6241 17.0937 33.703 17.0452 33.7685 16.9807C33.8339 16.9163 33.8843 16.8378 33.9159 16.751C33.9475 16.6642 33.9596 16.5714 33.9512 16.4792C33.9543 16.3898 33.9388 16.3007 33.9059 16.2177C33.8729 16.1347 33.8231 16.0595 33.7598 15.9972C33.6965 15.9349 33.621 15.8869 33.5382 15.8561C33.4554 15.8253 33.3672 15.8123 33.2792 15.8182ZM33.2792 15.8182H32.5452V17.1506H33.2689C33.3594 17.1619 33.4512 17.1526 33.5377 17.1231C33.6241 17.0937 33.703 17.0452 33.7685 16.9807C33.8339 16.9163 33.8843 16.8378 33.9159 16.751C33.9475 16.6642 33.9596 16.5714 33.9512 16.4792C33.9543 16.3898 33.9388 16.3007 33.9059 16.2177C33.8729 16.1347 33.8231 16.0595 33.7598 15.9972C33.6965 15.9349 33.621 15.8869 33.5382 15.8561C33.4554 15.8253 33.3672 15.8123 33.2792 15.8182ZM33.2172 12.9437H32.5452V14.2655H33.2276C33.3187 14.2752 33.4107 14.2632 33.4965 14.2305C33.5822 14.1977 33.6592 14.1453 33.7214 14.077C33.7836 14.0088 33.8293 13.9268 33.8548 13.8376C33.8804 13.7483 33.885 13.6542 33.8685 13.5627C33.8686 13.4021 33.8071 13.2479 33.6972 13.1324C33.5872 13.017 33.4374 12.9491 33.2792 12.9437H33.2172ZM21.66 13.1012H20.9777V14.9686H21.6497C21.6497 14.9686 22.3733 14.9684 22.3733 13.9928C22.3733 13.0171 21.6807 13.1012 21.6703 13.1012H21.66ZM21.66 13.1012H20.9777V14.9686H21.6497C21.6497 14.9686 22.3733 14.9684 22.3733 13.9928C22.3733 13.0171 21.6807 13.1012 21.6703 13.1012H21.66ZM33.2172 12.9437H32.5452V14.2655H33.2276C33.3187 14.2752 33.4107 14.2632 33.4965 14.2305C33.5822 14.1977 33.6592 14.1453 33.7214 14.077C33.7836 14.0088 33.8293 13.9268 33.8548 13.8376C33.8804 13.7483 33.885 13.6542 33.8685 13.5627C33.8686 13.4021 33.8071 13.2479 33.6972 13.1324C33.5872 13.017 33.4374 12.9491 33.2792 12.9437H33.2172ZM33.2792 15.8182H32.5452V17.1506H33.2689C33.3594 17.1619 33.4512 17.1526 33.5377 17.1231C33.6241 17.0937 33.703 17.0452 33.7685 16.9807C33.8339 16.9163 33.8843 16.8378 33.9159 16.751C33.9475 16.6642 33.9596 16.5714 33.9512 16.4792C33.9543 16.3898 33.9388 16.3007 33.9059 16.2177C33.8729 16.1347 33.8231 16.0595 33.7598 15.9972C33.6965 15.9349 33.621 15.8869 33.5382 15.8561C33.4554 15.8253 33.3672 15.8123 33.2792 15.8182ZM33.2792 15.8182H32.5452V17.1506H33.2689C33.3594 17.1619 33.4512 17.1526 33.5377 17.1231C33.6241 17.0937 33.703 17.0452 33.7685 16.9807C33.8339 16.9163 33.8843 16.8378 33.9159 16.751C33.9475 16.6642 33.9596 16.5714 33.9512 16.4792C33.9543 16.3898 33.9388 16.3007 33.9059 16.2177C33.8729 16.1347 33.8231 16.0595 33.7598 15.9972C33.6965 15.9349 33.621 15.8869 33.5382 15.8561C33.4554 15.8253 33.3672 15.8123 33.2792 15.8182ZM33.8685 13.5627C33.8687 13.4778 33.8516 13.3938 33.8184 13.3158C33.7852 13.2379 33.7365 13.1677 33.6755 13.1096C33.6144 13.0516 33.5422 13.0068 33.4633 12.9783C33.3845 12.9497 33.3007 12.9379 33.2172 12.9437H32.5452V14.2655H33.2276C33.3195 14.277 33.4127 14.2665 33.4998 14.2346C33.5869 14.2026 33.6653 14.1501 33.7288 14.0816C33.7922 14.0132 33.8389 13.9306 33.8649 13.8404C33.891 13.7502 33.8958 13.6551 33.8788 13.5627H33.8685ZM21.66 13.1012H20.9777V14.9686H21.6497C21.6497 14.9686 22.3733 14.9684 22.3733 13.9928C22.3733 13.0171 21.6807 13.1012 21.6703 13.1012H21.66ZM35.4501 6.80664L32.8657 9.43987H24.5958L22.0114 6.80664L13.9379 15.0001L28.6998 29.9809L43.4719 15.0001L35.4501 6.80664ZM22.9522 18.5564C22.9522 18.483 21.8357 16.5528 21.8357 16.5528H20.9777V18.5564H19.2617C19.2617 18.4515 19.2617 18.2206 19.2617 18.2206V11.5591H22.1252C22.5375 11.5066 22.9549 11.6013 23.3058 11.8272C23.6566 12.0531 23.9191 12.396 24.0479 12.7969C24.1418 13.0663 24.1873 13.3506 24.1823 13.6362C24.1864 14.0779 24.0834 14.5138 23.8825 14.9056C23.7845 15.0773 23.6703 15.2389 23.5414 15.3881L23.4174 15.5559L23.283 15.6924C23.283 15.6924 24.8025 18.3151 24.9266 18.5564H22.9522ZM29.8575 15.5769C29.8575 18.3465 28.6894 18.6509 27.4903 18.6509C26.2912 18.6509 25.1127 18.3465 25.1127 15.5769V11.5486H26.839V16.1435C26.839 16.8044 27.1905 16.9198 27.4903 16.9198C27.7901 16.9198 28.1519 16.8044 28.1519 16.1435V11.5486H29.8679L29.8575 15.5769ZM35.5224 17.6228C35.3498 17.9378 35.0881 18.193 34.7712 18.3556C34.4543 18.5183 34.0967 18.5809 33.7444 18.5354H30.8293V11.5381H33.641C33.968 11.4981 34.2994 11.5539 34.5961 11.6989C34.8929 11.8439 35.1425 12.0721 35.3157 12.3564C35.4712 12.6829 35.5458 13.043 35.5328 13.4055C35.5331 13.5782 35.5158 13.7504 35.4811 13.9195C35.4455 14.157 35.3468 14.3801 35.1957 14.565C35.0445 14.7498 34.8465 14.8894 34.6231 14.9686L34.4577 15.0419L34.6231 15.1259C34.8282 15.1963 35.0149 15.313 35.169 15.4675C35.323 15.622 35.4403 15.8103 35.5121 16.0177C35.6145 16.285 35.6637 16.5701 35.6568 16.8568C35.6628 17.1177 35.6207 17.3776 35.5328 17.6228H35.5224ZM36.4838 18.5354V11.5381H38.1895V18.5354H36.4838ZM33.2792 15.8182H32.5452V17.1506H33.2689C33.3594 17.1619 33.4512 17.1526 33.5377 17.1231C33.6241 17.0937 33.703 17.0452 33.7685 16.9807C33.8339 16.9163 33.8843 16.8378 33.9159 16.751C33.9475 16.6642 33.9596 16.5714 33.9512 16.4792C33.9543 16.3898 33.9388 16.3007 33.9059 16.2177C33.8729 16.1347 33.8231 16.0595 33.7598 15.9972C33.6965 15.9349 33.621 15.8869 33.5382 15.8561C33.4554 15.8253 33.3672 15.8123 33.2792 15.8182ZM33.8685 13.5627C33.8687 13.4778 33.8516 13.3938 33.8184 13.3158C33.7852 13.2379 33.7365 13.1677 33.6755 13.1096C33.6144 13.0516 33.5422 13.0068 33.4633 12.9783C33.3845 12.9497 33.3007 12.9379 33.2172 12.9437H32.5452V14.2655H33.2276C33.3195 14.277 33.4127 14.2665 33.4998 14.2346C33.5869 14.2026 33.6653 14.1501 33.7288 14.0816C33.7922 14.0132 33.8389 13.9306 33.8649 13.8404C33.891 13.7502 33.8958 13.6551 33.8788 13.5627H33.8685ZM21.66 13.1012H20.9777V14.9686H21.6497C21.6497 14.9686 22.3733 14.9684 22.3733 13.9928C22.3733 13.0171 21.6807 13.1012 21.6703 13.1012H21.66ZM21.66 13.1012H20.9777V14.9686H21.6497C21.6497 14.9686 22.3733 14.9684 22.3733 13.9928C22.3733 13.0171 21.6807 13.1012 21.6703 13.1012H21.66ZM33.2172 12.9437H32.5452V14.2655H33.2276C33.3187 14.2752 33.4107 14.2632 33.4965 14.2305C33.5822 14.1977 33.6592 14.1453 33.7214 14.077C33.7836 14.0088 33.8293 13.9268 33.8548 13.8376C33.8804 13.7483 33.885 13.6542 33.8685 13.5627C33.8686 13.4021 33.8071 13.2479 33.6972 13.1324C33.5872 13.017 33.4374 12.9491 33.2792 12.9437H33.2172ZM33.2792 15.8182H32.5452V17.1506H33.2689C33.3594 17.1619 33.4512 17.1526 33.5377 17.1231C33.6241 17.0937 33.703 17.0452 33.7685 16.9807C33.8339 16.9163 33.8843 16.8378 33.9159 16.751C33.9475 16.6642 33.9596 16.5714 33.9512 16.4792C33.9543 16.3898 33.9388 16.3007 33.9059 16.2177C33.8729 16.1347 33.8231 16.0595 33.7598 15.9972C33.6965 15.9349 33.621 15.8869 33.5382 15.8561C33.4554 15.8253 33.3672 15.8123 33.2792 15.8182ZM33.2792 15.8182H32.5452V17.1506H33.2689C33.3594 17.1619 33.4512 17.1526 33.5377 17.1231C33.6241 17.0937 33.703 17.0452 33.7685 16.9807C33.8339 16.9163 33.8843 16.8378 33.9159 16.751C33.9475 16.6642 33.9596 16.5714 33.9512 16.4792C33.9543 16.3898 33.9388 16.3007 33.9059 16.2177C33.8729 16.1347 33.8231 16.0595 33.7598 15.9972C33.6965 15.9349 33.621 15.8869 33.5382 15.8561C33.4554 15.8253 33.3672 15.8123 33.2792 15.8182ZM33.2172 12.9437H32.5452V14.2655H33.2276C33.3187 14.2752 33.4107 14.2632 33.4965 14.2305C33.5822 14.1977 33.6592 14.1453 33.7214 14.077C33.7836 14.0088 33.8293 13.9268 33.8548 13.8376C33.8804 13.7483 33.885 13.6542 33.8685 13.5627C33.8686 13.4021 33.8071 13.2479 33.6972 13.1324C33.5872 13.017 33.4374 12.9491 33.2792 12.9437H33.2172ZM21.66 13.1012H20.9777V14.9686H21.6497C21.6497 14.9686 22.3733 14.9684 22.3733 13.9928C22.3733 13.0171 21.6807 13.1012 21.6703 13.1012H21.66ZM21.66 13.1012H20.9777V14.9686H21.6497C21.6497 14.9686 22.3733 14.9684 22.3733 13.9928C22.3733 13.0171 21.6807 13.1012 21.6703 13.1012H21.66ZM33.2172 12.9437H32.5452V14.2655H33.2276C33.3187 14.2752 33.4107 14.2632 33.4965 14.2305C33.5822 14.1977 33.6592 14.1453 33.7214 14.077C33.7836 14.0088 33.8293 13.9268 33.8548 13.8376C33.8804 13.7483 33.885 13.6542 33.8685 13.5627C33.8686 13.4021 33.8071 13.2479 33.6972 13.1324C33.5872 13.017 33.4374 12.9491 33.2792 12.9437H33.2172ZM33.2792 15.8182H32.5452V17.1506H33.2689C33.3594 17.1619 33.4512 17.1526 33.5377 17.1231C33.6241 17.0937 33.703 17.0452 33.7685 16.9807C33.8339 16.9163 33.8843 16.8378 33.9159 16.751C33.9475 16.6642 33.9596 16.5714 33.9512 16.4792C33.9543 16.3898 33.9388 16.3007 33.9059 16.2177C33.8729 16.1347 33.8231 16.0595 33.7598 15.9972C33.6965 15.9349 33.621 15.8869 33.5382 15.8561C33.4554 15.8253 33.3672 15.8123 33.2792 15.8182ZM33.2792 15.8182H32.5452V17.1506H33.2689C33.3594 17.1619 33.4512 17.1526 33.5377 17.1231C33.6241 17.0937 33.703 17.0452 33.7685 16.9807C33.8339 16.9163 33.8843 16.8378 33.9159 16.751C33.9475 16.6642 33.9596 16.5714 33.9512 16.4792C33.9543 16.3898 33.9388 16.3007 33.9059 16.2177C33.8729 16.1347 33.8231 16.0595 33.7598 15.9972C33.6965 15.9349 33.621 15.8869 33.5382 15.8561C33.4554 15.8253 33.3672 15.8123 33.2792 15.8182ZM33.2172 12.9437H32.5452V14.2655H33.2276C33.3187 14.2752 33.4107 14.2632 33.4965 14.2305C33.5822 14.1977 33.6592 14.1453 33.7214 14.077C33.7836 14.0088 33.8293 13.9268 33.8548 13.8376C33.8804 13.7483 33.885 13.6542 33.8685 13.5627C33.8686 13.4021 33.8071 13.2479 33.6972 13.1324C33.5872 13.017 33.4374 12.9491 33.2792 12.9437H33.2172ZM21.66 13.1012H20.9777V14.9686H21.6497C21.6497 14.9686 22.3733 14.9684 22.3733 13.9928C22.3733 13.0171 21.6807 13.1012 21.6703 13.1012H21.66ZM21.66 13.1012H20.9777V14.9686H21.6497C21.6497 14.9686 22.3733 14.9684 22.3733 13.9928C22.3733 13.0171 21.6807 13.1012 21.6703 13.1012H21.66ZM33.2172 12.9437H32.5452V14.2655H33.2276C33.3187 14.2752 33.4107 14.2632 33.4965 14.2305C33.5822 14.1977 33.6592 14.1453 33.7214 14.077C33.7836 14.0088 33.8293 13.9268 33.8548 13.8376C33.8804 13.7483 33.885 13.6542 33.8685 13.5627C33.8686 13.4021 33.8071 13.2479 33.6972 13.1324C33.5872 13.017 33.4374 12.9491 33.2792 12.9437H33.2172ZM33.2792 15.8182H32.5452V17.1506H33.2689C33.3594 17.1619 33.4512 17.1526 33.5377 17.1231C33.6241 17.0937 33.703 17.0452 33.7685 16.9807C33.8339 16.9163 33.8843 16.8378 33.9159 16.751C33.9475 16.6642 33.9596 16.5714 33.9512 16.4792C33.9543 16.3898 33.9388 16.3007 33.9059 16.2177C33.8729 16.1347 33.8231 16.0595 33.7598 15.9972C33.6965 15.9349 33.621 15.8869 33.5382 15.8561C33.4554 15.8253 33.3672 15.8123 33.2792 15.8182ZM33.2792 15.8182H32.5452V17.1506H33.2689C33.3594 17.1619 33.4512 17.1526 33.5377 17.1231C33.6241 17.0937 33.703 17.0452 33.7685 16.9807C33.8339 16.9163 33.8843 16.8378 33.9159 16.751C33.9475 16.6642 33.9596 16.5714 33.9512 16.4792C33.9543 16.3898 33.9388 16.3007 33.9059 16.2177C33.8729 16.1347 33.8231 16.0595 33.7598 15.9972C33.6965 15.9349 33.621 15.8869 33.5382 15.8561C33.4554 15.8253 33.3672 15.8123 33.2792 15.8182ZM33.2172 12.9437H32.5452V14.2655H33.2276C33.3187 14.2752 33.4107 14.2632 33.4965 14.2305C33.5822 14.1977 33.6592 14.1453 33.7214 14.077C33.7836 14.0088 33.8293 13.9268 33.8548 13.8376C33.8804 13.7483 33.885 13.6542 33.8685 13.5627C33.8686 13.4021 33.8071 13.2479 33.6972 13.1324C33.5872 13.017 33.4374 12.9491 33.2792 12.9437H33.2172ZM21.66 13.1012H20.9777V14.9686H21.6497C21.6497 14.9686 22.3733 14.9684 22.3733 13.9928C22.3733 13.0171 21.6807 13.1012 21.6703 13.1012H21.66ZM21.66 13.1012H20.9777V14.9686H21.6497C21.6497 14.9686 22.3733 14.9684 22.3733 13.9928C22.3733 13.0171 21.6807 13.1012 21.6703 13.1012H21.66ZM33.2172 12.9437H32.5452V14.2655H33.2276C33.3187 14.2752 33.4107 14.2632 33.4965 14.2305C33.5822 14.1977 33.6592 14.1453 33.7214 14.077C33.7836 14.0088 33.8293 13.9268 33.8548 13.8376C33.8804 13.7483 33.885 13.6542 33.8685 13.5627C33.8686 13.4021 33.8071 13.2479 33.6972 13.1324C33.5872 13.017 33.4374 12.9491 33.2792 12.9437H33.2172ZM33.2792 15.8182H32.5452V17.1506H33.2689C33.3594 17.1619 33.4512 17.1526 33.5377 17.1231C33.6241 17.0937 33.703 17.0452 33.7685 16.9807C33.8339 16.9163 33.8843 16.8378 33.9159 16.751C33.9475 16.6642 33.9596 16.5714 33.9512 16.4792C33.9543 16.3898 33.9388 16.3007 33.9059 16.2177C33.8729 16.1347 33.8231 16.0595 33.7598 15.9972C33.6965 15.9349 33.621 15.8869 33.5382 15.8561C33.4554 15.8253 33.3672 15.8123 33.2792 15.8182ZM33.2792 15.8182H32.5452V17.1506H33.2689C33.3594 17.1619 33.4512 17.1526 33.5377 17.1231C33.6241 17.0937 33.703 17.0452 33.7685 16.9807C33.8339 16.9163 33.8843 16.8378 33.9159 16.751C33.9475 16.6642 33.9596 16.5714 33.9512 16.4792C33.9543 16.3898 33.9388 16.3007 33.9059 16.2177C33.8729 16.1347 33.8231 16.0595 33.7598 15.9972C33.6965 15.9349 33.621 15.8869 33.5382 15.8561C33.4554 15.8253 33.3672 15.8123 33.2792 15.8182ZM33.2172 12.9437H32.5452V14.2655H33.2276C33.3187 14.2752 33.4107 14.2632 33.4965 14.2305C33.5822 14.1977 33.6592 14.1453 33.7214 14.077C33.7836 14.0088 33.8293 13.9268 33.8548 13.8376C33.8804 13.7483 33.885 13.6542 33.8685 13.5627C33.8686 13.4021 33.8071 13.2479 33.6972 13.1324C33.5872 13.017 33.4374 12.9491 33.2792 12.9437H33.2172ZM21.66 13.1012H20.9777V14.9686H21.6497C21.6497 14.9686 22.3733 14.9684 22.3733 13.9928C22.3733 13.0171 21.6807 13.1012 21.6703 13.1012H21.66ZM21.66 13.1012H20.9777V14.9686H21.6497C21.6497 14.9686 22.3733 14.9684 22.3733 13.9928C22.3733 13.0171 21.6807 13.1012 21.6703 13.1012H21.66ZM33.2172 12.9437H32.5452V14.2655H33.2276C33.3187 14.2752 33.4107 14.2632 33.4965 14.2305C33.5822 14.1977 33.6592 14.1453 33.7214 14.077C33.7836 14.0088 33.8293 13.9268 33.8548 13.8376C33.8804 13.7483 33.885 13.6542 33.8685 13.5627C33.8686 13.4021 33.8071 13.2479 33.6972 13.1324C33.5872 13.017 33.4374 12.9491 33.2792 12.9437H33.2172ZM33.2792 15.8182H32.5452V17.1506H33.2689C33.3594 17.1619 33.4512 17.1526 33.5377 17.1231C33.6241 17.0937 33.703 17.0452 33.7685 16.9807C33.8339 16.9163 33.8843 16.8378 33.9159 16.751C33.9475 16.6642 33.9596 16.5714 33.9512 16.4792C33.9543 16.3898 33.9388 16.3007 33.9059 16.2177C33.8729 16.1347 33.8231 16.0595 33.7598 15.9972C33.6965 15.9349 33.621 15.8869 33.5382 15.8561C33.4554 15.8253 33.3672 15.8123 33.2792 15.8182ZM33.2792 15.8182H32.5452V17.1506H33.2689C33.3594 17.1619 33.4512 17.1526 33.5377 17.1231C33.6241 17.0937 33.703 17.0452 33.7685 16.9807C33.8339 16.9163 33.8843 16.8378 33.9159 16.751C33.9475 16.6642 33.9596 16.5714 33.9512 16.4792C33.9543 16.3898 33.9388 16.3007 33.9059 16.2177C33.8729 16.1347 33.8231 16.0595 33.7598 15.9972C33.6965 15.9349 33.621 15.8869 33.5382 15.8561C33.4554 15.8253 33.3672 15.8123 33.2792 15.8182ZM33.2172 12.9437H32.5452V14.2655H33.2276C33.3187 14.2752 33.4107 14.2632 33.4965 14.2305C33.5822 14.1977 33.6592 14.1453 33.7214 14.077C33.7836 14.0088 33.8293 13.9268 33.8548 13.8376C33.8804 13.7483 33.885 13.6542 33.8685 13.5627C33.8686 13.4021 33.8071 13.2479 33.6972 13.1324C33.5872 13.017 33.4374 12.9491 33.2792 12.9437H33.2172ZM21.66 13.1012H20.9777V14.9686H21.6497C21.6497 14.9686 22.3733 14.9684 22.3733 13.9928C22.3733 13.0171 21.6807 13.1012 21.6703 13.1012H21.66ZM33.2792 15.8182H32.5452V17.1506H33.2689C33.3594 17.1619 33.4512 17.1526 33.5377 17.1231C33.6241 17.0937 33.703 17.0452 33.7685 16.9807C33.8339 16.9163 33.8843 16.8378 33.9159 16.751C33.9475 16.6642 33.9596 16.5714 33.9512 16.4792C33.9543 16.3898 33.9388 16.3007 33.9059 16.2177C33.8729 16.1347 33.8231 16.0595 33.7598 15.9972C33.6965 15.9349 33.621 15.8869 33.5382 15.8561C33.4554 15.8253 33.3672 15.8123 33.2792 15.8182ZM33.2172 12.9437H32.5452V14.2655H33.2276C33.3187 14.2752 33.4107 14.2632 33.4965 14.2305C33.5822 14.1977 33.6592 14.1453 33.7214 14.077C33.7836 14.0088 33.8293 13.9268 33.8548 13.8376C33.8804 13.7483 33.885 13.6542 33.8685 13.5627C33.8686 13.4021 33.8071 13.2479 33.6972 13.1324C33.5872 13.017 33.4374 12.9491 33.2792 12.9437H33.2172ZM21.66 13.1012H20.9777V14.9686H21.6497C21.6497 14.9686 22.3733 14.9684 22.3733 13.9928C22.3733 13.0171 21.6807 13.1012 21.6703 13.1012H21.66Z" fill="#1D1D1B"/>
<path d="M47.8447 14.0347V10.0796H49.1782C49.323 10.0741 49.4664 10.1106 49.5917 10.1847C49.7131 10.2451 49.8112 10.3447 49.8708 10.4679C49.9437 10.595 49.9796 10.7405 49.9742 10.8875V11.3073C49.9796 11.4237 49.9547 11.5393 49.9018 11.6428C49.8638 11.7309 49.803 11.807 49.726 11.863C49.6622 11.9118 49.5878 11.9443 49.509 11.9576C49.6012 11.9683 49.6896 12.0007 49.7674 12.0521C49.8517 12.1175 49.922 12.1996 49.9742 12.2933C50.0316 12.4143 50.0599 12.5472 50.0568 12.6814V13.1849C50.0568 13.3346 50.0214 13.4823 49.9535 13.6152C49.8823 13.7294 49.7869 13.8262 49.6743 13.8985C49.5459 13.9629 49.4042 13.9951 49.2609 13.9927L47.8447 14.0347ZM48.9818 11.6743C49.0462 11.6773 49.1092 11.6546 49.1575 11.6113C49.1751 11.546 49.1751 11.4773 49.1575 11.412V11.024C49.178 10.9592 49.178 10.8893 49.1575 10.8245C49.1092 10.7811 49.0462 10.7587 48.9818 10.7617H48.62V11.6743H48.9818ZM49.0438 13.3634C49.0783 13.3672 49.1132 13.3624 49.1456 13.3496C49.178 13.3368 49.2069 13.3164 49.2298 13.2899C49.2531 13.2628 49.2706 13.231 49.2813 13.1967C49.2919 13.1624 49.2955 13.1264 49.2919 13.0907V12.6081C49.2947 12.574 49.2907 12.5397 49.28 12.5072C49.2693 12.4747 49.2523 12.4446 49.2298 12.4191C49.2066 12.3966 49.1789 12.3795 49.1486 12.3686C49.1183 12.3578 49.0861 12.3536 49.0541 12.3563H48.62V13.4054L49.0438 13.3634Z" fill="#E01F26"/>
<path d="M51.4214 14.0977C51.2772 14.0977 51.1352 14.0616 51.008 13.9927C50.8865 13.9323 50.7883 13.8326 50.7288 13.7094C50.6559 13.5823 50.6201 13.4369 50.6255 13.2899V10.0796H51.4008V13.0906C51.3917 13.1614 51.4102 13.2328 51.4525 13.2899C51.4743 13.3148 51.5015 13.3345 51.532 13.3472C51.5624 13.36 51.5953 13.3655 51.6282 13.3634H51.8866C51.9211 13.3671 51.9561 13.3623 51.9884 13.3496C52.0208 13.3368 52.0497 13.3163 52.0727 13.2899C52.0959 13.2627 52.1134 13.2309 52.1241 13.1966C52.1348 13.1624 52.1384 13.1264 52.1347 13.0906V10.0796H52.8997V13.2899C52.9033 13.4354 52.8713 13.5795 52.8066 13.7094C52.7413 13.8283 52.6446 13.9263 52.5275 13.9927C52.3962 14.0605 52.2511 14.0965 52.1037 14.0977H51.4214Z" fill="#E01F26"/>
<path d="M53.6129 14.0347V10.0796H54.3882V14.0347H53.6129Z" fill="#E01F26"/>
<path d="M55.1325 14.0347V10.0796H55.9078V13.2794H57.0552V14.0347H55.1325Z" fill="#E01F26"/>
<path d="M57.4894 14.0348V10.0797H58.9574C59.1054 10.0755 59.2517 10.1118 59.3812 10.1847C59.4983 10.251 59.595 10.3491 59.6603 10.468C59.7282 10.5971 59.7637 10.7411 59.7637 10.8875V13.2269C59.7637 13.3767 59.7283 13.5243 59.6603 13.6572C59.5891 13.7715 59.4938 13.8682 59.3812 13.9405C59.2491 14.0051 59.104 14.0372 58.9574 14.0348H57.4894ZM58.7403 13.3005C58.7739 13.3033 58.8077 13.2992 58.8397 13.2884C58.8717 13.2776 58.9012 13.2602 58.9264 13.2374C58.9713 13.1815 58.9935 13.1102 58.9884 13.0382V11.0763C58.9935 11.0042 58.9713 10.933 58.9264 10.877C58.9012 10.8542 58.8717 10.8368 58.8397 10.826C58.8077 10.8152 58.7739 10.8111 58.7403 10.814H58.2647V13.3005H58.7403Z" fill="#E01F26"/>
<path d="M60.4357 14.0347V10.0796H61.2213V14.0347H60.4357Z" fill="#E01F26"/>
<path d="M61.9552 14.0347V10.0796H62.6581L63.5162 12.3458L63.4128 11.6112V10.0796H64.1778V14.0347H63.4851L62.6168 11.7792L62.7202 12.5136V14.0347H61.9552Z" fill="#E01F26"/>
<path d="M65.7077 14.0348C65.5611 14.0372 65.4159 14.0051 65.2838 13.9405C65.1713 13.8682 65.0759 13.7715 65.0047 13.6572C64.94 13.5236 64.908 13.3758 64.9117 13.2269V10.8875C64.908 10.742 64.94 10.5979 65.0047 10.468C65.0701 10.3491 65.1667 10.251 65.2838 10.1847C65.4133 10.1118 65.5597 10.0755 65.7077 10.0797H66.9689V10.6462L66.7827 10.835H65.9248C65.8928 10.8323 65.8605 10.8367 65.8302 10.8475C65.8 10.8584 65.7722 10.8755 65.749 10.898C65.7219 10.925 65.7013 10.9579 65.6888 10.9943C65.6762 11.0307 65.6721 11.0695 65.6767 11.1078V13.0172C65.6737 13.0537 65.6786 13.0906 65.6911 13.125C65.7036 13.1594 65.7233 13.1906 65.749 13.2164C65.7722 13.2389 65.8 13.2563 65.8302 13.2672C65.8605 13.278 65.8928 13.2821 65.9248 13.2795H66.3796V11.8318H67.1342V14.0348H65.7077Z" fill="#E01F26"/>
<path d="M69.3775 14.0347V10.8874H68.6022V10.1321H70.9177V10.6986L70.7317 10.8874H70.1424V14.0347H69.3775Z" fill="#E01F26"/>
<path d="M71.3312 14.0347V10.0796H72.1168V11.6637H72.8198V10.0796H73.5847V14.0347H72.8198V12.398H72.1168V14.0347H71.3312Z" fill="#E01F26"/>
<path d="M74.3187 14.0347V10.0796H76.3138V10.6356L76.1381 10.8349H75.1044V11.6637H75.9314V12.4085H75.1044V13.2794H76.3138V14.0347H74.3187Z" fill="#E01F26"/>
<path d="M47.8447 19.7732V15.8181H49.8191V16.3847L49.633 16.5737H48.5993V17.6228H49.3953V18.3781H48.5993V19.8257L47.8447 19.7732Z" fill="#E01F26"/>
<path d="M51.0906 19.8572C50.9439 19.8609 50.7985 19.8284 50.6668 19.7627C50.5521 19.6932 50.4561 19.5959 50.3877 19.4794C50.3229 19.3458 50.291 19.1983 50.2947 19.0494V15.9021H51.0596V18.8081C51.0559 18.8439 51.0595 18.8801 51.0702 18.9144C51.0809 18.9487 51.0984 18.9803 51.1216 19.0074C51.1699 19.0508 51.2329 19.0734 51.2973 19.0704H51.5558C51.5878 19.0731 51.62 19.069 51.6503 19.0581C51.6806 19.0473 51.7083 19.0299 51.7315 19.0074C51.7548 18.9803 51.7723 18.9487 51.7829 18.9144C51.7936 18.8801 51.7972 18.8439 51.7935 18.8081V15.7971H52.5688V18.9444C52.574 19.0947 52.5382 19.2437 52.4655 19.3747C52.4001 19.4935 52.3035 19.5916 52.1864 19.658C52.0583 19.7236 51.9163 19.7559 51.7729 19.7522L51.0906 19.8572Z" fill="#E01F26"/>
<path d="M53.7369 19.7732V16.5737H52.972V15.8181H55.2773V16.3847L55.0911 16.5737H54.502V19.7732H53.7369Z" fill="#E01F26"/>
<path d="M56.4764 19.8572C56.3296 19.8618 56.184 19.8292 56.0526 19.7627C55.9355 19.6964 55.8388 19.5983 55.7735 19.4794C55.7055 19.3466 55.67 19.1991 55.67 19.0494V15.9021H56.4453V18.8081C56.4417 18.8439 56.4453 18.8801 56.4559 18.9144C56.4666 18.9487 56.4841 18.9803 56.5074 19.0074C56.5291 19.0291 56.555 19.046 56.5835 19.0568C56.612 19.0677 56.6424 19.0723 56.6728 19.0704H56.9312C56.9648 19.0733 56.9987 19.0692 57.0307 19.0584C57.0627 19.0476 57.0921 19.0302 57.1173 19.0074C57.1406 18.9803 57.1581 18.9487 57.1687 18.9144C57.1794 18.8801 57.183 18.8439 57.1793 18.8081V15.7971H57.9443V18.9444C57.9479 19.0933 57.916 19.241 57.8513 19.3747C57.7859 19.4935 57.6893 19.5916 57.5722 19.658C57.4404 19.7237 57.2951 19.7559 57.1483 19.7522L56.4764 19.8572Z" fill="#E01F26"/>
<path d="M58.6575 19.7733V15.8182H60.0738C60.2205 15.8145 60.3659 15.847 60.4976 15.9127C60.6102 15.9849 60.7055 16.0817 60.7767 16.1959C60.8414 16.3296 60.8734 16.4771 60.8698 16.626V17.5283C60.8751 17.6548 60.8503 17.7806 60.7974 17.8953C60.7551 17.9926 60.6871 18.0763 60.601 18.1369C60.5383 18.1845 60.4621 18.2101 60.3839 18.2101H60.3322V17.9688L60.9628 19.3957V19.7733H60.2392L59.7223 18.3571H59.4432V19.7733H58.6575ZM59.867 17.6751C59.9314 17.6781 59.9945 17.6557 60.0428 17.6123C60.066 17.5852 60.0835 17.5534 60.0942 17.5191C60.1049 17.4848 60.1085 17.4486 60.1048 17.4128V16.8462C60.1115 16.7708 60.0893 16.6957 60.0428 16.6365C60.0199 16.6134 59.9923 16.5959 59.9619 16.585C59.9315 16.5741 59.899 16.5703 59.867 16.5737H59.4328V17.6228L59.867 17.6751Z" fill="#E01F26"/>
<path d="M61.521 19.7732V15.8181H63.5161V16.3742L63.3404 16.5737H62.3066V17.4023H63.1336V18.1368H62.3066V19.0179H63.5161V19.7732H61.521Z" fill="#E01F26"/>
<path d="M65.6353 19.7732V16.5737H64.8704V15.8181H67.1756V16.3847L66.9895 16.5737H66.4106V19.7732H65.6353Z" fill="#E01F26"/>
<path d="M68.292 19.8572C68.1453 19.8609 67.9999 19.8284 67.8682 19.7627C67.7511 19.6964 67.6544 19.5983 67.5891 19.4794C67.5163 19.3484 67.4806 19.1997 67.4857 19.0494V16.6049C67.4806 16.4546 67.5163 16.3059 67.5891 16.1749C67.6544 16.0561 67.7511 15.958 67.8682 15.8916C67.9991 15.8227 68.1445 15.7868 68.292 15.7869H68.964C69.1113 15.788 69.2564 15.8238 69.3878 15.8916C69.5003 15.9639 69.5957 16.0607 69.6669 16.1749C69.7348 16.3078 69.7703 16.4552 69.7702 16.6049V19.0494C69.7703 19.1991 69.7348 19.3465 69.6669 19.4794C69.5957 19.5937 69.5003 19.6904 69.3878 19.7627C69.2557 19.8273 69.1106 19.8597 68.964 19.8572H68.292ZM68.7468 19.1229C68.7805 19.1258 68.8143 19.1217 68.8463 19.1109C68.8783 19.1 68.9077 19.0827 68.9329 19.0599C68.9562 19.0328 68.9737 19.001 68.9843 18.9667C68.995 18.9324 68.9986 18.8964 68.9949 18.8606V16.7624C68.9986 16.7267 68.995 16.6904 68.9843 16.6562C68.9737 16.6219 68.9562 16.5903 68.9329 16.5632C68.9082 16.539 68.8791 16.52 68.8472 16.5073C68.8152 16.4947 68.7811 16.4888 68.7468 16.4897H68.4988C68.4661 16.4896 68.4338 16.496 68.4037 16.5086C68.3735 16.5212 68.3461 16.5398 68.323 16.5632C68.2998 16.5903 68.2823 16.6219 68.2716 16.6562C68.261 16.6904 68.2573 16.7267 68.261 16.7624V18.8606C68.2573 18.8964 68.261 18.9324 68.2716 18.9667C68.2823 19.001 68.2998 19.0328 68.323 19.0599C68.3713 19.1033 68.4343 19.1259 68.4988 19.1229H68.7468Z" fill="#E01F26"/>
<path d="M71.1865 19.7733C71.0416 19.7787 70.8983 19.7425 70.773 19.6685C70.6516 19.6081 70.5534 19.5084 70.4939 19.3852C70.421 19.2581 70.3851 19.1124 70.3905 18.9654V16.626C70.3854 16.4757 70.4211 16.3269 70.4939 16.1959C70.5593 16.0771 70.6559 15.979 70.773 15.9127C70.9011 15.847 71.0431 15.8145 71.1865 15.8182H72.458V16.3847L72.2616 16.5737H71.4036C71.3392 16.5707 71.2762 16.5931 71.2279 16.6365C71.2046 16.6636 71.1871 16.6954 71.1765 16.7297C71.1658 16.764 71.1622 16.8002 71.1659 16.836V18.8082C71.1607 18.8802 71.1829 18.9514 71.2279 19.0074C71.2762 19.0508 71.3392 19.0734 71.4036 19.0704H71.8584V17.6228H72.6131V19.8258L71.1865 19.7733Z" fill="#E01F26"/>
<path d="M73.2643 19.7732V15.8181H75.2594V16.3742L75.0733 16.5737H74.0396V17.4023H74.8666V18.1368H74.0396V19.0179H75.2594V19.7732H73.2643Z" fill="#E01F26"/>
<path d="M76.2415 19.7732V16.5737H75.4662V15.8181H77.7818V16.3847L77.5957 16.5737H77.0064V19.7732H76.2415Z" fill="#E01F26"/>
<path d="M78.1953 19.7732V15.8181H78.981V17.4023H79.6839V15.8181H80.4489V19.7732H79.6839V18.1368H78.981V19.7732H78.1953Z" fill="#E01F26"/>
<path d="M81.1827 19.7732V15.8181H83.1778V16.3742L83.0021 16.5737H81.9683V17.4023H82.7954V18.1368H81.9683V19.0179H83.1778V19.7732H81.1827Z" fill="#E01F26"/>
<path d="M83.7051 19.7733V15.8182H85.1213C85.2647 15.8145 85.4067 15.847 85.5348 15.9127C85.6519 15.979 85.7485 16.0771 85.8139 16.1959C85.8866 16.3269 85.9224 16.4757 85.9172 16.626V17.5283C85.9194 17.6557 85.891 17.7815 85.8346 17.8953C85.7924 17.9897 85.7285 18.0726 85.6485 18.1369C85.5858 18.1845 85.5097 18.2101 85.4314 18.2101H85.3797V17.9688L86.0103 19.3957V19.7733H85.2867L84.7595 18.3571H84.4804V19.7733H83.7051ZM84.9042 17.6751C84.9378 17.678 84.9716 17.6739 85.0036 17.663C85.0356 17.6522 85.0651 17.6351 85.0903 17.6123C85.1135 17.5852 85.131 17.5534 85.1417 17.5191C85.1523 17.4848 85.156 17.4486 85.1523 17.4128V16.8462C85.159 16.7708 85.1368 16.6957 85.0903 16.6365C85.0651 16.6137 85.0356 16.5963 85.0036 16.5855C84.9716 16.5747 84.9378 16.5708 84.9042 16.5737H84.47V17.6228L84.9042 17.6751Z" fill="#E01F26"/>
</g>
<defs>
<clipPath id="clip0_150_41">
<rect width="72" height="30" fill="white" transform="translate(14)"/>
</clipPath>
</defs>
</svg>
