<svg width="100" height="30" viewBox="0 0 100 30" fill="none" xmlns="http://www.w3.org/2000/svg">
<g clip-path="url(#clip0_150_45)">
<path d="M34.2659 23.7065V21.4337H34.0186V23.9699H35.3541V23.7065H34.2659ZM37.4315 21.6776V21.4337H36.0465V23.9699H37.4315V23.7163H36.3137V22.7408H37.3722V22.4969H36.3137V21.6385L37.4315 21.6776ZM39.1924 21.4337H38.8462L38.035 23.9699H38.2922L38.4603 23.4336H39.5683L39.7365 23.9699H39.9937L39.1924 21.4337ZM38.5395 23.1897L39.0045 21.6776L39.4595 23.1897H38.5395ZM41.6161 21.4337H40.6268V23.9699H41.6161C42.3877 23.9699 42.4372 23.5311 42.4372 22.6043C42.3778 21.8629 42.3778 21.4337 41.6161 21.4337ZM41.6161 23.7163H40.8346V21.6776H41.6161C42.0316 21.6776 42.1107 21.8727 42.1107 22.6531C42.1107 23.4335 42.0712 23.7163 41.6656 23.7163H41.6161ZM43.189 21.4337V23.9699H43.4463V21.4337H43.189ZM45.87 21.4337V23.7065L44.7125 21.4337H44.3168V23.9699H44.5641V21.6971L45.7116 23.9699H46.1074V21.4337H45.87ZM48.6596 22.1849V21.9312C48.6596 21.4435 48.3134 21.4044 47.8089 21.4044C47.1362 21.4044 46.9087 21.5311 46.9087 22.2725V23.1214C46.9087 23.8628 47.1362 23.9992 47.8089 23.9992C48.4816 23.9992 48.6596 23.9993 48.6596 23.2871V22.7215H47.7495V22.9749H48.4123V23.2188C48.4123 23.7456 48.3035 23.7554 47.8089 23.7554C47.3143 23.7554 47.1461 23.6774 47.1461 23.1214V22.2921C47.1461 21.7263 47.2252 21.6581 47.8089 21.6581C48.3925 21.6581 48.4123 21.658 48.4123 22.097V22.1849H48.6596ZM50.6382 21.4337V21.6776H51.3307V23.9699H51.5879V21.6776H52.2903V21.4337H50.6382ZM54.3974 21.4337V22.5359H53.1608V21.4337H52.9135V23.9699H53.1608V22.7994H54.3974V23.9699H54.6546V21.4337H54.3974ZM56.8211 22.8287C57.0486 22.7604 57.1376 22.5946 57.1376 22.1556C57.1376 21.7166 56.9793 21.4337 56.5243 21.4337H55.4757V23.9699H55.7131V22.9944H56.366C56.7518 22.9944 56.8508 23.0922 56.8508 23.4336V24.009H57.0981V23.3066C57.1243 23.2109 57.1135 23.1089 57.0678 23.0206C57.0221 22.9323 56.9447 22.8639 56.8508 22.8287H56.8211ZM56.5243 22.7019H55.7131V21.7264H56.4451C56.8309 21.7264 56.9002 21.7262 56.9002 22.2432C56.9002 22.7603 56.8112 22.7019 56.554 22.7019H56.5243ZM58.8392 21.4044C58.1566 21.4044 57.929 21.5311 57.929 22.2725V23.1214C57.929 23.8628 58.1566 23.9992 58.8392 23.9992C59.5218 23.9992 59.7295 23.8628 59.7295 23.1214V22.2725C59.7592 21.5311 59.5316 21.3849 58.8688 21.3849L58.8392 21.4044ZM59.4921 23.1214C59.4921 23.6774 59.413 23.7554 58.8392 23.7554C58.2654 23.7554 58.1665 23.6774 58.1665 23.1214V22.2921C58.1665 21.7263 58.2456 21.6581 58.8392 21.6581C59.4327 21.6581 59.4921 21.7263 59.4921 22.2921V23.1214ZM61.9553 21.4337V23.3848C61.9553 23.6579 61.8169 23.7456 61.3618 23.7456C60.9067 23.7456 60.7683 23.6579 60.7683 23.3848V21.4337H60.5209V23.3359C60.5209 23.8725 60.7583 24.009 61.3618 24.009C61.9652 24.009 62.1928 23.8725 62.1928 23.3359V21.4435L61.9553 21.4337ZM64.7352 22.1849V21.9312C64.7352 21.4435 64.3889 21.4044 63.8844 21.4044C63.2117 21.4044 62.9842 21.5311 62.9842 22.2725V23.1214C62.9842 23.8628 63.2117 23.9992 63.8844 23.9992C64.5571 23.9992 64.7352 23.9993 64.7352 23.2871V22.7215H63.8251V22.9749H64.4878V23.2188C64.4878 23.7456 64.379 23.7554 63.8844 23.7554C63.3898 23.7554 63.2216 23.6774 63.2216 23.1214V22.2921C63.2216 21.7263 63.3007 21.6581 63.8844 21.6581C64.4681 21.6581 64.4878 21.658 64.4878 22.097V22.1849H64.7352ZM66.9907 21.4337V22.5359H65.7541V21.4337H65.5068V23.9699H65.7541V22.7994H67.0006V23.9699H67.2479V21.4337H66.9907ZM69.4837 21.4337V23.9699H69.7408V21.4337H69.4837ZM72.1645 21.4337V23.7065L71.017 21.4337H70.6213V23.9699H70.8686V21.6971L72.0162 23.9699H72.4118V21.4337H72.1645ZM74.7861 21.4337V23.7065L73.6385 21.4337H73.2429V23.9699H73.5001V21.6971L74.6476 23.9699H75.0532V21.4337H74.7861ZM76.7646 21.4337C76.0919 21.4337 75.8545 21.5604 75.8545 22.3018V23.1507C75.8545 23.8921 76.0919 24.0285 76.7646 24.0285C77.4373 24.0285 77.6747 23.8921 77.6747 23.1507V22.3018C77.6648 21.5312 77.4274 21.3849 76.7547 21.3849L76.7646 21.4337ZM77.4175 23.1507C77.4175 23.7067 77.3483 23.7846 76.7646 23.7846C76.181 23.7846 76.1117 23.7067 76.1117 23.1507V22.3214C76.1117 21.7556 76.181 21.6874 76.7646 21.6874C77.3483 21.6874 77.4175 21.7556 77.4175 22.3214V23.1507ZM79.9204 21.463L79.2279 23.7456L78.5453 21.463H78.298L79.0597 23.9992H79.4158L80.1776 21.463H79.9204ZM81.7901 21.463H81.4438L80.6425 23.9992H80.8997L81.058 23.4626H82.166L82.3342 23.9992H82.6012L81.7901 21.463ZM81.1372 23.2188L81.6021 21.7069L82.0473 23.2188H81.1372ZM83.0563 21.463V21.7069H83.7488V23.9992H83.9961V21.7069H84.6985V21.463H83.0563ZM85.3811 21.463V23.9992H85.6284V21.463H85.3811ZM87.3596 21.463C86.6869 21.463 86.4594 21.5897 86.4594 22.3311V23.1799C86.4594 23.9213 86.6869 24.0578 87.3596 24.0578C88.0323 24.0578 88.2698 23.9213 88.2698 23.1799V22.3311C88.2698 21.5312 88.0323 21.3849 87.3596 21.3849V21.463ZM88.0224 23.1799C88.0224 23.736 87.9532 23.8139 87.3596 23.8139C86.766 23.8139 86.7067 23.736 86.7067 23.1799V22.3507C86.7067 21.7848 86.7759 21.7167 87.3596 21.7167C87.9433 21.7167 88.0224 21.7848 88.0224 22.3507V23.1799ZM90.6143 21.4923V23.7651L89.4569 21.4923H89.0711V24.0285H89.3085V21.7555L90.4659 24.0285H90.8616V21.4923H90.6143Z" fill="#636569"/>
<path d="M34.2956 17.7462C34.2956 19.1607 35.1166 19.5022 37.1545 19.5022H39.875C42.8428 19.5022 43.5155 19.2094 43.5155 17.4535C43.5155 15.6975 42.7142 15.3659 39.2221 15.3757C36.8182 15.3757 36.5511 15.3756 36.5511 14.8001C36.5511 14.4489 36.8973 14.2928 37.4018 14.2928H39.8849C40.8741 14.2928 40.9731 14.4976 40.9731 14.9658H43.2187V14.761C43.2187 13.6196 42.9714 12.8099 40.3894 12.8099H37.2535C34.4242 12.8099 34.2857 13.7173 34.2857 14.8977C34.2857 16.4976 34.6715 16.8488 38.0449 16.8488C40.9335 16.8488 41.1907 16.8486 41.1907 17.4535C41.1907 18.0583 40.706 17.9998 40.2014 17.9998H37.4612C36.8083 17.9998 36.472 17.951 36.472 17.2584H34.2263L34.2956 17.7462Z" fill="#636569"/>
<path d="M50.9943 12.9076H47.2054L43.6836 19.4241H46.1963L46.8492 18.2828H51.3899L52.0923 19.4241H54.5853L50.9943 12.9076ZM47.6901 16.8683L49.1047 14.4197L50.5491 16.8683H47.6901Z" fill="#636569"/>
<path d="M55.4657 19.424H58.2257V14.7415H58.2455L60.8967 19.424H63.1523L65.8035 14.7415H65.8233V19.424H68.5833V12.9075H64.4185L62.0245 17.1022L59.6404 12.9075H55.4657V19.424Z" fill="#636569"/>
<path d="M76.8734 12.8392H73.2824C71.3039 12.8392 70.0574 13.2879 70.0574 15.1999V17.151C70.0574 19.102 71.2544 19.5119 73.2824 19.5119H76.8734C78.8519 19.5119 80.0885 19.063 80.0885 17.151V15.1999C80.0885 13.2879 78.8915 12.8392 76.8734 12.8392ZM77.0614 16.517C77.0614 17.4925 76.8437 17.8243 75.7753 17.8243H74.3706C73.3022 17.8243 73.0845 17.4633 73.0845 16.517V15.8146C73.0845 15.005 73.3022 14.5073 74.4893 14.5073H75.6665C76.8438 14.5073 77.0614 15.005 77.0614 15.8146V16.517Z" fill="#636569"/>
<path d="M87.4288 12.9076H83.63L80.1083 19.4241H82.6111L83.264 18.2828H87.8146L88.5071 19.4241H91.0001L87.4288 12.9076ZM84.1049 16.8683L85.5195 14.4197L86.9837 16.8683H84.1049Z" fill="#636569"/>
<path d="M11.2754 7.72744L13.0264 6.0105H20.7822L14.9851 11.8637C14.845 11.987 14.7316 12.1371 14.6517 12.3047C14.5718 12.4724 14.5271 12.6541 14.5202 12.8392C14.5189 13.013 14.5524 13.1853 14.619 13.3462C14.6855 13.5072 14.7837 13.6535 14.9078 13.7769C15.032 13.9002 15.1796 13.998 15.3423 14.0648C15.505 14.1316 15.6794 14.166 15.8557 14.166C16.0617 14.1668 16.265 14.1194 16.449 14.0279C16.633 13.9363 16.7924 13.8031 16.9142 13.6392L22.8498 7.70791C24.1049 6.59582 25.7328 5.98079 27.4201 5.9812C29.2567 5.9812 31.0181 6.70069 32.3168 7.98132C33.6154 9.26195 34.345 10.9988 34.345 12.8099C34.3471 14.4811 33.7276 16.0952 32.6039 17.3462L30.2989 19.6484H22.5233L28.4589 13.7171C28.6924 13.4717 28.8201 13.1464 28.815 12.8099C28.8163 12.637 28.7831 12.4655 28.7172 12.3052C28.6512 12.145 28.5539 11.999 28.4308 11.8758C28.3077 11.7526 28.1613 11.6545 27.9997 11.5872C27.8382 11.5198 27.6648 11.4846 27.4894 11.4833C27.3001 11.4965 27.1153 11.5463 26.9456 11.63C26.7758 11.7137 26.6244 11.8297 26.5001 11.9711L21.1383 17.3365C20.4962 18.0556 19.7063 18.6318 18.8211 19.027C17.936 19.4222 16.9757 19.6273 16.0041 19.6288C14.1675 19.6288 12.4061 18.9093 11.1074 17.6287C9.80879 16.3481 9.07923 14.6112 9.07923 12.8001C9.07333 11.8398 9.27291 10.8889 9.66497 10.0098C10.057 9.13064 10.6328 8.34296 11.3545 7.69814L11.2754 7.72744Z" fill="#E1251B"/>
</g>
<defs>
<clipPath id="clip0_150_45">
<rect width="82" height="18" fill="white" transform="translate(9 6)"/>
</clipPath>
</defs>
</svg>
