<svg width="100" height="30" viewBox="0 0 100 30" fill="none" xmlns="http://www.w3.org/2000/svg">
<g clip-path="url(#clip0_150_30)">
<path d="M55.04 14.46L55.21 14.33C55.7606 13.8395 56.4726 13.5689 57.21 13.57H59.97C60.6847 13.5596 61.3796 13.8048 61.9296 14.2613C62.4796 14.7178 62.8486 15.3556 62.97 16.06C62.9898 16.2495 62.9898 16.4405 62.97 16.63V24.69C62.97 24.79 62.97 24.8901 62.97 24.9801C62.3041 25.0249 61.6359 25.0249 60.97 24.9801C60.97 24.9201 60.97 24.8601 60.97 24.8001V16.9C60.97 16.77 60.97 16.65 60.97 16.53C60.942 16.2659 60.821 16.0203 60.6287 15.8372C60.4364 15.654 60.1851 15.5452 59.92 15.53H57.33C57.1753 15.5232 57.0208 15.548 56.876 15.6029C56.7312 15.6578 56.5991 15.7416 56.4877 15.8492C56.3764 15.9568 56.2881 16.086 56.2283 16.2288C56.1685 16.3717 56.1385 16.5252 56.1401 16.6801C56.1401 16.7901 56.1401 16.9 56.1401 17.01V24.64C56.1699 24.7683 56.1699 24.9018 56.1401 25.03C55.4742 25.0759 54.8059 25.0759 54.1401 25.03C54.1401 24.97 54.1401 24.91 54.1401 24.84V16.58C54.125 16.296 54.0034 16.028 53.7995 15.8297C53.5956 15.6313 53.3243 15.5172 53.04 15.51H50.42C50.1997 15.5138 49.986 15.5848 49.8073 15.7135C49.6286 15.8421 49.4933 16.0224 49.42 16.2301C49.3744 16.3451 49.3475 16.4666 49.34 16.59C49.34 16.73 49.34 16.86 49.34 17V24.59C49.3751 24.7278 49.3751 24.8722 49.34 25.01C48.6743 25.0602 48.0057 25.0602 47.34 25.01C47.3344 24.9468 47.3344 24.8832 47.34 24.82C47.3348 24.7434 47.3348 24.6666 47.34 24.59C47.34 22.01 47.34 19.4401 47.34 16.8601C47.3331 16.5684 47.3565 16.2768 47.4099 15.9901C47.5483 15.3124 47.9166 14.7034 48.4523 14.2661C48.9881 13.8287 49.6584 13.5899 50.35 13.59C51.28 13.59 52.2101 13.59 53.1401 13.59C53.8801 13.5944 54.5924 13.8722 55.1401 14.37L55.2701 14.47L55.04 14.46Z" fill="black"/>
<path d="M26.85 19.32C26.85 19.97 26.85 20.62 26.85 21.32C26.8394 22.3183 26.4355 23.272 25.7258 23.9741C25.0162 24.6763 24.0582 25.0701 23.0599 25.07H19.83C18.9627 25.0703 18.1217 24.7724 17.448 24.2262C16.7743 23.6799 16.309 22.9187 16.13 22.07C16.0781 21.8166 16.0513 21.5587 16.0499 21.3001C16.0499 20.0101 16.0499 18.72 16.0499 17.44C16.0529 16.6204 16.3201 15.8235 16.8119 15.1678C17.3037 14.5121 17.994 14.0324 18.78 13.8001C19.1347 13.7001 19.5015 13.6496 19.87 13.65H23.03C23.8897 13.6471 24.725 13.935 25.4004 14.4669C26.0758 14.9989 26.5514 15.7436 26.75 16.58C26.8129 16.8659 26.8463 17.1574 26.85 17.45V19.4V19.32ZM24.77 19.32V17.1701C24.7622 16.7279 24.5823 16.3061 24.2687 15.9943C23.955 15.6825 23.5322 15.5052 23.09 15.5H19.7999C19.4054 15.5082 19.026 15.6533 18.7268 15.9106C18.4276 16.1679 18.2271 16.5212 18.1599 16.9101C18.1455 17.0764 18.1455 17.2437 18.1599 17.4101V21.4801C18.1716 21.8125 18.2801 22.1343 18.4719 22.406C18.6638 22.6778 18.9307 22.8877 19.24 23.01C19.4585 23.0999 19.6939 23.1408 19.9299 23.13H23.1599C23.5224 23.1348 23.8755 23.0148 24.1599 22.7901C24.3759 22.6356 24.5514 22.4313 24.6715 22.1945C24.7916 21.9578 24.8529 21.6956 24.85 21.4301C24.78 20.7101 24.77 20.0001 24.77 19.3001V19.32Z" fill="black"/>
<path d="M45.34 19.29C45.34 19.95 45.34 20.62 45.34 21.29C45.3243 22.2874 44.9169 23.2386 44.206 23.9383C43.495 24.638 42.5375 25.0301 41.54 25.03H38.35C37.4793 25.0349 36.6335 24.739 35.9557 24.1924C35.2779 23.6458 34.8097 22.882 34.6301 22.03C34.5752 21.7768 34.545 21.5189 34.54 21.2599C34.54 19.9799 34.54 18.71 34.54 17.43C34.5373 16.9289 34.6341 16.4323 34.8246 15.9688C35.0152 15.5054 35.2958 15.0843 35.6501 14.73C36.0044 14.3757 36.4254 14.0951 36.8888 13.9046C37.3523 13.7141 37.849 13.6173 38.35 13.6199H41.54C42.3935 13.6204 43.2222 13.9076 43.8931 14.4352C44.564 14.9629 45.0384 15.7006 45.24 16.53C45.3132 16.8242 45.3468 17.1269 45.34 17.43V19.34V19.29ZM43.2701 19.29V17.21C43.2714 16.9832 43.2279 16.7585 43.142 16.5487C43.0562 16.3389 42.9297 16.148 42.7698 15.9872C42.61 15.8265 42.4198 15.6989 42.2105 15.6118C42.0012 15.5247 41.7767 15.48 41.55 15.48H38.2501C37.8734 15.4951 37.5128 15.6365 37.2262 15.8813C36.9397 16.1262 36.7437 16.4603 36.67 16.8299C36.6502 17.0094 36.6502 17.1905 36.67 17.3699C36.67 18.6499 36.67 19.94 36.67 21.23C36.665 21.3066 36.665 21.3834 36.67 21.46C36.6808 21.8283 36.8118 22.183 37.0429 22.47C37.274 22.7571 37.5925 22.9607 37.95 23.05C38.1331 23.0952 38.3215 23.1153 38.5101 23.11H41.7C41.9698 23.1034 42.2337 23.0295 42.4677 22.8951C42.7017 22.7606 42.8984 22.5698 43.04 22.34C43.2347 22.0437 43.3326 21.6943 43.32 21.34L43.2701 19.29Z" fill="black"/>
<path d="M75.47 24.99C74.8043 25.0399 74.1357 25.0399 73.47 24.99C73.4646 24.9301 73.4646 24.8698 73.47 24.8099C73.47 24.6999 73.47 24.59 73.47 24.48V17.48C73.48 17.3101 73.48 17.1398 73.47 16.97C73.4333 16.5594 73.247 16.1766 72.9464 15.8945C72.6459 15.6124 72.2521 15.4506 71.84 15.4399H68.51C68.0789 15.4472 67.6668 15.6191 67.3582 15.9202C67.0496 16.2214 66.8678 16.6291 66.85 17.0599C66.845 17.1399 66.845 17.2201 66.85 17.3C66.85 18.61 66.85 19.92 66.85 21.23C66.8298 21.4161 66.8298 21.6039 66.85 21.79C66.9361 22.1354 67.1298 22.4445 67.403 22.6728C67.6762 22.9011 68.0148 23.0366 68.37 23.0599H72.37C72.4903 23.021 72.6198 23.021 72.74 23.0599C72.7554 23.2257 72.7349 23.3929 72.6799 23.55C72.5694 23.9344 72.3392 24.2736 72.0227 24.5182C71.7062 24.7628 71.3198 24.9 70.9199 24.91C70.0599 24.91 69.21 24.91 68.36 24.91C67.4729 24.8768 66.6256 24.5333 65.9658 23.9393C65.3061 23.3454 64.8759 22.5387 64.75 21.66C64.7401 21.4901 64.7401 21.3198 64.75 21.15V17.22C64.7599 16.4068 65.0305 15.6182 65.5219 14.9702C66.0133 14.3221 66.6996 13.8489 67.48 13.6199C67.8056 13.5278 68.1417 13.4775 68.48 13.47H71.74C72.5709 13.4746 73.3771 13.7521 74.0348 14.2598C74.6925 14.7675 75.1652 15.4774 75.38 16.28C75.4731 16.6594 75.5168 17.0493 75.51 17.4399V22.22C75.51 22.99 75.51 23.76 75.51 24.54C75.5391 24.6908 75.5252 24.8467 75.47 24.99Z" fill="black"/>
<path d="M87.15 24.99C86.4839 25.0293 85.8161 25.0293 85.15 24.99C85.1435 24.9302 85.1435 24.8698 85.15 24.81C85.15 24.71 85.15 24.61 85.15 24.51V17.39C85.1553 17.1883 85.1351 16.9867 85.0899 16.79C85.0112 16.4245 84.8114 16.0963 84.5228 15.8585C84.2342 15.6208 83.8738 15.4874 83.5 15.48C82.66 15.48 81.8199 15.48 80.9799 15.48C80.5609 15.492 80.1616 15.6611 79.8615 15.9538C79.5614 16.2465 79.3824 16.6414 79.3599 17.06C79.3599 17.19 79.3599 17.33 79.3599 17.46V24.97C79.2799 24.97 79.2199 24.97 79.1599 24.97H77.4799H77.3299C77.3253 24.9101 77.3253 24.8499 77.3299 24.79C77.3251 24.7335 77.3251 24.6766 77.3299 24.62V17.43C77.3181 17.0589 77.3619 16.6881 77.4599 16.33C77.6494 15.6382 78.0323 15.0148 78.5637 14.533C79.0951 14.0512 79.7529 13.7311 80.4599 13.61C80.6765 13.5615 80.898 13.538 81.12 13.54C81.93 13.54 82.7399 13.54 83.5399 13.54C84.2877 13.5363 85.0194 13.7574 85.64 14.1747C86.2605 14.5919 86.7413 15.1861 87.02 15.88C87.2198 16.3302 87.3219 16.8175 87.3199 17.31V24.71C87.1699 24.81 87.16 24.9 87.15 24.99Z" fill="black"/>
<path d="M14.84 13.59C14.8905 14.209 14.8905 14.831 14.84 15.45C14.7225 15.485 14.5974 15.485 14.48 15.45H9.70996C9.28057 15.4598 8.87106 15.6327 8.56458 15.9337C8.2581 16.2346 8.07762 16.6409 8.05994 17.07C8.05511 17.1266 8.05511 17.1835 8.05994 17.2401C8.05994 18.6001 8.05994 19.95 8.05994 21.31C8.05635 21.4748 8.07319 21.6394 8.10999 21.8C8.1961 22.1455 8.38965 22.4546 8.66284 22.6829C8.93604 22.9111 9.27477 23.0467 9.63001 23.07H14.4299C14.5616 23.04 14.6983 23.04 14.83 23.07C14.8705 23.676 14.8705 24.284 14.83 24.89H14.65H9.88001C9.46389 24.8939 9.04949 24.8366 8.65003 24.72C7.89017 24.486 7.22284 24.0195 6.74207 23.3862C6.26129 22.753 5.99123 21.9848 5.96997 21.19V17.19C5.96923 16.3215 6.26676 15.4791 6.81287 14.8037C7.35898 14.1284 8.12052 13.6611 8.96997 13.48C9.23352 13.4282 9.50143 13.4014 9.77002 13.4H14.5L14.84 13.59Z" fill="black"/>
<path d="M88.89 11.3001C89.5561 11.2608 90.2239 11.2608 90.89 11.3001C90.92 11.4046 90.92 11.5155 90.89 11.62V13.2C90.8665 13.3201 90.8878 13.4447 90.9499 13.5501H93.9699C93.9668 13.61 93.9668 13.6701 93.9699 13.7301C93.9699 14.1101 93.9699 15.1901 93.9699 15.4101C93.8825 15.4611 93.7794 15.4789 93.6799 15.46H90.9699C90.9658 15.5266 90.9658 15.5934 90.9699 15.6601C90.9649 15.7366 90.9649 15.8134 90.9699 15.89V22.01C90.9842 22.2875 91.1001 22.55 91.2956 22.7474C91.4911 22.9448 91.7527 23.0632 92.03 23.08H93.6099H93.9399C93.979 23.2815 93.979 23.4886 93.9399 23.69C93.9399 23.9 93.9399 24.12 93.9399 24.33C93.9694 24.5323 93.9694 24.7378 93.9399 24.94H93.7099H91.89C91.2039 24.9421 90.5379 24.709 90.0029 24.2796C89.4679 23.8501 89.0963 23.2503 88.9499 22.58C88.8931 22.3071 88.8663 22.0288 88.87 21.75C88.87 19.84 88.87 17.92 88.87 16.01V11.6101C88.88 11.5701 88.89 11.4401 88.89 11.3001Z" fill="black"/>
<path d="M33.62 13.6C33.6265 13.6331 33.6265 13.667 33.62 13.7C33.62 14.22 33.62 14.75 33.62 15.28C33.62 15.28 33.62 15.38 33.62 15.46H33.35H31.84C31.7174 15.4404 31.5926 15.4404 31.47 15.46C31.2571 15.514 31.0652 15.6305 30.9191 15.7944C30.773 15.9584 30.6793 16.1623 30.6501 16.38C30.6349 16.5463 30.6349 16.7137 30.6501 16.88C30.6501 19.4133 30.6501 21.9467 30.6501 24.48C30.6698 24.626 30.6698 24.774 30.6501 24.92C30.6068 24.9231 30.5633 24.9231 30.5201 24.92H28.74H28.64C28.6314 24.8805 28.6314 24.8396 28.64 24.8C28.635 24.7101 28.635 24.62 28.64 24.53C28.64 21.94 28.64 19.35 28.64 16.77C28.638 16.4785 28.6613 16.1874 28.71 15.9C28.8458 15.234 29.2036 14.6338 29.725 14.1978C30.2464 13.7618 30.9005 13.5158 31.58 13.5C32.24 13.5 32.91 13.5 33.58 13.5L33.62 13.6Z" fill="black"/>
<path d="M20.8 4.21L22.8 8.71C22.89 8.64 22.87 8.55002 22.87 8.48002V4.48002C22.8647 4.39344 22.8647 4.3066 22.87 4.22001C23.2703 4.14997 23.6797 4.14997 24.08 4.22001C24.08 4.22001 24.08 4.27998 24.08 4.30998V10.22C24.08 10.22 24.08 10.28 24.08 10.31C23.4914 10.3668 22.8986 10.3668 22.31 10.31C21.92 9.48998 21.5401 8.64003 21.1501 7.80003C20.7601 6.96003 20.3901 6.12998 20.0101 5.30998C19.9201 5.30998 19.92 5.37002 19.92 5.41002V9.93998C19.95 10.0581 19.95 10.1819 19.92 10.3C19.5249 10.35 19.1251 10.35 18.73 10.3C18.7095 10.1843 18.7095 10.0658 18.73 9.94999C18.73 8.68999 18.73 7.44004 18.73 6.18004C18.73 5.63004 18.73 5.09002 18.73 4.54002C18.73 4.43002 18.73 4.31998 18.73 4.18998H18.86H20.67L20.8 4.21Z" fill="black"/>
<path d="M6.37002 8.17002C6.85002 8.17002 7.29002 8.17002 7.74002 8.17002C7.74002 8.33002 7.73995 8.46001 7.79995 8.60001C7.8267 8.8122 7.9208 9.01022 8.06839 9.16501C8.21597 9.3198 8.40934 9.42318 8.62002 9.45999C9.04698 9.56507 9.49298 9.56507 9.91995 9.45999C10.1037 9.42735 10.2703 9.33149 10.3908 9.18906C10.5113 9.04662 10.5782 8.8666 10.58 8.68003V8.47C10.5827 8.33936 10.5418 8.21151 10.464 8.10654C10.3862 8.00157 10.2758 7.9254 10.1501 7.88999C10.0025 7.84393 9.85213 7.80721 9.69998 7.78C9.23998 7.73 8.77998 7.69999 8.32998 7.63999C8.0732 7.61453 7.81897 7.56769 7.56997 7.49997C7.18812 7.42704 6.85034 7.20684 6.62954 6.88687C6.40874 6.5669 6.32272 6.1729 6.39004 5.79001C6.39711 5.45727 6.50646 5.13475 6.70327 4.86637C6.90009 4.59798 7.17479 4.39676 7.49002 4.29001C7.84396 4.14686 8.21887 4.06242 8.6 4.04001C9.20266 3.99482 9.80873 4.03522 10.4001 4.16001C10.6434 4.21126 10.8765 4.30251 11.09 4.43003C11.3764 4.58983 11.5936 4.84979 11.7 5.16001C11.8305 5.455 11.8789 5.77978 11.84 6.10001C11.4118 6.15515 10.9782 6.15515 10.55 6.10001L10.49 5.80997C10.4555 5.62116 10.3673 5.44627 10.2361 5.30618C10.1049 5.1661 9.93618 5.06677 9.75003 5.01999C9.30466 4.89981 8.83541 4.89981 8.39004 5.01999C8.28128 5.04101 8.17789 5.08411 8.08645 5.14664C7.99501 5.20917 7.91747 5.28979 7.85842 5.38352C7.79938 5.47724 7.76011 5.58209 7.74319 5.69156C7.72627 5.80104 7.73204 5.91281 7.76004 6.01999C7.76672 6.13335 7.80895 6.24171 7.88076 6.32968C7.95257 6.41765 8.05021 6.48074 8.15994 6.50998C8.34174 6.57002 8.52956 6.61025 8.72 6.62998L10.1501 6.76999C10.4306 6.80224 10.7061 6.86944 10.97 6.97C11.246 7.05628 11.4866 7.22948 11.656 7.46378C11.8254 7.69808 11.9145 7.98089 11.9099 8.26999C11.9447 8.48862 11.9447 8.7114 11.9099 8.93003C11.8571 9.1839 11.748 9.42265 11.5905 9.62863C11.433 9.83461 11.2312 10.0025 11 10.12C10.6519 10.3023 10.2714 10.4144 9.88003 10.45C9.32003 10.51 8.75427 10.4898 8.19998 10.39C7.9353 10.3462 7.67895 10.2619 7.43997 10.14C7.21088 10.035 7.00842 9.87982 6.84744 9.68595C6.68645 9.49207 6.57113 9.26447 6.51004 9.01999C6.46557 8.85626 6.43536 8.68896 6.41995 8.51999C6.3919 8.40524 6.37523 8.28803 6.37002 8.17002Z" fill="black"/>
<path d="M25.2601 10.35C25.2601 10.35 25.2601 10.29 25.2601 10.27C25.2601 8.26996 25.2601 6.37999 25.2601 4.42999C25.2556 4.36006 25.2556 4.2899 25.2601 4.21997C25.3264 4.21053 25.3937 4.21053 25.46 4.21997C26.33 4.21997 27.21 4.21997 28.08 4.21997C28.3261 4.21991 28.5713 4.2501 28.81 4.30993C29.1282 4.37988 29.4258 4.52292 29.6792 4.72772C29.9326 4.93252 30.1349 5.19352 30.2701 5.48999C30.4199 5.80628 30.521 6.14343 30.57 6.48999C30.6701 7.1093 30.6701 7.74067 30.57 8.35998C30.5306 8.53621 30.4805 8.70982 30.42 8.87994C30.2847 9.25692 30.0478 9.58915 29.7354 9.83978C29.423 10.0904 29.0474 10.2497 28.6501 10.3C28.4189 10.3398 28.1846 10.3599 27.95 10.36H25.35L25.2601 10.35ZM26.5 9.34997H28.04C28.2835 9.3576 28.5227 9.28415 28.72 9.14117C28.9173 8.99819 29.0615 8.79373 29.1301 8.55993C29.1301 8.45993 29.19 8.36996 29.21 8.26996C29.2949 7.72659 29.2949 7.17331 29.21 6.62994C29.1907 6.39442 29.1298 6.1642 29.0301 5.94995C28.961 5.7773 28.8481 5.62562 28.7026 5.50989C28.557 5.39415 28.3838 5.31838 28.2 5.28998C28.0902 5.2802 27.9798 5.2802 27.87 5.28998H26.66H26.47C26.47 5.34998 26.47 5.37997 26.47 5.40997V9.19995C26.47 9.19995 26.49 9.22994 26.5 9.31994V9.34997Z" fill="black"/>
<path d="M45.1 10.31C45.0168 10.3167 44.9332 10.3167 44.85 10.31H43.6C43.5286 10.3148 43.457 10.3028 43.391 10.275C43.325 10.2472 43.2665 10.2045 43.22 10.1501C42.69 9.57007 42.15 9.0001 41.62 8.4301L40.9299 7.69005L40.7899 7.57005C40.6899 7.64005 40.72 7.73009 40.72 7.80009V9.91008C40.72 10.0401 40.72 10.1601 40.72 10.2701C40.3093 10.3362 39.8907 10.3362 39.48 10.2701C39.48 10.1901 39.48 10.1101 39.48 10.0201V4.55009C39.48 4.42009 39.48 4.30008 39.48 4.16008C39.6788 4.12991 39.8811 4.12991 40.08 4.16008H40.6599C40.6943 4.1951 40.7197 4.238 40.7336 4.28508C40.7476 4.33215 40.7498 4.38198 40.74 4.4301V6.21007C40.74 6.32007 40.74 6.43008 40.74 6.54008C40.74 6.65008 40.8899 6.54005 40.9399 6.44005L42.6799 4.57005L43.08 4.17009H43.6799H44.6799H44.9099C44.6912 4.43647 44.454 4.68709 44.2 4.92009L43.48 5.63005L42.7899 6.32005L42.0699 7.04008C42.3299 7.34008 42.59 7.60009 42.84 7.86009L43.6 8.66008L44.37 9.47008C44.58 9.75008 44.85 9.99004 45.1 10.31Z" fill="black"/>
<path d="M14.1 4.18994H16.1599L16.26 4.39996C16.91 6.28996 17.55 8.18996 18.2 10.08C18.2246 10.1519 18.2447 10.2255 18.26 10.3C17.8464 10.3924 17.4196 10.4093 17 10.35C17 10.28 16.93 10.1999 16.9 10.1199L16.5699 9.11993C16.5461 9.05068 16.516 8.98379 16.48 8.91998C15.5906 8.8749 14.6994 8.8749 13.8099 8.91998C13.6099 9.34998 13.5099 9.83997 13.3099 10.28C12.8978 10.3251 12.482 10.3251 12.0699 10.28C12.0699 10.18 12.0699 10.09 12.0699 9.98999C12.4399 8.87999 12.82 7.76997 13.2 6.65997L13.9199 4.52997C13.9699 4.45997 14.05 4.33994 14.1 4.18994ZM15.1 5.07996C15.0718 5.11695 15.0484 5.15725 15.03 5.19995C14.74 6.02995 14.4499 6.85995 14.1699 7.69995C14.1649 7.73979 14.1649 7.7801 14.1699 7.81995C14.2065 7.82444 14.2435 7.82444 14.28 7.81995H15.97C16.0062 7.82811 16.0437 7.82811 16.08 7.81995C15.97 7.48995 15.29 5.35996 15.15 5.07996H15.1Z" fill="black"/>
<path d="M30.62 4.22003C31.0552 4.16933 31.4947 4.16933 31.9299 4.22003C31.9299 4.31003 32.0099 4.41001 32.0399 4.51001L33.45 8.89002C33.4607 9.02102 33.5216 9.14285 33.62 9.23004L35.23 4.23004C35.6716 4.1743 36.1184 4.1743 36.5599 4.23004C36.563 4.34082 36.5391 4.45068 36.49 4.55005L35.2899 8.22003C35.0799 8.85003 34.8699 9.47004 34.6699 10.1C34.6699 10.19 34.5999 10.27 34.5699 10.36C34.2371 10.3865 33.9028 10.3865 33.5699 10.36C33.237 10.3819 32.9029 10.3819 32.5699 10.36C32.4399 10.11 30.7899 5.18005 30.5699 4.36005C30.6299 4.33005 30.63 4.27003 30.62 4.22003Z" fill="black"/>
<path d="M38.3399 10.35C37.9299 10.35 37.54 10.35 37.14 10.35C37.14 10.27 37.1399 10.21 37.0899 10.15V4.57001C37.0647 4.45471 37.0647 4.33535 37.0899 4.22004C37.494 4.15468 37.9059 4.15468 38.3099 4.22004C38.3153 4.29327 38.3153 4.36678 38.3099 4.44001V10.1101C38.3599 10.1801 38.3499 10.25 38.3399 10.35Z" fill="black"/>
</g>
<defs>
<clipPath id="clip0_150_30">
<rect width="88.01" height="21.03" fill="white" transform="translate(6 4)"/>
</clipPath>
</defs>
</svg>
