<svg id="searchicon" xmlns="http://www.w3.org/2000/svg" width="33.69" height="33.94" viewBox="0 0 33.69 33.94"><path d="M124.88,93l-4.77-5.1a13.22,13.22,0,0,0-1.33-16.33A13.15,13.15,0,0,0,100.2,71a13.17,13.17,0,0,0-.56,18.58,12.92,12.92,0,0,0,4.51,3.12,13.18,13.18,0,0,0,12.9-1.58l4.43,4.76-.34-3.78Zm-4.55.32-2.74-3-.44-.46-.51.39a12.23,12.23,0,1,1-2.75-21,12.08,12.08,0,0,1,4.22,2.92,12.29,12.29,0,0,1,1.16,15.32l-.33.47,3.13,3.35-1-.17-1-.29Z" transform="translate(-96.08 -67.42)" fill="#a57f2d"/><path d="M116.94,73.28a10.64,10.64,0,1,0-15.48,14.59,10.65,10.65,0,0,0,7.74,3.34,10.63,10.63,0,0,0,7.74-17.93Zm-1.07,14.38a9.73,9.73,0,1,1-6.66-16.8,9.82,9.82,0,0,1,3.72.73,9.57,9.57,0,0,1,3.34,2.32A9.78,9.78,0,0,1,115.87,87.66Z" transform="translate(-96.08 -67.42)" fill="#a57f2d"/><path d="M122,96.08l-.3-3.35,3.5.83,4.61,4.94a4.6,4.6,0,0,1-3.33,2.86Z" transform="translate(-96.08 -67.42)" fill="#f9f9f9"/></svg>