<svg width="130" height="130" viewBox="0 0 130 130" fill="none" xmlns="http://www.w3.org/2000/svg">
<g clip-path="url(#clip0_63_129)">
<path d="M61.3028 54.2672C61.4404 54.0876 61.5648 53.8984 61.675 53.7011L63.9803 49.4866V80.471L66.8755 82.43L87.1969 96.2329L108.979 80.5519V21.0182C108.979 19.1569 108.233 17.3717 106.903 16.0556C105.574 14.7394 103.771 14 101.891 14H71.0323C69.8359 14.0054 68.6609 14.3148 67.6198 14.8986C55.9019 12.7368 43.7895 14.6182 33.3031 20.229C22.8167 25.8397 14.5901 34.8406 9.99572 45.7303C6.37095 54.3847 5.19633 63.8533 6.59784 73.119C7.99936 82.3846 11.9241 91.0971 17.9505 98.3204C23.9769 105.544 31.8772 111.005 40.8025 114.117C49.7279 117.229 59.341 117.875 68.6091 115.985L69.6438 115.769L68.7362 115.203C67.8602 114.648 67.1392 113.884 66.6396 112.981C66.1399 112.078 65.8778 111.065 65.8772 110.036V88.4688L67.1115 87.8038L61.4844 77.5415C61.1334 76.904 60.6207 76.368 59.9968 75.9865C59.3729 75.6049 58.6593 75.3909 57.9264 75.3655C57.1935 75.3401 56.4666 75.5042 55.8173 75.8417C55.168 76.1791 54.6187 76.6782 54.2235 77.2899L48.5963 86.0425C47.0607 85.376 45.6055 84.5411 44.2579 83.5533L49.3677 74.4233C49.722 73.7871 49.9031 73.0706 49.8931 72.3441C49.8831 71.6177 49.6823 70.9064 49.3106 70.28C48.9389 69.6536 48.409 69.1338 47.773 68.7715C47.137 68.4093 46.4167 68.2171 45.6829 68.2139H35.2273C35.0295 66.6213 35.0113 65.0118 35.1729 63.4152L45.81 62.9659C46.5438 62.9349 47.2567 62.7149 47.8783 62.3275C48.4999 61.9401 49.0086 61.3989 49.3542 60.7572C49.6998 60.1156 49.8703 59.3957 49.8488 58.6688C49.8273 57.9419 49.6146 57.2332 49.2317 56.6126L43.8404 47.887C45.314 46.7541 46.9237 45.8063 48.6326 45.0654L54.3868 54.0516C54.7648 54.6447 55.2888 55.1331 55.9095 55.471C56.5301 55.8089 57.2273 55.9853 57.9356 55.9836H58.09C58.7215 55.9558 59.3386 55.787 59.895 55.4898C60.4514 55.1926 60.9326 54.7746 61.3028 54.2672ZM107.074 59.8117V79.5814L88.168 93.1955V73.4258L107.074 59.8117ZM107.074 33.563V57.4663L88.168 71.1164V47.3209L107.074 33.563ZM107.074 20.9823V31.1726L88.168 44.9305V15.8961H101.9C103.271 15.8985 104.586 16.4389 105.556 17.399C106.525 18.359 107.071 19.6605 107.074 21.0182V20.9823ZM86.2893 15.8961V45.0474L65.9044 31.3524V20.8385C65.9044 20.7846 65.9044 20.7396 65.9044 20.6588C66.0131 19.3761 66.6023 18.18 67.5561 17.3054C68.51 16.4309 69.7596 15.941 71.0596 15.9321L86.2893 15.8961ZM35.4632 61.4382C36.3581 56.6822 38.7844 52.341 42.3792 49.0642L47.607 57.5382C47.8208 57.8738 47.9403 58.2597 47.953 58.6562C47.9658 59.0527 47.8714 59.4454 47.6796 59.7938C47.4941 60.1469 47.2177 60.4451 46.8781 60.6582C46.5386 60.8712 46.1481 60.9915 45.7464 61.0069L35.4632 61.4382ZM47.7069 73.4438L42.7604 82.2772C39.0913 79.0785 36.5636 74.792 35.554 70.056H45.7011C46.1013 70.0579 46.4941 70.1629 46.8408 70.3607C47.1876 70.5586 47.4763 70.8423 47.6787 71.1842C47.8811 71.526 47.9901 71.9141 47.995 72.3103C48 72.7065 47.9007 73.0972 47.7069 73.4438ZM33.1851 65.5C33.1847 69.2228 34.0495 72.8958 35.7126 76.2346C37.3757 79.5734 39.7924 82.4885 42.7758 84.7543C45.7593 87.0201 49.2293 88.5758 52.9173 89.3009C56.6053 90.026 60.4124 89.9012 64.0438 88.9361V94.849C59.6438 95.7713 55.0915 95.7124 50.7173 94.6765C46.3431 93.6406 42.2567 91.6538 38.7543 88.8601C35.252 86.0664 32.4216 82.5358 30.4685 78.5246C28.5154 74.5133 27.4885 70.1219 27.4624 65.669C27.4363 61.216 28.4115 56.8131 30.3174 52.7797C32.2233 48.7462 35.0121 45.1833 38.4814 42.3495C41.9508 39.5157 46.0137 37.482 50.3754 36.3959C54.7371 35.3098 59.2883 35.1985 63.6989 36.0701V41.9651C60.0808 41.0562 56.3008 40.9777 52.6474 41.7355C48.994 42.4933 45.5638 44.0676 42.6184 46.3379C39.6731 48.6083 37.2905 51.5148 35.6525 54.8358C34.0145 58.1567 33.1643 61.8042 33.167 65.5H33.1851ZM64.0438 20.6498C64.0438 20.7666 64.0438 20.8924 64.0438 21.0182V34.21C59.3717 33.2913 54.552 33.4097 49.9317 34.5567C45.3113 35.7037 41.0053 37.8508 37.3237 40.8432C33.642 43.8357 30.6763 47.5992 28.64 51.8628C26.6037 56.1263 25.5476 60.7838 25.5476 65.5C25.5476 70.2162 26.6037 74.8737 28.64 79.1372C30.6763 83.4008 33.642 87.1643 37.3237 90.1567C41.0053 93.1492 45.3113 95.2963 49.9317 96.4433C54.552 97.5902 59.3717 97.7087 64.0438 96.79V109.991C64.0471 111.625 64.5502 113.219 65.4869 114.565C63.2331 114.899 60.9585 115.076 58.6798 115.095V104.599H56.7648V115.086C51.0011 114.947 45.3052 113.822 39.9287 111.761L43.8223 102.191L42.0071 101.481L38.1226 111.042C32.5924 108.671 27.5452 105.321 23.2287 101.157L30.6257 93.9683L29.2824 92.6114L21.8673 99.8453C17.6959 95.5541 14.3414 90.5524 11.9653 85.0809L21.3681 81.163L20.6239 79.4196L11.2482 83.3197C9.20024 78.0173 8.08588 72.4064 7.9536 66.7311H18.0191V64.835H7.94463C8.0214 58.9955 9.13973 53.2154 11.2482 47.7612L20.6239 51.6702L21.3681 49.9179L11.9744 45.9999C14.3311 40.5111 17.6772 35.4929 21.8491 31.1906L29.2552 38.3796L30.5985 37.0227L23.2015 29.8337C27.5183 25.6703 32.5654 22.3206 38.0953 19.9489L41.9799 29.5012L43.7951 28.7913L39.9015 19.221C45.2772 17.1586 50.9739 16.0366 56.7375 15.9051V26.383H58.6527V15.9051C60.9314 15.9246 63.206 16.1018 65.4597 16.4353C64.6537 17.5915 64.1656 18.9356 64.0438 20.3353V20.6498ZM57.9447 77.1911C58.3457 77.2049 58.736 77.3225 59.0768 77.5322C59.4176 77.7419 59.6969 78.0364 59.887 78.3863L64.0438 85.9616V86.9681H63.9894C59.5631 88.2209 54.8571 88.1143 50.4933 86.6625L55.9389 78.2244C56.1513 77.904 56.4408 77.641 56.7815 77.4591C57.1222 77.2771 57.5031 77.1819 57.8902 77.1821L57.9447 77.1911ZM63.6807 43.9421V46.1706L60.0503 52.8025C59.8624 53.1541 59.5837 53.45 59.2424 53.66C58.9012 53.87 58.5096 53.9865 58.108 53.9977C57.7064 54.0182 57.3067 53.9315 56.9506 53.7465C56.5945 53.5615 56.2952 53.2851 56.0841 52.9463L50.5386 44.3195C54.7596 42.9255 59.3015 42.7912 63.5991 43.9331L63.6807 43.9421ZM86.3074 47.3568V71.1883L65.9044 57.4124V33.6169L86.3074 47.3568ZM86.3074 73.4977V93.2674L65.9588 79.4646V59.6949L86.3074 73.4977Z" fill="#A57F2D"/>
<path d="M57.6633 60.0364C56.5719 60.0364 55.5051 60.3568 54.5976 60.9572C53.6901 61.5575 52.9828 62.4108 52.5651 63.4092C52.1475 64.4075 52.0382 65.5061 52.2512 66.5659C52.4641 67.6258 52.9896 68.5993 53.7614 69.3634C54.5331 70.1275 55.5163 70.6479 56.5868 70.8587C57.6572 71.0695 58.7668 70.9613 59.7751 70.5477C60.7835 70.1342 61.6453 69.4339 62.2517 68.5354C62.858 67.6369 63.1817 66.5806 63.1817 65.5C63.1793 64.0517 62.5971 62.6634 61.5628 61.6393C60.5284 60.6152 59.1261 60.0388 57.6633 60.0364ZM61.2938 65.5C61.2938 66.2109 61.0809 66.9059 60.682 67.497C60.2831 68.0881 59.716 68.5488 59.0527 68.8209C58.3893 69.0929 57.6594 69.1641 56.9552 69.0254C56.2509 68.8868 55.604 68.5444 55.0963 68.0417C54.5886 67.539 54.2428 66.8985 54.1027 66.2012C53.9626 65.504 54.0346 64.7812 54.3093 64.1244C54.5841 63.4676 55.0494 62.9063 55.6464 62.5113C56.2434 62.1163 56.9453 61.9055 57.6633 61.9055C58.6215 61.9126 59.5379 62.2945 60.2129 62.9678C60.8878 63.6411 61.2667 64.5513 61.2666 65.5H61.2938Z" fill="#A57F2D"/>
<path d="M87.1969 98.749L64.062 83.0591V110.018C64.0692 111.853 64.8088 113.611 66.1195 114.909C67.4303 116.207 69.2059 116.939 71.0596 116.946H101.918C103.773 116.944 105.552 116.213 106.864 114.914C108.176 113.615 108.914 111.854 108.916 110.018V83.0591L87.1969 98.749Z" fill="#00517E"/>
</g>
<defs>
<clipPath id="clip0_63_129">
<rect width="103" height="103" fill="white" transform="translate(6 14)"/>
</clipPath>
</defs>
</svg>
