<svg width="130" height="130" viewBox="0 0 130 130" fill="none" xmlns="http://www.w3.org/2000/svg">
<g clip-path="url(#clip0_63_125)">
<path d="M52.2102 69.7836H61.9246C61.955 69.7836 61.9842 69.7956 62.0057 69.817C62.0272 69.8384 62.0393 69.8674 62.0393 69.8976V76.5186C62.038 76.5792 62.0551 76.6388 62.0885 76.6896L65.6187 81.9505C65.6468 81.994 65.6857 82.0295 65.7316 82.0538C65.7775 82.078 65.8289 82.0901 65.8809 82.0889H76.4307C76.5133 82.0889 76.5924 82.0563 76.6508 81.9983C76.7092 81.9403 76.742 81.8615 76.742 81.7794V74.9794C76.7498 74.939 76.7498 74.8976 76.742 74.8572L69.5586 58.48C69.5354 58.4237 69.4957 58.3756 69.4445 58.3422C69.3933 58.3087 69.3331 58.2915 69.2719 58.2927H55.5112C55.4449 58.2934 55.3805 58.3151 55.3275 58.3546C55.2744 58.3942 55.2355 58.4495 55.2163 58.5126L51.9399 69.3846C51.9177 69.4259 51.9061 69.4721 51.9061 69.519C51.9061 69.5658 51.9177 69.612 51.9399 69.6533C51.9713 69.6949 52.0122 69.7284 52.0592 69.7511C52.1062 69.7738 52.158 69.7849 52.2102 69.7836ZM54.1105 68.0653L56.5678 60.0111H61.0646V68.0653H54.1105ZM62.7847 68.2852V60.0111H68.3217L75.0219 75.2726V80.3787H66.6344L63.7594 76.0951V69.8976C63.7614 69.5658 63.6715 69.2398 63.4996 68.9554C63.3277 68.671 63.0804 68.4391 62.7847 68.2852Z" fill="#A57F2D"/>
<path d="M109.817 16.2218C109.573 14.4914 108.707 12.9075 107.379 11.7635C106.05 10.6195 104.35 9.99297 102.593 10C102.075 10.0031 101.558 10.0604 101.053 10.171C100.113 10.403 99.2336 10.8328 98.4748 11.4312C97.7161 12.0297 97.0952 12.783 96.6541 13.6403C96.1621 14.6392 95.8981 15.7339 95.8811 16.8461C95.8641 17.9583 96.0945 19.0605 96.5559 20.0739L96.7688 20.6276L60.3602 35.482C60.2893 35.5132 60.2314 35.5678 60.1964 35.6367L52.284 52.0301H49.2042C49.1368 52.0303 49.0712 52.0517 49.0168 52.0912C48.9624 52.1307 48.9219 52.1863 48.9012 52.25L43.3968 69.352C43.39 69.375 43.376 69.3952 43.3568 69.4099C43.3377 69.4245 43.3145 69.4327 43.2903 69.4334H16.5307C16.4481 69.4334 16.369 69.466 16.3106 69.5241C16.2522 69.5821 16.2194 69.6608 16.2194 69.7429V90.4037C16.2194 90.4858 16.2522 90.5645 16.3106 90.6226C16.369 90.6806 16.4481 90.7132 16.5307 90.7132H23.0834V93.5309H19.7087C17.6912 93.5179 15.751 94.3012 14.3137 95.7089C12.8763 97.1166 12.0594 99.0337 12.0421 101.04V111.936C12.0349 113.533 12.5526 115.089 13.5164 116.366V116.423L50.3264 106.585L85.4572 117.132H85.5145H85.5555C86.9094 115.747 87.6674 113.892 87.6687 111.96V101.048C87.6514 99.0418 86.8345 97.1247 85.3971 95.717C83.9598 94.3094 82.0195 93.5261 80.002 93.5391H76.6274V90.7213H83.1309C83.1725 90.7224 83.2139 90.7152 83.2526 90.7001C83.2913 90.6851 83.3266 90.6625 83.3564 90.6336C83.3861 90.6048 83.4098 90.5703 83.426 90.5322C83.4421 90.4941 83.4504 90.4532 83.4504 90.4119V72.6258C83.4589 72.5883 83.4589 72.5493 83.4504 72.5118L74.981 52.2663C74.9577 52.2078 74.917 52.1577 74.8643 52.1228C74.8116 52.0879 74.7494 52.0698 74.6861 52.0709H71.6637L73.9244 44.1225C73.9333 44.0961 73.9506 44.0733 73.9735 44.0574L99.5374 27.7698L111.725 59.5957L95.0815 81.9912C95.0491 82.0394 95.0318 82.0961 95.0318 82.1541C95.0318 82.2121 95.0491 82.2687 95.0815 82.317C95.1085 82.3669 95.1487 82.4084 95.1978 82.4371C95.2469 82.4658 95.303 82.4806 95.36 82.4798H108.465C110.592 82.4787 112.646 81.7064 114.241 80.3077C115.837 78.9089 116.864 76.9797 117.131 74.8816L119.04 60.1577L109.817 16.2218ZM117.115 60.8499L115.379 74.6455C115.163 76.329 114.339 77.8769 113.059 78.9996C111.779 80.1223 110.131 80.7429 108.424 80.7452H98.1367L112.921 60.8499H117.115ZM113.159 58.5045L98.1694 19.4631V19.4224C97.7913 18.6425 97.595 17.788 97.595 16.9222C97.595 16.0565 97.7913 15.2019 98.1694 14.4221C98.497 13.7839 98.9593 13.2236 99.5248 12.7794C100.09 12.3353 100.746 12.0178 101.446 11.8486C101.821 11.7597 102.206 11.716 102.593 11.7183C103.943 11.7018 105.252 12.18 106.27 13.0617C107.288 13.9433 107.944 15.1668 108.113 16.4987L116.902 58.5045H113.159ZM72.2206 43.642L70.0501 51.3949H54.4874L61.4988 36.8664L96.8589 22.4437L98.3906 26.4098L72.9988 42.5915C72.618 42.8343 72.3409 43.2085 72.2206 43.642ZM73.7442 53.7485L81.7221 72.9271V89.0111H17.9395V71.1518H43.3313C43.7211 71.1515 44.1007 71.0284 44.4156 70.8001C44.7306 70.5719 44.9646 70.2502 45.0842 69.8814L50.269 53.7485H73.7442ZM75.5134 90.7213V93.5391H24.1564V90.7213H75.5134ZM50.8014 104.949L50.3509 104.81L14.3109 114.444C13.9263 113.666 13.7273 112.811 13.7294 111.944V101.048C13.7488 99.4968 14.3855 98.0168 15.5 96.9316C16.6145 95.8464 18.1161 95.2444 19.676 95.2574H80.0102C81.5693 95.2444 83.07 95.8466 84.1833 96.9321C85.2965 98.0175 85.9313 99.4976 85.9486 101.048V111.944C85.9523 113.108 85.5979 114.244 84.933 115.202L50.8014 104.949Z" fill="#A57F2D"/>
<path d="M102.994 14.3732C102.403 14.3732 101.825 14.5476 101.333 14.8742C100.841 15.2008 100.458 15.665 100.232 16.2082C100.006 16.7513 99.9463 17.349 100.062 17.9256C100.177 18.5022 100.462 19.0319 100.88 19.4476C101.298 19.8633 101.831 20.1464 102.411 20.2611C102.991 20.3758 103.592 20.3169 104.138 20.0919C104.684 19.867 105.151 19.486 105.48 18.9971C105.808 18.5083 105.984 17.9336 105.984 17.3457C105.981 16.558 105.666 15.8032 105.106 15.2462C104.545 14.6892 103.786 14.3754 102.994 14.3732ZM104.263 17.3457C104.263 17.5954 104.189 17.8394 104.049 18.047C103.91 18.2546 103.712 18.4164 103.48 18.5119C103.248 18.6075 102.992 18.6325 102.746 18.5838C102.5 18.5351 102.274 18.4148 102.096 18.2383C101.919 18.0617 101.798 17.8368 101.749 17.592C101.7 17.3471 101.725 17.0933 101.821 16.8627C101.917 16.632 102.08 16.4349 102.289 16.2961C102.497 16.1574 102.743 16.0834 102.994 16.0834C103.324 16.094 103.638 16.2313 103.868 16.4667C104.099 16.7021 104.229 17.0171 104.231 17.3457H104.263Z" fill="#A57F2D"/>
<path d="M25.082 98.8C24.3364 98.8 23.6076 99.0199 22.9878 99.4319C22.368 99.8439 21.8851 100.429 21.6002 101.114C21.3152 101.799 21.2411 102.553 21.3871 103.28C21.5332 104.007 21.8929 104.674 22.4206 105.198C22.9484 105.722 23.6205 106.078 24.352 106.221C25.0834 106.365 25.8412 106.29 26.5295 106.005C27.2178 105.72 27.8058 105.239 28.2188 104.621C28.6318 104.004 28.8514 103.279 28.8498 102.538C28.8476 101.546 28.4497 100.595 27.7433 99.8943C27.0369 99.1935 26.0798 98.8 25.082 98.8ZM27.1215 102.538C27.1215 102.939 27.0019 103.331 26.7778 103.665C26.5537 103.998 26.2351 104.258 25.8625 104.411C25.4898 104.565 25.0797 104.605 24.6841 104.527C24.2884 104.449 23.925 104.255 23.6398 103.972C23.3546 103.688 23.1603 103.327 23.0816 102.934C23.0029 102.54 23.0433 102.132 23.1977 101.762C23.352 101.391 23.6135 101.075 23.9489 100.852C24.2843 100.629 24.6786 100.51 25.082 100.51C25.6229 100.51 26.1416 100.724 26.5241 101.104C26.9066 101.484 27.1215 102 27.1215 102.538Z" fill="#A57F2D"/>
<path d="M41.5785 98.8C40.8329 98.8 40.1041 99.0199 39.4844 99.4319C38.8646 99.8439 38.3816 100.429 38.0967 101.114C37.8118 101.799 37.7376 102.553 37.8837 103.28C38.0297 104.007 38.3894 104.674 38.9171 105.198C39.4449 105.722 40.117 106.078 40.8484 106.221C41.5798 106.365 42.3377 106.29 43.026 106.005C43.7144 105.72 44.3022 105.239 44.7153 104.621C45.1283 104.004 45.3479 103.279 45.3463 102.538C45.3441 101.546 44.9462 100.595 44.2398 99.8943C43.5335 99.1935 42.5763 98.8 41.5785 98.8ZM43.6262 102.538C43.6278 102.941 43.5091 103.335 43.2851 103.671C43.0611 104.007 42.7418 104.269 42.3678 104.425C41.9937 104.58 41.5818 104.622 41.184 104.544C40.7863 104.466 40.4206 104.273 40.1334 103.989C39.8462 103.704 39.6504 103.342 39.5707 102.946C39.491 102.551 39.5311 102.141 39.6858 101.769C39.8406 101.396 40.1031 101.078 40.44 100.854C40.7769 100.63 41.1731 100.51 41.5785 100.51C42.1194 100.51 42.6381 100.724 43.0206 101.104C43.4031 101.484 43.618 102 43.618 102.538H43.6262Z" fill="#A57F2D"/>
<path d="M58.0831 98.8C57.3376 98.8 56.6088 99.0199 55.989 99.4319C55.3692 99.8439 54.8863 100.429 54.6013 101.114C54.3164 101.799 54.2423 102.553 54.3883 103.28C54.5344 104.007 54.8941 104.674 55.4218 105.198C55.9496 105.722 56.6217 106.078 57.3531 106.221C58.0845 106.365 58.8424 106.29 59.5307 106.005C60.2191 105.72 60.8069 105.239 61.2199 104.621C61.633 104.004 61.8526 103.279 61.851 102.538C61.8488 101.546 61.4509 100.595 60.7445 99.8943C60.0381 99.1935 59.081 98.8 58.0831 98.8ZM60.1227 102.538C60.1227 102.939 60.003 103.331 59.7789 103.665C59.5548 103.998 59.2363 104.258 58.8636 104.411C58.4909 104.565 58.0809 104.605 57.6853 104.527C57.2896 104.449 56.9262 104.255 56.641 103.972C56.3557 103.688 56.1615 103.327 56.0828 102.934C56.0041 102.54 56.0445 102.132 56.1989 101.762C56.3532 101.391 56.6146 101.075 56.95 100.852C57.2854 100.629 57.6797 100.51 58.0831 100.51C58.624 100.51 59.1428 100.724 59.5253 101.104C59.9078 101.484 60.1227 102 60.1227 102.538Z" fill="#A57F2D"/>
<path d="M74.5878 98.8C73.8419 98.7984 73.1123 99.0169 72.4914 99.4279C71.8706 99.8389 71.3864 100.424 71.1002 101.109C70.814 101.794 70.7387 102.548 70.8838 103.275C71.0289 104.002 71.3879 104.671 71.9154 105.195C72.4428 105.719 73.1149 106.076 73.8466 106.221C74.5782 106.365 75.3365 106.29 76.0253 106.006C76.7141 105.721 77.3025 105.24 77.7158 104.622C78.1292 104.005 78.3491 103.28 78.3475 102.538C78.3453 101.547 77.9485 100.598 77.2439 99.8972C76.5393 99.1967 75.5843 98.8021 74.5878 98.8ZM76.6273 102.538C76.6273 102.939 76.5077 103.331 76.2836 103.665C76.0595 103.998 75.741 104.258 75.3683 104.411C74.9956 104.565 74.5855 104.605 74.1899 104.527C73.7943 104.449 73.4309 104.255 73.1456 103.972C72.8604 103.688 72.6662 103.327 72.5875 102.934C72.5088 102.54 72.5491 102.132 72.7035 101.762C72.8579 101.391 73.1193 101.075 73.4547 100.852C73.7901 100.629 74.1844 100.51 74.5878 100.51C75.1287 100.51 75.6475 100.724 76.03 101.104C76.4125 101.484 76.6273 102 76.6273 102.538Z" fill="#A57F2D"/>
<path d="M84.9247 118.695C84.2304 119.425 83.3935 120.006 82.4653 120.402C81.537 120.798 80.5372 121.002 79.527 121H20.1429C18.9698 121 17.8131 120.726 16.767 120.198C15.7209 119.67 14.8148 118.904 14.1225 117.962L50.3182 108.141L84.9247 118.695Z" fill="#02517D"/>
</g>
<defs>
<clipPath id="clip0_63_125">
<rect width="107" height="111" fill="white" transform="translate(12 10)"/>
</clipPath>
</defs>
</svg>
