<svg width="130" height="130" viewBox="0 0 130 130" fill="none" xmlns="http://www.w3.org/2000/svg">
<g clip-path="url(#clip0_63_123)">
<path d="M31.0782 34.378L36.983 95.6438L26.068 86.4142L24.2959 84.9135L22.5272 86.421L11.8945 95.4854L18.5238 34.378H31.0748M33.5918 31.6802H16.0306L8.59863 101.852L24.2993 88.4644L40.2006 101.916L33.5918 31.6802Z" fill="#A57F2D"/>
<path d="M74.534 59.1736V117.175H46.8571V73.1008L74.534 59.1736ZM77.2551 54.7898L44.136 71.4551V119.897H77.2551V54.7797V54.7898Z" fill="#A57F2D"/>
<path d="M110.163 59.2816V117.283H82.4864V73.2087L110.163 59.2816ZM112.884 54.8978L79.7653 71.5631V120.005H112.884V54.8876V54.8978Z" fill="#A57F2D"/>
<path d="M39.5272 31.6802C38.3911 31.6802 37.2993 31.6634 36.2652 31.6364L36.3163 29.4646C42 29.5995 49.4047 29.5052 56.2823 27.5493C57.9626 27.0738 63.3741 25.1887 62.4286 21.0746C62.1769 19.9753 61.2517 18.9165 59.9524 18.242C59.0938 17.8064 58.1499 17.5609 57.1862 17.5225C56.2225 17.484 55.2618 17.6536 54.3707 18.0194L53.3809 18.4139L52.9557 17.4428C52.8639 17.2337 50.6497 12.2935 45.3504 11.3358C43.372 11.0089 41.3406 11.2513 39.497 12.0343C37.6535 12.8173 36.0751 14.108 34.949 15.7534L33.9898 17.1225L33.1122 15.7028C31.2482 12.6915 27.67 12.0271 25.4864 13.2917C23.7857 14.2865 22.8027 16.4851 23.0748 18.7614L20.8979 19.0176C20.517 15.8477 21.8843 12.8634 24.3775 11.4167C27.4762 9.61598 31.551 10.5096 34.0714 13.3422C35.4919 11.7135 37.3127 10.4761 39.3573 9.74998C41.4019 9.02388 43.6009 8.83369 45.7415 9.1978C50.8095 10.1117 53.4966 13.8851 54.5102 15.6791C56.6677 15.0682 58.979 15.2962 60.9728 16.3165C62.8299 17.2843 64.1769 18.8828 64.568 20.5925C65.6599 25.3439 61.3163 28.3821 56.8877 29.64C51.0102 31.3126 44.7925 31.6802 39.5272 31.6802Z" fill="#A57F2D"/>
<path d="M102.888 94.0859V101.376H89.7619V94.0859H102.888ZM105.609 91.3882H87.0408V104.074H105.609V91.3882Z" fill="#A57F2D"/>
<path d="M67.2585 94.0859V101.376H54.1326V94.0859H67.2585ZM69.9796 91.3882H51.4116V104.074H69.9796V91.3882Z" fill="#A57F2D"/>
<path d="M41.3299 119.994H7L8.17687 106.664L24.3129 92.9056L40.5782 106.664L41.3299 119.994Z" fill="#00517E"/>
<path d="M125.84 52.0144L121.207 50.7263C121.248 50.3385 121.279 49.9574 121.299 49.5696C121.487 46.3196 121.024 43.0649 119.939 39.9926L124.112 37.3892C124.136 37.3744 124.156 37.3553 124.172 37.3327C124.188 37.3101 124.2 37.2846 124.206 37.2576C124.212 37.2307 124.212 37.2028 124.207 37.1756C124.202 37.1485 124.192 37.1224 124.177 37.0992L119.755 30.1457C119.737 30.1158 119.71 30.0912 119.679 30.0741C119.649 30.057 119.614 30.0479 119.578 30.0479C119.539 30.0497 119.5 30.0614 119.466 30.0817L115.69 32.4422C113.331 29.5521 110.347 27.2243 106.959 25.6305L108.272 21.0073C108.287 20.954 108.28 20.8972 108.252 20.8492C108.225 20.8012 108.179 20.7658 108.126 20.7509L100.15 18.5287C100.132 18.5254 100.113 18.5254 100.095 18.5287C100.049 18.5291 100.004 18.5445 99.9671 18.5725C99.9303 18.6004 99.9037 18.6395 99.8912 18.6838L98.5749 23.3238C97.7517 23.2429 96.9286 23.2025 96.1123 23.2025C93.2061 23.2044 90.3222 23.7053 87.5885 24.6829L85.5681 20.6531C85.5438 20.6037 85.5009 20.5658 85.4487 20.5475C85.3966 20.5292 85.3393 20.532 85.2891 20.5553L77.881 24.1973C77.8325 24.2244 77.7962 24.2686 77.7792 24.3212C77.7621 24.3737 77.7657 24.4305 77.7891 24.4805L80.0375 28.9587C77.231 31.2563 74.9639 34.1334 73.3946 37.3892L68.6327 36.0606H68.5748C68.5292 36.0601 68.4846 36.0743 68.4478 36.1011C68.411 36.1278 68.384 36.1656 68.3708 36.2089L66.1292 44.1201C66.1215 44.1466 66.1191 44.1746 66.1223 44.2021C66.1254 44.2296 66.1341 44.2561 66.1477 44.2803C66.1613 44.3044 66.1796 44.3256 66.2016 44.3427C66.2235 44.3598 66.2486 44.3724 66.2755 44.3797L71.0374 45.7085C70.722 48.8126 71.0026 51.9477 71.864 54.9483C71.9864 55.39 72.1225 55.825 72.2755 56.2566L73.4932 55.6295L76.7449 53.9434L77.9762 53.3093C77.8424 52.8597 77.729 52.41 77.6361 51.9604C77.2778 50.2628 77.1633 48.5236 77.2959 46.7943C77.4872 44.3091 78.1703 41.8856 79.3061 39.6621C80.8891 36.5867 83.2986 34.0048 86.2686 32.2017C89.2386 30.3985 92.6534 29.4445 96.136 29.4445C96.5816 29.4445 97.0341 29.4444 97.4762 29.4916C99.9821 29.6788 102.426 30.3525 104.67 31.4744C107.997 33.1503 110.748 35.7656 112.578 38.9902C114.407 42.2147 115.232 45.9043 114.949 49.5933C114.898 50.246 114.812 50.8954 114.69 51.5389C114.585 52.1054 114.452 52.6719 114.296 53.225C114.16 53.7106 114.003 54.1928 113.823 54.6649V65.955C114.297 65.5054 114.751 65.0266 115.184 64.5185C116.643 62.8514 117.87 60.9983 118.833 59.0084L123.48 60.3033H123.537C123.583 60.303 123.628 60.2881 123.665 60.2608C123.701 60.2335 123.728 60.1951 123.742 60.1515L125.983 52.2403C125.989 52.1922 125.978 52.1434 125.952 52.1023C125.926 52.0612 125.886 52.0302 125.84 52.0144ZM122.748 58.7183L119.207 57.7336L118.109 57.4269L117.616 58.4385C116.939 59.833 116.126 61.1588 115.19 62.3974V54.9178C115.347 54.4862 115.486 54.0478 115.612 53.6027C116.879 49.1323 116.543 44.3649 114.661 40.1128C112.779 35.8607 109.468 32.3871 105.293 30.2841C102.888 29.0833 100.27 28.3616 97.585 28.1596C97.102 28.1259 96.619 28.1089 96.1428 28.1089C91.7266 28.1023 87.4298 29.5305 83.91 32.1748C80.3902 34.8192 77.8411 38.5341 76.653 42.7511C76.2864 44.0433 76.0495 45.3683 75.9456 46.7067C75.7975 48.6885 75.9499 50.6811 76.3979 52.618L73.102 54.3041C72.3442 51.5474 72.1066 48.6755 72.4013 45.8332L72.517 44.7036L71.415 44.4L67.7483 43.3883L69.3639 37.6759L73.0204 38.6875L74.1258 38.9944L74.619 37.9828C76.0972 34.8965 78.242 32.1703 80.9013 29.9974L81.7347 29.323L81.2517 28.3653L79.517 24.9054L84.8742 22.2651L86.381 25.2763L86.9218 26.352L88.0612 25.944C90.6476 25.0188 93.3762 24.5454 96.1258 24.5446C96.9013 24.5446 97.6837 24.585 98.4524 24.6592L99.5885 24.7705L99.898 23.6813L100.918 20.1372L106.68 21.7423L105.68 25.2696L105.371 26.3655L106.391 26.8511C109.597 28.3539 112.419 30.5558 114.646 33.292L115.408 34.2228L116.429 33.5854L119.231 31.8386L122.439 36.8666L119.238 38.8629L118.32 39.4362L118.66 40.4479C119.691 43.3559 120.127 46.4385 119.942 49.5156C119.942 49.8798 119.895 50.2441 119.857 50.5982L119.738 51.7312L120.844 52.0381L124.371 53.0193L122.748 58.7183Z" fill="#00517E"/>
</g>
<defs>
<clipPath id="clip0_63_123">
<rect width="119" height="111" fill="white" transform="translate(7 9)"/>
</clipPath>
</defs>
</svg>
