<svg width="130" height="130" viewBox="0 0 130 130" fill="none" xmlns="http://www.w3.org/2000/svg">
<g clip-path="url(#clip0_63_128)">
<path d="M98.4142 94.0702H74.1727C73.9576 94.0702 73.7512 94.1556 73.599 94.3077C73.4469 94.4597 73.3615 94.666 73.3615 94.881V118.046C73.3615 118.261 73.4469 118.467 73.599 118.619C73.7512 118.771 73.9576 118.857 74.1727 118.857H98.4305C98.6456 118.857 98.8519 118.771 99.0041 118.619C99.1562 118.467 99.2418 118.261 99.2418 118.046V94.9215C99.2474 94.8103 99.2299 94.6991 99.1907 94.5949C99.1514 94.4907 99.091 94.3957 99.0134 94.3158C98.9357 94.236 98.8424 94.1729 98.7394 94.1307C98.6363 94.0884 98.5256 94.0678 98.4142 94.0702ZM97.2135 96.1215V116.878H75.3653V96.1215H97.2135Z" fill="#A57F2D"/>
<path d="M117.39 94.0702H105.051C104.835 94.0702 104.629 94.1556 104.477 94.3077C104.325 94.4597 104.239 94.666 104.239 94.881V118.046C104.239 118.261 104.325 118.467 104.477 118.619C104.629 118.771 104.835 118.857 105.051 118.857H117.39C117.606 118.857 117.812 118.771 117.964 118.619C118.116 118.467 118.202 118.261 118.202 118.046V94.9215C118.207 94.8117 118.19 94.7019 118.152 94.5988C118.114 94.4957 118.055 94.4015 117.979 94.3218C117.903 94.2422 117.812 94.1788 117.71 94.1356C117.609 94.0923 117.5 94.0701 117.39 94.0702ZM116.182 96.1215V116.878H106.259V96.1215H116.182Z" fill="#A57F2D"/>
<path d="M57.1355 54.0811C55.8341 50.0717 53.3794 46.5345 50.078 43.9114C46.7766 41.2883 42.775 39.6957 38.5731 39.3325C35.7277 39.0913 32.8626 39.4165 30.1437 40.2892C26.1422 41.5841 22.6085 44.0232 19.9798 47.3046C17.3511 50.5861 15.7427 54.5658 15.3539 58.7514C15.2322 60.1901 15.2485 61.6373 15.4026 63.073C15.5594 64.4652 15.85 65.8391 16.2706 67.1756C17.1147 69.8842 18.4941 72.396 20.3271 74.5621C23.972 78.8591 29.1622 81.5502 34.7762 82.054C35.4009 82.1108 36.0338 82.1351 36.6666 82.1351C37.4799 82.1389 38.2927 82.0928 39.1005 81.9972C40.5053 81.8429 41.8912 81.5496 43.238 81.1216C45.8159 80.3093 48.2126 79.0071 50.2963 77.2864C52.5158 75.4786 54.348 73.2422 55.6833 70.7108C57.0474 68.1707 57.8758 65.3781 58.1172 62.5054C58.3508 59.66 58.0172 56.7966 57.1355 54.0811ZM56.0484 62.3351C55.8365 64.9302 55.0966 67.4547 53.8741 69.754C51.5126 74.2504 47.4861 77.6461 42.6539 79.2162C41.434 79.6081 40.1787 79.8797 38.9058 80.027C35.745 80.3839 32.5449 79.9565 29.5887 78.7827C26.6326 77.6089 24.0116 75.7248 21.9578 73.2973C20.2886 71.3453 19.0328 69.0752 18.2664 66.6243C17.4911 64.1658 17.2153 61.5773 17.4551 59.0108C17.8005 55.2257 19.2512 51.6255 21.6267 48.6574C24.0023 45.6893 27.1982 43.4843 30.8172 42.3162C32.7529 41.6988 34.7725 41.3843 36.8044 41.3838C37.3561 41.3838 37.9078 41.3838 38.427 41.4487C42.2258 41.7805 45.843 43.222 48.8278 45.5937C51.8126 47.9654 54.0331 51.1625 55.2128 54.7865C55.6085 56.0324 55.8803 57.3143 56.024 58.6135C56.1642 59.8519 56.1831 61.1011 56.0808 62.3432L56.0484 62.3351Z" fill="#A57F2D"/>
<path d="M121.731 53.2216C119.611 51.6884 117.185 50.6291 114.619 50.1157C112.054 49.6022 109.407 49.6466 106.86 50.2459L114.973 45.1784C115.134 45.0772 115.27 44.9415 115.372 44.7811C115.474 44.6207 115.539 44.4396 115.562 44.251C115.586 44.0624 115.567 43.871 115.507 43.6906C115.447 43.5102 115.348 43.3454 115.216 43.2081L86.9019 13.4595C86.704 13.2489 86.44 13.1123 86.1536 13.0724C85.8673 13.0326 85.5759 13.092 85.328 13.2406L54.9693 31.0784L54.7422 30.8838C54.6065 30.7731 54.4337 30.7182 54.2589 30.7303C54.0841 30.7423 53.9204 30.8204 53.8011 30.9487L50.2314 35.0027C46.7291 33.1526 42.8811 32.0482 38.9301 31.7595L38.3459 26.5379C38.3262 26.3752 38.2478 26.2253 38.1253 26.1163C38.0028 26.0074 37.8447 25.9468 37.6807 25.946L28.2616 26.9919C28.0835 27.0123 27.9205 27.1021 27.8081 27.2417C27.6957 27.3814 27.643 27.5596 27.6612 27.7379L28.2535 32.9676C24.4488 34.1218 20.9261 36.0546 17.9095 38.6433L13.4474 35.4C13.3012 35.3007 13.1227 35.2605 12.948 35.2876C12.7733 35.3147 12.6154 35.407 12.5062 35.546L7.00563 43.1838C6.90562 43.329 6.86586 43.5072 6.89461 43.6811C6.92335 43.855 7.01841 44.0109 7.15982 44.1162L11.2163 46.9946C9.32172 50.5236 8.18599 54.4094 7.88189 58.4027L2.68146 58.9865C2.59335 58.9948 2.50783 59.0206 2.42982 59.0623C2.3518 59.1041 2.28282 59.161 2.22709 59.2297C2.11696 59.3699 2.06476 59.5468 2.08111 59.7243L3.12772 69.0648C3.15388 69.2397 3.24545 69.3981 3.38402 69.5079C3.52258 69.6178 3.69773 69.671 3.87404 69.6567L9.0501 69.0811C10.2072 72.9284 12.1615 76.4894 14.786 79.5324L11.5408 83.1648C11.4227 83.2982 11.3623 83.473 11.373 83.6509C11.3836 83.8287 11.4644 83.995 11.5976 84.1134L18.6397 90.3486C18.7759 90.4617 18.9505 90.518 19.1272 90.5059C19.3039 90.4939 19.4692 90.4143 19.5888 90.2837L21.3899 88.2486L22.4933 108.851H23.8725L36.7071 99.7134L51.9757 109.216L46.5643 87.9648C49.8959 86.7928 52.9801 85.0111 55.659 82.7108L59.9344 85.7837C60.0813 85.8808 60.2597 85.9182 60.4332 85.888C60.6067 85.8579 60.7621 85.7625 60.8675 85.6216L66.3599 77.9918C66.4115 77.9207 66.4485 77.84 66.4687 77.7544C66.4889 77.6689 66.4918 77.5802 66.4775 77.4935C66.4632 77.4068 66.4317 77.3238 66.3851 77.2493C66.3385 77.1748 66.2776 77.1102 66.2058 77.0594L62.4089 74.327C64.3347 70.7458 65.4769 66.7963 65.7596 62.7405L70.8545 62.173C70.9426 62.1647 71.0282 62.1389 71.1062 62.0971C71.1842 62.0553 71.2531 61.9984 71.3088 61.9297C71.4197 61.7899 71.4721 61.6127 71.4549 61.4351L70.4083 52.0946C70.3992 52.006 70.3726 51.9201 70.33 51.8419C70.2875 51.7636 70.2299 51.6946 70.1605 51.6388C70.0911 51.583 70.0113 51.5415 69.9257 51.5168C69.8401 51.492 69.7504 51.4845 69.6619 51.4946L64.5345 52.0703C64.3885 51.5919 64.2263 51.1216 64.0559 50.6513L84.898 32.2541L104.004 50.8541C104.069 50.9074 104.14 50.9536 104.215 50.9919C101.915 51.8843 99.8358 53.2639 98.1202 55.0359C96.4046 56.8079 95.0934 58.9301 94.2766 61.2567C92.7162 65.4517 92.774 70.0769 94.4387 74.2316C96.1034 78.3863 99.2558 81.7731 103.282 83.7324C103.455 83.82 103.647 83.8644 103.842 83.8621C104.08 83.8628 104.314 83.7953 104.515 83.6675C104.702 83.5542 104.856 83.3947 104.962 83.2043C105.069 83.0139 105.125 82.7992 105.124 82.581V67.8648L111.257 63.4865L117.39 67.8648V82.4594C117.39 82.6791 117.446 82.8951 117.553 83.0869C117.66 83.2787 117.815 83.4397 118.002 83.5545C118.19 83.6693 118.403 83.734 118.623 83.7424C118.843 83.7509 119.061 83.7027 119.256 83.6026C122.254 82.0487 124.756 79.6856 126.477 76.7817C128.198 73.8779 129.069 70.5498 128.992 67.1756C128.934 64.4489 128.249 61.772 126.99 59.3522C125.731 56.9325 123.931 54.8348 121.731 53.2216ZM85.7985 15.3244L113.034 43.9378L104.969 49.0054L85.7904 30.3568C85.5524 30.1386 85.2413 30.0175 84.9183 30.0175C84.5953 30.0175 84.2841 30.1386 84.0462 30.3568L63.1959 48.7541C62.0334 46.1897 60.4999 43.8102 58.6445 41.6919L61.8086 38.1244C61.924 37.9891 61.9848 37.8156 61.9789 37.6379C61.9746 37.5494 61.9523 37.4628 61.9133 37.3833C61.8742 37.3038 61.8192 37.2332 61.7517 37.1757L56.5514 32.5703L85.7985 15.3244ZM63.772 60.9405L63.6907 62.3108C63.4693 66.3144 62.3403 70.2154 60.3888 73.7189L59.6911 74.9837L63.8449 77.9675L59.9669 83.3513L55.5048 80.108L54.5313 80.9675C51.8913 83.2908 48.8167 85.0683 45.4854 86.1972C45.0959 86.3351 44.674 86.4567 44.3089 86.5702L42.9866 86.9513L43.5951 92.3594L37.0073 93.0972L36.3988 87.681L35.0359 87.5918C31.0906 87.359 27.2467 86.2511 23.7832 84.3486L22.6474 83.7243L18.9155 87.9324L13.9504 83.5378L17.447 79.581L16.4978 78.5108C13.8574 75.5434 11.9167 72.0218 10.8188 68.2054L10.4374 66.8919L4.91252 67.5081L4.17422 60.9243L9.71542 60.3081L9.80465 58.9459C10.0368 55.0029 11.1454 51.1611 13.0498 47.7L13.7475 46.4352L9.38276 43.3054L13.2608 37.9217L17.9338 41.2784L18.8992 40.4676C21.8359 37.8754 25.3102 35.9649 29.0729 34.873L30.3791 34.4838L29.7543 28.9136L36.3502 28.1757L36.9749 33.7379L38.3378 33.819C42.2295 34.0479 46.0237 35.1273 49.4526 36.9811L50.5884 37.5973L54.3204 33.373L59.2855 37.7676L55.8294 41.6757L56.7947 42.746C59.4712 45.7188 61.4452 49.2544 62.5712 53.0919L62.9607 54.3973L68.4207 53.7811L69.1589 60.373L63.772 60.9405ZM34.1272 90.0405L34.5815 94.0945C34.628 94.5424 34.84 94.9569 35.1761 95.2569C35.5122 95.5568 35.9482 95.7205 36.3988 95.7161H36.6179L44.5361 94.7756C44.8161 94.7432 45.0852 94.6475 45.3227 94.4957C45.5603 94.344 45.7602 94.1403 45.9072 93.8999L48.6899 104.838L36.5936 97.3134L24.3511 105.973L23.3289 86.9594C26.7321 88.5787 30.3815 89.62 34.1272 90.0405ZM118.875 66.3973L112.003 61.4919C111.939 61.4391 111.871 61.3903 111.801 61.3459L111.208 60.9405L110.632 61.354L110.47 61.4757L103.566 66.3973C103.401 66.5177 103.267 66.675 103.174 66.8566C103.081 67.0383 103.032 67.2392 103.03 67.4432V81.3324C99.7897 79.4305 97.326 76.445 96.0745 72.9035C94.823 69.362 94.8644 65.4924 96.1912 61.9784C96.9817 59.6992 98.3103 57.6441 100.064 55.9871C101.818 54.3301 103.946 53.1201 106.268 52.4595C107.822 52.0165 109.43 51.79 111.046 51.7865C114.499 51.7825 117.859 52.9042 120.616 54.9815C123.374 57.0587 125.378 59.9781 126.325 63.2968C127.272 66.6154 127.11 70.1522 125.863 73.3705C124.617 76.5887 122.354 79.3129 119.419 81.1297V67.4432C119.418 67.2383 119.368 67.0364 119.273 66.8545C119.179 66.6726 119.042 66.5159 118.875 66.3973Z" fill="#A57F2D"/>
<path d="M58.2958 110.165V118.273C58.2969 118.307 58.2911 118.34 58.2789 118.372C58.2668 118.403 58.2484 118.432 58.225 118.456C58.2015 118.48 58.1734 118.499 58.1424 118.512C58.1113 118.526 58.078 118.532 58.0442 118.532H16.3599C16.3262 118.532 16.2928 118.526 16.2618 118.512C16.2307 118.499 16.2027 118.48 16.1792 118.456C16.1557 118.432 16.1374 118.403 16.1252 118.372C16.1131 118.34 16.1074 118.307 16.1085 118.273V110.165C16.1085 110.098 16.1349 110.034 16.1821 109.987C16.2292 109.94 16.2932 109.913 16.3599 109.913H24.1646L36.7072 100.995L51.0671 109.913H58.0442C58.0773 109.913 58.11 109.92 58.1405 109.933C58.171 109.945 58.1987 109.964 58.2221 109.987C58.2455 110.01 58.2639 110.038 58.2766 110.069C58.2892 110.099 58.2958 110.132 58.2958 110.165Z" fill="#00517E"/>
</g>
<defs>
<clipPath id="clip0_63_128">
<rect width="127" height="106" fill="white" transform="translate(2 13)"/>
</clipPath>
</defs>
</svg>

