<svg width="130" height="130" viewBox="0 0 130 130" fill="none" xmlns="http://www.w3.org/2000/svg">
<g clip-path="url(#clip0_63_124)">
<path d="M115.167 106.062H112.083V32.9846C112.083 32.1909 111.926 31.4051 111.622 30.6718C111.317 29.9386 110.871 29.2723 110.309 28.7111C109.747 28.1499 109.079 27.7047 108.344 27.401C107.609 27.0973 106.822 26.941 106.026 26.941H100.617V13.8279C100.616 13.6095 100.529 13.4002 100.374 13.246C100.219 13.0918 100.009 13.0052 99.7901 13.0052H41.7243C41.5054 13.0052 41.2955 13.0918 41.1404 13.246C40.9854 13.4002 40.898 13.6095 40.8973 13.8279V51.1341C40.633 51.2343 40.3529 51.345 40.0913 51.4689C38.2687 52.3414 36.7731 53.7719 35.8224 55.5521C34.8717 57.3322 34.5157 59.3688 34.8064 61.365C31.264 62.6824 28.0395 64.7298 25.3429 67.3737C22.6464 70.0176 20.5383 73.1988 19.1559 76.71C17.7735 80.2211 17.148 83.9833 17.3199 87.7518C17.4919 91.5202 18.4575 95.2103 20.1539 98.5815L22.1991 97.7641C20.0837 93.6267 19.1804 88.978 19.5932 84.3515C20.0059 79.7251 21.7178 75.3086 24.5324 71.6092C27.7424 67.4164 32.2058 64.3514 37.277 62.8575C38.6148 62.4696 39.9833 62.1961 41.3676 62.04C42.303 61.9583 43.2438 61.9135 44.2004 61.9135C45.1569 61.9135 46.0924 61.9583 47.0278 62.04C48.4158 62.1977 49.7878 62.4729 51.1289 62.8628C56.2003 64.3534 60.6635 67.4181 63.8709 71.6119C66.6853 75.3103 68.3972 79.726 68.8099 84.3515C69.2226 88.9771 68.3195 93.625 66.2042 97.7615L68.2495 98.5789C69.9458 95.2081 70.9114 91.5184 71.0833 87.7504C71.2552 83.9823 70.6296 80.2203 69.2472 76.7096C67.8648 73.1989 65.7567 70.0182 63.0601 67.3748C60.3636 64.7314 57.1392 62.6846 53.597 61.3677C53.8863 59.4026 53.5469 57.3965 52.6269 55.6352C51.7069 53.874 50.2533 52.4473 48.4732 51.5586C48.209 51.4214 47.921 51.295 47.6356 51.1869V21.8281C47.6356 21.6824 47.6934 21.5427 47.7964 21.4394C47.8994 21.3361 48.0392 21.2777 48.1852 21.277H93.3715C93.5175 21.2777 93.6573 21.3361 93.7603 21.4394C93.8633 21.5427 93.9211 21.6824 93.9211 21.8281V26.941H88.4961C86.8898 26.941 85.3494 27.5777 84.2135 28.7111C83.0777 29.8445 82.4396 31.3817 82.4396 32.9846V106.062H79.3558C79.2473 106.062 79.1398 106.083 79.0395 106.124C78.9392 106.165 78.8479 106.226 78.7711 106.302C78.6943 106.379 78.6334 106.47 78.5918 106.57C78.5502 106.67 78.5287 106.777 78.5287 106.885V113.991C78.5287 114.21 78.6159 114.42 78.771 114.575C78.9261 114.73 79.1364 114.817 79.3558 114.817H115.18C115.399 114.817 115.61 114.73 115.765 114.575C115.92 114.42 116.007 114.21 116.007 113.991V106.885C116.007 106.776 115.985 106.667 115.943 106.566C115.9 106.466 115.838 106.374 115.76 106.298C115.682 106.221 115.589 106.161 115.487 106.12C115.385 106.08 115.276 106.06 115.167 106.062ZM51.483 60.0097C51.483 60.1706 51.483 60.3288 51.4672 60.487C50.0599 60.1817 48.6344 59.9667 47.1995 59.8435C45.2003 59.6167 43.1818 59.6167 41.1826 59.8435C39.7479 59.9676 38.3225 60.1826 36.9151 60.487C36.9151 60.3288 36.8992 60.1732 36.8992 60.0123C36.9043 58.6405 37.2957 57.2979 38.0287 56.1374C38.7618 54.9769 39.8071 54.0453 41.0452 53.4492C41.8991 53.0419 42.8246 52.8055 43.7696 52.7531C43.9097 52.7531 44.0471 52.7531 44.1924 52.7531C44.3378 52.7531 44.4804 52.7531 44.6231 52.7531C44.7658 52.7531 44.8874 52.7742 45.0116 52.7874H45.0433C45.888 52.8839 46.7086 53.1304 47.4664 53.5151C48.6749 54.1173 49.6908 55.0445 50.3995 56.192C51.1083 57.3395 51.4817 58.6618 51.4777 60.0097H51.483ZM93.3477 19.0805H48.1614C47.4314 19.0812 46.7314 19.3709 46.2152 19.886C45.699 20.4012 45.4086 21.0996 45.4079 21.8281V50.6198H45.3366C45.2467 50.6066 45.1569 50.6015 45.0723 50.5936C44.9878 50.5857 44.8768 50.5724 44.7791 50.5672C44.5835 50.5672 44.388 50.5461 44.1898 50.5461C43.8278 50.5461 43.4657 50.5698 43.1116 50.6067V15.1964H98.4266V26.941H96.1091V21.8281C96.1084 21.4664 96.0363 21.1083 95.8968 20.7744C95.7574 20.4405 95.5534 20.1374 95.2964 19.8822C95.0395 19.627 94.7347 19.4248 94.3994 19.2873C94.0641 19.1497 93.705 19.0795 93.3425 19.0805H93.3477ZM84.6276 32.9846C84.629 31.9649 85.0356 30.9875 85.7584 30.2668C86.4812 29.546 87.4611 29.1408 88.4829 29.1401H106.026C107.048 29.1415 108.027 29.547 108.749 30.2677C109.471 30.9884 109.878 31.9654 109.879 32.9846V40.1595H84.6276V32.9846ZM84.6276 42.3744H109.879V58.1507H84.6276V42.3744ZM84.6276 60.3499H109.879V93.3606H84.6276V60.3499ZM84.6276 95.5597H109.879V105.938H84.6276V95.5597ZM113.79 112.617H80.7194V108.259H113.79V112.617Z" fill="#A57F2D"/>
<path d="M103.376 74.5837C101.389 71.2296 99.4007 67.8781 97.4118 64.5293L91.2152 74.4544C88.4538 78.8791 91.2575 84.7725 96.4605 85.2418L96.7856 85.2629C96.9177 85.2629 97.0498 85.2629 97.1793 85.2629C97.775 85.2638 98.369 85.1975 98.9498 85.0652C103.598 84.0236 105.802 78.6735 103.376 74.5837ZM101.761 80.1712C101.472 80.8603 101.022 81.4703 100.448 81.9501C99.8745 82.43 99.194 82.7657 98.4635 82.9293C98.0423 83.0261 97.6115 83.0747 97.1793 83.0743C97.0842 83.0743 96.989 83.0743 96.8939 83.0743L96.6587 83.0584C95.8524 82.9909 95.078 82.7139 94.4123 82.255C93.7465 81.7961 93.2128 81.1713 92.8641 80.4427C92.4822 79.6882 92.3019 78.8481 92.3408 78.0036C92.3797 77.1592 92.6364 76.339 93.0861 75.6226L97.3616 68.7668L98.26 70.2803L101.479 75.7069C101.878 76.3749 102.112 77.1284 102.162 77.9049C102.211 78.6813 102.074 79.4583 101.761 80.1712Z" fill="#A57F2D"/>
<path d="M70.6356 103.067H65.3771C65.9622 102.323 66.5064 101.549 67.0075 100.746L64.9305 99.9211L44.1871 91.6599L23.4411 99.9237L21.3641 100.749C21.8654 101.55 22.4088 102.323 22.9919 103.067H15.8281C15.6094 103.067 15.3998 103.154 15.2451 103.308C15.0905 103.462 15.0036 103.671 15.0036 103.89V110.996C15.0036 111.214 15.0904 111.424 15.2449 111.578C15.3995 111.733 15.6092 111.82 15.8281 111.821H18.8669V116.175C18.8669 116.393 18.9537 116.603 19.1083 116.757C19.2628 116.912 19.4725 116.999 19.6914 117H27.4788C27.6981 117 27.9085 116.913 28.0636 116.758C28.2187 116.603 28.3058 116.394 28.3058 116.175V111.821H39.4624V116.175C39.4624 116.394 39.5495 116.603 39.7046 116.758C39.8597 116.913 40.0701 117 40.2895 117H48.0768C48.1855 117 48.293 116.979 48.3933 116.937C48.4937 116.896 48.5849 116.835 48.6617 116.758C48.7385 116.682 48.7994 116.591 48.8409 116.491C48.8825 116.39 48.9039 116.283 48.9039 116.175V111.821H59.7751V116.175C59.7751 116.393 59.8618 116.603 60.0164 116.757C60.1709 116.912 60.3806 116.999 60.5995 117H68.3895C68.6086 116.999 68.8186 116.912 68.9736 116.757C69.1286 116.603 69.2159 116.393 69.2166 116.175V111.821H70.633C70.8519 111.82 71.0616 111.733 71.2161 111.578C71.3706 111.424 71.4574 111.214 71.4574 110.996V103.89C71.4574 103.672 71.3709 103.463 71.2169 103.309C71.0628 103.155 70.8538 103.068 70.6356 103.067ZM26.1046 114.801H21.0839V111.826H26.1046V114.801ZM46.7159 114.801H41.6821V111.826H46.7159V114.801ZM67.0287 114.801H61.9921V111.826H67.0287V114.801ZM69.2721 109.622H17.2154V105.263H69.2721V109.622Z" fill="#00517E"/>
</g>
<defs>
<clipPath id="clip0_63_124">
<rect width="101" height="104" fill="white" transform="translate(15 13)"/>
</clipPath>
</defs>
</svg>
