<svg width="130" height="130" viewBox="0 0 130 130" fill="none" xmlns="http://www.w3.org/2000/svg">
<g clip-path="url(#clip0_63_126)">
<path d="M61.2396 17.1144L72.0194 17.3584L71.8567 24.1353V25.8882L73.5736 26.2225C79.3891 27.3707 84.8823 29.7796 89.6665 33.2796L91.0038 34.2464L92.2507 33.1711L97.5006 28.6532L104.54 36.7855L99.9493 40.7523L98.5488 41.963L99.5879 43.4901C103.026 48.5356 105.29 54.2881 106.211 60.324L106.473 62.0408H108.217L114.84 62.1944L114.596 72.9651L108 72.8115H106.247L105.913 74.5374C104.756 80.5487 102.254 86.2203 98.5939 91.1273L97.4915 92.6092L98.8289 93.8832L103.139 97.9584L95.7296 105.783L90.8321 101.148L89.6665 100.019L88.284 100.922C83.8243 103.898 78.818 105.959 73.5555 106.985C72.932 107.112 72.3085 107.22 71.6941 107.311L69.9592 107.564V109.326L69.7875 115.877L58.9445 115.633L59.089 109.073V107.329L57.3722 106.985C51.4555 105.816 45.8723 103.347 41.0263 99.7565L39.7704 98.7987L38.5053 99.8831L36.2915 101.799L33.2645 104.401L26.2255 96.2687L30.9152 92.2206L32.2977 91.0189L31.2857 89.4918C27.9119 84.4624 25.7074 78.7412 24.834 72.7483L24.572 71.0134H22.8191L16.1144 70.7875L16.3674 60.0077L23.1082 60.1704H24.8521L25.1955 58.4626C26.3629 52.5452 28.8321 46.9618 32.4242 42.1167L33.5265 40.6348L32.1893 39.3697L27.59 35.0235L34.9994 27.1984L40.1769 32.0959L41.3787 33.2254L42.7612 32.3218C47.7301 29.0014 53.3697 26.8171 59.2788 25.9243L61.0047 25.6623V23.9184L61.1583 17.1234M59.4776 15.009C59.3833 15.009 59.2927 15.0458 59.2251 15.1117C59.1576 15.1775 59.1185 15.2671 59.1162 15.3614L58.9264 23.8732C52.7154 24.8114 46.7865 27.1033 41.5595 30.5869L35.135 24.5148C35.0695 24.4513 34.9821 24.4157 34.891 24.4154C34.8436 24.415 34.7967 24.4245 34.7532 24.4431C34.7096 24.4618 34.6704 24.4892 34.6379 24.5238L24.8521 34.8518C24.7859 34.9194 24.7488 35.0102 24.7488 35.1048C24.7488 35.1994 24.7859 35.2902 24.8521 35.3578L30.6983 40.8878C26.9127 45.9752 24.302 51.8386 23.054 58.0559L14.5964 57.8572C14.5021 57.8571 14.4115 57.894 14.3439 57.9598C14.2764 58.0257 14.2373 58.1153 14.235 58.2096L13.9096 72.423C13.9084 72.4705 13.9166 72.5177 13.9337 72.562C13.9507 72.6064 13.9763 72.6469 14.0091 72.6813C14.0418 72.7157 14.081 72.7433 14.1244 72.7625C14.1678 72.7818 14.2146 72.7923 14.262 72.7935L22.6835 72.9832C23.6133 79.2766 25.9279 85.2853 29.4604 90.5761L23.4787 95.7537C23.443 95.7833 23.4135 95.8197 23.392 95.8607C23.3704 95.9017 23.3572 95.9466 23.353 95.9928C23.3488 96.039 23.3537 96.0855 23.3675 96.1297C23.3813 96.174 23.4038 96.215 23.4335 96.2506L32.7314 107.021C32.7653 107.06 32.8069 107.091 32.8536 107.113C32.9003 107.135 32.951 107.147 33.0024 107.148C33.0885 107.144 33.1709 107.112 33.2374 107.058L37.5566 103.326L39.7794 101.41C44.87 105.183 50.7332 107.781 56.9475 109.018L56.7578 117.295C56.7576 117.391 56.7938 117.484 56.8592 117.554C56.9246 117.625 57.0143 117.668 57.1102 117.675L71.3327 118C71.4262 117.995 71.5146 117.956 71.5799 117.889C71.6453 117.822 71.6829 117.732 71.6851 117.639L71.8748 109.389C72.5344 109.289 73.1941 109.172 73.8446 109.036C79.3772 107.957 84.641 105.792 89.3322 102.666L95.4675 108.485C95.5371 108.548 95.627 108.583 95.7205 108.585C95.7702 108.586 95.8195 108.576 95.8648 108.555C95.9101 108.535 95.9503 108.505 95.9825 108.467L105.759 98.1482C105.826 98.0806 105.863 97.9898 105.863 97.8952C105.863 97.8006 105.826 97.7097 105.759 97.6421L100.193 92.3743C104.039 87.2144 106.67 81.2533 107.892 74.935L116.205 75.1338C116.298 75.1315 116.386 75.0936 116.451 75.028C116.517 74.9625 116.555 74.8741 116.557 74.7814L116.892 60.5679C116.892 60.4727 116.855 60.3811 116.79 60.3121C116.724 60.2432 116.634 60.2021 116.539 60.1975L108.19 60.0077C107.215 53.6693 104.838 47.6282 101.232 42.3245L107.133 37.2373C107.199 37.1697 107.236 37.0789 107.236 36.9843C107.236 36.8897 107.199 36.7988 107.133 36.7313L97.8439 25.9605C97.7726 25.8872 97.6752 25.845 97.5729 25.8431C97.4866 25.8456 97.4037 25.8774 97.3379 25.9334L90.7779 31.5989C85.725 27.9154 79.9266 25.3833 73.7904 24.1804L73.9892 15.6958C73.9917 15.6014 73.9572 15.5098 73.893 15.4406C73.8288 15.3714 73.7402 15.33 73.6459 15.3253L59.4234 15L59.4776 15.009Z" fill="#A57F2D"/>
<path d="M65.5136 33.2163H66.3177C68.5191 33.2671 70.7103 33.5335 72.8598 34.0115C80.4039 35.6791 87.1325 39.9205 91.8908 46.0077C96.6491 52.0949 99.1404 59.6483 98.9373 67.3719C98.7993 74.0729 96.6351 80.575 92.7297 86.022C90.1429 89.6529 86.8517 92.7259 83.0522 95.0579C79.4727 97.276 75.5001 98.7853 71.3507 99.5036C69.4504 99.839 67.5246 100.008 65.5949 100.01H64.7817C62.5466 99.9561 60.3222 99.6837 58.1403 99.1963C49.587 97.2384 42.1439 92.0016 37.412 84.6124C35.0121 80.8924 33.3922 76.724 32.6501 72.3597C32.2741 70.2123 32.1076 68.0335 32.1531 65.8539C32.211 63.6003 32.4895 61.3577 32.9844 59.1583C34.4557 52.7794 37.7649 46.9718 42.5027 42.4541C47.2404 37.9365 53.1986 34.9069 59.6403 33.7404C61.5798 33.402 63.5447 33.2296 65.5136 33.2253M65.5136 31.1471C57.4867 31.1592 49.7002 33.8877 43.4214 38.8884C37.1425 43.8892 32.741 50.8678 30.9333 58.6884C30.4014 61.0238 30.0988 63.4055 30.0297 65.7997C29.9791 68.1184 30.1546 70.4365 30.5538 72.7212C31.353 77.3533 33.0737 81.7778 35.6138 85.7328C38.1691 89.7189 41.4927 93.1562 45.3907 95.844C51.0786 99.7679 57.7919 101.939 64.7003 102.088H65.6039C72.1554 102.088 78.5781 100.268 84.1546 96.8289C90.686 92.8234 95.7446 86.8104 98.5734 79.6899C101.402 72.5694 101.849 64.7243 99.8469 57.3287C97.8449 49.933 93.5018 43.3846 87.4674 38.6634C81.4331 33.9421 74.032 31.302 66.372 31.1381L65.5136 31.1471Z" fill="#A57F2D"/>
<path d="M48.5352 48.1978L42.3546 58.1373C41.7004 59.1531 41.318 60.3199 41.244 61.5259C41.1699 62.7319 41.4068 63.9367 41.9319 65.0249C42.4569 66.1132 43.2526 67.0484 44.2427 67.7409C45.2328 68.4335 46.3841 68.8603 47.5864 68.9803H47.9117C48.6369 69.0172 49.3636 68.9534 50.0713 68.7906C51.1489 68.5325 52.1506 68.0243 52.9953 67.307C53.84 66.5898 54.5039 65.6837 54.9333 64.6622C55.3627 63.6406 55.5454 62.5323 55.4668 61.427C55.3882 60.3217 55.0504 59.2504 54.4808 58.2999L48.5352 48.1978Z" fill="#00517E"/>
<path d="M65.5497 97.1542C57.6021 97.0659 49.9791 93.9884 44.1979 88.534C38.473 83.04 35.0958 75.544 34.7735 67.6159C38.5866 70.4532 44.8214 74.1398 51.9417 73.3085C62.2968 72.1067 65.7485 62.4654 76.0855 60.8299C80.3233 60.1794 87.019 60.6673 96.2988 67.6159C96.2988 69.5767 95.8018 81.9287 85.6094 90.4134C79.9461 94.9905 72.8278 97.3825 65.5497 97.1542Z" fill="#00517E"/>
</g>
<defs>
<clipPath id="clip0_63_126">
<rect width="103" height="103" fill="white" transform="translate(14 15)"/>
</clipPath>
</defs>
</svg>
