<svg width="100" height="30" viewBox="0 0 100 30" fill="none" xmlns="http://www.w3.org/2000/svg">
<g clip-path="url(#clip0_150_38)">
<path d="M62.1389 0H33.0125V20.1038H62.1389V0Z" fill="#0167A3"/>
<path d="M46.6474 12.3375C46.536 11.3109 46.0643 10.3631 45.3226 9.67517C44.5273 9.08001 43.6711 8.57798 42.7696 8.1782L39.0853 6.66111C39.0853 6.66111 38.0506 6.1488 37.8282 5.4857C37.7499 5.23426 37.7499 4.96352 37.8282 4.71207C37.9696 4.21033 38.2798 3.77799 38.7022 3.49398C39.1247 3.20998 39.6313 3.09317 40.1297 3.16481C41.4733 3.43074 42.7132 4.09747 43.6979 5.08368L44.3362 5.73687L46.4539 2.24058L45.0518 1.30604L44.5489 2.17018C44.0557 1.92455 43.5487 1.70994 43.0308 1.52729C42.5182 1.37658 41.6382 1.14535 41.3771 1.11521C40.7336 1.05665 40.0865 1.05665 39.4431 1.11521C38.4952 1.22898 37.604 1.64279 36.8903 2.30067C36.2123 2.91385 35.73 3.72687 35.5074 4.63162C35.3275 5.26562 35.2236 5.92021 35.198 6.58065C35.2044 6.9441 35.2799 7.30269 35.4204 7.63563C35.996 8.87188 37.0121 9.82692 38.2537 10.2982L41.1547 11.4736C42.3054 11.986 43.6206 12.5786 43.9784 13.8445C44.0364 14.1767 44.0364 14.517 43.9784 14.8492C43.843 15.3616 43.3498 16.4268 41.2611 16.3364C39.9358 16.2086 38.6995 15.5878 37.7798 14.5882L37.1512 13.9451L36.252 12.9404L33.8054 16.1956C34.6476 17.014 35.5829 17.7226 36.5904 18.3055C37.3794 18.7137 38.2297 18.9787 39.1046 19.0892C39.7979 19.1397 40.4943 19.1195 41.1837 19.0289C42.3071 18.8853 43.3813 18.4651 44.3168 17.8032C45.0042 17.2267 45.5731 16.5126 45.9898 15.7033C46.4403 14.8138 46.679 13.8251 46.686 12.82C46.686 12.82 46.6474 12.5887 46.6474 12.3375Z" fill="white"/>
<path d="M60.7367 5.63631C60.3328 4.57114 59.6657 3.63552 58.8027 2.9237C57.5743 2.05083 56.161 1.49924 54.6832 1.3161C54.1417 1.25582 52.5462 1.3161 52.5462 1.3161H47.4597V3.12459H48.9005V16.7382H47.4597V18.5467H54.0837V16.708H52.2754V14.3371C53.1894 14.4918 54.1182 14.5287 55.041 14.4474C56.4105 14.2955 57.731 13.8324 58.9091 13.091C59.7504 12.4681 60.9495 11.333 61.0559 7.99742C61.0742 7.1976 60.9663 6.39996 60.7367 5.63631Z" fill="white"/>
<path d="M55.747 4.13934C55.1308 3.61713 54.3941 3.27084 53.6098 3.13465C53.1655 3.10453 52.7197 3.10453 52.2753 3.13465C52.2753 3.13465 52.2753 11.7751 52.2753 11.8153C52.7989 12.3244 53.4485 12.6722 54.1514 12.82C54.2705 12.8291 54.3901 12.8291 54.5092 12.82C56.6173 12.5688 57.2361 9.94657 57.2361 8.80123C57.2361 8.74095 57.2361 7.79654 57.2361 7.79654C57.1805 6.4308 56.6517 5.13183 55.747 4.13934Z" fill="#0167A3"/>
<path d="M37.1899 24.1525C36.7354 23.7708 35.4687 23.58 35.0432 23.2384C34.3373 22.6657 35.2076 21.9523 35.7394 22.1834C36.2088 22.3843 36.6458 22.6588 37.0352 22.9973L37.7701 21.9021L37.335 21.5204L37.0836 21.8017C36.473 21.5359 35.8083 21.4322 35.1495 21.5003C34.7769 21.5772 34.4403 21.7828 34.1945 22.0838C33.9486 22.3848 33.8081 22.7634 33.7957 23.1579C33.7887 23.409 33.8599 23.6558 33.9987 23.8614C34.5024 24.3391 35.1095 24.6837 35.7684 24.8661C35.9232 24.9465 36.8709 25.1171 36.8709 25.9208C36.8629 26.048 36.8193 26.17 36.7454 26.2718C36.6715 26.3736 36.5705 26.4507 36.455 26.4935C36.0998 26.574 35.73 26.5489 35.3879 26.4209C35.0458 26.293 34.7453 26.0675 34.521 25.7702L34.1438 25.3684L33.2639 26.4835C33.5732 26.8445 33.9658 27.1177 34.4049 27.2772C34.8399 27.4675 35.3139 27.5415 35.7836 27.4924C36.2532 27.4432 36.7035 27.2725 37.0932 26.9959C37.3211 26.8082 37.5079 26.5722 37.6413 26.3037C37.7747 26.0352 37.8515 25.7403 37.8668 25.4386C37.8557 25.1848 37.789 24.9371 37.6717 24.7142C37.5543 24.4914 37.3896 24.2992 37.1899 24.1525Z" fill="#0167A3"/>
<path d="M43.4852 23.8912C43.507 23.5609 43.4526 23.2301 43.3265 22.926C43.2003 22.622 43.0061 22.3535 42.76 22.1431C41.8897 21.5001 40.5068 21.5505 39.1143 21.5807H38.6308V22.1733H39.2013V26.7245H38.6502V27.2973H41.087V26.7245H40.3908V26.0112C41.2321 26.0414 43.4272 26.1016 43.4852 23.8912ZM40.3715 25.077V22.2437C40.7378 22.1877 41.1113 22.2694 41.425 22.4737C41.7387 22.6781 41.972 22.992 42.0831 23.359C42.1267 23.7226 42.1267 24.0903 42.0831 24.4539C41.8027 25.5189 41.116 25.4587 40.8259 25.3281C40.5358 25.1975 40.3715 25.077 40.3715 25.077Z" fill="#0167A3"/>
<path d="M50.3994 27.3275H52.6137V26.7548H52.1786L50.5154 21.621H49.2873L47.4693 26.7347H46.9858V27.3275H48.7554V26.7347H48.1655L48.5233 25.7903H50.4573L50.6991 26.795H50.3897L50.3994 27.3275ZM48.8134 25.1273L49.5677 23.0677C49.5677 23.138 49.8578 24.0724 49.8578 24.0724L50.177 25.077L48.8134 25.1273Z" fill="#0167A3"/>
<path d="M55.1763 26.7347V22.2438H55.7179V21.621H53.455V22.2639H54.016V26.7648H53.5325V27.3678H55.7565V26.7548L55.1763 26.7347Z" fill="#0167A3"/>
<path d="M60.4659 25.6397C60.8488 25.5172 61.1877 25.2784 61.4393 24.9544C61.6908 24.6304 61.8436 24.2359 61.8778 23.8212C61.8816 23.2718 61.6836 22.7414 61.3243 22.3382C60.965 21.935 60.4714 21.6892 59.9438 21.6509C59.0735 21.5906 56.7913 21.6009 56.7913 21.6009V22.2438H57.2845V26.8051H56.8107V27.3678H59.0831V26.795H58.5126V25.7904H59.0154L59.9824 27.3074H61.7134V26.7347H61.3653L60.4659 25.6397ZM58.5319 25.288V22.2739C59.1508 22.2739 60.4659 22.3542 60.4659 23.6704C60.4272 25.519 58.5126 25.288 58.5126 25.288H58.5319Z" fill="#0167A3"/>
<path d="M65.8232 25.8608C65.8232 26.2578 65.6714 26.6385 65.4012 26.9192C65.131 27.2 64.7645 27.3578 64.3823 27.3578C64.0019 27.3551 63.6379 27.1962 63.3698 26.9158C63.1016 26.6353 62.9512 26.2561 62.9512 25.8608C62.9512 25.4665 63.1019 25.0881 63.3703 24.8093C63.6387 24.5304 64.0028 24.3739 64.3823 24.3739C64.7628 24.3739 65.1278 24.5302 65.3977 24.8088C65.6677 25.0874 65.8206 25.4655 65.8232 25.8608Z" stroke="black" stroke-width="0.451873"/>
<path d="M65.0689 26.5237V26.1921C65.0689 25.9409 64.9626 25.9009 64.8562 25.8607C64.9337 25.8197 64.9978 25.7558 65.0408 25.6772C65.0838 25.5987 65.1037 25.5086 65.0979 25.4185C65.0979 25.0467 64.8175 24.9463 64.5274 24.9463H63.7249V26.7548H63.9569V25.9711H64.5274C64.8175 25.9711 64.8368 26.142 64.8368 26.2927C64.8245 26.4464 64.8245 26.601 64.8368 26.7548H65.127C65.0786 26.6844 65.0689 26.6443 65.0689 26.5237ZM64.4887 25.7601H63.9376V25.1472H64.5274C64.6435 25.1472 64.8368 25.1472 64.8368 25.4486C64.8368 25.75 64.6628 25.7803 64.4887 25.7803V25.7601Z" fill="#231F20"/>
<path d="M62.0712 28.8145H33.0801V30H62.0712V28.8145Z" fill="#0167A3"/>
</g>
<defs>
<clipPath id="clip0_150_38">
<rect width="33" height="30" fill="white" transform="translate(33)"/>
</clipPath>
</defs>
</svg>
