<svg width="100" height="30" viewBox="0 0 100 30" fill="none" xmlns="http://www.w3.org/2000/svg">
<g clip-path="url(#clip0_233_12292)">
<path fill-rule="evenodd" clip-rule="evenodd" d="M17.6653 3.25647H80.4009V25.9587H17.6653V3.25647Z" fill="white"/>
<path fill-rule="evenodd" clip-rule="evenodd" d="M17.6652 16.9131H80.4008V25.9586H17.6652V16.9131Z" fill="#EC1C24"/>
<path fill-rule="evenodd" clip-rule="evenodd" d="M17.8249 3.26501H29.9605V15.5838H17.6653V3.26501H17.8249ZM29.6497 3.57636H17.9761V15.2641H29.6833V3.57636H29.6497Z" fill="black"/>
<path fill-rule="evenodd" clip-rule="evenodd" d="M25.4841 10.3666V8.38078H26.03V9.27271L26.6599 8.38078H27.8776L28.1464 8.89406C28.1696 8.94019 28.1892 8.98801 28.2051 9.0371C28.2205 8.98641 28.2431 8.93823 28.2723 8.89406L28.5327 8.38078H29.1626L28.4739 9.45783V10.3666H27.9364V9.45783L27.2645 8.39761L26.5507 9.34845L27.3905 10.3666H26.7186L26.0719 9.47466V10.3666H25.4841ZM24.2243 9.31478H24.3335C24.4192 9.32567 24.5058 9.30472 24.5771 9.25589C24.6031 9.23255 24.6241 9.20404 24.6385 9.17218C24.653 9.14031 24.6606 9.10577 24.6611 9.07077C24.6628 9.03049 24.6561 8.99028 24.6417 8.95265C24.6272 8.91501 24.6053 8.88075 24.5771 8.85199C24.5057 8.80283 24.4199 8.77912 24.3335 8.78467H24.2243V9.31478ZM23.7205 10.3666V8.38078H24.2831C24.4339 8.3664 24.5858 8.3664 24.7366 8.38078C24.8226 8.38671 24.9048 8.41903 24.9718 8.47334C25.0406 8.53345 25.095 8.60819 25.1313 8.69211C25.1725 8.77272 25.1928 8.86245 25.1902 8.95297C25.1989 9.08808 25.1603 9.22201 25.081 9.33162C24.9999 9.43651 24.8834 9.50828 24.7534 9.53356L25.2825 10.3329H24.6442L24.1907 9.55039V10.3329L23.7205 10.3666ZM22.5363 8.38078H22.8806L23.5524 10.3666H22.9646L22.8302 10.0048H22.1416L21.9988 10.3666H21.4697L22.1584 8.38078H22.5363ZM22.5363 9.61771H22.7967L22.5951 8.96138C22.6012 8.93083 22.6012 8.89937 22.5951 8.86882V8.69211C22.584 8.7525 22.5671 8.81168 22.5447 8.86882C22.5469 8.89963 22.5469 8.93057 22.5447 8.96138L22.3431 9.61771H22.5363ZM20.739 9.27271H20.8482C20.938 9.28125 21.0284 9.26372 21.1086 9.22222C21.1383 9.20221 21.1619 9.1743 21.1768 9.1416C21.1916 9.10891 21.1971 9.07273 21.1925 9.0371C21.1925 8.96137 21.1926 8.89406 21.1086 8.86882C21.0719 8.84067 21.03 8.82022 20.9853 8.80865C20.9405 8.79709 20.8939 8.79465 20.8482 8.8015H20.739V9.27271ZM20.739 10.3666H20.2351V8.38078H20.7979C20.9543 8.36743 21.1116 8.36743 21.2681 8.38078C21.3508 8.39263 21.4274 8.43102 21.4865 8.49017C21.5673 8.5494 21.6287 8.63142 21.6628 8.72577C21.7058 8.81777 21.726 8.91881 21.7216 9.02028C21.7258 9.12718 21.7057 9.23363 21.6628 9.33162C21.6263 9.42005 21.5651 9.49602 21.4865 9.55039C21.4368 9.60091 21.3719 9.63347 21.3017 9.64295C21.1817 9.65545 21.0606 9.65545 20.9406 9.64295H20.739V10.2993V10.3666ZM18.8159 9.7271C18.8834 9.80615 18.9626 9.87426 19.0509 9.92904C19.1216 9.97188 19.2036 9.99241 19.2861 9.98794C19.3193 9.99242 19.3532 9.98946 19.3851 9.97928C19.4171 9.96909 19.4463 9.95193 19.4708 9.92904C19.4941 9.9137 19.5127 9.89224 19.5246 9.867C19.5364 9.84176 19.5411 9.81372 19.5381 9.78599C19.5418 9.757 19.5374 9.72757 19.5256 9.70087C19.5137 9.67416 19.4948 9.65122 19.4708 9.63454C19.3908 9.58362 19.3029 9.54663 19.2106 9.52515C19.0519 9.4938 18.9042 9.42126 18.7822 9.31478C18.7043 9.22064 18.6653 9.10025 18.673 8.97821C18.6708 8.89053 18.6868 8.80334 18.7201 8.7222C18.7534 8.64107 18.8031 8.56778 18.8662 8.507C18.9968 8.38811 19.1684 8.32474 19.3449 8.33029C19.4506 8.32918 19.5558 8.34626 19.6557 8.38078C19.7579 8.4046 19.8547 8.44742 19.9412 8.507L19.7732 8.89406C19.706 8.89406 19.6472 8.80151 19.58 8.76785H19.3953C19.3433 8.75217 19.2878 8.75217 19.2358 8.76785C19.2161 8.78212 19.2002 8.80121 19.1899 8.8233C19.1797 8.84539 19.1752 8.86975 19.1769 8.89406C19.1641 8.92939 19.1641 8.96812 19.1769 9.00345C19.2429 9.04844 19.3171 9.0799 19.3953 9.09601C19.5539 9.13049 19.703 9.19942 19.832 9.29795C19.879 9.34956 19.9161 9.40949 19.9412 9.47466C19.9507 9.54728 19.9507 9.62082 19.9412 9.69343C19.9492 9.78875 19.9352 9.88464 19.9002 9.97365C19.8652 10.0627 19.8103 10.1424 19.7397 10.2067C19.5863 10.334 19.3928 10.4026 19.1937 10.4003C19.059 10.404 18.9249 10.3812 18.799 10.3329C18.675 10.2775 18.5636 10.1974 18.4715 10.0973L18.7234 9.71026L18.8159 9.7271Z" fill="black"/>
<path fill-rule="evenodd" clip-rule="evenodd" d="M18.4968 10.8547L23.7877 14.717L29.0702 10.8547H18.4968Z" fill="black"/>
<path fill-rule="evenodd" clip-rule="evenodd" d="M18.4968 7.87591L23.7877 4.12305L29.0702 7.87591H18.4968Z" fill="#EC1C24"/>
<path fill-rule="evenodd" clip-rule="evenodd" d="M63.4194 14.0101V5.02344H65.9389V9.06238L68.8363 5.02344H74.4715L75.6977 7.36267V7.42997C75.8221 7.6288 75.9182 7.84405 75.9833 8.06948C76.0509 7.8436 76.1499 7.62833 76.2772 7.42997V7.36267L77.5033 5.02344H80.3924L77.2178 9.91225V14.0101H74.7571V9.91225L71.6497 5.09917L68.2904 9.41579L71.9772 14.0101H68.8699L65.9053 9.97957V14.0101H63.4194ZM57.5406 9.27274H58.0528C58.4573 9.30596 58.8614 9.20547 59.2034 8.98665C59.3178 8.87856 59.4089 8.74813 59.471 8.60341C59.5331 8.45868 59.5649 8.30274 59.5645 8.14521C59.5721 7.96534 59.5442 7.78575 59.4823 7.61677C59.4203 7.4478 59.3255 7.29279 59.2034 7.16071C58.8566 6.95339 58.4562 6.85382 58.0528 6.87463H57.5406V9.28117V9.27274ZM55.231 14.0101V5.02344H57.8345C58.5343 5.01245 59.2338 5.0603 59.9256 5.16649C60.3287 5.20852 60.7119 5.36339 61.0312 5.61339C61.3505 5.86339 61.5931 6.19841 61.7313 6.58011C61.9382 6.94634 62.0399 7.36281 62.0252 7.78339C62.0638 8.38671 61.885 8.98387 61.5214 9.46628C61.132 9.93461 60.5964 10.2577 60.0012 10.3835L62.4536 13.9933H59.6401L57.5406 10.4592V13.9933L55.231 14.0101ZM49.7385 5.02344H51.3342L54.4415 14.0101H51.9809L51.3342 12.3861H48.1596L47.5129 14.0101H45.0522L48.2351 5.02344H49.7385ZM49.7385 10.6191H50.973L50.0324 7.64876C50.0343 7.50223 50.0086 7.35665 49.9568 7.21961C49.8558 6.97041 49.7826 6.71079 49.7385 6.44548C49.6985 6.7117 49.6251 6.9718 49.5201 7.21961C49.5086 7.36415 49.4862 7.50762 49.453 7.64876L48.5123 10.6191H49.7385ZM41.4325 9.06238H41.9364C42.3571 9.09639 42.7795 9.02104 43.1626 8.84361C43.2911 8.74736 43.3921 8.61897 43.4555 8.47129C43.5189 8.32361 43.5424 8.16182 43.5237 8.00216C43.5237 7.64875 43.4566 7.36266 43.1626 7.21961C42.8005 6.98202 42.366 6.88066 41.9364 6.93352H41.4325V9.06238ZM41.4325 14.0101H39.123V5.02344H41.718C42.4429 5.01595 43.1673 5.06377 43.8849 5.16649C44.2588 5.24671 44.6076 5.41712 44.901 5.66294C45.2609 5.93439 45.5374 6.30178 45.6988 6.72316C45.9077 7.13995 46.0061 7.60359 45.9844 8.06948C46.0056 8.55696 45.9075 9.04223 45.6988 9.4831C45.5376 9.88634 45.2598 10.2321 44.901 10.476C44.6667 10.6934 44.3754 10.8393 44.0612 10.8967C43.5074 10.9998 42.9448 11.0477 42.3815 11.0398H41.4409V14.0101H41.4325ZM32.5471 11.1071C32.8512 11.477 33.2179 11.7903 33.6304 12.0327C33.9595 12.2225 34.3342 12.3185 34.7138 12.3104C35.0193 12.3317 35.3209 12.232 35.5537 12.0327C35.6546 11.962 35.7345 11.8651 35.7848 11.7525C35.835 11.6399 35.8538 11.5157 35.8392 11.3932C35.8505 11.2612 35.8306 11.1283 35.781 11.0055C35.7313 10.8827 35.6535 10.7733 35.5537 10.6864C35.1731 10.4582 34.7595 10.2907 34.3276 10.1899C33.6109 10.0472 32.9393 9.7325 32.3707 9.27274C32.1887 9.05916 32.0507 8.81174 31.9642 8.54464C31.8777 8.27754 31.8446 7.99599 31.8668 7.71607C31.8526 7.32363 31.92 6.9325 32.0646 6.56749C32.2091 6.20248 32.4277 5.87154 32.7066 5.59562C33.3275 5.06422 34.1245 4.78504 34.9406 4.81308C35.4298 4.81149 35.9166 4.88238 36.3851 5.02344C36.8488 5.13723 37.2893 5.33083 37.6869 5.59562L36.8974 7.36267C36.6348 7.15006 36.3537 6.96137 36.0576 6.79889C35.7846 6.71664 35.5025 6.6686 35.2177 6.65584C34.9597 6.63804 34.7038 6.71258 34.4955 6.8662C34.3979 6.92167 34.3188 7.00473 34.268 7.10499C34.2172 7.20526 34.197 7.31829 34.21 7.42997C34.2062 7.52312 34.2231 7.61596 34.2594 7.7018C34.2957 7.78764 34.3505 7.86436 34.4199 7.92643C34.7344 8.12148 35.0772 8.26626 35.4361 8.35557H35.5033C36.2409 8.49653 36.9345 8.81087 37.5273 9.27274C37.7359 9.50351 37.9086 9.76449 38.0396 10.0469C38.1247 10.3713 38.1726 10.7045 38.1824 11.0398C38.2088 11.4752 38.1382 11.9111 37.9755 12.3157C37.8128 12.7203 37.5621 13.0836 37.2418 13.379C36.5312 13.9556 35.636 14.2546 34.7223 14.2205C34.1086 14.237 33.497 14.143 32.9166 13.9428C32.346 13.6915 31.8298 13.3314 31.3965 12.8826L32.5555 11.1071H32.5471Z" fill="black"/>
<path d="M25.0811 24.0065V18.9578H26.9034C27.1926 18.9572 27.4787 19.0174 27.7433 19.1345C27.9904 19.2493 28.1937 19.4412 28.3228 19.6814C28.4726 19.9662 28.545 20.2854 28.5328 20.607C28.5392 20.8666 28.5023 21.1254 28.4236 21.3728C28.3611 21.5706 28.2549 21.7518 28.1128 21.9029C27.9648 22.0402 27.7905 22.1461 27.6006 22.2142C27.378 22.285 27.1453 22.3191 26.9118 22.3152H26.2316V23.9981L25.0811 24.0065ZM26.2736 20.0433V21.297H26.4752C26.626 21.3129 26.7779 21.3129 26.9286 21.297C27.0401 21.2804 27.1417 21.2236 27.2143 21.1371C27.3051 21.0168 27.347 20.8665 27.3318 20.7164C27.3447 20.5625 27.3063 20.4086 27.2226 20.2789C27.1525 20.1922 27.0546 20.1327 26.9455 20.1106C26.7889 20.0991 26.6318 20.0991 26.4752 20.1106L26.2736 20.0433ZM31.4722 21.9534L32.9167 24.0065H31.4301L30.3048 22.0796V24.0065H29.1122V18.9578H30.8926C31.1816 18.9508 31.4684 19.0083 31.7325 19.1261C31.9703 19.2354 32.1694 19.4143 32.3036 19.6394C32.4428 19.8975 32.5123 20.1875 32.5052 20.4808C32.5051 20.7021 32.4653 20.9216 32.3876 21.1287C32.3158 21.3228 32.1976 21.4961 32.0433 21.6336C31.8869 21.7664 31.6988 21.8563 31.4974 21.8944L31.4722 21.9534ZM30.2964 19.9928V21.2381H30.414C30.5524 21.2421 30.6907 21.228 30.8255 21.196C30.9403 21.1664 31.043 21.1017 31.1194 21.0109C31.2029 20.8966 31.2445 20.7569 31.237 20.6155C31.2472 20.4857 31.2115 20.3565 31.1363 20.2504C31.0611 20.1442 30.9511 20.068 30.8255 20.0349C30.6887 20.0207 30.5508 20.0207 30.414 20.0349L30.2964 19.9928ZM35.5622 18.8484C35.8876 18.8464 36.2102 18.9093 36.5112 19.0335C36.971 19.2291 37.3642 19.5543 37.643 19.9696C37.9218 20.3848 38.0742 20.8723 38.0817 21.3728C38.086 21.751 38.0234 22.1271 37.8969 22.4835C37.7749 22.7948 37.5954 23.0803 37.3678 23.3249C37.1326 23.5745 36.8461 23.7697 36.528 23.8971C36.2069 24.0342 35.8608 24.103 35.5117 24.099C35.1655 24.1018 34.8225 24.0331 34.504 23.8971C34.1882 23.7655 33.9024 23.5708 33.6641 23.3249C33.4382 23.079 33.2589 22.7938 33.135 22.4835C33.0397 22.1215 33.0085 21.7456 33.0427 21.3728C33.0388 21.0203 33.1074 20.6709 33.2442 20.3462C33.3773 20.0328 33.5682 19.7473 33.8069 19.5047C34.0483 19.271 34.3338 19.0879 34.6468 18.9662C34.9417 18.8692 35.2523 18.8293 35.5622 18.8484ZM35.5622 20.1106C35.3334 20.1093 35.109 20.1735 34.9155 20.2957C34.7187 20.4143 34.5566 20.5826 34.4452 20.7837C34.3295 20.98 34.2685 21.2037 34.2688 21.4317C34.2657 21.6964 34.3232 21.9583 34.4368 22.1974C34.5449 22.4169 34.7103 22.603 34.9155 22.7359C35.1074 22.8626 35.3323 22.9301 35.5622 22.9301C35.792 22.9301 36.0169 22.8626 36.2088 22.7359C36.4122 22.6009 36.5771 22.4153 36.6875 22.1974C36.8011 21.9583 36.8586 21.6964 36.8555 21.4317C36.8558 21.2037 36.7948 20.98 36.6791 20.7837C36.5677 20.5826 36.4056 20.4143 36.2088 20.2957C36.0157 20.1727 35.791 20.1084 35.5622 20.1106ZM41.2898 20.1106H39.8453V20.952H41.1555V22.0543H39.8453V24.0233H38.6528V18.9746H41.2898V20.0853V20.1106ZM44.5567 20.1106H43.1207V20.952H44.4644V22.0543H43.1207V22.8958H44.5316V23.9981H41.9281V18.9494H44.5316V20.0601L44.5567 20.1106ZM48.2857 19.2691L47.8153 20.2789C47.6058 20.0682 47.3227 19.9474 47.0259 19.9423C46.9004 19.945 46.7782 19.9829 46.6731 20.0517C46.6224 20.0858 46.5812 20.1323 46.5533 20.1867C46.5254 20.2412 46.5118 20.3018 46.5136 20.363C46.5112 20.4201 46.5229 20.4769 46.5479 20.5283C46.5728 20.5797 46.61 20.6241 46.6563 20.6575C46.7784 20.7323 46.908 20.7943 47.0427 20.8426L47.345 20.9436C47.6639 21.0272 47.9541 21.1959 48.1849 21.4317C48.3883 21.6637 48.4963 21.9644 48.4872 22.2731C48.507 22.5187 48.4745 22.7656 48.392 22.9977C48.3094 23.2298 48.1787 23.4417 48.0084 23.6194C47.6519 23.9395 47.1852 24.1085 46.7068 24.0906C46.1204 24.0867 45.5524 23.8851 45.0942 23.5184L45.6065 22.4666C45.8788 22.771 46.258 22.9579 46.6647 22.9883C46.8095 22.9933 46.9516 22.9488 47.0678 22.8621C47.1253 22.8177 47.1713 22.7602 47.202 22.6943C47.2327 22.6284 47.2472 22.5561 47.2443 22.4835C47.2477 22.4114 47.2306 22.3399 47.1949 22.2773C47.1591 22.2147 47.1064 22.1636 47.0427 22.13C46.8782 22.0371 46.7035 21.9637 46.522 21.9113C46.2846 21.8396 46.0541 21.7466 45.8333 21.6336C45.6574 21.5414 45.5138 21.3975 45.4218 21.2213C45.3169 20.9921 45.268 20.7411 45.279 20.4892C45.2786 20.1967 45.3477 19.9083 45.4806 19.6478C45.6059 19.3978 45.8014 19.1901 46.0433 19.0504C46.3008 18.9109 46.5904 18.8412 46.8831 18.8484C47.1361 18.8493 47.3878 18.8862 47.6306 18.9578C47.873 19.0262 48.1048 19.1282 48.3192 19.2607L48.2857 19.2691ZM52.0397 19.2691L51.561 20.2789C51.352 20.0674 51.0685 19.9465 50.7715 19.9423C50.6461 19.945 50.5238 19.9829 50.4188 20.0517C50.368 20.0858 50.3268 20.1323 50.2989 20.1867C50.271 20.2412 50.2574 20.3018 50.2592 20.363C50.2568 20.4201 50.2687 20.4769 50.2936 20.5283C50.3185 20.5797 50.3558 20.6241 50.402 20.6575C50.525 20.7307 50.6543 20.7926 50.7883 20.8426L51.0907 20.9436C51.4081 21.0306 51.6975 21.1988 51.9305 21.4317C52.1274 21.667 52.2319 21.9661 52.2244 22.2731C52.2437 22.5179 52.2119 22.7641 52.1309 22.9959C52.0499 23.2277 51.9216 23.4401 51.7542 23.6194C51.3958 23.9365 50.9303 24.105 50.4524 24.0906C49.866 24.0867 49.2981 23.8851 48.84 23.5184L49.3438 22.4666C49.6161 22.771 49.9953 22.9579 50.402 22.9883C50.5492 22.992 50.6936 22.9477 50.8136 22.8621C50.8685 22.816 50.9122 22.7579 50.9413 22.6923C50.9704 22.6266 50.9841 22.5552 50.9815 22.4835C50.9848 22.4125 50.9685 22.3419 50.9344 22.2796C50.9004 22.2172 50.8498 22.1655 50.7883 22.13C50.6201 22.0387 50.4428 21.9654 50.2592 21.9113C50.0218 21.8396 49.7914 21.7466 49.5706 21.6336C49.3951 21.5437 49.2535 21.399 49.1674 21.2213C49.0554 20.9942 49.0034 20.7422 49.0163 20.4892C49.0159 20.1967 49.085 19.9083 49.2179 19.6478C49.3458 19.3997 49.5408 19.1927 49.7806 19.0504C50.0382 18.9109 50.3277 18.8412 50.6204 18.8484C50.8707 18.8494 51.1196 18.8863 51.3595 18.9578C51.604 19.0279 51.8383 19.1297 52.0565 19.2607L52.0397 19.2691ZM53.9797 18.983V24.0317H52.7871V18.983H53.9797ZM57.0703 18.8232C57.3957 18.8212 57.7183 18.8841 58.0193 19.0083C58.3322 19.1299 58.6178 19.313 58.8591 19.5468C59.1043 19.7884 59.2988 20.0766 59.4315 20.3944C59.5641 20.7123 59.6323 21.0535 59.6318 21.398C59.632 21.7759 59.5694 22.1513 59.447 22.5087C59.3255 22.8223 59.1429 23.1084 58.9096 23.3502C58.6762 23.6018 58.3891 23.7974 58.0697 23.9223C57.4217 24.1911 56.6937 24.1911 56.0457 23.9223C55.7281 23.794 55.4417 23.5989 55.2059 23.3502C54.9773 23.1063 54.7976 22.8206 54.6768 22.5087C54.5503 22.1523 54.4877 21.7763 54.492 21.398C54.4866 21.0535 54.5516 20.7116 54.683 20.3932C54.8145 20.0748 55.0095 19.7868 55.2562 19.5468C55.7289 19.0815 56.3657 18.8215 57.0283 18.8232H57.0703ZM57.0703 20.0853C56.8414 20.0831 56.6168 20.1474 56.4236 20.2705C56.2245 20.3888 56.0596 20.557 55.9449 20.7585C55.8292 20.9547 55.7683 21.1785 55.7686 21.4064C55.7643 21.6722 55.8248 21.9351 55.9449 22.1721C56.0527 22.3893 56.2147 22.5748 56.4152 22.7106C56.6106 22.8364 56.838 22.9036 57.0703 22.9042C57.3001 22.9049 57.5251 22.8375 57.717 22.7106C57.9177 22.5751 58.0798 22.3895 58.1872 22.1721C58.3074 21.9351 58.368 21.6722 58.3636 21.4064C58.3639 21.1785 58.3029 20.9547 58.1872 20.7585C58.0734 20.5591 57.9118 20.3914 57.717 20.2705C57.5234 20.1483 57.299 20.0841 57.0703 20.0853ZM60.1609 23.9981V18.9494H61.3534L63.537 22.0207V18.9494H64.7295V23.9981H63.537L61.3534 20.9268V23.9981H60.1609ZM68.3325 23.1566H66.6528L66.3337 23.9981H65.0739L66.8375 18.9494H68.1393L69.8693 23.9981H68.5928L68.2988 23.1566H68.3325ZM68.0049 22.1553L67.4758 20.5313L66.9803 22.13L68.0049 22.1553ZM71.465 19.0083V22.921H72.8927V24.0233H70.2724V18.9746L71.465 19.0083Z" fill="white"/>
</g>
<defs>
<clipPath id="clip0_233_12292">
<rect width="63" height="23" fill="white" transform="translate(18 3)"/>
</clipPath>
</defs>
</svg>
