<svg width="100" height="30" viewBox="0 0 100 30" fill="none" xmlns="http://www.w3.org/2000/svg">
<g clip-path="url(#clip0_150_34)">
<path d="M16.812 19.963V10.5387H13.7598V8.66687H22.0458V10.5387H18.9716V19.963H16.812Z" fill="#231F20"/>
<path d="M27.0041 8.67786H24.7344L20.9659 19.9738H23.2358L23.7096 18.2543H27.8746L28.4366 19.9738H30.7174L27.0041 8.67786ZM24.2274 16.2194C25.1199 13.6838 25.4946 12.6173 25.8142 11.6052C26.2218 12.8893 26.6296 14.108 27.1144 15.5119L27.3458 16.2194H24.2274Z" fill="#231F20"/>
<path d="M39.0034 14.0101C39.5104 13.8329 39.9461 13.499 40.2458 13.0579C40.5456 12.6168 40.6933 12.0921 40.6672 11.5615C40.6965 11.0873 40.5965 10.6139 40.3775 10.1909C40.1585 9.76783 39.8286 9.41074 39.4221 9.15654C38.631 8.80651 37.7627 8.66033 36.8988 8.73197H32.2821V20.0282H36.5684C37.6233 20.1355 38.6878 19.9508 39.6426 19.495C40.0932 19.2066 40.4594 18.8069 40.7049 18.3353C40.9504 17.8637 41.0666 17.3367 41.0418 16.807C41.0944 16.1776 40.918 15.5501 40.5444 15.0375C40.1709 14.525 39.6245 14.1607 39.0034 14.0101ZM34.3757 10.5495H36.5794C37.0568 10.5089 37.5371 10.5835 37.9788 10.7671C38.1679 10.8752 38.32 11.0365 38.4162 11.2302C38.5123 11.424 38.5481 11.6416 38.5187 11.8554C38.5365 12.0717 38.4921 12.2883 38.3908 12.4808C38.2894 12.6733 38.1351 12.8338 37.9457 12.9437C37.4928 13.1299 37.0029 13.2118 36.5132 13.183H34.3095L34.3757 10.5495ZM38.3313 17.819C37.7396 18.1156 37.0747 18.2403 36.4141 18.1782H34.3757V15.0548H36.5794C37.1557 14.9955 37.7371 15.1014 38.2542 15.3596C38.4515 15.5111 38.6072 15.7091 38.7073 15.9353C38.8073 16.1615 38.8485 16.4086 38.8271 16.6545C38.8379 16.8649 38.7987 17.075 38.7126 17.2677C38.6265 17.4605 38.496 17.6306 38.3313 17.7646V17.819Z" fill="#231F20"/>
<path d="M44.9866 8.66687H42.838V19.963H44.9866V8.66687Z" fill="#231F20"/>
<path d="M47.7081 19.963V8.66687H49.8127V18.0803H53.6472V19.963H47.7081Z" fill="#231F20"/>
<path d="M60.655 8.67786H58.4513L54.6829 19.9738H56.9638L57.4265 18.2543H61.6026L62.1535 19.9738H64.4453L60.655 8.67786ZM57.8783 16.2194C58.7598 13.6838 59.1345 12.6173 59.454 11.5943C59.8617 12.8893 60.2803 14.1189 60.7541 15.5119L60.9966 16.2194H57.8783Z" fill="#231F20"/>
<path d="M9.13199 20.2351C8.34213 20.2522 7.55944 20.0836 6.84864 19.743C6.13784 19.4024 5.51936 18.8995 5.04413 18.2761V18.211L6.75193 16.9594V17.0139C7.0129 17.4113 7.37046 17.738 7.79192 17.9642C8.21338 18.1904 8.68542 18.3088 9.16508 18.3088C10.4212 18.3088 11.1264 17.83 11.1264 16.9812C11.1264 16.1323 10.7517 15.9691 9.0989 15.3597L7.931 14.9354C5.9807 14.2171 5.18738 13.2812 5.18738 11.6706C5.18738 9.76615 6.86218 8.40583 9.15405 8.40583C9.81881 8.38481 10.4805 8.50284 11.0958 8.75229C11.711 9.00174 12.266 9.37678 12.7241 9.85303V9.91839L11.0382 11.1589C10.7747 10.879 10.4534 10.6587 10.096 10.5122C9.73858 10.3657 9.35339 10.2969 8.96668 10.3103C7.98603 10.3103 7.35801 10.7999 7.35801 11.5508C7.35801 12.3017 7.75464 12.6392 9.10993 13.0418L10.355 13.4661C12.4486 14.1517 13.3412 15.153 13.3412 16.8071C13.3412 18.8422 11.6553 20.2351 9.13199 20.2351Z" fill="#231F20"/>
<path fill-rule="evenodd" clip-rule="evenodd" d="M64.1809 10.506C64.1809 10.506 64.1809 10.4515 64.1809 10.4189V10.1686C64.195 10.1188 64.195 10.0662 64.1809 10.0164C64.1762 9.99972 64.1679 9.9841 64.1565 9.97095C64.145 9.9578 64.1308 9.94735 64.1149 9.94013H64.0377C64.0924 9.91376 64.1411 9.87663 64.1809 9.8312C64.2203 9.75708 64.2429 9.67541 64.2471 9.59182C64.2417 9.51374 64.215 9.4386 64.1699 9.37422C64.129 9.31333 64.0659 9.27031 63.9937 9.25439C63.9169 9.24382 63.839 9.24382 63.7622 9.25439H63.1011V10.6692H63.2995V10.06H63.7622C63.8202 10.0461 63.8806 10.0461 63.9386 10.06C63.9722 10.0833 63.9958 10.1181 64.0047 10.1577C64.0099 10.1975 64.0099 10.2378 64.0047 10.2776V10.3753C64.0001 10.4187 64.0001 10.4626 64.0047 10.506C63.9985 10.5457 63.9985 10.5859 64.0047 10.6256H64.2471C64.2239 10.6161 64.2048 10.599 64.1928 10.5773C64.1808 10.5555 64.1765 10.5305 64.1809 10.506ZM63.8944 9.777C63.8256 9.79319 63.754 9.79319 63.6852 9.777H63.2444V9.29796H63.8284C63.8706 9.30902 63.9088 9.33172 63.9386 9.36332C63.9571 9.41245 63.9571 9.4667 63.9386 9.51583C63.9613 9.55809 63.9694 9.6065 63.9614 9.65372C63.9535 9.70094 63.9298 9.74431 63.8944 9.777Z" fill="#231F20"/>
<path d="M63.597 8.66704C63.4306 8.6656 63.2655 8.69633 63.1112 8.75791C62.9569 8.81948 62.8164 8.91052 62.6977 9.02572C62.5791 9.14092 62.4845 9.27827 62.4195 9.42956C62.3544 9.58086 62.3203 9.74319 62.3188 9.90754C62.3188 10.2423 62.4535 10.5635 62.6932 10.8002C62.9329 11.037 63.2581 11.1698 63.597 11.1698C63.7634 11.1684 63.9279 11.1347 64.0811 11.0705C64.2343 11.0062 64.3731 10.913 64.4898 10.7957C64.6064 10.6785 64.6986 10.5398 64.7609 10.3874C64.8233 10.235 64.8546 10.0719 64.8532 9.90754C64.8532 9.57851 64.7207 9.2629 64.4852 9.03024C64.2496 8.79758 63.9302 8.66704 63.597 8.66704ZM63.597 11.0176C63.3048 11.0176 63.0245 10.9028 62.8179 10.6988C62.6112 10.4947 62.4952 10.2179 62.4952 9.92932C62.4952 9.6407 62.6112 9.36398 62.8179 9.15989C63.0245 8.9558 63.3048 8.84107 63.597 8.84107C63.8893 8.84107 64.1695 8.9558 64.3761 9.15989C64.5827 9.36398 64.6989 9.6407 64.6989 9.92932C64.6989 10.2179 64.5827 10.4947 64.3761 10.6988C64.1695 10.9028 63.8893 11.0176 63.597 11.0176Z" fill="#231F20"/>
<path d="M95 2.06116H69.8115V26.9387H95V2.06116Z" fill="white"/>
<path d="M71.277 3.51953V25.4914H93.5345V3.51953H71.277ZM82.2956 24.0439H72.7093V14.5652H82.2956V24.0439ZM92.025 14.4672H82.4057V4.96673H92.025V14.4672Z" fill="#221F1F"/>
<path d="M92.0691 4.95593H82.4498V14.4564H92.0691V4.95593Z" fill="#FFCD06"/>
<path d="M82.3396 14.5652H72.7424V24.0439H82.3396V14.5652Z" fill="#FFCD06"/>
</g>
<defs>
<clipPath id="clip0_150_34">
<rect width="90" height="25" fill="white" transform="translate(5 2)"/>
</clipPath>
</defs>
</svg>
