<svg width="81" height="27" viewBox="0 0 81 27" fill="none" xmlns="http://www.w3.org/2000/svg">
<path d="M80.2271 0.97998H-0.00585938V26.5678H80.2271V0.97998Z" fill="#FBD504"/>
<path d="M11.2852 15.8304C12.0714 16.2398 12.9444 16.4535 13.8304 16.4536C14.5672 16.4536 15.4092 16.3098 15.4092 15.6579C15.4092 14.1527 11.0364 15.0155 11.0364 11.9477C11.0364 9.91524 12.9501 9.39754 14.7012 9.39754C15.5989 9.39155 16.4924 9.52083 17.3517 9.78103L17.1316 11.593C16.4199 11.2884 15.6568 11.1225 14.883 11.104C14.2994 11.104 13.3999 11.104 13.3999 11.8806C13.3999 13.2036 17.7918 12.5229 17.7918 15.4661C17.7918 17.6616 15.7537 18.1601 13.8304 18.1601C12.8779 18.1572 11.9307 18.0184 11.0173 17.7478L11.2852 15.8304Z" fill="black"/>
<path d="M25.6668 9.56055H18.3946V11.267H20.873V17.978H23.1885V11.267H25.6668V9.56055Z" fill="black"/>
<path d="M66.5441 9.56055L64.8696 12.9448L63.1759 9.56055H60.5158L63.7213 14.8142V17.9971H66.0369V14.8142L69.2137 9.56055H66.5441Z" fill="black"/>
<path d="M35.6182 9.56055V17.9971H37.8382V13.4433L41.6081 17.9971H43.5219V16.722L37.5415 9.56055H35.6182Z" fill="black"/>
<path d="M43.4931 13.8268V9.56055H39.9623L43.4931 13.8268Z" fill="black"/>
<path d="M55.5114 14.5841H59.1571V12.8968H55.5114V11.2191H59.5111V9.56055H53.1479V17.9971H59.6546V16.3098H55.5114V14.5841Z" fill="black"/>
<path d="M47.9713 9.56055H45.5983V17.9971H51.7509V16.2619H47.9234L47.9713 9.56055Z" fill="black"/>
<path d="M31.9151 17.9971H34.3456L31.121 9.56055H28.4417L25.2745 17.9971H27.5231L28.1068 16.3098H31.3506L31.9151 17.9971ZM28.6427 14.7184L29.7622 11.3246L30.8434 14.7184H28.6427Z" fill="black"/>
</svg>
