<svg width="100" height="30" viewBox="0 0 100 30" fill="none" xmlns="http://www.w3.org/2000/svg">
<g clip-path="url(#clip0_150_46)">
<path d="M13.1876 29.5988C13.0074 28.4248 13.0074 27.2302 13.1876 26.0562H49.0473C49.1143 27.2629 49.1143 28.4724 49.0473 29.6791C48.781 29.6791 48.5546 29.6791 48.3283 29.6791H15.0386C14.4926 29.7192 13.8667 29.6389 13.1876 29.5988Z" fill="#EB2228"/>
<path d="M75.5858 22.8475C75.5858 21.1897 75.5858 19.5186 75.5858 17.8609C75.5915 17.4956 75.659 17.1342 75.7855 16.7916C75.8734 16.5099 76.0517 16.265 76.2926 16.0958C76.5335 15.9265 76.8234 15.842 77.1171 15.8555C79.474 15.8555 81.8443 15.8555 84.2145 15.8555C84.6025 15.8287 84.986 15.9524 85.2858 16.2012C85.5856 16.4499 85.7788 16.8048 85.8257 17.1924C85.8786 17.4655 85.9053 17.7432 85.9056 18.0215C85.9056 20.3744 85.9056 22.7408 85.9056 25.0937C85.9056 26.2702 85.9056 27.4465 85.7991 28.6364C85.8003 28.9448 85.6859 29.2425 85.4787 29.4703C85.2715 29.6981 84.9866 29.8394 84.6805 29.8662C84.3882 29.9362 84.0889 29.9722 83.7884 29.9733H77.41C77.1547 29.9742 76.902 29.9218 76.6679 29.8192C76.4339 29.7166 76.2236 29.5663 76.0507 29.3776C75.8778 29.1889 75.7461 28.9659 75.6637 28.7232C75.5814 28.4805 75.5503 28.2233 75.5725 27.9679C75.5725 26.9385 75.5725 25.8956 75.5725 24.8528L75.5858 22.8475ZM79.4874 23.0884C79.4874 23.8504 79.4874 24.599 79.4874 25.361C79.4827 25.6147 79.5186 25.8676 79.5939 26.1098C79.6945 26.3958 79.8891 26.6388 80.1456 26.7991C80.4021 26.9594 80.7053 27.0275 81.0053 26.992C81.5513 26.9252 81.8709 26.4975 81.9108 25.7755V25.5079L81.791 20.4811C81.8024 20.3342 81.7827 20.1865 81.7331 20.0477C81.6834 19.9089 81.6051 19.7824 81.5031 19.6763C81.4012 19.5701 81.2781 19.4869 81.1418 19.4321C81.0055 19.3773 80.8591 19.3522 80.7124 19.3584C80.5694 19.3261 80.4209 19.3268 80.2781 19.3603C80.1353 19.3938 80.0019 19.4593 79.8879 19.5519C79.7739 19.6445 79.6822 19.7618 79.6198 19.8949C79.5573 20.0281 79.5257 20.1737 79.5273 20.3209C79.5141 20.5123 79.5141 20.7043 79.5273 20.8957L79.4874 23.0884Z" fill="#EB2228"/>
<path d="M69.7935 24.6256L69.0877 24.5453C69.0209 23.8562 69.0209 23.1625 69.0877 22.4734C70.7736 22.2853 72.4752 22.2853 74.1611 22.4734V22.8875C74.1611 24.2244 74.1611 25.6417 74.1611 27.0187C74.1742 27.6005 74.1341 28.1823 74.0412 28.7567C73.9918 29.1169 73.8101 29.4453 73.5317 29.6778C73.2533 29.9103 72.8983 30.0301 72.5365 30.0133C70.5791 30.0133 68.6217 30.0133 66.6643 30.0133C66.0651 30.0133 65.4658 29.9464 64.8666 29.9196C64.6553 29.9344 64.4434 29.9028 64.2457 29.8266C64.0479 29.7505 63.8693 29.6316 63.7221 29.4787C63.5749 29.3258 63.4628 29.1427 63.3937 28.9418C63.3245 28.7408 63.3001 28.5269 63.322 28.3154C63.322 24.786 63.322 21.2701 63.322 17.7407C63.2963 17.5276 63.2963 17.3121 63.322 17.099C63.3718 16.7397 63.557 16.4131 63.8394 16.1867C64.1218 15.9604 64.48 15.8514 64.84 15.8822H72.3368C72.6338 15.8818 72.9296 15.9224 73.2157 16.0026C73.4412 16.0514 73.6434 16.1762 73.7887 16.3561C73.934 16.5361 74.0137 16.7603 74.0146 16.9919C74.0146 18.0615 74.0146 19.1442 74.0146 20.2271C73.9895 20.2966 73.9583 20.3639 73.9214 20.4279H69.7935C69.7045 20.2532 69.5925 20.0912 69.4606 19.9464C69.2057 19.6914 68.9083 19.4833 68.5818 19.3315C68.4385 19.2828 68.2855 19.2701 68.1363 19.295C67.9871 19.3198 67.8464 19.3812 67.7265 19.4738C67.6067 19.5664 67.5113 19.6873 67.4491 19.8257C67.3869 19.9641 67.3598 20.1158 67.37 20.2673C67.37 20.8689 67.4632 21.4706 67.4765 22.0722C67.4765 22.8877 67.4765 23.7164 67.4765 24.5319C67.4765 25.0266 67.4765 25.5213 67.5831 26.016C67.6071 26.2982 67.7254 26.564 67.9187 26.7703C68.1121 26.9766 68.3692 27.1113 68.6483 27.1525C68.7694 27.1838 68.8956 27.1893 69.0189 27.1685C69.1421 27.1477 69.2597 27.1011 69.3639 27.0317C69.4681 26.9624 69.5567 26.8719 69.6238 26.766C69.6909 26.6602 69.7351 26.5413 69.7535 26.4171C69.7934 25.8022 69.7935 25.2272 69.7935 24.6256Z" fill="#EB2228"/>
<path d="M23.5475 9.87949C24.9261 9.71195 26.318 9.685 27.702 9.79919C27.8085 9.99973 27.9151 10.2404 28.0349 10.4676C28.165 10.7437 28.3768 10.9726 28.6413 11.1234C28.9058 11.2741 29.2102 11.3394 29.513 11.3101C29.6526 11.3083 29.789 11.2671 29.9066 11.1913C30.0241 11.1154 30.118 11.008 30.1777 10.8812C30.2374 10.7544 30.2604 10.6135 30.2441 10.4742C30.2278 10.3349 30.1728 10.2031 30.0855 10.0936C29.9437 9.93062 29.7775 9.79073 29.5928 9.67908C27.7553 8.34218 25.9044 7.12549 24.0535 5.88217C23.8765 5.78598 23.7316 5.63975 23.6369 5.46145C23.5422 5.28315 23.5018 5.08066 23.5208 4.8795C23.5208 3.68966 23.5208 2.49992 23.5208 1.31008C23.4908 1.12774 23.5046 0.940956 23.561 0.76501C23.6173 0.589064 23.7145 0.428951 23.8447 0.298271C23.9748 0.167591 24.1342 0.0698771 24.3094 0.0133313C24.4847 -0.0432145 24.6708 -0.0568943 24.8524 -0.0268148H33.3079C33.5888 -0.0181666 33.8669 0.0311868 34.1335 0.120061C34.2718 0.15407 34.3941 0.235491 34.4792 0.350167C34.5642 0.464843 34.6068 0.605893 34.5996 0.748691C34.5996 1.80484 34.5996 2.86082 34.6795 3.91697C34.6627 4.02615 34.636 4.13354 34.5996 4.23781C33.3426 4.35413 32.0794 4.38996 30.8179 4.34487C30.7749 4.19427 30.7215 4.04675 30.6581 3.90359C30.5223 3.59305 30.3478 3.30119 30.1388 3.03473C30.0653 2.94027 29.9713 2.86371 29.8641 2.81116C29.7568 2.75861 29.639 2.73119 29.5196 2.73119C29.4002 2.73119 29.2824 2.75861 29.1751 2.81116C29.0678 2.86371 28.9739 2.94027 28.9004 3.03473C28.7583 3.23721 28.6949 3.48474 28.7218 3.73093C28.7488 3.97712 28.8644 4.20501 29.0469 4.37163C29.473 4.70586 29.9125 5.01331 30.3785 5.33416L34.2135 8.00796C34.379 8.10824 34.5138 8.25227 34.603 8.42443C34.6923 8.5966 34.7325 8.79022 34.7194 8.98387C34.7194 9.99991 34.7194 11.016 34.7194 12.032C34.7199 12.2705 34.6931 12.5083 34.6395 12.7406C34.625 12.9093 34.5763 13.073 34.4964 13.2221C34.4165 13.3711 34.3071 13.5024 34.175 13.6075C34.0428 13.7127 33.8906 13.7897 33.7278 13.8337C33.565 13.8777 33.3949 13.8877 33.2281 13.8634C30.698 13.8634 28.1547 13.8634 25.6114 13.8634C25.2064 13.8371 24.8094 13.7375 24.4396 13.5693C24.2032 13.4844 23.9984 13.3285 23.8531 13.1228C23.7078 12.9172 23.6291 12.6719 23.6274 12.4198C23.5208 11.6176 23.5475 10.7351 23.5475 9.87949Z" fill="#EB2228"/>
<path d="M36.2375 0.0804143H40.2322C40.2448 0.329809 40.2448 0.579435 40.2322 0.828829V9.45176C40.2322 9.63892 40.2322 9.83969 40.2322 10.0269C40.2267 10.2339 40.2852 10.4374 40.3997 10.6098C40.5141 10.7822 40.6789 10.9149 40.8714 10.9894C41.0836 11.1008 41.3243 11.145 41.5619 11.1164C41.7996 11.0877 42.0232 10.9874 42.203 10.8288C42.456 10.6416 42.456 10.3611 42.456 10.067V5.66856C42.456 4.05091 42.456 2.41971 42.456 0.802065C42.456 0.548055 42.456 0.307609 42.456 0.00012207H46.4507C46.4507 0.280871 46.5307 0.494801 46.5307 0.695335V12.2861C46.4242 13.4359 45.9315 13.9171 44.773 13.9171C42.3628 13.9171 39.9659 13.9171 37.5557 13.9171C37.3829 13.9415 37.2069 13.9295 37.0391 13.8815C36.8712 13.8336 36.7152 13.7507 36.581 13.6387C36.4468 13.5267 36.3375 13.3877 36.26 13.2307C36.1825 13.0737 36.1385 12.9025 36.1309 12.7274C36.0824 12.4764 36.0601 12.2209 36.0644 11.9653V0.815447C36.1975 0.588175 36.2242 0.361163 36.2375 0.0804143Z" fill="#EB2228"/>
<path d="M70.5125 0.146891V3.44899H65.5989V5.45434L70.4992 5.52125V8.80997C68.8747 8.93029 67.2767 8.80997 65.6123 8.80997C65.5189 9.54917 65.5458 10.2989 65.6921 11.0294C67.3034 11.1765 68.9013 10.9624 70.5125 11.2031V14.0374H69.7935H62.0436C60.8052 14.0374 60.5922 13.6764 60.6055 12.5667C60.6188 11.4571 60.6055 10.2672 60.6055 9.13081C60.6055 6.56396 60.5256 3.99711 60.4723 1.43026C60.4476 1.26822 60.4561 1.10289 60.4973 0.944265C60.5385 0.785637 60.6116 0.637135 60.712 0.50788C60.8311 0.36779 60.9777 0.253848 61.1427 0.173329C61.3077 0.0928095 61.4875 0.0476459 61.6708 0.0401611H70.1264C70.2584 0.0623669 70.3878 0.0979858 70.5125 0.146891Z" fill="#EB2228"/>
<path d="M61.471 15.8957V19.2245H56.7039C56.5972 19.9022 56.5972 20.5924 56.7039 21.27H61.3911C61.6142 22.3481 61.6413 23.4577 61.471 24.5454C61.2713 24.5454 61.0449 24.5454 60.8186 24.5454H56.9569C56.8739 24.5617 56.7934 24.5887 56.7172 24.6257V26.805H61.5509C61.6175 27.7943 61.5509 28.73 61.5509 29.7193C61.2446 29.7193 61.0183 29.7193 60.7919 29.7193C58.3151 29.7193 55.8384 29.7193 53.3616 29.7193C51.6572 29.7193 51.7238 29.3984 51.6306 27.9813C51.564 27.2326 51.6306 26.4707 51.6306 25.7086C51.6306 23.0348 51.5374 20.2272 51.4974 17.4865C51.4974 16.1496 51.8436 15.722 53.2418 15.722H60.7253L61.471 15.8957Z" fill="#EB2228"/>
<path d="M72.7762 5.85547H77.783C77.9891 5.84573 78.1901 5.7881 78.3701 5.68705C78.5502 5.586 78.7044 5.4443 78.8206 5.27319C78.9368 5.10208 79.0118 4.90622 79.0397 4.70102C79.0676 4.49583 79.0477 4.28713 78.9815 4.091C78.8816 3.82737 78.6953 3.60538 78.4533 3.46204C78.2113 3.31871 77.9281 3.26244 77.6499 3.30211C76.3183 3.30211 74.9867 3.30211 73.5752 3.30211C73.3222 3.30211 73.0825 3.30205 72.7629 3.2352C72.6697 2.20345 72.6697 1.16525 72.7629 0.133505C73.0289 0.115817 73.2959 0.115817 73.5619 0.133505C75.7723 0.133505 77.9828 0.133636 80.2198 0.267325C80.7309 0.308578 81.2222 0.483596 81.6447 0.77519C82.4332 1.35043 83.0253 2.15659 83.3399 3.08278C83.6546 4.00896 83.6763 5.01004 83.4023 5.94914C83.1925 6.57067 82.7477 7.08456 82.1639 7.37972C82.4968 7.62953 82.7556 7.96548 82.9128 8.35171C83.0699 8.73794 83.1195 9.15975 83.0561 9.57209C83.0561 10.8421 83.0561 12.1257 83.0561 13.3958C83.0561 13.6097 83.0561 13.8235 83.0561 14.0107C81.7922 14.1792 80.5116 14.1792 79.2477 14.0107C79.2477 13.7567 79.2477 13.4892 79.2477 13.2218C79.2477 12.1656 79.2478 11.1097 79.1279 10.0535C79.1279 9.34496 78.6219 9.02409 77.7964 9.03746C77.6558 9.02441 77.5141 9.04091 77.3804 9.08609C77.2466 9.13127 77.1238 9.20419 77.0197 9.29988C76.9156 9.39556 76.8326 9.51181 76.776 9.64161C76.7195 9.7714 76.6905 9.91183 76.6911 10.0535C76.6712 10.3116 76.6712 10.5706 76.6911 10.8287C76.6911 11.6709 76.6911 12.5134 76.6911 13.3556C76.6911 13.5829 76.6911 13.8102 76.6911 14.0776H72.936C72.8906 13.1869 72.8906 12.2945 72.936 11.4038C72.936 10.468 72.936 9.54539 72.936 8.60956C72.936 7.67373 72.7363 6.73782 72.7762 5.85547Z" fill="#EB2228"/>
<path d="M48.3816 3.22197V0.0804563H49.1672C51.1912 0.0804563 53.162 0.0804563 55.2393 0.0804563C55.7138 0.0622187 56.1863 0.151167 56.6219 0.340916C57.0575 0.530666 57.4451 0.81613 57.756 1.17648C58.4128 1.89761 58.8428 2.79747 58.9921 3.76313C59.1413 4.72879 59.0032 5.71729 58.5949 6.60436C58.3472 7.10988 57.9924 7.55496 57.5553 7.9083C57.1183 8.26164 56.6096 8.51472 56.0648 8.64986C55.1704 8.94365 54.2135 8.98964 53.2951 8.78335C53.2285 9.70581 53.2951 10.5614 53.2951 11.4571V14.0242H48.4881C48.2885 11.2694 48.2885 8.50372 48.4881 5.74889C48.7944 5.74889 49.1272 5.74889 49.4601 5.74889C50.6852 5.74889 51.8969 5.84224 53.122 5.84224C53.2634 5.85693 53.4063 5.84275 53.542 5.80046C53.6778 5.75817 53.8036 5.6886 53.9119 5.59614C54.0202 5.50368 54.1086 5.39032 54.172 5.26257C54.2353 5.13482 54.2722 4.99542 54.2805 4.85295C54.3222 4.54104 54.2392 4.22519 54.0495 3.97463C53.8598 3.72407 53.579 3.55922 53.2685 3.51605C53.0335 3.50237 52.7978 3.50237 52.5628 3.51605C51.2978 3.51605 50.0195 3.44941 48.7544 3.39594C48.6612 3.28899 48.5547 3.24871 48.3816 3.22197Z" fill="#EB2228"/>
<path d="M49.1006 22.3128V24.9866C48.8343 24.9866 48.5813 25.0669 48.3416 25.0669H43.6277L13.9333 24.9331H13.1211V22.3128C13.2367 22.2671 13.3575 22.2355 13.4806 22.2191C13.6538 22.2191 13.8268 22.2191 13.9999 22.2191C25.3717 22.2191 36.7523 22.2191 48.1418 22.2191L49.1006 22.3128Z" fill="#EB2228"/>
<path d="M49.1006 19.5587V20.8023C48.4215 21.0162 17.5686 20.9894 13.1477 20.8023V19.639C13.2048 19.6275 13.2637 19.6275 13.3208 19.639H48.488H48.9408C48.9408 19.639 49.0606 19.532 49.1006 19.5587Z" fill="#EB2228"/>
</g>
<defs>
<clipPath id="clip0_150_46">
<rect width="73" height="30" fill="white" transform="translate(13)"/>
</clipPath>
</defs>
</svg>
