<svg width="100" height="30" viewBox="0 0 100 30" fill="none" xmlns="http://www.w3.org/2000/svg">
<g clip-path="url(#clip0_150_31)">
<path d="M96 20.7376C96 21.3391 95.8144 21.6296 95.1648 21.6088C93.5253 21.6088 91.8754 21.6088 90.2358 21.6088C89.6275 21.6088 89.4418 21.3495 89.4418 20.7792C89.4418 18.7051 89.4418 16.5482 89.4418 14.4223C89.4418 12.2964 89.4418 10.2742 89.4418 8.20015C89.4418 7.67127 89.5243 7.31857 90.1739 7.3082C90.8235 7.29783 90.9782 7.66092 90.9782 8.22091C90.9782 11.7157 90.9782 15.2103 90.9782 18.6947C90.9782 19.7318 90.9782 19.7318 92.0094 19.7318C93.0406 19.7318 94.1336 19.7318 95.206 19.7318C95.9381 19.7629 96 20.1569 96 20.7376Z" fill="#8ECAEB"/>
<path d="M85.4719 8.10672V14.4636C85.4719 16.5376 85.4719 18.6117 85.4719 20.7376C85.4719 21.2665 85.3791 21.6088 84.7398 21.6088C84.1005 21.6088 83.9664 21.3391 83.9664 20.7688C83.9664 16.5584 83.9664 12.3551 83.9664 8.15863C83.9664 7.47419 84.2861 7.3497 84.8532 7.33933C85.4203 7.32896 85.4719 7.68154 85.4719 8.10672Z" fill="#8ECAEB"/>
<path d="M80.6357 8.20022C80.6357 8.77059 80.5533 9.23725 79.8212 9.23725C79.0891 9.23725 78.5529 9.23725 77.9239 9.23725C77.2949 9.23725 77.2639 9.40305 77.2639 9.89046C77.2639 11.7156 77.2639 13.5512 77.2639 15.4075C77.2639 17.1601 77.2639 18.9231 77.2639 20.6653C77.2639 21.2357 77.2639 21.7023 76.4699 21.7023C75.6759 21.7023 75.7377 21.2666 75.7377 20.7481C75.7377 17.2637 75.7377 13.8 75.7377 10.3778C75.7377 9.3408 75.7377 9.3408 74.7066 9.3408H73.5723C72.4484 9.3408 72.5412 9.34094 72.5412 8.18984C72.5412 7.62985 72.7784 7.50524 73.2734 7.50524C75.4697 7.50524 77.6763 7.50524 79.8933 7.50524C80.4811 7.31858 80.6357 7.64023 80.6357 8.20022Z" fill="#8ECAEB"/>
<path d="M55.1765 15.0756C55.717 15.0063 56.2264 14.7829 56.6448 14.432C57.0632 14.081 57.3731 13.6172 57.5379 13.0949C57.9299 11.9492 57.9299 10.7043 57.5379 9.55852C57.4248 8.93453 57.0933 8.37207 56.6034 7.9726C56.1135 7.57313 55.4975 7.36321 54.8671 7.38092C53.341 7.38092 51.7737 7.38092 50.2992 7.38092C49.8145 7.38092 49.5671 7.54678 49.5671 8.09641V20.9347C49.5671 21.4117 49.7526 21.6193 50.2476 21.64C50.7425 21.6608 51.0725 21.3599 51.0725 20.7377C51.0725 19.2236 51.0725 17.6889 51.0725 16.1645C51.0725 15.9052 51.2168 15.5008 51.4128 15.4283C51.9119 15.2347 52.4622 15.2195 52.9711 15.3857C53.4799 15.5519 53.9164 15.8891 54.2073 16.3407C54.9497 17.7511 55.6302 19.203 56.3417 20.6341C56.8779 21.6712 57.3213 21.889 58.6205 21.4223C57.4656 19.3275 56.9501 16.9422 55.1765 15.0756ZM51.6191 13.5823C51.4541 13.5823 51.1756 13.2089 51.1343 12.9911C51.1034 12.435 51.1034 11.8778 51.1343 11.3217V9.70385C51.1202 9.61482 51.1272 9.52353 51.1548 9.43776C51.1825 9.35198 51.2299 9.27415 51.2933 9.2104C51.3567 9.14664 51.4342 9.09894 51.5195 9.07115C51.6048 9.04336 51.6954 9.03614 51.784 9.05039C52.6501 9.05039 53.537 9.05039 54.4238 9.05039C54.6781 9.04415 54.931 9.09112 55.1663 9.18837C55.4016 9.28563 55.6142 9.43119 55.7906 9.61549C55.9671 9.79979 56.1035 10.0189 56.1913 10.2591C56.2791 10.4992 56.3162 10.7551 56.3004 11.0105C56.4111 11.5437 56.3087 12.0993 56.0155 12.5572C55.7222 13.0151 55.2615 13.3385 54.7331 13.4578C53.6884 13.5664 52.637 13.5942 51.5881 13.5408L51.6191 13.5823Z" fill="#8ECAEB"/>
<path d="M45.9682 20.9658C45.9682 21.7124 45.5145 21.5881 45.1021 21.5881C43.0398 21.5881 41.1012 21.5881 39.0802 21.5881C38.4615 21.5881 38.2346 21.4117 38.2655 20.7169C38.3377 18.591 38.2655 16.486 38.2655 14.36C38.2655 12.2341 38.2655 10.0668 38.2655 7.94092C38.2655 7.49499 38.3893 7.32898 38.8224 7.32898C40.8847 7.32898 42.947 7.32898 45.0093 7.32898C45.628 7.32898 45.7311 7.66089 45.7208 8.16903C45.7104 8.67717 45.7208 9.20606 45.0093 9.20606H40.761C39.6473 9.20606 39.6473 9.20588 39.6267 10.3155C39.6267 11.0518 39.6267 11.809 39.6267 12.5349C39.6267 13.2608 39.8328 13.3542 40.4206 13.3438C41.7508 13.3438 43.0604 13.3438 44.3803 13.3438C45.0403 13.3438 45.2877 13.551 45.2877 14.2251C45.2877 14.8992 45.0609 15.2623 44.37 15.1897C43.0604 15.1897 41.7715 15.1897 40.4825 15.1897C39.8741 15.1897 39.6164 15.3969 39.6267 16.0295C39.668 16.9767 39.668 17.9203 39.6267 18.8606C39.6267 19.545 39.833 19.8252 40.5445 19.8044C42.0396 19.8044 43.5245 19.8044 45.0403 19.8044C45.8961 19.763 45.896 19.8769 45.9682 20.9658Z" fill="#8ECAEB"/>
<path d="M34.4504 9.48622C34.2773 8.83801 33.8801 8.2731 33.3301 7.89296C32.7801 7.51281 32.1134 7.34233 31.4497 7.41217C30.2432 7.41217 29.0161 7.41217 27.7993 7.41217C27.1085 7.41217 26.8611 7.67133 26.8714 8.35577C26.8714 10.4298 26.8714 12.4208 26.8714 14.4637C26.8714 16.5067 26.8714 18.6949 26.8714 20.8208C26.8714 21.3705 27.0261 21.6817 27.6344 21.6817C28.2428 21.6817 28.4181 21.3705 28.4181 20.8208C28.4181 19.4935 28.4181 18.1763 28.4181 16.8386C28.4181 15.9156 28.4903 15.8638 29.4493 15.8638C30.1917 15.8638 30.9237 15.8638 31.6559 15.8638C32.0865 15.8906 32.5171 15.8098 32.9093 15.6289C33.3015 15.448 33.6431 15.1725 33.9038 14.8268C34.414 14.0459 34.7299 13.1531 34.825 12.2236C34.9201 11.2941 34.7917 10.3553 34.4504 9.48622ZM32.8314 13.1366C32.5284 13.5647 32.0751 13.861 31.5631 13.966C30.6886 14.0919 29.8021 14.1094 28.9234 14.0179C28.7275 14.0179 28.4697 13.6344 28.4285 13.4062C28.4285 12.8047 28.4285 12.2032 28.4285 11.5707C28.4285 9.18549 28.4283 9.19581 30.7588 9.18544C31.6146 9.18544 32.4603 9.18529 32.9243 10.0668C33.1888 10.5382 33.32 11.0736 33.3037 11.6147C33.2873 12.1558 33.1239 12.6822 32.8314 13.1366Z" fill="#8ECAEB"/>
<path d="M22.9426 8.07552C22.8704 11.3318 22.8601 14.5983 22.757 17.8442C22.7613 18.9029 22.3628 19.9232 21.6433 20.6961C21.1434 21.2296 20.4992 21.6043 19.7901 21.7738C19.0809 21.9434 18.3379 21.9005 17.6527 21.6503C17.0107 21.5115 16.4267 21.1773 15.9802 20.693C15.5338 20.2087 15.2464 19.5978 15.1573 18.9435C14.994 18.2002 14.8975 17.4436 14.8687 16.6829C14.8687 13.7896 14.8687 10.8756 14.8687 7.96159C14.8687 7.609 14.8686 7.33928 15.3326 7.34965C15.7966 7.36002 16.2091 7.23556 16.2607 7.84741C16.2814 8.082 16.2814 8.31792 16.2607 8.55251C16.2607 11.0517 16.2607 13.5613 16.2607 16.0502C16.2983 16.9078 16.4403 17.7578 16.6835 18.5807C16.8318 19.0117 17.1103 19.3851 17.48 19.6492C17.8498 19.9132 18.2923 20.0545 18.7458 20.0532C19.2586 20.0972 19.771 19.9652 20.1998 19.679C20.6285 19.3928 20.9483 18.9692 21.1071 18.4769C21.291 17.8427 21.395 17.1875 21.4165 16.5272C21.4783 15.1687 21.4165 13.8206 21.4165 12.4621C21.4165 11.1036 21.4165 9.5585 21.4165 8.10666C21.4165 7.52593 21.6536 7.33928 22.1898 7.34965C22.726 7.36002 22.9426 7.53627 22.9426 8.07552Z" fill="#8ECAEB"/>
<path d="M9.48601 21.1838C8.81046 21.5541 8.07887 21.8099 7.3206 21.9408C4.51586 21.8579 3.37135 20.0118 3.02076 17.6267C2.93827 17.1496 3.11356 16.8696 3.66007 16.8281C4.20659 16.7866 4.42311 16.932 4.54685 17.492C4.5864 17.9038 4.7159 18.3019 4.92611 18.6576C5.13632 19.0133 5.42196 19.318 5.76279 19.5498C6.10362 19.7816 6.49125 19.9347 6.89779 19.9984C7.30433 20.0622 7.71978 20.0349 8.11461 19.9184C8.59955 19.7829 9.02718 19.4917 9.33244 19.0893C9.6377 18.6868 9.80389 18.1951 9.80572 17.6889C9.80784 17.2312 9.6665 16.7845 9.4018 16.4121C9.1371 16.0398 8.76244 15.7609 8.33112 15.6149C7.39276 15.2416 6.41317 14.9616 5.50576 14.5779C3.36095 13.5408 3.01042 11.363 3.76316 9.26816C4.11412 8.40642 4.78623 7.71687 5.63591 7.34678C6.48559 6.97668 7.44552 6.95547 8.3106 7.28753C9.04135 7.58119 9.67326 8.07893 10.1319 8.72205C10.5905 9.36518 10.8566 10.1269 10.8988 10.9171C10.8988 11.4771 10.5275 11.4876 10.1356 11.5498C9.7438 11.612 9.42414 11.446 9.36227 10.9067C9.31532 10.4463 9.12903 10.0114 8.82844 9.66084C8.52786 9.31033 8.12746 9.06124 7.68148 8.94688C7.18902 8.81431 6.66738 8.84337 6.19252 9.02992C5.71767 9.21646 5.31451 9.55073 5.04179 9.9839C4.9067 10.2073 4.82057 10.457 4.78928 10.7166C4.758 10.9762 4.7823 11.2397 4.8604 11.4891C4.93851 11.7385 5.06862 11.9681 5.24218 12.1628C5.41573 12.3575 5.62875 12.5128 5.86676 12.618C6.71231 12.9602 7.56817 13.2609 8.44465 13.5616C9.16639 13.7718 9.81003 14.1924 10.2945 14.77C10.779 15.3477 11.0824 16.0565 11.1668 16.8074C11.326 17.622 11.2528 18.4655 10.9553 19.2399C10.6579 20.0144 10.1484 20.6884 9.48601 21.1838Z" fill="#8ECAEB"/>
</g>
<defs>
<clipPath id="clip0_150_31">
<rect width="93" height="15" fill="white" transform="translate(3 7)"/>
</clipPath>
</defs>
</svg>
