<svg width="100" height="30" viewBox="0 0 100 30" fill="none" xmlns="http://www.w3.org/2000/svg">
<path d="M84.7901 2.65698H14.4317V26.4553H84.7901V2.65698Z" fill="#353535"/>
<path fill-rule="evenodd" clip-rule="evenodd" d="M74.2149 13.9786H74.6952H76.302H78.0485C78.3708 13.9838 78.6921 14.016 79.0091 14.0749C79.2109 14.0999 79.4058 14.1645 79.5826 14.2651C79.7594 14.3657 79.9147 14.5003 80.0395 14.6611C80.2228 15.0014 80.3075 15.3863 80.284 15.7722C80.3192 16.1952 80.2182 16.6184 79.9959 16.9797C79.8084 17.1943 79.5521 17.3366 79.2711 17.3822C78.9197 17.4758 78.5599 17.5344 78.197 17.5571C76.9418 17.6666 75.6796 17.6666 74.4245 17.5571L73.8569 17.4784C73.9473 17.1914 74.0202 16.8993 74.0752 16.6034L74.4332 16.6997C74.6615 16.7363 74.892 16.7567 75.1231 16.7609C76.2089 16.8187 77.2975 16.7982 78.3803 16.6997C78.8956 16.6297 79.306 16.4285 79.306 15.8685C79.3163 15.6526 79.2775 15.4372 79.1925 15.2385C78.9916 14.7923 78.3891 14.7398 77.9612 14.7398L76.2234 14.8536H74.6428C74.4945 14.8624 74.3458 14.8624 74.1974 14.8536C74.1974 14.5823 74.1974 14.3024 74.1974 14.0311L74.2149 13.9786Z" fill="white"/>
<path fill-rule="evenodd" clip-rule="evenodd" d="M80.0134 13.165H79.1401C79.1291 13.029 79.1057 12.8942 79.0703 12.7625C78.9393 12.3425 78.5026 12.2725 78.1271 12.2288C77.6221 12.182 77.1149 12.1615 76.6077 12.1675C76.1361 12.1675 75.6558 12.1675 75.1843 12.1675C74.8903 12.1894 74.5984 12.2333 74.311 12.2988L74.0927 12.36C74.0316 12.0888 73.9617 11.8088 73.8831 11.5376L74.1363 11.4763C74.7138 11.3824 75.2979 11.3356 75.8829 11.3363C76.6868 11.313 77.4914 11.3335 78.2931 11.3976C78.771 11.3963 79.2366 11.5497 79.6204 11.835C79.9129 12.2011 80.0619 12.6616 80.0396 13.13L80.0134 13.165Z" fill="white"/>
<path fill-rule="evenodd" clip-rule="evenodd" d="M49.6327 11.2489H50.5496V12.3339C50.6063 12.1368 50.7075 11.9554 50.8453 11.8037C50.983 11.652 51.1538 11.534 51.3443 11.4589C52.0645 11.2094 52.8309 11.1227 53.5885 11.2052H53.772C53.6831 11.4607 53.6073 11.7206 53.5449 11.9839H53.4139C52.6537 11.8982 51.8846 12.0191 51.1871 12.3339C50.7767 12.5788 50.5496 13.1126 50.5496 13.9875V17.4172H49.6327V11.2927V11.2489Z" fill="white"/>
<path fill-rule="evenodd" clip-rule="evenodd" d="M40.6818 14.4162C40.6688 14.8136 40.7099 15.211 40.8041 15.5974C40.8508 15.79 40.9413 15.9691 41.0686 16.1209C41.1958 16.2727 41.3563 16.393 41.5376 16.4723C41.937 16.6085 42.3557 16.6794 42.7777 16.6823C43.4932 16.7218 44.2103 16.7218 44.9259 16.6823C45.4498 16.6823 46.3143 16.5685 46.5589 15.9123C46.7078 15.4372 46.7758 14.9402 46.7597 14.4424C46.7834 13.9902 46.7452 13.5369 46.6462 13.095C46.5845 12.8324 46.443 12.5955 46.2412 12.4168C46.0395 12.2382 45.7874 12.1267 45.5197 12.0976C44.375 11.9442 43.215 11.9442 42.0703 12.0976C41.7687 12.1111 41.4803 12.2252 41.2508 12.4217C41.0214 12.6183 40.8642 12.8861 40.8041 13.1825C40.7116 13.6047 40.6705 14.0366 40.6818 14.4687V14.4162ZM39.7562 8.58911H40.6731V12.2288C40.9438 11.4239 41.7909 11.2314 42.5681 11.1702C43.4397 11.0944 44.3162 11.0944 45.1878 11.1702C45.6055 11.1663 46.0185 11.2581 46.3953 11.4386C46.7722 11.619 47.1029 11.8834 47.3623 12.2114C47.6577 12.87 47.7895 13.5904 47.7465 14.3112C47.7567 14.8078 47.7098 15.304 47.6068 15.7898C47.5589 16.0511 47.4563 16.2992 47.3058 16.5179C47.1552 16.7365 46.9602 16.9208 46.7335 17.0585C46.1619 17.3261 45.5393 17.4664 44.9084 17.4697C44.0173 17.5069 43.1247 17.4864 42.2362 17.4085C41.9127 17.3974 41.598 17.2999 41.3247 17.1261C41.0515 16.9523 40.8295 16.7084 40.6818 16.4198V17.3647H39.7649V8.58911H39.7562Z" fill="white"/>
<path fill-rule="evenodd" clip-rule="evenodd" d="M36.7435 8.58911H37.6167V17.4085H36.7435V8.58911Z" fill="white"/>
<path fill-rule="evenodd" clip-rule="evenodd" d="M28.1418 15.8335C28.138 15.9769 28.1777 16.1181 28.2557 16.2384C28.3336 16.3586 28.4462 16.4524 28.5785 16.5073C28.8978 16.6216 29.2349 16.6779 29.574 16.6735C30.3162 16.6735 31.0585 16.7172 31.8008 16.6735L32.4295 16.621C32.6177 16.6011 32.8044 16.5689 32.9884 16.5248C33.2018 16.4688 33.3934 16.3499 33.5386 16.1835C33.6557 16.023 33.7246 15.8323 33.737 15.6338C33.7493 15.4353 33.7047 15.2375 33.6084 15.0636C33.526 14.9049 33.3897 14.7808 33.2242 14.7136C33.0414 14.6331 32.8467 14.5829 32.6478 14.5649C32.089 14.5037 31.5126 14.5036 30.9537 14.4949C30.3948 14.4861 30.0805 14.4949 29.6264 14.4949C29.2345 14.4998 28.8479 14.5862 28.4911 14.7486C28.3887 14.8192 28.3044 14.9131 28.2452 15.0226C28.186 15.1321 28.1536 15.2541 28.1506 15.3786C28.1375 15.5124 28.1375 15.6472 28.1506 15.7811L28.1418 15.8335ZM34.6563 17.4084H33.7831V16.691C33.6313 16.9285 33.422 17.1237 33.1746 17.2583C32.9272 17.3929 32.6499 17.4626 32.3684 17.4609C31.2927 17.537 30.213 17.537 29.1373 17.4609C28.7487 17.426 28.3667 17.3377 28.0021 17.1984C27.7236 17.0637 27.4955 16.8433 27.3509 16.5694C27.2064 16.2955 27.153 15.9825 27.1987 15.6761C27.1476 15.179 27.2813 14.6806 27.5742 14.2762C27.9565 13.9561 28.4383 13.7797 28.9365 13.7774C29.3819 13.7774 29.8098 13.7162 30.2726 13.7162C30.9974 13.7162 31.7222 13.7162 32.447 13.7687C32.6727 13.7726 32.8965 13.8109 33.1107 13.8825C33.3814 14.0044 33.6139 14.198 33.7831 14.4424V13.8212C33.7937 13.4516 33.7466 13.0826 33.6433 12.7275C33.579 12.5395 33.4528 12.3791 33.2853 12.2725C33.1254 12.1672 32.9429 12.1012 32.7526 12.0801C32.1742 11.9985 31.5901 11.9634 31.0061 11.9751C30.5836 11.9677 30.1609 11.9823 29.7399 12.0188L29.2421 12.0713C28.6396 12.1763 28.4387 12.5176 28.4387 13.1125H27.4519C27.423 12.8636 27.4479 12.6113 27.5247 12.3728C27.6015 12.1343 27.7286 11.9151 27.8973 11.7301C28.4164 11.3913 29.0243 11.2147 29.6438 11.2226C30.3565 11.1833 31.0707 11.1833 31.7833 11.2226L32.5954 11.2839C33.3464 11.3714 34.2197 11.5551 34.4817 12.3863C34.6002 12.7897 34.659 13.2083 34.6563 13.6287V17.4522V17.4084Z" fill="white"/>
<path fill-rule="evenodd" clip-rule="evenodd" d="M21.3741 11.2489H25.6269V12.0363H21.3741V14.9936C21.3121 15.4833 21.4403 15.9782 21.7322 16.376C22.1415 16.6391 22.6285 16.7534 23.1119 16.6997C23.5535 16.7127 23.994 16.6476 24.4131 16.5072C24.7187 16.4023 24.8846 16.1223 24.937 15.6323C24.9588 15.3148 24.9588 14.9961 24.937 14.6786H25.8103C25.8741 15.4242 25.7479 16.1739 25.4435 16.8572C25.1903 17.2684 24.4654 17.4872 23.2429 17.4872C22.5696 17.5365 21.894 17.4286 21.2693 17.1722C20.7803 16.9359 20.4834 16.3847 20.4834 15.4223V12.0188H18.9901V11.2314H20.4834V9.84021H21.4003L21.3741 11.2489Z" fill="white"/>
<path fill-rule="evenodd" clip-rule="evenodd" d="M63.7621 4.35437C65.7853 4.35264 67.7636 4.95229 69.4465 6.07741C71.1295 7.20254 72.4415 8.80257 73.2166 10.675C73.9916 12.5475 74.1948 14.6083 73.8006 16.5965C73.4063 18.5848 72.4322 20.4111 71.0015 21.8445C69.5709 23.2779 67.748 24.2539 65.7636 24.6489C63.7792 25.044 61.7224 24.8403 59.8535 24.0638C57.9846 23.2873 56.3876 21.9727 55.2647 20.2865C54.1417 18.6003 53.5432 16.6183 53.5449 14.5911C53.5518 11.8783 54.6305 9.27858 56.5451 7.36031C58.4597 5.44205 61.0544 4.3613 63.7621 4.35437Z" fill="white"/>
<mask id="mask0_150_31" style="mask-type:luminance" maskUnits="userSpaceOnUse" x="53" y="4" width="21" height="21">
<path fill-rule="evenodd" clip-rule="evenodd" d="M63.7621 4.35437C65.7853 4.35264 67.7636 4.95229 69.4465 6.07741C71.1295 7.20254 72.4415 8.80257 73.2166 10.675C73.9916 12.5475 74.1948 14.6083 73.8006 16.5965C73.4063 18.5848 72.4322 20.4111 71.0015 21.8445C69.5709 23.2779 67.748 24.2539 65.7636 24.6489C63.7792 25.044 61.7224 24.8403 59.8535 24.0638C57.9846 23.2873 56.3876 21.9727 55.2647 20.2865C54.1417 18.6003 53.5432 16.6183 53.5449 14.5911C53.5518 11.8783 54.6305 9.27858 56.5451 7.36031C58.4597 5.44205 61.0544 4.3613 63.7621 4.35437Z" fill="white"/>
</mask>
<g mask="url(#mask0_150_31)">
<path fill-rule="evenodd" clip-rule="evenodd" d="M73.3242 18.8433C73.1321 18.7821 72.7653 18.6859 72.5208 18.5809C72.1916 18.4601 71.9078 18.24 71.7087 17.9509C71.3711 17.3344 71.2309 16.6288 71.307 15.9298H72.6256C72.6256 16.1223 72.5645 16.9885 73.036 17.3559C73.258 17.5127 73.5167 17.6092 73.787 17.6359C73.6587 18.0479 73.5041 18.4512 73.3242 18.8433ZM73.7259 11.5114C73.5016 11.5878 73.2898 11.6969 73.0972 11.8351C72.988 11.9273 72.903 12.0449 72.8497 12.1776C72.7965 12.3103 72.7765 12.4541 72.7915 12.5963C72.7619 12.8193 72.8034 13.046 72.91 13.244C73.0167 13.4419 73.183 13.6011 73.3853 13.6987C73.6637 13.8046 73.9615 13.8494 74.2586 13.8299C74.2848 14.2291 74.2848 14.6295 74.2586 15.0286L73.3242 14.9324C73.0514 14.9258 72.783 14.8622 72.5362 14.7455C72.2894 14.6288 72.0697 14.4617 71.8912 14.2549C71.7128 14.048 71.5795 13.8061 71.4999 13.5445C71.4203 13.283 71.3963 13.0077 71.4292 12.7363C71.4032 12.3872 71.4619 12.0369 71.6003 11.7154C71.7387 11.394 71.9526 11.1108 72.2239 10.8902C72.3567 10.7875 72.5002 10.6995 72.6518 10.6277C72.8614 10.5227 73.0622 10.4264 73.2893 10.3302C73.4665 10.7105 73.6096 11.1058 73.7172 11.5114H73.7259Z" fill="#F47216"/>
<path fill-rule="evenodd" clip-rule="evenodd" d="M54.1824 10.4264C54.4942 10.5264 54.7887 10.674 55.0557 10.8639C55.265 11.0248 55.4351 11.2312 55.5534 11.4676C55.8872 12.2817 56.0306 13.1616 55.9726 14.0399H54.6714C54.6976 13.4444 54.6056 12.8496 54.4007 12.29C54.3539 12.1479 54.2716 12.0202 54.1615 11.9191C54.0514 11.818 53.9173 11.7469 53.772 11.7125C53.8768 11.2742 54.014 10.8443 54.1824 10.4264Z" fill="#F47216"/>
<path fill-rule="evenodd" clip-rule="evenodd" d="M58.147 12.3074C58.2413 11.9472 58.4128 11.6119 58.6495 11.3248C58.8863 11.0377 59.1827 10.8057 59.518 10.6451C60.2183 10.3655 60.9648 10.2201 61.7186 10.2163C62.2862 10.2163 62.8713 10.1726 63.4651 10.2163C64.059 10.2601 64.6178 10.2163 65.2117 10.2163C65.9656 10.219 66.7122 10.3645 67.4123 10.6451C67.7486 10.8042 68.0458 11.0357 68.2828 11.323C68.5198 11.6104 68.6906 11.9465 68.7833 12.3074C69.2636 13.9436 69.4382 17.557 67.6218 18.3182C66.3357 18.7842 64.9714 18.9952 63.6048 18.9395H63.3778C62.0084 18.9951 60.6413 18.7841 59.3521 18.3182C57.492 17.5483 57.6667 13.9786 58.147 12.3074ZM59.3958 12.8674C59.4676 12.5944 59.5988 12.3406 59.78 12.1243C59.9611 11.908 60.1878 11.7345 60.4436 11.6162C60.9802 11.4032 61.5519 11.2934 62.129 11.2925C62.5657 11.2925 63.0023 11.2925 63.4477 11.2925C63.893 11.2925 64.3209 11.2925 64.7575 11.2925C65.3346 11.2934 65.9064 11.4032 66.4429 11.6162C66.6988 11.7345 66.9255 11.908 67.1066 12.1243C67.2878 12.3406 67.419 12.5944 67.4908 12.8674C67.8576 14.0923 67.9886 16.8046 66.6176 17.3821C65.6294 17.734 64.5827 17.8914 63.535 17.8458H63.3691C62.3213 17.8914 61.2746 17.734 60.2865 17.3821C58.9067 16.8046 59.0377 14.0923 59.4132 12.8674H59.3958Z" fill="#F47216"/>
</g>
<path d="M63.762 3.90822C66.2256 3.90431 68.6142 4.75663 70.5207 6.31985C72.4271 7.88306 73.7334 10.0604 74.2169 12.4807C74.7003 14.9009 74.331 17.4142 73.1718 19.5922C72.0126 21.7701 70.1354 23.4778 67.8601 24.4241C65.5848 25.3705 63.0524 25.4968 60.6946 24.7817C58.3367 24.0665 56.2994 22.5541 54.93 20.5023C53.5606 18.4506 52.9439 15.9864 53.185 13.53C53.426 11.0736 54.51 8.777 56.252 7.03175C58.2431 5.03428 60.9444 3.91076 63.762 3.90822ZM70.7044 7.60921C69.1002 6.00859 66.9918 5.01461 64.7382 4.7965C62.4847 4.5784 60.2254 5.14965 58.345 6.413C56.4646 7.67636 55.0794 9.55368 54.4252 11.7253C53.7711 13.897 53.8885 16.2286 54.7574 18.3233C55.6263 20.418 57.193 22.1461 59.1907 23.2135C61.1885 24.2809 63.4937 24.6214 65.7139 24.1772C67.9341 23.733 69.932 22.5315 71.3674 20.7773C72.8027 19.0231 73.5869 16.8246 73.5862 14.5562C73.5816 11.9496 72.5452 9.45122 70.7044 7.60921Z" fill="#8A8D8F"/>
</svg>
