<svg width="130" height="130" viewBox="0 0 130 130" fill="none" xmlns="http://www.w3.org/2000/svg">
<g clip-path="url(#clip0_63_162)">
<path d="M72.8761 56.4693L64.8269 79.5095C64.7276 79.8074 64.5361 80.0662 64.2799 80.2492C64.0238 80.4321 63.716 80.5297 63.4007 80.5279H51.4539V85.3959C51.4539 85.7901 51.2966 86.1683 51.0165 86.4471C50.7365 86.7258 50.3566 86.8824 49.9605 86.8824H38.5289V94.56C38.5289 94.9543 38.3715 95.3324 38.0915 95.6112C37.8114 95.8899 37.4316 96.0465 37.0355 96.0465H21.1686C20.7726 96.0465 20.3928 95.8899 20.1127 95.6112C19.8326 95.3324 19.6753 94.9543 19.6753 94.56C19.6753 94.1658 19.8326 93.7878 20.1127 93.509C20.3928 93.2303 20.7726 93.0736 21.1686 93.0736H35.5049V85.3959C35.5049 85.0017 35.6622 84.6237 35.9422 84.3449C36.2223 84.0662 36.6022 83.9094 36.9982 83.9094H48.3776V79.0414C48.3776 78.6472 48.5349 78.269 48.815 77.9902C49.095 77.7115 49.4749 77.5549 49.8709 77.5549H62.2732L70.0462 55.3768L72.331 52.9315V53.0282L72.8761 56.4693Z" fill="#A57F2D"/>
<path d="M77.498 53.1843L74.7502 57.4058L74.0782 53.0282L73.5033 49.3046L71.3753 51.5863L67.8957 55.3099L68.0003 50.2782L75.7881 41.85L77.498 53.1843Z" fill="#A57F2D"/>
<path d="M35.7214 28.0852C36.961 28.0838 38.1733 28.4483 39.2046 29.1329C40.236 29.8176 41.0401 30.7914 41.5152 31.9311C41.9903 33.0709 42.1149 34.3254 41.8734 35.5357C41.632 36.746 41.0352 37.8577 40.1586 38.7302C39.282 39.6027 38.1651 40.1968 36.9492 40.4371C35.7333 40.6775 34.473 40.5535 33.328 40.0806C32.183 39.6077 31.2047 38.8072 30.5169 37.7806C29.8291 36.754 29.4627 35.5474 29.4642 34.3134C29.4662 32.6622 30.1261 31.0792 31.2991 29.9116C32.4721 28.744 34.0625 28.0872 35.7214 28.0852ZM35.7214 27.015C34.2712 27.015 32.8535 27.4429 31.6477 28.2449C30.4419 29.0469 29.5021 30.1869 28.9471 31.5205C28.3922 32.8541 28.247 34.3215 28.5299 35.7373C28.8128 37.1531 29.5112 38.4536 30.5366 39.4743C31.5621 40.4951 32.8686 41.1902 34.2909 41.4718C35.7133 41.7534 37.1875 41.6088 38.5273 41.0564C39.8672 40.504 41.0123 39.5686 41.818 38.3684C42.6237 37.1681 43.0538 35.757 43.0538 34.3134C43.0538 33.355 42.8641 32.406 42.4956 31.5205C42.1271 30.635 41.587 29.8305 40.9061 29.1527C40.2253 28.475 39.4169 27.9372 38.5273 27.5704C37.6377 27.2037 36.6843 27.015 35.7214 27.015Z" fill="white"/>
<path d="M36.498 43.9978L42.0458 51.3485C42.1946 51.5436 42.3864 51.702 42.6065 51.8116C42.8266 51.9211 43.069 51.9787 43.3151 51.9801C43.4988 51.9811 43.681 51.9485 43.8527 51.8836L52.0662 48.9628L53.3804 52.5822L41.4335 56.8632L38.8724 53.4741C38.7264 53.2778 38.5361 53.1185 38.317 53.0088C38.0978 52.8991 37.8559 52.8421 37.6105 52.8424C37.188 52.8424 36.7827 53.0088 36.4833 53.3055C36.1838 53.6022 36.0146 54.0049 36.0126 54.4254V60.8396C36.0135 61.1863 36.1286 61.5232 36.3404 61.7984C36.5522 62.0737 36.8489 62.2719 37.1849 62.3631L43.1583 63.9835V78.3426H38.6783V68.6287C38.6774 68.2801 38.5614 67.9413 38.3483 67.6646C38.1351 67.388 37.8365 67.1888 37.4985 67.0976L24.9021 63.7158V52.166C24.9042 51.8594 24.8166 51.559 24.6497 51.3013C24.4829 51.0437 24.2441 50.8401 23.9628 50.7154C23.6814 50.5908 23.3697 50.5506 23.0657 50.5997C22.7617 50.6487 22.4787 50.785 22.2514 50.9918L18.4732 54.3733C18.3067 54.5209 18.1735 54.7019 18.0821 54.9043C17.9908 55.1066 17.9433 55.3258 17.943 55.5477V66.109H14.0752V53.1471L24.2674 44.0202H36.5054M36.7817 42.9499H23.8493L13.1942 52.5004C13.1402 52.5478 13.0969 52.6063 13.0673 52.6717C13.0377 52.737 13.0224 52.8077 13.0224 52.8794V66.659C13.0214 66.727 13.034 66.7944 13.0595 66.8575C13.0849 66.9206 13.1227 66.978 13.1706 67.0264C13.2186 67.0749 13.2757 67.1133 13.3387 67.1395C13.4017 67.1657 13.4694 67.1792 13.5376 67.1792H18.518C18.5863 67.1792 18.6539 67.1657 18.7169 67.1395C18.7799 67.1133 18.837 67.0749 18.8849 67.0264C18.9329 66.978 18.9707 66.9206 18.9961 66.8575C19.0216 66.7944 19.0342 66.727 19.0332 66.659V55.5477C19.0332 55.476 19.0485 55.4051 19.0781 55.3398C19.1077 55.2744 19.1509 55.2161 19.2049 55.1686L22.9831 51.7795C23.0774 51.6948 23.1996 51.6473 23.3266 51.6457C23.4652 51.6457 23.5981 51.7006 23.6961 51.7982C23.7942 51.8957 23.8493 52.028 23.8493 52.166V64.5483H23.909L37.1998 68.1306C37.3096 68.1601 37.4065 68.2251 37.4754 68.3151C37.5443 68.4052 37.5813 68.5155 37.5806 68.6287V78.8926C37.5806 79.0286 37.6349 79.1591 37.7315 79.2553C37.8281 79.3515 37.9592 79.4056 38.0958 79.4056H43.7109C43.8475 79.4056 43.9786 79.3515 44.0752 79.2553C44.1718 79.1591 44.2261 79.0286 44.2261 78.8926V63.5523C44.2267 63.4391 44.1897 63.3289 44.1209 63.2388C44.052 63.1487 43.9551 63.084 43.8453 63.0544L37.4388 61.3301C37.3296 61.2994 37.2334 61.2343 37.1647 61.1445C37.096 61.0546 37.0586 60.9451 37.058 60.8322V54.418C37.058 54.35 37.0715 54.2827 37.0979 54.22C37.1242 54.1573 37.1629 54.1004 37.2115 54.0527C37.2601 54.005 37.3178 53.9674 37.3812 53.942C37.4446 53.9167 37.5123 53.9042 37.5806 53.9052C37.6599 53.9039 37.7383 53.9222 37.8087 53.9585C37.8791 53.9949 37.9393 54.0481 37.9839 54.1133L40.9706 58.0969L54.2017 53.3701C54.2653 53.3477 54.3238 53.3129 54.3738 53.2677C54.4238 53.2226 54.4642 53.1679 54.4927 53.107C54.5212 53.0461 54.5372 52.9801 54.5398 52.913C54.5424 52.8459 54.5316 52.7788 54.5078 52.7159L52.8203 48.0484C52.7849 47.9485 52.7191 47.8621 52.6322 47.8009C52.5453 47.7397 52.4415 47.7066 52.335 47.7066C52.2779 47.7 52.2203 47.7 52.1633 47.7066L43.4944 50.9174C43.4351 50.9281 43.3744 50.9281 43.3151 50.9174C43.2359 50.9171 43.1577 50.899 43.0866 50.8642C43.0154 50.8294 42.9531 50.7789 42.9044 50.7167L37.1849 43.1432C37.137 43.0796 37.075 43.0277 37.0039 42.9917C36.9327 42.9556 36.8541 42.9362 36.7743 42.9351L36.7817 42.9499Z" fill="white"/>
<path d="M26.9106 71.6832V85.8047H22.4305V71.6832H26.9106ZM27.4706 70.613H21.8556C21.7189 70.613 21.5879 70.6671 21.4913 70.7633C21.3947 70.8595 21.3404 70.9898 21.3404 71.1258V86.3323C21.3404 86.4684 21.3947 86.5989 21.4913 86.6951C21.5879 86.7912 21.7189 86.8453 21.8556 86.8453H27.4706C27.6073 86.8453 27.7383 86.7912 27.8349 86.6951C27.9316 86.5989 27.9858 86.4684 27.9858 86.3323V71.1258C27.9858 70.9898 27.9316 70.8595 27.8349 70.7633C27.7383 70.6671 27.6073 70.613 27.4706 70.613Z" fill="white"/>
<path d="M88.3696 50.7018C89.6093 50.7003 90.8215 51.0651 91.8529 51.7497C92.8842 52.4343 93.6883 53.4082 94.1634 54.5479C94.6385 55.6876 94.7632 56.942 94.5217 58.1523C94.2802 59.3626 93.6834 60.4744 92.8069 61.347C91.9303 62.2195 90.8133 62.8135 89.5974 63.0539C88.3815 63.2943 87.1213 63.17 85.9763 62.6971C84.8313 62.2243 83.8529 61.4238 83.1651 60.3972C82.4773 59.3706 82.111 58.1641 82.1125 56.9302C82.1144 55.279 82.7743 53.6959 83.9473 52.5283C85.1204 51.3607 86.7107 50.7038 88.3696 50.7018ZM88.3696 49.6316C86.9194 49.6316 85.5018 50.0597 84.296 50.8617C83.0902 51.6636 82.1504 52.8034 81.5954 54.1371C81.0404 55.4707 80.8952 56.9383 81.1782 58.3541C81.4611 59.7698 82.1594 61.0702 83.1849 62.0909C84.2103 63.1116 85.5168 63.8067 86.9392 64.0883C88.3615 64.37 89.8358 64.2256 91.1756 63.6732C92.5154 63.1208 93.6606 62.1852 94.4663 60.985C95.272 59.7847 95.702 58.3737 95.702 56.9302C95.702 54.9945 94.9295 53.138 93.5544 51.7693C92.1793 50.4006 90.3143 49.6316 88.3696 49.6316Z" fill="white"/>
<path d="M112.263 85.6635L120.701 96.9978L117.094 99.6809L108.627 88.3688L112.233 85.6932M112.353 84.4C112.24 84.4016 112.13 84.4378 112.039 84.504L107.559 87.8411C107.502 87.8822 107.454 87.9344 107.418 87.9944C107.381 88.0545 107.358 88.1212 107.348 88.1906C107.338 88.26 107.343 88.3307 107.361 88.3984C107.379 88.466 107.411 88.5292 107.455 88.5843L116.587 100.781C116.634 100.845 116.695 100.898 116.767 100.934C116.838 100.97 116.917 100.989 116.997 100.989C117.111 100.991 117.221 100.954 117.311 100.885L121.791 97.5478C121.848 97.5067 121.896 97.4545 121.932 97.3944C121.969 97.3344 121.993 97.2677 122.002 97.1983C122.012 97.1289 122.008 97.0582 121.989 96.9905C121.971 96.9229 121.939 96.8596 121.895 96.8045L112.764 84.6082C112.716 84.5437 112.655 84.4912 112.583 84.455C112.512 84.4188 112.433 84.4 112.353 84.4Z" fill="white"/>
<path d="M99.7863 61.7017L109.493 74.6413L112.144 78.1865L112.823 79.0933L100.399 88.3095C100.115 88.5195 99.9101 88.8181 99.8167 89.1576C99.7233 89.497 99.7468 89.8578 99.8834 90.1824L103.572 99.0343L99.413 100.751L93.91 87.529L99.9879 83.025C100.325 82.7735 100.548 82.3994 100.608 81.9845C100.642 81.7794 100.634 81.5695 100.584 81.3676C100.533 81.1657 100.443 80.976 100.316 80.8102L93.9772 72.3374C93.8288 72.1395 93.6362 71.9787 93.4146 71.8678C93.193 71.7568 92.9484 71.6987 92.7004 71.6981C92.5223 71.6975 92.3454 71.7278 92.1777 71.7874L87.5856 73.3927H74.2201V69.5428H86.6224C86.8029 69.5434 86.9822 69.5131 87.1526 69.4535L91.0353 68.101C91.188 68.0492 91.3316 67.974 91.4609 67.878L99.7863 61.7017ZM99.8983 60.4084C99.7878 60.41 99.6807 60.4464 99.5922 60.5124L90.8188 67.0232C90.7754 67.0528 90.7275 67.0755 90.6769 67.0901L86.7942 68.4503C86.7372 68.458 86.6794 68.458 86.6224 68.4503H73.6676C73.5993 68.4503 73.5317 68.4638 73.4687 68.49C73.4057 68.5163 73.3485 68.5547 73.3006 68.6031C73.2527 68.6515 73.2149 68.7089 73.1894 68.772C73.164 68.8351 73.1514 68.9025 73.1524 68.9705V73.9576C73.1524 74.0936 73.2066 74.2239 73.3032 74.3201C73.3999 74.4163 73.5309 74.4704 73.6676 74.4704H87.623C87.6797 74.4816 87.738 74.4816 87.7947 74.4704L92.4764 72.8353C92.5332 72.8253 92.5913 72.8253 92.6481 72.8353C92.7292 72.8353 92.8093 72.8541 92.8818 72.8903C92.9544 72.9264 93.0175 72.9788 93.0662 73.0434L99.3981 81.5088C99.4427 81.5634 99.4754 81.6267 99.4944 81.6946C99.5133 81.7624 99.518 81.8333 99.5082 81.9031C99.4984 81.9728 99.4743 82.0397 99.4374 82.0998C99.4004 82.1598 99.3515 82.2116 99.2935 82.252L92.6556 87.1797L92.551 87.2244L98.5917 101.754C98.6323 101.847 98.6991 101.926 98.7839 101.981C98.8688 102.037 98.968 102.066 99.0695 102.067C99.1386 102.069 99.2073 102.056 99.2711 102.03L104.453 99.8963C104.517 99.8711 104.575 99.8335 104.624 99.7857C104.673 99.7378 104.711 99.6806 104.738 99.6176C104.764 99.5546 104.778 99.487 104.778 99.4188C104.777 99.3505 104.764 99.2829 104.737 99.2201L100.832 89.8553C100.788 89.7492 100.781 89.6315 100.812 89.521C100.843 89.4105 100.91 89.3137 101.003 89.2459L113.869 79.6953C113.927 79.6549 113.976 79.6031 114.013 79.5431C114.049 79.483 114.074 79.4161 114.083 79.3464C114.093 79.2767 114.088 79.2057 114.069 79.1379C114.051 79.0701 114.018 79.0067 113.973 78.9521L112.965 77.6068L110.315 74.0615L100.302 60.6833C100.252 60.6196 100.189 60.5679 100.116 60.5318C100.044 60.4958 99.9643 60.4765 99.8834 60.4754L99.8983 60.4084Z" fill="white"/>
</g>
<defs>
<clipPath id="clip0_63_162">
<rect width="109" height="75" fill="white" transform="translate(13 27)"/>
</clipPath>
</defs>
</svg>
