<svg width="169" height="168" viewBox="0 0 169 168" fill="none" xmlns="http://www.w3.org/2000/svg">
<g clip-path="url(#clip0_4_352)">
<path d="M94.0145 64.1954L83.6022 93.9941C83.4738 94.3793 83.2261 94.7141 82.8947 94.9507C82.5633 95.1872 82.1652 95.3135 81.7574 95.3111H66.3032V101.607C66.3032 102.117 66.0997 102.606 65.7375 102.967C65.3752 103.327 64.8838 103.53 64.3715 103.53H49.5838V113.459C49.5838 113.969 49.3802 114.458 49.0179 114.819C48.6556 115.179 48.1643 115.382 47.652 115.382H27.1269C26.6146 115.382 26.1232 115.179 25.761 114.819C25.3987 114.458 25.1951 113.969 25.1951 113.459C25.1951 112.95 25.3987 112.461 25.761 112.1C26.1232 111.74 26.6146 111.537 27.1269 111.537H45.6719V101.607C45.6719 101.097 45.8754 100.608 46.2377 100.248C46.6 99.8873 47.0914 99.6846 47.6037 99.6846H62.3238V93.3886C62.3238 92.8788 62.5273 92.3897 62.8896 92.0291C63.2518 91.6686 63.7432 91.4662 64.2556 91.4662H80.2989L90.3538 62.7824L93.3094 59.6199V59.745L94.0145 64.1954Z" fill="#A57F2D"/>
<path d="M99.9933 59.9468L96.4389 65.4066L95.5696 59.7449L94.8258 54.929L92.0731 57.8801L87.572 62.6959L87.7073 56.1883L97.7814 45.2877L99.9933 59.9468Z" fill="#A57F2D"/>
<path d="M45.952 27.4855C47.5556 27.4836 49.1237 27.9551 50.4578 28.8405C51.792 29.7259 52.8322 30.9854 53.4467 32.4595C54.0613 33.9336 54.2226 35.5561 53.9102 37.1214C53.5978 38.6867 52.8258 40.1245 51.6919 41.2529C50.558 42.3814 49.1131 43.1497 47.5402 43.4606C45.9674 43.7715 44.3372 43.611 42.856 42.9994C41.3749 42.3878 40.1093 41.3526 39.2196 40.0249C38.3298 38.6971 37.856 37.1365 37.8579 35.5406C37.8604 33.405 38.714 31.3576 40.2314 29.8475C41.7488 28.3374 43.8061 27.488 45.952 27.4855ZM45.952 26.1013C44.076 26.1013 42.2422 26.6548 40.6824 27.692C39.1226 28.7292 37.9069 30.2036 37.189 31.9284C36.4711 33.6533 36.2833 35.5511 36.6493 37.3821C37.0153 39.2132 37.9186 40.8952 39.2451 42.2154C40.5716 43.5355 42.2617 44.4345 44.1016 44.7987C45.9415 45.1629 47.8486 44.976 49.5817 44.2615C51.3149 43.5471 52.7963 42.3373 53.8385 40.785C54.8807 39.2327 55.437 37.4076 55.437 35.5406C55.437 34.301 55.1917 33.0737 54.715 31.9284C54.2383 30.7832 53.5397 29.7426 52.6589 28.8661C51.7781 27.9895 50.7325 27.2941 49.5817 26.8197C48.431 26.3453 47.1976 26.1013 45.952 26.1013Z" fill="#02517D"/>
<path d="M46.9566 48.0657L54.1331 57.5726C54.3256 57.8249 54.5738 58.0298 54.8585 58.1715C55.1432 58.3131 55.4568 58.3876 55.7751 58.3895C56.0126 58.3907 56.2484 58.3485 56.4705 58.2646L67.0953 54.487L68.7952 59.1681L53.3411 64.7049L50.0281 60.3216C49.8392 60.0678 49.5931 59.8618 49.3096 59.7199C49.0261 59.578 48.7131 59.5043 48.3957 59.5047C47.8492 59.5047 47.3249 59.7199 46.9375 60.1036C46.5502 60.4873 46.3313 61.0081 46.3287 61.552V69.8477C46.3298 70.2961 46.4788 70.7318 46.7527 71.0878C47.0267 71.4438 47.4105 71.7002 47.8452 71.8181L55.5723 73.9138V92.4849H49.777V79.9216C49.7758 79.4707 49.6258 79.0325 49.3501 78.6747C49.0743 78.3169 48.6881 78.0593 48.2508 77.9414L31.9564 73.5676V58.6298C31.9592 58.2333 31.8457 57.8448 31.6299 57.5115C31.4141 57.1783 31.1053 56.915 30.7413 56.7538C30.3774 56.5926 29.9741 56.5406 29.5808 56.604C29.1876 56.6675 28.8216 56.8437 28.5275 57.1112L23.6401 61.4847C23.4248 61.6755 23.2524 61.9096 23.1342 62.1713C23.016 62.4331 22.9547 62.7166 22.9543 63.0035V76.6628H17.951V59.8987L31.1354 48.0945H46.9662M47.3236 46.7104H30.5945L16.8113 59.0623C16.7414 59.1237 16.6855 59.1993 16.6472 59.2838C16.6089 59.3684 16.5891 59.4598 16.5891 59.5526V77.3741C16.5879 77.462 16.6041 77.5493 16.6371 77.6309C16.67 77.7125 16.7188 77.7867 16.7809 77.8494C16.8429 77.912 16.9168 77.9616 16.9983 77.9956C17.0798 78.0295 17.1673 78.047 17.2556 78.047H23.698C23.7864 78.047 23.8738 78.0295 23.9553 77.9956C24.0368 77.9616 24.1107 77.912 24.1727 77.8494C24.2347 77.7867 24.2837 77.7125 24.3166 77.6309C24.3495 77.5493 24.3658 77.462 24.3645 77.3741V63.0035C24.3645 62.9108 24.3843 62.8191 24.4226 62.7346C24.4609 62.6501 24.5168 62.5746 24.5866 62.5133L29.474 58.1299C29.5961 58.0204 29.754 57.959 29.9183 57.957C30.0977 57.957 30.2696 58.0279 30.3964 58.1541C30.5232 58.2803 30.5945 58.4513 30.5945 58.6298V74.6443H30.6717L47.8645 79.2774C48.0065 79.3156 48.1318 79.3996 48.221 79.5161C48.3101 79.6325 48.3579 79.7752 48.3571 79.9216V93.1962C48.3571 93.3722 48.4273 93.541 48.5523 93.6654C48.6773 93.7898 48.8468 93.8597 49.0235 93.8597H56.287C56.4638 93.8597 56.6333 93.7898 56.7583 93.6654C56.8833 93.541 56.9535 93.3722 56.9535 93.1962V73.3562C56.9543 73.2098 56.9065 73.0672 56.8174 72.9507C56.7283 72.8342 56.6029 72.7504 56.4609 72.7122L48.1736 70.4821C48.0324 70.4424 47.9079 70.3582 47.8191 70.242C47.7302 70.1258 47.6818 69.9841 47.681 69.8381V61.5424C47.681 61.4545 47.6985 61.3675 47.7326 61.2864C47.7667 61.2053 47.8166 61.1317 47.8796 61.07C47.9425 61.0083 48.0171 60.9596 48.0991 60.9268C48.1811 60.8941 48.2687 60.8779 48.3571 60.8792C48.4596 60.8775 48.561 60.9012 48.6521 60.9482C48.7431 60.9952 48.821 61.064 48.8787 61.1484L52.7422 66.3005L69.8577 60.1871C69.94 60.1582 70.0157 60.1132 70.0804 60.0548C70.145 59.9963 70.1972 59.9256 70.2341 59.8468C70.271 59.7681 70.2917 59.6828 70.2951 59.596C70.2984 59.5091 70.2844 59.4225 70.2537 59.3411L68.0708 53.3044C68.0249 53.1752 67.9399 53.0635 67.8275 52.9843C67.715 52.9052 67.5807 52.8624 67.443 52.8623C67.3692 52.8538 67.2947 52.8538 67.2209 52.8623L56.0069 57.015C55.9303 57.0288 55.8517 57.0288 55.7751 57.015C55.6725 57.0146 55.5715 56.9912 55.4794 56.9462C55.3874 56.9012 55.3068 56.8359 55.2438 56.7554L47.8452 46.9603C47.7832 46.8781 47.7031 46.811 47.611 46.7644C47.5189 46.7177 47.4173 46.6926 47.314 46.6912L47.3236 46.7104Z" fill="#02517D"/>
<path d="M34.5546 83.8722V102.136H28.7593V83.8722H34.5546ZM35.279 82.488H28.0155C27.8388 82.488 27.6692 82.558 27.5442 82.6824C27.4193 82.8067 27.349 82.9753 27.349 83.1512V102.818C27.349 102.994 27.4193 103.163 27.5442 103.287C27.6692 103.412 27.8388 103.482 28.0155 103.482H35.279C35.4557 103.482 35.6253 103.412 35.7503 103.287C35.8752 103.163 35.9455 102.994 35.9455 102.818V83.1512C35.9455 82.9753 35.8752 82.8067 35.7503 82.6824C35.6253 82.558 35.4557 82.488 35.279 82.488Z" fill="#02517D"/>
<path d="M114.057 56.7362C115.66 56.7343 117.228 57.206 118.562 58.0915C119.897 58.9769 120.937 60.2364 121.551 61.7105C122.166 63.1845 122.327 64.8068 122.015 66.3721C121.702 67.9375 120.93 69.3754 119.797 70.5039C118.663 71.6324 117.218 72.4007 115.645 72.7115C114.072 73.0224 112.442 72.8618 110.961 72.2502C109.479 71.6386 108.214 70.6033 107.324 69.2756C106.434 67.9479 105.961 66.3875 105.962 64.7916C105.965 62.656 106.819 60.6086 108.336 59.0985C109.853 57.5884 111.911 56.7387 114.057 56.7362ZM114.057 55.3521C112.181 55.3521 110.347 55.9057 108.787 56.9429C107.227 57.9802 106.012 59.4543 105.294 61.1791C104.576 62.904 104.388 64.802 104.754 66.6331C105.12 68.4642 106.023 70.146 107.35 71.4661C108.676 72.7862 110.366 73.6852 112.206 74.0495C114.046 74.4137 115.953 74.227 117.686 73.5125C119.42 72.7981 120.901 71.588 121.943 70.0357C122.985 68.4834 123.542 66.6585 123.542 64.7916C123.542 62.2881 122.542 59.8871 120.764 58.1168C118.985 56.3466 116.572 55.3521 114.057 55.3521Z" fill="#02517D"/>
<path d="M144.965 101.953L155.879 116.612L151.214 120.083L140.261 105.452L144.926 101.992M145.081 100.319C144.935 100.321 144.793 100.368 144.675 100.454L138.88 104.77C138.806 104.823 138.744 104.89 138.697 104.968C138.65 105.046 138.619 105.132 138.606 105.222C138.594 105.312 138.6 105.403 138.623 105.491C138.647 105.578 138.688 105.66 138.745 105.731L150.557 121.505C150.618 121.589 150.698 121.656 150.791 121.703C150.883 121.75 150.985 121.774 151.089 121.774C151.235 121.777 151.379 121.73 151.494 121.64L157.29 117.324C157.363 117.271 157.426 117.203 157.473 117.125C157.52 117.048 157.55 116.962 157.563 116.872C157.576 116.782 157.57 116.691 157.546 116.603C157.522 116.516 157.481 116.434 157.425 116.363L145.612 100.589C145.551 100.505 145.471 100.437 145.379 100.39C145.287 100.344 145.184 100.319 145.081 100.319Z" fill="#02517D"/>
<path d="M128.825 70.9627L141.382 87.698L144.81 92.2831L145.689 93.4558L129.617 105.375C129.25 105.647 128.985 106.033 128.864 106.472C128.743 106.911 128.774 107.378 128.951 107.798L133.722 119.246L128.342 121.467L121.223 104.366L129.086 98.5409C129.522 98.2156 129.81 97.7317 129.888 97.1952C129.932 96.9299 129.921 96.6584 129.856 96.3973C129.792 96.1362 129.674 95.8908 129.511 95.6764L121.31 84.7182C121.119 84.4623 120.869 84.2544 120.583 84.1109C120.296 83.9674 119.98 83.8922 119.659 83.8915C119.428 83.8907 119.2 83.9298 118.983 84.0069L113.042 86.0831H95.7531V81.1039H111.796C112.03 81.1047 112.262 81.0656 112.482 80.9885L117.505 79.2392C117.702 79.1722 117.888 79.0749 118.055 78.9508L128.825 70.9627ZM128.97 69.2902C128.827 69.2922 128.688 69.3392 128.574 69.4246L117.225 77.8452C117.169 77.8836 117.107 77.9129 117.041 77.9318L112.019 79.6909C111.945 79.701 111.87 79.701 111.796 79.6909H95.0383C94.95 79.6909 94.8626 79.7084 94.7811 79.7423C94.6996 79.7763 94.6257 79.8259 94.5637 79.8885C94.5016 79.9511 94.4527 80.0254 94.4198 80.107C94.3869 80.1886 94.3706 80.2759 94.3719 80.3638V86.8137C94.3719 86.9896 94.4421 87.1582 94.5671 87.2826C94.6921 87.407 94.8616 87.4769 95.0383 87.4769H113.091C113.164 87.4914 113.24 87.4914 113.313 87.4769L119.369 85.3622C119.442 85.3493 119.518 85.3493 119.591 85.3622C119.696 85.3622 119.8 85.3866 119.894 85.4333C119.987 85.48 120.069 85.5478 120.132 85.6314L128.323 96.5799C128.38 96.6506 128.423 96.7325 128.447 96.8202C128.472 96.9079 128.478 96.9997 128.465 97.0899C128.453 97.18 128.421 97.2666 128.374 97.3442C128.326 97.4219 128.262 97.4889 128.188 97.5411L119.601 103.914L119.466 103.972L127.28 122.764C127.332 122.884 127.419 122.986 127.528 123.058C127.638 123.13 127.766 123.168 127.898 123.168C127.987 123.171 128.076 123.154 128.159 123.12L134.862 120.361C134.944 120.328 135.019 120.28 135.083 120.218C135.146 120.156 135.196 120.082 135.23 120.001C135.264 119.919 135.282 119.832 135.282 119.743C135.281 119.655 135.263 119.568 135.229 119.487L130.177 107.375C130.12 107.238 130.111 107.085 130.152 106.942C130.192 106.8 130.279 106.674 130.399 106.587L147.042 94.2345C147.117 94.1823 147.18 94.1153 147.228 94.0376C147.275 93.96 147.307 93.8734 147.319 93.7832C147.332 93.693 147.326 93.6013 147.301 93.5136C147.277 93.4258 147.235 93.344 147.177 93.2733L145.873 91.5333L142.444 86.9482L129.491 69.6457C129.427 69.5632 129.346 69.4963 129.252 69.4497C129.158 69.4031 129.055 69.3782 128.951 69.3768L128.97 69.2902Z" fill="#02517D"/>
</g>
<defs>
<clipPath id="clip0_4_352">
<rect width="141" height="97" fill="white" transform="translate(16.5601 26.0818)"/>
</clipPath>
</defs>
</svg>
