<svg width="100" height="30" viewBox="0 0 100 30" fill="none" xmlns="http://www.w3.org/2000/svg">
<g clip-path="url(#clip0_150_39)">
<path fill-rule="evenodd" clip-rule="evenodd" d="M15.2057 8.94031H26.2804V12.9395H23.0572V26.8836H18.3876V12.9395H15.2057V8.94031Z" fill="#E92127"/>
<path fill-rule="evenodd" clip-rule="evenodd" d="M27.9953 27.0106V9.0144H36.6112V13.0136H32.7062V15.5315H36.6939V19.4884H32.7062V22.1016H36.6939V27.0106H27.9953Z" fill="#E92127"/>
<path fill-rule="evenodd" clip-rule="evenodd" d="M38.5948 27.0106V9.0144H43.0887V22.2285H47.5V27.0106H38.5948Z" fill="#E92127"/>
<path fill-rule="evenodd" clip-rule="evenodd" d="M58.7915 15.5104L61.4982 2H66.426L61.6325 26.8942H56.7977L55.0518 16.8223L53.6571 26.8942H48.8119L45.7643 8.95091H50.2996L51.4876 17.3407L52.9753 8.95091H57.1799L58.7915 15.5104Z" fill="#E92127"/>
<path fill-rule="evenodd" clip-rule="evenodd" d="M66.3021 27.0106V9.0144H71.2712V27.0106H66.3021Z" fill="#E92127"/>
<path fill-rule="evenodd" clip-rule="evenodd" d="M77.8416 19.5201V27H72.8311V9.00378H77.5833L80.1763 15.9653L80.2177 9.00378H84.7942L84.7116 27H80.259L77.8416 19.5201Z" fill="#E92127"/>
<path fill-rule="evenodd" clip-rule="evenodd" d="M70.2174 6.10492C70.1657 6.0097 70.0831 5.90384 70.0005 5.77689C69.9432 5.68302 69.8736 5.5976 69.7938 5.52298C69.7273 5.46813 69.6545 5.42206 69.5769 5.38557C69.7711 5.36486 69.9564 5.2919 70.1141 5.17403C70.191 5.10838 70.2524 5.02573 70.2936 4.93226C70.3347 4.83879 70.3546 4.73694 70.3517 4.63445C70.3554 4.53489 70.3357 4.43586 70.2943 4.34567C70.253 4.25549 70.1912 4.17677 70.1141 4.11605C69.8824 3.95943 69.6054 3.88832 69.329 3.91484H68.2959V6.59155H68.6471V5.41734H68.864C69.0353 5.40992 69.2058 5.44612 69.36 5.52298C69.5368 5.70151 69.6833 5.90895 69.7938 6.13669L70.0521 6.59155H70.4653L70.2174 6.10492ZM68.988 5.12108H68.6574V4.18992H69.1533C69.397 4.15713 69.6445 4.20945 69.8558 4.33818C69.9057 4.37589 69.9459 4.42543 69.9729 4.48257C69.9999 4.53971 70.0129 4.60278 70.0108 4.66622C70.005 4.75519 69.9724 4.84014 69.9178 4.90953C69.8943 4.94996 69.8629 4.98475 69.8256 5.01208C69.7882 5.0394 69.7458 5.05855 69.7009 5.06813C69.4666 5.11795 69.2268 5.13579 68.988 5.12108ZM70.2174 6.10492C70.1657 6.0097 70.0831 5.90384 70.0005 5.77689C69.9432 5.68302 69.8736 5.5976 69.7938 5.52298C69.7273 5.46813 69.6545 5.42206 69.5769 5.38557C69.7711 5.36486 69.9564 5.2919 70.1141 5.17403C70.191 5.10838 70.2524 5.02573 70.2936 4.93226C70.3347 4.83879 70.3546 4.73694 70.3517 4.63445C70.3554 4.53489 70.3357 4.43586 70.2943 4.34567C70.253 4.25549 70.1912 4.17677 70.1141 4.11605C69.8824 3.95943 69.6054 3.88832 69.329 3.91484H68.2959V6.59155H68.6471V5.41734H68.864C69.0353 5.40992 69.2058 5.44612 69.36 5.52298C69.5368 5.70151 69.6833 5.90895 69.7938 6.13669L70.0521 6.59155H70.4653L70.2174 6.10492ZM68.988 5.12108H68.6574V4.18992H69.1533C69.397 4.15713 69.6445 4.20945 69.8558 4.33818C69.9057 4.37589 69.9459 4.42543 69.9729 4.48257C69.9999 4.53971 70.0129 4.60278 70.0108 4.66622C70.005 4.75519 69.9724 4.84014 69.9178 4.90953C69.8943 4.94996 69.8629 4.98475 69.8256 5.01208C69.7882 5.0394 69.7458 5.05855 69.7009 5.06813C69.4666 5.11795 69.2268 5.13579 68.988 5.12108ZM70.2174 6.10492C70.1657 6.0097 70.0831 5.90384 70.0005 5.77689C69.9432 5.68302 69.8736 5.5976 69.7938 5.52298C69.7273 5.46813 69.6545 5.42206 69.5769 5.38557C69.7711 5.36486 69.9564 5.2919 70.1141 5.17403C70.191 5.10838 70.2524 5.02573 70.2936 4.93226C70.3347 4.83879 70.3546 4.73694 70.3517 4.63445C70.3554 4.53489 70.3357 4.43586 70.2943 4.34567C70.253 4.25549 70.1912 4.17677 70.1141 4.11605C69.8824 3.95943 69.6054 3.88832 69.329 3.91484H68.2959V6.59155H68.6471V5.41734H68.864C69.0353 5.40992 69.2058 5.44612 69.36 5.52298C69.5368 5.70151 69.6833 5.90895 69.7938 6.13669L70.0521 6.59155H70.4653L70.2174 6.10492ZM68.988 5.12108H68.6574V4.18992H69.1533C69.397 4.15713 69.6445 4.20945 69.8558 4.33818C69.9057 4.37589 69.9459 4.42543 69.9729 4.48257C69.9999 4.53971 70.0129 4.60278 70.0108 4.66622C70.005 4.75519 69.9724 4.84014 69.9178 4.90953C69.8943 4.94996 69.8629 4.98475 69.8256 5.01208C69.7882 5.0394 69.7458 5.05855 69.7009 5.06813C69.4666 5.11795 69.2268 5.13579 68.988 5.12108ZM70.2174 6.10492C70.1657 6.0097 70.0831 5.90384 70.0005 5.77689C69.9432 5.68302 69.8736 5.5976 69.7938 5.52298C69.7273 5.46813 69.6545 5.42206 69.5769 5.38557C69.7711 5.36486 69.9564 5.2919 70.1141 5.17403C70.191 5.10838 70.2524 5.02573 70.2936 4.93226C70.3347 4.83879 70.3546 4.73694 70.3517 4.63445C70.3554 4.53489 70.3357 4.43586 70.2943 4.34567C70.253 4.25549 70.1912 4.17677 70.1141 4.11605C69.8824 3.95943 69.6054 3.88832 69.329 3.91484H68.2959V6.59155H68.6471V5.41734H68.864C69.0353 5.40992 69.2058 5.44612 69.36 5.52298C69.5368 5.70151 69.6833 5.90895 69.7938 6.13669L70.0521 6.59155H70.4653L70.2174 6.10492ZM68.988 5.12108H68.6574V4.18992H69.1533C69.397 4.15713 69.6445 4.20945 69.8558 4.33818C69.9057 4.37589 69.9459 4.42543 69.9729 4.48257C69.9999 4.53971 70.0129 4.60278 70.0108 4.66622C70.005 4.75519 69.9724 4.84014 69.9178 4.90953C69.8943 4.94996 69.8629 4.98475 69.8256 5.01208C69.7882 5.0394 69.7458 5.05855 69.7009 5.06813C69.4666 5.11795 69.2268 5.13579 68.988 5.12108ZM70.9302 3.57647C70.7078 3.34252 70.4408 3.15782 70.1458 3.03405C69.8507 2.91029 69.5341 2.84992 69.2153 2.85686C68.8966 2.84992 68.5798 2.91029 68.2848 3.03405C67.9898 3.15782 67.7228 3.34252 67.5004 3.57647C67.2693 3.80492 67.0867 4.07963 66.964 4.38364C66.8414 4.68765 66.7814 5.01433 66.7876 5.34321C66.783 5.66872 66.8438 5.99185 66.9664 6.29219C67.0891 6.59253 67.2709 6.86354 67.5004 7.08877C67.7207 7.32618 67.9872 7.51399 68.2825 7.63971C68.5778 7.76543 68.8956 7.82647 69.2153 7.81897C69.5351 7.82647 69.8528 7.76543 70.1482 7.63971C70.4435 7.51399 70.7098 7.32618 70.9302 7.08877C71.1583 6.86301 71.3386 6.59154 71.4594 6.29115C71.5803 5.99076 71.6393 5.66804 71.6327 5.34321C71.6403 5.0151 71.5818 4.6889 71.461 4.38493C71.3401 4.08097 71.1594 3.80583 70.9302 3.57647ZM70.7443 6.8984C70.5466 7.10801 70.3087 7.27346 70.0456 7.38452C69.7825 7.49557 69.4998 7.54994 69.2153 7.54388C68.9325 7.54848 68.6518 7.49346 68.3906 7.38245C68.1294 7.27144 67.8931 7.10669 67.6966 6.8984C67.4914 6.69806 67.3286 6.45669 67.2184 6.18913C67.1082 5.92157 67.0529 5.63358 67.0561 5.34321C67.0501 5.0493 67.104 4.75734 67.2142 4.48593C67.3245 4.21451 67.4888 3.96961 67.6966 3.76683C67.894 3.56046 68.1307 3.39764 68.3918 3.28847C68.653 3.1793 68.9333 3.12598 69.2153 3.13194C69.4987 3.12761 69.78 3.18176 70.0426 3.2908C70.3052 3.39983 70.5439 3.56164 70.7443 3.76683C70.9454 3.97369 71.1039 4.21978 71.2104 4.49058C71.3169 4.76137 71.3691 5.05133 71.3641 5.34321C71.3742 5.63733 71.3243 5.93034 71.2176 6.20359C71.1108 6.47685 70.9497 6.72434 70.7443 6.93018V6.8984ZM70.0005 5.77689C69.9432 5.68302 69.8736 5.5976 69.7938 5.52298C69.7273 5.46813 69.6545 5.42206 69.5769 5.38557C69.7711 5.36486 69.9564 5.2919 70.1141 5.17403C70.191 5.10838 70.2524 5.02573 70.2936 4.93226C70.3347 4.83879 70.3546 4.73694 70.3517 4.63445C70.3554 4.53489 70.3357 4.43586 70.2943 4.34567C70.253 4.25549 70.1912 4.17677 70.1141 4.11605C69.8824 3.95943 69.6054 3.88832 69.329 3.91484H68.2959V6.59155H68.6471V5.41734H68.864C69.0353 5.40992 69.2058 5.44612 69.36 5.52298C69.5368 5.70151 69.6833 5.90895 69.7938 6.13669L70.0521 6.59155H70.4653L70.2071 6.10492C70.1657 6.0097 70.0831 5.87211 70.0005 5.77689ZM68.9674 5.12108H68.6367V4.18992H69.1326C69.3764 4.15713 69.6239 4.20945 69.8352 4.33818C69.885 4.37589 69.9252 4.42543 69.9522 4.48257C69.9792 4.53971 69.9922 4.60278 69.9901 4.66622C69.9843 4.75519 69.9518 4.84014 69.8971 4.90953C69.8737 4.94996 69.8424 4.98475 69.805 5.01208C69.7677 5.0394 69.7251 5.05855 69.6802 5.06813C69.4526 5.11611 69.2199 5.13394 68.988 5.12108H68.9674ZM70.1967 6.10492C70.1451 6.0097 70.0625 5.90384 69.9798 5.77689C69.9225 5.68302 69.8529 5.5976 69.7731 5.52298C69.7066 5.46813 69.6338 5.42206 69.5562 5.38557C69.7504 5.36486 69.9357 5.2919 70.0934 5.17403C70.1703 5.10838 70.2317 5.02573 70.2729 4.93226C70.314 4.83879 70.3339 4.73694 70.331 4.63445C70.3347 4.53489 70.315 4.43586 70.2736 4.34567C70.2323 4.25549 70.1706 4.17677 70.0934 4.11605C69.8617 3.95943 69.5847 3.88832 69.3083 3.91484H68.2752V6.59155H68.6264V5.41734H68.8434C69.0147 5.40992 69.1851 5.44612 69.3393 5.52298C69.5161 5.70151 69.6627 5.90895 69.7731 6.13669L70.0314 6.59155H70.4446L70.1967 6.10492ZM68.9674 5.12108H68.6367V4.18992H69.1326C69.3764 4.15713 69.6239 4.20945 69.8352 4.33818C69.885 4.37589 69.9252 4.42543 69.9522 4.48257C69.9792 4.53971 69.9922 4.60278 69.9901 4.66622C69.9843 4.75519 69.9518 4.84014 69.8971 4.90953C69.8737 4.94996 69.8424 4.98475 69.805 5.01208C69.7677 5.0394 69.7251 5.05855 69.6802 5.06813C69.4526 5.11611 69.2199 5.13394 68.988 5.12108H68.9674ZM70.1967 6.10492C70.1451 6.0097 70.0625 5.90384 69.9798 5.77689C69.9225 5.68302 69.8529 5.5976 69.7731 5.52298C69.7066 5.46813 69.6338 5.42206 69.5562 5.38557C69.7504 5.36486 69.9357 5.2919 70.0934 5.17403C70.1703 5.10838 70.2317 5.02573 70.2729 4.93226C70.314 4.83879 70.3339 4.73694 70.331 4.63445C70.3347 4.53489 70.315 4.43586 70.2736 4.34567C70.2323 4.25549 70.1706 4.17677 70.0934 4.11605C69.8617 3.95943 69.5847 3.88832 69.3083 3.91484H68.2752V6.59155H68.6264V5.41734H68.8434C69.0147 5.40992 69.1851 5.44612 69.3393 5.52298C69.5161 5.70151 69.6627 5.90895 69.7731 6.13669L70.0314 6.59155H70.4446L70.1967 6.10492ZM68.9674 5.12108H68.6367V4.18992H69.1326C69.3764 4.15713 69.6239 4.20945 69.8352 4.33818C69.885 4.37589 69.9252 4.42543 69.9522 4.48257C69.9792 4.53971 69.9922 4.60278 69.9901 4.66622C69.9843 4.75519 69.9518 4.84014 69.8971 4.90953C69.8737 4.94996 69.8424 4.98475 69.805 5.01208C69.7677 5.0394 69.7251 5.05855 69.6802 5.06813C69.4526 5.11611 69.2199 5.13394 68.988 5.12108H68.9674Z" fill="#E92127"/>
</g>
<defs>
<clipPath id="clip0_150_39">
<rect width="70" height="25" fill="white" transform="translate(15 2)"/>
</clipPath>
</defs>
</svg>
