<svg width="100" height="30" viewBox="0 0 100 30" fill="none" xmlns="http://www.w3.org/2000/svg">
<path fill-rule="evenodd" clip-rule="evenodd" d="M93.9277 8.31385C93.8211 7.89186 93.6166 7.50102 93.3309 7.17305C93.0452 6.84507 92.6864 6.5892 92.2835 6.42623C91.9171 6.27395 91.5337 6.1664 91.1417 6.10591C90.2282 5.95719 86.8027 6.02582 85.6152 6.02582H74.3797C73.9116 8.71426 71.6964 18.4384 72.1874 20.612C72.2747 21.0266 72.4546 21.416 72.7137 21.7508C72.9728 22.0857 73.3043 22.3574 73.6832 22.5454C75.396 23.3577 85.6723 23.0373 89.0635 23.0373C89.9286 23.1387 90.8051 23.0166 91.6098 22.6827C91.9752 22.2708 91.8838 21.9391 91.998 21.3556L93.0256 15.6355C93.2768 14.217 93.5623 12.6726 93.7678 11.2311C93.9061 10.4762 93.9786 9.71061 93.9848 8.94308C93.9848 8.94308 93.9734 8.45113 93.9277 8.31385ZM86.757 10.7392L85.4326 18.3698C85.364 18.6786 85.2955 18.9761 85.2498 19.3079C85.2042 19.6396 85.2499 19.5596 85.0672 19.674C84.6447 20.0057 81.0365 19.937 80.2944 19.8226C79.5522 19.7082 79.221 19.4223 79.2896 18.6214C79.6093 16.036 80.2601 13.5191 80.5912 10.9565C80.7511 9.74387 81.1051 9.50364 81.7331 9.50364C82.7835 9.50364 84.2907 9.50364 85.2955 9.50364C86.3003 9.50364 86.9283 9.90403 86.757 10.7392Z" fill="#D0173A"/>
<path fill-rule="evenodd" clip-rule="evenodd" d="M49.157 22.9458H56.2363L57.2182 17.5117C57.2622 17.3164 57.3479 17.1329 57.4695 16.974C57.6636 16.7338 57.7321 16.7795 58.0975 16.7795H59.6846H62.8931L61.8312 22.9458H68.9219C68.9576 22.5993 69.0148 22.2555 69.0932 21.9161L71.1599 10.3616L71.9249 6.14017H64.8114L63.6695 12.6153H58.1203L59.2621 6.08298H52.5368C52.1143 6.08298 52.1828 5.96855 52.0915 6.48336L49.2826 22.2022C49.2369 22.4081 49.157 22.7513 49.157 22.9458Z" fill="#D0173A"/>
<path fill-rule="evenodd" clip-rule="evenodd" d="M5.52813 10.0189H12.0936L9.80996 22.9234H16.9235L19.2071 10.0418H25.7269L26.4006 6.04919H6.32735L5.6765 8.94355C5.57039 9.29185 5.52035 9.65485 5.52813 10.0189Z" fill="#D0173A"/>
<path fill-rule="evenodd" clip-rule="evenodd" d="M26.0922 16.7795C27.0329 18.2643 28.1872 19.602 29.5176 20.7492L33.7538 16.8253L32.4978 16.6651L32.9317 14.011C33.0573 13.1187 33.1943 12.2378 33.3542 11.3912C33.4684 10.865 33.5597 10.6705 33.9365 10.4417C34.3548 10.266 34.8086 10.1916 35.261 10.2243C36.0831 10.2243 38.8235 10.1328 39.4743 10.2243H41.3355C41.734 10.2391 42.1289 10.1442 42.4773 9.94976C43.5487 9.09402 44.5457 8.14872 45.4575 7.12404C45.9941 7.73037 47.1816 9.18326 47.7411 9.68663C47.9126 9.56716 48.0765 9.43726 48.2321 9.29766C48.4376 9.11462 48.2321 8.31381 48.2321 8.08501C47.9466 6.58635 47.0218 6.07153 45.5488 6.07153H43.2652H33.9365C30.511 6.07153 29.255 6.40331 28.49 10.0184C28.3987 10.4417 28.1361 11.9746 27.9077 13.3589C27.7364 14.5716 27.6222 15.6469 27.5537 16.791L26.0922 16.7795Z" fill="#D0173A"/>
<path fill-rule="evenodd" clip-rule="evenodd" d="M41.4612 12.2379L42.523 12.3065C42.4089 13.1187 42.249 13.9424 42.1349 14.7775C42.0207 15.6127 41.7809 16.8825 41.5525 17.7863C41.4269 18.2782 40.776 18.5757 40.2965 18.6786C39.8169 18.7816 35.2382 18.8388 34.6787 18.8388C32.3266 19.0676 31.5387 20.9781 29.3236 21.9162C28.5357 21.1955 27.6679 20.4404 26.8801 19.6282L26.5604 19.96C26.1151 20.5205 26.3663 21.3556 26.9714 22.0535C27.3704 22.5629 27.9443 22.9055 28.5815 23.0145C29.0639 23.0993 29.5532 23.1376 30.0429 23.1289L41.6667 22.9687C42.57 22.9902 43.4691 22.8387 44.3157 22.5225C44.8803 22.2628 45.3481 21.8301 45.6516 21.287C46.2148 20.1311 46.5668 18.8835 46.6907 17.6033L47.49 13.1645L47.6498 12.2836L49.1799 12.1921C48.883 11.5858 47.1132 10.0871 46.2797 9.04605C45.252 8.01643 45.6174 8.03932 44.3614 9.16046C44.2472 9.29774 41.5525 11.9976 41.4612 12.2379Z" fill="#D0173A"/>
</svg>
