<svg width="100" height="30" viewBox="0 0 100 30" fill="none" xmlns="http://www.w3.org/2000/svg">
<g clip-path="url(#clip0_150_35)">
<path fill-rule="evenodd" clip-rule="evenodd" d="M98.254 10.5229C98.3042 10.5247 98.3542 10.5161 98.4007 10.4977C98.4471 10.4793 98.4891 10.4514 98.5235 10.4162C98.5579 10.3809 98.584 10.339 98.6003 10.2931C98.6165 10.2473 98.6223 10.1985 98.6175 10.1503C98.6175 9.81064 98.3903 9.70117 97.9929 9.70117H97.4365V11.1694H97.7658V10.5448H97.9134L98.254 11.1694H98.6402L98.254 10.5229ZM98.0383 10.2928H97.7658V9.95314H97.9815C98.1064 9.95314 98.2654 9.95304 98.2654 10.1174C98.2654 10.2817 98.1859 10.2928 98.0383 10.2928Z" fill="#FF671D"/>
<path fill-rule="evenodd" clip-rule="evenodd" d="M97.9815 9.07673C97.7948 9.07062 97.609 9.10156 97.4353 9.16768C97.2616 9.23379 97.1038 9.33371 96.9718 9.46111C96.8398 9.5885 96.7362 9.74075 96.6677 9.90834C96.5992 10.0759 96.5671 10.2552 96.5734 10.4353C96.5671 10.6153 96.5992 10.7949 96.6677 10.9625C96.7362 11.1301 96.8398 11.2823 96.9718 11.4097C97.1038 11.5371 97.2616 11.6368 97.4353 11.7029C97.609 11.769 97.7948 11.8 97.9815 11.7938C98.169 11.8015 98.3562 11.7718 98.5312 11.7064C98.7062 11.641 98.8655 11.5413 98.9987 11.4137C99.132 11.2862 99.2366 11.1335 99.3058 10.9652C99.375 10.7968 99.4073 10.6163 99.4009 10.4353C99.4073 10.2543 99.375 10.074 99.3058 9.90567C99.2366 9.7373 99.132 9.58465 98.9987 9.45709C98.8655 9.32954 98.7062 9.22989 98.5312 9.16447C98.3562 9.09904 98.169 9.06908 97.9815 9.07673ZM97.9815 11.509C97.8367 11.5097 97.6934 11.4811 97.5609 11.425C97.4284 11.3688 97.3096 11.2865 97.2121 11.1832C97.1147 11.0799 97.041 10.9579 96.9955 10.8253C96.95 10.6927 96.9339 10.5523 96.9482 10.4134C96.9357 10.2747 96.953 10.1351 96.9991 10.0033C97.0452 9.87145 97.1191 9.7502 97.2162 9.64728C97.3132 9.54435 97.4314 9.46192 97.5631 9.4052C97.6948 9.34849 97.8372 9.31872 97.9815 9.31774C98.1261 9.31884 98.2691 9.3486 98.4013 9.4052C98.5336 9.4618 98.6524 9.54401 98.7503 9.64674C98.8483 9.74947 98.9233 9.87063 98.9707 10.0025C99.0182 10.1344 99.0371 10.2742 99.0262 10.4134C99.0388 10.5529 99.0212 10.6935 98.9743 10.8261C98.9275 10.9587 98.8525 11.0804 98.7542 11.1834C98.6559 11.2865 98.5364 11.3689 98.4034 11.425C98.2703 11.481 98.1266 11.5095 97.9815 11.509Z" fill="#FF671D"/>
<path fill-rule="evenodd" clip-rule="evenodd" d="M10.1033 13.503C9.45607 10.8406 6.32208 11.0049 6.32208 11.0049C4.29698 11.0672 2.33994 11.7246 0.712662 12.8894C0.610465 12.8894 0.598999 12.8128 0.598999 12.8128C2.14331 10.6216 6.57183 9.00012 11.7952 9.00012C17.0186 9.00012 21.4473 10.5997 22.9916 12.8019C22.9916 12.8019 22.9915 12.9222 22.8666 12.8894C21.2442 11.7236 19.2904 11.0659 17.2685 11.0049C17.2685 11.0049 14.1232 10.8406 13.4873 13.503H10.1033Z" fill="#FF671D"/>
<path fill-rule="evenodd" clip-rule="evenodd" d="M10.1033 15.4861C9.45607 18.1484 6.32208 17.9951 6.32208 17.9951C4.29804 17.9273 2.34265 17.2704 0.712662 16.1107C0.610465 16.1107 0.598999 16.1872 0.598999 16.1872C2.14331 18.3784 6.57183 19.9889 11.7952 19.9889C17.0186 19.9889 21.4473 18.4003 22.9916 16.1981C22.9916 16.1981 22.9915 16.0668 22.8666 16.1107C21.2414 17.2714 19.2893 17.9285 17.2685 17.9951C17.2685 17.9951 14.1232 18.1484 13.4873 15.4861H10.1033Z" fill="#FF671D"/>
<path d="M25.6146 9H36.1296V11.3008H32.3596V19.989H29.3846V11.3008H25.6146V9Z" fill="#FF671D"/>
<path d="M54.7863 19.9889H54.1162C52.9974 19.9644 51.911 19.6214 50.9935 19.003C50.6299 18.68 50.3409 18.2867 50.1452 17.8488C49.9496 17.4108 49.8517 16.9379 49.858 16.4611V9.00012H52.7537V15.9681C52.7537 15.9681 52.5152 17.9403 55.0247 17.9403H55.2517C57.7613 17.9403 57.5228 15.9681 57.5228 15.9681V9.00012H60.4071V16.4611C60.4155 16.9382 60.3187 17.4119 60.1229 17.8501C59.9271 18.2884 59.6369 18.6813 59.2715 19.003C58.3541 19.6214 57.2677 19.9644 56.1489 19.9889H54.8884H54.7863Z" fill="#FF671D"/>
<path d="M43.4423 11.3007H40.5241V19.9888H37.549V9.03267H44.6801C45.1649 9.02523 45.6462 9.11221 46.0954 9.28811C46.5446 9.46401 46.9525 9.72533 47.2948 10.0566C47.6371 10.3879 47.9068 10.7822 48.0877 11.2161C48.2686 11.6501 48.3571 12.1148 48.3478 12.5825C48.414 13.3342 48.2189 14.0857 47.7933 14.7186C47.3676 15.3514 46.7357 15.8297 45.9972 16.0777L49.4038 20.0217H45.9972L40.8534 14.0178H43.5105C43.5105 14.0178 45.1003 14.0178 45.1003 12.7031V12.3963C45.1003 12.3963 45.1684 11.3007 43.556 11.3007H43.4423Z" fill="#FF671D"/>
<path d="M72.9433 12.55C72.9525 12.0832 72.8643 11.6193 72.6841 11.186C72.5039 10.7528 72.2352 10.359 71.8941 10.0278C71.5531 9.69672 71.1465 9.43511 70.6986 9.25855C70.2507 9.08199 69.7706 8.99421 69.2868 9.00016H62.1445V19.9563H65.1195V16.2749H69.1847C69.663 16.2856 70.1396 16.2152 70.5927 16.0668C71.3352 15.818 71.9701 15.3366 72.3961 14.6992C72.822 14.0618 73.0147 13.3052 72.9433 12.55ZM69.7638 12.6703C69.7638 13.9741 68.1854 13.985 68.1854 13.985H65.1195V11.3008H68.2195C69.8319 11.3008 69.7638 12.3964 69.7638 12.3964V12.6703Z" fill="#FF671D"/>
<path d="M91.157 11.3007H88.2501V19.9888H85.241V9.03267H92.3721C92.8568 9.02523 93.3381 9.11221 93.7873 9.28811C94.2366 9.46401 94.6445 9.72533 94.9868 10.0566C95.329 10.3879 95.5987 10.7822 95.7796 11.2161C95.9605 11.6501 96.049 12.1148 96.0398 12.5825C96.1059 13.3342 95.9108 14.0857 95.4852 14.7186C95.0596 15.3514 94.4276 15.8297 93.6892 16.0777L97.0958 20.0217H93.6892L88.5454 14.0178H91.2025C91.2025 14.0178 92.7809 14.0178 92.7809 12.7031V12.3963C92.7809 12.3963 92.8604 11.3007 91.2366 11.3007H91.157Z" fill="#FF671D"/>
<path d="M74.1242 9H77.0652H83.7307V11.3118H77.0652V13.3606H82.1978V15.6285H77.0652V17.6882H83.7307V19.989H77.0652H74.1242V17.6882V15.6285V13.3606V11.3118V9Z" fill="#FF671D"/>
</g>
<defs>
<clipPath id="clip0_150_35">
<rect width="100" height="11" fill="white" transform="translate(0 9)"/>
</clipPath>
</defs>
</svg>
