<svg width="130" height="130" viewBox="0 0 130 130" fill="none" xmlns="http://www.w3.org/2000/svg">
<g clip-path="url(#clip0_63_163)">
<path d="M60.9062 71.0496C60.7311 71.0497 60.5577 71.0153 60.3958 70.9487C60.234 70.8821 60.087 70.7846 59.9631 70.6615L55.3367 66.0612C55.2007 65.941 55.0909 65.7945 55.014 65.6305C54.9371 65.4666 54.8948 65.2887 54.8896 65.1079C54.8845 64.927 54.9166 64.747 54.984 64.5789C55.0515 64.4109 55.1528 64.2583 55.2817 64.1307C55.4106 64.003 55.5645 63.9031 55.7338 63.8368C55.9031 63.7705 56.0842 63.7393 56.2661 63.7452C56.4479 63.7511 56.6266 63.794 56.7912 63.8711C56.9558 63.9483 57.1028 64.0581 57.2231 64.1938L60.9062 67.856L72.7852 56.0444C72.9091 55.9213 73.056 55.8235 73.2179 55.7569C73.3797 55.6902 73.5532 55.656 73.7283 55.656C73.9035 55.656 74.077 55.6902 74.2388 55.7569C74.4006 55.8235 74.5477 55.9213 74.6715 56.0444C74.7954 56.1676 74.8936 56.3138 74.9606 56.4747C75.0277 56.6356 75.0622 56.808 75.0622 56.9822C75.0622 57.1564 75.0277 57.3289 74.9606 57.4899C74.8936 57.6508 74.7954 57.797 74.6715 57.9201L61.8494 70.6615C61.7258 70.785 61.5788 70.8827 61.4169 70.9493C61.255 71.0159 61.0814 71.0501 60.9062 71.0496Z" fill="#A57F2D"/>
<path d="M65.004 48.9543C67.8681 48.9543 70.6678 49.7987 73.0492 51.3808C75.4305 52.963 77.2866 55.2118 78.3826 57.8428C79.4786 60.4738 79.7653 63.3689 79.2066 66.1619C78.6478 68.955 77.2687 71.5207 75.2435 73.5344C73.2184 75.5481 70.6381 76.9195 67.8291 77.4751C65.0201 78.0307 62.1085 77.7454 59.4625 76.6556C56.8165 75.5658 54.5549 73.7203 52.9637 71.3524C51.3725 68.9846 50.5233 66.2008 50.5233 63.353C50.5276 59.5356 52.0545 55.8755 54.7693 53.1762C57.484 50.4768 61.1648 48.9585 65.004 48.9543ZM65.004 47.6364C61.8759 47.6364 58.8181 48.559 56.2173 50.2872C53.6165 52.0154 51.5895 54.4717 50.3928 57.3454C49.1961 60.2192 48.8834 63.3813 49.4942 66.4318C50.1051 69.4823 51.6121 72.284 53.8246 74.4828C56.0371 76.6816 58.8557 78.1787 61.9238 78.7845C64.992 79.3903 68.1719 79.0778 71.0615 77.8864C73.951 76.695 76.4204 74.6784 78.1571 72.0914C79.8938 69.5044 80.8198 66.4634 80.8182 63.353C80.8182 61.2884 80.4091 59.2441 79.6143 57.3367C78.8194 55.4294 77.6545 53.6964 76.1859 52.2369C74.7173 50.7773 72.9739 49.6199 71.0553 48.8305C69.1367 48.0411 67.0804 47.6353 65.004 47.6364Z" fill="#A57F2D"/>
<path d="M98.0066 69.7317V70.1845C95.105 77.638 90.6701 84.4069 84.9857 90.0578C79.3013 95.7086 72.4927 100.117 64.9959 103C57.5022 100.115 50.6968 95.7059 45.0152 90.0552C39.3337 84.4045 34.9013 77.6365 32.0016 70.1845V69.7317H36.1319C38.4719 75.4491 41.7986 80.7159 45.9619 85.2946C51.2533 91.087 57.748 95.6664 64.9959 98.7152C78.104 93.2397 88.491 82.8155 93.8762 69.7317H98.0066Z" fill="white"/>
<path d="M98.0066 38.7431V69.7316H93.8762C93.9259 69.6348 93.9694 69.5349 94.0063 69.4326V43.0442H93.3396C87.866 43.0662 82.4611 41.8324 77.5451 39.4389C72.6292 37.0453 68.3349 33.5564 64.9959 29.2437C61.6617 33.5575 57.3705 37.0475 52.457 39.4413C47.5434 41.835 42.1402 43.068 36.6686 43.0442H36.0018V69.4326C36.0018 69.5377 36.0832 69.6265 36.1319 69.7316H32.0016V38.7431C37.6982 39.5669 43.5127 38.858 48.8402 36.6898C55.757 33.7752 61.4595 28.5901 64.9959 21.9999C68.5351 28.5881 74.2366 33.7724 81.1517 36.6898C86.485 38.8578 92.3046 39.5667 98.0066 38.7431Z" fill="white"/>
</g>
<defs>
<clipPath id="clip0_63_163">
<rect width="66" height="81" fill="white" transform="translate(32 22)"/>
</clipPath>
</defs>
</svg>
