<svg width="175" height="174" viewBox="0 0 175 174" fill="none" xmlns="http://www.w3.org/2000/svg">
<g clip-path="url(#clip0_4_368)">
<path d="M81.7044 98.6383C81.455 98.6384 81.208 98.5896 80.9775 98.4951C80.747 98.4006 80.5376 98.2621 80.3612 98.0874L73.7721 91.5561C73.5784 91.3854 73.422 91.1774 73.3125 90.9446C73.203 90.7118 73.1427 90.4593 73.1354 90.2025C73.128 89.9458 73.1738 89.6901 73.2698 89.4515C73.3658 89.213 73.5101 88.9964 73.6937 88.8151C73.8774 88.6339 74.0965 88.492 74.3376 88.3979C74.5787 88.3037 74.8367 88.2595 75.0957 88.2678C75.3547 88.2762 75.6093 88.3371 75.8437 88.4466C76.0781 88.5562 76.2874 88.7121 76.4587 88.9048L81.7044 94.1042L98.623 77.3347C98.7994 77.1598 99.0087 77.021 99.2392 76.9264C99.4697 76.8318 99.7168 76.7832 99.9662 76.7832C100.216 76.7832 100.463 76.8318 100.693 76.9264C100.924 77.021 101.133 77.1598 101.31 77.3347C101.486 77.5095 101.626 77.7171 101.721 77.9456C101.817 78.174 101.866 78.4188 101.866 78.6661C101.866 78.9133 101.817 79.1584 101.721 79.3868C101.626 79.6153 101.486 79.8229 101.31 79.9977L83.0477 98.0874C82.8717 98.2626 82.6624 98.4014 82.4318 98.4959C82.2013 98.5905 81.9539 98.639 81.7044 98.6383Z" fill="#A57F2D"/>
<path d="M87.5407 67.2683C91.6198 67.2683 95.6073 68.4672 98.999 70.7134C102.391 72.9597 105.034 76.1525 106.595 79.8879C108.156 83.6233 108.564 87.7335 107.769 91.699C106.973 95.6645 105.009 99.3071 102.124 102.166C99.2399 105.025 95.565 106.972 91.5643 107.761C87.5636 108.55 83.4168 108.145 79.6482 106.597C75.8797 105.05 72.6586 102.43 70.3924 99.0682C68.1261 95.7064 66.9166 91.7542 66.9166 87.711C66.9228 82.2912 69.0975 77.0948 72.9639 73.2624C76.8304 69.43 82.0727 67.2744 87.5407 67.2683ZM87.5407 65.3972C83.0855 65.3972 78.7304 66.7071 75.0262 69.1607C71.322 71.6143 68.4351 75.1017 66.7307 79.1817C65.0263 83.2617 64.581 87.7511 65.451 92.0821C66.321 96.413 68.4674 100.391 71.6185 103.513C74.7696 106.634 78.7839 108.76 83.1538 109.62C87.5236 110.48 92.0526 110.036 96.168 108.345C100.283 106.653 103.8 103.79 106.274 100.117C108.747 96.4445 110.066 92.127 110.064 87.711C110.064 84.7798 109.481 81.8773 108.349 79.1694C107.217 76.4614 105.558 74.001 103.466 71.9288C101.375 69.8566 98.8918 68.2133 96.1592 67.0926C93.4266 65.9719 90.498 65.3957 87.5407 65.3972Z" fill="#A57F2D"/>
<path d="M134.544 96.7672V97.4101C130.412 107.992 124.095 117.602 115.999 125.625C107.903 133.648 98.2064 139.907 87.5292 144C76.8562 139.904 67.1637 133.644 59.0718 125.622C50.98 117.599 44.6671 107.99 40.5372 97.4101V96.7672H46.4198C49.7525 104.884 54.4905 112.362 60.4201 118.863C67.9563 127.087 77.2063 133.588 87.5292 137.917C106.198 130.143 120.992 115.343 128.662 96.7672H134.544Z" fill="#02517D"/>
<path d="M134.544 52.7712V96.7672H128.661C128.732 96.6296 128.794 96.4879 128.847 96.3426V58.8776H127.897C120.101 58.9088 112.404 57.1572 105.402 53.759C98.4006 50.3607 92.2844 45.4073 87.529 39.2843C82.7802 45.4088 76.6686 50.3638 69.6704 53.7623C62.6723 57.1609 54.9768 58.9114 47.184 58.8776H46.2343V96.3426C46.2343 96.4918 46.3502 96.6179 46.4196 96.7672H40.537V52.7712C48.6503 53.9407 56.9316 52.9342 64.5193 49.8559C74.3706 45.718 82.4922 38.3564 87.529 28.9999C92.5695 38.3535 100.69 45.714 110.539 49.8559C118.135 52.934 126.423 53.9404 134.544 52.7712Z" fill="#02517D"/>
</g>
<defs>
<clipPath id="clip0_4_368">
<rect width="94" height="115" fill="white" transform="translate(40.535 29)"/>
</clipPath>
</defs>
</svg>
