<svg width="100" height="30" viewBox="0 0 100 30" fill="none" xmlns="http://www.w3.org/2000/svg">
<path d="M72.3793 18.8441L76.639 22.9261H76.1794C74.5179 22.9261 72.8477 22.9261 71.1862 22.9261C71.0555 22.9322 70.9251 22.9091 70.8044 22.8586C70.6836 22.8081 70.5756 22.7313 70.488 22.6339C70.1699 22.2708 69.8341 21.9255 69.5071 21.5713C68.4791 22.1692 67.3358 22.5408 66.1533 22.6614C64.9708 22.782 63.7763 22.6488 62.6491 22.2708C61.2581 21.8121 60.0124 20.9938 59.0378 19.8986C58.0633 18.8033 57.3944 17.4699 57.0986 16.0329C56.8028 14.5958 56.8905 13.106 57.353 11.7138C57.8154 10.3217 58.6363 9.07632 59.7327 8.10355C61.2388 6.76561 63.1758 6.01637 65.1885 5.99311C67.2013 5.96986 69.1549 6.67417 70.6914 7.97696C72.2279 9.27974 73.2443 11.0937 73.5543 13.0864C73.8643 15.079 73.4472 17.1169 72.3793 18.8264V18.8441ZM69.4452 16.0373C69.8255 15.1253 69.8904 14.112 69.6293 13.1588C69.3683 12.2056 68.7963 11.3674 68.0046 10.7776C67.1568 10.1398 66.1121 9.82115 65.0534 9.87752C63.9946 9.93388 62.9895 10.3617 62.2139 11.0859C61.4384 11.8102 60.9419 12.7848 60.8114 13.839C60.6809 14.8931 60.9247 15.9597 61.5002 16.8519C62.5784 18.4899 64.8851 19.3577 66.4228 18.6759L63.3119 15.6653H68.4377C68.8265 15.6565 69.1977 15.6477 69.4452 16.0373Z" fill="#2B2A29"/>
<path d="M37.842 6.1999L47.3954 14.3018V6.04053H51.3635V23.0059L41.6422 14.7711V22.7933H37.8862L37.842 6.1999Z" fill="#2B2A29"/>
<path d="M83.1788 6.33264H87.2706V22.8995H86.7404C84.7784 22.8995 82.8165 22.8995 80.8545 22.8995C79.5303 22.8961 78.232 22.5319 77.0985 21.8458C76.4302 21.4243 75.8611 20.8624 75.4308 20.1989C75.0005 19.5354 74.7193 18.7861 74.6064 18.003C74.5284 17.6123 74.4899 17.2148 74.4915 16.8164C74.4915 13.4989 74.515 10.1785 74.5622 6.85506C74.5622 6.69568 74.5622 6.52745 74.5622 6.3415H78.4596V6.8108C78.4596 10.0516 78.4596 13.2835 78.4596 16.5508C78.4198 16.9873 78.533 17.4241 78.7798 17.7861C79.0265 18.148 79.3914 18.4126 79.8117 18.5342C80.8894 18.8819 82.0325 18.9758 83.1523 18.8087L83.1788 6.33264Z" fill="#2B2A29"/>
<path d="M36.6843 22.5365H36.3573C34.3954 22.5365 32.4246 22.5365 30.4627 22.5365C29.5357 22.5743 28.6127 22.3946 27.7673 22.0119C26.9219 21.6291 26.1774 21.0537 25.5932 20.3317C24.7258 19.2469 24.241 17.9051 24.2145 16.5154L24.0289 6.85503C24.0289 6.66909 24.0289 6.492 24.0289 6.27949H28.103V15.3908C28.0764 15.8391 28.0764 16.2885 28.103 16.7367C28.1224 17.2504 28.3277 17.7395 28.6806 18.1126C29.0335 18.4858 29.5098 18.7175 30.0208 18.7644C30.8751 18.8963 31.7475 18.8511 32.5837 18.6316V6.23523H36.6578L36.6843 22.5365Z" fill="#2B2A29"/>
<path d="M56.2773 22.8641H52.3445V6.12903H56.2773V22.8641Z" fill="#2B2A29"/>
<path d="M88.0128 10.4412V6.34155H97.4691V10.4412H88.0128Z" fill="#2B2A29"/>
<path d="M88.0217 16.6926V12.6106H97.4691V16.6926H88.0217Z" fill="#2B2A29"/>
<path d="M97.4868 18.9327V23.0147H88.0305V18.9327H97.4868Z" fill="#2B2A29"/>
<path d="M17.2594 6.23523H21.0418C21.0418 6.4743 21.0418 6.67795 21.0418 6.89046C21.0418 9.63537 21.0418 12.3891 21.0418 15.1429C21.0327 16.2302 20.953 17.3157 20.8032 18.3925C20.6828 19.3136 20.2904 20.1775 19.6762 20.8733C19.062 21.5691 18.2542 22.0651 17.3566 22.2974C14.9388 23.0806 12.3404 23.1084 9.90651 22.3771C8.83821 22.1351 7.88716 21.5283 7.2164 20.6608C6.54565 19.7933 6.19694 18.719 6.23005 17.6222C6.15051 13.8501 6.23005 10.0781 6.23005 6.25293H9.93299V6.92588C9.93299 9.93643 9.93299 12.9381 9.93299 15.9487C9.93299 16.4977 10.0037 17.0555 10.039 17.6045C10.0611 18.1338 10.2607 18.6402 10.6055 19.0418C10.9502 19.4435 11.4201 19.717 11.9391 19.8181C13.0159 20.1286 14.1605 20.1101 15.2267 19.765C15.8387 19.5886 16.3722 19.208 16.7386 18.6862C17.1051 18.1644 17.2826 17.5328 17.2417 16.8961C17.2417 13.6376 17.2417 10.3703 17.2417 7.10299L17.2594 6.23523Z" fill="#F27D1E"/>
<path d="M10.9582 11.7251H16.2077V13.9742C16.2077 14.8596 16.2077 15.6831 16.2077 16.5331C16.129 17.1556 15.833 17.73 15.3721 18.1547C14.9111 18.5794 14.3151 18.8269 13.6895 18.8534C13.0638 18.8799 12.449 18.6837 11.954 18.2995C11.4589 17.9154 11.1155 17.368 10.9847 16.7545C10.9051 15.1076 10.9582 13.4429 10.9582 11.7251Z" fill="#F27D1E"/>
<path d="M13.5298 10.813C13.1473 10.8211 12.7676 10.7462 12.4167 10.5934C12.0659 10.4405 11.7522 10.2134 11.4972 9.92759C11.279 9.68437 11.1198 9.394 11.032 9.07905C10.9441 8.7641 10.9301 8.4331 10.9908 8.1118C11.0515 7.79049 11.1854 7.48756 11.3821 7.22659C11.5787 6.96561 11.8328 6.75362 12.1246 6.60714C12.6454 6.30733 13.2451 6.17385 13.8436 6.22448C14.442 6.27511 15.0109 6.50745 15.4741 6.89049C15.7911 7.16409 16.023 7.52323 16.1421 7.9251C16.2611 8.32698 16.2624 8.75466 16.1458 9.15725C15.9659 9.61564 15.6624 10.0149 15.2691 10.3104C14.8758 10.606 14.4083 10.7861 13.9187 10.8308L13.5298 10.813Z" fill="#F27D1E"/>
</svg>
