<svg width="100" height="30" viewBox="0 0 100 30" fill="none" xmlns="http://www.w3.org/2000/svg">
<path d="M15.3407 21.339C17.5508 21.3987 17.1088 21.4497 17.5253 19.7208C18.3158 16.4674 19.0384 13.1885 19.8119 9.92654C19.8456 9.79947 19.9052 9.68083 19.9872 9.57818C20.0692 9.47553 20.1716 9.39113 20.2879 9.33038C23.2546 8.39353 26.2383 7.48225 29.205 6.57095C29.2983 6.56321 29.3921 6.56321 29.4855 6.57095L28.6354 9.67957C27.1903 14.9429 25.7368 20.1978 24.3172 25.4697C24.3104 25.5542 24.2857 25.6364 24.2451 25.7108C24.2045 25.7852 24.1487 25.8502 24.0814 25.9016C24.014 25.953 23.9367 25.9897 23.8543 26.0092C23.7719 26.0287 23.6863 26.0306 23.6031 26.0148C22.073 26.0148 20.5345 26.0148 18.9959 26.0148C17.0068 26.0148 16.3183 25.1205 16.7518 23.1616C16.8113 22.9146 16.8538 22.6591 16.9218 22.3099H14.4907V3.76892H38.7425V22.2844C37.4674 22.2844 36.1923 22.327 34.9258 22.2844C34.3562 22.2844 34.1777 22.4718 34.0757 22.9828C33.9448 23.6258 33.7482 24.2537 33.4891 24.8565C33.3719 25.1816 33.1586 25.4633 32.8778 25.6641C32.5969 25.8649 32.2616 25.9753 31.9166 25.9807C29.7065 25.9807 27.4879 25.9807 25.1673 25.9807L28.8989 11.6384L32.7241 14.1935C33.5741 14.7726 34.4242 15.3688 35.3593 15.9394C35.4321 15.9693 35.4983 16.0133 35.5541 16.0689C35.6098 16.1246 35.6539 16.1908 35.684 16.2636C35.714 16.3365 35.7293 16.4146 35.729 16.4935C35.7287 16.5723 35.7129 16.6503 35.6823 16.7229C35.2828 18.2219 34.9427 19.7379 34.5602 21.322H37.8754V4.60355H15.3577L15.3407 21.339Z" fill="#252122"/>
<path d="M84.3133 14.9345C84.3133 17.8984 84.3133 20.8963 84.3133 23.826C84.3133 25.4357 83.7948 25.9638 82.1882 25.9723C80.5816 25.9808 79.026 25.9723 77.445 25.9723C75.8639 25.9723 75.2688 25.2909 75.2688 23.8005C75.2688 17.8104 75.2688 11.8174 75.2688 5.82158C75.2688 4.29707 75.9149 3.6583 77.4279 3.64978H82.1712C83.6332 3.64978 84.3048 4.3141 84.3133 5.7875C84.3218 8.83651 84.3133 11.8855 84.3133 14.9345ZM79.1365 14.9345C79.1365 17.3788 79.1365 19.8146 79.1365 22.2504C79.1365 22.7103 79.23 23.051 79.7485 23.1021C80.2671 23.1532 80.437 22.804 80.437 22.293C80.437 17.4101 80.437 12.5328 80.437 7.6612C80.437 7.15871 80.2756 6.80951 79.74 6.8521C79.2045 6.89468 79.128 7.19278 79.1365 7.6612C79.145 10.097 79.1365 12.5328 79.1365 14.9686V14.9345Z" fill="#EC1C24"/>
<path d="M53.5841 3.68384C55.8537 3.68384 58.0724 3.68384 60.291 3.68384C60.8805 3.73597 61.426 4.01758 61.8106 4.4682C62.1952 4.91882 62.3882 5.50253 62.3481 6.09408C62.3481 8.57246 62.3481 11.0509 62.3481 13.5378C62.3481 14.3894 61.719 14.7301 60.92 15.1134C62.2716 15.3007 62.3481 16.1865 62.3396 17.1659C62.3396 19.9168 62.3396 22.6592 62.3396 25.4102C62.3396 25.5805 62.3396 25.7508 62.3396 25.9637H58.7099V17.7451C58.7099 16.6805 58.5399 16.5186 57.4008 16.6208V25.9893H53.6181L53.5841 3.68384ZM57.3923 13.427C58.4633 13.5548 58.5994 13.427 58.5994 12.4476C58.5994 10.8635 58.5994 9.28788 58.5994 7.70376C58.5994 6.77543 58.4038 6.63064 57.3923 6.76691V13.427Z" fill="#EC1E26"/>
<path d="M47.4724 3.68384H51.1275V4.33962C51.1275 10.8635 51.1275 17.393 51.1275 23.9282C51.1413 24.2792 51.0982 24.6301 51 24.9673C50.9274 25.2725 50.7512 25.543 50.5016 25.7325C50.252 25.922 49.9444 26.0188 49.6314 26.0063C47.7018 26.0063 45.7723 26.0063 43.8342 26.0063C43.6411 26.0108 43.4489 25.9772 43.2688 25.9073C43.0886 25.8374 42.924 25.7327 42.7843 25.599C42.6446 25.4653 42.5324 25.3054 42.4544 25.1283C42.3764 24.9512 42.334 24.7605 42.3296 24.567C42.3296 24.3881 42.3296 24.2178 42.3296 24.0389C42.3296 17.447 42.3296 10.8578 42.3296 4.2715C42.3296 4.10116 42.3296 3.92232 42.3296 3.71791H46.1293V22.0545C46.1293 22.2504 46.0698 22.4889 46.1293 22.6422C46.1888 22.7955 46.4693 23.1447 46.6563 23.1532C46.7951 23.1416 46.9302 23.1015 47.053 23.0356C47.1758 22.9697 47.2838 22.8793 47.3704 22.77C47.4894 22.6166 47.4384 22.31 47.4384 22.0716C47.4384 16.2063 47.4384 10.3411 47.4384 4.47589L47.4724 3.68384Z" fill="#EC1F27"/>
<path d="M73.8492 25.9893C72.7016 25.9893 71.6476 25.9893 70.6021 25.9893C70.4491 25.9893 70.2196 25.7253 70.1941 25.5549C69.684 22.6166 69.1995 19.6699 68.715 16.7316C68.684 16.5115 68.6025 16.3016 68.477 16.1184V25.9723H64.6858V3.61572H68.4514V11.86H68.613L69.9901 3.68385H73.3477C73.0162 5.3872 72.6931 7.14167 72.3531 8.85354C72.0811 10.2333 71.6731 11.5959 71.5031 12.9842C71.4691 13.8934 71.5665 14.8027 71.7922 15.684C72.4637 19.0992 73.1607 22.4974 73.8492 25.9893Z" fill="#EC1E26"/>
</svg>
