<svg width="256" height="76" viewBox="0 0 256 76" fill="none" xmlns="http://www.w3.org/2000/svg">
<path d="M36.9268 1.04495L36.9268 30.1804C36.9268 51.3356 33.3352 66.2978 26.1522 75.0666L11.6932 75.0666C4.51639 66.304 0.9281 51.3418 0.928099 30.1804L0.928097 1.04495L15.0621 1.04495L15.0621 28.4367C15.0251 34.212 15.3537 39.9837 16.0459 45.7175C16.5916 50.4238 17.5228 55.0774 18.83 59.6314C21.4471 51.3758 22.7525 40.9777 22.7463 28.4367L22.7463 1.04495L36.9268 1.04495Z" stroke="#A57F2D" stroke-width="2.66629"/>
<path d="M83.4679 13.7622L83.4679 75.0666L69.3246 75.0666L69.3246 55.0677L61.7147 55.0677L61.7147 75.0666L47.5807 75.0666L47.5807 40.9406L69.3246 40.9406L69.3246 16.7025C69.3246 14.7484 68.3966 13.7683 66.5405 13.7622L64.5822 13.7622C62.7261 13.7622 61.7828 14.7422 61.7519 16.7025L61.7519 39.6325L47.6178 39.6325L47.6178 13.7622C47.6178 5.28399 52.3292 1.04495 61.7519 1.04495L69.3618 1.04495C78.7659 1.04495 83.4679 5.28399 83.4679 13.7622Z" stroke="#A57F2D" stroke-width="2.66629"/>
<path d="M120.877 60.5033L120.877 75.0666L95.0964 75.0666L95.0964 0.942812L109.24 0.942812L109.24 60.5033L120.877 60.5033Z" stroke="#A57F2D" stroke-width="2.66629"/>
<path d="M168.18 62.3492C168.18 70.8273 163.468 75.0666 154.046 75.0666L146.324 75.0666C136.895 75.0666 132.181 70.8273 132.181 62.3492L132.181 1.04495L146.324 1.04495L146.324 59.854C146.324 61.8143 147.252 62.7913 149.108 62.7851L151.215 62.7851C153.071 62.7851 154.015 61.8081 154.046 59.854L154.046 1.04495L168.18 1.04495L168.18 62.3492Z" stroke="#A57F2D" stroke-width="2.66629"/>
<path d="M179.706 30.0692L207.649 30.0692L207.649 44.1964L193.84 44.1964L193.84 60.893L207.649 60.893L207.649 75.0201L179.706 75.0201L179.706 30.0692ZM179.706 1.04492L208.846 1.04492L208.846 13.7621L193.84 13.7621L193.84 28.6593L179.706 28.6593L179.706 1.04492Z" stroke="#A57F2D" stroke-width="2.66629"/>
<path d="M255.072 46.812L255.072 64.195C254.41 71.4488 249.695 75.0728 240.929 75.0666L233.319 75.0666C223.89 75.0666 219.178 70.8273 219.185 62.3491L219.185 46.3761L233.319 46.3761L233.319 59.854C233.319 61.7092 234.247 62.6368 236.149 62.6368L238.098 62.6368C239.954 62.6368 240.929 61.7092 240.929 59.854L240.929 50.5781C240.936 50.0234 240.824 49.4736 240.6 48.9661C240.376 48.4587 240.045 48.0057 239.629 47.6377L223.314 34.8184C222.026 33.8127 220.984 32.5261 220.268 31.0568C219.552 29.5875 219.182 27.9745 219.185 26.3403L219.185 13.725C219.185 5.24684 223.896 1.00779 233.319 1.00779L240.929 1.00779C250.357 1.00779 255.072 5.24684 255.072 13.725L255.072 26.3403L240.929 26.3403L240.929 16.5542C240.929 14.699 240.001 13.7714 238.098 13.7714L236.149 13.7714C234.293 13.7714 233.319 14.699 233.319 16.5542L233.319 22.5464C233.308 23.0967 233.431 23.6413 233.677 24.1339C233.922 24.6265 234.283 25.0526 234.729 25.3756L250.933 38.204C252.26 39.2044 253.329 40.508 254.049 42.0056C254.769 43.5032 255.12 45.1512 255.072 46.812Z" stroke="#A57F2D" stroke-width="2.66629"/>
</svg>
