<svg width="76" height="256" viewBox="0 0 76 256" fill="none" xmlns="http://www.w3.org/2000/svg">
<g clip-path="url(#clip0_1_620)">
<path d="M74.9551 36.9268H45.8196C24.6644 36.9268 9.70222 33.3352 0.933411 26.1522V11.6932C9.69603 4.51639 24.6582 0.928101 45.8196 0.928101H74.9551V15.0621H47.5633C41.788 15.0251 36.0163 15.3537 30.2825 16.0459C25.5762 16.5916 20.9226 17.5228 16.3686 18.83C24.6242 21.4471 35.0223 22.7525 47.5633 22.7463H74.9551V36.9268Z" stroke="#A57F2D" stroke-width="2.66629"/>
<path d="M62.2378 83.4679H0.933411V69.3246H20.9323V61.7147H0.933411V47.5807H35.0594V69.3246H59.2975C61.2516 69.3246 62.2317 68.3966 62.2378 66.5405V64.5822C62.2378 62.7261 61.2578 61.7828 59.2975 61.7519H36.3675V47.6178H62.2378C70.716 47.6178 74.9551 52.3292 74.9551 61.7519V69.3618C74.9551 78.7659 70.716 83.4679 62.2378 83.4679Z" stroke="#A57F2D" stroke-width="2.66629"/>
<path d="M15.4967 120.877H0.933411V95.0963H75.0572V109.24H15.4967V120.877Z" stroke="#A57F2D" stroke-width="2.66629"/>
<path d="M13.6508 168.18C5.17268 168.18 0.933411 163.468 0.933411 154.045V146.324C0.933411 136.895 5.17268 132.181 13.6508 132.181H74.9551V146.324H16.146C14.1857 146.324 13.2087 147.252 13.2149 149.108V151.215C13.2149 153.071 14.1919 154.015 16.146 154.045H74.9551V168.18H13.6508Z" stroke="#A57F2D" stroke-width="2.66629"/>
<path d="M45.9308 179.706V207.649H31.8036V193.84H15.107V207.649H0.979858V179.706H45.9308ZM74.9551 179.706V208.846H62.2379V193.84H47.3407V179.706H74.9551Z" stroke="#A57F2D" stroke-width="2.66629"/>
<path d="M29.188 255.072H11.805C4.55121 254.41 0.927235 249.695 0.933419 240.929V233.319C0.933419 223.89 5.17269 219.178 13.6509 219.185H29.6239V233.319H16.146C14.2908 233.319 13.3632 234.247 13.3632 236.149V238.098C13.3632 239.954 14.2908 240.929 16.146 240.929H25.4219C25.9766 240.936 26.5264 240.824 27.0339 240.6C27.5413 240.376 27.9943 240.045 28.3623 239.629L41.1816 223.314C42.1873 222.026 43.4739 220.984 44.9432 220.268C46.4125 219.552 48.0255 219.182 49.6597 219.185H62.275C70.7532 219.185 74.9922 223.896 74.9922 233.319V240.929C74.9922 250.357 70.7532 255.072 62.275 255.072H49.6597V240.929H59.4458C61.301 240.929 62.2286 240.001 62.2286 238.098V236.149C62.2286 234.293 61.301 233.319 59.4458 233.319H53.4536C52.9033 233.308 52.3587 233.431 51.8661 233.677C51.3735 233.922 50.9474 234.283 50.6244 234.729L37.796 250.933C36.7956 252.26 35.492 253.329 33.9944 254.049C32.4968 254.769 30.8488 255.119 29.188 255.072Z" stroke="#A57F2D" stroke-width="2.66629"/>
</g>
<defs>
<clipPath id="clip0_1_620">
<rect width="76" height="256" fill="white"/>
</clipPath>
</defs>
</svg>
