<svg width="75" height="228" viewBox="0 0 75 228" fill="none" xmlns="http://www.w3.org/2000/svg">
<g clip-path="url(#clip0_1_471)">
<path d="M73.974 36.245H45.2178C24.3319 36.245 9.56474 32.7198 0.916214 25.6694V11.4774C9.57084 4.43304 24.338 0.910889 45.2178 0.910889H73.974V14.784H46.9206C41.2205 14.7476 35.5238 15.0702 29.8646 15.7496C25.2197 16.2852 20.6267 17.1992 16.132 18.4823C24.28 21.0511 34.5429 22.3324 46.9206 22.3263H73.9557L73.974 36.245Z" stroke="#A57F2D" stroke-width="2.66666"/>
<path d="M0.916214 60.8941V47.021H73.974V60.8941H0.916214Z" stroke="#A57F2D" stroke-width="2.66666"/>
<path d="M28.8118 107.223H11.646C4.48669 106.573 0.910118 101.946 0.916222 93.3405V85.8712C0.916222 76.6224 5.10007 71.9981 13.4678 71.9981H29.2421V85.8712H15.9306C14.0996 85.8712 13.1841 86.7821 13.1841 88.6039V90.5259C13.1841 92.3477 14.0996 93.2586 15.9306 93.2586H25.0857C25.6334 93.2679 26.1766 93.1587 26.6777 92.9385C27.1788 92.7183 27.6258 92.3924 27.9878 91.9833L40.6494 75.9696C41.6212 74.7051 42.8748 73.6823 44.3114 72.9818C45.7647 72.274 47.3625 71.9093 48.9805 71.9161H61.4223C69.79 71.9161 73.974 76.5405 73.974 85.7892V93.2586C73.974 102.513 69.79 107.141 61.4223 107.141H48.9805V93.2586H58.63C60.4611 93.2586 61.3766 92.3477 61.3766 90.5259V88.6039C61.4207 88.2344 61.3801 87.8598 61.2577 87.5083C61.1352 87.1567 60.9342 86.8373 60.6698 86.5742C60.4054 86.3112 60.0845 86.1113 59.7312 85.9895C59.3778 85.8677 59.0013 85.8272 58.63 85.8712H52.7341C52.1977 85.8685 51.6685 85.9936 51.1907 86.2361C50.7129 86.4786 50.3003 86.8313 49.9876 87.2649L37.3261 103.169C36.3354 104.472 35.0455 105.52 33.5641 106.226C32.0828 106.931 30.4532 107.273 28.8118 107.223Z" stroke="#A57F2D" stroke-width="2.66666"/>
<path d="M0.916214 131.981V118.108H73.974V131.981H0.916214Z" stroke="#A57F2D" stroke-width="2.66666"/>
<path d="M61.4223 178.838H13.4678C5.10006 178.838 0.916214 174.214 0.916214 164.965V157.496C0.916214 148.241 5.10006 143.614 13.4678 143.614H61.4223C69.79 143.614 73.974 148.241 73.974 157.496V164.965C73.974 174.214 69.79 178.838 61.4223 178.838ZM15.9306 165.002H58.63C59.0013 165.046 59.3778 165.005 59.7312 164.883C60.0845 164.762 60.4054 164.562 60.6698 164.298C60.9342 164.035 61.1352 163.716 61.2576 163.365C61.3801 163.013 61.4207 162.638 61.3766 162.269V160.347C61.3766 158.525 60.461 157.614 58.63 157.614H15.9306C14.0996 157.614 13.1841 158.525 13.1841 160.347V162.269C13.1597 164.091 14.0752 165.002 15.9306 165.002Z" stroke="#A57F2D" stroke-width="2.66666"/>
<path d="M74.0838 227.089H0.916214V211.285L32.1351 203.925H0.916214V190.052H74.0838V205.537L41.4642 213.216H74.0838V227.089Z" stroke="#A57F2D" stroke-width="2.66666"/>
</g>
<defs>
<clipPath id="clip0_1_471">
<rect width="75" height="228" fill="white"/>
</clipPath>
</defs>
</svg>
