<svg width="731" height="422" viewBox="0 0 731 422" fill="none" xmlns="http://www.w3.org/2000/svg">
<g clip-path="url(#clip0_12_25)">
<path d="M699.982 0.00771265L700.166 19.9017C700.166 19.9017 718.99 15.4382 730.983 21.842C730.983 21.842 720.032 -0.245372 699.982 0.00771265Z" fill="#A57F2D"/>
<path d="M700.244 0.0497903L699.571 0.0610962L700.867 77.5172L701.541 77.5059L700.244 0.0497903Z" fill="#072541"/>
<mask id="mask0_12_25" style="mask-type:luminance" maskUnits="userSpaceOnUse" x="-13" y="72" width="723" height="349">
<path style="mix-blend-mode:multiply" d="M241.142 420.842L531.933 293.118L276.647 269.351L648.173 147.779L488.295 135.945L709.019 72.7581L426.614 144.343L576.62 155.103L93.8938 288.379L327.821 302.958L-12.903 420.842H241.142Z" fill="url(#paint0_linear_12_25)"/>
</mask>
<g mask="url(#mask0_12_25)">
<path d="M241.142 420.85L531.933 293.118L276.647 269.351L648.173 147.779L488.295 135.945L709.019 72.7581L426.614 144.343L576.612 155.103L93.8938 288.379L344.133 298.134L3.40942 416.026L241.142 420.85Z" fill="url(#paint1_linear_12_25)"/>
</g>
<mask id="mask1_12_25" style="mask-type:luminance" maskUnits="userSpaceOnUse" x="-13" y="72" width="723" height="349">
<path style="mix-blend-mode:multiply" d="M241.142 420.842L531.933 293.118L276.647 269.351L648.173 147.779L488.295 135.945L709.019 72.7581L426.614 144.343L576.62 155.103L93.8938 288.379L327.821 302.958L-12.903 420.842H241.142Z" fill="url(#paint2_linear_12_25)"/>
</mask>
<g mask="url(#mask1_12_25)">
<path d="M241.142 420.85L531.933 293.118L276.647 269.351L648.173 147.779L488.295 135.945L709.019 72.7581L426.614 144.343L576.612 155.103L93.8938 288.379L327.82 302.958L0.0167236 416.378L241.142 420.85Z" fill="#A57F2D"/>
</g>
<path d="M709.019 72.7581L693.564 155.693L720.606 225.131L698.42 320.958L710.206 420.85H241.142L531.933 293.118L281.058 269.428L648.173 147.779L488.295 135.945L709.019 72.7581Z" fill="#072541"/>
<path d="M426.614 144.343V196.517L576.612 155.103L426.614 144.343Z" fill="#072541"/>
<path d="M93.8938 288.379V384.344L327.821 302.958L93.8938 288.379Z" fill="#072541"/>
<path d="M648.173 147.779V355.071L641.694 157.825L285.171 269.497L648.173 147.779Z" fill="#174171"/>
<path d="M531.933 293.118V408.962L524.336 303.702L241.142 420.85L531.933 293.118Z" fill="#174171"/>
<path d="M488.295 135.945L704.401 77.0912L685.094 180.841L693.112 165.103L715.889 224.026L694.736 321.142L703.329 366.36L698.42 320.958L720.606 225.131L693.564 155.693L709.019 72.7581L488.295 135.945Z" fill="#174171"/>
<path d="M17.9911 170.694L120.515 153.998L121.418 160.272C121.418 160.272 99.293 171.546 82.8886 172.328L42.4598 184.514C42.4598 184.514 23.5358 176.316 17.9911 170.694Z" fill="#081E30"/>
<path d="M69.6931 148.316L43.1337 150.616C42.3223 150.688 41.5147 150.442 40.8806 149.93C40.2464 149.418 39.8352 148.68 39.7334 147.871C39.6324 147.068 39.843 146.256 40.3218 145.604C40.8006 144.952 41.511 144.509 42.3066 144.366L68.621 139.68L69.6931 148.316Z" fill="#072541"/>
<mask id="mask2_12_25" style="mask-type:luminance" maskUnits="userSpaceOnUse" x="39" y="139" width="31" height="12">
<path d="M69.6931 148.316L43.1337 150.616C42.3223 150.688 41.5147 150.442 40.8806 149.93C40.2464 149.418 39.8352 148.68 39.7334 147.871C39.6324 147.068 39.843 146.256 40.3218 145.604C40.8006 144.952 41.511 144.509 42.3066 144.366L68.621 139.68L69.6931 148.316Z" fill="white"/>
</mask>
<g mask="url(#mask2_12_25)">
<path d="M40.3231 145.048L66.4766 140.723L67.1965 139.365L41.9696 144.174C41.6501 144.2 41.3393 144.291 41.0561 144.441C40.773 144.591 40.5235 144.798 40.3231 145.048Z" fill="#174171"/>
</g>
<path d="M125.209 127.915L124.933 127.977L70.6428 137.655C69.1079 137.937 67.7382 138.795 66.8131 140.053C65.8881 141.311 65.4774 142.876 65.6648 144.427C65.8695 145.974 66.655 147.385 67.8615 148.372C69.068 149.359 70.6047 149.849 72.1592 149.742L127.162 145.654H127.445C130.065 145.317 131.696 141.053 131.075 136.206C130.455 131.359 127.828 127.586 125.209 127.915Z" fill="#072541"/>
<mask id="mask3_12_25" style="mask-type:luminance" maskUnits="userSpaceOnUse" x="65" y="127" width="67" height="23">
<path d="M125.209 127.915L124.933 127.977L70.6428 137.655C69.1079 137.937 67.7382 138.794 66.8131 140.053C65.8881 141.311 65.4774 142.876 65.6648 144.427C65.8695 145.974 66.655 147.385 67.8615 148.372C69.068 149.359 70.6047 149.849 72.1592 149.742L127.162 145.654H127.445C130.065 145.317 131.696 141.053 131.075 136.206C130.455 131.359 127.828 127.586 125.209 127.915Z" fill="white"/>
</mask>
<g mask="url(#mask3_12_25)">
<path d="M66.4766 140.723L130.807 130.952C130.807 130.952 127.353 126.612 125.355 126.658L68.3376 137.395C68.3376 137.395 66.2315 139.68 66.4766 140.723Z" fill="#174171"/>
</g>
<path d="M66.8136 140.01C65.2206 143.162 65.5729 145.984 68.0619 148.523C67.3808 148.079 66.8019 147.495 66.3635 146.809C65.9251 146.124 65.6373 145.353 65.5193 144.548C65.4012 143.743 65.4556 142.922 65.6787 142.139C65.9019 141.357 66.2887 140.631 66.8136 140.01Z" fill="#0A1C2B"/>
<path d="M19.8061 240.622L11.3818 411.432L23.0686 411.301C23.0686 411.301 46.6336 303.932 48.4793 240.116L19.8061 240.622Z" fill="#072541"/>
<path d="M35.0541 239.549L75.7969 410.864H87.4454C87.4454 410.864 79.7104 301.056 63.5817 239.073L35.0541 239.549Z" fill="#072541"/>
<path d="M40.4302 140.876L21.6288 143.024L24.225 153.523L22.2185 176.14L34.6405 177.175L35.2838 161.591C38.2399 162.304 42.3142 162.496 42.0691 160.341L41.4871 155.249L43.3021 154.957C43.3784 154.946 43.451 154.917 43.5145 154.873C43.5779 154.829 43.6305 154.771 43.6682 154.704C43.7059 154.637 43.7277 154.562 43.7319 154.484C43.7362 154.407 43.7228 154.33 43.6927 154.259L41.3952 148.722L40.4302 140.876Z" fill="#F9F9F9"/>
<path d="M40.5911 142.126L34.9315 143.453C34.9315 143.453 35.2761 149.849 33.8287 150.816C32.3812 151.782 24.225 153.523 24.225 153.523C24.225 153.523 18.9943 143.875 19.4691 140.876C19.944 137.878 22.5325 135.608 27.5794 135.055C31.5356 134.753 35.5091 134.753 39.4653 135.055C39.4653 135.055 43.3481 138.146 40.5911 142.126Z" fill="#072541"/>
<path d="M35.8199 148.454C35.368 149.22 33.9972 149.282 32.7565 148.561C31.5159 147.84 30.8572 146.628 31.3091 145.846C31.7609 145.064 33.1318 145.018 34.3725 145.739C35.6131 146.46 36.2717 147.679 35.8199 148.454Z" fill="#F9F9F9"/>
<path d="M47.1774 172.872L79.0288 184.445C79.0288 184.445 83.9761 168.708 95.5557 150.049L101.269 151.237L89.628 197.054C89.4147 197.984 89.014 198.861 88.4504 199.631C87.8867 200.402 87.1721 201.048 86.3502 201.532C85.0068 202.323 83.4387 202.644 81.893 202.445L54.3993 196.754L47.1774 172.872Z" fill="#072541"/>
<path d="M56.7044 181.431C54.338 175.25 35.0847 166.331 35.0847 166.331H21.6288L18.956 168.892C15.4399 172.274 13.3053 176.845 12.9671 181.715L19.4385 229.333L11.4125 261.207C23.7502 267.657 33.4841 268.477 39.9018 268.109C55.0426 267.342 72.1898 258.906 72.9633 258.661C72.9633 258.661 59.0785 187.613 56.7044 181.431Z" fill="#072541"/>
<path d="M85.1248 410.044L90.6619 415.412L98.1518 417.866C100.388 418.596 102.312 420.061 103.612 422.023H82.9958L81.579 419.891L79.9631 422.023H76.7159C75.9194 418.078 75.9194 414.012 76.7159 410.067H85.1402L85.1248 410.044Z" fill="#072541"/>
<path d="M21.3531 410.044L26.8825 415.412L34.3801 417.866C36.6153 418.597 38.539 420.062 39.8406 422.023H19.2241L17.8073 419.891L16.1837 422.023H12.9442C12.1477 418.078 12.1477 414.012 12.9442 410.067H21.3684L21.3531 410.044Z" fill="#072541"/>
<path d="M96.6814 150.286L95.4867 147.986L97.7842 147.817L99.7448 146.145L100.38 145.478C100.933 144.89 101.619 144.443 102.38 144.176C103.141 143.909 103.955 143.83 104.753 143.944L103.781 147.48L100.534 151.069L96.6814 150.286Z" fill="#F9F9F9"/>
<path d="M18.6343 264.489C18.6343 264.489 27.7402 267.871 36.0343 268.201C36.0343 268.201 26.0247 269.735 18.5195 266.767L18.6343 264.489Z" fill="#174171"/>
<path d="M60.6638 198.051L50.6466 196.087L61.131 200.213L60.6638 198.051Z" fill="#174171"/>
<path d="M120.629 154.643L124.818 152.073L132.569 151.084C132.466 151.483 132.261 151.848 131.973 152.143C131.686 152.438 131.326 152.652 130.93 152.764L126.649 153.975C126.893 154.456 127.005 154.993 126.976 155.532C126.946 156.071 126.775 156.592 126.48 157.043L126.128 157.588C125.706 158.23 125.058 158.69 124.313 158.876L121.326 159.643L120.629 154.643Z" fill="#F9F9F9"/>
<path style="mix-blend-mode:screen" opacity="0.53" d="M699.982 0.00771265L700.166 19.9017C700.166 19.9017 718.99 15.4382 730.983 21.842C730.983 21.842 720.032 -0.245372 699.982 0.00771265Z" fill="url(#paint3_linear_12_25)"/>
</g>
<defs>
<linearGradient id="paint0_linear_12_25" x1="-12.903" y1="246.804" x2="709.019" y2="246.804" gradientUnits="userSpaceOnUse">
<stop/>
<stop offset="0.18" stop-color="#030303"/>
<stop offset="0.31" stop-color="#0C0C0C"/>
<stop offset="0.43" stop-color="#1D1D1D"/>
<stop offset="0.54" stop-color="#333333"/>
<stop offset="0.64" stop-color="#515151"/>
<stop offset="0.74" stop-color="#757575"/>
<stop offset="0.83" stop-color="#A0A0A0"/>
<stop offset="0.92" stop-color="#D0D0D0"/>
<stop offset="1" stop-color="white"/>
</linearGradient>
<linearGradient id="paint1_linear_12_25" x1="3.40942" y1="246.804" x2="709.019" y2="246.804" gradientUnits="userSpaceOnUse">
<stop stop-color="white"/>
<stop offset="0.76" stop-color="#FCFCFC"/>
<stop offset="1" stop-color="#F9F9F9"/>
</linearGradient>
<linearGradient id="paint2_linear_12_25" x1="-12.903" y1="246.804" x2="709.019" y2="246.804" gradientUnits="userSpaceOnUse">
<stop/>
<stop offset="0.18" stop-color="#030303"/>
<stop offset="0.31" stop-color="#0C0C0C"/>
<stop offset="0.43" stop-color="#1D1D1D"/>
<stop offset="0.54" stop-color="#333333"/>
<stop offset="0.64" stop-color="#515151"/>
<stop offset="0.74" stop-color="#757575"/>
<stop offset="0.83" stop-color="#A0A0A0"/>
<stop offset="0.92" stop-color="#D0D0D0"/>
<stop offset="1" stop-color="white"/>
</linearGradient>
<linearGradient id="paint3_linear_12_25" x1="729.735" y1="12.0637" x2="698.029" y2="9.76178" gradientUnits="userSpaceOnUse">
<stop offset="0.16" stop-color="white"/>
<stop offset="0.94"/>
</linearGradient>
<clipPath id="clip0_12_25">
<rect width="731" height="422" fill="white"/>
</clipPath>
</defs>
</svg>
