<svg width="228" height="75" viewBox="0 0 228 75" fill="none" xmlns="http://www.w3.org/2000/svg">
<path d="M36.245 1.02603L36.245 29.7822C36.245 50.6681 32.7198 65.4353 25.6694 74.0838L11.4774 74.0838C4.43305 65.4292 0.910901 50.662 0.9109 29.7822L0.910899 1.02603L14.784 1.02603L14.784 28.0794C14.7476 33.7795 15.0702 39.4762 15.7496 45.1354C16.2852 49.7803 17.1992 54.3733 18.4823 58.868C21.0511 50.72 22.3324 40.4571 22.3263 28.0794L22.3263 1.04436L36.245 1.02603Z" stroke="#A57F2D" stroke-width="2.66666"/>
<path d="M60.8941 74.0838L47.021 74.0838L47.021 1.02603L60.8941 1.02603L60.8941 74.0838Z" stroke="#A57F2D" stroke-width="2.66666"/>
<path d="M107.223 46.1882L107.223 63.354C106.573 70.5133 101.946 74.0899 93.3406 74.0838L85.8712 74.0838C76.6224 74.0838 71.9981 69.8999 71.9981 61.5322L71.9981 45.758L85.8712 45.758L85.8712 59.0694C85.8712 60.9004 86.7821 61.8159 88.6039 61.8159L90.5259 61.8159C92.3477 61.8159 93.2586 60.9004 93.2586 59.0694L93.2586 49.9143C93.2679 49.3666 93.1587 48.8234 92.9385 48.3223C92.7183 47.8212 92.3924 47.3742 91.9833 47.0122L75.9696 34.3506C74.7051 33.3788 73.6823 32.1252 72.9818 30.6886C72.274 29.2353 71.9094 27.6375 71.9161 26.0195L71.9161 13.5777C71.9161 5.20998 76.5405 1.02602 85.7892 1.02602L93.2586 1.02602C102.513 1.02602 107.141 5.20998 107.141 13.5777L107.141 26.0195L93.2586 26.0195L93.2586 16.37C93.2586 14.539 92.3477 13.6235 90.5259 13.6235L88.6039 13.6235C88.2345 13.5793 87.8599 13.62 87.5083 13.7424C87.1567 13.8648 86.8373 14.0658 86.5743 14.3302C86.3112 14.5946 86.1113 14.9155 85.9895 15.2688C85.8677 15.6222 85.8272 15.9987 85.8712 16.37L85.8712 22.2659C85.8685 22.8023 85.9937 23.3315 86.2361 23.8093C86.4786 24.2871 86.8313 24.6997 87.2649 25.0125L103.169 37.6739C104.472 38.6646 105.52 39.9546 106.226 41.4359C106.931 42.9172 107.273 44.5468 107.223 46.1882Z" stroke="#A57F2D" stroke-width="2.66666"/>
<path d="M131.981 74.0838L118.108 74.0838L118.108 1.02603L131.981 1.02603L131.981 74.0838Z" stroke="#A57F2D" stroke-width="2.66666"/>
<path d="M178.838 13.5778L178.838 61.5322C178.838 69.9 174.214 74.0838 164.965 74.0838L157.496 74.0838C148.241 74.0838 143.614 69.9 143.614 61.5322L143.614 13.5778C143.614 5.20999 148.241 1.02603 157.496 1.02603L164.965 1.02603C174.214 1.02603 178.838 5.20999 178.838 13.5778ZM165.002 59.0694L165.002 16.37C165.046 15.9987 165.005 15.6222 164.883 15.2689C164.762 14.9155 164.562 14.5946 164.298 14.3302C164.035 14.0658 163.716 13.8648 163.365 13.7424C163.013 13.62 162.638 13.5793 162.269 13.6235L160.347 13.6235C158.525 13.6235 157.614 14.539 157.614 16.37L157.614 59.0694C157.614 60.9004 158.525 61.8159 160.347 61.8159L162.269 61.8159C164.091 61.8404 165.002 60.9248 165.002 59.0694Z" stroke="#A57F2D" stroke-width="2.66666"/>
<path d="M227.089 0.916176L227.089 74.0838L211.285 74.0838L203.925 42.8649L203.925 74.0838L190.052 74.0838L190.052 0.916178L205.537 0.916177L213.216 33.5358L213.216 0.916177L227.089 0.916176Z" stroke="#A57F2D" stroke-width="2.66666"/>
</svg>
