<svg width="100" height="30" viewBox="0 0 100 30" fill="none" xmlns="http://www.w3.org/2000/svg">
<g clip-path="url(#clip0_150_43)">
<path d="M58.5443 3.17148H61.9082C62.211 3.17148 62.2783 3.22873 62.3568 3.5261C63.0296 6.31675 63.736 9.10748 64.3863 11.8981C64.7003 13.2363 64.9357 14.5973 65.1824 15.9469C65.6758 18.6118 66.3037 21.2193 67.0101 23.8384C67.0145 23.8802 67.0145 23.9225 67.0101 23.9643C67.0886 24.2503 67.0102 24.3645 66.7186 24.3645H63.6799C63.052 24.3645 62.424 24.3645 61.7849 24.3645C61.5934 24.3799 61.4023 24.33 61.2419 24.2223C61.0815 24.1146 60.9609 23.9552 60.8991 23.7697C60.5535 22.9885 60.3048 22.1664 60.159 21.3223C60.1152 20.8365 59.8979 20.3841 59.5486 20.051C59.1992 19.7178 58.7421 19.5271 58.264 19.5151C57.4454 19.4236 56.6157 19.4009 55.786 19.3895C55.3337 19.3664 54.8873 19.5026 54.5218 19.7754C54.1564 20.0482 53.894 20.4408 53.7788 20.8875C53.4536 21.8597 53.2181 22.8663 52.9378 23.8613C52.9206 23.9465 52.8982 24.0305 52.8705 24.1129C52.855 24.1824 52.8164 24.2444 52.7612 24.2882C52.7061 24.332 52.6377 24.3548 52.5678 24.353H50.9532C50.7625 24.353 50.6952 24.2615 50.7289 24.0213C50.8634 23.072 50.9644 22.1228 51.155 21.1964C51.5587 19.2177 52.0071 17.2506 52.4444 15.2835C52.9827 12.9274 53.5171 10.5676 54.0479 8.20397C54.3716 6.66327 54.6112 5.10534 54.7655 3.53755C54.7655 3.19443 54.844 3.16003 55.1804 3.16003L58.5443 3.17148ZM56.6718 16.896H57.9613C58.0944 16.9084 58.2284 16.8869 58.3513 16.8335C58.4743 16.78 58.5823 16.6963 58.6657 16.5897C58.749 16.4831 58.8051 16.3569 58.829 16.2228C58.8528 16.0886 58.8437 15.9506 58.8023 15.821C58.365 13.8995 57.9388 11.9666 57.5015 10.0337C57.4724 9.84168 57.3777 9.66635 57.2341 9.53867C57.0904 9.411 56.9071 9.33935 56.7166 9.33623C56.5228 9.33625 56.3354 9.40618 56.1876 9.53393C56.0397 9.66167 55.9411 9.8388 55.9093 10.0337C55.8196 10.4112 55.7298 10.8 55.6513 11.1774C55.2925 12.6986 54.9449 14.2197 54.53 15.7523C54.478 15.8896 54.462 16.0385 54.4836 16.184C54.5051 16.3295 54.5635 16.4667 54.653 16.5821C54.7424 16.6976 54.8598 16.7873 54.9936 16.8424C55.1274 16.8974 55.273 16.9158 55.4159 16.896H56.6718Z" fill="#ED2224"/>
<path d="M22.2253 24.3644H18.9399C18.5587 24.3644 18.4241 24.2615 18.3344 23.8955C17.5719 20.6703 16.8095 17.4451 16.0918 14.2198C15.9124 13.4535 15.8563 12.6529 15.7106 11.8637C15.4863 10.72 15.2509 9.48464 14.9817 8.29518C14.6229 6.70543 14.2305 5.10431 13.8604 3.51456C13.7932 3.22863 13.8604 3.17139 14.1296 3.17139H19.9491C20.2182 3.17139 20.2855 3.1714 20.3303 3.46876C20.891 6.54534 21.6198 9.57617 22.3263 12.6184C22.5281 13.4991 22.6738 14.3913 22.8645 15.2834C23.0443 16.0081 23.3358 16.6991 23.7279 17.3307C23.8961 17.6051 24.0979 17.6166 24.3446 17.3879C25.1734 16.6512 25.7082 15.6296 25.8472 14.5172C26.1051 12.6072 26.3181 10.6857 26.5872 8.79863C26.8227 7.0945 27.0918 5.36728 27.3609 3.7089C27.4394 3.19423 27.4506 3.19428 27.9664 3.19428H30.052C30.2987 3.19428 30.2875 3.19424 30.2539 3.43442C29.8046 6.56987 29.1869 9.67797 28.4037 12.7444C27.8318 15.2262 27.2824 17.6966 26.7105 20.1899C26.4526 21.4137 26.2956 22.6603 26.0938 23.8955C26.0377 24.273 25.9256 24.3873 25.5332 24.3873L22.2253 24.3644Z" fill="#ED2224"/>
<path d="M42.8461 15.6266C42.8461 12.8893 42.8461 10.1595 42.8461 7.43744C42.8554 7.19369 42.8024 6.95174 42.6923 6.73519C42.5822 6.51864 42.4188 6.33512 42.2181 6.20243C41.7921 5.85483 41.2611 5.66891 40.7156 5.67636H38.6636C38.3609 5.67636 38.2823 5.6191 38.2823 5.3103V3.40011C38.2823 3.10275 38.2824 3.04578 38.6412 3.04578H53.7339C53.9806 3.04578 54.003 3.04577 53.947 3.32026L53.5096 5.26451C53.4536 5.539 53.3975 5.58478 53.1172 5.58478C52.1753 5.58478 51.2334 5.58478 50.2915 5.58478C50.1497 5.57712 50.008 5.6029 49.8777 5.66045C49.7473 5.71799 49.6319 5.80579 49.5403 5.9165C49.2824 6.23674 49.002 6.55679 48.7329 6.86559C48.5304 7.13283 48.4307 7.46648 48.4526 7.80351V14.1054C48.4526 17.3878 48.4526 20.6704 48.4526 23.9643C48.4526 24.2845 48.4525 24.3301 48.0825 24.3301H43.1937C42.846 24.3301 42.8237 24.3302 42.8237 23.9528V15.6037L42.8461 15.6266Z" fill="#ED2224"/>
<path d="M68.1987 13.4762V3.18281C68.197 3.16135 68.2 3.13992 68.2073 3.11971C68.2146 3.0995 68.226 3.08105 68.2409 3.06582C68.2559 3.05059 68.2739 3.03891 68.2937 3.03147C68.3135 3.02404 68.3347 3.02109 68.3557 3.02282H73.0652C73.3231 3.02282 73.3343 3.02282 73.3343 3.30875V19.2405C73.3148 19.739 73.3755 20.2374 73.5137 20.716C73.5679 20.955 73.6854 21.1743 73.8535 21.3498C74.0216 21.5253 74.2338 21.6501 74.4668 21.7109C74.6155 21.7334 74.7667 21.7334 74.9154 21.7109H81.6432C81.677 21.709 81.7108 21.7149 81.7423 21.7276C81.7737 21.7404 81.8022 21.7599 81.8256 21.7849C81.849 21.8098 81.8669 21.8396 81.878 21.8722C81.8891 21.9049 81.8931 21.9398 81.8898 21.9742C81.8898 22.6261 81.8898 23.2894 81.8898 23.9528C81.8929 23.9942 81.8876 24.036 81.8745 24.0753C81.8613 24.1147 81.8405 24.1507 81.8133 24.1817C81.7861 24.2127 81.753 24.2378 81.716 24.2554C81.6791 24.2731 81.639 24.2828 81.5983 24.2842H68.6921C68.5767 24.2703 68.4692 24.2181 68.386 24.1354C68.3029 24.0526 68.2489 23.9441 68.2324 23.8268C68.2213 23.7242 68.2213 23.6206 68.2324 23.518L68.1987 13.4762Z" fill="#ED2224"/>
<path d="M31.4761 13.7736V3.48023C31.4761 3.13711 31.4761 3.12561 31.8237 3.12561H36.6789C36.9593 3.12561 36.9929 3.12564 36.9929 3.44588V24.0327C36.9929 24.3186 36.9929 24.3644 36.6789 24.3644H31.7901C31.5097 24.3644 31.4761 24.3643 31.4761 24.0441V13.7736Z" fill="#ED2224"/>
<path d="M84.4464 15.1804C84.7642 15.2967 85.0545 15.4799 85.2985 15.7179C85.7293 16.1236 86.0697 16.619 86.2965 17.1705C86.6749 18.0548 86.9025 18.9988 86.9693 19.9613C87.0153 20.6579 86.9139 21.3563 86.672 22.0094C86.4302 22.6626 86.0536 23.2551 85.5677 23.7468C84.8975 24.4837 84.0941 25.0818 83.2017 25.5082C82.6197 25.7582 81.9944 25.8866 81.3628 25.8857C79.5575 25.8857 77.7522 25.9658 75.9469 25.9658H24.8829C23.6607 25.9658 22.4385 25.9658 21.2275 25.9658C19.8452 25.9204 18.4705 25.7363 17.1235 25.4166C16.4943 25.2813 15.9222 24.9497 15.4864 24.4675C15.0491 23.9642 14.5557 23.5182 14.1184 23.0149C13.7401 22.604 13.4432 22.1225 13.2438 21.5968C12.9908 20.941 12.9475 20.2203 13.1204 19.538C13.3652 18.4543 13.7981 17.424 14.3987 16.4959C14.4036 16.5223 14.4036 16.5493 14.3987 16.5757C14.4009 16.6024 14.4009 16.6292 14.3987 16.6559C14.0005 17.4539 13.6776 18.2887 13.4344 19.1491C13.2663 19.8362 13.2663 20.555 13.4344 21.2421C13.5424 21.727 13.7881 22.1687 14.1408 22.5118C14.7688 23.1751 15.3967 23.8156 16.0471 24.456C16.4045 24.7525 16.8352 24.9424 17.2917 25.005C18.6418 25.317 20.0225 25.4704 21.4068 25.4624C37.9049 25.4624 54.4068 25.4624 70.9123 25.4624H81.3067C82.0914 25.4714 82.8647 25.2702 83.5493 24.8791C84.3457 24.457 85.0662 23.9002 85.6798 23.2322C86.463 22.3133 86.8651 21.1199 86.8011 19.9041C86.7466 18.9176 86.5187 17.9491 86.1284 17.0448C85.8073 16.3304 85.294 15.7235 84.6482 15.2949L84.4464 15.1804Z" fill="#ED2224"/>
</g>
<defs>
<clipPath id="clip0_150_43">
<rect width="74" height="23" fill="white" transform="translate(13 3)"/>
</clipPath>
</defs>
</svg>
