<svg width="100" height="30" viewBox="0 0 100 30" fill="none" xmlns="http://www.w3.org/2000/svg">
<g clip-path="url(#clip0_150_47)">
<path fill-rule="evenodd" clip-rule="evenodd" d="M31.1201 4.57491C30.6606 4.57123 30.2182 4.75419 29.8895 5.08396C29.5609 5.41372 29.3725 5.8636 29.3654 6.3354C29.3671 6.56894 29.414 6.79963 29.5035 7.01435C29.593 7.22907 29.7231 7.42328 29.8864 7.58585C30.0497 7.74841 30.2429 7.87609 30.4547 7.96125C30.6665 8.0464 30.8927 8.08761 31.1201 8.08213C31.5702 8.07853 32.0009 7.89316 32.3191 7.56637C32.6374 7.23958 32.8177 6.79755 32.8212 6.3354C32.8177 5.87197 32.6379 5.42806 32.32 5.09907C32.0021 4.77008 31.5714 4.58209 31.1201 4.57491ZM19.8685 4.57491C19.416 4.58201 18.9839 4.76977 18.6639 5.09839C18.3438 5.42702 18.1609 5.87072 18.154 6.3354C18.1576 6.79992 18.3398 7.24423 18.6609 7.57141C18.9821 7.89859 19.4161 8.08214 19.8685 8.08213C20.0959 8.08761 20.3221 8.0464 20.5339 7.96125C20.7457 7.87609 20.9389 7.74841 21.1022 7.58585C21.2655 7.42328 21.3957 7.22907 21.4851 7.01435C21.5746 6.79963 21.6215 6.56894 21.6232 6.3354C21.6162 5.86599 21.4296 5.41804 21.1038 5.08866C20.778 4.75928 20.3391 4.57486 19.8819 4.57491H19.8685ZM87.378 18.6585L89.0389 10.6126H84.3507L81.8861 22.5509H93.2583L93.995 18.6585H87.378ZM80.4528 11.3828L80.6002 10.6126H67.8618L65.4642 22.5509H78.3231L79.1134 18.6585H70.956L71.4382 16.4165H78.1356L78.8321 13.1296H72.1214L72.5098 11.3828H80.4528ZM39.974 18.7136L41.568 10.6126H36.8798L34.4286 22.5509H45.6132L46.3767 18.6585L39.974 18.7136ZM31.6961 10.6126H18.5425C17.7862 11.8049 17.277 13.1444 17.0466 14.5476C16.8161 15.9507 16.8694 17.3876 17.203 18.7686C17.5418 19.7572 18.1227 20.6393 18.8898 21.3306C19.6569 22.0219 20.5845 22.499 21.5831 22.7157C24.7308 23.2659 28.2805 22.8259 30.3834 20.144C31.383 18.8058 32.0291 17.2251 32.259 15.5552C32.489 13.8854 32.2951 12.1828 31.6961 10.6126ZM26.6328 17.5719C26.1127 18.3854 25.3146 18.9693 24.3959 19.2085C23.951 19.3123 23.4861 19.2788 23.0596 19.1125C22.633 18.9461 22.2639 18.6543 21.9983 18.2734C21.618 17.1561 21.5418 15.9535 21.7778 14.795C22.0139 13.6366 22.5532 12.5662 23.3378 11.6991C23.8036 11.2919 24.3807 11.0429 24.99 10.9863C25.5992 10.9296 26.2106 11.0681 26.74 11.3828C28.2938 13.0195 27.4366 15.8115 26.5793 17.5719H26.6328ZM9.67515 10.6126L7.38462 15.5364L6.79525 10.6126H2.37501L3.71448 22.5509H9.20637L14.8187 10.6126H9.67515ZM59.3294 13.3633L62.6379 10.6126H56.771L55.3377 11.823L55.5922 10.5575H50.8505L48.4529 22.5509H53.1946L54.0519 18.0121L55.6994 16.6368L58.5793 22.6056H63.5889L59.3294 13.3633ZM37.1879 9.03104L37.0406 9.69118H41.7287L41.8894 9.08611L37.1879 9.03104ZM30.6379 9.03104H19.9221L19.3194 9.69118H31.2139C31.0628 9.44871 30.8496 9.25373 30.5977 9.12741L30.6379 9.03104ZM84.6588 9.03104L84.4981 9.74625H89.1996L89.3604 9.03104H84.6588ZM68.1833 9.03104L68.0761 9.69118H80.7744L80.9351 9.03104H68.1833ZM58.4721 9.03104L57.7354 9.69118H63.6425L64.3926 8.97597L58.4721 9.03104ZM51.1586 9.03104L51.0649 9.69118H55.7664L55.9138 9.03104H51.1586ZM10.4253 9.03104L10.1038 9.63611H15.2206L15.542 8.97597L10.4253 9.03104ZM6.58097 9.03104H2.14732L2.2545 9.69118H6.68815L6.58097 9.03104ZM68.5048 7.50425L68.344 8.21946H81.0824L81.2566 7.44918L68.5048 7.50425ZM37.5093 7.50425L37.362 8.21946H42.0502L42.1975 7.50425H37.5093ZM84.9267 7.50425L84.7794 8.21946H89.4675L89.6149 7.44918L84.9267 7.50425ZM60.3474 7.50425L59.4901 8.21946H65.424L66.2143 7.50425H60.3474ZM51.4934 7.50425L51.3327 8.21946H56.0209L56.1816 7.50425H51.4934ZM6.47379 7.50425H2L2.1071 8.21946H6.52742L6.47379 7.50425ZM21.4089 8.21946H29.5127C27.9188 7.05041 22.9092 6.94043 21.4089 8.26076V8.21946ZM14.7116 -0.0326468L10.8137 8.21946H15.8635L18.8773 1.90681H97.29L97.6651 -0.0601807L14.7116 -0.0326468Z" fill="#231F20"/>
<path fill-rule="evenodd" clip-rule="evenodd" d="M73.4608 27.103C73.4608 26.9654 73.5947 26.8968 73.8626 26.8968C73.9542 26.8672 74.0524 26.8672 74.1439 26.8968C74.1871 26.9205 74.2226 26.9563 74.2464 27.0002C74.2701 27.0441 74.281 27.0941 74.2778 27.1443H75.3762C75.3762 26.4978 75.0413 25.9892 74.0367 25.9892C73.0321 25.9892 72.4294 26.3741 72.3088 27.158C72.0677 28.5334 74.1573 28.1485 74.077 28.7123C74.077 28.8774 73.8224 28.9736 73.5411 28.9736C73.4333 28.973 73.3274 28.9446 73.2331 28.891C73.1852 28.8579 73.1465 28.8127 73.1207 28.7597C73.0949 28.7067 73.0828 28.6476 73.0857 28.5884H71.974C71.8936 29.2486 72.4026 29.7986 73.3135 29.7986C74.2243 29.7986 75.0413 29.3999 75.1887 28.5609C75.47 27.3093 73.4608 27.6531 73.4608 27.103ZM70.7818 26.154L70.5943 27.3095L70.4872 28.1345L69.5629 26.154H68.4913L67.8618 29.7848H68.9736L69.161 28.6297L69.2682 27.8044L70.1925 29.7848H71.264L71.8936 26.154H70.7818ZM66.1071 26.0577C65.5844 26.0484 65.0763 26.2346 64.6771 26.5812C64.278 26.9278 64.015 27.4113 63.9371 27.9421C63.8611 28.177 63.8441 28.4279 63.8876 28.6714C63.9311 28.9149 64.0337 29.1432 64.1859 29.3352C64.3382 29.5272 64.5351 29.6767 64.7585 29.7697C64.982 29.8628 65.2247 29.8962 65.4642 29.8674C65.9916 29.8733 66.5033 29.6829 66.9046 29.3315C67.306 28.9801 67.5698 28.4915 67.6474 27.9558C67.7122 27.7275 67.7226 27.4864 67.6778 27.253C67.6329 27.0197 67.5341 26.8007 67.3897 26.6147C67.2453 26.4287 67.0595 26.2812 66.8479 26.1843C66.6364 26.0873 66.4053 26.0438 66.174 26.0577H66.1071ZM66.4821 27.9558C66.3883 28.5472 66.1071 28.9873 65.6115 28.9873C65.1159 28.9873 65.0221 28.4097 65.1025 27.9558C65.1828 27.502 65.4374 26.9381 65.9598 26.9381C66.4822 26.9381 66.6429 27.4607 66.5491 27.9558H66.4821ZM62.4637 26.154L61.8342 29.7848H62.9861L63.6157 26.154H62.4637ZM58.6864 26.154L58.539 27.103H59.5705L59.1017 29.8537H60.267L60.7358 27.103H61.7672L61.9279 26.154H58.6864ZM57.0388 26.154L56.6638 28.3272C56.6638 28.7123 56.4361 28.9873 56.0208 28.9873C55.6056 28.9873 55.5252 28.6848 55.5922 28.3272L55.9539 26.154H54.8019L54.4403 28.1895C54.2393 29.4411 54.7751 29.8674 55.8601 29.8674C56.0983 29.9021 56.3409 29.8859 56.5727 29.8194C56.8044 29.753 57.0202 29.6376 57.2064 29.4813C57.3927 29.3249 57.5454 29.1308 57.6549 28.9108C57.7643 28.6908 57.8283 28.4499 57.8426 28.2033L58.2042 26.154H57.0388ZM52.2435 28.9047L52.7124 26.154H51.5604L50.9442 29.7848H53.6232L53.7705 28.946L52.2435 28.9047ZM49.1627 26.0164C48.6378 26.0037 48.1264 26.1883 47.7244 26.5352C47.3224 26.8821 47.0575 27.3676 46.9794 27.9008C46.9003 28.1346 46.8805 28.3852 46.9218 28.6291C46.9632 28.873 47.0643 29.1023 47.2157 29.2949C47.3672 29.4876 47.5639 29.6375 47.7874 29.7304C48.0108 29.8234 48.2537 29.8562 48.493 29.8261C49.0227 29.841 49.539 29.654 49.9423 29.301C50.3455 28.9479 50.607 28.454 50.6763 27.9145C50.7329 27.701 50.7418 27.4773 50.7025 27.2598C50.6632 27.0422 50.5766 26.8365 50.4491 26.658C50.3217 26.4796 50.1567 26.3328 49.9665 26.2289C49.7762 26.125 49.5656 26.0665 49.3503 26.0577L49.1627 26.0164ZM49.5244 27.9145C49.4173 28.5059 49.1493 28.946 48.6537 28.946C48.1581 28.946 48.051 28.3684 48.1314 27.9145C48.2118 27.4607 48.4662 26.8968 48.9886 26.8968C49.511 26.8968 49.7521 27.4607 49.6583 27.9558L49.5244 27.9145ZM44.7425 27.0617C44.7425 26.9241 44.8898 26.8555 45.1443 26.8555C45.2404 26.8257 45.343 26.8257 45.439 26.8555C45.4786 26.8821 45.5106 26.9191 45.5318 26.9626C45.553 27.0061 45.5625 27.0544 45.5595 27.103H46.6579C46.6579 26.4565 46.323 25.9479 45.3184 25.9479C44.3138 25.9479 43.7245 26.3328 43.5906 27.1167C43.3495 28.4921 45.439 28.1072 45.3587 28.671C45.3587 28.8361 45.1175 28.9323 44.8228 28.9323C44.7156 28.9277 44.6106 28.8995 44.5148 28.8497C44.4669 28.8166 44.4282 28.7714 44.4024 28.7184C44.3766 28.6654 44.3645 28.6063 44.3675 28.5471H43.2691C43.1753 29.2073 43.6977 29.7576 44.6086 29.7576C45.5194 29.7576 46.3364 29.3586 46.4838 28.5196C46.8722 27.3093 44.7826 27.6531 44.8764 27.103L44.7425 27.0617ZM39.5989 28.5196H40.1079C40.0445 28.6436 39.9506 28.7483 39.8354 28.8232C39.7202 28.898 39.5878 28.9404 39.4515 28.946C38.8622 28.946 38.7818 28.4922 38.8756 27.9696C38.9693 27.447 39.264 26.8968 39.7195 26.8968C39.7839 26.8912 39.8487 26.899 39.9102 26.9196C39.9716 26.9403 40.0284 26.9734 40.0771 27.017C40.1259 27.0606 40.1656 27.1138 40.1939 27.1735C40.2222 27.2332 40.2385 27.2982 40.2419 27.3645H41.3403C41.3407 27.1755 41.3031 26.9883 41.23 26.8149C41.1569 26.6414 41.0499 26.4852 40.9154 26.3562C40.7809 26.2271 40.6219 26.1279 40.4484 26.0647C40.2749 26.0016 40.0906 25.9759 39.907 25.9892C39.3712 25.9812 38.8514 26.1757 38.4463 26.5358C38.0412 26.896 37.7792 27.3965 37.7103 27.9421C37.6315 28.1572 37.6064 28.3891 37.6374 28.6166C37.6684 28.8442 37.7544 29.0602 37.8877 29.2449C38.0209 29.4295 38.197 29.5769 38.4 29.6737C38.603 29.7704 38.8264 29.8133 39.0497 29.7986C39.2587 29.8084 39.4674 29.7745 39.6631 29.6989C39.8589 29.6232 40.0375 29.5076 40.1882 29.3587V29.7301H40.925L41.2732 27.7084H39.6926L39.5989 28.5196ZM36.3976 26.1127L36.1966 27.2682L36.1029 28.0932L35.1786 26.1127H34.0937L33.4776 29.7439H34.5758L34.7768 28.5884L34.8706 27.7631L35.7948 29.7439H36.8798L37.496 26.1127H36.3976ZM32.2184 26.1127L31.5889 29.7439H32.7542L33.3838 26.1127H32.2184ZM29.9011 26.1127H28.3474L27.7178 29.7439H29.2582C29.5236 29.7702 29.7915 29.7416 30.0461 29.6599C30.3006 29.5782 30.5365 29.445 30.7401 29.2681C30.9436 29.0911 31.1105 28.874 31.231 28.6297C31.3515 28.3855 31.4231 28.1189 31.4415 27.8457C31.7898 26.7042 31.1603 26.154 30.0351 26.154L29.9011 26.1127ZM30.2762 27.9145C30.1556 28.6022 29.8074 28.9047 29.285 28.9047H29.0305L29.352 26.9656H29.5796C30.3297 27.0069 30.5976 27.2131 30.4101 27.9558L30.2762 27.9145ZM26.7132 26.1127H25.5344L23.6458 29.7439H24.771L24.9987 29.2624H26.1506V29.7439H27.3025L26.7132 26.1127ZM25.3737 28.5058L25.9497 27.1993L26.097 28.5058H25.3737ZM23.8065 26.9656L23.9538 26.1127H21.2213L20.5918 29.7439H23.5386L23.686 28.9047H21.8911L21.9983 28.3272H23.4582L23.5922 27.4743H22.1456L22.226 26.9656H23.8065ZM18.8505 26.1127H17.1761L16.56 29.7439H17.7253L17.9262 28.4783H18.2879C18.8237 28.4783 18.8773 28.6295 18.7969 29.0971C18.7722 29.3119 18.7722 29.5291 18.7969 29.7439H19.9756V29.6337C19.8417 29.6337 19.8819 29.4687 19.9756 28.9873C20.0962 28.2584 19.8953 28.176 19.547 28.0384C19.7416 27.982 19.916 27.8686 20.0491 27.7124C20.1823 27.5562 20.2684 27.3635 20.2971 27.158C20.4578 26.5116 20.1364 26.154 18.9576 26.154L18.8505 26.1127ZM18.529 27.6808H18.0736L18.1941 26.9656H18.7299C19.0112 26.9656 19.172 27.0894 19.1318 27.337C19.0916 27.5846 18.9978 27.7218 18.6362 27.7218L18.529 27.6808ZM15.3813 26.1127L15.1803 27.337H14.0819L14.2963 26.1127H13.1845L12.5683 29.7439H13.7203L13.9748 28.3685H15.0598L14.8186 29.7439H15.9706L16.5867 26.1127H15.3813ZM9.40719 26.1127L9.24646 27.0617H10.2779L9.82242 29.8124H10.9878L11.4298 27.0617H12.488L12.6487 26.1127H9.40719Z" fill="#231F20"/>
<path fill-rule="evenodd" clip-rule="evenodd" d="M94.2762 26.1678H97.9999L97.29 29.9776H93.5663L94.2762 26.1678Z" fill="#2AA9E1"/>
<path fill-rule="evenodd" clip-rule="evenodd" d="M86.8154 26.1678H90.5391L89.8292 29.9776H86.1055L86.8154 26.1678Z" fill="#2AA9E1"/>
<path fill-rule="evenodd" clip-rule="evenodd" d="M79.3679 26.1678H83.0916L82.3817 29.9776H78.658L79.3679 26.1678Z" fill="#2AA9E1"/>
</g>
<defs>
<clipPath id="clip0_150_47">
<rect width="96" height="30" fill="white" transform="translate(2)"/>
</clipPath>
</defs>
</svg>
