<svg width="287" height="37" viewBox="0 0 287 37" fill="none" xmlns="http://www.w3.org/2000/svg">
<path d="M99.9072 0.735596C107.318 0.735596 108.115 3.87133 109.037 7.50654C109.31 8.69813 109.677 9.86615 110.135 10.9995C111.708 14.6943 114.981 18.3063 119.847 21.7398C121.602 22.9835 124.376 20.8136 127.592 18.3163C128.349 17.7275 129.129 17.1222 129.906 16.54C134.382 13.262 137.651 12.187 142.107 15.9214C145.449 18.7198 147.562 22.8214 149.796 27.1678C150.249 28.0509 150.712 28.944 151.188 29.8371C151.849 31.0544 153.191 31.9408 155.217 32.4668C159.882 33.6807 166.982 32.5825 169.98 30.8129C174.113 28.3883 176.823 20.8897 176.85 20.807L177.005 20.549C177.375 20.1421 186.086 10.6257 191.219 8.60471C195.877 6.78876 197.768 9.94435 199.599 12.9941C200.075 13.7846 200.571 14.6116 201.14 15.4087C203.642 18.9282 206.528 18.9447 211.318 17.6911C213.506 17.1222 215.794 14.1518 218.213 11.0061C220.795 7.65208 223.72 3.85149 227.261 2.11823C232.953 -0.650351 239.822 6.53406 246.463 13.4869C248.447 15.5642 250.328 17.5257 252.139 19.1928L254.404 21.2998C260.572 27.0553 263.97 30.2307 271.676 31.3554C280.231 32.6123 302.107 24.1974 302.329 24.1114L302.99 25.5569C302.074 25.9075 280.455 34.243 271.424 32.8968C263.16 31.6861 259.428 28.1932 253.22 22.4013L250.962 20.3042C249.115 18.5974 247.22 16.6194 245.217 14.5223C239.29 8.32355 232.58 1.31445 228.061 3.50417C224.874 5.06212 222.193 8.54517 219.598 11.9124C216.891 15.4352 214.547 18.4783 211.787 19.1895C206.597 20.539 202.776 20.5126 199.745 16.2588C199.153 15.4286 198.634 14.5686 198.141 13.745C196.118 10.3777 195.001 8.81972 191.887 10.037C187.408 11.7868 179.415 20.3505 178.416 21.4321C177.993 22.5766 175.253 29.5725 170.903 32.1261C167.544 34.0942 159.941 35.2949 154.781 33.9486C152.275 33.2871 150.563 32.1393 149.694 30.5086C149.214 29.6056 148.752 28.7059 148.292 27.8161C146.133 23.6186 144.091 19.6559 140.996 17.0626C137.691 14.3073 135.456 14.4594 130.974 17.7473C130.19 18.3229 129.423 18.9183 128.66 19.4938C125.047 22.3021 121.632 24.9483 118.812 22.9669C113.688 19.3582 110.218 15.5212 108.542 11.5585C108.052 10.355 107.661 9.11387 107.371 7.84724C106.489 4.37742 105.957 2.28031 99.8808 2.28031C91.7125 2.28031 83.4682 13.4803 81.8253 23.1191C80.1229 33.1085 77.7197 36.1549 71.548 36.1549C65.6705 36.1549 63.2178 33.5087 60.2361 27.8856C59.588 26.6494 59.0674 25.3505 58.6824 24.0089C57.9981 21.8059 57.8791 21.4024 53.8594 21.8026C50.8844 22.0937 49.2315 23.5392 47.4597 25.0673C45.5523 26.7212 43.3871 28.6099 39.4104 28.9705C37.9956 29.0962 36.8618 29.2748 35.923 29.4236C31.4967 30.1249 30.5215 29.814 26.9283 24.0188C22.7532 17.2842 13.223 16.0438 6.9423 19.1101L6.1853 17.7705C13.1536 14.3635 23.7515 15.7693 28.4191 23.2845C31.6851 28.5504 32.0554 28.4942 35.6684 27.9153C36.6403 27.7598 37.8105 27.5845 39.2716 27.4456C42.6797 27.138 44.4515 25.5933 46.3325 23.9626C48.2134 22.3318 50.167 20.6251 53.7107 20.2811C58.689 19.7948 59.446 20.7507 60.322 23.6119C60.6772 24.8638 61.1613 26.0755 61.7666 27.2273C64.54 32.4337 66.5135 34.6069 71.5645 34.6069C76.2288 34.6069 78.4568 32.9795 80.1592 22.8908C81.9707 12.4318 90.7803 0.735596 99.9072 0.735596Z" fill="url(#paint0_linear_107_519)"/>
<g style="mix-blend-mode:overlay" opacity="0.47">
<path d="M4.42627 23.8581C6.87083 23.8581 8.85254 21.8752 8.85254 19.4291C8.85254 16.983 6.87083 15 4.42627 15C1.98171 15 0 16.983 0 19.4291C0 21.8752 1.98171 23.8581 4.42627 23.8581Z" fill="white"/>
</g>
<path d="M4.42625 21.8239C5.74803 21.8239 6.81955 20.7517 6.81955 19.4291C6.81955 18.1065 5.74803 17.0343 4.42625 17.0343C3.10447 17.0343 2.03296 18.1065 2.03296 19.4291C2.03296 20.7517 3.10447 21.8239 4.42625 21.8239Z" fill="white"/>
<defs>
<linearGradient id="paint0_linear_107_519" x1="303" y1="18.4519" x2="6.18199" y2="18.4519" gradientUnits="userSpaceOnUse">
<stop stop-color="#F9F9F9"/>
<stop offset="1" stop-color="#876521"/>
</linearGradient>
</defs>
</svg>
