<svg width="205" height="38" viewBox="0 0 205 38" fill="none" xmlns="http://www.w3.org/2000/svg">
<path d="M131.955 0.0294189C134.349 0.0294189 135.823 2.81453 137.244 5.52026C137.78 6.53574 138.335 7.58099 138.94 8.49723C140.567 10.9549 141.231 13.6937 141.872 16.3432C142.267 18.1561 142.795 19.9372 143.452 21.672C144.775 24.9632 147.003 25.2476 149.346 25.5486C149.965 25.628 150.583 25.7074 151.184 25.843C152.563 26.1242 154.593 24.7118 156.94 23.0546C159.207 21.4504 161.779 19.6344 164.648 18.6884C169.009 17.2561 174.473 21.9961 179.758 26.5674C182.003 28.5091 184.122 30.3482 186.095 31.6713C192.294 35.839 203.063 18.4072 203.172 18.2319L204.025 19.2441C203.563 20.0049 192.571 37.7278 185.61 33.0804C183.58 31.7176 181.434 29.8619 179.167 27.8938C174.076 23.4813 168.81 18.9034 164.91 20.2099C162.169 21.113 159.66 22.8859 157.449 24.4505C154.923 26.23 152.748 27.7814 151.009 27.3844C150.431 27.2587 149.836 27.1827 149.241 27.1066C146.831 26.7957 144.097 26.445 142.474 22.4394C141.783 20.618 141.231 18.7471 140.821 16.8427C140.19 14.2329 139.595 11.7686 138.127 9.56563C137.482 8.5733 136.907 7.50823 136.355 6.45967C134.451 2.86746 133.155 0.737261 130.59 1.95782C127.033 3.66792 122.505 10.1544 120.326 13.2703L119.371 14.6331C117.668 17.0511 116.33 18.9629 113.229 17.6101C112.285 17.1751 111.384 16.6547 110.535 16.0554C109.285 15.2153 108.459 14.6529 107.229 15.0234C106.707 15.1756 106.492 15.685 106.092 16.717C105.352 18.6586 104.33 21.3081 99.8113 22.1979C93.3322 23.4681 87.306 19.8825 84.8168 13.3199C82.6681 7.64053 81.0021 6.53905 76.751 5.9172C72.219 5.2358 67.8489 8.73869 65.8424 14.5934C64.9895 17.0974 64.4176 19.9883 63.859 22.7834C62.9664 27.2951 62.2061 31.1883 60.4178 32.5313L60.1599 32.7298C57.3501 34.8599 49.886 40.5162 47.1026 34.2083C46.1765 31.9831 45.4238 29.6895 44.8515 27.3481C43.9788 24.1065 43.2251 21.3015 41.3442 19.4558C38.5575 16.7302 33.8007 20.7954 33.1726 21.3577C32.5643 22.4129 29.1463 28.1022 26.7596 27.401L26.2142 27.2488C24.1812 26.6931 22.2474 26.1672 20.7995 20.3786C20.0657 17.4645 18.4327 15.0532 16.4328 13.9352C15.3981 13.3563 14.3998 13.2438 13.818 13.6507C13.2362 14.0576 12.6081 14.8316 11.9172 15.6651C10.4892 17.3917 8.70744 19.5418 6.54224 19.5418V17.9772C8.29093 17.9772 9.82806 16.1216 11.1702 14.4842C11.9106 13.5878 12.6114 12.7411 13.299 12.2581C14.1816 11.633 15.4741 11.719 16.8393 12.4831C19.1335 13.7698 21.0045 16.5284 21.8474 19.8593C23.0936 24.8209 24.4919 25.1881 26.4158 25.714L26.9778 25.8695C28.3529 26.326 30.9942 22.6577 32.3363 20.2893L32.4652 20.1239C32.7032 19.8957 38.3757 14.6496 41.9755 18.179C44.144 20.3026 44.9903 23.4714 45.8894 26.8023C46.4358 29.0513 47.1564 31.2543 48.0447 33.3913C50.276 38.4356 57.0592 33.2921 59.6145 31.3537L59.8724 31.1586C61.231 30.1332 61.9781 26.359 62.7648 22.3666C63.3301 19.5087 63.9152 16.5516 64.811 13.9219C67.0093 7.46853 71.8421 3.63815 76.837 4.35924C81.3922 5.02079 83.4284 6.37036 85.7788 12.5922C88.0497 18.5892 93.6165 21.8241 99.6228 20.6499C103.59 19.8692 104.423 17.7159 105.087 15.9793C105.5 14.9076 105.923 13.8028 106.981 13.4919C108.588 13.0222 109.708 13.7731 111.008 14.6463C111.809 15.2145 112.661 15.7072 113.553 16.1183C115.996 17.1966 116.901 15.8999 118.551 13.5515L119.516 12.1556C121.754 8.95039 126.409 2.28529 130.217 0.45611C130.756 0.183152 131.351 0.0372095 131.955 0.0294189Z" fill="url(#paint0_linear_107_520)"/>
<g style="mix-blend-mode:overlay" opacity="0.47">
<path d="M4.42627 23.9591C6.87083 23.9591 8.85254 21.9761 8.85254 19.53C8.85254 17.0839 6.87083 15.101 4.42627 15.101C1.98171 15.101 0 17.0839 0 19.53C0 21.9761 1.98171 23.9591 4.42627 23.9591Z" fill="white"/>
</g>
<path d="M2.03625 19.5301C2.03625 19.216 2.09807 18.905 2.21818 18.6149C2.33829 18.3247 2.51433 18.0611 2.73626 17.839C2.9582 17.6169 3.22167 17.4408 3.51163 17.3206C3.8016 17.2004 4.11238 17.1385 4.42624 17.1385C5.06041 17.1385 5.66865 17.3904 6.11739 17.8388C6.56612 18.2872 6.81866 18.8955 6.81954 19.5301C6.81954 20.1652 6.56738 20.7743 6.11855 21.2234C5.66972 21.6725 5.06098 21.9249 4.42624 21.9249C3.79207 21.924 3.18418 21.6713 2.73606 21.2223C2.28795 20.7733 2.03625 20.1646 2.03625 19.5301Z" fill="white"/>
<defs>
<linearGradient id="paint0_linear_107_520" x1="204.039" y1="18.5528" x2="6.54553" y2="18.5528" gradientUnits="userSpaceOnUse">
<stop stop-color="#A57F2D"/>
<stop offset="1" stop-color="#02517D"/>
</linearGradient>
</defs>
</svg>
