<svg width="278" height="249" viewBox="0 0 278 249" fill="none" xmlns="http://www.w3.org/2000/svg">
<g clip-path="url(#clip0_4_41)">
<path d="M40.5663 122.265H28.1171C12.7411 122.265 4.94653 115.227 4.94653 101.357V80.6225H28.48V96.0882C28.48 97.0756 28.7009 97.9602 29.1349 98.7185C29.4741 99.3978 29.979 100.045 30.6417 100.654C31.2807 101.238 32.1722 101.523 33.3792 101.523H36.0064C38.8307 101.523 40.2034 100.093 40.2034 97.1466V71.5073C40.2034 68.5611 38.8307 67.1314 36.0064 67.1314H4.94653V1.76141H63.729V23.0327H28.4722V42.8507H40.5584C55.9266 42.8507 63.7212 49.8885 63.7212 63.7587V101.341C63.7212 115.219 55.9266 122.249 40.5584 122.249L40.5663 122.265ZM5.67234 81.3413V101.349C5.67234 114.935 13.0093 121.53 28.1171 121.53H40.5663C55.6663 121.53 63.0032 114.927 63.0032 101.349V63.7666C63.0032 50.1807 55.6663 43.5853 40.5663 43.5853H27.7542V22.3139H63.0111V2.4881H5.67234V66.3889H36.0064C39.2252 66.3889 40.9292 68.1583 40.9292 71.4915V97.1308C40.9292 100.472 39.2252 102.233 36.0064 102.233H33.3792C32.0065 102.233 30.9178 101.878 30.1526 101.175C29.4268 100.504 28.8666 99.7927 28.4958 99.0502C28.0067 98.1972 27.7542 97.194 27.7542 96.0803V81.3413H5.67234Z" fill="#02527E"/>
<path d="M28.7483 131.001L18.7605 150.281V160.574H12.8358V150.281L2.80856 131.001H9.49072L15.8415 144.515L22.145 131.001H28.7483Z" fill="#02527E"/>
<path d="M38.1049 135.787V143.204H48.0532V147.904H38.1049V155.74H49.3155V160.566H32.1722V130.945H49.3155V135.772H38.1049V135.787Z" fill="#02527E"/>
<path d="M72.8016 154.934H61.0388L59.0902 160.566H52.8656L63.4924 130.945H70.3875L81.0143 160.566H74.7503L72.8016 154.934ZM71.1922 150.187L66.9163 137.817L62.6403 150.187H71.1922Z" fill="#02527E"/>
<path d="M100.225 160.574L93.7081 149.049H90.9153V160.574H84.9905V131.001H96.0748C98.3627 131.001 100.303 131.404 101.913 132.209C103.522 133.015 104.729 134.105 105.534 135.471C106.339 136.838 106.741 138.37 106.741 140.068C106.741 142.019 106.173 143.773 105.053 145.345C103.925 146.909 102.244 147.991 100.019 148.583L107.088 160.574H100.232H100.225ZM90.9153 144.602H95.8618C97.4712 144.602 98.6704 144.215 99.4593 143.433C100.248 142.659 100.643 141.577 100.643 140.187C100.643 138.797 100.248 137.778 99.4593 137.035C98.6704 136.285 97.4712 135.914 95.8618 135.914H90.9153V144.602Z" fill="#02527E"/>
<path d="M116.752 159.807C115.104 159.104 113.802 158.085 112.839 156.758C111.885 155.431 111.388 153.86 111.356 152.059H117.707C117.794 153.275 118.22 154.231 119.001 154.942C119.774 155.645 120.839 156 122.196 156C123.553 156 124.665 155.668 125.454 155.005C126.243 154.341 126.638 153.473 126.638 152.398C126.638 151.522 126.369 150.803 125.833 150.234C125.296 149.665 124.626 149.223 123.821 148.899C123.016 148.575 121.912 148.212 120.5 147.817C118.583 147.256 117.021 146.695 115.821 146.143C114.622 145.59 113.589 144.76 112.729 143.647C111.869 142.533 111.435 141.04 111.435 139.176C111.435 137.422 111.877 135.898 112.745 134.603C113.62 133.307 114.843 132.312 116.429 131.617C118.007 130.922 119.813 130.582 121.849 130.582C124.894 130.582 127.371 131.325 129.273 132.802C131.174 134.287 132.223 136.356 132.428 139.01H125.912C125.857 137.991 125.423 137.154 124.618 136.49C123.813 135.827 122.748 135.495 121.423 135.495C120.263 135.495 119.34 135.787 118.654 136.388C117.959 136.98 117.62 137.841 117.62 138.971C117.62 139.76 117.881 140.416 118.401 140.937C118.922 141.459 119.569 141.885 120.35 142.209C121.123 142.533 122.22 142.912 123.632 143.331C125.549 143.899 127.119 144.46 128.326 145.029C129.533 145.598 130.582 146.443 131.458 147.572C132.334 148.702 132.768 150.187 132.768 152.019C132.768 153.599 132.357 155.068 131.537 156.427C130.716 157.785 129.517 158.867 127.939 159.673C126.361 160.479 124.484 160.882 122.314 160.882C120.145 160.882 118.401 160.534 116.745 159.823L116.752 159.807Z" fill="#02527E"/>
<path d="M34.61 216.844C33.4581 214.625 31.8566 212.95 29.8133 211.813C27.77 210.683 25.3954 210.114 22.713 210.114C19.7704 210.114 17.1433 210.778 14.8396 212.097C12.536 213.424 10.7372 215.304 9.4355 217.737C8.13378 220.17 7.48686 222.989 7.48686 226.196C7.48686 229.403 8.14166 232.231 9.4355 234.687C10.7372 237.144 12.536 239.032 14.8396 240.359C17.1433 241.686 19.7704 242.349 22.713 242.349C26.6813 242.349 29.9001 241.236 32.3773 239.016C34.8466 236.796 36.3693 233.787 36.9215 229.988H20.22V224.158H44.7239V229.861C44.2506 233.321 43.0278 236.504 41.0476 239.403C39.0595 242.31 36.4797 244.624 33.3083 246.354C30.1289 248.084 26.6024 248.945 22.7209 248.945C18.5396 248.945 14.7213 247.973 11.2658 246.03C7.81032 244.087 5.07276 241.386 3.04523 237.926C1.01771 234.466 0.00788879 230.556 0.00788879 226.204C0.00788879 221.852 1.01771 217.942 3.04523 214.483C5.07276 211.023 7.81821 208.321 11.2973 206.378C14.7765 204.435 18.5791 203.464 22.713 203.464C27.4466 203.464 31.6594 204.625 35.3516 206.955C39.0358 209.285 41.7181 212.579 43.3828 216.852H34.6179L34.61 216.844Z" fill="#02527E"/>
<path d="M74.987 248.55L64.7468 230.738H59.177V248.55H51.8795V204.025H67.2319C70.64 204.025 73.5353 204.625 75.9021 205.818C78.2689 207.01 80.036 208.614 81.2115 210.62C82.387 212.626 82.9708 214.87 82.9708 217.35C82.9708 220.256 82.1267 222.895 80.4463 225.264C78.758 227.634 76.1703 229.245 72.6754 230.098L83.6809 248.55H74.9791H74.987ZM59.1849 224.909H67.2476C69.9773 224.909 72.0364 224.23 73.4249 222.863C74.8134 221.497 75.5076 219.664 75.5076 217.358C75.5076 215.051 74.8292 213.25 73.4643 211.947C72.0995 210.644 70.0325 209.996 67.2555 209.996H59.1928V224.925L59.1849 224.909Z" fill="#02527E"/>
<path d="M101.187 246.085C97.7079 244.142 94.9545 241.433 92.9349 237.95C90.9074 234.466 89.8976 230.549 89.8976 226.196C89.8976 221.844 90.9074 217.934 92.9349 214.475C94.9624 211.015 97.7079 208.314 101.187 206.37C104.666 204.427 108.469 203.456 112.603 203.456C116.737 203.456 120.61 204.427 124.089 206.37C127.569 208.314 130.306 211.015 132.31 214.475C134.314 217.934 135.316 221.844 135.316 226.196C135.316 230.549 134.314 234.474 132.31 237.95C130.306 241.433 127.561 244.142 124.089 246.085C120.61 248.028 116.784 249 112.603 249C108.421 249 104.658 248.028 101.187 246.085ZM120.476 240.643C122.78 239.3 124.579 237.373 125.88 234.877C127.182 232.381 127.829 229.49 127.829 226.196C127.829 222.903 127.174 220.027 125.88 217.547C124.579 215.067 122.772 213.171 120.476 211.844C118.172 210.525 115.545 209.862 112.603 209.862C109.66 209.862 107.033 210.525 104.729 211.844C102.426 213.171 100.627 215.067 99.3252 217.547C98.0234 220.02 97.3765 222.903 97.3765 226.196C97.3765 229.49 98.0313 232.381 99.3252 234.877C100.627 237.373 102.426 239.3 104.729 240.643C107.033 241.986 109.66 242.665 112.603 242.665C115.545 242.665 118.172 241.994 120.476 240.643Z" fill="#02527E"/>
<path d="M200.394 204.025L187.211 248.55H178.959L169.618 214.854L159.701 248.55L151.512 248.613L138.905 204.025H146.645L155.859 240.28L165.839 204.025H174.028L183.306 240.09L192.584 204.025H200.394Z" fill="#02527E"/>
<path d="M235.13 204.025V209.98H223.296V248.542H215.999V209.98H204.102V204.025H235.13Z" fill="#02527E"/>
<path d="M278 204.025V248.55H270.702V229.079H249.78V248.55H242.483V204.025H249.78V223.116H270.702V204.025H278Z" fill="#02527E"/>
<path d="M9.6485 195.541C8.29155 194.783 7.22651 193.701 6.46126 192.303C5.696 190.905 5.30943 189.278 5.30943 187.429C5.30943 185.581 5.70389 183.993 6.49281 182.595C7.28174 181.197 8.36256 180.123 9.72739 179.373C11.0922 178.622 12.6227 178.251 14.3189 178.251C16.0151 178.251 17.5377 178.622 18.9104 179.373C20.2753 180.123 21.3561 181.189 22.145 182.579C22.9339 183.97 23.3363 185.589 23.3363 187.437C23.3363 189.286 22.926 190.905 22.1135 192.311C21.3009 193.709 20.1964 194.791 18.8079 195.549C17.4194 196.307 15.881 196.687 14.1848 196.687C12.4886 196.687 10.9976 196.307 9.6485 195.549V195.541ZM17.1827 193.33C18.1136 192.832 18.871 192.082 19.4469 191.079C20.0228 190.083 20.3068 188.859 20.3068 187.429C20.3068 186 20.0228 184.783 19.4627 183.78C18.8947 182.785 18.161 182.034 17.2458 181.553C16.3386 181.063 15.3445 180.818 14.2874 180.818C13.2302 180.818 12.2125 181.063 11.3131 181.553C10.4138 182.042 9.68795 182.785 9.15148 183.78C8.60712 184.783 8.33889 186 8.33889 187.429C8.33889 188.859 8.60712 190.115 9.1357 191.11C9.67217 192.105 10.3743 192.856 11.2658 193.338C12.1573 193.827 13.1276 194.072 14.1927 194.072C15.2577 194.072 16.2518 193.819 17.1827 193.322V193.33Z" fill="#A5802D"/>
<path d="M34.4995 180.984H30.76V196.394H27.8016V180.984H25.49V178.543H27.8016V177.272C27.8016 175.273 28.3144 173.812 29.3479 172.888C30.3735 171.964 32.0302 171.505 34.3102 171.505V173.978C33.0085 173.978 32.0933 174.23 31.5647 174.744C31.0361 175.257 30.7679 176.095 30.7679 177.272V178.543H34.5074V180.984H34.4995Z" fill="#A5802D"/>
<path d="M116.224 25.8131H115.672C115.672 22.8827 114.252 21.4609 111.325 21.4609V20.908H114.228L109.849 11.7849L104.682 0.924153L95.136 20.908H98.5205V21.4609C95.5936 21.4609 94.1735 22.8827 94.1735 25.8131H93.6213C93.6213 23.6488 94.3471 22.1955 95.7908 21.4609H94.2524L97.1477 15.371L97.8972 13.8781L98.481 12.5985L104.24 0.552912H93.8895C78.6633 0.552912 70.9477 7.49591 70.9477 21.1844H70.3954C70.3954 7.12467 78.3004 0 93.8974 0H115.948C131.545 0 139.45 7.13256 139.45 21.1844H138.897C138.897 7.49591 131.174 0.552912 115.956 0.552912H105.132L115.119 21.4609H114.062C115.506 22.1955 116.232 23.6488 116.232 25.8131H116.224Z" fill="#02527E"/>
<path d="M99.4277 21.4609H94.2524L97.1477 15.371L98.2049 13.2541L100.193 19.9285L99.4277 21.4609ZM95.1281 20.908H99.0806L99.5934 19.8811L99.1358 18.254L98.0787 14.747L97.6448 15.6079L95.1281 20.9001V20.908Z" fill="#02527E"/>
<path d="M104.682 1.56395L109.605 11.9034L110.26 13.2541L109.202 16.9349L109.013 17.6063L105.187 9.76285L104.69 8.74391L104.193 9.76285L100.374 17.5984L100.232 17.0929L99.12 13.2067L99.2384 12.9618L104.69 1.56395M104.69 0.276459L98.7414 12.7249L98.5284 13.1514L99.696 17.2509L100.225 19.1703L104.69 10.0156L109.155 19.1703L109.739 17.0929L110.851 13.2067L110.11 11.6664L104.69 0.276459Z" fill="#A5802D"/>
<path d="M115.111 21.4609H109.928L109.163 19.9364L109.723 17.9696L111.151 13.2383L115.104 21.4609H115.111ZM110.268 20.908H114.22L111.269 14.7707L109.755 19.8811L110.268 20.908Z" fill="#02527E"/>
<path d="M105.597 122.178H93.8895C78.2925 122.178 70.3875 115.045 70.3875 100.993V21.1844H70.9398V100.985C70.9398 114.674 78.6554 121.617 93.8816 121.617H104.706L94.71 100.709H95.7671C94.3234 99.9744 93.5976 98.521 93.5976 96.3568V25.2839H94.1498V96.3647C94.1498 99.2951 95.5699 100.717 98.4968 100.717V101.27H95.5936L99.9721 110.393L105.581 122.178H105.597Z" fill="#02527E"/>
<path d="M115.948 122.178H104.721L114.709 101.27H111.325V100.717C114.252 100.717 115.672 99.2951 115.672 96.3647V25.2839H116.224V96.3647C116.224 98.5289 115.498 99.9823 114.054 100.717H115.593L105.605 121.625H115.948C131.174 121.625 138.89 114.682 138.89 100.993V21.1844H139.442V100.985C139.442 115.045 131.537 122.17 115.94 122.17L115.948 122.178Z" fill="#02527E"/>
<path d="M111.632 108.924L109.644 102.241L110.41 100.709H115.593L111.64 108.916L111.632 108.924ZM110.236 102.297L110.694 103.924L111.751 107.431L112.177 106.57L114.693 101.278H110.733L110.22 102.305L110.236 102.297Z" fill="#02527E"/>
<path d="M100.832 104.564L104.658 112.407L105.155 113.426L105.652 112.407L109.471 104.571L109.613 105.077L110.725 108.963L110.607 109.208L105.155 120.606L100.232 110.266L99.5776 108.916L100.635 105.235L100.824 104.564M109.613 103.008L105.147 112.162L100.682 103.008L100.098 105.085L98.9859 108.971L99.7275 110.511L105.147 121.901L111.096 109.453L111.309 109.026L110.141 104.927L109.613 103.008Z" fill="#A5802D"/>
<path d="M98.6861 108.939L94.7336 100.717H99.9169L100.674 102.241L100.114 104.208L98.6861 108.939ZM95.6172 101.27L98.5678 107.407L100.083 102.297L99.5697 101.27H95.6093H95.6172Z" fill="#02527E"/>
<path d="M149.682 153.457L146.25 160.574H130.393C131.6 159.728 132.57 158.694 133.304 157.485C134.314 155.811 134.827 153.962 134.827 152.011C134.827 149.713 134.243 147.801 133.083 146.301C132.01 144.91 130.701 143.852 129.194 143.157C129.146 143.133 129.107 143.117 129.06 143.102L130.03 141.064H134.645L134.479 138.86C134.345 137.185 133.935 135.685 133.233 134.373L139.962 120.29L149.674 153.465L149.682 153.457Z" fill="#02527E"/>
<path d="M176.442 49.4619L208.212 115.938L200.623 142.683L178.564 97.0124L176.434 92.597L174.304 97.0124L152.246 142.683L144.657 115.938L176.426 49.4619M176.426 43.9723L142.132 115.724L151.662 149.318L176.426 98.0392L201.191 149.318L210.721 115.724L176.426 43.9723Z" fill="#A5802D"/>
<path d="M232.172 160.574H206.634L203.202 153.465L212.914 120.282L232.172 160.574Z" fill="#02527E"/>
</g>
<defs>
<clipPath id="clip0_4_41">
<rect width="278" height="249" fill="white"/>
</clipPath>
</defs>
</svg>
